<?xml version="1.0" encoding="utf-8" standalone="no"?>
<!DOCTYPE svg PUBLIC "-//W3C//DTD SVG 1.1//EN"
  "http://www.w3.org/Graphics/SVG/1.1/DTD/svg11.dtd">
<svg xmlns:xlink="http://www.w3.org/1999/xlink" width="1000.098125pt" height="388.844525pt" viewBox="0 0 1000.098125 388.844525" xmlns="http://www.w3.org/2000/svg" version="1.1">
 <metadata>
  <rdf:RDF xmlns:dc="http://purl.org/dc/elements/1.1/" xmlns:cc="http://creativecommons.org/ns#" xmlns:rdf="http://www.w3.org/1999/02/22-rdf-syntax-ns#">
   <cc:Work>
    <dc:type rdf:resource="http://purl.org/dc/dcmitype/StillImage"/>
    <dc:date>2024-09-05T13:39:04.962111</dc:date>
    <dc:format>image/svg+xml</dc:format>
    <dc:creator>
     <cc:Agent>
      <dc:title>Matplotlib v3.8.2, https://matplotlib.org/</dc:title>
     </cc:Agent>
    </dc:creator>
   </cc:Work>
  </rdf:RDF>
 </metadata>
 <defs>
  <style type="text/css">*{stroke-linejoin: round; stroke-linecap: butt}</style>
 </defs>
 <g id="figure_1">
  <g id="axes_1">
   <g id="patch_1">
    <path d="M 58.418125 353.2239 
L 985.263125 353.2239 
L 985.263125 35.2559 
L 58.418125 35.2559 
z
" style="fill: #ffffff"/>
   </g>
   <g id="matplotlib.axis_1">
    <g id="xtick_1">
     <g id="text_1">
      <!-- 0 -->
      <g transform="translate(55.873125 366.30265) scale(0.08 -0.08)">
       <defs>
        <path id="DejaVuSans-30" d="M 2034 4250 
Q 1547 4250 1301 3770 
Q 1056 3291 1056 2328 
Q 1056 1369 1301 889 
Q 1547 409 2034 409 
Q 2525 409 2770 889 
Q 3016 1369 3016 2328 
Q 3016 3291 2770 3770 
Q 2525 4250 2034 4250 
z
M 2034 4750 
Q 2819 4750 3233 4129 
Q 3647 3509 3647 2328 
Q 3647 1150 3233 529 
Q 2819 -91 2034 -91 
Q 1250 -91 836 529 
Q 422 1150 422 2328 
Q 422 3509 836 4129 
Q 1250 4750 2034 4750 
z
" transform="scale(0.015625)"/>
       </defs>
       <use xlink:href="#DejaVuSans-30"/>
      </g>
     </g>
    </g>
    <g id="xtick_2">
     <g id="text_2">
      <!-- 20 -->
      <g transform="translate(238.697125 366.30265) scale(0.08 -0.08)">
       <defs>
        <path id="DejaVuSans-32" d="M 1228 531 
L 3431 531 
L 3431 0 
L 469 0 
L 469 531 
Q 828 903 1448 1529 
Q 2069 2156 2228 2338 
Q 2531 2678 2651 2914 
Q 2772 3150 2772 3378 
Q 2772 3750 2511 3984 
Q 2250 4219 1831 4219 
Q 1534 4219 1204 4116 
Q 875 4013 500 3803 
L 500 4441 
Q 881 4594 1212 4672 
Q 1544 4750 1819 4750 
Q 2544 4750 2975 4387 
Q 3406 4025 3406 3419 
Q 3406 3131 3298 2873 
Q 3191 2616 2906 2266 
Q 2828 2175 2409 1742 
Q 1991 1309 1228 531 
z
" transform="scale(0.015625)"/>
       </defs>
       <use xlink:href="#DejaVuSans-32"/>
       <use xlink:href="#DejaVuSans-30" x="63.623047"/>
      </g>
     </g>
    </g>
    <g id="xtick_3">
     <g id="text_3">
      <!-- 40 -->
      <g transform="translate(424.066125 366.30265) scale(0.08 -0.08)">
       <defs>
        <path id="DejaVuSans-34" d="M 2419 4116 
L 825 1625 
L 2419 1625 
L 2419 4116 
z
M 2253 4666 
L 3047 4666 
L 3047 1625 
L 3713 1625 
L 3713 1100 
L 3047 1100 
L 3047 0 
L 2419 0 
L 2419 1100 
L 313 1100 
L 313 1709 
L 2253 4666 
z
" transform="scale(0.015625)"/>
       </defs>
       <use xlink:href="#DejaVuSans-34"/>
       <use xlink:href="#DejaVuSans-30" x="63.623047"/>
      </g>
     </g>
    </g>
    <g id="xtick_4">
     <g id="text_4">
      <!-- 60 -->
      <g transform="translate(609.435125 366.30265) scale(0.08 -0.08)">
       <defs>
        <path id="DejaVuSans-36" d="M 2113 2584 
Q 1688 2584 1439 2293 
Q 1191 2003 1191 1497 
Q 1191 994 1439 701 
Q 1688 409 2113 409 
Q 2538 409 2786 701 
Q 3034 994 3034 1497 
Q 3034 2003 2786 2293 
Q 2538 2584 2113 2584 
z
M 3366 4563 
L 3366 3988 
Q 3128 4100 2886 4159 
Q 2644 4219 2406 4219 
Q 1781 4219 1451 3797 
Q 1122 3375 1075 2522 
Q 1259 2794 1537 2939 
Q 1816 3084 2150 3084 
Q 2853 3084 3261 2657 
Q 3669 2231 3669 1497 
Q 3669 778 3244 343 
Q 2819 -91 2113 -91 
Q 1303 -91 875 529 
Q 447 1150 447 2328 
Q 447 3434 972 4092 
Q 1497 4750 2381 4750 
Q 2619 4750 2861 4703 
Q 3103 4656 3366 4563 
z
" transform="scale(0.015625)"/>
       </defs>
       <use xlink:href="#DejaVuSans-36"/>
       <use xlink:href="#DejaVuSans-30" x="63.623047"/>
      </g>
     </g>
    </g>
    <g id="xtick_5">
     <g id="text_5">
      <!-- 80 -->
      <g transform="translate(794.804125 366.30265) scale(0.08 -0.08)">
       <defs>
        <path id="DejaVuSans-38" d="M 2034 2216 
Q 1584 2216 1326 1975 
Q 1069 1734 1069 1313 
Q 1069 891 1326 650 
Q 1584 409 2034 409 
Q 2484 409 2743 651 
Q 3003 894 3003 1313 
Q 3003 1734 2745 1975 
Q 2488 2216 2034 2216 
z
M 1403 2484 
Q 997 2584 770 2862 
Q 544 3141 544 3541 
Q 544 4100 942 4425 
Q 1341 4750 2034 4750 
Q 2731 4750 3128 4425 
Q 3525 4100 3525 3541 
Q 3525 3141 3298 2862 
Q 3072 2584 2669 2484 
Q 3125 2378 3379 2068 
Q 3634 1759 3634 1313 
Q 3634 634 3220 271 
Q 2806 -91 2034 -91 
Q 1263 -91 848 271 
Q 434 634 434 1313 
Q 434 1759 690 2068 
Q 947 2378 1403 2484 
z
M 1172 3481 
Q 1172 3119 1398 2916 
Q 1625 2713 2034 2713 
Q 2441 2713 2670 2916 
Q 2900 3119 2900 3481 
Q 2900 3844 2670 4047 
Q 2441 4250 2034 4250 
Q 1625 4250 1398 4047 
Q 1172 3844 1172 3481 
z
" transform="scale(0.015625)"/>
       </defs>
       <use xlink:href="#DejaVuSans-38"/>
       <use xlink:href="#DejaVuSans-30" x="63.623047"/>
      </g>
     </g>
    </g>
    <g id="xtick_6">
     <g id="text_6">
      <!-- 100 -->
      <g transform="translate(977.628125 366.30265) scale(0.08 -0.08)">
       <defs>
        <path id="DejaVuSans-31" d="M 794 531 
L 1825 531 
L 1825 4091 
L 703 3866 
L 703 4441 
L 1819 4666 
L 2450 4666 
L 2450 531 
L 3481 531 
L 3481 0 
L 794 0 
L 794 531 
z
" transform="scale(0.015625)"/>
       </defs>
       <use xlink:href="#DejaVuSans-31"/>
       <use xlink:href="#DejaVuSans-30" x="63.623047"/>
       <use xlink:href="#DejaVuSans-30" x="127.246094"/>
      </g>
     </g>
    </g>
    <g id="text_7">
     <!-- Transcript Position (%) -->
     <g transform="translate(466.008594 379.564837) scale(0.1 -0.1)">
      <defs>
       <path id="DejaVuSans-54" d="M -19 4666 
L 3928 4666 
L 3928 4134 
L 2272 4134 
L 2272 0 
L 1638 0 
L 1638 4134 
L -19 4134 
L -19 4666 
z
" transform="scale(0.015625)"/>
       <path id="DejaVuSans-72" d="M 2631 2963 
Q 2534 3019 2420 3045 
Q 2306 3072 2169 3072 
Q 1681 3072 1420 2755 
Q 1159 2438 1159 1844 
L 1159 0 
L 581 0 
L 581 3500 
L 1159 3500 
L 1159 2956 
Q 1341 3275 1631 3429 
Q 1922 3584 2338 3584 
Q 2397 3584 2469 3576 
Q 2541 3569 2628 3553 
L 2631 2963 
z
" transform="scale(0.015625)"/>
       <path id="DejaVuSans-61" d="M 2194 1759 
Q 1497 1759 1228 1600 
Q 959 1441 959 1056 
Q 959 750 1161 570 
Q 1363 391 1709 391 
Q 2188 391 2477 730 
Q 2766 1069 2766 1631 
L 2766 1759 
L 2194 1759 
z
M 3341 1997 
L 3341 0 
L 2766 0 
L 2766 531 
Q 2569 213 2275 61 
Q 1981 -91 1556 -91 
Q 1019 -91 701 211 
Q 384 513 384 1019 
Q 384 1609 779 1909 
Q 1175 2209 1959 2209 
L 2766 2209 
L 2766 2266 
Q 2766 2663 2505 2880 
Q 2244 3097 1772 3097 
Q 1472 3097 1187 3025 
Q 903 2953 641 2809 
L 641 3341 
Q 956 3463 1253 3523 
Q 1550 3584 1831 3584 
Q 2591 3584 2966 3190 
Q 3341 2797 3341 1997 
z
" transform="scale(0.015625)"/>
       <path id="DejaVuSans-6e" d="M 3513 2113 
L 3513 0 
L 2938 0 
L 2938 2094 
Q 2938 2591 2744 2837 
Q 2550 3084 2163 3084 
Q 1697 3084 1428 2787 
Q 1159 2491 1159 1978 
L 1159 0 
L 581 0 
L 581 3500 
L 1159 3500 
L 1159 2956 
Q 1366 3272 1645 3428 
Q 1925 3584 2291 3584 
Q 2894 3584 3203 3211 
Q 3513 2838 3513 2113 
z
" transform="scale(0.015625)"/>
       <path id="DejaVuSans-73" d="M 2834 3397 
L 2834 2853 
Q 2591 2978 2328 3040 
Q 2066 3103 1784 3103 
Q 1356 3103 1142 2972 
Q 928 2841 928 2578 
Q 928 2378 1081 2264 
Q 1234 2150 1697 2047 
L 1894 2003 
Q 2506 1872 2764 1633 
Q 3022 1394 3022 966 
Q 3022 478 2636 193 
Q 2250 -91 1575 -91 
Q 1294 -91 989 -36 
Q 684 19 347 128 
L 347 722 
Q 666 556 975 473 
Q 1284 391 1588 391 
Q 1994 391 2212 530 
Q 2431 669 2431 922 
Q 2431 1156 2273 1281 
Q 2116 1406 1581 1522 
L 1381 1569 
Q 847 1681 609 1914 
Q 372 2147 372 2553 
Q 372 3047 722 3315 
Q 1072 3584 1716 3584 
Q 2034 3584 2315 3537 
Q 2597 3491 2834 3397 
z
" transform="scale(0.015625)"/>
       <path id="DejaVuSans-63" d="M 3122 3366 
L 3122 2828 
Q 2878 2963 2633 3030 
Q 2388 3097 2138 3097 
Q 1578 3097 1268 2742 
Q 959 2388 959 1747 
Q 959 1106 1268 751 
Q 1578 397 2138 397 
Q 2388 397 2633 464 
Q 2878 531 3122 666 
L 3122 134 
Q 2881 22 2623 -34 
Q 2366 -91 2075 -91 
Q 1284 -91 818 406 
Q 353 903 353 1747 
Q 353 2603 823 3093 
Q 1294 3584 2113 3584 
Q 2378 3584 2631 3529 
Q 2884 3475 3122 3366 
z
" transform="scale(0.015625)"/>
       <path id="DejaVuSans-69" d="M 603 3500 
L 1178 3500 
L 1178 0 
L 603 0 
L 603 3500 
z
M 603 4863 
L 1178 4863 
L 1178 4134 
L 603 4134 
L 603 4863 
z
" transform="scale(0.015625)"/>
       <path id="DejaVuSans-70" d="M 1159 525 
L 1159 -1331 
L 581 -1331 
L 581 3500 
L 1159 3500 
L 1159 2969 
Q 1341 3281 1617 3432 
Q 1894 3584 2278 3584 
Q 2916 3584 3314 3078 
Q 3713 2572 3713 1747 
Q 3713 922 3314 415 
Q 2916 -91 2278 -91 
Q 1894 -91 1617 61 
Q 1341 213 1159 525 
z
M 3116 1747 
Q 3116 2381 2855 2742 
Q 2594 3103 2138 3103 
Q 1681 3103 1420 2742 
Q 1159 2381 1159 1747 
Q 1159 1113 1420 752 
Q 1681 391 2138 391 
Q 2594 391 2855 752 
Q 3116 1113 3116 1747 
z
" transform="scale(0.015625)"/>
       <path id="DejaVuSans-74" d="M 1172 4494 
L 1172 3500 
L 2356 3500 
L 2356 3053 
L 1172 3053 
L 1172 1153 
Q 1172 725 1289 603 
Q 1406 481 1766 481 
L 2356 481 
L 2356 0 
L 1766 0 
Q 1100 0 847 248 
Q 594 497 594 1153 
L 594 3053 
L 172 3053 
L 172 3500 
L 594 3500 
L 594 4494 
L 1172 4494 
z
" transform="scale(0.015625)"/>
       <path id="DejaVuSans-20" transform="scale(0.015625)"/>
       <path id="DejaVuSans-50" d="M 1259 4147 
L 1259 2394 
L 2053 2394 
Q 2494 2394 2734 2622 
Q 2975 2850 2975 3272 
Q 2975 3691 2734 3919 
Q 2494 4147 2053 4147 
L 1259 4147 
z
M 628 4666 
L 2053 4666 
Q 2838 4666 3239 4311 
Q 3641 3956 3641 3272 
Q 3641 2581 3239 2228 
Q 2838 1875 2053 1875 
L 1259 1875 
L 1259 0 
L 628 0 
L 628 4666 
z
" transform="scale(0.015625)"/>
       <path id="DejaVuSans-6f" d="M 1959 3097 
Q 1497 3097 1228 2736 
Q 959 2375 959 1747 
Q 959 1119 1226 758 
Q 1494 397 1959 397 
Q 2419 397 2687 759 
Q 2956 1122 2956 1747 
Q 2956 2369 2687 2733 
Q 2419 3097 1959 3097 
z
M 1959 3584 
Q 2709 3584 3137 3096 
Q 3566 2609 3566 1747 
Q 3566 888 3137 398 
Q 2709 -91 1959 -91 
Q 1206 -91 779 398 
Q 353 888 353 1747 
Q 353 2609 779 3096 
Q 1206 3584 1959 3584 
z
" transform="scale(0.015625)"/>
       <path id="DejaVuSans-28" d="M 1984 4856 
Q 1566 4138 1362 3434 
Q 1159 2731 1159 2009 
Q 1159 1288 1364 580 
Q 1569 -128 1984 -844 
L 1484 -844 
Q 1016 -109 783 600 
Q 550 1309 550 2009 
Q 550 2706 781 3412 
Q 1013 4119 1484 4856 
L 1984 4856 
z
" transform="scale(0.015625)"/>
       <path id="DejaVuSans-25" d="M 4653 2053 
Q 4381 2053 4226 1822 
Q 4072 1591 4072 1178 
Q 4072 772 4226 539 
Q 4381 306 4653 306 
Q 4919 306 5073 539 
Q 5228 772 5228 1178 
Q 5228 1588 5073 1820 
Q 4919 2053 4653 2053 
z
M 4653 2450 
Q 5147 2450 5437 2106 
Q 5728 1763 5728 1178 
Q 5728 594 5436 251 
Q 5144 -91 4653 -91 
Q 4153 -91 3862 251 
Q 3572 594 3572 1178 
Q 3572 1766 3864 2108 
Q 4156 2450 4653 2450 
z
M 1428 4353 
Q 1159 4353 1004 4120 
Q 850 3888 850 3481 
Q 850 3069 1003 2837 
Q 1156 2606 1428 2606 
Q 1700 2606 1854 2837 
Q 2009 3069 2009 3481 
Q 2009 3884 1853 4118 
Q 1697 4353 1428 4353 
z
M 4250 4750 
L 4750 4750 
L 1831 -91 
L 1331 -91 
L 4250 4750 
z
M 1428 4750 
Q 1922 4750 2215 4408 
Q 2509 4066 2509 3481 
Q 2509 2891 2217 2550 
Q 1925 2209 1428 2209 
Q 931 2209 642 2551 
Q 353 2894 353 3481 
Q 353 4063 643 4406 
Q 934 4750 1428 4750 
z
" transform="scale(0.015625)"/>
       <path id="DejaVuSans-29" d="M 513 4856 
L 1013 4856 
Q 1481 4119 1714 3412 
Q 1947 2706 1947 2009 
Q 1947 1309 1714 600 
Q 1481 -109 1013 -844 
L 513 -844 
Q 928 -128 1133 580 
Q 1338 1288 1338 2009 
Q 1338 2731 1133 3434 
Q 928 4138 513 4856 
z
" transform="scale(0.015625)"/>
      </defs>
      <use xlink:href="#DejaVuSans-54"/>
      <use xlink:href="#DejaVuSans-72" x="46.333984"/>
      <use xlink:href="#DejaVuSans-61" x="87.447266"/>
      <use xlink:href="#DejaVuSans-6e" x="148.726562"/>
      <use xlink:href="#DejaVuSans-73" x="212.105469"/>
      <use xlink:href="#DejaVuSans-63" x="264.205078"/>
      <use xlink:href="#DejaVuSans-72" x="319.185547"/>
      <use xlink:href="#DejaVuSans-69" x="360.298828"/>
      <use xlink:href="#DejaVuSans-70" x="388.082031"/>
      <use xlink:href="#DejaVuSans-74" x="451.558594"/>
      <use xlink:href="#DejaVuSans-20" x="490.767578"/>
      <use xlink:href="#DejaVuSans-50" x="522.554688"/>
      <use xlink:href="#DejaVuSans-6f" x="579.232422"/>
      <use xlink:href="#DejaVuSans-73" x="640.414062"/>
      <use xlink:href="#DejaVuSans-69" x="692.513672"/>
      <use xlink:href="#DejaVuSans-74" x="720.296875"/>
      <use xlink:href="#DejaVuSans-69" x="759.505859"/>
      <use xlink:href="#DejaVuSans-6f" x="787.289062"/>
      <use xlink:href="#DejaVuSans-6e" x="848.470703"/>
      <use xlink:href="#DejaVuSans-20" x="911.849609"/>
      <use xlink:href="#DejaVuSans-28" x="943.636719"/>
      <use xlink:href="#DejaVuSans-25" x="982.650391"/>
      <use xlink:href="#DejaVuSans-29" x="1077.669922"/>
     </g>
    </g>
   </g>
   <g id="matplotlib.axis_2">
    <g id="ytick_1">
     <g id="line2d_1">
      <path d="M 58.418125 353.2239 
L 985.263125 353.2239 
" clip-path="url(#p6adfa2f515)" style="fill: none; stroke: #dedede; stroke-linecap: square"/>
     </g>
     <g id="text_8">
      <!-- 0 -->
      <g transform="translate(46.328125 356.263275) scale(0.08 -0.08)">
       <use xlink:href="#DejaVuSans-30"/>
      </g>
     </g>
    </g>
    <g id="ytick_2">
     <g id="line2d_2">
      <path d="M 58.418125 304.638394 
L 985.263125 304.638394 
" clip-path="url(#p6adfa2f515)" style="fill: none; stroke: #dedede; stroke-linecap: square"/>
     </g>
     <g id="text_9">
      <!-- 20000 -->
      <g transform="translate(25.968125 307.677769) scale(0.08 -0.08)">
       <use xlink:href="#DejaVuSans-32"/>
       <use xlink:href="#DejaVuSans-30" x="63.623047"/>
       <use xlink:href="#DejaVuSans-30" x="127.246094"/>
       <use xlink:href="#DejaVuSans-30" x="190.869141"/>
       <use xlink:href="#DejaVuSans-30" x="254.492188"/>
      </g>
     </g>
    </g>
    <g id="ytick_3">
     <g id="line2d_3">
      <path d="M 58.418125 256.052888 
L 985.263125 256.052888 
" clip-path="url(#p6adfa2f515)" style="fill: none; stroke: #dedede; stroke-linecap: square"/>
     </g>
     <g id="text_10">
      <!-- 40000 -->
      <g transform="translate(25.968125 259.092263) scale(0.08 -0.08)">
       <use xlink:href="#DejaVuSans-34"/>
       <use xlink:href="#DejaVuSans-30" x="63.623047"/>
       <use xlink:href="#DejaVuSans-30" x="127.246094"/>
       <use xlink:href="#DejaVuSans-30" x="190.869141"/>
       <use xlink:href="#DejaVuSans-30" x="254.492188"/>
      </g>
     </g>
    </g>
    <g id="ytick_4">
     <g id="line2d_4">
      <path d="M 58.418125 207.467381 
L 985.263125 207.467381 
" clip-path="url(#p6adfa2f515)" style="fill: none; stroke: #dedede; stroke-linecap: square"/>
     </g>
     <g id="text_11">
      <!-- 60000 -->
      <g transform="translate(25.968125 210.506756) scale(0.08 -0.08)">
       <use xlink:href="#DejaVuSans-36"/>
       <use xlink:href="#DejaVuSans-30" x="63.623047"/>
       <use xlink:href="#DejaVuSans-30" x="127.246094"/>
       <use xlink:href="#DejaVuSans-30" x="190.869141"/>
       <use xlink:href="#DejaVuSans-30" x="254.492188"/>
      </g>
     </g>
    </g>
    <g id="ytick_5">
     <g id="line2d_5">
      <path d="M 58.418125 158.881875 
L 985.263125 158.881875 
" clip-path="url(#p6adfa2f515)" style="fill: none; stroke: #dedede; stroke-linecap: square"/>
     </g>
     <g id="text_12">
      <!-- 80000 -->
      <g transform="translate(25.968125 161.92125) scale(0.08 -0.08)">
       <use xlink:href="#DejaVuSans-38"/>
       <use xlink:href="#DejaVuSans-30" x="63.623047"/>
       <use xlink:href="#DejaVuSans-30" x="127.246094"/>
       <use xlink:href="#DejaVuSans-30" x="190.869141"/>
       <use xlink:href="#DejaVuSans-30" x="254.492188"/>
      </g>
     </g>
    </g>
    <g id="ytick_6">
     <g id="line2d_6">
      <path d="M 58.418125 110.296369 
L 985.263125 110.296369 
" clip-path="url(#p6adfa2f515)" style="fill: none; stroke: #dedede; stroke-linecap: square"/>
     </g>
     <g id="text_13">
      <!-- 100000 -->
      <g transform="translate(20.878125 113.335744) scale(0.08 -0.08)">
       <use xlink:href="#DejaVuSans-31"/>
       <use xlink:href="#DejaVuSans-30" x="63.623047"/>
       <use xlink:href="#DejaVuSans-30" x="127.246094"/>
       <use xlink:href="#DejaVuSans-30" x="190.869141"/>
       <use xlink:href="#DejaVuSans-30" x="254.492188"/>
       <use xlink:href="#DejaVuSans-30" x="318.115234"/>
      </g>
     </g>
    </g>
    <g id="ytick_7">
     <g id="line2d_7">
      <path d="M 58.418125 61.710863 
L 985.263125 61.710863 
" clip-path="url(#p6adfa2f515)" style="fill: none; stroke: #dedede; stroke-linecap: square"/>
     </g>
     <g id="text_14">
      <!-- 120000 -->
      <g transform="translate(20.878125 64.750238) scale(0.08 -0.08)">
       <use xlink:href="#DejaVuSans-31"/>
       <use xlink:href="#DejaVuSans-32" x="63.623047"/>
       <use xlink:href="#DejaVuSans-30" x="127.246094"/>
       <use xlink:href="#DejaVuSans-30" x="190.869141"/>
       <use xlink:href="#DejaVuSans-30" x="254.492188"/>
       <use xlink:href="#DejaVuSans-30" x="318.115234"/>
      </g>
     </g>
    </g>
    <g id="text_15">
     <!-- Cumulative mapped-read depth -->
     <g transform="translate(14.798437 274.104744) rotate(-90) scale(0.1 -0.1)">
      <defs>
       <path id="DejaVuSans-43" d="M 4122 4306 
L 4122 3641 
Q 3803 3938 3442 4084 
Q 3081 4231 2675 4231 
Q 1875 4231 1450 3742 
Q 1025 3253 1025 2328 
Q 1025 1406 1450 917 
Q 1875 428 2675 428 
Q 3081 428 3442 575 
Q 3803 722 4122 1019 
L 4122 359 
Q 3791 134 3420 21 
Q 3050 -91 2638 -91 
Q 1578 -91 968 557 
Q 359 1206 359 2328 
Q 359 3453 968 4101 
Q 1578 4750 2638 4750 
Q 3056 4750 3426 4639 
Q 3797 4528 4122 4306 
z
" transform="scale(0.015625)"/>
       <path id="DejaVuSans-75" d="M 544 1381 
L 544 3500 
L 1119 3500 
L 1119 1403 
Q 1119 906 1312 657 
Q 1506 409 1894 409 
Q 2359 409 2629 706 
Q 2900 1003 2900 1516 
L 2900 3500 
L 3475 3500 
L 3475 0 
L 2900 0 
L 2900 538 
Q 2691 219 2414 64 
Q 2138 -91 1772 -91 
Q 1169 -91 856 284 
Q 544 659 544 1381 
z
M 1991 3584 
L 1991 3584 
z
" transform="scale(0.015625)"/>
       <path id="DejaVuSans-6d" d="M 3328 2828 
Q 3544 3216 3844 3400 
Q 4144 3584 4550 3584 
Q 5097 3584 5394 3201 
Q 5691 2819 5691 2113 
L 5691 0 
L 5113 0 
L 5113 2094 
Q 5113 2597 4934 2840 
Q 4756 3084 4391 3084 
Q 3944 3084 3684 2787 
Q 3425 2491 3425 1978 
L 3425 0 
L 2847 0 
L 2847 2094 
Q 2847 2600 2669 2842 
Q 2491 3084 2119 3084 
Q 1678 3084 1418 2786 
Q 1159 2488 1159 1978 
L 1159 0 
L 581 0 
L 581 3500 
L 1159 3500 
L 1159 2956 
Q 1356 3278 1631 3431 
Q 1906 3584 2284 3584 
Q 2666 3584 2933 3390 
Q 3200 3197 3328 2828 
z
" transform="scale(0.015625)"/>
       <path id="DejaVuSans-6c" d="M 603 4863 
L 1178 4863 
L 1178 0 
L 603 0 
L 603 4863 
z
" transform="scale(0.015625)"/>
       <path id="DejaVuSans-76" d="M 191 3500 
L 800 3500 
L 1894 563 
L 2988 3500 
L 3597 3500 
L 2284 0 
L 1503 0 
L 191 3500 
z
" transform="scale(0.015625)"/>
       <path id="DejaVuSans-65" d="M 3597 1894 
L 3597 1613 
L 953 1613 
Q 991 1019 1311 708 
Q 1631 397 2203 397 
Q 2534 397 2845 478 
Q 3156 559 3463 722 
L 3463 178 
Q 3153 47 2828 -22 
Q 2503 -91 2169 -91 
Q 1331 -91 842 396 
Q 353 884 353 1716 
Q 353 2575 817 3079 
Q 1281 3584 2069 3584 
Q 2775 3584 3186 3129 
Q 3597 2675 3597 1894 
z
M 3022 2063 
Q 3016 2534 2758 2815 
Q 2500 3097 2075 3097 
Q 1594 3097 1305 2825 
Q 1016 2553 972 2059 
L 3022 2063 
z
" transform="scale(0.015625)"/>
       <path id="DejaVuSans-64" d="M 2906 2969 
L 2906 4863 
L 3481 4863 
L 3481 0 
L 2906 0 
L 2906 525 
Q 2725 213 2448 61 
Q 2172 -91 1784 -91 
Q 1150 -91 751 415 
Q 353 922 353 1747 
Q 353 2572 751 3078 
Q 1150 3584 1784 3584 
Q 2172 3584 2448 3432 
Q 2725 3281 2906 2969 
z
M 947 1747 
Q 947 1113 1208 752 
Q 1469 391 1925 391 
Q 2381 391 2643 752 
Q 2906 1113 2906 1747 
Q 2906 2381 2643 2742 
Q 2381 3103 1925 3103 
Q 1469 3103 1208 2742 
Q 947 2381 947 1747 
z
" transform="scale(0.015625)"/>
       <path id="DejaVuSans-2d" d="M 313 2009 
L 1997 2009 
L 1997 1497 
L 313 1497 
L 313 2009 
z
" transform="scale(0.015625)"/>
       <path id="DejaVuSans-68" d="M 3513 2113 
L 3513 0 
L 2938 0 
L 2938 2094 
Q 2938 2591 2744 2837 
Q 2550 3084 2163 3084 
Q 1697 3084 1428 2787 
Q 1159 2491 1159 1978 
L 1159 0 
L 581 0 
L 581 4863 
L 1159 4863 
L 1159 2956 
Q 1366 3272 1645 3428 
Q 1925 3584 2291 3584 
Q 2894 3584 3203 3211 
Q 3513 2838 3513 2113 
z
" transform="scale(0.015625)"/>
      </defs>
      <use xlink:href="#DejaVuSans-43"/>
      <use xlink:href="#DejaVuSans-75" x="69.824219"/>
      <use xlink:href="#DejaVuSans-6d" x="133.203125"/>
      <use xlink:href="#DejaVuSans-75" x="230.615234"/>
      <use xlink:href="#DejaVuSans-6c" x="293.994141"/>
      <use xlink:href="#DejaVuSans-61" x="321.777344"/>
      <use xlink:href="#DejaVuSans-74" x="383.056641"/>
      <use xlink:href="#DejaVuSans-69" x="422.265625"/>
      <use xlink:href="#DejaVuSans-76" x="450.048828"/>
      <use xlink:href="#DejaVuSans-65" x="509.228516"/>
      <use xlink:href="#DejaVuSans-20" x="570.751953"/>
      <use xlink:href="#DejaVuSans-6d" x="602.539062"/>
      <use xlink:href="#DejaVuSans-61" x="699.951172"/>
      <use xlink:href="#DejaVuSans-70" x="761.230469"/>
      <use xlink:href="#DejaVuSans-70" x="824.707031"/>
      <use xlink:href="#DejaVuSans-65" x="888.183594"/>
      <use xlink:href="#DejaVuSans-64" x="949.707031"/>
      <use xlink:href="#DejaVuSans-2d" x="1013.183594"/>
      <use xlink:href="#DejaVuSans-72" x="1049.267578"/>
      <use xlink:href="#DejaVuSans-65" x="1088.130859"/>
      <use xlink:href="#DejaVuSans-61" x="1149.654297"/>
      <use xlink:href="#DejaVuSans-64" x="1210.933594"/>
      <use xlink:href="#DejaVuSans-20" x="1274.410156"/>
      <use xlink:href="#DejaVuSans-64" x="1306.197266"/>
      <use xlink:href="#DejaVuSans-65" x="1369.673828"/>
      <use xlink:href="#DejaVuSans-70" x="1431.197266"/>
      <use xlink:href="#DejaVuSans-74" x="1494.673828"/>
      <use xlink:href="#DejaVuSans-68" x="1533.882812"/>
     </g>
    </g>
   </g>
   <g id="line2d_8">
    <path d="M 58.418125 295.57525 
L 67.686575 292.834714 
L 76.955025 288.148873 
L 86.223475 280.66241 
L 95.491925 270.834391 
L 104.760375 259.913555 
L 114.028825 247.91197 
L 123.297275 237.856969 
L 132.565725 229.61633 
L 141.834175 220.910031 
L 151.102625 212.295001 
L 160.371075 204.700606 
L 169.639525 199.003154 
L 178.907975 192.870497 
L 188.176425 187.730983 
L 197.444875 183.841397 
L 206.713325 180.701221 
L 215.981775 177.519388 
L 225.250225 173.292853 
L 234.518675 169.824899 
L 243.787125 166.81394 
L 253.055575 163.752229 
L 262.324025 161.936725 
L 271.592475 159.669735 
L 280.860925 158.182272 
L 290.129375 157.632454 
L 299.397825 156.886986 
L 308.666275 155.777329 
L 317.934725 154.18543 
L 327.203175 153.794856 
L 336.471625 152.829314 
L 345.740075 150.74931 
L 355.008525 150.638684 
L 364.276975 149.914578 
L 373.545425 149.458043 
L 382.813875 148.309531 
L 392.082325 149.36419 
L 401.350775 150.584096 
L 410.619225 149.971868 
L 419.887675 149.961239 
L 429.156125 149.870456 
L 438.424575 150.566359 
L 447.693025 151.246349 
L 456.961475 151.564926 
L 466.229925 152.867267 
L 475.498375 153.82709 
L 484.766825 154.347113 
L 494.035275 153.866836 
L 503.303725 153.9107 
L 512.572175 154.527085 
L 521.840625 155.179595 
L 531.109075 155.943259 
L 540.377525 158.210312 
L 549.645975 159.081297 
L 558.914425 160.884911 
L 568.182875 163.259837 
L 577.451325 165.786245 
L 586.719775 166.444063 
L 595.988225 167.042062 
L 605.256675 166.207449 
L 614.525125 165.318245 
L 623.793575 165.583353 
L 633.062025 166.064727 
L 642.330475 166.066788 
L 651.598925 166.680904 
L 660.867375 166.769288 
L 670.135825 167.358574 
L 679.404275 168.245436 
L 688.672725 170.307175 
L 697.941175 171.931243 
L 707.209625 173.610124 
L 716.478075 174.854239 
L 725.746525 174.901976 
L 735.014975 174.288982 
L 744.283425 175.37127 
L 753.551875 176.944807 
L 762.820325 177.491216 
L 772.088775 178.167405 
L 781.357225 179.650118 
L 790.625675 181.25858 
L 799.894125 182.843818 
L 809.162575 183.425176 
L 818.431025 183.917772 
L 827.699475 184.933596 
L 836.967925 185.94982 
L 846.236375 185.923748 
L 855.504825 186.906695 
L 864.773275 189.008376 
L 874.041725 190.371568 
L 883.310175 192.977325 
L 892.578625 196.648888 
L 901.847075 201.86234 
L 911.115525 208.33398 
L 920.383975 217.609254 
L 929.652425 229.352786 
L 938.920875 244.443177 
L 948.189325 264.682105 
L 957.457775 290.111371 
L 966.726225 318.944566 
L 975.994675 344.799379 
" clip-path="url(#p6adfa2f515)" style="fill: none; stroke: #7cb5ec; stroke-linecap: square"/>
   </g>
   <g id="line2d_9">
    <path d="M 58.418125 281.081767 
L 67.686575 277.453011 
L 76.955025 271.473263 
L 86.223475 263.056414 
L 95.491925 252.853368 
L 104.760375 241.84904 
L 114.028825 229.911778 
L 123.297275 219.68615 
L 132.565725 211.293408 
L 141.834175 202.345337 
L 151.102625 193.862218 
L 160.371075 185.447154 
L 169.639525 179.994254 
L 178.907975 173.656913 
L 188.176425 168.992485 
L 197.444875 166.615377 
L 206.713325 164.475629 
L 215.981775 161.897795 
L 225.250225 158.626072 
L 234.518675 154.863265 
L 243.787125 152.046412 
L 253.055575 148.500738 
L 262.324025 146.998451 
L 271.592475 145.61154 
L 280.860925 144.70327 
L 290.129375 144.893141 
L 299.397825 144.494637 
L 308.666275 144.134799 
L 317.934725 142.946026 
L 327.203175 142.947732 
L 336.471625 141.485169 
L 345.740075 139.501016 
L 355.008525 139.362137 
L 364.276975 138.66412 
L 373.545425 138.161683 
L 382.813875 137.703249 
L 392.082325 138.978465 
L 401.350775 140.300717 
L 410.619225 140.0798 
L 419.887675 139.986943 
L 429.156125 140.19341 
L 438.424575 141.396688 
L 447.693025 142.341429 
L 456.961475 143.032757 
L 466.229925 144.357258 
L 475.498375 144.403078 
L 484.766825 144.3668 
L 494.035275 144.139646 
L 503.303725 143.570131 
L 512.572175 143.986279 
L 521.840625 144.47708 
L 531.109075 144.007214 
L 540.377525 145.82039 
L 549.645975 146.097596 
L 558.914425 148.105858 
L 568.182875 150.858634 
L 577.451325 154.38323 
L 586.719775 155.532156 
L 595.988225 156.172538 
L 605.256675 156.088638 
L 614.525125 154.955528 
L 623.793575 155.35656 
L 633.062025 156.96468 
L 642.330475 157.415642 
L 651.598925 158.439508 
L 660.867375 159.145275 
L 670.135825 160.098128 
L 679.404275 160.795103 
L 688.672725 162.448503 
L 697.941175 163.984735 
L 707.209625 165.665666 
L 716.478075 166.382191 
L 725.746525 166.535311 
L 735.014975 165.108704 
L 744.283425 165.914772 
L 753.551875 168.442789 
L 762.820325 170.015029 
L 772.088775 171.638933 
L 781.357225 173.530646 
L 790.625675 175.66992 
L 799.894125 177.198181 
L 809.162575 177.194511 
L 818.431025 176.821399 
L 827.699475 177.914187 
L 836.967925 178.22705 
L 846.236375 178.339789 
L 855.504825 178.703876 
L 864.773275 179.959655 
L 874.041725 181.413972 
L 883.310175 184.225359 
L 892.578625 188.79964 
L 901.847075 193.880634 
L 911.115525 200.078672 
L 920.383975 209.281983 
L 929.652425 221.673153 
L 938.920875 237.078231 
L 948.189325 258.317688 
L 957.457775 285.10141 
L 966.726225 315.835103 
L 975.994675 344.06216 
" clip-path="url(#p6adfa2f515)" style="fill: none; stroke: #434348; stroke-linecap: square"/>
   </g>
   <g id="line2d_10">
    <path d="M 58.418125 264.731699 
L 67.686575 261.908025 
L 76.955025 257.158414 
L 86.223475 248.68608 
L 95.491925 237.006245 
L 104.760375 222.859621 
L 114.028825 208.192199 
L 123.297275 195.515644 
L 132.565725 184.423614 
L 141.834175 172.835321 
L 151.102625 161.494399 
L 160.371075 151.420693 
L 169.639525 144.158418 
L 178.907975 135.9539 
L 188.176425 129.609171 
L 197.444875 125.175134 
L 206.713325 121.435861 
L 215.981775 117.12431 
L 225.250225 112.356507 
L 234.518675 107.134567 
L 243.787125 102.958631 
L 253.055575 98.414701 
L 262.324025 94.798986 
L 271.592475 91.528352 
L 280.860925 89.291245 
L 290.129375 87.829957 
L 299.397825 86.601296 
L 308.666275 84.830878 
L 317.934725 82.501121 
L 327.203175 81.871319 
L 336.471625 80.029235 
L 345.740075 76.560983 
L 355.008525 76.319942 
L 364.276975 75.426966 
L 373.545425 74.660784 
L 382.813875 73.154378 
L 392.082325 74.458255 
L 401.350775 76.069971 
L 410.619225 75.069548 
L 419.887675 74.657312 
L 429.156125 74.009704 
L 438.424575 74.903406 
L 447.693025 75.362683 
L 456.961475 75.856291 
L 466.229925 76.919766 
L 475.498375 77.284054 
L 484.766825 77.341578 
L 494.035275 76.727819 
L 503.303725 75.685679 
L 512.572175 75.792317 
L 521.840625 75.747842 
L 531.109075 75.301454 
L 540.377525 77.849134 
L 549.645975 78.691468 
L 558.914425 81.307462 
L 568.182875 84.358559 
L 577.451325 87.815684 
L 586.719775 88.611272 
L 595.988225 89.107135 
L 605.256675 87.973129 
L 614.525125 85.849522 
L 623.793575 85.837636 
L 633.062025 86.578256 
L 642.330475 86.609762 
L 651.598925 87.650922 
L 660.867375 87.714025 
L 670.135825 88.357811 
L 679.404275 89.477436 
L 688.672725 92.05824 
L 697.941175 94.015183 
L 707.209625 96.274312 
L 716.478075 97.576752 
L 725.746525 97.987728 
L 735.014975 96.59415 
L 744.283425 97.549758 
L 753.551875 100.248978 
L 762.820325 101.575354 
L 772.088775 102.682378 
L 781.357225 105.148841 
L 790.625675 107.907536 
L 799.894125 110.107083 
L 809.162575 110.447766 
L 818.431025 110.434156 
L 827.699475 111.114529 
L 836.967925 111.801618 
L 846.236375 112.039712 
L 855.504825 113.795998 
L 864.773275 116.474282 
L 874.041725 119.435035 
L 883.310175 124.134588 
L 892.578625 130.570091 
L 901.847075 138.297084 
L 911.115525 148.245579 
L 920.383975 161.837163 
L 929.652425 179.188001 
L 938.920875 200.758256 
L 948.189325 229.895764 
L 957.457775 265.782133 
L 966.726225 305.861553 
L 975.994675 341.557669 
" clip-path="url(#p6adfa2f515)" style="fill: none; stroke: #90ed7d; stroke-linecap: square"/>
   </g>
   <g id="line2d_11">
    <path d="M 58.418125 245.680627 
L 67.686575 239.726734 
L 76.955025 231.637422 
L 86.223475 220.345029 
L 95.491925 206.145921 
L 104.760375 189.941522 
L 114.028825 172.909734 
L 123.297275 158.677065 
L 132.565725 146.922933 
L 141.834175 134.871488 
L 151.102625 123.286297 
L 160.371075 112.757553 
L 169.639525 105.397172 
L 178.907975 96.918986 
L 188.176425 90.648479 
L 197.444875 86.819701 
L 206.713325 83.781846 
L 215.981775 80.007374 
L 225.250225 75.67568 
L 234.518675 71.179865 
L 243.787125 67.334949 
L 253.055575 63.411543 
L 262.324025 61.040879 
L 271.592475 58.888872 
L 280.860925 57.771744 
L 290.129375 57.20367 
L 299.397825 56.755151 
L 308.666275 55.860352 
L 317.934725 54.129044 
L 327.203175 54.127502 
L 336.471625 52.925616 
L 345.740075 50.13942 
L 355.008525 50.975959 
L 364.276975 51.111732 
L 373.545425 51.013443 
L 382.813875 50.244404 
L 392.082325 52.268611 
L 401.350775 54.723246 
L 410.619225 54.472869 
L 419.887675 54.773172 
L 429.156125 55.175365 
L 438.424575 57.084193 
L 447.693025 58.104228 
L 456.961475 59.397719 
L 466.229925 61.522011 
L 475.498375 63.073843 
L 484.766825 64.244735 
L 494.035275 64.61388 
L 503.303725 64.875091 
L 512.572175 65.788419 
L 521.840625 66.17955 
L 531.109075 66.398381 
L 540.377525 69.755943 
L 549.645975 71.184009 
L 558.914425 74.475934 
L 568.182875 78.57466 
L 577.451325 82.889442 
L 586.719775 84.214504 
L 595.988225 85.626276 
L 605.256675 85.473638 
L 614.525125 84.108243 
L 623.793575 84.716345 
L 633.062025 86.257516 
L 642.330475 87.190547 
L 651.598925 88.64836 
L 660.867375 89.474535 
L 670.135825 90.88479 
L 679.404275 92.611393 
L 688.672725 95.438753 
L 697.941175 97.876664 
L 707.209625 100.677095 
L 716.478075 102.587364 
L 725.746525 103.518852 
L 735.014975 102.489144 
L 744.283425 104.265183 
L 753.551875 107.186791 
L 762.820325 108.811739 
L 772.088775 110.294339 
L 781.357225 113.394378 
L 790.625675 116.696267 
L 799.894125 119.450337 
L 809.162575 120.231824 
L 818.431025 120.530756 
L 827.699475 121.561297 
L 836.967925 122.389546 
L 846.236375 122.743187 
L 855.504825 124.16043 
L 864.773275 126.701227 
L 874.041725 129.260019 
L 883.310175 133.058642 
L 892.578625 138.525419 
L 901.847075 145.639975 
L 911.115525 154.456822 
L 920.383975 166.714632 
L 929.652425 182.635039 
L 938.920875 202.456989 
L 948.189325 229.602041 
L 957.457775 263.826413 
L 966.726225 303.733846 
L 975.994675 340.884342 
" clip-path="url(#p6adfa2f515)" style="fill: none; stroke: #f7a35c; stroke-linecap: square"/>
   </g>
   <g id="line2d_12">
    <path d="M 58.418125 307.672839 
L 67.686575 305.816276 
L 76.955025 302.471958 
L 86.223475 297.460004 
L 95.491925 291.088529 
L 104.760375 283.716682 
L 114.028825 275.885666 
L 123.297275 269.365747 
L 132.565725 263.870861 
L 141.834175 258.378091 
L 151.102625 252.913788 
L 160.371075 247.872651 
L 169.639525 244.349045 
L 178.907975 240.392024 
L 188.176425 237.522266 
L 197.444875 235.761677 
L 206.713325 234.239144 
L 215.981775 232.330565 
L 225.250225 230.169949 
L 234.518675 227.88194 
L 243.787125 226.023247 
L 253.055575 224.018185 
L 262.324025 222.742093 
L 271.592475 221.47018 
L 280.860925 220.553118 
L 290.129375 219.99462 
L 299.397825 219.497234 
L 308.666275 218.987028 
L 317.934725 218.200074 
L 327.203175 218.245239 
L 336.471625 217.737884 
L 345.740075 216.31901 
L 355.008525 216.353516 
L 364.276975 216.087846 
L 373.545425 216.036817 
L 382.813875 215.640146 
L 392.082325 216.450506 
L 401.350775 217.243765 
L 410.619225 216.761246 
L 419.887675 216.732094 
L 429.156125 216.616128 
L 438.424575 217.228324 
L 447.693025 217.734708 
L 456.961475 218.131971 
L 466.229925 218.995394 
L 475.498375 219.452345 
L 484.766825 219.893972 
L 494.035275 220.022657 
L 503.303725 220.047865 
L 512.572175 220.361724 
L 521.840625 220.631838 
L 531.109075 220.860018 
L 540.377525 222.256848 
L 549.645975 222.785179 
L 558.914425 224.048084 
L 568.182875 225.417274 
L 577.451325 227.111325 
L 586.719775 227.775774 
L 595.988225 228.126349 
L 605.256675 227.577646 
L 614.525125 226.814946 
L 623.793575 226.889891 
L 633.062025 227.195642 
L 642.330475 227.48074 
L 651.598925 227.93925 
L 660.867375 228.016717 
L 670.135825 228.415204 
L 679.404275 229.068498 
L 688.672725 230.26843 
L 697.941175 231.210981 
L 707.209625 232.387689 
L 716.478075 232.996002 
L 725.746525 232.895686 
L 735.014975 232.26269 
L 744.283425 232.700686 
L 753.551875 233.676558 
L 762.820325 234.137354 
L 772.088775 234.694603 
L 781.357225 235.824063 
L 790.625675 237.018195 
L 799.894125 237.917847 
L 809.162575 237.996653 
L 818.431025 238.20428 
L 827.699475 238.950511 
L 836.967925 239.410721 
L 846.236375 239.590745 
L 855.504825 240.137595 
L 864.773275 241.31039 
L 874.041725 242.446171 
L 883.310175 244.341111 
L 892.578625 247.131696 
L 901.847075 250.605782 
L 911.115525 255.160915 
L 920.383975 261.64849 
L 929.652425 269.92684 
L 938.920875 280.127252 
L 948.189325 293.91704 
L 957.457775 311.126043 
L 966.726225 330.462517 
L 975.994675 347.638484 
" clip-path="url(#p6adfa2f515)" style="fill: none; stroke: #8085e9; stroke-linecap: square"/>
   </g>
   <g id="line2d_13">
    <path d="M 58.418125 262.525406 
L 67.686575 258.540598 
L 76.955025 253.383178 
L 86.223475 245.028154 
L 95.491925 234.039683 
L 104.760375 220.942269 
L 114.028825 207.41481 
L 123.297275 196.056999 
L 132.565725 185.783455 
L 141.834175 175.221174 
L 151.102625 165.096773 
L 160.371075 156.202937 
L 169.639525 149.900438 
L 178.907975 142.77774 
L 188.176425 137.534666 
L 197.444875 133.796753 
L 206.713325 130.924683 
L 215.981775 127.815638 
L 225.250225 123.983472 
L 234.518675 119.953213 
L 243.787125 116.899478 
L 253.055575 113.594102 
L 262.324025 110.951451 
L 271.592475 108.411906 
L 280.860925 107.135191 
L 290.129375 106.037861 
L 299.397825 105.081731 
L 308.666275 103.999367 
L 317.934725 102.395708 
L 327.203175 102.355843 
L 336.471625 101.245667 
L 345.740075 98.466557 
L 355.008525 98.951884 
L 364.276975 98.79707 
L 373.545425 98.797744 
L 382.813875 97.982687 
L 392.082325 99.470521 
L 401.350775 101.699675 
L 410.619225 101.610119 
L 419.887675 101.532281 
L 429.156125 101.254028 
L 438.424575 102.595852 
L 447.693025 103.444662 
L 456.961475 104.583705 
L 466.229925 106.37433 
L 475.498375 107.191226 
L 484.766825 107.889202 
L 494.035275 108.117935 
L 503.303725 108.057412 
L 512.572175 108.765115 
L 521.840625 109.040171 
L 531.109075 109.441969 
L 540.377525 112.018669 
L 549.645975 112.847512 
L 558.914425 115.587874 
L 568.182875 118.43302 
L 577.451325 121.651832 
L 586.719775 122.793551 
L 595.988225 123.817397 
L 605.256675 123.239168 
L 614.525125 121.47067 
L 623.793575 121.751052 
L 633.062025 122.672643 
L 642.330475 123.166855 
L 651.598925 123.957274 
L 660.867375 124.51168 
L 670.135825 125.466499 
L 679.404275 126.534602 
L 688.672725 128.684907 
L 697.941175 130.63827 
L 707.209625 133.0767 
L 716.478075 134.779136 
L 725.746525 135.22849 
L 735.014975 134.277412 
L 744.283425 135.390656 
L 753.551875 137.49665 
L 762.820325 138.540871 
L 772.088775 139.588381 
L 781.357225 142.204649 
L 790.625675 145.02849 
L 799.894125 147.290039 
L 809.162575 147.788923 
L 818.431025 148.183155 
L 827.699475 149.267457 
L 836.967925 150.42264 
L 846.236375 151.131449 
L 855.504825 152.707367 
L 864.773275 155.247991 
L 874.041725 157.926759 
L 883.310175 161.667661 
L 892.578625 166.702191 
L 901.847075 173.194437 
L 911.115525 181.636021 
L 920.383975 193.249709 
L 929.652425 208.025808 
L 938.920875 226.382512 
L 948.189325 250.669495 
L 957.457775 280.505933 
L 966.726225 313.780342 
L 975.994675 343.385818 
" clip-path="url(#p6adfa2f515)" style="fill: none; stroke: #f15c80; stroke-linecap: square"/>
   </g>
   <g id="line2d_14">
    <path d="M 58.418125 250.503826 
L 67.686575 245.143072 
L 76.955025 238.75095 
L 86.223475 229.591442 
L 95.491925 218.114396 
L 104.760375 204.277241 
L 114.028825 190.090079 
L 123.297275 177.623444 
L 132.565725 166.557921 
L 141.834175 155.323528 
L 151.102625 144.567405 
L 160.371075 134.766251 
L 169.639525 128.208428 
L 178.907975 120.243128 
L 188.176425 114.589039 
L 197.444875 111.138994 
L 206.713325 108.713743 
L 215.981775 105.196486 
L 225.250225 101.455583 
L 234.518675 97.371196 
L 243.787125 93.799809 
L 253.055575 89.439159 
L 262.324025 86.437985 
L 271.592475 83.509679 
L 280.860925 82.383701 
L 290.129375 81.728394 
L 299.397825 81.197868 
L 308.666275 80.252807 
L 317.934725 78.579305 
L 327.203175 78.589806 
L 336.471625 77.211822 
L 345.740075 73.734179 
L 355.008525 74.125955 
L 364.276975 74.366975 
L 373.545425 74.763049 
L 382.813875 73.745083 
L 392.082325 75.243497 
L 401.350775 77.817488 
L 410.619225 77.81551 
L 419.887675 77.859744 
L 429.156125 78.126922 
L 438.424575 79.818075 
L 447.693025 80.946993 
L 456.961475 81.776883 
L 466.229925 83.313777 
L 475.498375 84.348705 
L 484.766825 85.179474 
L 494.035275 85.162425 
L 503.303725 84.787087 
L 512.572175 85.339412 
L 521.840625 85.480422 
L 531.109075 85.620739 
L 540.377525 88.517133 
L 549.645975 89.380678 
L 558.914425 92.259815 
L 568.182875 95.270558 
L 577.451325 99.184144 
L 586.719775 100.727327 
L 595.988225 101.641467 
L 605.256675 101.020429 
L 614.525125 99.423704 
L 623.793575 100.178172 
L 633.062025 101.939264 
L 642.330475 103.080114 
L 651.598925 104.293766 
L 660.867375 104.876469 
L 670.135825 105.68309 
L 679.404275 106.728387 
L 688.672725 108.961998 
L 697.941175 111.083164 
L 707.209625 113.482156 
L 716.478075 115.362657 
L 725.746525 116.181912 
L 735.014975 114.89612 
L 744.283425 115.595936 
L 753.551875 118.373297 
L 762.820325 120.400582 
L 772.088775 122.154152 
L 781.357225 125.057289 
L 790.625675 128.367644 
L 799.894125 130.839129 
L 809.162575 131.537646 
L 818.431025 131.674347 
L 827.699475 132.551447 
L 836.967925 133.260738 
L 846.236375 133.604479 
L 855.504825 134.82596 
L 864.773275 137.037818 
L 874.041725 139.660439 
L 883.310175 143.939709 
L 892.578625 150.101195 
L 901.847075 157.710943 
L 911.115525 166.859808 
L 920.383975 179.758278 
L 929.652425 196.449476 
L 938.920875 216.856841 
L 948.189325 243.206308 
L 957.457775 275.480541 
L 966.726225 311.045872 
L 975.994675 342.782354 
" clip-path="url(#p6adfa2f515)" style="fill: none; stroke: #e4d354; stroke-linecap: square"/>
   </g>
   <g id="line2d_15">
    <path d="M 58.418125 247.600681 
L 67.686575 241.210492 
L 76.955025 233.196152 
L 86.223475 222.558323 
L 95.491925 209.801323 
L 104.760375 195.026362 
L 114.028825 179.917933 
L 123.297275 167.026885 
L 132.565725 156.315782 
L 141.834175 145.67298 
L 151.102625 135.490587 
L 160.371075 126.4391 
L 169.639525 120.243844 
L 178.907975 112.858322 
L 188.176425 107.350936 
L 197.444875 103.659111 
L 206.713325 101.126129 
L 215.981775 98.27873 
L 225.250225 94.869152 
L 234.518675 91.315287 
L 243.787125 88.019473 
L 253.055575 84.505581 
L 262.324025 82.253196 
L 271.592475 80.326432 
L 280.860925 79.107903 
L 290.129375 78.362231 
L 299.397825 77.722913 
L 308.666275 76.63248 
L 317.934725 75.215779 
L 327.203175 75.447798 
L 336.471625 74.723372 
L 345.740075 72.223706 
L 355.008525 73.174736 
L 364.276975 73.593565 
L 373.545425 73.596588 
L 382.813875 72.823735 
L 392.082325 75.311881 
L 401.350775 78.078926 
L 410.619225 78.080109 
L 419.887675 78.565931 
L 429.156125 78.538081 
L 438.424575 79.96989 
L 447.693025 81.051268 
L 456.961475 82.348341 
L 466.229925 84.098538 
L 475.498375 85.4766 
L 484.766825 86.660109 
L 494.035275 86.915276 
L 503.303725 87.146462 
L 512.572175 88.01402 
L 521.840625 88.350061 
L 531.109075 88.816067 
L 540.377525 92.220316 
L 549.645975 93.74243 
L 558.914425 96.549603 
L 568.182875 100.109882 
L 577.451325 104.062309 
L 586.719775 105.560557 
L 595.988225 106.839126 
L 605.256675 106.51678 
L 614.525125 105.040758 
L 623.793575 105.753607 
L 633.062025 107.333657 
L 642.330475 107.969987 
L 651.598925 109.23908 
L 660.867375 109.964587 
L 670.135825 111.079142 
L 679.404275 112.747081 
L 688.672725 115.432089 
L 697.941175 117.813762 
L 707.209625 120.689947 
L 716.478075 123.032258 
L 725.746525 124.035793 
L 735.014975 123.024152 
L 744.283425 124.617178 
L 753.551875 127.519367 
L 762.820325 128.850504 
L 772.088775 130.124211 
L 781.357225 133.156935 
L 790.625675 136.233775 
L 799.894125 138.802666 
L 809.162575 139.432299 
L 818.431025 139.566203 
L 827.699475 140.504324 
L 836.967925 141.717049 
L 846.236375 142.219925 
L 855.504825 143.673153 
L 864.773275 146.270102 
L 874.041725 148.99387 
L 883.310175 152.653221 
L 892.578625 157.612703 
L 901.847075 163.864517 
L 911.115525 171.611364 
L 920.383975 182.614336 
L 929.652425 196.605371 
L 938.920875 214.112417 
L 948.189325 238.586651 
L 957.457775 269.747168 
L 966.726225 306.607025 
L 975.994675 341.567595 
" clip-path="url(#p6adfa2f515)" style="fill: none; stroke: #2b908f; stroke-linecap: square"/>
   </g>
   <g id="line2d_16">
    <path d="M 58.418125 311.821527 
L 67.686575 309.479976 
L 76.955025 305.918059 
L 86.223475 300.925859 
L 95.491925 295.063434 
L 104.760375 288.471937 
L 114.028825 281.534644 
L 123.297275 275.564378 
L 132.565725 270.503767 
L 141.834175 265.334599 
L 151.102625 260.217687 
L 160.371075 255.310498 
L 169.639525 252.14663 
L 178.907975 248.320201 
L 188.176425 245.373942 
L 197.444875 243.32781 
L 206.713325 241.759215 
L 215.981775 240.039336 
L 225.250225 237.82938 
L 234.518675 235.612422 
L 243.787125 234.13792 
L 253.055575 232.053765 
L 262.324025 230.987246 
L 271.592475 229.865393 
L 280.860925 229.186226 
L 290.129375 228.996713 
L 299.397825 228.529443 
L 308.666275 228.168038 
L 317.934725 227.19086 
L 327.203175 227.168151 
L 336.471625 226.326991 
L 345.740075 224.989965 
L 355.008525 224.951977 
L 364.276975 224.411971 
L 373.545425 224.057905 
L 382.813875 223.670058 
L 392.082325 224.407438 
L 401.350775 224.954666 
L 410.619225 224.555646 
L 419.887675 224.149301 
L 429.156125 224.017018 
L 438.424575 224.714982 
L 447.693025 225.367883 
L 456.961475 225.673994 
L 466.229925 226.357628 
L 475.498375 226.447737 
L 484.766825 226.600434 
L 494.035275 226.609364 
L 503.303725 226.32459 
L 512.572175 226.48386 
L 521.840625 226.527702 
L 531.109075 226.539422 
L 540.377525 227.647408 
L 549.645975 227.729669 
L 558.914425 228.789266 
L 568.182875 230.083042 
L 577.451325 231.933385 
L 586.719775 232.224728 
L 595.988225 232.383343 
L 605.256675 232.028234 
L 614.525125 231.364381 
L 623.793575 231.528779 
L 633.062025 232.321288 
L 642.330475 232.491536 
L 651.598925 232.727411 
L 660.867375 232.917014 
L 670.135825 233.240243 
L 679.404275 233.830497 
L 688.672725 234.874856 
L 697.941175 235.956817 
L 707.209625 236.863156 
L 716.478075 237.386869 
L 725.746525 237.190024 
L 735.014975 236.242038 
L 744.283425 236.559405 
L 753.551875 237.949498 
L 762.820325 238.722931 
L 772.088775 239.56705 
L 781.357225 240.405675 
L 790.625675 241.426078 
L 799.894125 242.235988 
L 809.162575 242.256238 
L 818.431025 242.071471 
L 827.699475 242.836956 
L 836.967925 243.095039 
L 846.236375 243.102744 
L 855.504825 243.445877 
L 864.773275 244.393057 
L 874.041725 245.25327 
L 883.310175 247.057612 
L 892.578625 249.916736 
L 901.847075 253.359913 
L 911.115525 257.621047 
L 920.383975 263.764389 
L 929.652425 271.977231 
L 938.920875 281.976104 
L 948.189325 295.396119 
L 957.457775 312.160571 
L 966.726225 331.062232 
L 975.994675 347.809829 
" clip-path="url(#p6adfa2f515)" style="fill: none; stroke: #f45b5b; stroke-linecap: square"/>
   </g>
   <g id="line2d_17">
    <path d="M 58.418125 261.130456 
L 67.686575 255.323043 
L 76.955025 248.985973 
L 86.223475 240.296043 
L 95.491925 229.490357 
L 104.760375 216.690323 
L 114.028825 203.480288 
L 123.297275 192.225541 
L 132.565725 182.270316 
L 141.834175 171.991862 
L 151.102625 162.111117 
L 160.371075 152.978512 
L 169.639525 146.886352 
L 178.907975 139.164163 
L 188.176425 133.110449 
L 197.444875 128.985864 
L 206.713325 125.496337 
L 215.981775 121.621614 
L 225.250225 117.282979 
L 234.518675 112.595785 
L 243.787125 108.752711 
L 253.055575 104.235531 
L 262.324025 101.106508 
L 271.592475 98.181377 
L 280.860925 96.396454 
L 290.129375 95.198627 
L 299.397825 93.895329 
L 308.666275 92.122715 
L 317.934725 89.785644 
L 327.203175 89.136359 
L 336.471625 86.861412 
L 345.740075 82.976457 
L 355.008525 82.445771 
L 364.276975 81.829228 
L 373.545425 81.220938 
L 382.813875 79.680552 
L 392.082325 80.924473 
L 401.350775 82.206306 
L 410.619225 81.057769 
L 419.887675 80.312869 
L 429.156125 80.08824 
L 438.424575 81.284227 
L 447.693025 81.660106 
L 456.961475 82.21994 
L 466.229925 83.189309 
L 475.498375 83.431478 
L 484.766825 83.539575 
L 494.035275 82.620398 
L 503.303725 81.393024 
L 512.572175 80.772491 
L 521.840625 80.192536 
L 531.109075 79.522205 
L 540.377525 81.935172 
L 549.645975 82.403548 
L 558.914425 84.828106 
L 568.182875 87.785878 
L 577.451325 90.971606 
L 586.719775 91.321747 
L 595.988225 91.417947 
L 605.256675 90.182735 
L 614.525125 88.010617 
L 623.793575 88.247391 
L 633.062025 89.67374 
L 642.330475 89.844324 
L 651.598925 90.608399 
L 660.867375 90.95164 
L 670.135825 91.514237 
L 679.404275 92.484526 
L 688.672725 94.751265 
L 697.941175 96.600502 
L 707.209625 98.191846 
L 716.478075 99.094919 
L 725.746525 99.073307 
L 735.014975 97.083071 
L 744.283425 97.921444 
L 753.551875 100.735956 
L 762.820325 102.433823 
L 772.088775 103.754721 
L 781.357225 105.833172 
L 790.625675 108.712768 
L 799.894125 110.856654 
L 809.162575 111.41456 
L 818.431025 111.058324 
L 827.699475 111.722974 
L 836.967925 112.417699 
L 846.236375 112.571792 
L 855.504825 113.461039 
L 864.773275 115.68183 
L 874.041725 117.917693 
L 883.310175 121.871094 
L 892.578625 127.616296 
L 901.847075 135.141889 
L 911.115525 144.418712 
L 920.383975 157.950108 
L 929.652425 175.908289 
L 938.920875 198.340714 
L 948.189325 228.079752 
L 957.457775 264.434213 
L 966.726225 305.176166 
L 975.994675 341.582484 
" clip-path="url(#p6adfa2f515)" style="fill: none; stroke: #91e8e1; stroke-linecap: square"/>
   </g>
   <g id="line2d_18">
    <path d="M 58.418125 288.502341 
L 67.686575 284.567195 
L 76.955025 278.829658 
L 86.223475 270.805353 
L 95.491925 261.101868 
L 104.760375 250.205577 
L 114.028825 238.695309 
L 123.297275 229.091247 
L 132.565725 221.399094 
L 141.834175 213.119841 
L 151.102625 204.983767 
L 160.371075 197.893711 
L 169.639525 193.163957 
L 178.907975 187.369253 
L 188.176425 182.968728 
L 197.444875 180.014466 
L 206.713325 177.505851 
L 215.981775 174.90695 
L 225.250225 171.687825 
L 234.518675 168.394592 
L 243.787125 165.732666 
L 253.055575 162.683084 
L 262.324025 161.356372 
L 271.592475 160.008314 
L 280.860925 159.145632 
L 290.129375 158.657524 
L 299.397825 158.064873 
L 308.666275 157.237944 
L 317.934725 155.880034 
L 327.203175 155.919963 
L 336.471625 154.874378 
L 345.740075 152.919916 
L 355.008525 152.976676 
L 364.276975 152.67317 
L 373.545425 152.270899 
L 382.813875 151.646319 
L 392.082325 153.045687 
L 401.350775 154.315491 
L 410.619225 153.96026 
L 419.887675 153.911909 
L 429.156125 153.975516 
L 438.424575 155.107419 
L 447.693025 155.847204 
L 456.961475 156.617668 
L 466.229925 157.774492 
L 475.498375 158.516776 
L 484.766825 159.154101 
L 494.035275 159.386541 
L 503.303725 159.480186 
L 512.572175 160.055532 
L 521.840625 160.28465 
L 531.109075 160.264244 
L 540.377525 162.080548 
L 549.645975 162.727616 
L 558.914425 164.730402 
L 568.182875 167.66293 
L 577.451325 170.463964 
L 586.719775 171.094744 
L 595.988225 171.81469 
L 605.256675 171.770697 
L 614.525125 170.964914 
L 623.793575 171.425874 
L 633.062025 172.728862 
L 642.330475 173.113846 
L 651.598925 173.969574 
L 660.867375 174.310748 
L 670.135825 175.261922 
L 679.404275 176.211196 
L 688.672725 178.064864 
L 697.941175 179.531046 
L 707.209625 181.3534 
L 716.478075 182.308433 
L 725.746525 182.71701 
L 735.014975 181.951723 
L 744.283425 183.262631 
L 753.551875 185.368986 
L 762.820325 186.297093 
L 772.088775 187.13274 
L 781.357225 188.745538 
L 790.625675 190.809332 
L 799.894125 192.500923 
L 809.162575 192.896437 
L 818.431025 192.981482 
L 827.699475 193.753253 
L 836.967925 194.437877 
L 846.236375 194.550015 
L 855.504825 195.381024 
L 864.773275 197.049681 
L 874.041725 198.388693 
L 883.310175 200.689081 
L 892.578625 204.106673 
L 901.847075 208.412153 
L 911.115525 213.931721 
L 920.383975 221.880991 
L 929.652425 232.533184 
L 938.920875 246.290068 
L 948.189325 265.309282 
L 957.457775 289.566664 
L 966.726225 317.897481 
L 975.994675 344.380589 
" clip-path="url(#p6adfa2f515)" style="fill: none; stroke: #7cb5ec; stroke-linecap: square"/>
   </g>
   <g id="line2d_19">
    <path d="M 58.418125 267.75245 
L 67.686575 262.318493 
L 76.955025 254.266511 
L 86.223475 244.084897 
L 95.491925 232.092656 
L 104.760375 219.271695 
L 114.028825 205.797531 
L 123.297275 194.213021 
L 132.565725 184.598256 
L 141.834175 174.697089 
L 151.102625 164.947421 
L 160.371075 155.878353 
L 169.639525 150.06661 
L 178.907975 143.376835 
L 188.176425 138.027837 
L 197.444875 134.474311 
L 206.713325 131.463619 
L 215.981775 128.180016 
L 225.250225 124.397943 
L 234.518675 120.211684 
L 243.787125 117.126083 
L 253.055575 113.48319 
L 262.324025 111.709604 
L 271.592475 109.593632 
L 280.860925 108.511882 
L 290.129375 108.327024 
L 299.397825 107.490843 
L 308.666275 106.615134 
L 317.934725 105.046347 
L 327.203175 104.92279 
L 336.471625 103.451178 
L 345.740075 101.085513 
L 355.008525 101.187214 
L 364.276975 101.054952 
L 373.545425 100.95535 
L 382.813875 100.436456 
L 392.082325 102.166666 
L 401.350775 103.441164 
L 410.619225 102.865795 
L 419.887675 102.829173 
L 429.156125 102.813111 
L 438.424575 104.06989 
L 447.693025 105.149151 
L 456.961475 106.160631 
L 466.229925 107.581757 
L 475.498375 108.155624 
L 484.766825 108.760817 
L 494.035275 108.851926 
L 503.303725 108.440725 
L 512.572175 108.741196 
L 521.840625 109.195393 
L 531.109075 109.410063 
L 540.377525 111.683884 
L 549.645975 112.044686 
L 558.914425 114.160679 
L 568.182875 117.131051 
L 577.451325 120.609101 
L 586.719775 121.557147 
L 595.988225 122.375308 
L 605.256675 121.995786 
L 614.525125 121.018969 
L 623.793575 121.63535 
L 633.062025 123.401519 
L 642.330475 123.826373 
L 651.598925 124.587265 
L 660.867375 125.000362 
L 670.135825 125.768116 
L 679.404275 126.853665 
L 688.672725 129.146866 
L 697.941175 130.827338 
L 707.209625 132.647978 
L 716.478075 133.967145 
L 725.746525 134.427697 
L 735.014975 133.134862 
L 744.283425 134.351062 
L 753.551875 137.236736 
L 762.820325 138.861423 
L 772.088775 140.382343 
L 781.357225 142.416644 
L 790.625675 144.448855 
L 799.894125 146.3446 
L 809.162575 146.883677 
L 818.431025 146.639733 
L 827.699475 147.71899 
L 836.967925 148.350352 
L 846.236375 148.358761 
L 855.504825 149.306911 
L 864.773275 151.472624 
L 874.041725 153.2847 
L 883.310175 156.296643 
L 892.578625 161.255182 
L 901.847075 167.252212 
L 911.115525 174.415405 
L 920.383975 184.946673 
L 929.652425 199.440949 
L 938.920875 217.476929 
L 948.189325 241.775765 
L 957.457775 272.824985 
L 966.726225 308.90553 
L 975.994675 342.308284 
" clip-path="url(#p6adfa2f515)" style="fill: none; stroke: #434348; stroke-linecap: square"/>
   </g>
   <g id="line2d_20">
    <path d="M 58.418125 258.959281 
L 67.686575 253.695303 
L 76.955025 246.580587 
L 86.223475 236.341297 
L 95.491925 223.806237 
L 104.760375 209.369416 
L 114.028825 193.926783 
L 123.297275 180.735465 
L 132.565725 169.658222 
L 141.834175 158.10411 
L 151.102625 146.653948 
L 160.371075 135.840912 
L 169.639525 128.802061 
L 178.907975 120.641671 
L 188.176425 114.512784 
L 197.444875 110.170211 
L 206.713325 106.809745 
L 215.981775 102.669056 
L 225.250225 98.195244 
L 234.518675 93.204696 
L 243.787125 89.203984 
L 253.055575 84.598274 
L 262.324025 81.896864 
L 271.592475 78.977486 
L 280.860925 77.380239 
L 290.129375 76.94263 
L 299.397825 76.245687 
L 308.666275 75.145089 
L 317.934725 73.274202 
L 327.203175 73.125463 
L 336.471625 71.363991 
L 345.740075 67.975603 
L 355.008525 68.115653 
L 364.276975 67.922806 
L 373.545425 67.640669 
L 382.813875 66.808634 
L 392.082325 68.362869 
L 401.350775 70.001747 
L 410.619225 69.399409 
L 419.887675 68.987937 
L 429.156125 68.806983 
L 438.424575 70.118652 
L 447.693025 70.996974 
L 456.961475 71.573636 
L 466.229925 73.111218 
L 475.498375 73.835089 
L 484.766825 74.441449 
L 494.035275 74.166949 
L 503.303725 73.552838 
L 512.572175 73.664258 
L 521.840625 73.859334 
L 531.109075 74.372777 
L 540.377525 77.150227 
L 549.645975 77.56759 
L 558.914425 79.864134 
L 568.182875 82.873564 
L 577.451325 86.691812 
L 586.719775 87.721216 
L 595.988225 88.278665 
L 605.256675 87.527778 
L 614.525125 85.623019 
L 623.793575 85.995894 
L 633.062025 87.533936 
L 642.330475 88.232899 
L 651.598925 89.230062 
L 660.867375 90.021359 
L 670.135825 90.910247 
L 679.404275 92.027081 
L 688.672725 94.608258 
L 697.941175 96.460178 
L 707.209625 98.360785 
L 716.478075 99.917033 
L 725.746525 100.430549 
L 735.014975 98.981687 
L 744.283425 100.481153 
L 753.551875 103.786358 
L 762.820325 105.409458 
L 772.088775 107.046167 
L 781.357225 109.346771 
L 790.625675 112.136126 
L 799.894125 114.29674 
L 809.162575 114.739432 
L 818.431025 114.610802 
L 827.699475 115.854778 
L 836.967925 117.008154 
L 846.236375 117.448165 
L 855.504825 118.892708 
L 864.773275 121.667248 
L 874.041725 124.374976 
L 883.310175 128.446773 
L 892.578625 134.811286 
L 901.847075 142.431197 
L 911.115525 151.284692 
L 920.383975 164.139279 
L 929.652425 181.325911 
L 938.920875 202.266741 
L 948.189325 230.192862 
L 957.457775 265.136405 
L 966.726225 305.206881 
L 975.994675 341.382566 
" clip-path="url(#p6adfa2f515)" style="fill: none; stroke: #90ed7d; stroke-linecap: square"/>
   </g>
   <g id="line2d_21">
    <path d="M 58.418125 283.25012 
L 67.686575 279.902674 
L 76.955025 274.019678 
L 86.223475 264.52453 
L 95.491925 252.070778 
L 104.760375 238.062131 
L 114.028825 222.791608 
L 123.297275 210.130214 
L 132.565725 199.581049 
L 141.834175 188.660145 
L 151.102625 178.025529 
L 160.371075 168.136108 
L 169.639525 161.1157 
L 178.907975 152.979489 
L 188.176425 146.531504 
L 197.444875 142.040754 
L 206.713325 137.938644 
L 215.981775 134.222145 
L 225.250225 129.458534 
L 234.518675 124.457634 
L 243.787125 120.249018 
L 253.055575 115.951745 
L 262.324025 113.676342 
L 271.592475 111.309925 
L 280.860925 109.165928 
L 290.129375 108.409854 
L 299.397825 107.246028 
L 308.666275 105.732079 
L 317.934725 103.273424 
L 327.203175 102.605265 
L 336.471625 101.139821 
L 345.740075 98.633567 
L 355.008525 98.227715 
L 364.276975 97.039203 
L 373.545425 96.027549 
L 382.813875 94.871884 
L 392.082325 96.168659 
L 401.350775 97.488213 
L 410.619225 96.617121 
L 419.887675 96.013498 
L 429.156125 95.230676 
L 438.424575 96.163392 
L 447.693025 96.819816 
L 456.961475 97.395598 
L 466.229925 98.887233 
L 475.498375 99.47139 
L 484.766825 99.924729 
L 494.035275 99.896866 
L 503.303725 99.811593 
L 512.572175 100.188908 
L 521.840625 100.674551 
L 531.109075 100.774831 
L 540.377525 102.80966 
L 549.645975 103.580438 
L 558.914425 106.0811 
L 568.182875 109.291353 
L 577.451325 112.613774 
L 586.719775 113.191608 
L 595.988225 113.76443 
L 605.256675 112.687194 
L 614.525125 111.234896 
L 623.793575 111.487516 
L 633.062025 112.54136 
L 642.330475 112.301097 
L 651.598925 113.070689 
L 660.867375 113.41393 
L 670.135825 114.408369 
L 679.404275 115.560133 
L 688.672725 117.932671 
L 697.941175 120.123353 
L 707.209625 122.267283 
L 716.478075 123.333843 
L 725.746525 123.39387 
L 735.014975 122.196068 
L 744.283425 123.506206 
L 753.551875 126.103575 
L 762.820325 127.294321 
L 772.088775 128.502221 
L 781.357225 130.418512 
L 790.625675 132.287397 
L 799.894125 134.05005 
L 809.162575 134.07492 
L 818.431025 134.030239 
L 827.699475 135.041596 
L 836.967925 135.969069 
L 846.236375 136.369045 
L 855.504825 137.72225 
L 864.773275 140.044917 
L 874.041725 141.773117 
L 883.310175 144.813622 
L 892.578625 149.628109 
L 901.847075 155.932085 
L 911.115525 164.050268 
L 920.383975 174.978237 
L 929.652425 189.210504 
L 938.920875 208.209896 
L 948.189325 234.965493 
L 957.457775 268.421327 
L 966.726225 307.109774 
L 975.994675 341.999048 
" clip-path="url(#p6adfa2f515)" style="fill: none; stroke: #f7a35c; stroke-linecap: square"/>
   </g>
   <g id="line2d_22">
    <path d="M 58.418125 283.598686 
L 67.686575 279.520707 
L 76.955025 273.377057 
L 86.223475 264.795002 
L 95.491925 254.340822 
L 104.760375 242.936322 
L 114.028825 230.58623 
L 123.297275 220.178262 
L 132.565725 211.653139 
L 141.834175 202.743512 
L 151.102625 194.09263 
L 160.371075 185.774393 
L 169.639525 180.344387 
L 178.907975 173.973474 
L 188.176425 169.138257 
L 197.444875 166.227363 
L 206.713325 163.656546 
L 215.981775 160.85871 
L 225.250225 157.506257 
L 234.518675 153.762799 
L 243.787125 150.671816 
L 253.055575 147.041641 
L 262.324025 145.372743 
L 271.592475 143.509193 
L 280.860925 142.46291 
L 290.129375 142.074046 
L 299.397825 141.347104 
L 308.666275 140.529776 
L 317.934725 139.004662 
L 327.203175 138.938019 
L 336.471625 137.612672 
L 345.740075 135.496553 
L 355.008525 135.426191 
L 364.276975 135.023222 
L 373.545425 134.394287 
L 382.813875 133.929243 
L 392.082325 135.44798 
L 401.350775 136.709413 
L 410.619225 136.074324 
L 419.887675 135.654949 
L 429.156125 135.673551 
L 438.424575 137.060385 
L 447.693025 137.95479 
L 456.961475 138.434775 
L 466.229925 139.481932 
L 475.498375 139.862374 
L 484.766825 140.237428 
L 494.035275 140.16404 
L 503.303725 139.817259 
L 512.572175 140.103515 
L 521.840625 140.45726 
L 531.109075 140.276378 
L 540.377525 142.246559 
L 549.645975 142.658463 
L 558.914425 144.625136 
L 568.182875 147.557887 
L 577.451325 150.741204 
L 586.719775 151.475937 
L 595.988225 152.078007 
L 605.256675 151.75842 
L 614.525125 150.482725 
L 623.793575 151.000235 
L 633.062025 152.535783 
L 642.330475 152.623085 
L 651.598925 153.489355 
L 660.867375 153.789213 
L 670.135825 154.32232 
L 679.404275 155.159139 
L 688.672725 157.158819 
L 697.941175 159.106684 
L 707.209625 160.831523 
L 716.478075 161.938523 
L 725.746525 162.334538 
L 735.014975 160.923819 
L 744.283425 161.817001 
L 753.551875 164.253604 
L 762.820325 165.446223 
L 772.088775 166.380885 
L 781.357225 168.17865 
L 790.625675 170.22009 
L 799.894125 171.916104 
L 809.162575 171.933053 
L 818.431025 171.538015 
L 827.699475 172.452094 
L 836.967925 173.131483 
L 846.236375 173.376217 
L 855.504825 173.955334 
L 864.773275 175.744521 
L 874.041725 177.251226 
L 883.310175 179.933537 
L 892.578625 184.300161 
L 901.847075 189.620533 
L 911.115525 195.94797 
L 920.383975 205.290093 
L 929.652425 217.801268 
L 938.920875 233.406896 
L 948.189325 254.81097 
L 957.457775 281.782793 
L 966.726225 313.551449 
L 975.994675 343.392458 
" clip-path="url(#p6adfa2f515)" style="fill: none; stroke: #8085e9; stroke-linecap: square"/>
   </g>
   <g id="line2d_23">
    <path d="M 58.418125 254.172426 
L 67.686575 250.809168 
L 76.955025 244.465821 
L 86.223475 233.944359 
L 95.491925 220.165316 
L 104.760375 203.770259 
L 114.028825 186.259888 
L 123.297275 171.568321 
L 132.565725 159.298034 
L 141.834175 146.507339 
L 151.102625 133.859153 
L 160.371075 122.683334 
L 169.639525 114.802237 
L 178.907975 105.82449 
L 188.176425 98.970997 
L 197.444875 94.245682 
L 206.713325 90.992119 
L 215.981775 87.092355 
L 225.250225 82.467454 
L 234.518675 78.008159 
L 243.787125 74.46296 
L 253.055575 69.993939 
L 262.324025 66.827242 
L 271.592475 63.881219 
L 280.860925 61.909551 
L 290.129375 61.086642 
L 299.397825 60.594946 
L 308.666275 59.589039 
L 317.934725 57.804774 
L 327.203175 57.8296 
L 336.471625 56.603193 
L 345.740075 53.836287 
L 355.008525 54.723486 
L 364.276975 54.297372 
L 373.545425 54.216239 
L 382.813875 53.296099 
L 392.082325 55.514229 
L 401.350775 57.99455 
L 410.619225 57.950391 
L 419.887675 58.261372 
L 429.156125 58.473821 
L 438.424575 59.964254 
L 447.693025 60.743075 
L 456.961475 61.559549 
L 466.229925 63.597376 
L 475.498375 64.285365 
L 484.766825 65.207847 
L 494.035275 65.690839 
L 503.303725 65.806223 
L 512.572175 66.624721 
L 521.840625 67.341235 
L 531.109075 68.336579 
L 540.377525 71.707847 
L 549.645975 73.220604 
L 558.914425 76.197233 
L 568.182875 79.589531 
L 577.451325 83.431638 
L 586.719775 84.873516 
L 595.988225 86.041259 
L 605.256675 85.242345 
L 614.525125 83.527247 
L 623.793575 83.918047 
L 633.062025 84.889217 
L 642.330475 85.496031 
L 651.598925 86.603403 
L 660.867375 87.326615 
L 670.135825 88.436053 
L 679.404275 89.941536 
L 688.672725 92.828548 
L 697.941175 95.25149 
L 707.209625 98.154225 
L 716.478075 100.148141 
L 725.746525 100.795819 
L 735.014975 100.117002 
L 744.283425 101.483606 
L 753.551875 104.090053 
L 762.820325 105.469091 
L 772.088775 106.880039 
L 781.357225 109.737645 
L 790.625675 112.588583 
L 799.894125 114.46941 
L 809.162575 114.793031 
L 818.431025 115.506818 
L 827.699475 116.791964 
L 836.967925 118.240237 
L 846.236375 118.751686 
L 855.504825 120.293093 
L 864.773275 123.510359 
L 874.041725 126.746119 
L 883.310175 131.408714 
L 892.578625 137.699741 
L 901.847075 145.207202 
L 911.115525 154.45503 
L 920.383975 167.296682 
L 929.652425 183.370825 
L 938.920875 204.139133 
L 948.189325 231.952097 
L 957.457775 266.602898 
L 966.726225 306.013665 
L 975.994675 341.521228 
" clip-path="url(#p6adfa2f515)" style="fill: none; stroke: #f15c80; stroke-linecap: square"/>
   </g>
   <g id="line2d_24">
    <path d="M 58.418125 353.2239 
L 985.263125 353.2239 
" clip-path="url(#p6adfa2f515)" style="fill: none; stroke: #dedede; stroke-width: 2; stroke-linecap: square"/>
   </g>
   <g id="text_16">
    <!-- Qualimap RNAseq: Coverage Profile Along Genes (total) -->
    <g transform="translate(298.459375 19.3575) scale(0.16 -0.16)">
     <defs>
      <path id="DejaVuSans-51" d="M 2522 4238 
Q 1834 4238 1429 3725 
Q 1025 3213 1025 2328 
Q 1025 1447 1429 934 
Q 1834 422 2522 422 
Q 3209 422 3611 934 
Q 4013 1447 4013 2328 
Q 4013 3213 3611 3725 
Q 3209 4238 2522 4238 
z
M 3406 84 
L 4238 -825 
L 3475 -825 
L 2784 -78 
Q 2681 -84 2626 -87 
Q 2572 -91 2522 -91 
Q 1538 -91 948 567 
Q 359 1225 359 2328 
Q 359 3434 948 4092 
Q 1538 4750 2522 4750 
Q 3503 4750 4090 4092 
Q 4678 3434 4678 2328 
Q 4678 1516 4351 937 
Q 4025 359 3406 84 
z
" transform="scale(0.015625)"/>
      <path id="DejaVuSans-52" d="M 2841 2188 
Q 3044 2119 3236 1894 
Q 3428 1669 3622 1275 
L 4263 0 
L 3584 0 
L 2988 1197 
Q 2756 1666 2539 1819 
Q 2322 1972 1947 1972 
L 1259 1972 
L 1259 0 
L 628 0 
L 628 4666 
L 2053 4666 
Q 2853 4666 3247 4331 
Q 3641 3997 3641 3322 
Q 3641 2881 3436 2590 
Q 3231 2300 2841 2188 
z
M 1259 4147 
L 1259 2491 
L 2053 2491 
Q 2509 2491 2742 2702 
Q 2975 2913 2975 3322 
Q 2975 3731 2742 3939 
Q 2509 4147 2053 4147 
L 1259 4147 
z
" transform="scale(0.015625)"/>
      <path id="DejaVuSans-4e" d="M 628 4666 
L 1478 4666 
L 3547 763 
L 3547 4666 
L 4159 4666 
L 4159 0 
L 3309 0 
L 1241 3903 
L 1241 0 
L 628 0 
L 628 4666 
z
" transform="scale(0.015625)"/>
      <path id="DejaVuSans-41" d="M 2188 4044 
L 1331 1722 
L 3047 1722 
L 2188 4044 
z
M 1831 4666 
L 2547 4666 
L 4325 0 
L 3669 0 
L 3244 1197 
L 1141 1197 
L 716 0 
L 50 0 
L 1831 4666 
z
" transform="scale(0.015625)"/>
      <path id="DejaVuSans-71" d="M 947 1747 
Q 947 1113 1208 752 
Q 1469 391 1925 391 
Q 2381 391 2643 752 
Q 2906 1113 2906 1747 
Q 2906 2381 2643 2742 
Q 2381 3103 1925 3103 
Q 1469 3103 1208 2742 
Q 947 2381 947 1747 
z
M 2906 525 
Q 2725 213 2448 61 
Q 2172 -91 1784 -91 
Q 1150 -91 751 415 
Q 353 922 353 1747 
Q 353 2572 751 3078 
Q 1150 3584 1784 3584 
Q 2172 3584 2448 3432 
Q 2725 3281 2906 2969 
L 2906 3500 
L 3481 3500 
L 3481 -1331 
L 2906 -1331 
L 2906 525 
z
" transform="scale(0.015625)"/>
      <path id="DejaVuSans-3a" d="M 750 794 
L 1409 794 
L 1409 0 
L 750 0 
L 750 794 
z
M 750 3309 
L 1409 3309 
L 1409 2516 
L 750 2516 
L 750 3309 
z
" transform="scale(0.015625)"/>
      <path id="DejaVuSans-67" d="M 2906 1791 
Q 2906 2416 2648 2759 
Q 2391 3103 1925 3103 
Q 1463 3103 1205 2759 
Q 947 2416 947 1791 
Q 947 1169 1205 825 
Q 1463 481 1925 481 
Q 2391 481 2648 825 
Q 2906 1169 2906 1791 
z
M 3481 434 
Q 3481 -459 3084 -895 
Q 2688 -1331 1869 -1331 
Q 1566 -1331 1297 -1286 
Q 1028 -1241 775 -1147 
L 775 -588 
Q 1028 -725 1275 -790 
Q 1522 -856 1778 -856 
Q 2344 -856 2625 -561 
Q 2906 -266 2906 331 
L 2906 616 
Q 2728 306 2450 153 
Q 2172 0 1784 0 
Q 1141 0 747 490 
Q 353 981 353 1791 
Q 353 2603 747 3093 
Q 1141 3584 1784 3584 
Q 2172 3584 2450 3431 
Q 2728 3278 2906 2969 
L 2906 3500 
L 3481 3500 
L 3481 434 
z
" transform="scale(0.015625)"/>
      <path id="DejaVuSans-66" d="M 2375 4863 
L 2375 4384 
L 1825 4384 
Q 1516 4384 1395 4259 
Q 1275 4134 1275 3809 
L 1275 3500 
L 2222 3500 
L 2222 3053 
L 1275 3053 
L 1275 0 
L 697 0 
L 697 3053 
L 147 3053 
L 147 3500 
L 697 3500 
L 697 3744 
Q 697 4328 969 4595 
Q 1241 4863 1831 4863 
L 2375 4863 
z
" transform="scale(0.015625)"/>
      <path id="DejaVuSans-47" d="M 3809 666 
L 3809 1919 
L 2778 1919 
L 2778 2438 
L 4434 2438 
L 4434 434 
Q 4069 175 3628 42 
Q 3188 -91 2688 -91 
Q 1594 -91 976 548 
Q 359 1188 359 2328 
Q 359 3472 976 4111 
Q 1594 4750 2688 4750 
Q 3144 4750 3555 4637 
Q 3966 4525 4313 4306 
L 4313 3634 
Q 3963 3931 3569 4081 
Q 3175 4231 2741 4231 
Q 1884 4231 1454 3753 
Q 1025 3275 1025 2328 
Q 1025 1384 1454 906 
Q 1884 428 2741 428 
Q 3075 428 3337 486 
Q 3600 544 3809 666 
z
" transform="scale(0.015625)"/>
     </defs>
     <use xlink:href="#DejaVuSans-51"/>
     <use xlink:href="#DejaVuSans-75" x="78.710938"/>
     <use xlink:href="#DejaVuSans-61" x="142.089844"/>
     <use xlink:href="#DejaVuSans-6c" x="203.369141"/>
     <use xlink:href="#DejaVuSans-69" x="231.152344"/>
     <use xlink:href="#DejaVuSans-6d" x="258.935547"/>
     <use xlink:href="#DejaVuSans-61" x="356.347656"/>
     <use xlink:href="#DejaVuSans-70" x="417.626953"/>
     <use xlink:href="#DejaVuSans-20" x="481.103516"/>
     <use xlink:href="#DejaVuSans-52" x="512.890625"/>
     <use xlink:href="#DejaVuSans-4e" x="582.373047"/>
     <use xlink:href="#DejaVuSans-41" x="657.177734"/>
     <use xlink:href="#DejaVuSans-73" x="725.585938"/>
     <use xlink:href="#DejaVuSans-65" x="777.685547"/>
     <use xlink:href="#DejaVuSans-71" x="839.208984"/>
     <use xlink:href="#DejaVuSans-3a" x="902.685547"/>
     <use xlink:href="#DejaVuSans-20" x="936.376953"/>
     <use xlink:href="#DejaVuSans-43" x="968.164062"/>
     <use xlink:href="#DejaVuSans-6f" x="1037.988281"/>
     <use xlink:href="#DejaVuSans-76" x="1099.169922"/>
     <use xlink:href="#DejaVuSans-65" x="1158.349609"/>
     <use xlink:href="#DejaVuSans-72" x="1219.873047"/>
     <use xlink:href="#DejaVuSans-61" x="1260.986328"/>
     <use xlink:href="#DejaVuSans-67" x="1322.265625"/>
     <use xlink:href="#DejaVuSans-65" x="1385.742188"/>
     <use xlink:href="#DejaVuSans-20" x="1447.265625"/>
     <use xlink:href="#DejaVuSans-50" x="1479.052734"/>
     <use xlink:href="#DejaVuSans-72" x="1537.605469"/>
     <use xlink:href="#DejaVuSans-6f" x="1576.46875"/>
     <use xlink:href="#DejaVuSans-66" x="1637.650391"/>
     <use xlink:href="#DejaVuSans-69" x="1672.855469"/>
     <use xlink:href="#DejaVuSans-6c" x="1700.638672"/>
     <use xlink:href="#DejaVuSans-65" x="1728.421875"/>
     <use xlink:href="#DejaVuSans-20" x="1789.945312"/>
     <use xlink:href="#DejaVuSans-41" x="1821.732422"/>
     <use xlink:href="#DejaVuSans-6c" x="1890.140625"/>
     <use xlink:href="#DejaVuSans-6f" x="1917.923828"/>
     <use xlink:href="#DejaVuSans-6e" x="1979.105469"/>
     <use xlink:href="#DejaVuSans-67" x="2042.484375"/>
     <use xlink:href="#DejaVuSans-20" x="2105.960938"/>
     <use xlink:href="#DejaVuSans-47" x="2137.748047"/>
     <use xlink:href="#DejaVuSans-65" x="2215.238281"/>
     <use xlink:href="#DejaVuSans-6e" x="2276.761719"/>
     <use xlink:href="#DejaVuSans-65" x="2340.140625"/>
     <use xlink:href="#DejaVuSans-73" x="2401.664062"/>
     <use xlink:href="#DejaVuSans-20" x="2453.763672"/>
     <use xlink:href="#DejaVuSans-28" x="2485.550781"/>
     <use xlink:href="#DejaVuSans-74" x="2524.564453"/>
     <use xlink:href="#DejaVuSans-6f" x="2563.773438"/>
     <use xlink:href="#DejaVuSans-74" x="2624.955078"/>
     <use xlink:href="#DejaVuSans-61" x="2664.164062"/>
     <use xlink:href="#DejaVuSans-6c" x="2725.443359"/>
     <use xlink:href="#DejaVuSans-29" x="2753.226562"/>
    </g>
   </g>
  </g>
 </g>
 <defs>
  <clipPath id="p6adfa2f515">
   <rect x="58.418125" y="35.2559" width="926.845" height="317.968"/>
  </clipPath>
 </defs>
</svg>
