<?xml version="1.0" encoding="utf-8" standalone="no"?>
<!DOCTYPE svg PUBLIC "-//W3C//DTD SVG 1.1//EN"
  "http://www.w3.org/Graphics/SVG/1.1/DTD/svg11.dtd">
<svg xmlns:xlink="http://www.w3.org/1999/xlink" width="1000.358125pt" height="388.844525pt" viewBox="0 0 1000.358125 388.844525" xmlns="http://www.w3.org/2000/svg" version="1.1">
 <metadata>
  <rdf:RDF xmlns:dc="http://purl.org/dc/elements/1.1/" xmlns:cc="http://creativecommons.org/ns#" xmlns:rdf="http://www.w3.org/1999/02/22-rdf-syntax-ns#">
   <cc:Work>
    <dc:type rdf:resource="http://purl.org/dc/dcmitype/StillImage"/>
    <dc:date>2024-09-05T13:39:15.522161</dc:date>
    <dc:format>image/svg+xml</dc:format>
    <dc:creator>
     <cc:Agent>
      <dc:title>Matplotlib v3.8.2, https://matplotlib.org/</dc:title>
     </cc:Agent>
    </dc:creator>
   </cc:Work>
  </rdf:RDF>
 </metadata>
 <defs>
  <style type="text/css">*{stroke-linejoin: round; stroke-linecap: butt}</style>
 </defs>
 <g id="figure_1">
  <g id="axes_1">
   <g id="patch_1">
    <path d="M 32.968125 353.2239 
L 993.158125 353.2239 
L 993.158125 35.2559 
L 32.968125 35.2559 
z
" style="fill: #ffffff"/>
   </g>
   <g id="matplotlib.axis_1">
    <g id="xtick_1">
     <g id="text_1">
      <!-- 20 -->
      <g transform="translate(71.523125 366.30265) scale(0.08 -0.08)">
       <defs>
        <path id="DejaVuSans-32" d="M 1228 531 
L 3431 531 
L 3431 0 
L 469 0 
L 469 531 
Q 828 903 1448 1529 
Q 2069 2156 2228 2338 
Q 2531 2678 2651 2914 
Q 2772 3150 2772 3378 
Q 2772 3750 2511 3984 
Q 2250 4219 1831 4219 
Q 1534 4219 1204 4116 
Q 875 4013 500 3803 
L 500 4441 
Q 881 4594 1212 4672 
Q 1544 4750 1819 4750 
Q 2544 4750 2975 4387 
Q 3406 4025 3406 3419 
Q 3406 3131 3298 2873 
Q 3191 2616 2906 2266 
Q 2828 2175 2409 1742 
Q 1991 1309 1228 531 
z
" transform="scale(0.015625)"/>
        <path id="DejaVuSans-30" d="M 2034 4250 
Q 1547 4250 1301 3770 
Q 1056 3291 1056 2328 
Q 1056 1369 1301 889 
Q 1547 409 2034 409 
Q 2525 409 2770 889 
Q 3016 1369 3016 2328 
Q 3016 3291 2770 3770 
Q 2525 4250 2034 4250 
z
M 2034 4750 
Q 2819 4750 3233 4129 
Q 3647 3509 3647 2328 
Q 3647 1150 3233 529 
Q 2819 -91 2034 -91 
Q 1250 -91 836 529 
Q 422 1150 422 2328 
Q 422 3509 836 4129 
Q 1250 4750 2034 4750 
z
" transform="scale(0.015625)"/>
       </defs>
       <use xlink:href="#DejaVuSans-32"/>
       <use xlink:href="#DejaVuSans-30" x="63.623047"/>
      </g>
     </g>
    </g>
    <g id="xtick_2">
     <g id="text_2">
      <!-- 30 -->
      <g transform="translate(180.635625 366.30265) scale(0.08 -0.08)">
       <defs>
        <path id="DejaVuSans-33" d="M 2597 2516 
Q 3050 2419 3304 2112 
Q 3559 1806 3559 1356 
Q 3559 666 3084 287 
Q 2609 -91 1734 -91 
Q 1441 -91 1130 -33 
Q 819 25 488 141 
L 488 750 
Q 750 597 1062 519 
Q 1375 441 1716 441 
Q 2309 441 2620 675 
Q 2931 909 2931 1356 
Q 2931 1769 2642 2001 
Q 2353 2234 1838 2234 
L 1294 2234 
L 1294 2753 
L 1863 2753 
Q 2328 2753 2575 2939 
Q 2822 3125 2822 3475 
Q 2822 3834 2567 4026 
Q 2313 4219 1838 4219 
Q 1578 4219 1281 4162 
Q 984 4106 628 3988 
L 628 4550 
Q 988 4650 1302 4700 
Q 1616 4750 1894 4750 
Q 2613 4750 3031 4423 
Q 3450 4097 3450 3541 
Q 3450 3153 3228 2886 
Q 3006 2619 2597 2516 
z
" transform="scale(0.015625)"/>
       </defs>
       <use xlink:href="#DejaVuSans-33"/>
       <use xlink:href="#DejaVuSans-30" x="63.623047"/>
      </g>
     </g>
    </g>
    <g id="xtick_3">
     <g id="text_3">
      <!-- 40 -->
      <g transform="translate(289.748125 366.30265) scale(0.08 -0.08)">
       <defs>
        <path id="DejaVuSans-34" d="M 2419 4116 
L 825 1625 
L 2419 1625 
L 2419 4116 
z
M 2253 4666 
L 3047 4666 
L 3047 1625 
L 3713 1625 
L 3713 1100 
L 3047 1100 
L 3047 0 
L 2419 0 
L 2419 1100 
L 313 1100 
L 313 1709 
L 2253 4666 
z
" transform="scale(0.015625)"/>
       </defs>
       <use xlink:href="#DejaVuSans-34"/>
       <use xlink:href="#DejaVuSans-30" x="63.623047"/>
      </g>
     </g>
    </g>
    <g id="xtick_4">
     <g id="text_4">
      <!-- 50 -->
      <g transform="translate(398.860625 366.30265) scale(0.08 -0.08)">
       <defs>
        <path id="DejaVuSans-35" d="M 691 4666 
L 3169 4666 
L 3169 4134 
L 1269 4134 
L 1269 2991 
Q 1406 3038 1543 3061 
Q 1681 3084 1819 3084 
Q 2600 3084 3056 2656 
Q 3513 2228 3513 1497 
Q 3513 744 3044 326 
Q 2575 -91 1722 -91 
Q 1428 -91 1123 -41 
Q 819 9 494 109 
L 494 744 
Q 775 591 1075 516 
Q 1375 441 1709 441 
Q 2250 441 2565 725 
Q 2881 1009 2881 1497 
Q 2881 1984 2565 2268 
Q 2250 2553 1709 2553 
Q 1456 2553 1204 2497 
Q 953 2441 691 2322 
L 691 4666 
z
" transform="scale(0.015625)"/>
       </defs>
       <use xlink:href="#DejaVuSans-35"/>
       <use xlink:href="#DejaVuSans-30" x="63.623047"/>
      </g>
     </g>
    </g>
    <g id="xtick_5">
     <g id="text_5">
      <!-- 60 -->
      <g transform="translate(507.973125 366.30265) scale(0.08 -0.08)">
       <defs>
        <path id="DejaVuSans-36" d="M 2113 2584 
Q 1688 2584 1439 2293 
Q 1191 2003 1191 1497 
Q 1191 994 1439 701 
Q 1688 409 2113 409 
Q 2538 409 2786 701 
Q 3034 994 3034 1497 
Q 3034 2003 2786 2293 
Q 2538 2584 2113 2584 
z
M 3366 4563 
L 3366 3988 
Q 3128 4100 2886 4159 
Q 2644 4219 2406 4219 
Q 1781 4219 1451 3797 
Q 1122 3375 1075 2522 
Q 1259 2794 1537 2939 
Q 1816 3084 2150 3084 
Q 2853 3084 3261 2657 
Q 3669 2231 3669 1497 
Q 3669 778 3244 343 
Q 2819 -91 2113 -91 
Q 1303 -91 875 529 
Q 447 1150 447 2328 
Q 447 3434 972 4092 
Q 1497 4750 2381 4750 
Q 2619 4750 2861 4703 
Q 3103 4656 3366 4563 
z
" transform="scale(0.015625)"/>
       </defs>
       <use xlink:href="#DejaVuSans-36"/>
       <use xlink:href="#DejaVuSans-30" x="63.623047"/>
      </g>
     </g>
    </g>
    <g id="xtick_6">
     <g id="text_6">
      <!-- 70 -->
      <g transform="translate(617.085625 366.30265) scale(0.08 -0.08)">
       <defs>
        <path id="DejaVuSans-37" d="M 525 4666 
L 3525 4666 
L 3525 4397 
L 1831 0 
L 1172 0 
L 2766 4134 
L 525 4134 
L 525 4666 
z
" transform="scale(0.015625)"/>
       </defs>
       <use xlink:href="#DejaVuSans-37"/>
       <use xlink:href="#DejaVuSans-30" x="63.623047"/>
      </g>
     </g>
    </g>
    <g id="xtick_7">
     <g id="text_7">
      <!-- 80 -->
      <g transform="translate(726.198125 366.30265) scale(0.08 -0.08)">
       <defs>
        <path id="DejaVuSans-38" d="M 2034 2216 
Q 1584 2216 1326 1975 
Q 1069 1734 1069 1313 
Q 1069 891 1326 650 
Q 1584 409 2034 409 
Q 2484 409 2743 651 
Q 3003 894 3003 1313 
Q 3003 1734 2745 1975 
Q 2488 2216 2034 2216 
z
M 1403 2484 
Q 997 2584 770 2862 
Q 544 3141 544 3541 
Q 544 4100 942 4425 
Q 1341 4750 2034 4750 
Q 2731 4750 3128 4425 
Q 3525 4100 3525 3541 
Q 3525 3141 3298 2862 
Q 3072 2584 2669 2484 
Q 3125 2378 3379 2068 
Q 3634 1759 3634 1313 
Q 3634 634 3220 271 
Q 2806 -91 2034 -91 
Q 1263 -91 848 271 
Q 434 634 434 1313 
Q 434 1759 690 2068 
Q 947 2378 1403 2484 
z
M 1172 3481 
Q 1172 3119 1398 2916 
Q 1625 2713 2034 2713 
Q 2441 2713 2670 2916 
Q 2900 3119 2900 3481 
Q 2900 3844 2670 4047 
Q 2441 4250 2034 4250 
Q 1625 4250 1398 4047 
Q 1172 3844 1172 3481 
z
" transform="scale(0.015625)"/>
       </defs>
       <use xlink:href="#DejaVuSans-38"/>
       <use xlink:href="#DejaVuSans-30" x="63.623047"/>
      </g>
     </g>
    </g>
    <g id="xtick_8">
     <g id="text_8">
      <!-- 90 -->
      <g transform="translate(835.310625 366.30265) scale(0.08 -0.08)">
       <defs>
        <path id="DejaVuSans-39" d="M 703 97 
L 703 672 
Q 941 559 1184 500 
Q 1428 441 1663 441 
Q 2288 441 2617 861 
Q 2947 1281 2994 2138 
Q 2813 1869 2534 1725 
Q 2256 1581 1919 1581 
Q 1219 1581 811 2004 
Q 403 2428 403 3163 
Q 403 3881 828 4315 
Q 1253 4750 1959 4750 
Q 2769 4750 3195 4129 
Q 3622 3509 3622 2328 
Q 3622 1225 3098 567 
Q 2575 -91 1691 -91 
Q 1453 -91 1209 -44 
Q 966 3 703 97 
z
M 1959 2075 
Q 2384 2075 2632 2365 
Q 2881 2656 2881 3163 
Q 2881 3666 2632 3958 
Q 2384 4250 1959 4250 
Q 1534 4250 1286 3958 
Q 1038 3666 1038 3163 
Q 1038 2656 1286 2365 
Q 1534 2075 1959 2075 
z
" transform="scale(0.015625)"/>
       </defs>
       <use xlink:href="#DejaVuSans-39"/>
       <use xlink:href="#DejaVuSans-30" x="63.623047"/>
      </g>
     </g>
    </g>
    <g id="xtick_9">
     <g id="text_9">
      <!-- 100 -->
      <g transform="translate(941.878125 366.30265) scale(0.08 -0.08)">
       <defs>
        <path id="DejaVuSans-31" d="M 794 531 
L 1825 531 
L 1825 4091 
L 703 3866 
L 703 4441 
L 1819 4666 
L 2450 4666 
L 2450 531 
L 3481 531 
L 3481 0 
L 794 0 
L 794 531 
z
" transform="scale(0.015625)"/>
       </defs>
       <use xlink:href="#DejaVuSans-31"/>
       <use xlink:href="#DejaVuSans-30" x="63.623047"/>
       <use xlink:href="#DejaVuSans-30" x="127.246094"/>
      </g>
     </g>
    </g>
    <g id="text_10">
     <!-- Sequence Length (bp) -->
     <g transform="translate(457.723281 379.564837) scale(0.1 -0.1)">
      <defs>
       <path id="DejaVuSans-53" d="M 3425 4513 
L 3425 3897 
Q 3066 4069 2747 4153 
Q 2428 4238 2131 4238 
Q 1616 4238 1336 4038 
Q 1056 3838 1056 3469 
Q 1056 3159 1242 3001 
Q 1428 2844 1947 2747 
L 2328 2669 
Q 3034 2534 3370 2195 
Q 3706 1856 3706 1288 
Q 3706 609 3251 259 
Q 2797 -91 1919 -91 
Q 1588 -91 1214 -16 
Q 841 59 441 206 
L 441 856 
Q 825 641 1194 531 
Q 1563 422 1919 422 
Q 2459 422 2753 634 
Q 3047 847 3047 1241 
Q 3047 1584 2836 1778 
Q 2625 1972 2144 2069 
L 1759 2144 
Q 1053 2284 737 2584 
Q 422 2884 422 3419 
Q 422 4038 858 4394 
Q 1294 4750 2059 4750 
Q 2388 4750 2728 4690 
Q 3069 4631 3425 4513 
z
" transform="scale(0.015625)"/>
       <path id="DejaVuSans-65" d="M 3597 1894 
L 3597 1613 
L 953 1613 
Q 991 1019 1311 708 
Q 1631 397 2203 397 
Q 2534 397 2845 478 
Q 3156 559 3463 722 
L 3463 178 
Q 3153 47 2828 -22 
Q 2503 -91 2169 -91 
Q 1331 -91 842 396 
Q 353 884 353 1716 
Q 353 2575 817 3079 
Q 1281 3584 2069 3584 
Q 2775 3584 3186 3129 
Q 3597 2675 3597 1894 
z
M 3022 2063 
Q 3016 2534 2758 2815 
Q 2500 3097 2075 3097 
Q 1594 3097 1305 2825 
Q 1016 2553 972 2059 
L 3022 2063 
z
" transform="scale(0.015625)"/>
       <path id="DejaVuSans-71" d="M 947 1747 
Q 947 1113 1208 752 
Q 1469 391 1925 391 
Q 2381 391 2643 752 
Q 2906 1113 2906 1747 
Q 2906 2381 2643 2742 
Q 2381 3103 1925 3103 
Q 1469 3103 1208 2742 
Q 947 2381 947 1747 
z
M 2906 525 
Q 2725 213 2448 61 
Q 2172 -91 1784 -91 
Q 1150 -91 751 415 
Q 353 922 353 1747 
Q 353 2572 751 3078 
Q 1150 3584 1784 3584 
Q 2172 3584 2448 3432 
Q 2725 3281 2906 2969 
L 2906 3500 
L 3481 3500 
L 3481 -1331 
L 2906 -1331 
L 2906 525 
z
" transform="scale(0.015625)"/>
       <path id="DejaVuSans-75" d="M 544 1381 
L 544 3500 
L 1119 3500 
L 1119 1403 
Q 1119 906 1312 657 
Q 1506 409 1894 409 
Q 2359 409 2629 706 
Q 2900 1003 2900 1516 
L 2900 3500 
L 3475 3500 
L 3475 0 
L 2900 0 
L 2900 538 
Q 2691 219 2414 64 
Q 2138 -91 1772 -91 
Q 1169 -91 856 284 
Q 544 659 544 1381 
z
M 1991 3584 
L 1991 3584 
z
" transform="scale(0.015625)"/>
       <path id="DejaVuSans-6e" d="M 3513 2113 
L 3513 0 
L 2938 0 
L 2938 2094 
Q 2938 2591 2744 2837 
Q 2550 3084 2163 3084 
Q 1697 3084 1428 2787 
Q 1159 2491 1159 1978 
L 1159 0 
L 581 0 
L 581 3500 
L 1159 3500 
L 1159 2956 
Q 1366 3272 1645 3428 
Q 1925 3584 2291 3584 
Q 2894 3584 3203 3211 
Q 3513 2838 3513 2113 
z
" transform="scale(0.015625)"/>
       <path id="DejaVuSans-63" d="M 3122 3366 
L 3122 2828 
Q 2878 2963 2633 3030 
Q 2388 3097 2138 3097 
Q 1578 3097 1268 2742 
Q 959 2388 959 1747 
Q 959 1106 1268 751 
Q 1578 397 2138 397 
Q 2388 397 2633 464 
Q 2878 531 3122 666 
L 3122 134 
Q 2881 22 2623 -34 
Q 2366 -91 2075 -91 
Q 1284 -91 818 406 
Q 353 903 353 1747 
Q 353 2603 823 3093 
Q 1294 3584 2113 3584 
Q 2378 3584 2631 3529 
Q 2884 3475 3122 3366 
z
" transform="scale(0.015625)"/>
       <path id="DejaVuSans-20" transform="scale(0.015625)"/>
       <path id="DejaVuSans-4c" d="M 628 4666 
L 1259 4666 
L 1259 531 
L 3531 531 
L 3531 0 
L 628 0 
L 628 4666 
z
" transform="scale(0.015625)"/>
       <path id="DejaVuSans-67" d="M 2906 1791 
Q 2906 2416 2648 2759 
Q 2391 3103 1925 3103 
Q 1463 3103 1205 2759 
Q 947 2416 947 1791 
Q 947 1169 1205 825 
Q 1463 481 1925 481 
Q 2391 481 2648 825 
Q 2906 1169 2906 1791 
z
M 3481 434 
Q 3481 -459 3084 -895 
Q 2688 -1331 1869 -1331 
Q 1566 -1331 1297 -1286 
Q 1028 -1241 775 -1147 
L 775 -588 
Q 1028 -725 1275 -790 
Q 1522 -856 1778 -856 
Q 2344 -856 2625 -561 
Q 2906 -266 2906 331 
L 2906 616 
Q 2728 306 2450 153 
Q 2172 0 1784 0 
Q 1141 0 747 490 
Q 353 981 353 1791 
Q 353 2603 747 3093 
Q 1141 3584 1784 3584 
Q 2172 3584 2450 3431 
Q 2728 3278 2906 2969 
L 2906 3500 
L 3481 3500 
L 3481 434 
z
" transform="scale(0.015625)"/>
       <path id="DejaVuSans-74" d="M 1172 4494 
L 1172 3500 
L 2356 3500 
L 2356 3053 
L 1172 3053 
L 1172 1153 
Q 1172 725 1289 603 
Q 1406 481 1766 481 
L 2356 481 
L 2356 0 
L 1766 0 
Q 1100 0 847 248 
Q 594 497 594 1153 
L 594 3053 
L 172 3053 
L 172 3500 
L 594 3500 
L 594 4494 
L 1172 4494 
z
" transform="scale(0.015625)"/>
       <path id="DejaVuSans-68" d="M 3513 2113 
L 3513 0 
L 2938 0 
L 2938 2094 
Q 2938 2591 2744 2837 
Q 2550 3084 2163 3084 
Q 1697 3084 1428 2787 
Q 1159 2491 1159 1978 
L 1159 0 
L 581 0 
L 581 4863 
L 1159 4863 
L 1159 2956 
Q 1366 3272 1645 3428 
Q 1925 3584 2291 3584 
Q 2894 3584 3203 3211 
Q 3513 2838 3513 2113 
z
" transform="scale(0.015625)"/>
       <path id="DejaVuSans-28" d="M 1984 4856 
Q 1566 4138 1362 3434 
Q 1159 2731 1159 2009 
Q 1159 1288 1364 580 
Q 1569 -128 1984 -844 
L 1484 -844 
Q 1016 -109 783 600 
Q 550 1309 550 2009 
Q 550 2706 781 3412 
Q 1013 4119 1484 4856 
L 1984 4856 
z
" transform="scale(0.015625)"/>
       <path id="DejaVuSans-62" d="M 3116 1747 
Q 3116 2381 2855 2742 
Q 2594 3103 2138 3103 
Q 1681 3103 1420 2742 
Q 1159 2381 1159 1747 
Q 1159 1113 1420 752 
Q 1681 391 2138 391 
Q 2594 391 2855 752 
Q 3116 1113 3116 1747 
z
M 1159 2969 
Q 1341 3281 1617 3432 
Q 1894 3584 2278 3584 
Q 2916 3584 3314 3078 
Q 3713 2572 3713 1747 
Q 3713 922 3314 415 
Q 2916 -91 2278 -91 
Q 1894 -91 1617 61 
Q 1341 213 1159 525 
L 1159 0 
L 581 0 
L 581 4863 
L 1159 4863 
L 1159 2969 
z
" transform="scale(0.015625)"/>
       <path id="DejaVuSans-70" d="M 1159 525 
L 1159 -1331 
L 581 -1331 
L 581 3500 
L 1159 3500 
L 1159 2969 
Q 1341 3281 1617 3432 
Q 1894 3584 2278 3584 
Q 2916 3584 3314 3078 
Q 3713 2572 3713 1747 
Q 3713 922 3314 415 
Q 2916 -91 2278 -91 
Q 1894 -91 1617 61 
Q 1341 213 1159 525 
z
M 3116 1747 
Q 3116 2381 2855 2742 
Q 2594 3103 2138 3103 
Q 1681 3103 1420 2742 
Q 1159 2381 1159 1747 
Q 1159 1113 1420 752 
Q 1681 391 2138 391 
Q 2594 391 2855 752 
Q 3116 1113 3116 1747 
z
" transform="scale(0.015625)"/>
       <path id="DejaVuSans-29" d="M 513 4856 
L 1013 4856 
Q 1481 4119 1714 3412 
Q 1947 2706 1947 2009 
Q 1947 1309 1714 600 
Q 1481 -109 1013 -844 
L 513 -844 
Q 928 -128 1133 580 
Q 1338 1288 1338 2009 
Q 1338 2731 1133 3434 
Q 928 4138 513 4856 
z
" transform="scale(0.015625)"/>
      </defs>
      <use xlink:href="#DejaVuSans-53"/>
      <use xlink:href="#DejaVuSans-65" x="63.476562"/>
      <use xlink:href="#DejaVuSans-71" x="125"/>
      <use xlink:href="#DejaVuSans-75" x="188.476562"/>
      <use xlink:href="#DejaVuSans-65" x="251.855469"/>
      <use xlink:href="#DejaVuSans-6e" x="313.378906"/>
      <use xlink:href="#DejaVuSans-63" x="376.757812"/>
      <use xlink:href="#DejaVuSans-65" x="431.738281"/>
      <use xlink:href="#DejaVuSans-20" x="493.261719"/>
      <use xlink:href="#DejaVuSans-4c" x="525.048828"/>
      <use xlink:href="#DejaVuSans-65" x="579.011719"/>
      <use xlink:href="#DejaVuSans-6e" x="640.535156"/>
      <use xlink:href="#DejaVuSans-67" x="703.914062"/>
      <use xlink:href="#DejaVuSans-74" x="767.390625"/>
      <use xlink:href="#DejaVuSans-68" x="806.599609"/>
      <use xlink:href="#DejaVuSans-20" x="869.978516"/>
      <use xlink:href="#DejaVuSans-28" x="901.765625"/>
      <use xlink:href="#DejaVuSans-62" x="940.779297"/>
      <use xlink:href="#DejaVuSans-70" x="1004.255859"/>
      <use xlink:href="#DejaVuSans-29" x="1067.732422"/>
     </g>
    </g>
   </g>
   <g id="matplotlib.axis_2">
    <g id="ytick_1">
     <g id="line2d_1">
      <path d="M 32.968125 353.2239 
L 993.158125 353.2239 
" clip-path="url(#p6cb90b5a2c)" style="fill: none; stroke: #dedede; stroke-linecap: square"/>
     </g>
     <g id="text_11">
      <!-- 0 -->
      <g transform="translate(20.878125 356.263275) scale(0.08 -0.08)">
       <use xlink:href="#DejaVuSans-30"/>
      </g>
     </g>
    </g>
    <g id="ytick_2">
     <g id="line2d_2">
      <path d="M 32.968125 303.410761 
L 993.158125 303.410761 
" clip-path="url(#p6cb90b5a2c)" style="fill: none; stroke: #dedede; stroke-linecap: square"/>
     </g>
     <g id="text_12">
      <!-- 1 -->
      <g transform="translate(20.878125 306.450136) scale(0.08 -0.08)">
       <use xlink:href="#DejaVuSans-31"/>
      </g>
     </g>
    </g>
    <g id="ytick_3">
     <g id="line2d_3">
      <path d="M 32.968125 253.597622 
L 993.158125 253.597622 
" clip-path="url(#p6cb90b5a2c)" style="fill: none; stroke: #dedede; stroke-linecap: square"/>
     </g>
     <g id="text_13">
      <!-- 2 -->
      <g transform="translate(20.878125 256.636997) scale(0.08 -0.08)">
       <use xlink:href="#DejaVuSans-32"/>
      </g>
     </g>
    </g>
    <g id="ytick_4">
     <g id="line2d_4">
      <path d="M 32.968125 203.784484 
L 993.158125 203.784484 
" clip-path="url(#p6cb90b5a2c)" style="fill: none; stroke: #dedede; stroke-linecap: square"/>
     </g>
     <g id="text_14">
      <!-- 3 -->
      <g transform="translate(20.878125 206.823859) scale(0.08 -0.08)">
       <use xlink:href="#DejaVuSans-33"/>
      </g>
     </g>
    </g>
    <g id="ytick_5">
     <g id="line2d_5">
      <path d="M 32.968125 153.971345 
L 993.158125 153.971345 
" clip-path="url(#p6cb90b5a2c)" style="fill: none; stroke: #dedede; stroke-linecap: square"/>
     </g>
     <g id="text_15">
      <!-- 4 -->
      <g transform="translate(20.878125 157.01072) scale(0.08 -0.08)">
       <use xlink:href="#DejaVuSans-34"/>
      </g>
     </g>
    </g>
    <g id="ytick_6">
     <g id="line2d_6">
      <path d="M 32.968125 104.158206 
L 993.158125 104.158206 
" clip-path="url(#p6cb90b5a2c)" style="fill: none; stroke: #dedede; stroke-linecap: square"/>
     </g>
     <g id="text_16">
      <!-- 5 -->
      <g transform="translate(20.878125 107.197581) scale(0.08 -0.08)">
       <use xlink:href="#DejaVuSans-35"/>
      </g>
     </g>
    </g>
    <g id="ytick_7">
     <g id="line2d_7">
      <path d="M 32.968125 54.345067 
L 993.158125 54.345067 
" clip-path="url(#p6cb90b5a2c)" style="fill: none; stroke: #dedede; stroke-linecap: square"/>
     </g>
     <g id="text_17">
      <!-- 6 -->
      <g transform="translate(20.878125 57.384442) scale(0.08 -0.08)">
       <use xlink:href="#DejaVuSans-36"/>
      </g>
     </g>
    </g>
    <g id="text_18">
     <!-- Read Count -->
     <g transform="translate(14.798437 223.241463) rotate(-90) scale(0.1 -0.1)">
      <defs>
       <path id="DejaVuSans-52" d="M 2841 2188 
Q 3044 2119 3236 1894 
Q 3428 1669 3622 1275 
L 4263 0 
L 3584 0 
L 2988 1197 
Q 2756 1666 2539 1819 
Q 2322 1972 1947 1972 
L 1259 1972 
L 1259 0 
L 628 0 
L 628 4666 
L 2053 4666 
Q 2853 4666 3247 4331 
Q 3641 3997 3641 3322 
Q 3641 2881 3436 2590 
Q 3231 2300 2841 2188 
z
M 1259 4147 
L 1259 2491 
L 2053 2491 
Q 2509 2491 2742 2702 
Q 2975 2913 2975 3322 
Q 2975 3731 2742 3939 
Q 2509 4147 2053 4147 
L 1259 4147 
z
" transform="scale(0.015625)"/>
       <path id="DejaVuSans-61" d="M 2194 1759 
Q 1497 1759 1228 1600 
Q 959 1441 959 1056 
Q 959 750 1161 570 
Q 1363 391 1709 391 
Q 2188 391 2477 730 
Q 2766 1069 2766 1631 
L 2766 1759 
L 2194 1759 
z
M 3341 1997 
L 3341 0 
L 2766 0 
L 2766 531 
Q 2569 213 2275 61 
Q 1981 -91 1556 -91 
Q 1019 -91 701 211 
Q 384 513 384 1019 
Q 384 1609 779 1909 
Q 1175 2209 1959 2209 
L 2766 2209 
L 2766 2266 
Q 2766 2663 2505 2880 
Q 2244 3097 1772 3097 
Q 1472 3097 1187 3025 
Q 903 2953 641 2809 
L 641 3341 
Q 956 3463 1253 3523 
Q 1550 3584 1831 3584 
Q 2591 3584 2966 3190 
Q 3341 2797 3341 1997 
z
" transform="scale(0.015625)"/>
       <path id="DejaVuSans-64" d="M 2906 2969 
L 2906 4863 
L 3481 4863 
L 3481 0 
L 2906 0 
L 2906 525 
Q 2725 213 2448 61 
Q 2172 -91 1784 -91 
Q 1150 -91 751 415 
Q 353 922 353 1747 
Q 353 2572 751 3078 
Q 1150 3584 1784 3584 
Q 2172 3584 2448 3432 
Q 2725 3281 2906 2969 
z
M 947 1747 
Q 947 1113 1208 752 
Q 1469 391 1925 391 
Q 2381 391 2643 752 
Q 2906 1113 2906 1747 
Q 2906 2381 2643 2742 
Q 2381 3103 1925 3103 
Q 1469 3103 1208 2742 
Q 947 2381 947 1747 
z
" transform="scale(0.015625)"/>
       <path id="DejaVuSans-43" d="M 4122 4306 
L 4122 3641 
Q 3803 3938 3442 4084 
Q 3081 4231 2675 4231 
Q 1875 4231 1450 3742 
Q 1025 3253 1025 2328 
Q 1025 1406 1450 917 
Q 1875 428 2675 428 
Q 3081 428 3442 575 
Q 3803 722 4122 1019 
L 4122 359 
Q 3791 134 3420 21 
Q 3050 -91 2638 -91 
Q 1578 -91 968 557 
Q 359 1206 359 2328 
Q 359 3453 968 4101 
Q 1578 4750 2638 4750 
Q 3056 4750 3426 4639 
Q 3797 4528 4122 4306 
z
" transform="scale(0.015625)"/>
       <path id="DejaVuSans-6f" d="M 1959 3097 
Q 1497 3097 1228 2736 
Q 959 2375 959 1747 
Q 959 1119 1226 758 
Q 1494 397 1959 397 
Q 2419 397 2687 759 
Q 2956 1122 2956 1747 
Q 2956 2369 2687 2733 
Q 2419 3097 1959 3097 
z
M 1959 3584 
Q 2709 3584 3137 3096 
Q 3566 2609 3566 1747 
Q 3566 888 3137 398 
Q 2709 -91 1959 -91 
Q 1206 -91 779 398 
Q 353 888 353 1747 
Q 353 2609 779 3096 
Q 1206 3584 1959 3584 
z
" transform="scale(0.015625)"/>
      </defs>
      <use xlink:href="#DejaVuSans-52"/>
      <use xlink:href="#DejaVuSans-65" x="64.982422"/>
      <use xlink:href="#DejaVuSans-61" x="126.505859"/>
      <use xlink:href="#DejaVuSans-64" x="187.785156"/>
      <use xlink:href="#DejaVuSans-20" x="251.261719"/>
      <use xlink:href="#DejaVuSans-43" x="283.048828"/>
      <use xlink:href="#DejaVuSans-6f" x="352.873047"/>
      <use xlink:href="#DejaVuSans-75" x="414.054688"/>
      <use xlink:href="#DejaVuSans-6e" x="477.433594"/>
      <use xlink:href="#DejaVuSans-74" x="540.8125"/>
     </g>
    </g>
    <g id="text_19">
     <!-- 1e7 -->
     <g transform="translate(32.968125 32.2559) scale(0.1 -0.1)">
      <use xlink:href="#DejaVuSans-31"/>
      <use xlink:href="#DejaVuSans-65" x="63.623047"/>
      <use xlink:href="#DejaVuSans-37" x="125.146484"/>
     </g>
    </g>
   </g>
   <g id="line2d_8">
    <path d="M 76.613125 353.213584 
L 98.435625 353.196647 
L 120.258125 353.147591 
L 142.080625 353.171756 
L 163.903125 353.186251 
L 185.725625 353.195208 
L 207.548125 353.196837 
L 229.370625 353.195761 
L 251.193125 353.198286 
L 273.015625 353.198152 
L 294.838125 353.196169 
L 316.660625 353.191915 
L 338.483125 353.18917 
L 360.305625 353.177041 
L 382.128125 353.185409 
L 403.950625 353.178983 
L 425.773125 353.173982 
L 447.595625 353.168921 
L 469.418125 353.161808 
L 491.240625 353.154834 
L 513.063125 353.144792 
L 534.885625 353.132837 
L 556.708125 353.114784 
L 578.530625 353.093683 
L 600.353125 353.080139 
L 622.175625 353.059761 
L 643.998125 353.040966 
L 665.820625 353.003029 
L 687.643125 352.955113 
L 709.465625 352.910003 
L 731.288125 352.872135 
L 753.110625 352.833091 
L 774.933125 352.751079 
L 796.755625 352.623527 
L 818.578125 352.500519 
L 840.400625 352.387667 
L 862.223125 351.570074 
L 884.045625 349.073928 
L 905.868125 324.850057 
L 927.690625 259.942501 
L 949.513125 133.579853 
" clip-path="url(#p6cb90b5a2c)" style="fill: none; stroke: #f0ad4e; stroke-linecap: square"/>
   </g>
   <g id="line2d_9">
    <path d="M 76.613125 353.213942 
L 98.435625 353.191696 
L 120.258125 353.137245 
L 142.080625 353.162187 
L 163.903125 353.176851 
L 185.725625 353.181997 
L 207.548125 353.179576 
L 229.370625 353.172971 
L 251.193125 353.172139 
L 273.015625 353.161783 
L 294.838125 353.151262 
L 316.660625 353.134764 
L 338.483125 353.122291 
L 360.305625 353.104184 
L 382.128125 353.096498 
L 403.950625 353.071855 
L 425.773125 353.040647 
L 447.595625 353.019327 
L 469.418125 352.993644 
L 491.240625 352.967477 
L 513.063125 352.929609 
L 534.885625 352.882959 
L 556.708125 352.833604 
L 578.530625 352.788867 
L 600.353125 352.741774 
L 622.175625 352.684254 
L 643.998125 352.609739 
L 665.820625 352.508758 
L 687.643125 352.422546 
L 709.465625 352.337988 
L 731.288125 352.218203 
L 753.110625 352.114467 
L 774.933125 351.935309 
L 796.755625 351.735668 
L 818.578125 351.605207 
L 840.400625 351.391937 
L 862.223125 350.826683 
L 884.045625 347.63235 
L 905.868125 321.421249 
L 927.690625 254.412924 
L 949.513125 138.199016 
" clip-path="url(#p6cb90b5a2c)" style="fill: none; stroke: #f0ad4e; stroke-linecap: square"/>
   </g>
   <g id="line2d_10">
    <path d="M 76.613125 353.210266 
L 98.435625 353.181579 
L 120.258125 353.107148 
L 142.080625 353.151656 
L 163.903125 353.171158 
L 185.725625 353.179422 
L 207.548125 353.18119 
L 229.370625 353.180936 
L 251.193125 353.182162 
L 273.015625 353.180573 
L 294.838125 353.173384 
L 316.660625 353.163322 
L 338.483125 353.159895 
L 360.305625 353.151003 
L 382.128125 353.144124 
L 403.950625 353.130819 
L 425.773125 353.116348 
L 447.595625 353.09718 
L 469.418125 353.079273 
L 491.240625 353.056319 
L 513.063125 353.02655 
L 534.885625 352.990456 
L 556.708125 352.938232 
L 578.530625 352.88922 
L 600.353125 352.840961 
L 622.175625 352.776409 
L 643.998125 352.690705 
L 665.820625 352.589355 
L 687.643125 352.466835 
L 709.465625 352.340036 
L 731.288125 352.205993 
L 753.110625 352.050631 
L 774.933125 351.806437 
L 796.755625 351.508435 
L 818.578125 351.257462 
L 840.400625 350.932994 
L 862.223125 350.218803 
L 884.045625 346.206539 
L 905.868125 313.242794 
L 927.690625 228.657071 
L 949.513125 88.056941 
" clip-path="url(#p6cb90b5a2c)" style="fill: none; stroke: #f0ad4e; stroke-linecap: square"/>
   </g>
   <g id="line2d_11">
    <path d="M 76.613125 353.208313 
L 98.435625 353.174157 
L 120.258125 353.092254 
L 142.080625 353.143756 
L 163.903125 353.167586 
L 185.725625 353.176528 
L 207.548125 353.180234 
L 229.370625 353.181863 
L 251.193125 353.180971 
L 273.015625 353.180916 
L 294.838125 353.176946 
L 316.660625 353.170505 
L 338.483125 353.164657 
L 360.305625 353.160538 
L 382.128125 353.149589 
L 403.950625 353.139282 
L 425.773125 353.127163 
L 447.595625 353.110356 
L 469.418125 353.095342 
L 491.240625 353.072234 
L 513.063125 353.041873 
L 534.885625 353.008802 
L 556.708125 352.961958 
L 578.530625 352.913031 
L 600.353125 352.863766 
L 622.175625 352.799532 
L 643.998125 352.710884 
L 665.820625 352.60678 
L 687.643125 352.481804 
L 709.465625 352.351772 
L 731.288125 352.206631 
L 753.110625 352.037705 
L 774.933125 351.783767 
L 796.755625 351.458159 
L 818.578125 351.167554 
L 840.400625 350.821826 
L 862.223125 350.0383 
L 884.045625 345.51981 
L 905.868125 309.115038 
L 927.690625 215.918929 
L 949.513125 61.486134 
" clip-path="url(#p6cb90b5a2c)" style="fill: none; stroke: #f0ad4e; stroke-linecap: square"/>
   </g>
   <g id="line2d_12">
    <path d="M 76.613125 353.218739 
L 98.435625 353.209977 
L 120.258125 353.185514 
L 142.080625 353.199113 
L 163.903125 353.205639 
L 185.725625 353.208622 
L 207.548125 353.209868 
L 229.370625 353.209424 
L 251.193125 353.208822 
L 273.015625 353.208194 
L 294.838125 353.206431 
L 316.660625 353.202331 
L 338.483125 353.200792 
L 360.305625 353.198107 
L 382.128125 353.194824 
L 403.950625 353.190027 
L 425.773125 353.184373 
L 447.595625 353.177693 
L 469.418125 353.170152 
L 491.240625 353.16125 
L 513.063125 353.150336 
L 534.885625 353.134067 
L 556.708125 353.113903 
L 578.530625 353.094356 
L 600.353125 353.070451 
L 622.175625 353.047014 
L 643.998125 353.010177 
L 665.820625 352.965684 
L 687.643125 352.904314 
L 709.465625 352.85068 
L 731.288125 352.791133 
L 753.110625 352.709988 
L 774.933125 352.590217 
L 796.755625 352.452065 
L 818.578125 352.331353 
L 840.400625 352.177181 
L 862.223125 351.81774 
L 884.045625 349.868721 
L 905.868125 333.852208 
L 927.690625 292.1149 
L 949.513125 218.294812 
" clip-path="url(#p6cb90b5a2c)" style="fill: none; stroke: #f0ad4e; stroke-linecap: square"/>
   </g>
   <g id="line2d_13">
    <path d="M 76.613125 353.211397 
L 98.435625 353.183297 
L 120.258125 353.112259 
L 142.080625 353.155726 
L 163.903125 353.174261 
L 185.725625 353.183218 
L 207.548125 353.184617 
L 229.370625 353.184896 
L 251.193125 353.188259 
L 273.015625 353.185619 
L 294.838125 353.182515 
L 316.660625 353.175477 
L 338.483125 353.170784 
L 360.305625 353.163482 
L 382.128125 353.158381 
L 403.950625 353.150695 
L 425.773125 353.137878 
L 447.595625 353.125031 
L 469.418125 353.110341 
L 491.240625 353.089036 
L 513.063125 353.062172 
L 534.885625 353.033235 
L 556.708125 352.988941 
L 578.530625 352.942092 
L 600.353125 352.89602 
L 622.175625 352.835412 
L 643.998125 352.753818 
L 665.820625 352.65353 
L 687.643125 352.518177 
L 709.465625 352.388987 
L 731.288125 352.22558 
L 753.110625 352.068016 
L 774.933125 351.80175 
L 796.755625 351.46171 
L 818.578125 351.148082 
L 840.400625 350.814927 
L 862.223125 350.105961 
L 884.045625 346.440581 
L 905.868125 317.223158 
L 927.690625 241.461936 
L 949.513125 117.791689 
" clip-path="url(#p6cb90b5a2c)" style="fill: none; stroke: #f0ad4e; stroke-linecap: square"/>
   </g>
   <g id="line2d_14">
    <path d="M 76.613125 353.21179 
L 98.435625 353.183576 
L 120.258125 353.114361 
L 142.080625 353.156961 
L 163.903125 353.173937 
L 185.725625 353.18128 
L 207.548125 353.183726 
L 229.370625 353.182062 
L 251.193125 353.183855 
L 273.015625 353.180881 
L 294.838125 353.174685 
L 316.660625 353.163078 
L 338.483125 353.156876 
L 360.305625 353.147566 
L 382.128125 353.138939 
L 403.950625 353.125126 
L 425.773125 353.104234 
L 447.595625 353.087268 
L 469.418125 353.068473 
L 491.240625 353.039118 
L 513.063125 353.005345 
L 534.885625 352.961728 
L 556.708125 352.906665 
L 578.530625 352.84136 
L 600.353125 352.78282 
L 622.175625 352.701305 
L 643.998125 352.594217 
L 665.820625 352.456001 
L 687.643125 352.294691 
L 709.465625 352.134646 
L 731.288125 351.941755 
L 753.110625 351.718701 
L 774.933125 351.389755 
L 796.755625 350.996177 
L 818.578125 350.661602 
L 840.400625 350.248706 
L 862.223125 349.436677 
L 884.045625 345.512582 
L 905.868125 314.998179 
L 927.690625 236.337619 
L 949.513125 116.695834 
" clip-path="url(#p6cb90b5a2c)" style="fill: none; stroke: #f0ad4e; stroke-linecap: square"/>
   </g>
   <g id="line2d_15">
    <path d="M 76.613125 353.208996 
L 98.435625 353.176109 
L 120.258125 353.096598 
L 142.080625 353.147681 
L 163.903125 353.166934 
L 185.725625 353.177175 
L 207.548125 353.180049 
L 229.370625 353.179277 
L 251.193125 353.179113 
L 273.015625 353.177265 
L 294.838125 353.171706 
L 316.660625 353.158869 
L 338.483125 353.152762 
L 360.305625 353.141927 
L 382.128125 353.128852 
L 403.950625 353.110132 
L 425.773125 353.089599 
L 447.595625 353.064976 
L 469.418125 353.042197 
L 491.240625 353.011766 
L 513.063125 352.971063 
L 534.885625 352.923218 
L 556.708125 352.861211 
L 578.530625 352.790137 
L 600.353125 352.727373 
L 622.175625 352.647781 
L 643.998125 352.538616 
L 665.820625 352.403194 
L 687.643125 352.225301 
L 709.465625 352.054791 
L 731.288125 351.876445 
L 753.110625 351.664325 
L 774.933125 351.343653 
L 796.755625 350.925323 
L 818.578125 350.543445 
L 840.400625 350.136003 
L 862.223125 349.314739 
L 884.045625 345.004164 
L 905.868125 310.920725 
L 927.690625 223.922531 
L 949.513125 80.987346 
" clip-path="url(#p6cb90b5a2c)" style="fill: none; stroke: #f0ad4e; stroke-linecap: square"/>
   </g>
   <g id="line2d_16">
    <path d="M 76.613125 353.218042 
L 98.435625 353.208039 
L 120.258125 353.179985 
L 142.080625 353.193379 
L 163.903125 353.199586 
L 185.725625 353.204049 
L 207.548125 353.203113 
L 229.370625 353.200179 
L 251.193125 353.197848 
L 273.015625 353.198455 
L 294.838125 353.191422 
L 316.660625 353.183003 
L 338.483125 353.177135 
L 360.305625 353.172617 
L 382.128125 353.170421 
L 403.950625 353.156986 
L 425.773125 353.143611 
L 447.595625 353.131766 
L 469.418125 353.125335 
L 491.240625 353.120134 
L 513.063125 353.102834 
L 534.885625 353.075014 
L 556.708125 353.044623 
L 578.530625 353.029175 
L 600.353125 353.020647 
L 622.175625 352.994316 
L 643.998125 352.944488 
L 665.820625 352.887427 
L 687.643125 352.84809 
L 709.465625 352.824414 
L 731.288125 352.780588 
L 753.110625 352.710137 
L 774.933125 352.584643 
L 796.755625 352.48004 
L 818.578125 352.436927 
L 840.400625 352.354387 
L 862.223125 351.575369 
L 884.045625 350.062748 
L 905.868125 334.811729 
L 927.690625 294.078758 
L 949.513125 220.720318 
" clip-path="url(#p6cb90b5a2c)" style="fill: none; stroke: #f0ad4e; stroke-linecap: square"/>
   </g>
   <g id="line2d_17">
    <path d="M 76.613125 353.21061 
L 98.435625 353.180941 
L 120.258125 353.106396 
L 142.080625 353.153096 
L 163.903125 353.168757 
L 185.725625 353.17724 
L 207.548125 353.177898 
L 229.370625 353.171462 
L 251.193125 353.168089 
L 273.015625 353.158645 
L 294.838125 353.146067 
L 316.660625 353.12533 
L 338.483125 353.10664 
L 360.305625 353.086625 
L 382.128125 353.069424 
L 403.950625 353.039362 
L 425.773125 353.003532 
L 447.595625 352.967357 
L 469.418125 352.930082 
L 491.240625 352.898182 
L 513.063125 352.849888 
L 534.885625 352.785141 
L 556.708125 352.716508 
L 578.530625 352.635482 
L 600.353125 352.568429 
L 622.175625 352.502202 
L 643.998125 352.398148 
L 665.820625 352.26568 
L 687.643125 352.111553 
L 709.465625 351.969979 
L 731.288125 351.83097 
L 753.110625 351.675234 
L 774.933125 351.431832 
L 796.755625 351.118119 
L 818.578125 350.838976 
L 840.400625 350.557358 
L 862.223125 349.609105 
L 884.045625 345.932412 
L 905.868125 313.727869 
L 927.690625 230.227191 
L 949.513125 93.073622 
" clip-path="url(#p6cb90b5a2c)" style="fill: none; stroke: #f0ad4e; stroke-linecap: square"/>
   </g>
   <g id="line2d_18">
    <path d="M 76.613125 353.214495 
L 98.435625 353.195955 
L 120.258125 353.149116 
L 142.080625 353.178052 
L 163.903125 353.189838 
L 185.725625 353.195093 
L 207.548125 353.197424 
L 229.370625 353.198087 
L 251.193125 353.198147 
L 273.015625 353.197708 
L 294.838125 353.195262 
L 316.660625 353.190381 
L 338.483125 353.188239 
L 360.305625 353.183078 
L 382.128125 353.177683 
L 403.950625 353.17197 
L 425.773125 353.16402 
L 447.595625 353.153539 
L 469.418125 353.145394 
L 491.240625 353.132164 
L 513.063125 353.118884 
L 534.885625 353.100568 
L 556.708125 353.076712 
L 578.530625 353.048588 
L 600.353125 353.026246 
L 622.175625 352.997001 
L 643.998125 352.958864 
L 665.820625 352.908812 
L 687.643125 352.844732 
L 709.465625 352.777878 
L 731.288125 352.718391 
L 753.110625 352.645824 
L 774.933125 352.527642 
L 796.755625 352.36277 
L 818.578125 352.216818 
L 840.400625 352.043423 
L 862.223125 351.450717 
L 884.045625 348.487074 
L 905.868125 322.793811 
L 927.690625 257.451301 
L 949.513125 143.259224 
" clip-path="url(#p6cb90b5a2c)" style="fill: none; stroke: #f0ad4e; stroke-linecap: square"/>
   </g>
   <g id="line2d_19">
    <path d="M 76.613125 353.212044 
L 98.435625 353.187467 
L 120.258125 353.126969 
L 142.080625 353.164722 
L 163.903125 353.178386 
L 185.725625 353.185399 
L 207.548125 353.186675 
L 229.370625 353.184697 
L 251.193125 353.183526 
L 273.015625 353.181006 
L 294.838125 353.17469 
L 316.660625 353.164632 
L 338.483125 353.156911 
L 360.305625 353.145728 
L 382.128125 353.136568 
L 403.950625 353.120229 
L 425.773125 353.101489 
L 447.595625 353.080114 
L 469.418125 353.061021 
L 491.240625 353.037195 
L 513.063125 353.006097 
L 534.885625 352.9652 
L 556.708125 352.916986 
L 578.530625 352.866072 
L 600.353125 352.821156 
L 622.175625 352.767258 
L 643.998125 352.684738 
L 665.820625 352.590416 
L 687.643125 352.476693 
L 709.465625 352.369351 
L 731.288125 352.273739 
L 753.110625 352.14423 
L 774.933125 351.952728 
L 796.755625 351.699324 
L 818.578125 351.495852 
L 840.400625 351.263245 
L 862.223125 350.643251 
L 884.045625 346.883913 
L 905.868125 315.713785 
L 927.690625 235.300953 
L 949.513125 100.152617 
" clip-path="url(#p6cb90b5a2c)" style="fill: none; stroke: #f0ad4e; stroke-linecap: square"/>
   </g>
   <g id="line2d_20">
    <path d="M 76.613125 353.208752 
L 98.435625 353.176602 
L 120.258125 353.095133 
L 142.080625 353.142565 
L 163.903125 353.162082 
L 185.725625 353.173335 
L 207.548125 353.175995 
L 229.370625 353.172782 
L 251.193125 353.174211 
L 273.015625 353.170157 
L 294.838125 353.162137 
L 316.660625 353.149733 
L 338.483125 353.137977 
L 360.305625 353.121913 
L 382.128125 353.114949 
L 403.950625 353.092612 
L 425.773125 353.069295 
L 447.595625 353.044388 
L 469.418125 353.016662 
L 491.240625 352.987482 
L 513.063125 352.951651 
L 534.885625 352.898625 
L 556.708125 352.840981 
L 578.530625 352.772269 
L 600.353125 352.71996 
L 622.175625 352.652683 
L 643.998125 352.560787 
L 665.820625 352.451946 
L 687.643125 352.304579 
L 709.465625 352.174173 
L 731.288125 352.054088 
L 753.110625 351.910183 
L 774.933125 351.676928 
L 796.755625 351.35913 
L 818.578125 351.110094 
L 840.400625 350.841791 
L 862.223125 350.161433 
L 884.045625 346.056073 
L 905.868125 312.218815 
L 927.690625 224.045804 
L 949.513125 77.965008 
" clip-path="url(#p6cb90b5a2c)" style="fill: none; stroke: #f0ad4e; stroke-linecap: square"/>
   </g>
   <g id="line2d_21">
    <path d="M 76.613125 353.210072 
L 98.435625 353.18261 
L 120.258125 353.111193 
L 142.080625 353.155277 
L 163.903125 353.172627 
L 185.725625 353.180837 
L 207.548125 353.183482 
L 229.370625 353.181838 
L 251.193125 353.180777 
L 273.015625 353.178535 
L 294.838125 353.173021 
L 316.660625 353.16386 
L 338.483125 353.157589 
L 360.305625 353.149818 
L 382.128125 353.139282 
L 403.950625 353.126157 
L 425.773125 353.109743 
L 447.595625 353.092563 
L 469.418125 353.077614 
L 491.240625 353.060513 
L 513.063125 353.032747 
L 534.885625 353.000921 
L 556.708125 352.965116 
L 578.530625 352.929161 
L 600.353125 352.894889 
L 622.175625 352.854536 
L 643.998125 352.796364 
L 665.820625 352.717629 
L 687.643125 352.642018 
L 709.465625 352.569106 
L 731.288125 352.487333 
L 753.110625 352.380245 
L 774.933125 352.230203 
L 796.755625 352.051712 
L 818.578125 351.898128 
L 840.400625 351.696679 
L 862.223125 350.976914 
L 884.045625 347.192331 
L 905.868125 314.059784 
L 927.690625 228.983167 
L 949.513125 64.091272 
" clip-path="url(#p6cb90b5a2c)" style="fill: none; stroke: #f0ad4e; stroke-linecap: square"/>
   </g>
   <g id="line2d_22">
    <path d="M 76.613125 353.211756 
L 98.435625 353.186525 
L 120.258125 353.124104 
L 142.080625 353.161235 
L 163.903125 353.176209 
L 185.725625 353.182396 
L 207.548125 353.182714 
L 229.370625 353.17718 
L 251.193125 353.175143 
L 273.015625 353.169051 
L 294.838125 353.159995 
L 316.660625 353.144936 
L 338.483125 353.133215 
L 360.305625 353.12125 
L 382.128125 353.10792 
L 403.950625 353.090211 
L 425.773125 353.064722 
L 447.595625 353.045006 
L 469.418125 353.03064 
L 491.240625 353.016428 
L 513.063125 352.990461 
L 534.885625 352.949599 
L 556.708125 352.912932 
L 578.530625 352.877534 
L 600.353125 352.856533 
L 622.175625 352.82257 
L 643.998125 352.770595 
L 665.820625 352.696997 
L 687.643125 352.62814 
L 709.465625 352.573121 
L 731.288125 352.498207 
L 753.110625 352.424379 
L 774.933125 352.27352 
L 796.755625 352.100265 
L 818.578125 351.974377 
L 840.400625 351.80834 
L 862.223125 351.191624 
L 884.045625 347.890801 
L 905.868125 319.796768 
L 927.690625 247.612225 
L 949.513125 121.079475 
" clip-path="url(#p6cb90b5a2c)" style="fill: none; stroke: #f0ad4e; stroke-linecap: square"/>
   </g>
   <g id="line2d_23">
    <path d="M 76.613125 353.209066 
L 98.435625 353.175751 
L 120.258125 353.092084 
L 142.080625 353.140159 
L 163.903125 353.161125 
L 185.725625 353.167671 
L 207.548125 353.167815 
L 229.370625 353.164224 
L 251.193125 353.164114 
L 273.015625 353.157813 
L 294.838125 353.13593 
L 316.660625 353.108652 
L 338.483125 353.090749 
L 360.305625 353.08124 
L 382.128125 353.057664 
L 403.950625 353.032862 
L 425.773125 353.000483 
L 447.595625 352.964379 
L 469.418125 352.934092 
L 491.240625 352.890386 
L 513.063125 352.845873 
L 534.885625 352.796548 
L 556.708125 352.734237 
L 578.530625 352.674252 
L 600.353125 352.619871 
L 622.175625 352.550516 
L 643.998125 352.461849 
L 665.820625 352.354999 
L 687.643125 352.235468 
L 709.465625 352.10947 
L 731.288125 351.971169 
L 753.110625 351.825102 
L 774.933125 351.610995 
L 796.755625 351.324834 
L 818.578125 351.086343 
L 840.400625 350.756556 
L 862.223125 350.033991 
L 884.045625 345.756482 
L 905.868125 309.412667 
L 927.690625 211.993151 
L 949.513125 50.396988 
" clip-path="url(#p6cb90b5a2c)" style="fill: none; stroke: #f0ad4e; stroke-linecap: square"/>
   </g>
   <g id="line2d_24">
    <path d="M 32.968125 353.2239 
L 993.158125 353.2239 
" clip-path="url(#p6cb90b5a2c)" style="fill: none; stroke: #dedede; stroke-width: 2; stroke-linecap: square"/>
   </g>
   <g id="text_20">
    <!-- FastQC: Sequence Length Distribution -->
    <g transform="translate(361.050625 19.3575) scale(0.16 -0.16)">
     <defs>
      <path id="DejaVuSans-46" d="M 628 4666 
L 3309 4666 
L 3309 4134 
L 1259 4134 
L 1259 2759 
L 3109 2759 
L 3109 2228 
L 1259 2228 
L 1259 0 
L 628 0 
L 628 4666 
z
" transform="scale(0.015625)"/>
      <path id="DejaVuSans-73" d="M 2834 3397 
L 2834 2853 
Q 2591 2978 2328 3040 
Q 2066 3103 1784 3103 
Q 1356 3103 1142 2972 
Q 928 2841 928 2578 
Q 928 2378 1081 2264 
Q 1234 2150 1697 2047 
L 1894 2003 
Q 2506 1872 2764 1633 
Q 3022 1394 3022 966 
Q 3022 478 2636 193 
Q 2250 -91 1575 -91 
Q 1294 -91 989 -36 
Q 684 19 347 128 
L 347 722 
Q 666 556 975 473 
Q 1284 391 1588 391 
Q 1994 391 2212 530 
Q 2431 669 2431 922 
Q 2431 1156 2273 1281 
Q 2116 1406 1581 1522 
L 1381 1569 
Q 847 1681 609 1914 
Q 372 2147 372 2553 
Q 372 3047 722 3315 
Q 1072 3584 1716 3584 
Q 2034 3584 2315 3537 
Q 2597 3491 2834 3397 
z
" transform="scale(0.015625)"/>
      <path id="DejaVuSans-51" d="M 2522 4238 
Q 1834 4238 1429 3725 
Q 1025 3213 1025 2328 
Q 1025 1447 1429 934 
Q 1834 422 2522 422 
Q 3209 422 3611 934 
Q 4013 1447 4013 2328 
Q 4013 3213 3611 3725 
Q 3209 4238 2522 4238 
z
M 3406 84 
L 4238 -825 
L 3475 -825 
L 2784 -78 
Q 2681 -84 2626 -87 
Q 2572 -91 2522 -91 
Q 1538 -91 948 567 
Q 359 1225 359 2328 
Q 359 3434 948 4092 
Q 1538 4750 2522 4750 
Q 3503 4750 4090 4092 
Q 4678 3434 4678 2328 
Q 4678 1516 4351 937 
Q 4025 359 3406 84 
z
" transform="scale(0.015625)"/>
      <path id="DejaVuSans-3a" d="M 750 794 
L 1409 794 
L 1409 0 
L 750 0 
L 750 794 
z
M 750 3309 
L 1409 3309 
L 1409 2516 
L 750 2516 
L 750 3309 
z
" transform="scale(0.015625)"/>
      <path id="DejaVuSans-44" d="M 1259 4147 
L 1259 519 
L 2022 519 
Q 2988 519 3436 956 
Q 3884 1394 3884 2338 
Q 3884 3275 3436 3711 
Q 2988 4147 2022 4147 
L 1259 4147 
z
M 628 4666 
L 1925 4666 
Q 3281 4666 3915 4102 
Q 4550 3538 4550 2338 
Q 4550 1131 3912 565 
Q 3275 0 1925 0 
L 628 0 
L 628 4666 
z
" transform="scale(0.015625)"/>
      <path id="DejaVuSans-69" d="M 603 3500 
L 1178 3500 
L 1178 0 
L 603 0 
L 603 3500 
z
M 603 4863 
L 1178 4863 
L 1178 4134 
L 603 4134 
L 603 4863 
z
" transform="scale(0.015625)"/>
      <path id="DejaVuSans-72" d="M 2631 2963 
Q 2534 3019 2420 3045 
Q 2306 3072 2169 3072 
Q 1681 3072 1420 2755 
Q 1159 2438 1159 1844 
L 1159 0 
L 581 0 
L 581 3500 
L 1159 3500 
L 1159 2956 
Q 1341 3275 1631 3429 
Q 1922 3584 2338 3584 
Q 2397 3584 2469 3576 
Q 2541 3569 2628 3553 
L 2631 2963 
z
" transform="scale(0.015625)"/>
     </defs>
     <use xlink:href="#DejaVuSans-46"/>
     <use xlink:href="#DejaVuSans-61" x="48.394531"/>
     <use xlink:href="#DejaVuSans-73" x="109.673828"/>
     <use xlink:href="#DejaVuSans-74" x="161.773438"/>
     <use xlink:href="#DejaVuSans-51" x="200.982422"/>
     <use xlink:href="#DejaVuSans-43" x="279.693359"/>
     <use xlink:href="#DejaVuSans-3a" x="349.517578"/>
     <use xlink:href="#DejaVuSans-20" x="383.208984"/>
     <use xlink:href="#DejaVuSans-53" x="414.996094"/>
     <use xlink:href="#DejaVuSans-65" x="478.472656"/>
     <use xlink:href="#DejaVuSans-71" x="539.996094"/>
     <use xlink:href="#DejaVuSans-75" x="603.472656"/>
     <use xlink:href="#DejaVuSans-65" x="666.851562"/>
     <use xlink:href="#DejaVuSans-6e" x="728.375"/>
     <use xlink:href="#DejaVuSans-63" x="791.753906"/>
     <use xlink:href="#DejaVuSans-65" x="846.734375"/>
     <use xlink:href="#DejaVuSans-20" x="908.257812"/>
     <use xlink:href="#DejaVuSans-4c" x="940.044922"/>
     <use xlink:href="#DejaVuSans-65" x="994.007812"/>
     <use xlink:href="#DejaVuSans-6e" x="1055.53125"/>
     <use xlink:href="#DejaVuSans-67" x="1118.910156"/>
     <use xlink:href="#DejaVuSans-74" x="1182.386719"/>
     <use xlink:href="#DejaVuSans-68" x="1221.595703"/>
     <use xlink:href="#DejaVuSans-20" x="1284.974609"/>
     <use xlink:href="#DejaVuSans-44" x="1316.761719"/>
     <use xlink:href="#DejaVuSans-69" x="1393.763672"/>
     <use xlink:href="#DejaVuSans-73" x="1421.546875"/>
     <use xlink:href="#DejaVuSans-74" x="1473.646484"/>
     <use xlink:href="#DejaVuSans-72" x="1512.855469"/>
     <use xlink:href="#DejaVuSans-69" x="1553.96875"/>
     <use xlink:href="#DejaVuSans-62" x="1581.751953"/>
     <use xlink:href="#DejaVuSans-75" x="1645.228516"/>
     <use xlink:href="#DejaVuSans-74" x="1708.607422"/>
     <use xlink:href="#DejaVuSans-69" x="1747.816406"/>
     <use xlink:href="#DejaVuSans-6f" x="1775.599609"/>
     <use xlink:href="#DejaVuSans-6e" x="1836.78125"/>
    </g>
   </g>
  </g>
 </g>
 <defs>
  <clipPath id="p6cb90b5a2c">
   <rect x="32.968125" y="35.2559" width="960.19" height="317.968"/>
  </clipPath>
 </defs>
</svg>
