<?xml version="1.0" encoding="utf-8" standalone="no"?>
<!DOCTYPE svg PUBLIC "-//W3C//DTD SVG 1.1//EN"
  "http://www.w3.org/Graphics/SVG/1.1/DTD/svg11.dtd">
<svg xmlns:xlink="http://www.w3.org/1999/xlink" width="1000.358125pt" height="388.844525pt" viewBox="0 0 1000.358125 388.844525" xmlns="http://www.w3.org/2000/svg" version="1.1">
 <metadata>
  <rdf:RDF xmlns:dc="http://purl.org/dc/elements/1.1/" xmlns:cc="http://creativecommons.org/ns#" xmlns:rdf="http://www.w3.org/1999/02/22-rdf-syntax-ns#">
   <cc:Work>
    <dc:type rdf:resource="http://purl.org/dc/dcmitype/StillImage"/>
    <dc:date>2024-09-05T13:39:11.333342</dc:date>
    <dc:format>image/svg+xml</dc:format>
    <dc:creator>
     <cc:Agent>
      <dc:title>Matplotlib v3.8.2, https://matplotlib.org/</dc:title>
     </cc:Agent>
    </dc:creator>
   </cc:Work>
  </rdf:RDF>
 </metadata>
 <defs>
  <style type="text/css">*{stroke-linejoin: round; stroke-linecap: butt}</style>
 </defs>
 <g id="figure_1">
  <g id="axes_1">
   <g id="patch_1">
    <path d="M 32.968125 353.2239 
L 993.158125 353.2239 
L 993.158125 35.2559 
L 32.968125 35.2559 
z
" style="fill: #ffffff"/>
   </g>
   <g id="patch_2">
    <path d="M 674.62254 353.2239 
L 2324.591037 353.2239 
L 2324.591037 35.2559 
L 674.62254 35.2559 
z
" clip-path="url(#p81ef9cc7b5)" style="fill: #c3e6c3"/>
   </g>
   <g id="patch_3">
    <path d="M 491.292707 353.2239 
L 674.62254 353.2239 
L 674.62254 35.2559 
L 491.292707 35.2559 
z
" clip-path="url(#p81ef9cc7b5)" style="fill: #e6dcc3"/>
   </g>
   <g id="patch_4">
    <path d="M 32.968125 353.2239 
L 491.292707 353.2239 
L 491.292707 35.2559 
L 32.968125 35.2559 
z
" clip-path="url(#p81ef9cc7b5)" style="fill: #e6c3c3"/>
   </g>
   <g id="matplotlib.axis_1">
    <g id="xtick_1">
     <g id="text_1">
      <!-- 0 -->
      <g transform="translate(30.423125 366.30265) scale(0.08 -0.08)">
       <defs>
        <path id="DejaVuSans-30" d="M 2034 4250 
Q 1547 4250 1301 3770 
Q 1056 3291 1056 2328 
Q 1056 1369 1301 889 
Q 1547 409 2034 409 
Q 2525 409 2770 889 
Q 3016 1369 3016 2328 
Q 3016 3291 2770 3770 
Q 2525 4250 2034 4250 
z
M 2034 4750 
Q 2819 4750 3233 4129 
Q 3647 3509 3647 2328 
Q 3647 1150 3233 529 
Q 2819 -91 2034 -91 
Q 1250 -91 836 529 
Q 422 1150 422 2328 
Q 422 3509 836 4129 
Q 1250 4750 2034 4750 
z
" transform="scale(0.015625)"/>
       </defs>
       <use xlink:href="#DejaVuSans-30"/>
      </g>
     </g>
    </g>
    <g id="xtick_2">
     <g id="text_2">
      <!-- 5 -->
      <g transform="translate(145.004271 366.30265) scale(0.08 -0.08)">
       <defs>
        <path id="DejaVuSans-35" d="M 691 4666 
L 3169 4666 
L 3169 4134 
L 1269 4134 
L 1269 2991 
Q 1406 3038 1543 3061 
Q 1681 3084 1819 3084 
Q 2600 3084 3056 2656 
Q 3513 2228 3513 1497 
Q 3513 744 3044 326 
Q 2575 -91 1722 -91 
Q 1428 -91 1123 -41 
Q 819 9 494 109 
L 494 744 
Q 775 591 1075 516 
Q 1375 441 1709 441 
Q 2250 441 2565 725 
Q 2881 1009 2881 1497 
Q 2881 1984 2565 2268 
Q 2250 2553 1709 2553 
Q 1456 2553 1204 2497 
Q 953 2441 691 2322 
L 691 4666 
z
" transform="scale(0.015625)"/>
       </defs>
       <use xlink:href="#DejaVuSans-35"/>
      </g>
     </g>
    </g>
    <g id="xtick_3">
     <g id="text_3">
      <!-- 10 -->
      <g transform="translate(257.040416 366.30265) scale(0.08 -0.08)">
       <defs>
        <path id="DejaVuSans-31" d="M 794 531 
L 1825 531 
L 1825 4091 
L 703 3866 
L 703 4441 
L 1819 4666 
L 2450 4666 
L 2450 531 
L 3481 531 
L 3481 0 
L 794 0 
L 794 531 
z
" transform="scale(0.015625)"/>
       </defs>
       <use xlink:href="#DejaVuSans-31"/>
       <use xlink:href="#DejaVuSans-30" x="63.623047"/>
      </g>
     </g>
    </g>
    <g id="xtick_4">
     <g id="text_4">
      <!-- 15 -->
      <g transform="translate(371.621562 366.30265) scale(0.08 -0.08)">
       <use xlink:href="#DejaVuSans-31"/>
       <use xlink:href="#DejaVuSans-35" x="63.623047"/>
      </g>
     </g>
    </g>
    <g id="xtick_5">
     <g id="text_5">
      <!-- 20 -->
      <g transform="translate(486.202707 366.30265) scale(0.08 -0.08)">
       <defs>
        <path id="DejaVuSans-32" d="M 1228 531 
L 3431 531 
L 3431 0 
L 469 0 
L 469 531 
Q 828 903 1448 1529 
Q 2069 2156 2228 2338 
Q 2531 2678 2651 2914 
Q 2772 3150 2772 3378 
Q 2772 3750 2511 3984 
Q 2250 4219 1831 4219 
Q 1534 4219 1204 4116 
Q 875 4013 500 3803 
L 500 4441 
Q 881 4594 1212 4672 
Q 1544 4750 1819 4750 
Q 2544 4750 2975 4387 
Q 3406 4025 3406 3419 
Q 3406 3131 3298 2873 
Q 3191 2616 2906 2266 
Q 2828 2175 2409 1742 
Q 1991 1309 1228 531 
z
" transform="scale(0.015625)"/>
       </defs>
       <use xlink:href="#DejaVuSans-32"/>
       <use xlink:href="#DejaVuSans-30" x="63.623047"/>
      </g>
     </g>
    </g>
    <g id="xtick_6">
     <g id="text_6">
      <!-- 25 -->
      <g transform="translate(600.783853 366.30265) scale(0.08 -0.08)">
       <use xlink:href="#DejaVuSans-32"/>
       <use xlink:href="#DejaVuSans-35" x="63.623047"/>
      </g>
     </g>
    </g>
    <g id="xtick_7">
     <g id="text_7">
      <!-- 30 -->
      <g transform="translate(715.364999 366.30265) scale(0.08 -0.08)">
       <defs>
        <path id="DejaVuSans-33" d="M 2597 2516 
Q 3050 2419 3304 2112 
Q 3559 1806 3559 1356 
Q 3559 666 3084 287 
Q 2609 -91 1734 -91 
Q 1441 -91 1130 -33 
Q 819 25 488 141 
L 488 750 
Q 750 597 1062 519 
Q 1375 441 1716 441 
Q 2309 441 2620 675 
Q 2931 909 2931 1356 
Q 2931 1769 2642 2001 
Q 2353 2234 1838 2234 
L 1294 2234 
L 1294 2753 
L 1863 2753 
Q 2328 2753 2575 2939 
Q 2822 3125 2822 3475 
Q 2822 3834 2567 4026 
Q 2313 4219 1838 4219 
Q 1578 4219 1281 4162 
Q 984 4106 628 3988 
L 628 4550 
Q 988 4650 1302 4700 
Q 1616 4750 1894 4750 
Q 2613 4750 3031 4423 
Q 3450 4097 3450 3541 
Q 3450 3153 3228 2886 
Q 3006 2619 2597 2516 
z
" transform="scale(0.015625)"/>
       </defs>
       <use xlink:href="#DejaVuSans-33"/>
       <use xlink:href="#DejaVuSans-30" x="63.623047"/>
      </g>
     </g>
    </g>
    <g id="xtick_8">
     <g id="text_8">
      <!-- 35 -->
      <g transform="translate(829.946144 366.30265) scale(0.08 -0.08)">
       <use xlink:href="#DejaVuSans-33"/>
       <use xlink:href="#DejaVuSans-35" x="63.623047"/>
      </g>
     </g>
    </g>
    <g id="xtick_9">
     <g id="text_9">
      <!-- 40 -->
      <g transform="translate(944.52729 366.30265) scale(0.08 -0.08)">
       <defs>
        <path id="DejaVuSans-34" d="M 2419 4116 
L 825 1625 
L 2419 1625 
L 2419 4116 
z
M 2253 4666 
L 3047 4666 
L 3047 1625 
L 3713 1625 
L 3713 1100 
L 3047 1100 
L 3047 0 
L 2419 0 
L 2419 1100 
L 313 1100 
L 313 1709 
L 2253 4666 
z
" transform="scale(0.015625)"/>
       </defs>
       <use xlink:href="#DejaVuSans-34"/>
       <use xlink:href="#DejaVuSans-30" x="63.623047"/>
      </g>
     </g>
    </g>
    <g id="text_10">
     <!-- Mean Sequence Quality (Phred Score) -->
     <g transform="translate(418.270938 379.564837) scale(0.1 -0.1)">
      <defs>
       <path id="DejaVuSans-4d" d="M 628 4666 
L 1569 4666 
L 2759 1491 
L 3956 4666 
L 4897 4666 
L 4897 0 
L 4281 0 
L 4281 4097 
L 3078 897 
L 2444 897 
L 1241 4097 
L 1241 0 
L 628 0 
L 628 4666 
z
" transform="scale(0.015625)"/>
       <path id="DejaVuSans-65" d="M 3597 1894 
L 3597 1613 
L 953 1613 
Q 991 1019 1311 708 
Q 1631 397 2203 397 
Q 2534 397 2845 478 
Q 3156 559 3463 722 
L 3463 178 
Q 3153 47 2828 -22 
Q 2503 -91 2169 -91 
Q 1331 -91 842 396 
Q 353 884 353 1716 
Q 353 2575 817 3079 
Q 1281 3584 2069 3584 
Q 2775 3584 3186 3129 
Q 3597 2675 3597 1894 
z
M 3022 2063 
Q 3016 2534 2758 2815 
Q 2500 3097 2075 3097 
Q 1594 3097 1305 2825 
Q 1016 2553 972 2059 
L 3022 2063 
z
" transform="scale(0.015625)"/>
       <path id="DejaVuSans-61" d="M 2194 1759 
Q 1497 1759 1228 1600 
Q 959 1441 959 1056 
Q 959 750 1161 570 
Q 1363 391 1709 391 
Q 2188 391 2477 730 
Q 2766 1069 2766 1631 
L 2766 1759 
L 2194 1759 
z
M 3341 1997 
L 3341 0 
L 2766 0 
L 2766 531 
Q 2569 213 2275 61 
Q 1981 -91 1556 -91 
Q 1019 -91 701 211 
Q 384 513 384 1019 
Q 384 1609 779 1909 
Q 1175 2209 1959 2209 
L 2766 2209 
L 2766 2266 
Q 2766 2663 2505 2880 
Q 2244 3097 1772 3097 
Q 1472 3097 1187 3025 
Q 903 2953 641 2809 
L 641 3341 
Q 956 3463 1253 3523 
Q 1550 3584 1831 3584 
Q 2591 3584 2966 3190 
Q 3341 2797 3341 1997 
z
" transform="scale(0.015625)"/>
       <path id="DejaVuSans-6e" d="M 3513 2113 
L 3513 0 
L 2938 0 
L 2938 2094 
Q 2938 2591 2744 2837 
Q 2550 3084 2163 3084 
Q 1697 3084 1428 2787 
Q 1159 2491 1159 1978 
L 1159 0 
L 581 0 
L 581 3500 
L 1159 3500 
L 1159 2956 
Q 1366 3272 1645 3428 
Q 1925 3584 2291 3584 
Q 2894 3584 3203 3211 
Q 3513 2838 3513 2113 
z
" transform="scale(0.015625)"/>
       <path id="DejaVuSans-20" transform="scale(0.015625)"/>
       <path id="DejaVuSans-53" d="M 3425 4513 
L 3425 3897 
Q 3066 4069 2747 4153 
Q 2428 4238 2131 4238 
Q 1616 4238 1336 4038 
Q 1056 3838 1056 3469 
Q 1056 3159 1242 3001 
Q 1428 2844 1947 2747 
L 2328 2669 
Q 3034 2534 3370 2195 
Q 3706 1856 3706 1288 
Q 3706 609 3251 259 
Q 2797 -91 1919 -91 
Q 1588 -91 1214 -16 
Q 841 59 441 206 
L 441 856 
Q 825 641 1194 531 
Q 1563 422 1919 422 
Q 2459 422 2753 634 
Q 3047 847 3047 1241 
Q 3047 1584 2836 1778 
Q 2625 1972 2144 2069 
L 1759 2144 
Q 1053 2284 737 2584 
Q 422 2884 422 3419 
Q 422 4038 858 4394 
Q 1294 4750 2059 4750 
Q 2388 4750 2728 4690 
Q 3069 4631 3425 4513 
z
" transform="scale(0.015625)"/>
       <path id="DejaVuSans-71" d="M 947 1747 
Q 947 1113 1208 752 
Q 1469 391 1925 391 
Q 2381 391 2643 752 
Q 2906 1113 2906 1747 
Q 2906 2381 2643 2742 
Q 2381 3103 1925 3103 
Q 1469 3103 1208 2742 
Q 947 2381 947 1747 
z
M 2906 525 
Q 2725 213 2448 61 
Q 2172 -91 1784 -91 
Q 1150 -91 751 415 
Q 353 922 353 1747 
Q 353 2572 751 3078 
Q 1150 3584 1784 3584 
Q 2172 3584 2448 3432 
Q 2725 3281 2906 2969 
L 2906 3500 
L 3481 3500 
L 3481 -1331 
L 2906 -1331 
L 2906 525 
z
" transform="scale(0.015625)"/>
       <path id="DejaVuSans-75" d="M 544 1381 
L 544 3500 
L 1119 3500 
L 1119 1403 
Q 1119 906 1312 657 
Q 1506 409 1894 409 
Q 2359 409 2629 706 
Q 2900 1003 2900 1516 
L 2900 3500 
L 3475 3500 
L 3475 0 
L 2900 0 
L 2900 538 
Q 2691 219 2414 64 
Q 2138 -91 1772 -91 
Q 1169 -91 856 284 
Q 544 659 544 1381 
z
M 1991 3584 
L 1991 3584 
z
" transform="scale(0.015625)"/>
       <path id="DejaVuSans-63" d="M 3122 3366 
L 3122 2828 
Q 2878 2963 2633 3030 
Q 2388 3097 2138 3097 
Q 1578 3097 1268 2742 
Q 959 2388 959 1747 
Q 959 1106 1268 751 
Q 1578 397 2138 397 
Q 2388 397 2633 464 
Q 2878 531 3122 666 
L 3122 134 
Q 2881 22 2623 -34 
Q 2366 -91 2075 -91 
Q 1284 -91 818 406 
Q 353 903 353 1747 
Q 353 2603 823 3093 
Q 1294 3584 2113 3584 
Q 2378 3584 2631 3529 
Q 2884 3475 3122 3366 
z
" transform="scale(0.015625)"/>
       <path id="DejaVuSans-51" d="M 2522 4238 
Q 1834 4238 1429 3725 
Q 1025 3213 1025 2328 
Q 1025 1447 1429 934 
Q 1834 422 2522 422 
Q 3209 422 3611 934 
Q 4013 1447 4013 2328 
Q 4013 3213 3611 3725 
Q 3209 4238 2522 4238 
z
M 3406 84 
L 4238 -825 
L 3475 -825 
L 2784 -78 
Q 2681 -84 2626 -87 
Q 2572 -91 2522 -91 
Q 1538 -91 948 567 
Q 359 1225 359 2328 
Q 359 3434 948 4092 
Q 1538 4750 2522 4750 
Q 3503 4750 4090 4092 
Q 4678 3434 4678 2328 
Q 4678 1516 4351 937 
Q 4025 359 3406 84 
z
" transform="scale(0.015625)"/>
       <path id="DejaVuSans-6c" d="M 603 4863 
L 1178 4863 
L 1178 0 
L 603 0 
L 603 4863 
z
" transform="scale(0.015625)"/>
       <path id="DejaVuSans-69" d="M 603 3500 
L 1178 3500 
L 1178 0 
L 603 0 
L 603 3500 
z
M 603 4863 
L 1178 4863 
L 1178 4134 
L 603 4134 
L 603 4863 
z
" transform="scale(0.015625)"/>
       <path id="DejaVuSans-74" d="M 1172 4494 
L 1172 3500 
L 2356 3500 
L 2356 3053 
L 1172 3053 
L 1172 1153 
Q 1172 725 1289 603 
Q 1406 481 1766 481 
L 2356 481 
L 2356 0 
L 1766 0 
Q 1100 0 847 248 
Q 594 497 594 1153 
L 594 3053 
L 172 3053 
L 172 3500 
L 594 3500 
L 594 4494 
L 1172 4494 
z
" transform="scale(0.015625)"/>
       <path id="DejaVuSans-79" d="M 2059 -325 
Q 1816 -950 1584 -1140 
Q 1353 -1331 966 -1331 
L 506 -1331 
L 506 -850 
L 844 -850 
Q 1081 -850 1212 -737 
Q 1344 -625 1503 -206 
L 1606 56 
L 191 3500 
L 800 3500 
L 1894 763 
L 2988 3500 
L 3597 3500 
L 2059 -325 
z
" transform="scale(0.015625)"/>
       <path id="DejaVuSans-28" d="M 1984 4856 
Q 1566 4138 1362 3434 
Q 1159 2731 1159 2009 
Q 1159 1288 1364 580 
Q 1569 -128 1984 -844 
L 1484 -844 
Q 1016 -109 783 600 
Q 550 1309 550 2009 
Q 550 2706 781 3412 
Q 1013 4119 1484 4856 
L 1984 4856 
z
" transform="scale(0.015625)"/>
       <path id="DejaVuSans-50" d="M 1259 4147 
L 1259 2394 
L 2053 2394 
Q 2494 2394 2734 2622 
Q 2975 2850 2975 3272 
Q 2975 3691 2734 3919 
Q 2494 4147 2053 4147 
L 1259 4147 
z
M 628 4666 
L 2053 4666 
Q 2838 4666 3239 4311 
Q 3641 3956 3641 3272 
Q 3641 2581 3239 2228 
Q 2838 1875 2053 1875 
L 1259 1875 
L 1259 0 
L 628 0 
L 628 4666 
z
" transform="scale(0.015625)"/>
       <path id="DejaVuSans-68" d="M 3513 2113 
L 3513 0 
L 2938 0 
L 2938 2094 
Q 2938 2591 2744 2837 
Q 2550 3084 2163 3084 
Q 1697 3084 1428 2787 
Q 1159 2491 1159 1978 
L 1159 0 
L 581 0 
L 581 4863 
L 1159 4863 
L 1159 2956 
Q 1366 3272 1645 3428 
Q 1925 3584 2291 3584 
Q 2894 3584 3203 3211 
Q 3513 2838 3513 2113 
z
" transform="scale(0.015625)"/>
       <path id="DejaVuSans-72" d="M 2631 2963 
Q 2534 3019 2420 3045 
Q 2306 3072 2169 3072 
Q 1681 3072 1420 2755 
Q 1159 2438 1159 1844 
L 1159 0 
L 581 0 
L 581 3500 
L 1159 3500 
L 1159 2956 
Q 1341 3275 1631 3429 
Q 1922 3584 2338 3584 
Q 2397 3584 2469 3576 
Q 2541 3569 2628 3553 
L 2631 2963 
z
" transform="scale(0.015625)"/>
       <path id="DejaVuSans-64" d="M 2906 2969 
L 2906 4863 
L 3481 4863 
L 3481 0 
L 2906 0 
L 2906 525 
Q 2725 213 2448 61 
Q 2172 -91 1784 -91 
Q 1150 -91 751 415 
Q 353 922 353 1747 
Q 353 2572 751 3078 
Q 1150 3584 1784 3584 
Q 2172 3584 2448 3432 
Q 2725 3281 2906 2969 
z
M 947 1747 
Q 947 1113 1208 752 
Q 1469 391 1925 391 
Q 2381 391 2643 752 
Q 2906 1113 2906 1747 
Q 2906 2381 2643 2742 
Q 2381 3103 1925 3103 
Q 1469 3103 1208 2742 
Q 947 2381 947 1747 
z
" transform="scale(0.015625)"/>
       <path id="DejaVuSans-6f" d="M 1959 3097 
Q 1497 3097 1228 2736 
Q 959 2375 959 1747 
Q 959 1119 1226 758 
Q 1494 397 1959 397 
Q 2419 397 2687 759 
Q 2956 1122 2956 1747 
Q 2956 2369 2687 2733 
Q 2419 3097 1959 3097 
z
M 1959 3584 
Q 2709 3584 3137 3096 
Q 3566 2609 3566 1747 
Q 3566 888 3137 398 
Q 2709 -91 1959 -91 
Q 1206 -91 779 398 
Q 353 888 353 1747 
Q 353 2609 779 3096 
Q 1206 3584 1959 3584 
z
" transform="scale(0.015625)"/>
       <path id="DejaVuSans-29" d="M 513 4856 
L 1013 4856 
Q 1481 4119 1714 3412 
Q 1947 2706 1947 2009 
Q 1947 1309 1714 600 
Q 1481 -109 1013 -844 
L 513 -844 
Q 928 -128 1133 580 
Q 1338 1288 1338 2009 
Q 1338 2731 1133 3434 
Q 928 4138 513 4856 
z
" transform="scale(0.015625)"/>
      </defs>
      <use xlink:href="#DejaVuSans-4d"/>
      <use xlink:href="#DejaVuSans-65" x="86.279297"/>
      <use xlink:href="#DejaVuSans-61" x="147.802734"/>
      <use xlink:href="#DejaVuSans-6e" x="209.082031"/>
      <use xlink:href="#DejaVuSans-20" x="272.460938"/>
      <use xlink:href="#DejaVuSans-53" x="304.248047"/>
      <use xlink:href="#DejaVuSans-65" x="367.724609"/>
      <use xlink:href="#DejaVuSans-71" x="429.248047"/>
      <use xlink:href="#DejaVuSans-75" x="492.724609"/>
      <use xlink:href="#DejaVuSans-65" x="556.103516"/>
      <use xlink:href="#DejaVuSans-6e" x="617.626953"/>
      <use xlink:href="#DejaVuSans-63" x="681.005859"/>
      <use xlink:href="#DejaVuSans-65" x="735.986328"/>
      <use xlink:href="#DejaVuSans-20" x="797.509766"/>
      <use xlink:href="#DejaVuSans-51" x="829.296875"/>
      <use xlink:href="#DejaVuSans-75" x="908.007812"/>
      <use xlink:href="#DejaVuSans-61" x="971.386719"/>
      <use xlink:href="#DejaVuSans-6c" x="1032.666016"/>
      <use xlink:href="#DejaVuSans-69" x="1060.449219"/>
      <use xlink:href="#DejaVuSans-74" x="1088.232422"/>
      <use xlink:href="#DejaVuSans-79" x="1127.441406"/>
      <use xlink:href="#DejaVuSans-20" x="1186.621094"/>
      <use xlink:href="#DejaVuSans-28" x="1218.408203"/>
      <use xlink:href="#DejaVuSans-50" x="1257.421875"/>
      <use xlink:href="#DejaVuSans-68" x="1317.724609"/>
      <use xlink:href="#DejaVuSans-72" x="1381.103516"/>
      <use xlink:href="#DejaVuSans-65" x="1419.966797"/>
      <use xlink:href="#DejaVuSans-64" x="1481.490234"/>
      <use xlink:href="#DejaVuSans-20" x="1544.966797"/>
      <use xlink:href="#DejaVuSans-53" x="1576.753906"/>
      <use xlink:href="#DejaVuSans-63" x="1640.230469"/>
      <use xlink:href="#DejaVuSans-6f" x="1695.210938"/>
      <use xlink:href="#DejaVuSans-72" x="1756.392578"/>
      <use xlink:href="#DejaVuSans-65" x="1795.255859"/>
      <use xlink:href="#DejaVuSans-29" x="1856.779297"/>
     </g>
    </g>
   </g>
   <g id="matplotlib.axis_2">
    <g id="ytick_1">
     <g id="line2d_1">
      <path d="M 32.968125 353.2239 
L 993.158125 353.2239 
" clip-path="url(#p81ef9cc7b5)" style="fill: none; stroke: #dedede; stroke-linecap: square"/>
     </g>
     <g id="text_11">
      <!-- 0 -->
      <g transform="translate(20.878125 356.263275) scale(0.08 -0.08)">
       <use xlink:href="#DejaVuSans-30"/>
      </g>
     </g>
    </g>
    <g id="ytick_2">
     <g id="line2d_2">
      <path d="M 32.968125 306.619541 
L 993.158125 306.619541 
" clip-path="url(#p81ef9cc7b5)" style="fill: none; stroke: #dedede; stroke-linecap: square"/>
     </g>
     <g id="text_12">
      <!-- 1 -->
      <g transform="translate(20.878125 309.658916) scale(0.08 -0.08)">
       <use xlink:href="#DejaVuSans-31"/>
      </g>
     </g>
    </g>
    <g id="ytick_3">
     <g id="line2d_3">
      <path d="M 32.968125 260.015182 
L 993.158125 260.015182 
" clip-path="url(#p81ef9cc7b5)" style="fill: none; stroke: #dedede; stroke-linecap: square"/>
     </g>
     <g id="text_13">
      <!-- 2 -->
      <g transform="translate(20.878125 263.054557) scale(0.08 -0.08)">
       <use xlink:href="#DejaVuSans-32"/>
      </g>
     </g>
    </g>
    <g id="ytick_4">
     <g id="line2d_4">
      <path d="M 32.968125 213.410823 
L 993.158125 213.410823 
" clip-path="url(#p81ef9cc7b5)" style="fill: none; stroke: #dedede; stroke-linecap: square"/>
     </g>
     <g id="text_14">
      <!-- 3 -->
      <g transform="translate(20.878125 216.450198) scale(0.08 -0.08)">
       <use xlink:href="#DejaVuSans-33"/>
      </g>
     </g>
    </g>
    <g id="ytick_5">
     <g id="line2d_5">
      <path d="M 32.968125 166.806464 
L 993.158125 166.806464 
" clip-path="url(#p81ef9cc7b5)" style="fill: none; stroke: #dedede; stroke-linecap: square"/>
     </g>
     <g id="text_15">
      <!-- 4 -->
      <g transform="translate(20.878125 169.845839) scale(0.08 -0.08)">
       <use xlink:href="#DejaVuSans-34"/>
      </g>
     </g>
    </g>
    <g id="ytick_6">
     <g id="line2d_6">
      <path d="M 32.968125 120.202105 
L 993.158125 120.202105 
" clip-path="url(#p81ef9cc7b5)" style="fill: none; stroke: #dedede; stroke-linecap: square"/>
     </g>
     <g id="text_16">
      <!-- 5 -->
      <g transform="translate(20.878125 123.24148) scale(0.08 -0.08)">
       <use xlink:href="#DejaVuSans-35"/>
      </g>
     </g>
    </g>
    <g id="ytick_7">
     <g id="line2d_7">
      <path d="M 32.968125 73.597745 
L 993.158125 73.597745 
" clip-path="url(#p81ef9cc7b5)" style="fill: none; stroke: #dedede; stroke-linecap: square"/>
     </g>
     <g id="text_17">
      <!-- 6 -->
      <g transform="translate(20.878125 76.63712) scale(0.08 -0.08)">
       <defs>
        <path id="DejaVuSans-36" d="M 2113 2584 
Q 1688 2584 1439 2293 
Q 1191 2003 1191 1497 
Q 1191 994 1439 701 
Q 1688 409 2113 409 
Q 2538 409 2786 701 
Q 3034 994 3034 1497 
Q 3034 2003 2786 2293 
Q 2538 2584 2113 2584 
z
M 3366 4563 
L 3366 3988 
Q 3128 4100 2886 4159 
Q 2644 4219 2406 4219 
Q 1781 4219 1451 3797 
Q 1122 3375 1075 2522 
Q 1259 2794 1537 2939 
Q 1816 3084 2150 3084 
Q 2853 3084 3261 2657 
Q 3669 2231 3669 1497 
Q 3669 778 3244 343 
Q 2819 -91 2113 -91 
Q 1303 -91 875 529 
Q 447 1150 447 2328 
Q 447 3434 972 4092 
Q 1497 4750 2381 4750 
Q 2619 4750 2861 4703 
Q 3103 4656 3366 4563 
z
" transform="scale(0.015625)"/>
       </defs>
       <use xlink:href="#DejaVuSans-36"/>
      </g>
     </g>
    </g>
    <g id="text_18">
     <!-- Count -->
     <g transform="translate(14.798437 209.088338) rotate(-90) scale(0.1 -0.1)">
      <defs>
       <path id="DejaVuSans-43" d="M 4122 4306 
L 4122 3641 
Q 3803 3938 3442 4084 
Q 3081 4231 2675 4231 
Q 1875 4231 1450 3742 
Q 1025 3253 1025 2328 
Q 1025 1406 1450 917 
Q 1875 428 2675 428 
Q 3081 428 3442 575 
Q 3803 722 4122 1019 
L 4122 359 
Q 3791 134 3420 21 
Q 3050 -91 2638 -91 
Q 1578 -91 968 557 
Q 359 1206 359 2328 
Q 359 3453 968 4101 
Q 1578 4750 2638 4750 
Q 3056 4750 3426 4639 
Q 3797 4528 4122 4306 
z
" transform="scale(0.015625)"/>
      </defs>
      <use xlink:href="#DejaVuSans-43"/>
      <use xlink:href="#DejaVuSans-6f" x="69.824219"/>
      <use xlink:href="#DejaVuSans-75" x="131.005859"/>
      <use xlink:href="#DejaVuSans-6e" x="194.384766"/>
      <use xlink:href="#DejaVuSans-74" x="257.763672"/>
     </g>
    </g>
    <g id="text_19">
     <!-- 1e7 -->
     <g transform="translate(32.968125 32.2559) scale(0.1 -0.1)">
      <defs>
       <path id="DejaVuSans-37" d="M 525 4666 
L 3525 4666 
L 3525 4397 
L 1831 0 
L 1172 0 
L 2766 4134 
L 525 4134 
L 525 4666 
z
" transform="scale(0.015625)"/>
      </defs>
      <use xlink:href="#DejaVuSans-31"/>
      <use xlink:href="#DejaVuSans-65" x="63.623047"/>
      <use xlink:href="#DejaVuSans-37" x="125.146484"/>
     </g>
    </g>
   </g>
   <g id="line2d_8">
    <path d="M 78.800583 313.035712 
L 101.716812 353.2239 
L 124.633041 353.2239 
L 147.549271 353.2239 
L 170.4655 353.2239 
L 193.381729 353.2239 
L 216.297958 353.2239 
L 239.214187 353.2239 
L 262.130416 353.2239 
L 285.046645 353.2239 
L 307.962874 353.2239 
L 330.879104 353.2239 
L 353.795333 353.223881 
L 376.711562 353.223839 
L 399.627791 353.223653 
L 422.54402 353.222148 
L 445.460249 353.20702 
L 468.376478 353.130915 
L 491.292707 352.964062 
L 514.208936 352.802452 
L 537.125166 352.745408 
L 560.041395 352.76583 
L 582.957624 352.766464 
L 605.873853 352.750926 
L 628.790082 352.715996 
L 651.706311 352.667588 
L 674.62254 352.580928 
L 697.538769 352.446488 
L 720.454999 352.292046 
L 743.371228 352.1905 
L 766.287457 351.99348 
L 789.203686 351.664961 
L 812.119915 351.02437 
L 835.036144 349.945181 
L 857.952373 348.354588 
L 880.868602 344.907636 
L 903.784831 328.408882 
L 926.701061 138.747885 
L 949.61729 290.180408 
" clip-path="url(#p81ef9cc7b5)" style="fill: none; stroke: #5cb85c; stroke-linecap: square"/>
   </g>
   <g id="line2d_9">
    <path d="M 78.800583 318.730019 
L 101.716812 353.2239 
L 124.633041 353.2239 
L 147.549271 353.2239 
L 170.4655 353.2239 
L 193.381729 353.2239 
L 216.297958 353.2239 
L 239.214187 353.2239 
L 262.130416 353.2239 
L 285.046645 353.2239 
L 307.962874 353.2239 
L 330.879104 353.2239 
L 353.795333 353.2239 
L 376.711562 353.223839 
L 399.627791 353.22369 
L 422.54402 353.221775 
L 445.460249 353.2053 
L 468.376478 353.124992 
L 491.292707 352.94179 
L 514.208936 352.752879 
L 537.125166 352.686216 
L 560.041395 352.702285 
L 582.957624 352.701167 
L 605.873853 352.685102 
L 628.790082 352.638479 
L 651.706311 352.586119 
L 674.62254 352.487122 
L 697.538769 352.354421 
L 720.454999 352.173675 
L 743.371228 352.026695 
L 766.287457 351.749445 
L 789.203686 351.364768 
L 812.119915 350.667674 
L 835.036144 349.502831 
L 857.952373 347.694372 
L 880.868602 343.942264 
L 903.784831 326.668293 
L 926.701061 133.446388 
L 949.61729 285.756098 
" clip-path="url(#p81ef9cc7b5)" style="fill: none; stroke: #5cb85c; stroke-linecap: square"/>
   </g>
   <g id="line2d_10">
    <path d="M 78.800583 338.998567 
L 101.716812 353.2239 
L 124.633041 353.2239 
L 147.549271 353.2239 
L 170.4655 353.2239 
L 193.381729 353.2239 
L 216.297958 353.2239 
L 239.214187 353.2239 
L 262.130416 353.2239 
L 285.046645 353.2239 
L 307.962874 353.2239 
L 330.879104 353.2239 
L 353.795333 353.223895 
L 376.711562 353.223881 
L 399.627791 353.22369 
L 422.54402 353.221528 
L 445.460249 353.200188 
L 468.376478 353.099769 
L 491.292707 352.866808 
L 514.208936 352.621063 
L 537.125166 352.537413 
L 560.041395 352.570558 
L 582.957624 352.586157 
L 605.873853 352.567776 
L 628.790082 352.516413 
L 651.706311 352.45731 
L 674.62254 352.332284 
L 697.538769 352.177609 
L 720.454999 351.976875 
L 743.371228 351.783415 
L 766.287457 351.453671 
L 789.203686 350.961198 
L 812.119915 350.029162 
L 835.036144 348.531736 
L 857.952373 346.220877 
L 880.868602 341.555296 
L 903.784831 320.732012 
L 926.701061 86.544828 
L 949.61729 266.415214 
" clip-path="url(#p81ef9cc7b5)" style="fill: none; stroke: #5cb85c; stroke-linecap: square"/>
   </g>
   <g id="line2d_11">
    <path d="M 78.800583 348.027859 
L 101.716812 353.2239 
L 124.633041 353.2239 
L 147.549271 353.2239 
L 170.4655 353.2239 
L 193.381729 353.2239 
L 216.297958 353.2239 
L 239.214187 353.2239 
L 262.130416 353.2239 
L 285.046645 353.2239 
L 307.962874 353.2239 
L 330.879104 353.2239 
L 353.795333 353.223881 
L 376.711562 353.223793 
L 399.627791 353.22356 
L 422.54402 353.221104 
L 445.460249 353.196329 
L 468.376478 353.085019 
L 491.292707 352.826644 
L 514.208936 352.56381 
L 537.125166 352.473202 
L 560.041395 352.521302 
L 582.957624 352.541752 
L 605.873853 352.529812 
L 628.790082 352.475578 
L 651.706311 352.407718 
L 674.62254 352.276708 
L 697.538769 352.115704 
L 720.454999 351.906996 
L 743.371228 351.674501 
L 766.287457 351.298408 
L 789.203686 350.743877 
L 812.119915 349.726704 
L 835.036144 348.099746 
L 857.952373 345.597483 
L 880.868602 340.492311 
L 903.784831 317.613803 
L 926.701061 55.375092 
L 949.61729 262.83572 
" clip-path="url(#p81ef9cc7b5)" style="fill: none; stroke: #5cb85c; stroke-linecap: square"/>
   </g>
   <g id="line2d_12">
    <path d="M 78.800583 348.851661 
L 101.716812 353.2239 
L 124.633041 353.2239 
L 147.549271 353.2239 
L 170.4655 353.2239 
L 193.381729 353.2239 
L 216.297958 353.2239 
L 239.214187 353.2239 
L 262.130416 353.2239 
L 285.046645 353.2239 
L 307.962874 353.2239 
L 330.879104 353.2239 
L 353.795333 353.223895 
L 376.711562 353.223872 
L 399.627791 353.223816 
L 422.54402 353.22321 
L 445.460249 353.217021 
L 468.376478 353.18616 
L 491.292707 353.107962 
L 514.208936 353.020355 
L 537.125166 352.98139 
L 560.041395 352.99195 
L 582.957624 352.992146 
L 605.873853 352.979395 
L 628.790082 352.957705 
L 651.706311 352.927823 
L 674.62254 352.88051 
L 697.538769 352.812132 
L 720.454999 352.729195 
L 743.371228 352.637207 
L 766.287457 352.47755 
L 789.203686 352.257037 
L 812.119915 351.851998 
L 835.036144 351.180001 
L 857.952373 350.094893 
L 880.868602 347.811838 
L 903.784831 337.140582 
L 926.701061 215.772312 
L 949.61729 311.781468 
" clip-path="url(#p81ef9cc7b5)" style="fill: none; stroke: #5cb85c; stroke-linecap: square"/>
   </g>
   <g id="line2d_13">
    <path d="M 78.800583 339.777904 
L 101.716812 353.2239 
L 124.633041 353.2239 
L 147.549271 353.2239 
L 170.4655 353.2239 
L 193.381729 353.2239 
L 216.297958 353.2239 
L 239.214187 353.2239 
L 262.130416 353.2239 
L 285.046645 353.2239 
L 307.962874 353.2239 
L 330.879104 353.223895 
L 353.795333 353.223891 
L 376.711562 353.223877 
L 399.627791 353.223788 
L 422.54402 353.221989 
L 445.460249 353.201232 
L 468.376478 353.106075 
L 491.292707 352.881218 
L 514.208936 352.644272 
L 537.125166 352.551339 
L 560.041395 352.584446 
L 582.957624 352.588389 
L 605.873853 352.577735 
L 628.790082 352.522901 
L 651.706311 352.46478 
L 674.62254 352.344606 
L 697.538769 352.201293 
L 720.454999 352.003914 
L 743.371228 351.822125 
L 766.287457 351.514508 
L 789.203686 351.038785 
L 812.119915 350.162152 
L 835.036144 348.733085 
L 857.952373 346.52917 
L 880.868602 342.163469 
L 903.784831 323.247454 
L 926.701061 117.58856 
L 949.61729 275.371807 
" clip-path="url(#p81ef9cc7b5)" style="fill: none; stroke: #5cb85c; stroke-linecap: square"/>
   </g>
   <g id="line2d_14">
    <path d="M 78.800583 337.281728 
L 101.716812 353.2239 
L 124.633041 353.2239 
L 147.549271 353.2239 
L 170.4655 353.2239 
L 193.381729 353.2239 
L 216.297958 353.2239 
L 239.214187 353.2239 
L 262.130416 353.2239 
L 285.046645 353.2239 
L 307.962874 353.2239 
L 330.879104 353.2239 
L 353.795333 353.2239 
L 376.711562 353.223877 
L 399.627791 353.223746 
L 422.54402 353.221882 
L 445.460249 353.201017 
L 468.376478 353.106033 
L 491.292707 352.889327 
L 514.208936 352.66235 
L 537.125166 352.582852 
L 560.041395 352.617041 
L 582.957624 352.627019 
L 605.873853 352.612441 
L 628.790082 352.557984 
L 651.706311 352.499911 
L 674.62254 352.380067 
L 697.538769 352.224633 
L 720.454999 352.036146 
L 743.371228 351.856216 
L 766.287457 351.54618 
L 789.203686 351.083753 
L 812.119915 350.198788 
L 835.036144 348.757431 
L 857.952373 346.505197 
L 880.868602 342.034659 
L 903.784831 322.385306 
L 926.701061 106.00699 
L 949.61729 274.094652 
" clip-path="url(#p81ef9cc7b5)" style="fill: none; stroke: #5cb85c; stroke-linecap: square"/>
   </g>
   <g id="line2d_15">
    <path d="M 78.800583 346.218463 
L 101.716812 353.2239 
L 124.633041 353.2239 
L 147.549271 353.2239 
L 170.4655 353.2239 
L 193.381729 353.2239 
L 216.297958 353.2239 
L 239.214187 353.2239 
L 262.130416 353.2239 
L 285.046645 353.2239 
L 307.962874 353.2239 
L 330.879104 353.2239 
L 353.795333 353.223895 
L 376.711562 353.223858 
L 399.627791 353.22363 
L 422.54402 353.221397 
L 445.460249 353.197881 
L 468.376478 353.091124 
L 491.292707 352.84551 
L 514.208936 352.595007 
L 537.125166 352.509269 
L 560.041395 352.559438 
L 582.957624 352.571756 
L 605.873853 352.557653 
L 628.790082 352.50252 
L 651.706311 352.437461 
L 674.62254 352.307817 
L 697.538769 352.149455 
L 720.454999 351.941814 
L 743.371228 351.717139 
L 766.287457 351.34566 
L 789.203686 350.810363 
L 812.119915 349.816828 
L 835.036144 348.231641 
L 857.952373 345.73683 
L 880.868602 340.722798 
L 903.784831 318.270873 
L 926.701061 72.530948 
L 949.61729 265.612128 
" clip-path="url(#p81ef9cc7b5)" style="fill: none; stroke: #5cb85c; stroke-linecap: square"/>
   </g>
   <g id="line2d_16">
    <path d="M 78.800583 340.295734 
L 101.716812 353.2239 
L 124.633041 353.2239 
L 147.549271 353.2239 
L 170.4655 353.2239 
L 193.381729 353.2239 
L 216.297958 353.2239 
L 239.214187 353.2239 
L 262.130416 353.2239 
L 285.046645 353.2239 
L 307.962874 353.2239 
L 330.879104 353.2239 
L 353.795333 353.223895 
L 376.711562 353.223858 
L 399.627791 353.223723 
L 422.54402 353.222917 
L 445.460249 353.214896 
L 468.376478 353.175842 
L 491.292707 353.082246 
L 514.208936 352.979423 
L 537.125166 352.938891 
L 560.041395 352.947848 
L 582.957624 352.943286 
L 605.873853 352.930381 
L 628.790082 352.904944 
L 651.706311 352.876204 
L 674.62254 352.817957 
L 697.538769 352.741908 
L 720.454999 352.656879 
L 743.371228 352.56484 
L 766.287457 352.410234 
L 789.203686 352.176341 
L 812.119915 351.734853 
L 835.036144 351.033975 
L 857.952373 349.925644 
L 880.868602 347.534365 
L 903.784831 335.971334 
L 926.701061 218.839121 
L 949.61729 315.574238 
" clip-path="url(#p81ef9cc7b5)" style="fill: none; stroke: #5cb85c; stroke-linecap: square"/>
   </g>
   <g id="line2d_17">
    <path d="M 78.800583 338.413468 
L 101.716812 353.2239 
L 124.633041 353.2239 
L 147.549271 353.2239 
L 170.4655 353.2239 
L 193.381729 353.2239 
L 216.297958 353.2239 
L 239.214187 353.2239 
L 262.130416 353.2239 
L 285.046645 353.2239 
L 307.962874 353.2239 
L 330.879104 353.2239 
L 353.795333 353.223881 
L 376.711562 353.223839 
L 399.627791 353.22355 
L 422.54402 353.221202 
L 445.460249 353.199027 
L 468.376478 353.097779 
L 491.292707 352.870611 
L 514.208936 352.635184 
L 537.125166 352.552746 
L 560.041395 352.588962 
L 582.957624 352.596591 
L 605.873853 352.581725 
L 628.790082 352.528554 
L 651.706311 352.469618 
L 674.62254 352.345287 
L 697.538769 352.185914 
L 720.454999 351.9906 
L 743.371228 351.774793 
L 766.287457 351.411391 
L 789.203686 350.895029 
L 812.119915 349.939654 
L 835.036144 348.402945 
L 857.952373 346.026038 
L 880.868602 341.111674 
L 903.784831 318.621655 
L 926.701061 82.822743 
L 949.61729 273.252381 
" clip-path="url(#p81ef9cc7b5)" style="fill: none; stroke: #5cb85c; stroke-linecap: square"/>
   </g>
   <g id="line2d_18">
    <path d="M 78.800583 349.341906 
L 101.716812 353.2239 
L 124.633041 353.2239 
L 147.549271 353.2239 
L 170.4655 353.2239 
L 193.381729 353.2239 
L 216.297958 353.2239 
L 239.214187 353.2239 
L 262.130416 353.2239 
L 285.046645 353.2239 
L 307.962874 353.2239 
L 330.879104 353.2239 
L 353.795333 353.223891 
L 376.711562 353.223858 
L 399.627791 353.223742 
L 422.54402 353.222469 
L 445.460249 353.209052 
L 468.376478 353.147432 
L 491.292707 353.00032 
L 514.208936 352.841987 
L 537.125166 352.783405 
L 560.041395 352.803911 
L 582.957624 352.804326 
L 605.873853 352.792469 
L 628.790082 352.758872 
L 651.706311 352.710884 
L 674.62254 352.625989 
L 697.538769 352.520225 
L 720.454999 352.38251 
L 743.371228 352.228757 
L 766.287457 351.971632 
L 789.203686 351.604426 
L 812.119915 350.931091 
L 835.036144 349.834817 
L 857.952373 348.147716 
L 880.868602 344.615474 
L 903.784831 328.133036 
L 926.701061 141.966089 
L 949.61729 290.082422 
" clip-path="url(#p81ef9cc7b5)" style="fill: none; stroke: #5cb85c; stroke-linecap: square"/>
   </g>
   <g id="line2d_19">
    <path d="M 78.800583 342.044092 
L 101.716812 353.2239 
L 124.633041 353.2239 
L 147.549271 353.2239 
L 170.4655 353.2239 
L 193.381729 353.2239 
L 216.297958 353.2239 
L 239.214187 353.2239 
L 262.130416 353.2239 
L 285.046645 353.2239 
L 307.962874 353.2239 
L 330.879104 353.2239 
L 353.795333 353.2239 
L 376.711562 353.223835 
L 399.627791 353.22356 
L 422.54402 353.22171 
L 445.460249 353.203944 
L 468.376478 353.121944 
L 491.292707 352.929202 
L 514.208936 352.721076 
L 537.125166 352.645367 
L 560.041395 352.671405 
L 582.957624 352.674188 
L 605.873853 352.66016 
L 628.790082 352.611188 
L 651.706311 352.546398 
L 674.62254 352.431332 
L 697.538769 352.294744 
L 720.454999 352.111053 
L 743.371228 351.920362 
L 766.287457 351.590054 
L 789.203686 351.110779 
L 812.119915 350.233224 
L 835.036144 348.820757 
L 857.952373 346.658129 
L 880.868602 342.198138 
L 903.784831 321.849543 
L 926.701061 96.543201 
L 949.61729 274.005741 
" clip-path="url(#p81ef9cc7b5)" style="fill: none; stroke: #5cb85c; stroke-linecap: square"/>
   </g>
   <g id="line2d_20">
    <path d="M 78.800583 330.900696 
L 101.716812 353.2239 
L 124.633041 353.2239 
L 147.549271 353.2239 
L 170.4655 353.2239 
L 193.381729 353.2239 
L 216.297958 353.2239 
L 239.214187 353.2239 
L 262.130416 353.2239 
L 285.046645 353.2239 
L 307.962874 353.2239 
L 330.879104 353.2239 
L 353.795333 353.223895 
L 376.711562 353.223853 
L 399.627791 353.223639 
L 422.54402 353.221071 
L 445.460249 353.196105 
L 468.376478 353.078867 
L 491.292707 352.81669 
L 514.208936 352.560995 
L 537.125166 352.468071 
L 560.041395 352.510247 
L 582.957624 352.519648 
L 605.873853 352.50259 
L 628.790082 352.449294 
L 651.706311 352.384998 
L 674.62254 352.256813 
L 697.538769 352.106164 
L 720.454999 351.894175 
L 743.371228 351.690756 
L 766.287457 351.365989 
L 789.203686 350.857452 
L 812.119915 349.896013 
L 835.036144 348.355884 
L 857.952373 345.993052 
L 880.868602 341.202464 
L 903.784831 319.864225 
L 926.701061 73.918537 
L 949.61729 264.492253 
" clip-path="url(#p81ef9cc7b5)" style="fill: none; stroke: #5cb85c; stroke-linecap: square"/>
   </g>
   <g id="line2d_21">
    <path d="M 78.800583 349.760753 
L 101.716812 353.2239 
L 124.633041 353.2239 
L 147.549271 353.2239 
L 170.4655 353.2239 
L 193.381729 353.2239 
L 216.297958 353.2239 
L 239.214187 353.2239 
L 262.130416 353.2239 
L 285.046645 353.2239 
L 307.962874 353.2239 
L 330.879104 353.223895 
L 353.795333 353.223881 
L 376.711562 353.223746 
L 399.627791 353.223434 
L 422.54402 353.221085 
L 445.460249 353.199815 
L 468.376478 353.103582 
L 491.292707 352.886815 
L 514.208936 352.66805 
L 537.125166 352.594103 
L 560.041395 352.634355 
L 582.957624 352.645363 
L 605.873853 352.636098 
L 628.790082 352.592215 
L 651.706311 352.533592 
L 674.62254 352.422729 
L 697.538769 352.286616 
L 720.454999 352.105032 
L 743.371228 351.894599 
L 766.287457 351.541138 
L 789.203686 351.037074 
L 812.119915 350.111428 
L 835.036144 348.63311 
L 857.952373 346.382706 
L 880.868602 341.551307 
L 903.784831 318.73179 
L 926.701061 66.41614 
L 949.61729 271.149975 
" clip-path="url(#p81ef9cc7b5)" style="fill: none; stroke: #5cb85c; stroke-linecap: square"/>
   </g>
   <g id="line2d_22">
    <path d="M 78.800583 343.74475 
L 101.716812 353.2239 
L 124.633041 353.2239 
L 147.549271 353.2239 
L 170.4655 353.2239 
L 193.381729 353.2239 
L 216.297958 353.2239 
L 239.214187 353.2239 
L 262.130416 353.2239 
L 285.046645 353.2239 
L 307.962874 353.2239 
L 330.879104 353.2239 
L 353.795333 353.223895 
L 376.711562 353.223844 
L 399.627791 353.223583 
L 422.54402 353.221649 
L 445.460249 353.203194 
L 468.376478 353.117926 
L 491.292707 352.918809 
L 514.208936 352.713307 
L 537.125166 352.638302 
L 560.041395 352.665445 
L 582.957624 352.670156 
L 605.873853 352.659027 
L 628.790082 352.618631 
L 651.706311 352.566559 
L 674.62254 352.460577 
L 697.538769 352.335933 
L 720.454999 352.167169 
L 743.371228 352.001454 
L 766.287457 351.725859 
L 789.203686 351.300356 
L 812.119915 350.517105 
L 835.036144 349.258955 
L 857.952373 347.333487 
L 880.868602 343.401924 
L 903.784831 325.525466 
L 926.701061 121.389253 
L 949.61729 281.138375 
" clip-path="url(#p81ef9cc7b5)" style="fill: none; stroke: #5cb85c; stroke-linecap: square"/>
   </g>
   <g id="line2d_23">
    <path d="M 78.800583 343.519712 
L 101.716812 353.2239 
L 124.633041 353.2239 
L 147.549271 353.2239 
L 170.4655 353.2239 
L 193.381729 353.2239 
L 216.297958 353.2239 
L 239.214187 353.2239 
L 262.130416 353.2239 
L 285.046645 353.2239 
L 307.962874 353.2239 
L 330.879104 353.2239 
L 353.795333 353.2239 
L 376.711562 353.223835 
L 399.627791 353.223569 
L 422.54402 353.221141 
L 445.460249 353.196436 
L 468.376478 353.084758 
L 491.292707 352.827208 
L 514.208936 352.5564 
L 537.125166 352.446907 
L 560.041395 352.487327 
L 582.957624 352.503653 
L 605.873853 352.482206 
L 628.790082 352.419728 
L 651.706311 352.363374 
L 674.62254 352.242869 
L 697.538769 352.078691 
L 720.454999 351.862619 
L 743.371228 351.627319 
L 766.287457 351.240554 
L 789.203686 350.683506 
L 812.119915 349.647701 
L 835.036144 347.950538 
L 857.952373 345.373419 
L 880.868602 340.151163 
L 903.784831 316.75529 
L 926.701061 50.397233 
L 949.61729 252.249092 
" clip-path="url(#p81ef9cc7b5)" style="fill: none; stroke: #5cb85c; stroke-linecap: square"/>
   </g>
   <g id="line2d_24">
    <path d="M 32.968125 353.2239 
L 993.158125 353.2239 
" clip-path="url(#p81ef9cc7b5)" style="fill: none; stroke: #dedede; stroke-width: 2; stroke-linecap: square"/>
   </g>
   <g id="text_20">
    <!-- FastQC: Per Sequence Quality Scores -->
    <g transform="translate(364.870625 19.3575) scale(0.16 -0.16)">
     <defs>
      <path id="DejaVuSans-46" d="M 628 4666 
L 3309 4666 
L 3309 4134 
L 1259 4134 
L 1259 2759 
L 3109 2759 
L 3109 2228 
L 1259 2228 
L 1259 0 
L 628 0 
L 628 4666 
z
" transform="scale(0.015625)"/>
      <path id="DejaVuSans-73" d="M 2834 3397 
L 2834 2853 
Q 2591 2978 2328 3040 
Q 2066 3103 1784 3103 
Q 1356 3103 1142 2972 
Q 928 2841 928 2578 
Q 928 2378 1081 2264 
Q 1234 2150 1697 2047 
L 1894 2003 
Q 2506 1872 2764 1633 
Q 3022 1394 3022 966 
Q 3022 478 2636 193 
Q 2250 -91 1575 -91 
Q 1294 -91 989 -36 
Q 684 19 347 128 
L 347 722 
Q 666 556 975 473 
Q 1284 391 1588 391 
Q 1994 391 2212 530 
Q 2431 669 2431 922 
Q 2431 1156 2273 1281 
Q 2116 1406 1581 1522 
L 1381 1569 
Q 847 1681 609 1914 
Q 372 2147 372 2553 
Q 372 3047 722 3315 
Q 1072 3584 1716 3584 
Q 2034 3584 2315 3537 
Q 2597 3491 2834 3397 
z
" transform="scale(0.015625)"/>
      <path id="DejaVuSans-3a" d="M 750 794 
L 1409 794 
L 1409 0 
L 750 0 
L 750 794 
z
M 750 3309 
L 1409 3309 
L 1409 2516 
L 750 2516 
L 750 3309 
z
" transform="scale(0.015625)"/>
     </defs>
     <use xlink:href="#DejaVuSans-46"/>
     <use xlink:href="#DejaVuSans-61" x="48.394531"/>
     <use xlink:href="#DejaVuSans-73" x="109.673828"/>
     <use xlink:href="#DejaVuSans-74" x="161.773438"/>
     <use xlink:href="#DejaVuSans-51" x="200.982422"/>
     <use xlink:href="#DejaVuSans-43" x="279.693359"/>
     <use xlink:href="#DejaVuSans-3a" x="349.517578"/>
     <use xlink:href="#DejaVuSans-20" x="383.208984"/>
     <use xlink:href="#DejaVuSans-50" x="414.996094"/>
     <use xlink:href="#DejaVuSans-65" x="471.673828"/>
     <use xlink:href="#DejaVuSans-72" x="533.197266"/>
     <use xlink:href="#DejaVuSans-20" x="574.310547"/>
     <use xlink:href="#DejaVuSans-53" x="606.097656"/>
     <use xlink:href="#DejaVuSans-65" x="669.574219"/>
     <use xlink:href="#DejaVuSans-71" x="731.097656"/>
     <use xlink:href="#DejaVuSans-75" x="794.574219"/>
     <use xlink:href="#DejaVuSans-65" x="857.953125"/>
     <use xlink:href="#DejaVuSans-6e" x="919.476562"/>
     <use xlink:href="#DejaVuSans-63" x="982.855469"/>
     <use xlink:href="#DejaVuSans-65" x="1037.835938"/>
     <use xlink:href="#DejaVuSans-20" x="1099.359375"/>
     <use xlink:href="#DejaVuSans-51" x="1131.146484"/>
     <use xlink:href="#DejaVuSans-75" x="1209.857422"/>
     <use xlink:href="#DejaVuSans-61" x="1273.236328"/>
     <use xlink:href="#DejaVuSans-6c" x="1334.515625"/>
     <use xlink:href="#DejaVuSans-69" x="1362.298828"/>
     <use xlink:href="#DejaVuSans-74" x="1390.082031"/>
     <use xlink:href="#DejaVuSans-79" x="1429.291016"/>
     <use xlink:href="#DejaVuSans-20" x="1488.470703"/>
     <use xlink:href="#DejaVuSans-53" x="1520.257812"/>
     <use xlink:href="#DejaVuSans-63" x="1583.734375"/>
     <use xlink:href="#DejaVuSans-6f" x="1638.714844"/>
     <use xlink:href="#DejaVuSans-72" x="1699.896484"/>
     <use xlink:href="#DejaVuSans-65" x="1738.759766"/>
     <use xlink:href="#DejaVuSans-73" x="1800.283203"/>
    </g>
   </g>
  </g>
 </g>
 <defs>
  <clipPath id="p81ef9cc7b5">
   <rect x="32.968125" y="35.2559" width="960.19" height="317.968"/>
  </clipPath>
 </defs>
</svg>
