<?xml version="1.0" encoding="utf-8" standalone="no"?>
<!DOCTYPE svg PUBLIC "-//W3C//DTD SVG 1.1//EN"
  "http://www.w3.org/Graphics/SVG/1.1/DTD/svg11.dtd">
<svg xmlns:xlink="http://www.w3.org/1999/xlink" width="1000.318125pt" height="388.844525pt" viewBox="0 0 1000.318125 388.844525" xmlns="http://www.w3.org/2000/svg" version="1.1">
 <metadata>
  <rdf:RDF xmlns:dc="http://purl.org/dc/elements/1.1/" xmlns:cc="http://creativecommons.org/ns#" xmlns:rdf="http://www.w3.org/1999/02/22-rdf-syntax-ns#">
   <cc:Work>
    <dc:type rdf:resource="http://purl.org/dc/dcmitype/StillImage"/>
    <dc:date>2024-09-05T13:39:11.945539</dc:date>
    <dc:format>image/svg+xml</dc:format>
    <dc:creator>
     <cc:Agent>
      <dc:title>Matplotlib v3.8.2, https://matplotlib.org/</dc:title>
     </cc:Agent>
    </dc:creator>
   </cc:Work>
  </rdf:RDF>
 </metadata>
 <defs>
  <style type="text/css">*{stroke-linejoin: round; stroke-linecap: butt}</style>
 </defs>
 <g id="figure_1">
  <g id="axes_1">
   <g id="patch_1">
    <path d="M 38.058125 353.2239 
L 993.118125 353.2239 
L 993.118125 35.2559 
L 38.058125 35.2559 
z
" style="fill: #ffffff"/>
   </g>
   <g id="patch_2">
    <path d="M 38.058125 -199.876994 
L 993.118125 -199.876994 
L 993.118125 -2412.280572 
L 38.058125 -2412.280572 
z
" clip-path="url(#p48b18dffe3)" style="fill: #e6c3c3"/>
   </g>
   <g id="patch_3">
    <path d="M 38.058125 214.948676 
L 993.118125 214.948676 
L 993.118125 -199.876994 
L 38.058125 -199.876994 
z
" clip-path="url(#p48b18dffe3)" style="fill: #e6dcc3"/>
   </g>
   <g id="patch_4">
    <path d="M 38.058125 353.2239 
L 993.118125 353.2239 
L 993.118125 214.948676 
L 38.058125 214.948676 
z
" clip-path="url(#p48b18dffe3)" style="fill: #c3e6c3"/>
   </g>
   <g id="matplotlib.axis_1">
    <g id="xtick_1">
     <g id="text_1">
      <!-- 0 -->
      <g transform="translate(35.513125 366.30265) scale(0.08 -0.08)">
       <defs>
        <path id="DejaVuSans-30" d="M 2034 4250 
Q 1547 4250 1301 3770 
Q 1056 3291 1056 2328 
Q 1056 1369 1301 889 
Q 1547 409 2034 409 
Q 2525 409 2770 889 
Q 3016 1369 3016 2328 
Q 3016 3291 2770 3770 
Q 2525 4250 2034 4250 
z
M 2034 4750 
Q 2819 4750 3233 4129 
Q 3647 3509 3647 2328 
Q 3647 1150 3233 529 
Q 2819 -91 2034 -91 
Q 1250 -91 836 529 
Q 422 1150 422 2328 
Q 422 3509 836 4129 
Q 1250 4750 2034 4750 
z
" transform="scale(0.015625)"/>
       </defs>
       <use xlink:href="#DejaVuSans-30"/>
      </g>
     </g>
    </g>
    <g id="xtick_2">
     <g id="text_2">
      <!-- 20 -->
      <g transform="translate(214.970984 366.30265) scale(0.08 -0.08)">
       <defs>
        <path id="DejaVuSans-32" d="M 1228 531 
L 3431 531 
L 3431 0 
L 469 0 
L 469 531 
Q 828 903 1448 1529 
Q 2069 2156 2228 2338 
Q 2531 2678 2651 2914 
Q 2772 3150 2772 3378 
Q 2772 3750 2511 3984 
Q 2250 4219 1831 4219 
Q 1534 4219 1204 4116 
Q 875 4013 500 3803 
L 500 4441 
Q 881 4594 1212 4672 
Q 1544 4750 1819 4750 
Q 2544 4750 2975 4387 
Q 3406 4025 3406 3419 
Q 3406 3131 3298 2873 
Q 3191 2616 2906 2266 
Q 2828 2175 2409 1742 
Q 1991 1309 1228 531 
z
" transform="scale(0.015625)"/>
       </defs>
       <use xlink:href="#DejaVuSans-32"/>
       <use xlink:href="#DejaVuSans-30" x="63.623047"/>
      </g>
     </g>
    </g>
    <g id="xtick_3">
     <g id="text_3">
      <!-- 40 -->
      <g transform="translate(396.973842 366.30265) scale(0.08 -0.08)">
       <defs>
        <path id="DejaVuSans-34" d="M 2419 4116 
L 825 1625 
L 2419 1625 
L 2419 4116 
z
M 2253 4666 
L 3047 4666 
L 3047 1625 
L 3713 1625 
L 3713 1100 
L 3047 1100 
L 3047 0 
L 2419 0 
L 2419 1100 
L 313 1100 
L 313 1709 
L 2253 4666 
z
" transform="scale(0.015625)"/>
       </defs>
       <use xlink:href="#DejaVuSans-34"/>
       <use xlink:href="#DejaVuSans-30" x="63.623047"/>
      </g>
     </g>
    </g>
    <g id="xtick_4">
     <g id="text_4">
      <!-- 60 -->
      <g transform="translate(578.976701 366.30265) scale(0.08 -0.08)">
       <defs>
        <path id="DejaVuSans-36" d="M 2113 2584 
Q 1688 2584 1439 2293 
Q 1191 2003 1191 1497 
Q 1191 994 1439 701 
Q 1688 409 2113 409 
Q 2538 409 2786 701 
Q 3034 994 3034 1497 
Q 3034 2003 2786 2293 
Q 2538 2584 2113 2584 
z
M 3366 4563 
L 3366 3988 
Q 3128 4100 2886 4159 
Q 2644 4219 2406 4219 
Q 1781 4219 1451 3797 
Q 1122 3375 1075 2522 
Q 1259 2794 1537 2939 
Q 1816 3084 2150 3084 
Q 2853 3084 3261 2657 
Q 3669 2231 3669 1497 
Q 3669 778 3244 343 
Q 2819 -91 2113 -91 
Q 1303 -91 875 529 
Q 447 1150 447 2328 
Q 447 3434 972 4092 
Q 1497 4750 2381 4750 
Q 2619 4750 2861 4703 
Q 3103 4656 3366 4563 
z
" transform="scale(0.015625)"/>
       </defs>
       <use xlink:href="#DejaVuSans-36"/>
       <use xlink:href="#DejaVuSans-30" x="63.623047"/>
      </g>
     </g>
    </g>
    <g id="xtick_5">
     <g id="text_5">
      <!-- 80 -->
      <g transform="translate(760.979559 366.30265) scale(0.08 -0.08)">
       <defs>
        <path id="DejaVuSans-38" d="M 2034 2216 
Q 1584 2216 1326 1975 
Q 1069 1734 1069 1313 
Q 1069 891 1326 650 
Q 1584 409 2034 409 
Q 2484 409 2743 651 
Q 3003 894 3003 1313 
Q 3003 1734 2745 1975 
Q 2488 2216 2034 2216 
z
M 1403 2484 
Q 997 2584 770 2862 
Q 544 3141 544 3541 
Q 544 4100 942 4425 
Q 1341 4750 2034 4750 
Q 2731 4750 3128 4425 
Q 3525 4100 3525 3541 
Q 3525 3141 3298 2862 
Q 3072 2584 2669 2484 
Q 3125 2378 3379 2068 
Q 3634 1759 3634 1313 
Q 3634 634 3220 271 
Q 2806 -91 2034 -91 
Q 1263 -91 848 271 
Q 434 634 434 1313 
Q 434 1759 690 2068 
Q 947 2378 1403 2484 
z
M 1172 3481 
Q 1172 3119 1398 2916 
Q 1625 2713 2034 2713 
Q 2441 2713 2670 2916 
Q 2900 3119 2900 3481 
Q 2900 3844 2670 4047 
Q 2441 4250 2034 4250 
Q 1625 4250 1398 4047 
Q 1172 3844 1172 3481 
z
" transform="scale(0.015625)"/>
       </defs>
       <use xlink:href="#DejaVuSans-38"/>
       <use xlink:href="#DejaVuSans-30" x="63.623047"/>
      </g>
     </g>
    </g>
    <g id="xtick_6">
     <g id="text_6">
      <!-- 100 -->
      <g transform="translate(940.437418 366.30265) scale(0.08 -0.08)">
       <defs>
        <path id="DejaVuSans-31" d="M 794 531 
L 1825 531 
L 1825 4091 
L 703 3866 
L 703 4441 
L 1819 4666 
L 2450 4666 
L 2450 531 
L 3481 531 
L 3481 0 
L 794 0 
L 794 531 
z
" transform="scale(0.015625)"/>
       </defs>
       <use xlink:href="#DejaVuSans-31"/>
       <use xlink:href="#DejaVuSans-30" x="63.623047"/>
       <use xlink:href="#DejaVuSans-30" x="127.246094"/>
      </g>
     </g>
    </g>
    <g id="text_7">
     <!-- Position in Read (bp) -->
     <g transform="translate(463.985 379.564837) scale(0.1 -0.1)">
      <defs>
       <path id="DejaVuSans-50" d="M 1259 4147 
L 1259 2394 
L 2053 2394 
Q 2494 2394 2734 2622 
Q 2975 2850 2975 3272 
Q 2975 3691 2734 3919 
Q 2494 4147 2053 4147 
L 1259 4147 
z
M 628 4666 
L 2053 4666 
Q 2838 4666 3239 4311 
Q 3641 3956 3641 3272 
Q 3641 2581 3239 2228 
Q 2838 1875 2053 1875 
L 1259 1875 
L 1259 0 
L 628 0 
L 628 4666 
z
" transform="scale(0.015625)"/>
       <path id="DejaVuSans-6f" d="M 1959 3097 
Q 1497 3097 1228 2736 
Q 959 2375 959 1747 
Q 959 1119 1226 758 
Q 1494 397 1959 397 
Q 2419 397 2687 759 
Q 2956 1122 2956 1747 
Q 2956 2369 2687 2733 
Q 2419 3097 1959 3097 
z
M 1959 3584 
Q 2709 3584 3137 3096 
Q 3566 2609 3566 1747 
Q 3566 888 3137 398 
Q 2709 -91 1959 -91 
Q 1206 -91 779 398 
Q 353 888 353 1747 
Q 353 2609 779 3096 
Q 1206 3584 1959 3584 
z
" transform="scale(0.015625)"/>
       <path id="DejaVuSans-73" d="M 2834 3397 
L 2834 2853 
Q 2591 2978 2328 3040 
Q 2066 3103 1784 3103 
Q 1356 3103 1142 2972 
Q 928 2841 928 2578 
Q 928 2378 1081 2264 
Q 1234 2150 1697 2047 
L 1894 2003 
Q 2506 1872 2764 1633 
Q 3022 1394 3022 966 
Q 3022 478 2636 193 
Q 2250 -91 1575 -91 
Q 1294 -91 989 -36 
Q 684 19 347 128 
L 347 722 
Q 666 556 975 473 
Q 1284 391 1588 391 
Q 1994 391 2212 530 
Q 2431 669 2431 922 
Q 2431 1156 2273 1281 
Q 2116 1406 1581 1522 
L 1381 1569 
Q 847 1681 609 1914 
Q 372 2147 372 2553 
Q 372 3047 722 3315 
Q 1072 3584 1716 3584 
Q 2034 3584 2315 3537 
Q 2597 3491 2834 3397 
z
" transform="scale(0.015625)"/>
       <path id="DejaVuSans-69" d="M 603 3500 
L 1178 3500 
L 1178 0 
L 603 0 
L 603 3500 
z
M 603 4863 
L 1178 4863 
L 1178 4134 
L 603 4134 
L 603 4863 
z
" transform="scale(0.015625)"/>
       <path id="DejaVuSans-74" d="M 1172 4494 
L 1172 3500 
L 2356 3500 
L 2356 3053 
L 1172 3053 
L 1172 1153 
Q 1172 725 1289 603 
Q 1406 481 1766 481 
L 2356 481 
L 2356 0 
L 1766 0 
Q 1100 0 847 248 
Q 594 497 594 1153 
L 594 3053 
L 172 3053 
L 172 3500 
L 594 3500 
L 594 4494 
L 1172 4494 
z
" transform="scale(0.015625)"/>
       <path id="DejaVuSans-6e" d="M 3513 2113 
L 3513 0 
L 2938 0 
L 2938 2094 
Q 2938 2591 2744 2837 
Q 2550 3084 2163 3084 
Q 1697 3084 1428 2787 
Q 1159 2491 1159 1978 
L 1159 0 
L 581 0 
L 581 3500 
L 1159 3500 
L 1159 2956 
Q 1366 3272 1645 3428 
Q 1925 3584 2291 3584 
Q 2894 3584 3203 3211 
Q 3513 2838 3513 2113 
z
" transform="scale(0.015625)"/>
       <path id="DejaVuSans-20" transform="scale(0.015625)"/>
       <path id="DejaVuSans-52" d="M 2841 2188 
Q 3044 2119 3236 1894 
Q 3428 1669 3622 1275 
L 4263 0 
L 3584 0 
L 2988 1197 
Q 2756 1666 2539 1819 
Q 2322 1972 1947 1972 
L 1259 1972 
L 1259 0 
L 628 0 
L 628 4666 
L 2053 4666 
Q 2853 4666 3247 4331 
Q 3641 3997 3641 3322 
Q 3641 2881 3436 2590 
Q 3231 2300 2841 2188 
z
M 1259 4147 
L 1259 2491 
L 2053 2491 
Q 2509 2491 2742 2702 
Q 2975 2913 2975 3322 
Q 2975 3731 2742 3939 
Q 2509 4147 2053 4147 
L 1259 4147 
z
" transform="scale(0.015625)"/>
       <path id="DejaVuSans-65" d="M 3597 1894 
L 3597 1613 
L 953 1613 
Q 991 1019 1311 708 
Q 1631 397 2203 397 
Q 2534 397 2845 478 
Q 3156 559 3463 722 
L 3463 178 
Q 3153 47 2828 -22 
Q 2503 -91 2169 -91 
Q 1331 -91 842 396 
Q 353 884 353 1716 
Q 353 2575 817 3079 
Q 1281 3584 2069 3584 
Q 2775 3584 3186 3129 
Q 3597 2675 3597 1894 
z
M 3022 2063 
Q 3016 2534 2758 2815 
Q 2500 3097 2075 3097 
Q 1594 3097 1305 2825 
Q 1016 2553 972 2059 
L 3022 2063 
z
" transform="scale(0.015625)"/>
       <path id="DejaVuSans-61" d="M 2194 1759 
Q 1497 1759 1228 1600 
Q 959 1441 959 1056 
Q 959 750 1161 570 
Q 1363 391 1709 391 
Q 2188 391 2477 730 
Q 2766 1069 2766 1631 
L 2766 1759 
L 2194 1759 
z
M 3341 1997 
L 3341 0 
L 2766 0 
L 2766 531 
Q 2569 213 2275 61 
Q 1981 -91 1556 -91 
Q 1019 -91 701 211 
Q 384 513 384 1019 
Q 384 1609 779 1909 
Q 1175 2209 1959 2209 
L 2766 2209 
L 2766 2266 
Q 2766 2663 2505 2880 
Q 2244 3097 1772 3097 
Q 1472 3097 1187 3025 
Q 903 2953 641 2809 
L 641 3341 
Q 956 3463 1253 3523 
Q 1550 3584 1831 3584 
Q 2591 3584 2966 3190 
Q 3341 2797 3341 1997 
z
" transform="scale(0.015625)"/>
       <path id="DejaVuSans-64" d="M 2906 2969 
L 2906 4863 
L 3481 4863 
L 3481 0 
L 2906 0 
L 2906 525 
Q 2725 213 2448 61 
Q 2172 -91 1784 -91 
Q 1150 -91 751 415 
Q 353 922 353 1747 
Q 353 2572 751 3078 
Q 1150 3584 1784 3584 
Q 2172 3584 2448 3432 
Q 2725 3281 2906 2969 
z
M 947 1747 
Q 947 1113 1208 752 
Q 1469 391 1925 391 
Q 2381 391 2643 752 
Q 2906 1113 2906 1747 
Q 2906 2381 2643 2742 
Q 2381 3103 1925 3103 
Q 1469 3103 1208 2742 
Q 947 2381 947 1747 
z
" transform="scale(0.015625)"/>
       <path id="DejaVuSans-28" d="M 1984 4856 
Q 1566 4138 1362 3434 
Q 1159 2731 1159 2009 
Q 1159 1288 1364 580 
Q 1569 -128 1984 -844 
L 1484 -844 
Q 1016 -109 783 600 
Q 550 1309 550 2009 
Q 550 2706 781 3412 
Q 1013 4119 1484 4856 
L 1984 4856 
z
" transform="scale(0.015625)"/>
       <path id="DejaVuSans-62" d="M 3116 1747 
Q 3116 2381 2855 2742 
Q 2594 3103 2138 3103 
Q 1681 3103 1420 2742 
Q 1159 2381 1159 1747 
Q 1159 1113 1420 752 
Q 1681 391 2138 391 
Q 2594 391 2855 752 
Q 3116 1113 3116 1747 
z
M 1159 2969 
Q 1341 3281 1617 3432 
Q 1894 3584 2278 3584 
Q 2916 3584 3314 3078 
Q 3713 2572 3713 1747 
Q 3713 922 3314 415 
Q 2916 -91 2278 -91 
Q 1894 -91 1617 61 
Q 1341 213 1159 525 
L 1159 0 
L 581 0 
L 581 4863 
L 1159 4863 
L 1159 2969 
z
" transform="scale(0.015625)"/>
       <path id="DejaVuSans-70" d="M 1159 525 
L 1159 -1331 
L 581 -1331 
L 581 3500 
L 1159 3500 
L 1159 2969 
Q 1341 3281 1617 3432 
Q 1894 3584 2278 3584 
Q 2916 3584 3314 3078 
Q 3713 2572 3713 1747 
Q 3713 922 3314 415 
Q 2916 -91 2278 -91 
Q 1894 -91 1617 61 
Q 1341 213 1159 525 
z
M 3116 1747 
Q 3116 2381 2855 2742 
Q 2594 3103 2138 3103 
Q 1681 3103 1420 2742 
Q 1159 2381 1159 1747 
Q 1159 1113 1420 752 
Q 1681 391 2138 391 
Q 2594 391 2855 752 
Q 3116 1113 3116 1747 
z
" transform="scale(0.015625)"/>
       <path id="DejaVuSans-29" d="M 513 4856 
L 1013 4856 
Q 1481 4119 1714 3412 
Q 1947 2706 1947 2009 
Q 1947 1309 1714 600 
Q 1481 -109 1013 -844 
L 513 -844 
Q 928 -128 1133 580 
Q 1338 1288 1338 2009 
Q 1338 2731 1133 3434 
Q 928 4138 513 4856 
z
" transform="scale(0.015625)"/>
      </defs>
      <use xlink:href="#DejaVuSans-50"/>
      <use xlink:href="#DejaVuSans-6f" x="56.677734"/>
      <use xlink:href="#DejaVuSans-73" x="117.859375"/>
      <use xlink:href="#DejaVuSans-69" x="169.958984"/>
      <use xlink:href="#DejaVuSans-74" x="197.742188"/>
      <use xlink:href="#DejaVuSans-69" x="236.951172"/>
      <use xlink:href="#DejaVuSans-6f" x="264.734375"/>
      <use xlink:href="#DejaVuSans-6e" x="325.916016"/>
      <use xlink:href="#DejaVuSans-20" x="389.294922"/>
      <use xlink:href="#DejaVuSans-69" x="421.082031"/>
      <use xlink:href="#DejaVuSans-6e" x="448.865234"/>
      <use xlink:href="#DejaVuSans-20" x="512.244141"/>
      <use xlink:href="#DejaVuSans-52" x="544.03125"/>
      <use xlink:href="#DejaVuSans-65" x="609.013672"/>
      <use xlink:href="#DejaVuSans-61" x="670.537109"/>
      <use xlink:href="#DejaVuSans-64" x="731.816406"/>
      <use xlink:href="#DejaVuSans-20" x="795.292969"/>
      <use xlink:href="#DejaVuSans-28" x="827.080078"/>
      <use xlink:href="#DejaVuSans-62" x="866.09375"/>
      <use xlink:href="#DejaVuSans-70" x="929.570312"/>
      <use xlink:href="#DejaVuSans-29" x="993.046875"/>
     </g>
    </g>
   </g>
   <g id="matplotlib.axis_2">
    <g id="ytick_1">
     <g id="line2d_1">
      <path d="M 38.058125 353.2239 
L 993.118125 353.2239 
" clip-path="url(#p48b18dffe3)" style="fill: none; stroke: #dedede; stroke-linecap: square"/>
     </g>
     <g id="text_8">
      <!-- 0 -->
      <g transform="translate(25.968125 356.263275) scale(0.08 -0.08)">
       <use xlink:href="#DejaVuSans-30"/>
      </g>
     </g>
    </g>
    <g id="ytick_2">
     <g id="line2d_2">
      <path d="M 38.058125 297.913811 
L 993.118125 297.913811 
" clip-path="url(#p48b18dffe3)" style="fill: none; stroke: #dedede; stroke-linecap: square"/>
     </g>
     <g id="text_9">
      <!-- 2 -->
      <g transform="translate(25.968125 300.953186) scale(0.08 -0.08)">
       <use xlink:href="#DejaVuSans-32"/>
      </g>
     </g>
    </g>
    <g id="ytick_3">
     <g id="line2d_3">
      <path d="M 38.058125 242.603721 
L 993.118125 242.603721 
" clip-path="url(#p48b18dffe3)" style="fill: none; stroke: #dedede; stroke-linecap: square"/>
     </g>
     <g id="text_10">
      <!-- 4 -->
      <g transform="translate(25.968125 245.643096) scale(0.08 -0.08)">
       <use xlink:href="#DejaVuSans-34"/>
      </g>
     </g>
    </g>
    <g id="ytick_4">
     <g id="line2d_4">
      <path d="M 38.058125 187.293632 
L 993.118125 187.293632 
" clip-path="url(#p48b18dffe3)" style="fill: none; stroke: #dedede; stroke-linecap: square"/>
     </g>
     <g id="text_11">
      <!-- 6 -->
      <g transform="translate(25.968125 190.333007) scale(0.08 -0.08)">
       <use xlink:href="#DejaVuSans-36"/>
      </g>
     </g>
    </g>
    <g id="ytick_5">
     <g id="line2d_5">
      <path d="M 38.058125 131.983542 
L 993.118125 131.983542 
" clip-path="url(#p48b18dffe3)" style="fill: none; stroke: #dedede; stroke-linecap: square"/>
     </g>
     <g id="text_12">
      <!-- 8 -->
      <g transform="translate(25.968125 135.022917) scale(0.08 -0.08)">
       <use xlink:href="#DejaVuSans-38"/>
      </g>
     </g>
    </g>
    <g id="ytick_6">
     <g id="line2d_6">
      <path d="M 38.058125 76.673453 
L 993.118125 76.673453 
" clip-path="url(#p48b18dffe3)" style="fill: none; stroke: #dedede; stroke-linecap: square"/>
     </g>
     <g id="text_13">
      <!-- 10 -->
      <g transform="translate(20.878125 79.712828) scale(0.08 -0.08)">
       <use xlink:href="#DejaVuSans-31"/>
       <use xlink:href="#DejaVuSans-30" x="63.623047"/>
      </g>
     </g>
    </g>
    <g id="text_14">
     <!-- Percentage N-Count -->
     <g transform="translate(14.798438 244.344588) rotate(-90) scale(0.1 -0.1)">
      <defs>
       <path id="DejaVuSans-72" d="M 2631 2963 
Q 2534 3019 2420 3045 
Q 2306 3072 2169 3072 
Q 1681 3072 1420 2755 
Q 1159 2438 1159 1844 
L 1159 0 
L 581 0 
L 581 3500 
L 1159 3500 
L 1159 2956 
Q 1341 3275 1631 3429 
Q 1922 3584 2338 3584 
Q 2397 3584 2469 3576 
Q 2541 3569 2628 3553 
L 2631 2963 
z
" transform="scale(0.015625)"/>
       <path id="DejaVuSans-63" d="M 3122 3366 
L 3122 2828 
Q 2878 2963 2633 3030 
Q 2388 3097 2138 3097 
Q 1578 3097 1268 2742 
Q 959 2388 959 1747 
Q 959 1106 1268 751 
Q 1578 397 2138 397 
Q 2388 397 2633 464 
Q 2878 531 3122 666 
L 3122 134 
Q 2881 22 2623 -34 
Q 2366 -91 2075 -91 
Q 1284 -91 818 406 
Q 353 903 353 1747 
Q 353 2603 823 3093 
Q 1294 3584 2113 3584 
Q 2378 3584 2631 3529 
Q 2884 3475 3122 3366 
z
" transform="scale(0.015625)"/>
       <path id="DejaVuSans-67" d="M 2906 1791 
Q 2906 2416 2648 2759 
Q 2391 3103 1925 3103 
Q 1463 3103 1205 2759 
Q 947 2416 947 1791 
Q 947 1169 1205 825 
Q 1463 481 1925 481 
Q 2391 481 2648 825 
Q 2906 1169 2906 1791 
z
M 3481 434 
Q 3481 -459 3084 -895 
Q 2688 -1331 1869 -1331 
Q 1566 -1331 1297 -1286 
Q 1028 -1241 775 -1147 
L 775 -588 
Q 1028 -725 1275 -790 
Q 1522 -856 1778 -856 
Q 2344 -856 2625 -561 
Q 2906 -266 2906 331 
L 2906 616 
Q 2728 306 2450 153 
Q 2172 0 1784 0 
Q 1141 0 747 490 
Q 353 981 353 1791 
Q 353 2603 747 3093 
Q 1141 3584 1784 3584 
Q 2172 3584 2450 3431 
Q 2728 3278 2906 2969 
L 2906 3500 
L 3481 3500 
L 3481 434 
z
" transform="scale(0.015625)"/>
       <path id="DejaVuSans-4e" d="M 628 4666 
L 1478 4666 
L 3547 763 
L 3547 4666 
L 4159 4666 
L 4159 0 
L 3309 0 
L 1241 3903 
L 1241 0 
L 628 0 
L 628 4666 
z
" transform="scale(0.015625)"/>
       <path id="DejaVuSans-2d" d="M 313 2009 
L 1997 2009 
L 1997 1497 
L 313 1497 
L 313 2009 
z
" transform="scale(0.015625)"/>
       <path id="DejaVuSans-43" d="M 4122 4306 
L 4122 3641 
Q 3803 3938 3442 4084 
Q 3081 4231 2675 4231 
Q 1875 4231 1450 3742 
Q 1025 3253 1025 2328 
Q 1025 1406 1450 917 
Q 1875 428 2675 428 
Q 3081 428 3442 575 
Q 3803 722 4122 1019 
L 4122 359 
Q 3791 134 3420 21 
Q 3050 -91 2638 -91 
Q 1578 -91 968 557 
Q 359 1206 359 2328 
Q 359 3453 968 4101 
Q 1578 4750 2638 4750 
Q 3056 4750 3426 4639 
Q 3797 4528 4122 4306 
z
" transform="scale(0.015625)"/>
       <path id="DejaVuSans-75" d="M 544 1381 
L 544 3500 
L 1119 3500 
L 1119 1403 
Q 1119 906 1312 657 
Q 1506 409 1894 409 
Q 2359 409 2629 706 
Q 2900 1003 2900 1516 
L 2900 3500 
L 3475 3500 
L 3475 0 
L 2900 0 
L 2900 538 
Q 2691 219 2414 64 
Q 2138 -91 1772 -91 
Q 1169 -91 856 284 
Q 544 659 544 1381 
z
M 1991 3584 
L 1991 3584 
z
" transform="scale(0.015625)"/>
      </defs>
      <use xlink:href="#DejaVuSans-50"/>
      <use xlink:href="#DejaVuSans-65" x="56.677734"/>
      <use xlink:href="#DejaVuSans-72" x="118.201172"/>
      <use xlink:href="#DejaVuSans-63" x="157.064453"/>
      <use xlink:href="#DejaVuSans-65" x="212.044922"/>
      <use xlink:href="#DejaVuSans-6e" x="273.568359"/>
      <use xlink:href="#DejaVuSans-74" x="336.947266"/>
      <use xlink:href="#DejaVuSans-61" x="376.15625"/>
      <use xlink:href="#DejaVuSans-67" x="437.435547"/>
      <use xlink:href="#DejaVuSans-65" x="500.912109"/>
      <use xlink:href="#DejaVuSans-20" x="562.435547"/>
      <use xlink:href="#DejaVuSans-4e" x="594.222656"/>
      <use xlink:href="#DejaVuSans-2d" x="669.027344"/>
      <use xlink:href="#DejaVuSans-43" x="705.111328"/>
      <use xlink:href="#DejaVuSans-6f" x="774.935547"/>
      <use xlink:href="#DejaVuSans-75" x="836.117188"/>
      <use xlink:href="#DejaVuSans-6e" x="899.496094"/>
      <use xlink:href="#DejaVuSans-74" x="962.875"/>
     </g>
    </g>
   </g>
   <g id="line2d_7">
    <path d="M 47.158268 53.713662 
L 56.258411 52.162647 
L 65.358554 52.879093 
L 74.458697 52.635902 
L 83.55884 53.269269 
L 92.658983 53.722171 
L 101.759125 53.704215 
L 110.859268 53.712134 
L 119.959411 53.721129 
L 129.059554 53.7229 
L 147.25984 53.713974 
L 165.460126 50.397233 
L 183.660412 53.7229 
L 201.860698 53.721112 
L 220.060984 52.958403 
L 238.261269 53.722414 
L 256.461555 53.719132 
L 274.661841 53.715277 
L 292.862127 53.698258 
L 311.062413 53.683619 
L 329.262699 52.88175 
L 347.462984 53.604587 
L 365.66327 353.220803 
L 383.863556 353.218349 
L 402.063842 353.22353 
L 420.264128 352.652256 
L 438.464414 352.56243 
L 456.6647 352.364273 
L 474.864985 353.220335 
L 493.065271 351.550757 
L 511.265557 353.216244 
L 529.465843 353.213106 
L 547.666129 353.223861 
L 565.866415 351.339288 
L 584.066701 351.908237 
L 602.266986 352.378795 
L 620.467272 352.844259 
L 638.667558 353.213543 
L 656.867844 352.372958 
L 675.06813 350.407358 
L 693.268416 353.194143 
L 711.468701 352.383778 
L 729.668987 353.222942 
L 747.869273 353.223685 
L 766.069559 353.214385 
L 784.269845 353.222136 
L 802.470131 353.218133 
L 820.670417 353.209915 
L 838.870702 351.5719 
L 857.070988 353.188042 
L 875.271274 348.393475 
L 893.47156 353.202605 
L 911.671846 353.222602 
L 929.872132 353.221223 
L 948.072418 353.2239 
" clip-path="url(#p48b18dffe3)" style="fill: none; stroke: #f0ad4e; stroke-linecap: square"/>
   </g>
   <g id="line2d_8">
    <path d="M 47.158268 102.698233 
L 56.258411 101.061907 
L 65.358554 101.776042 
L 74.458697 101.538302 
L 83.55884 102.200549 
L 92.658983 102.708116 
L 101.759125 102.692513 
L 110.859268 102.697048 
L 119.959411 102.707067 
L 129.059554 102.708962 
L 147.25984 102.70133 
L 165.460126 99.339662 
L 183.660412 102.708962 
L 201.860698 102.707371 
L 220.060984 101.950556 
L 238.261269 102.707371 
L 256.461555 102.697708 
L 274.661841 102.679532 
L 292.862127 102.626308 
L 311.062413 102.56865 
L 329.262699 101.706165 
L 347.462984 102.322973 
L 365.66327 353.220215 
L 383.863556 353.218781 
L 402.063842 353.223509 
L 420.264128 352.688808 
L 438.464414 352.624408 
L 456.6647 352.390534 
L 474.864985 353.219745 
L 493.065271 351.601241 
L 511.265557 353.215883 
L 529.465843 353.210881 
L 547.666129 353.223844 
L 565.866415 351.404012 
L 584.066701 351.786077 
L 602.266986 352.403355 
L 620.467272 352.806596 
L 638.667558 353.213521 
L 656.867844 352.395897 
L 675.06813 350.344596 
L 693.268416 353.192435 
L 711.468701 352.405898 
L 729.668987 353.223088 
L 747.869273 353.223616 
L 766.069559 353.210949 
L 784.269845 353.222683 
L 802.470131 353.216805 
L 820.670417 353.20987 
L 838.870702 351.51314 
L 857.070988 353.188747 
L 875.271274 348.480689 
L 893.47156 353.202981 
L 911.671846 353.222066 
L 929.872132 353.220665 
L 948.072418 353.2239 
" clip-path="url(#p48b18dffe3)" style="fill: none; stroke: #f0ad4e; stroke-linecap: square"/>
   </g>
   <g id="line2d_9">
    <path d="M 47.158268 263.931679 
L 56.258411 262.154456 
L 65.358554 262.870394 
L 74.458697 262.646285 
L 83.55884 263.355232 
L 92.658983 263.943613 
L 101.759125 263.92346 
L 110.859268 263.93048 
L 119.959411 263.942326 
L 129.059554 263.944168 
L 147.25984 263.936271 
L 165.460126 260.464733 
L 183.660412 263.944168 
L 201.860698 263.942092 
L 220.060984 263.196802 
L 238.261269 263.943364 
L 256.461555 263.939401 
L 274.661841 263.933083 
L 292.862127 263.920462 
L 311.062413 263.900748 
L 329.262699 263.110283 
L 347.462984 263.805205 
L 365.66327 353.220424 
L 383.863556 353.218263 
L 402.063842 353.223552 
L 420.264128 352.731891 
L 438.464414 352.667662 
L 456.6647 352.454358 
L 474.864985 353.219183 
L 493.065271 351.72859 
L 511.265557 353.215885 
L 529.465843 353.211391 
L 547.666129 353.223809 
L 565.866415 351.56183 
L 584.066701 351.682009 
L 602.266986 352.467769 
L 620.467272 352.787555 
L 638.667558 353.2135 
L 656.867844 352.46127 
L 675.06813 350.368301 
L 693.268416 353.193064 
L 711.468701 352.47124 
L 729.668987 353.222788 
L 747.869273 353.223595 
L 766.069559 353.211453 
L 784.269845 353.222536 
L 802.470131 353.217201 
L 820.670417 353.208994 
L 838.870702 351.527958 
L 857.070988 353.189041 
L 875.271274 348.691185 
L 893.47156 353.20275 
L 911.671846 353.222343 
L 929.872132 353.221 
L 948.072418 353.2239 
" clip-path="url(#p48b18dffe3)" style="fill: none; stroke: #5cb85c; stroke-linecap: square"/>
   </g>
   <g id="line2d_10">
    <path d="M 47.158268 322.829544 
L 56.258411 321.022787 
L 65.358554 321.802518 
L 74.458697 321.571956 
L 83.55884 322.272608 
L 92.658983 322.84137 
L 101.759125 322.821423 
L 110.859268 322.828699 
L 119.959411 322.84058 
L 129.059554 322.842161 
L 147.25984 322.833618 
L 165.460126 319.312195 
L 183.660412 322.842161 
L 201.860698 322.840008 
L 220.060984 322.049635 
L 238.261269 322.841547 
L 256.461555 322.838945 
L 274.661841 322.835484 
L 292.862127 322.82829 
L 311.062413 322.813316 
L 329.262699 321.983976 
L 347.462984 322.739959 
L 365.66327 353.22007 
L 383.863556 353.217604 
L 402.063842 353.223611 
L 420.264128 352.71981 
L 438.464414 352.66419 
L 456.6647 352.42182 
L 474.864985 353.219504 
L 493.065271 351.666032 
L 511.265557 353.215837 
L 529.465843 353.210404 
L 547.666129 353.223831 
L 565.866415 351.506113 
L 584.066701 351.743261 
L 602.266986 352.436199 
L 620.467272 352.791608 
L 638.667558 353.214219 
L 656.867844 352.428823 
L 675.06813 350.332452 
L 693.268416 353.193674 
L 711.468701 352.43994 
L 729.668987 353.22286 
L 747.869273 353.223622 
L 766.069559 353.209261 
L 784.269845 353.222436 
L 802.470131 353.216464 
L 820.670417 353.209685 
L 838.870702 351.515905 
L 857.070988 353.189303 
L 875.271274 348.624761 
L 893.47156 353.201928 
L 911.671846 353.222082 
L 929.872132 353.220516 
L 948.072418 353.2239 
" clip-path="url(#p48b18dffe3)" style="fill: none; stroke: #5cb85c; stroke-linecap: square"/>
   </g>
   <g id="line2d_11">
    <path d="M 47.158268 297.42442 
L 56.258411 295.685496 
L 65.358554 296.431921 
L 74.458697 296.204105 
L 83.55884 296.888566 
L 92.658983 297.434113 
L 101.759125 297.414608 
L 110.859268 297.422814 
L 119.959411 297.43334 
L 129.059554 297.434589 
L 147.25984 297.426472 
L 165.460126 293.593072 
L 183.660412 297.434589 
L 201.860698 297.432775 
L 220.060984 296.86689 
L 238.261269 297.434054 
L 256.461555 297.431705 
L 274.661841 297.428166 
L 292.862127 297.419603 
L 311.062413 297.405896 
L 329.262699 296.80332 
L 347.462984 297.337004 
L 365.66327 353.220623 
L 383.863556 353.218893 
L 402.063842 353.223475 
L 420.264128 352.787123 
L 438.464414 352.645158 
L 456.6647 352.643791 
L 474.864985 353.219711 
L 493.065271 352.106707 
L 511.265557 353.217251 
L 529.465843 353.214305 
L 547.666129 353.22387 
L 565.866415 351.837172 
L 584.066701 351.766479 
L 602.266986 352.657933 
L 620.467272 352.833843 
L 638.667558 353.21441 
L 656.867844 352.651713 
L 675.06813 350.848526 
L 693.268416 353.198484 
L 711.468701 352.662089 
L 729.668987 353.223045 
L 747.869273 353.223655 
L 766.069559 353.214649 
L 784.269845 353.222488 
L 802.470131 353.217471 
L 820.670417 353.210758 
L 838.870702 351.756191 
L 857.070988 353.193255 
L 875.271274 348.192322 
L 893.47156 353.203585 
L 911.671846 353.222536 
L 929.872132 353.220888 
L 948.072418 353.2239 
" clip-path="url(#p48b18dffe3)" style="fill: none; stroke: #5cb85c; stroke-linecap: square"/>
   </g>
   <g id="line2d_12">
    <path d="M 47.158268 259.251938 
L 56.258411 257.456009 
L 65.358554 258.143169 
L 74.458697 257.935197 
L 83.55884 258.656942 
L 92.658983 259.263434 
L 101.759125 259.244122 
L 110.859268 259.251384 
L 119.959411 259.262717 
L 129.059554 259.264216 
L 147.25984 259.256676 
L 165.460126 255.868345 
L 183.660412 259.264216 
L 201.860698 259.261838 
L 220.060984 258.529753 
L 238.261269 259.263694 
L 256.461555 259.261236 
L 274.661841 259.257409 
L 292.862127 259.245897 
L 311.062413 259.230883 
L 329.262699 258.456103 
L 347.462984 259.143409 
L 365.66327 353.220647 
L 383.863556 353.217545 
L 402.063842 353.223479 
L 420.264128 352.776146 
L 438.464414 352.719175 
L 456.6647 352.468957 
L 474.864985 353.219398 
L 493.065271 351.756378 
L 511.265557 353.217947 
L 529.465843 353.211873 
L 547.666129 353.223849 
L 565.866415 351.652461 
L 584.066701 351.631529 
L 602.266986 352.482688 
L 620.467272 352.760241 
L 638.667558 353.215483 
L 656.867844 352.474859 
L 675.06813 350.351854 
L 693.268416 353.195879 
L 711.468701 352.485278 
L 729.668987 353.223068 
L 747.869273 353.223577 
L 766.069559 353.209971 
L 784.269845 353.223063 
L 802.470131 353.21761 
L 820.670417 353.211532 
L 838.870702 351.47919 
L 857.070988 353.193265 
L 875.271274 348.967315 
L 893.47156 353.20319 
L 911.671846 353.222154 
L 929.872132 353.221106 
L 948.072418 353.2239 
" clip-path="url(#p48b18dffe3)" style="fill: none; stroke: #5cb85c; stroke-linecap: square"/>
   </g>
   <g id="line2d_13">
    <path d="M 47.158268 246.104054 
L 56.258411 244.290149 
L 65.358554 244.970911 
L 74.458697 244.76523 
L 83.55884 245.4887 
L 92.658983 246.116484 
L 101.759125 246.097823 
L 110.859268 246.103772 
L 119.959411 246.115169 
L 129.059554 246.117141 
L 147.25984 246.109909 
L 165.460126 242.74937 
L 183.660412 246.117141 
L 201.860698 246.115122 
L 220.060984 245.429929 
L 238.261269 246.116265 
L 256.461555 246.112085 
L 274.661841 246.105995 
L 292.862127 246.088195 
L 311.062413 246.065666 
L 329.262699 245.324004 
L 347.462984 245.947859 
L 365.66327 353.2203 
L 383.863556 353.218444 
L 402.063842 353.223493 
L 420.264128 352.811419 
L 438.464414 352.747496 
L 456.6647 352.515921 
L 474.864985 353.218653 
L 493.065271 351.848777 
L 511.265557 353.21681 
L 529.465843 353.21089 
L 547.666129 353.223867 
L 565.866415 351.770138 
L 584.066701 351.570681 
L 602.266986 352.528776 
L 620.467272 352.751153 
L 638.667558 353.214172 
L 656.867844 352.519998 
L 675.06813 350.390113 
L 693.268416 353.194609 
L 711.468701 352.530859 
L 729.668987 353.222814 
L 747.869273 353.223735 
L 766.069559 353.209118 
L 784.269845 353.222872 
L 802.470131 353.217091 
L 820.670417 353.211007 
L 838.870702 351.505011 
L 857.070988 353.193039 
L 875.271274 349.141484 
L 893.47156 353.202909 
L 911.671846 353.221965 
L 929.872132 353.220629 
L 948.072418 353.2239 
" clip-path="url(#p48b18dffe3)" style="fill: none; stroke: #5cb85c; stroke-linecap: square"/>
   </g>
   <g id="line2d_14">
    <path d="M 47.158268 310.451402 
L 56.258411 308.658267 
L 65.358554 309.384049 
L 74.458697 309.168291 
L 83.55884 309.87473 
L 92.658983 310.464714 
L 101.759125 310.445741 
L 110.859268 310.452739 
L 119.959411 310.463889 
L 129.059554 310.46571 
L 147.25984 310.458243 
L 165.460126 306.852772 
L 183.660412 310.46571 
L 201.860698 310.463633 
L 220.060984 309.741706 
L 238.261269 310.465056 
L 256.461555 310.461699 
L 274.661841 310.456821 
L 292.862127 310.446666 
L 311.062413 310.428731 
L 329.262699 309.663538 
L 347.462984 310.337934 
L 365.66327 353.220303 
L 383.863556 353.218583 
L 402.063842 353.223582 
L 420.264128 352.755152 
L 438.464414 352.660604 
L 456.6647 352.49184 
L 474.864985 353.219622 
L 493.065271 351.802473 
L 511.265557 353.216874 
L 529.465843 353.211334 
L 547.666129 353.223842 
L 565.866415 351.637736 
L 584.066701 351.676267 
L 602.266986 352.505671 
L 620.467272 352.785344 
L 638.667558 353.215242 
L 656.867844 352.497882 
L 675.06813 350.439278 
L 693.268416 353.19533 
L 711.468701 352.508627 
L 729.668987 353.22282 
L 747.869273 353.223695 
L 766.069559 353.210251 
L 784.269845 353.222489 
L 802.470131 353.217453 
L 820.670417 353.210865 
L 838.870702 351.538455 
L 857.070988 353.192818 
L 875.271274 348.565796 
L 893.47156 353.202923 
L 911.671846 353.222253 
L 929.872132 353.220866 
L 948.072418 353.2239 
" clip-path="url(#p48b18dffe3)" style="fill: none; stroke: #5cb85c; stroke-linecap: square"/>
   </g>
   <g id="line2d_15">
    <path d="M 47.158268 191.510084 
L 56.258411 189.895059 
L 65.358554 190.623587 
L 74.458697 190.404702 
L 83.55884 191.063746 
L 92.658983 191.520985 
L 101.759125 191.502564 
L 110.859268 191.512357 
L 119.959411 191.520052 
L 129.059554 191.521742 
L 147.25984 191.513698 
L 165.460126 187.93524 
L 183.660412 191.521742 
L 201.860698 191.520081 
L 220.060984 190.744979 
L 238.261269 191.520693 
L 256.461555 191.514981 
L 274.661841 191.504051 
L 292.862127 191.474439 
L 311.062413 191.438473 
L 329.262699 190.58456 
L 347.462984 191.2673 
L 365.66327 353.22034 
L 383.863556 353.218017 
L 402.063842 353.223126 
L 420.264128 352.648796 
L 438.464414 352.541873 
L 456.6647 352.392965 
L 474.864985 353.220554 
L 493.065271 351.611228 
L 511.265557 353.216771 
L 529.465843 353.211281 
L 547.666129 353.223807 
L 565.866415 351.340984 
L 584.066701 351.94188 
L 602.266986 352.409807 
L 620.467272 352.844884 
L 638.667558 353.214756 
L 656.867844 352.399411 
L 675.06813 350.496138 
L 693.268416 353.196488 
L 711.468701 352.411892 
L 729.668987 353.223212 
L 747.869273 353.223524 
L 766.069559 353.210564 
L 784.269845 353.222642 
L 802.470131 353.216809 
L 820.670417 353.209423 
L 838.870702 351.609726 
L 857.070988 353.190897 
L 875.271274 348.111925 
L 893.47156 353.202907 
L 911.671846 353.222308 
L 929.872132 353.219986 
L 948.072418 353.2239 
" clip-path="url(#p48b18dffe3)" style="fill: none; stroke: #f0ad4e; stroke-linecap: square"/>
   </g>
   <g id="line2d_16">
    <path d="M 47.158268 260.349139 
L 56.258411 258.643954 
L 65.358554 259.334484 
L 74.458697 259.120408 
L 83.55884 259.823154 
L 92.658983 260.360301 
L 101.759125 260.343148 
L 110.859268 260.34946 
L 119.959411 260.359629 
L 129.059554 260.361032 
L 147.25984 260.352748 
L 165.460126 256.940814 
L 183.660412 260.361032 
L 201.860698 260.359512 
L 220.060984 259.587103 
L 238.261269 260.360477 
L 256.461555 260.357438 
L 274.661841 260.352426 
L 292.862127 260.340007 
L 311.062413 260.311882 
L 329.262699 259.474879 
L 347.462984 260.16069 
L 365.66327 353.22009 
L 383.863556 353.218789 
L 402.063842 353.223492 
L 420.264128 352.723695 
L 438.464414 352.649179 
L 456.6647 352.424589 
L 474.864985 353.219723 
L 493.065271 351.668175 
L 511.265557 353.217192 
L 529.465843 353.211583 
L 547.666129 353.22387 
L 565.866415 351.514983 
L 584.066701 351.743731 
L 602.266986 352.437945 
L 620.467272 352.799258 
L 638.667558 353.21492 
L 656.867844 352.429323 
L 675.06813 350.37088 
L 693.268416 353.195424 
L 711.468701 352.439985 
L 729.668987 353.222949 
L 747.869273 353.223654 
L 766.069559 353.21105 
L 784.269845 353.222662 
L 802.470131 353.216757 
L 820.670417 353.210383 
L 838.870702 351.542333 
L 857.070988 353.191897 
L 875.271274 348.653958 
L 893.47156 353.203385 
L 911.671846 353.222253 
L 929.872132 353.220794 
L 948.072418 353.2239 
" clip-path="url(#p48b18dffe3)" style="fill: none; stroke: #5cb85c; stroke-linecap: square"/>
   </g>
   <g id="line2d_17">
    <path d="M 47.158268 320.88845 
L 56.258411 319.120469 
L 65.358554 319.89082 
L 74.458697 319.634204 
L 83.55884 320.355312 
L 92.658983 320.900246 
L 101.759125 320.880766 
L 110.859268 320.888993 
L 119.959411 320.899082 
L 129.059554 320.900828 
L 147.25984 320.892776 
L 165.460126 317.272453 
L 183.660412 320.900828 
L 201.860698 320.898849 
L 220.060984 320.071029 
L 238.261269 320.900421 
L 256.461555 320.897685 
L 274.661841 320.893766 
L 292.862127 320.886529 
L 311.062413 320.873316 
L 329.262699 320.010008 
L 347.462984 320.806591 
L 365.66327 353.220248 
L 383.863556 353.217225 
L 402.063842 353.223566 
L 420.264128 352.72224 
L 438.464414 352.646058 
L 456.6647 352.383423 
L 474.864985 353.220032 
L 493.065271 351.587596 
L 511.265557 353.217065 
L 529.465843 353.212291 
L 547.666129 353.223821 
L 565.866415 351.49586 
L 584.066701 351.856996 
L 602.266986 352.398562 
L 620.467272 352.823795 
L 638.667558 353.21487 
L 656.867844 352.390144 
L 675.06813 350.415297 
L 693.268416 353.196038 
L 711.468701 352.400837 
L 729.668987 353.223091 
L 747.869273 353.223762 
L 766.069559 353.21128 
L 784.269845 353.222474 
L 802.470131 353.217055 
L 820.670417 353.211474 
L 838.870702 351.503861 
L 857.070988 353.190724 
L 875.271274 348.850542 
L 893.47156 353.200168 
L 911.671846 353.222214 
L 929.872132 353.220901 
L 948.072418 353.223835 
" clip-path="url(#p48b18dffe3)" style="fill: none; stroke: #5cb85c; stroke-linecap: square"/>
   </g>
   <g id="line2d_18">
    <path d="M 47.158268 278.852225 
L 56.258411 277.109101 
L 65.358554 277.86552 
L 74.458697 277.611923 
L 83.55884 278.328169 
L 92.658983 278.862175 
L 101.759125 278.846676 
L 110.859268 278.850644 
L 119.959411 278.861586 
L 129.059554 278.86295 
L 147.25984 278.853759 
L 165.460126 275.272206 
L 183.660412 278.86295 
L 201.860698 278.861199 
L 220.060984 278.064048 
L 238.261269 278.86216 
L 256.461555 278.858564 
L 274.661841 278.852814 
L 292.862127 278.840864 
L 311.062413 278.818933 
L 329.262699 277.977609 
L 347.462984 278.716251 
L 365.66327 353.220667 
L 383.863556 353.218134 
L 402.063842 353.223581 
L 420.264128 352.718234 
L 438.464414 352.650978 
L 456.6647 352.403107 
L 474.864985 353.219996 
L 493.065271 351.628317 
L 511.265557 353.216408 
L 529.465843 353.211607 
L 547.666129 353.223836 
L 565.866415 351.479739 
L 584.066701 351.789916 
L 602.266986 352.417286 
L 620.467272 352.803389 
L 638.667558 353.214339 
L 656.867844 352.41119 
L 675.06813 350.361139 
L 693.268416 353.194802 
L 711.468701 352.42123 
L 729.668987 353.22271 
L 747.869273 353.223642 
L 766.069559 353.210718 
L 784.269845 353.22259 
L 802.470131 353.217691 
L 820.670417 353.209575 
L 838.870702 351.54335 
L 857.070988 353.190133 
L 875.271274 348.711742 
L 893.47156 353.202756 
L 911.671846 353.221995 
L 929.872132 353.221141 
L 948.072418 353.2239 
" clip-path="url(#p48b18dffe3)" style="fill: none; stroke: #5cb85c; stroke-linecap: square"/>
   </g>
   <g id="line2d_19">
    <path d="M 47.158268 220.760105 
L 56.258411 219.009374 
L 65.358554 219.73452 
L 74.458697 219.51206 
L 83.55884 220.216716 
L 92.658983 220.771609 
L 101.759125 220.752695 
L 110.859268 220.760244 
L 119.959411 220.771139 
L 129.059554 220.772452 
L 147.25984 220.764557 
L 165.460126 217.358328 
L 183.660412 220.772466 
L 201.860698 220.770392 
L 220.060984 220.000685 
L 238.261269 220.77183 
L 256.461555 220.768304 
L 274.661841 220.762636 
L 292.862127 220.749529 
L 311.062413 220.726398 
L 329.262699 219.903073 
L 347.462984 220.61214 
L 365.66327 353.220168 
L 383.863556 353.21828 
L 402.063842 353.223392 
L 420.264128 352.705632 
L 438.464414 352.652886 
L 456.6647 352.41397 
L 474.864985 353.219614 
L 493.065271 351.650748 
L 511.265557 353.216865 
L 529.465843 353.211033 
L 547.666129 353.223842 
L 565.866415 351.482145 
L 584.066701 351.735689 
L 602.266986 352.429514 
L 620.467272 352.792777 
L 638.667558 353.21372 
L 656.867844 352.420729 
L 675.06813 350.335225 
L 693.268416 353.193848 
L 711.468701 352.431111 
L 729.668987 353.222887 
L 747.869273 353.223738 
L 766.069559 353.21021 
L 784.269845 353.222689 
L 802.470131 353.216952 
L 820.670417 353.209037 
L 838.870702 351.516621 
L 857.070988 353.190069 
L 875.271274 348.66668 
L 893.47156 353.202686 
L 911.671846 353.222353 
L 929.872132 353.220396 
L 948.072418 353.2239 
" clip-path="url(#p48b18dffe3)" style="fill: none; stroke: #5cb85c; stroke-linecap: square"/>
   </g>
   <g id="line2d_20">
    <path d="M 47.158268 331.730761 
L 56.258411 329.985643 
L 65.358554 330.785674 
L 74.458697 330.529355 
L 83.55884 331.259663 
L 92.658983 331.742411 
L 101.759125 331.725789 
L 110.859268 331.731773 
L 119.959411 331.741486 
L 129.059554 331.74322 
L 147.25984 331.734143 
L 165.460126 328.036903 
L 183.660412 331.74322 
L 201.860698 331.741226 
L 220.060984 330.889161 
L 238.261269 331.7427 
L 256.461555 331.740084 
L 274.661841 331.735025 
L 292.862127 331.724864 
L 311.062413 331.705583 
L 329.262699 330.809465 
L 347.462984 331.611375 
L 365.66327 353.219719 
L 383.863556 353.217985 
L 402.063842 353.223405 
L 420.264128 352.668842 
L 438.464414 352.589876 
L 456.6647 352.359501 
L 474.864985 353.220432 
L 493.065271 351.543813 
L 511.265557 353.216028 
L 529.465843 353.211376 
L 547.666129 353.223783 
L 565.866415 351.362097 
L 584.066701 351.888871 
L 602.266986 352.375135 
L 620.467272 352.840084 
L 638.667558 353.214534 
L 656.867844 352.36724 
L 675.06813 350.376741 
L 693.268416 353.193917 
L 711.468701 352.37863 
L 729.668987 353.222976 
L 747.869273 353.223592 
L 766.069559 353.21087 
L 784.269845 353.222427 
L 802.470131 353.216641 
L 820.670417 353.209573 
L 838.870702 351.565023 
L 857.070988 353.188156 
L 875.271274 348.468907 
L 893.47156 353.202096 
L 911.671846 353.22227 
L 929.872132 353.220688 
L 948.072418 353.2239 
" clip-path="url(#p48b18dffe3)" style="fill: none; stroke: #5cb85c; stroke-linecap: square"/>
   </g>
   <g id="line2d_21">
    <path d="M 47.158268 283.362176 
L 56.258411 281.596515 
L 65.358554 282.328879 
L 74.458697 282.107995 
L 83.55884 282.824493 
L 92.658983 283.374195 
L 101.759125 283.355685 
L 110.859268 283.363309 
L 119.959411 283.373096 
L 129.059554 283.374882 
L 147.25984 283.36652 
L 165.460126 279.804256 
L 183.660412 283.374882 
L 201.860698 283.37301 
L 220.060984 282.605979 
L 238.261269 283.373783 
L 256.461555 283.368134 
L 274.661841 283.359789 
L 292.862127 283.339287 
L 311.062413 283.308758 
L 329.262699 282.469094 
L 347.462984 283.145224 
L 365.66327 353.219936 
L 383.863556 353.217892 
L 402.063842 353.22346 
L 420.264128 352.725749 
L 438.464414 352.639213 
L 456.6647 352.435444 
L 474.864985 353.219721 
L 493.065271 351.693413 
L 511.265557 353.216138 
L 529.465843 353.210047 
L 547.666129 353.223794 
L 565.866415 351.547875 
L 584.066701 351.799432 
L 602.266986 352.44991 
L 620.467272 352.812136 
L 638.667558 353.214357 
L 656.867844 352.442403 
L 675.06813 350.432745 
L 693.268416 353.192831 
L 711.468701 352.453163 
L 729.668987 353.222868 
L 747.869273 353.223757 
L 766.069559 353.210171 
L 784.269845 353.222559 
L 802.470131 353.216946 
L 820.670417 353.210551 
L 838.870702 351.555873 
L 857.070988 353.189596 
L 875.271274 348.788243 
L 893.47156 353.2027 
L 911.671846 353.222099 
L 929.872132 353.220594 
L 948.072418 353.2239 
" clip-path="url(#p48b18dffe3)" style="fill: none; stroke: #5cb85c; stroke-linecap: square"/>
   </g>
   <g id="line2d_22">
    <path d="M 47.158268 299.019019 
L 56.258411 297.206855 
L 65.358554 297.966662 
L 74.458697 297.719917 
L 83.55884 298.452137 
L 92.658983 299.032214 
L 101.759125 299.013163 
L 110.859268 299.020346 
L 119.959411 299.031511 
L 129.059554 299.032864 
L 147.25984 299.023703 
L 165.460126 295.453118 
L 183.660412 299.032864 
L 201.860698 299.030756 
L 220.060984 298.230948 
L 238.261269 299.032136 
L 256.461555 299.028323 
L 274.661841 299.021634 
L 292.862127 299.005421 
L 311.062413 298.979565 
L 329.262699 298.121812 
L 347.462984 298.843739 
L 365.66327 353.220874 
L 383.863556 353.218099 
L 402.063842 353.223581 
L 420.264128 352.718904 
L 438.464414 352.662333 
L 456.6647 352.407292 
L 474.864985 353.220141 
L 493.065271 351.635511 
L 511.265557 353.215965 
L 529.465843 353.210696 
L 547.666129 353.223847 
L 565.866415 351.484231 
L 584.066701 351.717923 
L 602.266986 352.42018 
L 620.467272 352.787648 
L 638.667558 353.213781 
L 656.867844 352.413774 
L 675.06813 350.291381 
L 693.268416 353.192945 
L 711.468701 352.423071 
L 729.668987 353.222825 
L 747.869273 353.223617 
L 766.069559 353.21053 
L 784.269845 353.222345 
L 802.470131 353.217865 
L 820.670417 353.209045 
L 838.870702 351.50411 
L 857.070988 353.1888 
L 875.271274 348.576502 
L 893.47156 353.202456 
L 911.671846 353.222095 
L 929.872132 353.220674 
L 948.072418 353.2239 
" clip-path="url(#p48b18dffe3)" style="fill: none; stroke: #5cb85c; stroke-linecap: square"/>
   </g>
   <g id="line2d_23">
    <path d="M 38.058125 353.2239 
L 993.118125 353.2239 
" clip-path="url(#p48b18dffe3)" style="fill: none; stroke: #dedede; stroke-width: 2; stroke-linecap: square"/>
   </g>
   <g id="text_15">
    <!-- FastQC: Per Base N Content -->
    <g transform="translate(404.734375 19.3575) scale(0.16 -0.16)">
     <defs>
      <path id="DejaVuSans-46" d="M 628 4666 
L 3309 4666 
L 3309 4134 
L 1259 4134 
L 1259 2759 
L 3109 2759 
L 3109 2228 
L 1259 2228 
L 1259 0 
L 628 0 
L 628 4666 
z
" transform="scale(0.015625)"/>
      <path id="DejaVuSans-51" d="M 2522 4238 
Q 1834 4238 1429 3725 
Q 1025 3213 1025 2328 
Q 1025 1447 1429 934 
Q 1834 422 2522 422 
Q 3209 422 3611 934 
Q 4013 1447 4013 2328 
Q 4013 3213 3611 3725 
Q 3209 4238 2522 4238 
z
M 3406 84 
L 4238 -825 
L 3475 -825 
L 2784 -78 
Q 2681 -84 2626 -87 
Q 2572 -91 2522 -91 
Q 1538 -91 948 567 
Q 359 1225 359 2328 
Q 359 3434 948 4092 
Q 1538 4750 2522 4750 
Q 3503 4750 4090 4092 
Q 4678 3434 4678 2328 
Q 4678 1516 4351 937 
Q 4025 359 3406 84 
z
" transform="scale(0.015625)"/>
      <path id="DejaVuSans-3a" d="M 750 794 
L 1409 794 
L 1409 0 
L 750 0 
L 750 794 
z
M 750 3309 
L 1409 3309 
L 1409 2516 
L 750 2516 
L 750 3309 
z
" transform="scale(0.015625)"/>
      <path id="DejaVuSans-42" d="M 1259 2228 
L 1259 519 
L 2272 519 
Q 2781 519 3026 730 
Q 3272 941 3272 1375 
Q 3272 1813 3026 2020 
Q 2781 2228 2272 2228 
L 1259 2228 
z
M 1259 4147 
L 1259 2741 
L 2194 2741 
Q 2656 2741 2882 2914 
Q 3109 3088 3109 3444 
Q 3109 3797 2882 3972 
Q 2656 4147 2194 4147 
L 1259 4147 
z
M 628 4666 
L 2241 4666 
Q 2963 4666 3353 4366 
Q 3744 4066 3744 3513 
Q 3744 3084 3544 2831 
Q 3344 2578 2956 2516 
Q 3422 2416 3680 2098 
Q 3938 1781 3938 1306 
Q 3938 681 3513 340 
Q 3088 0 2303 0 
L 628 0 
L 628 4666 
z
" transform="scale(0.015625)"/>
     </defs>
     <use xlink:href="#DejaVuSans-46"/>
     <use xlink:href="#DejaVuSans-61" x="48.394531"/>
     <use xlink:href="#DejaVuSans-73" x="109.673828"/>
     <use xlink:href="#DejaVuSans-74" x="161.773438"/>
     <use xlink:href="#DejaVuSans-51" x="200.982422"/>
     <use xlink:href="#DejaVuSans-43" x="279.693359"/>
     <use xlink:href="#DejaVuSans-3a" x="349.517578"/>
     <use xlink:href="#DejaVuSans-20" x="383.208984"/>
     <use xlink:href="#DejaVuSans-50" x="414.996094"/>
     <use xlink:href="#DejaVuSans-65" x="471.673828"/>
     <use xlink:href="#DejaVuSans-72" x="533.197266"/>
     <use xlink:href="#DejaVuSans-20" x="574.310547"/>
     <use xlink:href="#DejaVuSans-42" x="606.097656"/>
     <use xlink:href="#DejaVuSans-61" x="674.701172"/>
     <use xlink:href="#DejaVuSans-73" x="735.980469"/>
     <use xlink:href="#DejaVuSans-65" x="788.080078"/>
     <use xlink:href="#DejaVuSans-20" x="849.603516"/>
     <use xlink:href="#DejaVuSans-4e" x="881.390625"/>
     <use xlink:href="#DejaVuSans-20" x="956.195312"/>
     <use xlink:href="#DejaVuSans-43" x="987.982422"/>
     <use xlink:href="#DejaVuSans-6f" x="1057.806641"/>
     <use xlink:href="#DejaVuSans-6e" x="1118.988281"/>
     <use xlink:href="#DejaVuSans-74" x="1182.367188"/>
     <use xlink:href="#DejaVuSans-65" x="1221.576172"/>
     <use xlink:href="#DejaVuSans-6e" x="1283.099609"/>
     <use xlink:href="#DejaVuSans-74" x="1346.478516"/>
    </g>
   </g>
  </g>
 </g>
 <defs>
  <clipPath id="p48b18dffe3">
   <rect x="38.058125" y="35.2559" width="955.06" height="317.968"/>
  </clipPath>
 </defs>
</svg>
