<?xml version="1.0" encoding="utf-8" standalone="no"?>
<!DOCTYPE svg PUBLIC "-//W3C//DTD SVG 1.1//EN"
  "http://www.w3.org/Graphics/SVG/1.1/DTD/svg11.dtd">
<svg xmlns:xlink="http://www.w3.org/1999/xlink" width="1000.358125pt" height="388.844525pt" viewBox="0 0 1000.358125 388.844525" xmlns="http://www.w3.org/2000/svg" version="1.1">
 <metadata>
  <rdf:RDF xmlns:dc="http://purl.org/dc/elements/1.1/" xmlns:cc="http://creativecommons.org/ns#" xmlns:rdf="http://www.w3.org/1999/02/22-rdf-syntax-ns#">
   <cc:Work>
    <dc:type rdf:resource="http://purl.org/dc/dcmitype/StillImage"/>
    <dc:date>2024-09-05T13:39:12.848756</dc:date>
    <dc:format>image/svg+xml</dc:format>
    <dc:creator>
     <cc:Agent>
      <dc:title>Matplotlib v3.8.2, https://matplotlib.org/</dc:title>
     </cc:Agent>
    </dc:creator>
   </cc:Work>
  </rdf:RDF>
 </metadata>
 <defs>
  <style type="text/css">*{stroke-linejoin: round; stroke-linecap: butt}</style>
 </defs>
 <g id="figure_1">
  <g id="axes_1">
   <g id="patch_1">
    <path d="M 32.968125 353.2239 
L 993.158125 353.2239 
L 993.158125 35.2559 
L 32.968125 35.2559 
z
" style="fill: #ffffff"/>
   </g>
   <g id="patch_2">
    <path d="M 32.968125 -918.6481 
L 959.546458 -918.6481 
L 959.546458 -6006.1361 
L 32.968125 -6006.1361 
z
" clip-path="url(#pa87a481e18)" style="fill: #e6c3c3"/>
   </g>
   <g id="patch_3">
    <path d="M 32.968125 35.2559 
L 959.546458 35.2559 
L 959.546458 -918.6481 
L 32.968125 -918.6481 
z
" clip-path="url(#pa87a481e18)" style="fill: #e6dcc3"/>
   </g>
   <g id="patch_4">
    <path d="M 32.968125 353.2239 
L 959.546458 353.2239 
L 959.546458 35.2559 
L 32.968125 35.2559 
z
" clip-path="url(#pa87a481e18)" style="fill: #c3e6c3"/>
   </g>
   <g id="matplotlib.axis_1">
    <g id="xtick_1">
     <g id="text_1">
      <!-- 0 -->
      <g transform="translate(64.034792 366.30265) scale(0.08 -0.08)">
       <defs>
        <path id="DejaVuSans-30" d="M 2034 4250 
Q 1547 4250 1301 3770 
Q 1056 3291 1056 2328 
Q 1056 1369 1301 889 
Q 1547 409 2034 409 
Q 2525 409 2770 889 
Q 3016 1369 3016 2328 
Q 3016 3291 2770 3770 
Q 2525 4250 2034 4250 
z
M 2034 4750 
Q 2819 4750 3233 4129 
Q 3647 3509 3647 2328 
Q 3647 1150 3233 529 
Q 2819 -91 2034 -91 
Q 1250 -91 836 529 
Q 422 1150 422 2328 
Q 422 3509 836 4129 
Q 1250 4750 2034 4750 
z
" transform="scale(0.015625)"/>
       </defs>
       <use xlink:href="#DejaVuSans-30"/>
      </g>
     </g>
    </g>
    <g id="xtick_2">
     <g id="text_2">
      <!-- 20 -->
      <g transform="translate(262.156458 366.30265) scale(0.08 -0.08)">
       <defs>
        <path id="DejaVuSans-32" d="M 1228 531 
L 3431 531 
L 3431 0 
L 469 0 
L 469 531 
Q 828 903 1448 1529 
Q 2069 2156 2228 2338 
Q 2531 2678 2651 2914 
Q 2772 3150 2772 3378 
Q 2772 3750 2511 3984 
Q 2250 4219 1831 4219 
Q 1534 4219 1204 4116 
Q 875 4013 500 3803 
L 500 4441 
Q 881 4594 1212 4672 
Q 1544 4750 1819 4750 
Q 2544 4750 2975 4387 
Q 3406 4025 3406 3419 
Q 3406 3131 3298 2873 
Q 3191 2616 2906 2266 
Q 2828 2175 2409 1742 
Q 1991 1309 1228 531 
z
" transform="scale(0.015625)"/>
       </defs>
       <use xlink:href="#DejaVuSans-32"/>
       <use xlink:href="#DejaVuSans-30" x="63.623047"/>
      </g>
     </g>
    </g>
    <g id="xtick_3">
     <g id="text_3">
      <!-- 40 -->
      <g transform="translate(462.823125 366.30265) scale(0.08 -0.08)">
       <defs>
        <path id="DejaVuSans-34" d="M 2419 4116 
L 825 1625 
L 2419 1625 
L 2419 4116 
z
M 2253 4666 
L 3047 4666 
L 3047 1625 
L 3713 1625 
L 3713 1100 
L 3047 1100 
L 3047 0 
L 2419 0 
L 2419 1100 
L 313 1100 
L 313 1709 
L 2253 4666 
z
" transform="scale(0.015625)"/>
       </defs>
       <use xlink:href="#DejaVuSans-34"/>
       <use xlink:href="#DejaVuSans-30" x="63.623047"/>
      </g>
     </g>
    </g>
    <g id="xtick_4">
     <g id="text_4">
      <!-- 60 -->
      <g transform="translate(663.489792 366.30265) scale(0.08 -0.08)">
       <defs>
        <path id="DejaVuSans-36" d="M 2113 2584 
Q 1688 2584 1439 2293 
Q 1191 2003 1191 1497 
Q 1191 994 1439 701 
Q 1688 409 2113 409 
Q 2538 409 2786 701 
Q 3034 994 3034 1497 
Q 3034 2003 2786 2293 
Q 2538 2584 2113 2584 
z
M 3366 4563 
L 3366 3988 
Q 3128 4100 2886 4159 
Q 2644 4219 2406 4219 
Q 1781 4219 1451 3797 
Q 1122 3375 1075 2522 
Q 1259 2794 1537 2939 
Q 1816 3084 2150 3084 
Q 2853 3084 3261 2657 
Q 3669 2231 3669 1497 
Q 3669 778 3244 343 
Q 2819 -91 2113 -91 
Q 1303 -91 875 529 
Q 447 1150 447 2328 
Q 447 3434 972 4092 
Q 1497 4750 2381 4750 
Q 2619 4750 2861 4703 
Q 3103 4656 3366 4563 
z
" transform="scale(0.015625)"/>
       </defs>
       <use xlink:href="#DejaVuSans-36"/>
       <use xlink:href="#DejaVuSans-30" x="63.623047"/>
      </g>
     </g>
    </g>
    <g id="xtick_5">
     <g id="text_5">
      <!-- 80 -->
      <g transform="translate(864.156458 366.30265) scale(0.08 -0.08)">
       <defs>
        <path id="DejaVuSans-38" d="M 2034 2216 
Q 1584 2216 1326 1975 
Q 1069 1734 1069 1313 
Q 1069 891 1326 650 
Q 1584 409 2034 409 
Q 2484 409 2743 651 
Q 3003 894 3003 1313 
Q 3003 1734 2745 1975 
Q 2488 2216 2034 2216 
z
M 1403 2484 
Q 997 2584 770 2862 
Q 544 3141 544 3541 
Q 544 4100 942 4425 
Q 1341 4750 2034 4750 
Q 2731 4750 3128 4425 
Q 3525 4100 3525 3541 
Q 3525 3141 3298 2862 
Q 3072 2584 2669 2484 
Q 3125 2378 3379 2068 
Q 3634 1759 3634 1313 
Q 3634 634 3220 271 
Q 2806 -91 2034 -91 
Q 1263 -91 848 271 
Q 434 634 434 1313 
Q 434 1759 690 2068 
Q 947 2378 1403 2484 
z
M 1172 3481 
Q 1172 3119 1398 2916 
Q 1625 2713 2034 2713 
Q 2441 2713 2670 2916 
Q 2900 3119 2900 3481 
Q 2900 3844 2670 4047 
Q 2441 4250 2034 4250 
Q 1625 4250 1398 4047 
Q 1172 3844 1172 3481 
z
" transform="scale(0.015625)"/>
       </defs>
       <use xlink:href="#DejaVuSans-38"/>
       <use xlink:href="#DejaVuSans-30" x="63.623047"/>
      </g>
     </g>
    </g>
    <g id="text_6">
     <!-- Position (bp) -->
     <g transform="translate(481.76 379.564837) scale(0.1 -0.1)">
      <defs>
       <path id="DejaVuSans-50" d="M 1259 4147 
L 1259 2394 
L 2053 2394 
Q 2494 2394 2734 2622 
Q 2975 2850 2975 3272 
Q 2975 3691 2734 3919 
Q 2494 4147 2053 4147 
L 1259 4147 
z
M 628 4666 
L 2053 4666 
Q 2838 4666 3239 4311 
Q 3641 3956 3641 3272 
Q 3641 2581 3239 2228 
Q 2838 1875 2053 1875 
L 1259 1875 
L 1259 0 
L 628 0 
L 628 4666 
z
" transform="scale(0.015625)"/>
       <path id="DejaVuSans-6f" d="M 1959 3097 
Q 1497 3097 1228 2736 
Q 959 2375 959 1747 
Q 959 1119 1226 758 
Q 1494 397 1959 397 
Q 2419 397 2687 759 
Q 2956 1122 2956 1747 
Q 2956 2369 2687 2733 
Q 2419 3097 1959 3097 
z
M 1959 3584 
Q 2709 3584 3137 3096 
Q 3566 2609 3566 1747 
Q 3566 888 3137 398 
Q 2709 -91 1959 -91 
Q 1206 -91 779 398 
Q 353 888 353 1747 
Q 353 2609 779 3096 
Q 1206 3584 1959 3584 
z
" transform="scale(0.015625)"/>
       <path id="DejaVuSans-73" d="M 2834 3397 
L 2834 2853 
Q 2591 2978 2328 3040 
Q 2066 3103 1784 3103 
Q 1356 3103 1142 2972 
Q 928 2841 928 2578 
Q 928 2378 1081 2264 
Q 1234 2150 1697 2047 
L 1894 2003 
Q 2506 1872 2764 1633 
Q 3022 1394 3022 966 
Q 3022 478 2636 193 
Q 2250 -91 1575 -91 
Q 1294 -91 989 -36 
Q 684 19 347 128 
L 347 722 
Q 666 556 975 473 
Q 1284 391 1588 391 
Q 1994 391 2212 530 
Q 2431 669 2431 922 
Q 2431 1156 2273 1281 
Q 2116 1406 1581 1522 
L 1381 1569 
Q 847 1681 609 1914 
Q 372 2147 372 2553 
Q 372 3047 722 3315 
Q 1072 3584 1716 3584 
Q 2034 3584 2315 3537 
Q 2597 3491 2834 3397 
z
" transform="scale(0.015625)"/>
       <path id="DejaVuSans-69" d="M 603 3500 
L 1178 3500 
L 1178 0 
L 603 0 
L 603 3500 
z
M 603 4863 
L 1178 4863 
L 1178 4134 
L 603 4134 
L 603 4863 
z
" transform="scale(0.015625)"/>
       <path id="DejaVuSans-74" d="M 1172 4494 
L 1172 3500 
L 2356 3500 
L 2356 3053 
L 1172 3053 
L 1172 1153 
Q 1172 725 1289 603 
Q 1406 481 1766 481 
L 2356 481 
L 2356 0 
L 1766 0 
Q 1100 0 847 248 
Q 594 497 594 1153 
L 594 3053 
L 172 3053 
L 172 3500 
L 594 3500 
L 594 4494 
L 1172 4494 
z
" transform="scale(0.015625)"/>
       <path id="DejaVuSans-6e" d="M 3513 2113 
L 3513 0 
L 2938 0 
L 2938 2094 
Q 2938 2591 2744 2837 
Q 2550 3084 2163 3084 
Q 1697 3084 1428 2787 
Q 1159 2491 1159 1978 
L 1159 0 
L 581 0 
L 581 3500 
L 1159 3500 
L 1159 2956 
Q 1366 3272 1645 3428 
Q 1925 3584 2291 3584 
Q 2894 3584 3203 3211 
Q 3513 2838 3513 2113 
z
" transform="scale(0.015625)"/>
       <path id="DejaVuSans-20" transform="scale(0.015625)"/>
       <path id="DejaVuSans-28" d="M 1984 4856 
Q 1566 4138 1362 3434 
Q 1159 2731 1159 2009 
Q 1159 1288 1364 580 
Q 1569 -128 1984 -844 
L 1484 -844 
Q 1016 -109 783 600 
Q 550 1309 550 2009 
Q 550 2706 781 3412 
Q 1013 4119 1484 4856 
L 1984 4856 
z
" transform="scale(0.015625)"/>
       <path id="DejaVuSans-62" d="M 3116 1747 
Q 3116 2381 2855 2742 
Q 2594 3103 2138 3103 
Q 1681 3103 1420 2742 
Q 1159 2381 1159 1747 
Q 1159 1113 1420 752 
Q 1681 391 2138 391 
Q 2594 391 2855 752 
Q 3116 1113 3116 1747 
z
M 1159 2969 
Q 1341 3281 1617 3432 
Q 1894 3584 2278 3584 
Q 2916 3584 3314 3078 
Q 3713 2572 3713 1747 
Q 3713 922 3314 415 
Q 2916 -91 2278 -91 
Q 1894 -91 1617 61 
Q 1341 213 1159 525 
L 1159 0 
L 581 0 
L 581 4863 
L 1159 4863 
L 1159 2969 
z
" transform="scale(0.015625)"/>
       <path id="DejaVuSans-70" d="M 1159 525 
L 1159 -1331 
L 581 -1331 
L 581 3500 
L 1159 3500 
L 1159 2969 
Q 1341 3281 1617 3432 
Q 1894 3584 2278 3584 
Q 2916 3584 3314 3078 
Q 3713 2572 3713 1747 
Q 3713 922 3314 415 
Q 2916 -91 2278 -91 
Q 1894 -91 1617 61 
Q 1341 213 1159 525 
z
M 3116 1747 
Q 3116 2381 2855 2742 
Q 2594 3103 2138 3103 
Q 1681 3103 1420 2742 
Q 1159 2381 1159 1747 
Q 1159 1113 1420 752 
Q 1681 391 2138 391 
Q 2594 391 2855 752 
Q 3116 1113 3116 1747 
z
" transform="scale(0.015625)"/>
       <path id="DejaVuSans-29" d="M 513 4856 
L 1013 4856 
Q 1481 4119 1714 3412 
Q 1947 2706 1947 2009 
Q 1947 1309 1714 600 
Q 1481 -109 1013 -844 
L 513 -844 
Q 928 -128 1133 580 
Q 1338 1288 1338 2009 
Q 1338 2731 1133 3434 
Q 928 4138 513 4856 
z
" transform="scale(0.015625)"/>
      </defs>
      <use xlink:href="#DejaVuSans-50"/>
      <use xlink:href="#DejaVuSans-6f" x="56.677734"/>
      <use xlink:href="#DejaVuSans-73" x="117.859375"/>
      <use xlink:href="#DejaVuSans-69" x="169.958984"/>
      <use xlink:href="#DejaVuSans-74" x="197.742188"/>
      <use xlink:href="#DejaVuSans-69" x="236.951172"/>
      <use xlink:href="#DejaVuSans-6f" x="264.734375"/>
      <use xlink:href="#DejaVuSans-6e" x="325.916016"/>
      <use xlink:href="#DejaVuSans-20" x="389.294922"/>
      <use xlink:href="#DejaVuSans-28" x="421.082031"/>
      <use xlink:href="#DejaVuSans-62" x="460.095703"/>
      <use xlink:href="#DejaVuSans-70" x="523.572266"/>
      <use xlink:href="#DejaVuSans-29" x="587.048828"/>
     </g>
    </g>
   </g>
   <g id="matplotlib.axis_2">
    <g id="ytick_1">
     <g id="line2d_1">
      <path d="M 32.968125 353.2239 
L 993.158125 353.2239 
" clip-path="url(#pa87a481e18)" style="fill: none; stroke: #dedede; stroke-linecap: square"/>
     </g>
     <g id="text_7">
      <!-- 0 -->
      <g transform="translate(20.878125 356.263275) scale(0.08 -0.08)">
       <use xlink:href="#DejaVuSans-30"/>
      </g>
     </g>
    </g>
    <g id="ytick_2">
     <g id="line2d_2">
      <path d="M 32.968125 289.6303 
L 993.158125 289.6303 
" clip-path="url(#pa87a481e18)" style="fill: none; stroke: #dedede; stroke-linecap: square"/>
     </g>
     <g id="text_8">
      <!-- 1 -->
      <g transform="translate(20.878125 292.669675) scale(0.08 -0.08)">
       <defs>
        <path id="DejaVuSans-31" d="M 794 531 
L 1825 531 
L 1825 4091 
L 703 3866 
L 703 4441 
L 1819 4666 
L 2450 4666 
L 2450 531 
L 3481 531 
L 3481 0 
L 794 0 
L 794 531 
z
" transform="scale(0.015625)"/>
       </defs>
       <use xlink:href="#DejaVuSans-31"/>
      </g>
     </g>
    </g>
    <g id="ytick_3">
     <g id="line2d_3">
      <path d="M 32.968125 226.0367 
L 993.158125 226.0367 
" clip-path="url(#pa87a481e18)" style="fill: none; stroke: #dedede; stroke-linecap: square"/>
     </g>
     <g id="text_9">
      <!-- 2 -->
      <g transform="translate(20.878125 229.076075) scale(0.08 -0.08)">
       <use xlink:href="#DejaVuSans-32"/>
      </g>
     </g>
    </g>
    <g id="ytick_4">
     <g id="line2d_4">
      <path d="M 32.968125 162.4431 
L 993.158125 162.4431 
" clip-path="url(#pa87a481e18)" style="fill: none; stroke: #dedede; stroke-linecap: square"/>
     </g>
     <g id="text_10">
      <!-- 3 -->
      <g transform="translate(20.878125 165.482475) scale(0.08 -0.08)">
       <defs>
        <path id="DejaVuSans-33" d="M 2597 2516 
Q 3050 2419 3304 2112 
Q 3559 1806 3559 1356 
Q 3559 666 3084 287 
Q 2609 -91 1734 -91 
Q 1441 -91 1130 -33 
Q 819 25 488 141 
L 488 750 
Q 750 597 1062 519 
Q 1375 441 1716 441 
Q 2309 441 2620 675 
Q 2931 909 2931 1356 
Q 2931 1769 2642 2001 
Q 2353 2234 1838 2234 
L 1294 2234 
L 1294 2753 
L 1863 2753 
Q 2328 2753 2575 2939 
Q 2822 3125 2822 3475 
Q 2822 3834 2567 4026 
Q 2313 4219 1838 4219 
Q 1578 4219 1281 4162 
Q 984 4106 628 3988 
L 628 4550 
Q 988 4650 1302 4700 
Q 1616 4750 1894 4750 
Q 2613 4750 3031 4423 
Q 3450 4097 3450 3541 
Q 3450 3153 3228 2886 
Q 3006 2619 2597 2516 
z
" transform="scale(0.015625)"/>
       </defs>
       <use xlink:href="#DejaVuSans-33"/>
      </g>
     </g>
    </g>
    <g id="ytick_5">
     <g id="line2d_5">
      <path d="M 32.968125 98.8495 
L 993.158125 98.8495 
" clip-path="url(#pa87a481e18)" style="fill: none; stroke: #dedede; stroke-linecap: square"/>
     </g>
     <g id="text_11">
      <!-- 4 -->
      <g transform="translate(20.878125 101.888875) scale(0.08 -0.08)">
       <use xlink:href="#DejaVuSans-34"/>
      </g>
     </g>
    </g>
    <g id="ytick_6">
     <g id="line2d_6">
      <path d="M 32.968125 35.2559 
L 993.158125 35.2559 
" clip-path="url(#pa87a481e18)" style="fill: none; stroke: #dedede; stroke-linecap: square"/>
     </g>
     <g id="text_12">
      <!-- 5 -->
      <g transform="translate(20.878125 38.295275) scale(0.08 -0.08)">
       <defs>
        <path id="DejaVuSans-35" d="M 691 4666 
L 3169 4666 
L 3169 4134 
L 1269 4134 
L 1269 2991 
Q 1406 3038 1543 3061 
Q 1681 3084 1819 3084 
Q 2600 3084 3056 2656 
Q 3513 2228 3513 1497 
Q 3513 744 3044 326 
Q 2575 -91 1722 -91 
Q 1428 -91 1123 -41 
Q 819 9 494 109 
L 494 744 
Q 775 591 1075 516 
Q 1375 441 1709 441 
Q 2250 441 2565 725 
Q 2881 1009 2881 1497 
Q 2881 1984 2565 2268 
Q 2250 2553 1709 2553 
Q 1456 2553 1204 2497 
Q 953 2441 691 2322 
L 691 4666 
z
" transform="scale(0.015625)"/>
       </defs>
       <use xlink:href="#DejaVuSans-35"/>
      </g>
     </g>
    </g>
    <g id="text_13">
     <!-- % of Sequences -->
     <g transform="translate(14.798437 234.257869) rotate(-90) scale(0.1 -0.1)">
      <defs>
       <path id="DejaVuSans-25" d="M 4653 2053 
Q 4381 2053 4226 1822 
Q 4072 1591 4072 1178 
Q 4072 772 4226 539 
Q 4381 306 4653 306 
Q 4919 306 5073 539 
Q 5228 772 5228 1178 
Q 5228 1588 5073 1820 
Q 4919 2053 4653 2053 
z
M 4653 2450 
Q 5147 2450 5437 2106 
Q 5728 1763 5728 1178 
Q 5728 594 5436 251 
Q 5144 -91 4653 -91 
Q 4153 -91 3862 251 
Q 3572 594 3572 1178 
Q 3572 1766 3864 2108 
Q 4156 2450 4653 2450 
z
M 1428 4353 
Q 1159 4353 1004 4120 
Q 850 3888 850 3481 
Q 850 3069 1003 2837 
Q 1156 2606 1428 2606 
Q 1700 2606 1854 2837 
Q 2009 3069 2009 3481 
Q 2009 3884 1853 4118 
Q 1697 4353 1428 4353 
z
M 4250 4750 
L 4750 4750 
L 1831 -91 
L 1331 -91 
L 4250 4750 
z
M 1428 4750 
Q 1922 4750 2215 4408 
Q 2509 4066 2509 3481 
Q 2509 2891 2217 2550 
Q 1925 2209 1428 2209 
Q 931 2209 642 2551 
Q 353 2894 353 3481 
Q 353 4063 643 4406 
Q 934 4750 1428 4750 
z
" transform="scale(0.015625)"/>
       <path id="DejaVuSans-66" d="M 2375 4863 
L 2375 4384 
L 1825 4384 
Q 1516 4384 1395 4259 
Q 1275 4134 1275 3809 
L 1275 3500 
L 2222 3500 
L 2222 3053 
L 1275 3053 
L 1275 0 
L 697 0 
L 697 3053 
L 147 3053 
L 147 3500 
L 697 3500 
L 697 3744 
Q 697 4328 969 4595 
Q 1241 4863 1831 4863 
L 2375 4863 
z
" transform="scale(0.015625)"/>
       <path id="DejaVuSans-53" d="M 3425 4513 
L 3425 3897 
Q 3066 4069 2747 4153 
Q 2428 4238 2131 4238 
Q 1616 4238 1336 4038 
Q 1056 3838 1056 3469 
Q 1056 3159 1242 3001 
Q 1428 2844 1947 2747 
L 2328 2669 
Q 3034 2534 3370 2195 
Q 3706 1856 3706 1288 
Q 3706 609 3251 259 
Q 2797 -91 1919 -91 
Q 1588 -91 1214 -16 
Q 841 59 441 206 
L 441 856 
Q 825 641 1194 531 
Q 1563 422 1919 422 
Q 2459 422 2753 634 
Q 3047 847 3047 1241 
Q 3047 1584 2836 1778 
Q 2625 1972 2144 2069 
L 1759 2144 
Q 1053 2284 737 2584 
Q 422 2884 422 3419 
Q 422 4038 858 4394 
Q 1294 4750 2059 4750 
Q 2388 4750 2728 4690 
Q 3069 4631 3425 4513 
z
" transform="scale(0.015625)"/>
       <path id="DejaVuSans-65" d="M 3597 1894 
L 3597 1613 
L 953 1613 
Q 991 1019 1311 708 
Q 1631 397 2203 397 
Q 2534 397 2845 478 
Q 3156 559 3463 722 
L 3463 178 
Q 3153 47 2828 -22 
Q 2503 -91 2169 -91 
Q 1331 -91 842 396 
Q 353 884 353 1716 
Q 353 2575 817 3079 
Q 1281 3584 2069 3584 
Q 2775 3584 3186 3129 
Q 3597 2675 3597 1894 
z
M 3022 2063 
Q 3016 2534 2758 2815 
Q 2500 3097 2075 3097 
Q 1594 3097 1305 2825 
Q 1016 2553 972 2059 
L 3022 2063 
z
" transform="scale(0.015625)"/>
       <path id="DejaVuSans-71" d="M 947 1747 
Q 947 1113 1208 752 
Q 1469 391 1925 391 
Q 2381 391 2643 752 
Q 2906 1113 2906 1747 
Q 2906 2381 2643 2742 
Q 2381 3103 1925 3103 
Q 1469 3103 1208 2742 
Q 947 2381 947 1747 
z
M 2906 525 
Q 2725 213 2448 61 
Q 2172 -91 1784 -91 
Q 1150 -91 751 415 
Q 353 922 353 1747 
Q 353 2572 751 3078 
Q 1150 3584 1784 3584 
Q 2172 3584 2448 3432 
Q 2725 3281 2906 2969 
L 2906 3500 
L 3481 3500 
L 3481 -1331 
L 2906 -1331 
L 2906 525 
z
" transform="scale(0.015625)"/>
       <path id="DejaVuSans-75" d="M 544 1381 
L 544 3500 
L 1119 3500 
L 1119 1403 
Q 1119 906 1312 657 
Q 1506 409 1894 409 
Q 2359 409 2629 706 
Q 2900 1003 2900 1516 
L 2900 3500 
L 3475 3500 
L 3475 0 
L 2900 0 
L 2900 538 
Q 2691 219 2414 64 
Q 2138 -91 1772 -91 
Q 1169 -91 856 284 
Q 544 659 544 1381 
z
M 1991 3584 
L 1991 3584 
z
" transform="scale(0.015625)"/>
       <path id="DejaVuSans-63" d="M 3122 3366 
L 3122 2828 
Q 2878 2963 2633 3030 
Q 2388 3097 2138 3097 
Q 1578 3097 1268 2742 
Q 959 2388 959 1747 
Q 959 1106 1268 751 
Q 1578 397 2138 397 
Q 2388 397 2633 464 
Q 2878 531 3122 666 
L 3122 134 
Q 2881 22 2623 -34 
Q 2366 -91 2075 -91 
Q 1284 -91 818 406 
Q 353 903 353 1747 
Q 353 2603 823 3093 
Q 1294 3584 2113 3584 
Q 2378 3584 2631 3529 
Q 2884 3475 3122 3366 
z
" transform="scale(0.015625)"/>
      </defs>
      <use xlink:href="#DejaVuSans-25"/>
      <use xlink:href="#DejaVuSans-20" x="95.019531"/>
      <use xlink:href="#DejaVuSans-6f" x="126.806641"/>
      <use xlink:href="#DejaVuSans-66" x="187.988281"/>
      <use xlink:href="#DejaVuSans-20" x="223.193359"/>
      <use xlink:href="#DejaVuSans-53" x="254.980469"/>
      <use xlink:href="#DejaVuSans-65" x="318.457031"/>
      <use xlink:href="#DejaVuSans-71" x="379.980469"/>
      <use xlink:href="#DejaVuSans-75" x="443.457031"/>
      <use xlink:href="#DejaVuSans-65" x="506.835938"/>
      <use xlink:href="#DejaVuSans-6e" x="568.359375"/>
      <use xlink:href="#DejaVuSans-63" x="631.738281"/>
      <use xlink:href="#DejaVuSans-65" x="686.71875"/>
      <use xlink:href="#DejaVuSans-73" x="748.242188"/>
     </g>
    </g>
   </g>
   <g id="line2d_7">
    <path d="M 76.613125 353.215035 
L 86.646458 353.117917 
L 96.679792 352.91242 
L 106.713125 352.76251 
L 116.746458 352.466285 
L 126.779792 352.305274 
L 136.813125 352.197534 
L 146.846458 352.005055 
L 156.879792 351.687745 
L 166.913125 350.989431 
L 186.979792 350.520614 
L 207.046458 349.997607 
L 227.113125 349.480391 
L 247.179792 349.143633 
L 267.246458 348.862782 
L 287.313125 348.530097 
L 307.379792 348.176528 
L 327.446458 347.807823 
L 347.513125 347.220284 
L 367.579792 346.710815 
L 387.646458 346.270031 
L 407.713125 345.80329 
L 427.779792 345.331279 
L 447.846458 344.895766 
L 467.913125 344.547228 
L 487.979792 344.181638 
L 508.046458 343.811456 
L 528.113125 343.442472 
L 548.179792 343.00664 
L 568.246458 342.667287 
L 588.313125 342.366589 
L 608.379792 342.051754 
L 628.446458 341.748461 
L 648.513125 341.345773 
L 668.579792 341.059212 
L 688.646458 340.747133 
L 708.713125 340.435853 
L 728.779792 340.167061 
L 748.846458 339.908333 
L 768.913125 339.589825 
L 788.979792 339.289766 
L 809.046458 338.993461 
L 829.113125 338.740963 
L 849.179792 338.432717 
L 869.246458 338.080945 
L 889.313125 337.813791 
L 909.379792 337.565445 
L 929.446458 337.25137 
L 949.513125 336.887657 
" clip-path="url(#pa87a481e18)" style="fill: none; stroke: #7cb5ec; stroke-linecap: square"/>
   </g>
   <g id="line2d_8">
    <path d="M 76.613125 353.2239 
L 86.646458 353.2239 
L 96.679792 353.162323 
L 106.713125 353.108812 
L 116.746458 353.069118 
L 126.779792 353.052426 
L 136.813125 353.04452 
L 146.846458 353.036213 
L 156.879792 353.030782 
L 166.913125 353.017165 
L 186.979792 352.997358 
L 207.046458 352.976513 
L 227.113125 352.951555 
L 247.179792 352.935781 
L 267.246458 352.923282 
L 287.313125 352.90667 
L 307.379792 352.896606 
L 327.446458 352.881312 
L 347.513125 352.864899 
L 367.579792 352.851003 
L 387.646458 352.835429 
L 407.713125 352.816181 
L 427.779792 352.798371 
L 447.846458 352.777645 
L 467.913125 352.747056 
L 487.979792 352.721978 
L 508.046458 352.699735 
L 528.113125 352.67298 
L 548.179792 352.243018 
L 568.246458 351.117817 
L 588.313125 351.093777 
L 608.379792 351.07413 
L 628.446458 351.052765 
L 648.513125 351.035314 
L 668.579792 351.017704 
L 688.646458 350.999694 
L 708.713125 350.981604 
L 728.779792 350.940872 
L 748.846458 350.742763 
L 768.913125 349.777894 
L 788.979792 348.874682 
L 809.046458 344.576818 
L 829.113125 337.435303 
L 849.179792 336.163067 
L 869.246458 335.755188 
L 889.313125 335.450297 
L 909.379792 335.19097 
L 929.446458 334.986392 
L 949.513125 334.805574 
" clip-path="url(#pa87a481e18)" style="fill: none; stroke: #434348; stroke-linecap: square"/>
   </g>
   <g id="line2d_9">
    <path d="M 76.613125 353.20452 
L 86.646458 353.057029 
L 96.679792 352.884164 
L 106.713125 352.726243 
L 116.746458 352.491503 
L 126.779792 352.277776 
L 136.813125 352.07697 
L 146.846458 351.921229 
L 156.879792 351.724704 
L 166.913125 351.057646 
L 186.979792 350.63642 
L 207.046458 350.322369 
L 227.113125 350.013688 
L 247.179792 349.740771 
L 267.246458 349.498013 
L 287.313125 349.188359 
L 307.379792 348.858158 
L 327.446458 348.478455 
L 347.513125 348.065597 
L 367.579792 347.693522 
L 387.646458 347.322303 
L 407.713125 347.003932 
L 427.779792 346.691631 
L 447.846458 346.384741 
L 467.913125 346.100693 
L 487.979792 345.785864 
L 508.046458 345.45465 
L 528.113125 345.153947 
L 548.179792 344.843009 
L 568.246458 344.58309 
L 588.313125 344.36664 
L 608.379792 344.099132 
L 628.446458 343.814617 
L 648.513125 343.517027 
L 668.579792 343.274542 
L 688.646458 342.976758 
L 708.713125 342.657725 
L 728.779792 342.365272 
L 748.846458 342.041803 
L 768.913125 341.615791 
L 788.979792 341.344975 
L 809.046458 341.044544 
L 829.113125 340.734812 
L 849.179792 340.37017 
L 869.246458 340.072658 
L 889.313125 339.785225 
L 909.379792 339.517134 
L 929.446458 339.113264 
L 949.513125 338.65359 
" clip-path="url(#pa87a481e18)" style="fill: none; stroke: #90ed7d; stroke-linecap: square"/>
   </g>
   <g id="line2d_10">
    <path d="M 76.613125 353.2239 
L 86.646458 353.2239 
L 96.679792 352.121101 
L 106.713125 351.469415 
L 116.746458 350.900932 
L 126.779792 350.741376 
L 136.813125 350.669849 
L 146.846458 350.62315 
L 156.879792 350.589215 
L 166.913125 350.53734 
L 186.979792 350.486828 
L 207.046458 350.442113 
L 227.113125 350.39771 
L 247.179792 350.375139 
L 267.246458 350.364165 
L 287.313125 350.34494 
L 307.379792 350.324704 
L 327.446458 350.305402 
L 347.513125 350.287072 
L 367.579792 350.264773 
L 387.646458 350.247339 
L 407.713125 350.228076 
L 427.779792 350.208773 
L 447.846458 350.185151 
L 467.913125 350.155459 
L 487.979792 350.122575 
L 508.046458 350.089496 
L 528.113125 349.966522 
L 548.179792 348.682958 
L 568.246458 345.456285 
L 588.313125 345.322453 
L 608.379792 345.296963 
L 628.446458 345.272368 
L 648.513125 345.245867 
L 668.579792 345.223723 
L 688.646458 345.206912 
L 708.713125 345.186286 
L 728.779792 345.150951 
L 748.846458 345.035409 
L 768.913125 344.101272 
L 788.979792 343.183713 
L 809.046458 341.267493 
L 829.113125 336.495508 
L 849.179792 334.651672 
L 869.246458 333.950096 
L 889.313125 333.573352 
L 909.379792 333.296815 
L 929.446458 333.080131 
L 949.513125 332.886525 
" clip-path="url(#pa87a481e18)" style="fill: none; stroke: #f7a35c; stroke-linecap: square"/>
   </g>
   <g id="line2d_11">
    <path d="M 76.613125 353.210784 
L 86.646458 353.058575 
L 96.679792 352.734719 
L 106.713125 352.563475 
L 116.746458 352.225562 
L 126.779792 352.04248 
L 136.813125 351.881191 
L 146.846458 351.671609 
L 156.879792 351.366788 
L 166.913125 350.552506 
L 186.979792 350.042475 
L 207.046458 349.546736 
L 227.113125 349.084459 
L 247.179792 348.740021 
L 267.246458 348.438125 
L 287.313125 348.073778 
L 307.379792 347.674658 
L 327.446458 347.264272 
L 347.513125 346.675008 
L 367.579792 346.208124 
L 387.646458 345.796796 
L 407.713125 345.384056 
L 427.779792 344.991292 
L 447.846458 344.614536 
L 467.913125 344.293303 
L 487.979792 343.968168 
L 508.046458 343.640276 
L 528.113125 343.30697 
L 548.179792 342.946995 
L 568.246458 342.661343 
L 588.313125 342.409892 
L 608.379792 342.131335 
L 628.446458 341.855872 
L 648.513125 341.545838 
L 668.579792 341.300945 
L 688.646458 341.011324 
L 708.713125 340.734852 
L 728.779792 340.476036 
L 748.846458 340.233833 
L 768.913125 339.914483 
L 788.979792 339.669523 
L 809.046458 339.414574 
L 829.113125 339.153808 
L 849.179792 338.813372 
L 869.246458 338.493955 
L 889.313125 338.245699 
L 909.379792 338.011298 
L 929.446458 337.677016 
L 949.513125 337.33426 
" clip-path="url(#pa87a481e18)" style="fill: none; stroke: #8085e9; stroke-linecap: square"/>
   </g>
   <g id="line2d_12">
    <path d="M 76.613125 353.2239 
L 86.646458 353.2239 
L 96.679792 352.896883 
L 106.713125 352.707142 
L 116.746458 352.559709 
L 126.779792 352.508188 
L 136.813125 352.486059 
L 146.846458 352.470589 
L 156.879792 352.458146 
L 166.913125 352.436993 
L 186.979792 352.405213 
L 207.046458 352.374879 
L 227.113125 352.343233 
L 247.179792 352.321912 
L 267.246458 352.306644 
L 287.313125 352.28697 
L 307.379792 352.269785 
L 327.446458 352.244058 
L 347.513125 352.219946 
L 367.579792 352.193849 
L 387.646458 352.166575 
L 407.713125 352.138191 
L 427.779792 352.102342 
L 447.846458 352.058656 
L 467.913125 352.001586 
L 487.979792 351.959919 
L 508.046458 351.919597 
L 528.113125 351.868513 
L 548.179792 351.770851 
L 568.246458 351.469494 
L 588.313125 351.431256 
L 608.379792 351.399846 
L 628.446458 351.367326 
L 648.513125 351.340624 
L 668.579792 351.316141 
L 688.646458 351.294685 
L 708.713125 351.268756 
L 728.779792 351.236539 
L 748.846458 351.171869 
L 768.913125 350.909791 
L 788.979792 350.6085 
L 809.046458 349.239425 
L 829.113125 346.651333 
L 849.179792 346.125092 
L 869.246458 345.946416 
L 889.313125 345.797973 
L 909.379792 345.689887 
L 929.446458 345.610318 
L 949.513125 345.537341 
" clip-path="url(#pa87a481e18)" style="fill: none; stroke: #f15c80; stroke-linecap: square"/>
   </g>
   <g id="line2d_13">
    <path d="M 76.613125 353.210992 
L 86.646458 353.09538 
L 96.679792 352.840909 
L 106.713125 352.692775 
L 116.746458 352.356279 
L 126.779792 352.189911 
L 136.813125 352.036577 
L 146.846458 351.832674 
L 156.879792 351.513473 
L 166.913125 350.752847 
L 186.979792 350.260229 
L 207.046458 349.81705 
L 227.113125 349.407772 
L 247.179792 349.101009 
L 267.246458 348.826643 
L 287.313125 348.487672 
L 307.379792 348.126925 
L 327.446458 347.764581 
L 347.513125 347.248903 
L 367.579792 346.816126 
L 387.646458 346.422106 
L 407.713125 346.031 
L 427.779792 345.648479 
L 447.846458 345.311199 
L 467.913125 345.010828 
L 487.979792 344.699397 
L 508.046458 344.39135 
L 528.113125 344.07077 
L 548.179792 343.731767 
L 568.246458 343.472346 
L 588.313125 343.240903 
L 608.379792 343.001596 
L 628.446458 342.749005 
L 648.513125 342.46292 
L 668.579792 342.240407 
L 688.646458 341.994082 
L 708.713125 341.742618 
L 728.779792 341.51199 
L 748.846458 341.298657 
L 768.913125 341.028677 
L 788.979792 340.79949 
L 809.046458 340.557645 
L 829.113125 340.316051 
L 849.179792 340.003304 
L 869.246458 339.699611 
L 889.313125 339.477756 
L 909.379792 339.274856 
L 929.446458 338.988865 
L 949.513125 338.67969 
" clip-path="url(#pa87a481e18)" style="fill: none; stroke: #e4d354; stroke-linecap: square"/>
   </g>
   <g id="line2d_14">
    <path d="M 76.613125 353.203115 
L 86.646458 353.004424 
L 96.679792 352.627553 
L 106.713125 352.415872 
L 116.746458 352.046932 
L 126.779792 351.846737 
L 136.813125 351.6836 
L 146.846458 351.441561 
L 156.879792 351.09915 
L 166.913125 350.146719 
L 186.979792 349.579089 
L 207.046458 349.042431 
L 227.113125 348.530935 
L 247.179792 348.136083 
L 267.246458 347.785605 
L 287.313125 347.368189 
L 307.379792 346.910981 
L 327.446458 346.418219 
L 347.513125 345.73586 
L 367.579792 345.179443 
L 387.646458 344.67451 
L 407.713125 344.185577 
L 427.779792 343.710797 
L 447.846458 343.219813 
L 467.913125 342.824687 
L 487.979792 342.398794 
L 508.046458 341.971191 
L 528.113125 341.570322 
L 548.179792 341.125284 
L 568.246458 340.760926 
L 588.313125 340.435677 
L 608.379792 340.081028 
L 628.446458 339.730823 
L 648.513125 339.30069 
L 668.579792 338.997116 
L 688.646458 338.626125 
L 708.713125 338.283715 
L 728.779792 337.985473 
L 748.846458 337.705555 
L 768.913125 337.315421 
L 788.979792 337.006034 
L 809.046458 336.69446 
L 829.113125 336.396697 
L 849.179792 336.058868 
L 869.246458 335.709415 
L 889.313125 335.437907 
L 909.379792 335.169544 
L 929.446458 334.793357 
L 949.513125 334.415803 
" clip-path="url(#pa87a481e18)" style="fill: none; stroke: #2b908f; stroke-linecap: square"/>
   </g>
   <g id="line2d_15">
    <path d="M 76.613125 353.212068 
L 86.646458 353.088876 
L 96.679792 352.805798 
L 106.713125 352.639696 
L 116.746458 352.328535 
L 126.779792 352.156442 
L 136.813125 352.02329 
L 146.846458 351.846254 
L 156.879792 351.55771 
L 166.913125 350.824029 
L 186.979792 350.352045 
L 207.046458 349.915858 
L 227.113125 349.516216 
L 247.179792 349.209623 
L 267.246458 348.931862 
L 287.313125 348.615984 
L 307.379792 348.246971 
L 327.446458 347.864554 
L 347.513125 347.315211 
L 367.579792 346.862773 
L 387.646458 346.461559 
L 407.713125 346.088914 
L 427.779792 345.732483 
L 447.846458 345.39732 
L 467.913125 345.098666 
L 487.979792 344.813566 
L 508.046458 344.510905 
L 528.113125 344.201915 
L 548.179792 343.868176 
L 568.246458 343.608126 
L 588.313125 343.382899 
L 608.379792 343.140635 
L 628.446458 342.886015 
L 648.513125 342.595598 
L 668.579792 342.386061 
L 688.646458 342.128407 
L 708.713125 341.888091 
L 728.779792 341.667807 
L 748.846458 341.460965 
L 768.913125 341.189495 
L 788.979792 340.965017 
L 809.046458 340.739079 
L 829.113125 340.520443 
L 849.179792 340.234594 
L 869.246458 339.943615 
L 889.313125 339.732468 
L 909.379792 339.533077 
L 929.446458 339.2415 
L 949.513125 338.944305 
" clip-path="url(#pa87a481e18)" style="fill: none; stroke: #f45b5b; stroke-linecap: square"/>
   </g>
   <g id="line2d_16">
    <path d="M 76.613125 353.2239 
L 86.646458 353.2239 
L 96.679792 352.95243 
L 106.713125 352.803402 
L 116.746458 352.684704 
L 126.779792 352.645088 
L 136.813125 352.626441 
L 146.846458 352.613485 
L 156.879792 352.60375 
L 166.913125 352.583717 
L 186.979792 352.557544 
L 207.046458 352.527588 
L 227.113125 352.499992 
L 247.179792 352.48142 
L 267.246458 352.464457 
L 287.313125 352.439857 
L 307.379792 352.418326 
L 327.446458 352.392003 
L 347.513125 352.368451 
L 367.579792 352.341978 
L 387.646458 352.310674 
L 407.713125 352.283228 
L 427.779792 352.24672 
L 447.846458 352.201936 
L 467.913125 352.148653 
L 487.979792 352.107278 
L 508.046458 352.066052 
L 528.113125 352.011608 
L 548.179792 351.940726 
L 568.246458 351.664388 
L 588.313125 351.623611 
L 608.379792 351.590024 
L 628.446458 351.553403 
L 648.513125 351.52753 
L 668.579792 351.503603 
L 688.646458 351.479826 
L 708.713125 351.451331 
L 728.779792 351.412014 
L 748.846458 351.339597 
L 768.913125 351.042403 
L 788.979792 350.744946 
L 809.046458 349.299302 
L 829.113125 346.247715 
L 849.179792 345.531782 
L 869.246458 345.310076 
L 889.313125 345.140828 
L 909.379792 345.020595 
L 929.446458 344.918372 
L 949.513125 344.831277 
" clip-path="url(#pa87a481e18)" style="fill: none; stroke: #91e8e1; stroke-linecap: square"/>
   </g>
   <g id="line2d_17">
    <path d="M 76.613125 353.215692 
L 86.646458 353.131955 
L 96.679792 352.960523 
L 106.713125 352.84741 
L 116.746458 352.631049 
L 126.779792 352.461848 
L 136.813125 352.323103 
L 146.846458 352.162038 
L 156.879792 351.916157 
L 166.913125 351.300121 
L 186.979792 350.899583 
L 207.046458 350.561577 
L 227.113125 350.218423 
L 247.179792 349.963973 
L 267.246458 349.737388 
L 287.313125 349.476855 
L 307.379792 349.181905 
L 327.446458 348.875831 
L 347.513125 348.452325 
L 367.579792 348.064171 
L 387.646458 347.715185 
L 407.713125 347.424231 
L 427.779792 347.136661 
L 447.846458 346.864428 
L 467.913125 346.632227 
L 487.979792 346.394769 
L 508.046458 346.152956 
L 528.113125 345.90945 
L 548.179792 345.614429 
L 568.246458 345.401488 
L 588.313125 345.21227 
L 608.379792 345.012649 
L 628.446458 344.819256 
L 648.513125 344.584859 
L 668.579792 344.39719 
L 688.646458 344.169164 
L 708.713125 343.933435 
L 728.779792 343.72143 
L 748.846458 343.518029 
L 768.913125 343.231107 
L 788.979792 343.037354 
L 809.046458 342.833809 
L 829.113125 342.642576 
L 849.179792 342.401806 
L 869.246458 342.154773 
L 889.313125 341.940176 
L 909.379792 341.756035 
L 929.446458 341.480021 
L 949.513125 341.171211 
" clip-path="url(#pa87a481e18)" style="fill: none; stroke: #7cb5ec; stroke-linecap: square"/>
   </g>
   <g id="line2d_18">
    <path d="M 76.613125 353.2239 
L 86.646458 353.2239 
L 96.679792 352.829554 
L 106.713125 352.626081 
L 116.746458 352.446008 
L 126.779792 352.388407 
L 136.813125 352.362127 
L 146.846458 352.342327 
L 156.879792 352.330231 
L 166.913125 352.304959 
L 186.979792 352.274611 
L 207.046458 352.241814 
L 227.113125 352.20801 
L 247.179792 352.188174 
L 267.246458 352.171974 
L 287.313125 352.15041 
L 307.379792 352.130286 
L 327.446458 352.102998 
L 347.513125 352.078553 
L 367.579792 352.053317 
L 387.646458 352.024733 
L 407.713125 351.991793 
L 427.779792 351.951797 
L 447.846458 351.907877 
L 467.913125 351.854992 
L 487.979792 351.811432 
L 508.046458 351.762076 
L 528.113125 351.696159 
L 548.179792 351.545966 
L 568.246458 351.111768 
L 588.313125 351.060144 
L 608.379792 351.021191 
L 628.446458 350.985263 
L 648.513125 350.958587 
L 668.579792 350.930147 
L 688.646458 350.903003 
L 708.713125 350.874419 
L 728.779792 350.83111 
L 748.846458 350.719798 
L 768.913125 350.320951 
L 788.979792 349.967069 
L 809.046458 348.461109 
L 829.113125 345.639593 
L 849.179792 345.022621 
L 869.246458 344.817708 
L 889.313125 344.664707 
L 909.379792 344.547959 
L 929.446458 344.456446 
L 949.513125 344.37181 
" clip-path="url(#pa87a481e18)" style="fill: none; stroke: #434348; stroke-linecap: square"/>
   </g>
   <g id="line2d_19">
    <path d="M 76.613125 353.210425 
L 86.646458 353.101516 
L 96.679792 352.826725 
L 106.713125 352.665291 
L 116.746458 352.284927 
L 126.779792 352.10459 
L 136.813125 351.939362 
L 146.846458 351.720105 
L 156.879792 351.389192 
L 166.913125 350.552522 
L 186.979792 349.985737 
L 207.046458 349.520764 
L 227.113125 349.081007 
L 247.179792 348.753364 
L 267.246458 348.464935 
L 287.313125 348.114365 
L 307.379792 347.74172 
L 327.446458 347.34533 
L 347.513125 346.787082 
L 367.579792 346.306835 
L 387.646458 345.884674 
L 407.713125 345.48606 
L 427.779792 345.079205 
L 447.846458 344.736059 
L 467.913125 344.435431 
L 487.979792 344.132677 
L 508.046458 343.811085 
L 528.113125 343.482068 
L 548.179792 343.142488 
L 568.246458 342.881662 
L 588.313125 342.645333 
L 608.379792 342.375252 
L 628.446458 342.104582 
L 648.513125 341.813994 
L 668.579792 341.585972 
L 688.646458 341.317395 
L 708.713125 341.064222 
L 728.779792 340.820534 
L 748.846458 340.585448 
L 768.913125 340.288057 
L 788.979792 340.049798 
L 809.046458 339.809708 
L 829.113125 339.551139 
L 849.179792 339.193113 
L 869.246458 338.832437 
L 889.313125 338.570761 
L 909.379792 338.349836 
L 929.446458 338.036126 
L 949.513125 337.704853 
" clip-path="url(#pa87a481e18)" style="fill: none; stroke: #90ed7d; stroke-linecap: square"/>
   </g>
   <g id="line2d_20">
    <path d="M 76.613125 353.207949 
L 86.646458 353.099106 
L 96.679792 352.947771 
L 106.713125 352.807428 
L 116.746458 352.561995 
L 126.779792 352.299941 
L 136.813125 352.090968 
L 146.846458 351.904112 
L 156.879792 351.643264 
L 166.913125 350.926066 
L 186.979792 350.466633 
L 207.046458 350.100293 
L 227.113125 349.756875 
L 247.179792 349.466068 
L 267.246458 349.177876 
L 287.313125 348.866829 
L 307.379792 348.536144 
L 327.446458 348.089714 
L 347.513125 347.604947 
L 367.579792 347.165353 
L 387.646458 346.751427 
L 407.713125 346.374163 
L 427.779792 345.999982 
L 447.846458 345.627476 
L 467.913125 345.297127 
L 487.979792 344.917785 
L 508.046458 344.52095 
L 528.113125 344.157157 
L 548.179792 343.792962 
L 568.246458 343.467706 
L 588.313125 343.172946 
L 608.379792 342.856001 
L 628.446458 342.534766 
L 648.513125 342.191013 
L 668.579792 341.895448 
L 688.646458 341.550354 
L 708.713125 341.173827 
L 728.779792 340.850515 
L 748.846458 340.49215 
L 768.913125 340.039889 
L 788.979792 339.732595 
L 809.046458 339.427111 
L 829.113125 339.146291 
L 849.179792 338.828072 
L 869.246458 338.498326 
L 889.313125 338.191636 
L 909.379792 337.915373 
L 929.446458 337.473902 
L 949.513125 336.970101 
" clip-path="url(#pa87a481e18)" style="fill: none; stroke: #f7a35c; stroke-linecap: square"/>
   </g>
   <g id="line2d_21">
    <path d="M 76.613125 353.2239 
L 86.646458 353.2239 
L 96.679792 352.672581 
L 106.713125 352.276885 
L 116.746458 351.952501 
L 126.779792 351.84835 
L 136.813125 351.802373 
L 146.846458 351.769532 
L 156.879792 351.74889 
L 166.913125 351.712765 
L 186.979792 351.678182 
L 207.046458 351.647486 
L 227.113125 351.610758 
L 247.179792 351.589311 
L 267.246458 351.576108 
L 287.313125 351.558347 
L 307.379792 351.541525 
L 327.446458 351.522156 
L 347.513125 351.504596 
L 367.579792 351.482144 
L 387.646458 351.458619 
L 407.713125 351.436167 
L 427.779792 351.415793 
L 447.846458 351.39133 
L 467.913125 351.367068 
L 487.979792 351.337511 
L 508.046458 351.307955 
L 528.113125 351.240196 
L 548.179792 350.531309 
L 568.246458 349.002547 
L 588.313125 348.966155 
L 608.379792 348.939145 
L 628.446458 348.913811 
L 648.513125 348.889214 
L 668.579792 348.865957 
L 688.646458 348.848197 
L 708.713125 348.830704 
L 728.779792 348.804097 
L 748.846458 348.732518 
L 768.913125 348.197283 
L 788.979792 347.791736 
L 809.046458 346.20547 
L 829.113125 341.38213 
L 849.179792 339.697275 
L 869.246458 339.170955 
L 889.313125 338.891006 
L 909.379792 338.676939 
L 929.446458 338.504894 
L 949.513125 338.362138 
" clip-path="url(#pa87a481e18)" style="fill: none; stroke: #8085e9; stroke-linecap: square"/>
   </g>
   <g id="line2d_22">
    <path d="M 76.613125 353.215433 
L 86.646458 353.158922 
L 96.679792 353.024733 
L 106.713125 352.905998 
L 116.746458 352.656031 
L 126.779792 352.465196 
L 136.813125 352.276713 
L 146.846458 352.052146 
L 156.879792 351.740963 
L 166.913125 350.944462 
L 186.979792 350.401523 
L 207.046458 349.95988 
L 227.113125 349.509872 
L 247.179792 349.166201 
L 267.246458 348.871952 
L 287.313125 348.547969 
L 307.379792 348.220593 
L 327.446458 347.835899 
L 347.513125 347.342919 
L 367.579792 346.852695 
L 387.646458 346.401209 
L 407.713125 345.990913 
L 427.779792 345.58055 
L 447.846458 345.198343 
L 467.913125 344.865826 
L 487.979792 344.531764 
L 508.046458 344.1679 
L 528.113125 343.822381 
L 548.179792 343.448774 
L 568.246458 343.144916 
L 588.313125 342.868777 
L 608.379792 342.575804 
L 628.446458 342.263379 
L 648.513125 341.925016 
L 668.579792 341.636244 
L 688.646458 341.312731 
L 708.713125 340.970236 
L 728.779792 340.648034 
L 748.846458 340.345755 
L 768.913125 339.958104 
L 788.979792 339.651424 
L 809.046458 339.336479 
L 829.113125 339.036586 
L 849.179792 338.684381 
L 869.246458 338.313999 
L 889.313125 337.982659 
L 909.379792 337.678028 
L 929.446458 337.288361 
L 949.513125 336.831399 
" clip-path="url(#pa87a481e18)" style="fill: none; stroke: #f15c80; stroke-linecap: square"/>
   </g>
   <g id="line2d_23">
    <path d="M 76.613125 353.2239 
L 86.646458 353.2239 
L 96.679792 352.52164 
L 106.713125 351.998456 
L 116.746458 351.601734 
L 126.779792 351.485621 
L 136.813125 351.436501 
L 146.846458 351.404045 
L 156.879792 351.38093 
L 166.913125 351.342595 
L 186.979792 351.302278 
L 207.046458 351.263741 
L 227.113125 351.226582 
L 247.179792 351.203635 
L 267.246458 351.18734 
L 287.313125 351.164225 
L 307.379792 351.145108 
L 327.446458 351.120346 
L 347.513125 351.095013 
L 367.579792 351.069647 
L 387.646458 351.044046 
L 407.713125 351.016395 
L 427.779792 350.985686 
L 447.846458 350.952929 
L 467.913125 350.911939 
L 487.979792 350.876762 
L 508.046458 350.839536 
L 528.113125 350.791794 
L 548.179792 350.518073 
L 568.246458 349.879951 
L 588.313125 349.838895 
L 608.379792 349.805398 
L 628.446458 349.773077 
L 648.513125 349.746871 
L 668.579792 349.716095 
L 688.646458 349.692678 
L 708.713125 349.669966 
L 728.779792 349.639795 
L 748.846458 349.576732 
L 768.913125 349.231918 
L 788.979792 348.980574 
L 809.046458 348.065506 
L 829.113125 345.824974 
L 849.179792 345.171128 
L 869.246458 344.945184 
L 889.313125 344.802326 
L 909.379792 344.687523 
L 929.446458 344.601781 
L 949.513125 344.525783 
" clip-path="url(#pa87a481e18)" style="fill: none; stroke: #e4d354; stroke-linecap: square"/>
   </g>
   <g id="line2d_24">
    <path d="M 76.613125 353.214798 
L 86.646458 353.133597 
L 96.679792 352.948082 
L 106.713125 352.81459 
L 116.746458 352.495584 
L 126.779792 352.303198 
L 136.813125 352.094127 
L 146.846458 351.857303 
L 156.879792 351.514472 
L 166.913125 350.666049 
L 186.979792 350.066138 
L 207.046458 349.623678 
L 227.113125 349.191436 
L 247.179792 348.856145 
L 267.246458 348.559625 
L 287.313125 348.220363 
L 307.379792 347.876326 
L 327.446458 347.488834 
L 347.513125 346.996627 
L 367.579792 346.543727 
L 387.646458 346.12313 
L 407.713125 345.720111 
L 427.779792 345.319501 
L 447.846458 344.961946 
L 467.913125 344.628931 
L 487.979792 344.290784 
L 508.046458 343.931087 
L 528.113125 343.580805 
L 548.179792 343.228069 
L 568.246458 342.926775 
L 588.313125 342.647209 
L 608.379792 342.363182 
L 628.446458 342.073399 
L 648.513125 341.758631 
L 668.579792 341.495172 
L 688.646458 341.203159 
L 708.713125 340.918685 
L 728.779792 340.635104 
L 748.846458 340.351255 
L 768.913125 340.01409 
L 788.979792 339.744296 
L 809.046458 339.46299 
L 829.113125 339.1799 
L 849.179792 338.847553 
L 869.246458 338.512975 
L 889.313125 338.223862 
L 909.379792 337.967541 
L 929.446458 337.633142 
L 949.513125 337.233559 
" clip-path="url(#pa87a481e18)" style="fill: none; stroke: #2b908f; stroke-linecap: square"/>
   </g>
   <g id="line2d_25">
    <path d="M 76.613125 353.213707 
L 86.646458 353.131876 
L 96.679792 352.979619 
L 106.713125 352.832636 
L 116.746458 352.584577 
L 126.779792 352.375509 
L 136.813125 352.170361 
L 146.846458 351.986027 
L 156.879792 351.704038 
L 166.913125 350.97237 
L 186.979792 350.486944 
L 207.046458 350.114178 
L 227.113125 349.753601 
L 247.179792 349.453328 
L 267.246458 349.18392 
L 287.313125 348.877481 
L 307.379792 348.549017 
L 327.446458 348.168339 
L 347.513125 347.709785 
L 367.579792 347.26948 
L 387.646458 346.871338 
L 407.713125 346.509621 
L 427.779792 346.129227 
L 447.846458 345.787041 
L 467.913125 345.477609 
L 487.979792 345.134353 
L 508.046458 344.78486 
L 528.113125 344.448519 
L 548.179792 344.10088 
L 568.246458 343.826304 
L 588.313125 343.577354 
L 608.379792 343.293511 
L 628.446458 342.990601 
L 648.513125 342.680135 
L 668.579792 342.413115 
L 688.646458 342.091778 
L 708.713125 341.770655 
L 728.779792 341.451457 
L 748.846458 341.140777 
L 768.913125 340.761667 
L 788.979792 340.469307 
L 809.046458 340.15795 
L 829.113125 339.85144 
L 849.179792 339.509324 
L 869.246458 339.167031 
L 889.313125 338.86822 
L 909.379792 338.596566 
L 929.446458 338.192151 
L 949.513125 337.735238 
" clip-path="url(#pa87a481e18)" style="fill: none; stroke: #f45b5b; stroke-linecap: square"/>
   </g>
   <g id="line2d_26">
    <path d="M 76.613125 353.2239 
L 86.646458 353.2239 
L 96.679792 352.816598 
L 106.713125 352.484356 
L 116.746458 352.216266 
L 126.779792 352.139639 
L 136.813125 352.102501 
L 146.846458 352.078978 
L 156.879792 352.061514 
L 166.913125 352.032859 
L 186.979792 351.997076 
L 207.046458 351.965855 
L 227.113125 351.926828 
L 247.179792 351.907154 
L 267.246458 351.889904 
L 287.313125 351.868057 
L 307.379792 351.84685 
L 327.446458 351.81955 
L 347.513125 351.793639 
L 367.579792 351.769938 
L 387.646458 351.748304 
L 407.713125 351.724567 
L 427.779792 351.700652 
L 447.846458 351.672211 
L 467.913125 351.639172 
L 487.979792 351.608806 
L 508.046458 351.579011 
L 528.113125 351.537881 
L 548.179792 351.280342 
L 568.246458 350.788215 
L 588.313125 350.754891 
L 608.379792 350.728053 
L 628.446458 350.700432 
L 648.513125 350.674165 
L 668.579792 350.646971 
L 688.646458 350.626157 
L 708.713125 350.6052 
L 728.779792 350.578861 
L 748.846458 350.531032 
L 768.913125 350.303394 
L 788.979792 350.110115 
L 809.046458 349.470578 
L 829.113125 347.718731 
L 849.179792 347.136469 
L 869.246458 346.939732 
L 889.313125 346.819552 
L 909.379792 346.72653 
L 929.446458 346.657815 
L 949.513125 346.59416 
" clip-path="url(#pa87a481e18)" style="fill: none; stroke: #91e8e1; stroke-linecap: square"/>
   </g>
   <g id="line2d_27">
    <path d="M 76.613125 353.217859 
L 86.646458 353.152111 
L 96.679792 353.012157 
L 106.713125 352.876399 
L 116.746458 352.602913 
L 126.779792 352.398546 
L 136.813125 352.191762 
L 146.846458 351.988094 
L 156.879792 351.68663 
L 166.913125 350.906168 
L 186.979792 350.392451 
L 207.046458 349.98909 
L 227.113125 349.596347 
L 247.179792 349.287348 
L 267.246458 349.025657 
L 287.313125 348.722699 
L 307.379792 348.399043 
L 327.446458 348.010878 
L 347.513125 347.521675 
L 367.579792 347.030468 
L 387.646458 346.595567 
L 407.713125 346.213889 
L 427.779792 345.834849 
L 447.846458 345.474885 
L 467.913125 345.150148 
L 487.979792 344.798514 
L 508.046458 344.426787 
L 528.113125 344.073563 
L 548.179792 343.701486 
L 568.246458 343.406603 
L 588.313125 343.136773 
L 608.379792 342.837694 
L 628.446458 342.530443 
L 648.513125 342.198807 
L 668.579792 341.918803 
L 688.646458 341.572511 
L 708.713125 341.223992 
L 728.779792 340.896172 
L 748.846458 340.578525 
L 768.913125 340.174909 
L 788.979792 339.863271 
L 809.046458 339.543366 
L 829.113125 339.218916 
L 849.179792 338.830465 
L 869.246458 338.449041 
L 889.313125 338.105673 
L 909.379792 337.814542 
L 929.446458 337.391468 
L 949.513125 336.90112 
" clip-path="url(#pa87a481e18)" style="fill: none; stroke: #7cb5ec; stroke-linecap: square"/>
   </g>
   <g id="line2d_28">
    <path d="M 76.613125 353.2239 
L 86.646458 353.2239 
L 96.679792 352.813258 
L 106.713125 352.47148 
L 116.746458 352.200473 
L 126.779792 352.121117 
L 136.813125 352.086208 
L 146.846458 352.059883 
L 156.879792 352.043605 
L 166.913125 352.015722 
L 186.979792 351.98323 
L 207.046458 351.95185 
L 227.113125 351.91303 
L 247.179792 351.887564 
L 267.246458 351.871476 
L 287.313125 351.850556 
L 307.379792 351.829477 
L 327.446458 351.806364 
L 347.513125 351.783123 
L 367.579792 351.761026 
L 387.646458 351.73645 
L 407.713125 351.71216 
L 427.779792 351.687457 
L 447.846458 351.660178 
L 467.913125 351.623298 
L 487.979792 351.589565 
L 508.046458 351.555165 
L 528.113125 351.513706 
L 548.179792 351.439342 
L 568.246458 351.133172 
L 588.313125 351.09502 
L 608.379792 351.06081 
L 628.446458 351.031338 
L 648.513125 351.004695 
L 668.579792 350.976812 
L 688.646458 350.953762 
L 708.713125 350.929472 
L 728.779792 350.896375 
L 748.846458 350.810025 
L 768.913125 350.505795 
L 788.979792 350.058367 
L 809.046458 347.683821 
L 829.113125 343.486849 
L 849.179792 342.747019 
L 869.246458 342.495343 
L 889.313125 342.301277 
L 909.379792 342.143741 
L 929.446458 342.019493 
L 949.513125 341.907549 
" clip-path="url(#pa87a481e18)" style="fill: none; stroke: #434348; stroke-linecap: square"/>
   </g>
   <g id="line2d_29">
    <path d="M 76.613125 353.212998 
L 86.646458 353.128844 
L 96.679792 352.90204 
L 106.713125 352.761583 
L 116.746458 352.418385 
L 126.779792 352.211788 
L 136.813125 351.989038 
L 146.846458 351.733584 
L 156.879792 351.405342 
L 166.913125 350.520492 
L 186.979792 349.944574 
L 207.046458 349.475775 
L 227.113125 349.042706 
L 247.179792 348.694656 
L 267.246458 348.380473 
L 287.313125 348.014674 
L 307.379792 347.637974 
L 327.446458 347.215208 
L 347.513125 346.678375 
L 367.579792 346.1902 
L 387.646458 345.74181 
L 407.713125 345.31685 
L 427.779792 344.883482 
L 447.846458 344.467995 
L 467.913125 344.11692 
L 487.979792 343.749227 
L 508.046458 343.359464 
L 528.113125 342.987351 
L 548.179792 342.609088 
L 568.246458 342.29351 
L 588.313125 342.012763 
L 608.379792 341.703133 
L 628.446458 341.38802 
L 648.513125 341.04316 
L 668.579792 340.759654 
L 688.646458 340.45511 
L 708.713125 340.17074 
L 728.779792 339.878759 
L 748.846458 339.583421 
L 768.913125 339.205092 
L 788.979792 338.908492 
L 809.046458 338.609564 
L 829.113125 338.311667 
L 849.179792 337.944739 
L 869.246458 337.584823 
L 889.313125 337.294238 
L 909.379792 337.031372 
L 929.446458 336.68711 
L 949.513125 336.277938 
" clip-path="url(#pa87a481e18)" style="fill: none; stroke: #90ed7d; stroke-linecap: square"/>
   </g>
   <g id="line2d_30">
    <path d="M 76.613125 353.21703 
L 86.646458 353.1289 
L 96.679792 352.953273 
L 106.713125 352.821395 
L 116.746458 352.537186 
L 126.779792 352.316704 
L 136.813125 352.075454 
L 146.846458 351.853709 
L 156.879792 351.539571 
L 166.913125 350.716556 
L 186.979792 350.161009 
L 207.046458 349.766994 
L 227.113125 349.372228 
L 247.179792 349.036925 
L 267.246458 348.748728 
L 287.313125 348.411767 
L 307.379792 348.064383 
L 327.446458 347.652244 
L 347.513125 347.15774 
L 367.579792 346.694982 
L 387.646458 346.256704 
L 407.713125 345.8679 
L 427.779792 345.493864 
L 447.846458 345.145453 
L 467.913125 344.818245 
L 487.979792 344.468136 
L 508.046458 344.086281 
L 528.113125 343.721405 
L 548.179792 343.342038 
L 568.246458 343.038402 
L 588.313125 342.767065 
L 608.379792 342.468523 
L 628.446458 342.154739 
L 648.513125 341.835823 
L 668.579792 341.561367 
L 688.646458 341.246517 
L 708.713125 340.926022 
L 728.779792 340.606671 
L 748.846458 340.284912 
L 768.913125 339.886237 
L 788.979792 339.57968 
L 809.046458 339.251484 
L 829.113125 338.917525 
L 849.179792 338.52726 
L 869.246458 338.175295 
L 889.313125 337.861038 
L 909.379792 337.566168 
L 929.446458 337.157346 
L 949.513125 336.688467 
" clip-path="url(#pa87a481e18)" style="fill: none; stroke: #f7a35c; stroke-linecap: square"/>
   </g>
   <g id="line2d_31">
    <path d="M 76.613125 353.2239 
L 86.646458 353.2239 
L 96.679792 352.697256 
L 106.713125 352.359742 
L 116.746458 352.069216 
L 126.779792 351.982113 
L 136.813125 351.942786 
L 146.846458 351.913568 
L 156.879792 351.89422 
L 166.913125 351.863462 
L 186.979792 351.829782 
L 207.046458 351.797167 
L 227.113125 351.758986 
L 247.179792 351.734071 
L 267.246458 351.717488 
L 287.313125 351.694508 
L 307.379792 351.674213 
L 327.446458 351.649338 
L 347.513125 351.626594 
L 367.579792 351.603259 
L 387.646458 351.58328 
L 407.713125 351.561327 
L 427.779792 351.530924 
L 447.846458 351.501389 
L 467.913125 351.46913 
L 487.979792 351.444887 
L 508.046458 351.418511 
L 528.113125 351.385423 
L 548.179792 351.337489 
L 568.246458 351.178682 
L 588.313125 351.148082 
L 608.379792 351.120087 
L 628.446458 351.092211 
L 648.513125 351.067336 
L 668.579792 351.044435 
L 688.646458 351.023548 
L 708.713125 351.001002 
L 728.779792 350.970639 
L 748.846458 350.903949 
L 768.913125 350.705342 
L 788.979792 350.367316 
L 809.046458 348.906903 
L 829.113125 346.600535 
L 849.179792 346.178762 
L 869.246458 346.023272 
L 889.313125 345.908648 
L 909.379792 345.808792 
L 929.446458 345.733416 
L 949.513125 345.666135 
" clip-path="url(#pa87a481e18)" style="fill: none; stroke: #8085e9; stroke-linecap: square"/>
   </g>
   <g id="line2d_32">
    <path d="M 76.613125 353.211991 
L 86.646458 353.089127 
L 96.679792 352.750639 
L 106.713125 352.548959 
L 116.746458 352.207838 
L 126.779792 352.029437 
L 136.813125 351.890715 
L 146.846458 351.692864 
L 156.879792 351.394413 
L 166.913125 350.595771 
L 186.979792 350.099679 
L 207.046458 349.599338 
L 227.113125 349.149806 
L 247.179792 348.810959 
L 267.246458 348.528068 
L 287.313125 348.164833 
L 307.379792 347.755787 
L 327.446458 347.333306 
L 347.513125 346.684248 
L 367.579792 346.192106 
L 387.646458 345.773514 
L 407.713125 345.349806 
L 427.779792 344.93289 
L 447.846458 344.557537 
L 467.913125 344.234609 
L 487.979792 343.906833 
L 508.046458 343.578399 
L 528.113125 343.240151 
L 548.179792 342.863331 
L 568.246458 342.579662 
L 588.313125 342.329267 
L 608.379792 342.05266 
L 628.446458 341.78105 
L 648.513125 341.436009 
L 668.579792 341.177475 
L 688.646458 340.878485 
L 708.713125 340.59305 
L 728.779792 340.338915 
L 748.846458 340.094295 
L 768.913125 339.775197 
L 788.979792 339.524533 
L 809.046458 339.257202 
L 829.113125 338.998518 
L 849.179792 338.680168 
L 869.246458 338.359963 
L 889.313125 338.115044 
L 909.379792 337.88386 
L 929.446458 337.550219 
L 949.513125 337.202246 
" clip-path="url(#pa87a481e18)" style="fill: none; stroke: #f15c80; stroke-linecap: square"/>
   </g>
   <g id="line2d_33">
    <path d="M 76.613125 353.2239 
L 86.646458 353.2239 
L 96.679792 352.884335 
L 106.713125 352.693008 
L 116.746458 352.532322 
L 126.779792 352.483188 
L 136.813125 352.458173 
L 146.846458 352.442493 
L 156.879792 352.429267 
L 166.913125 352.406526 
L 186.979792 352.382109 
L 207.046458 352.354191 
L 227.113125 352.329265 
L 247.179792 352.309097 
L 267.246458 352.289886 
L 287.313125 352.263704 
L 307.379792 352.244433 
L 327.446458 352.2146 
L 347.513125 352.183032 
L 367.579792 352.148231 
L 387.646458 352.103736 
L 407.713125 352.058792 
L 427.779792 351.983476 
L 447.846458 351.910673 
L 467.913125 351.809564 
L 487.979792 351.724553 
L 508.046458 351.635742 
L 528.113125 351.518833 
L 548.179792 351.289713 
L 568.246458 350.902121 
L 588.313125 350.812622 
L 608.379792 350.746852 
L 628.446458 350.690387 
L 648.513125 350.660314 
L 668.579792 350.627758 
L 688.646458 350.596579 
L 708.713125 350.559564 
L 728.779792 350.50274 
L 748.846458 350.415455 
L 768.913125 350.159016 
L 788.979792 349.950034 
L 809.046458 349.185235 
L 829.113125 347.718593 
L 849.179792 347.37047 
L 869.246458 347.210173 
L 889.313125 347.060648 
L 909.379792 346.964715 
L 929.446458 346.890237 
L 949.513125 346.816268 
" clip-path="url(#pa87a481e18)" style="fill: none; stroke: #e4d354; stroke-linecap: square"/>
   </g>
   <g id="line2d_34">
    <path d="M 32.968125 353.2239 
L 993.158125 353.2239 
" clip-path="url(#pa87a481e18)" style="fill: none; stroke: #dedede; stroke-width: 2; stroke-linecap: square"/>
   </g>
   <g id="text_14">
    <!-- FastQC: Adapter Content -->
    <g transform="translate(413.765625 19.3575) scale(0.16 -0.16)">
     <defs>
      <path id="DejaVuSans-46" d="M 628 4666 
L 3309 4666 
L 3309 4134 
L 1259 4134 
L 1259 2759 
L 3109 2759 
L 3109 2228 
L 1259 2228 
L 1259 0 
L 628 0 
L 628 4666 
z
" transform="scale(0.015625)"/>
      <path id="DejaVuSans-61" d="M 2194 1759 
Q 1497 1759 1228 1600 
Q 959 1441 959 1056 
Q 959 750 1161 570 
Q 1363 391 1709 391 
Q 2188 391 2477 730 
Q 2766 1069 2766 1631 
L 2766 1759 
L 2194 1759 
z
M 3341 1997 
L 3341 0 
L 2766 0 
L 2766 531 
Q 2569 213 2275 61 
Q 1981 -91 1556 -91 
Q 1019 -91 701 211 
Q 384 513 384 1019 
Q 384 1609 779 1909 
Q 1175 2209 1959 2209 
L 2766 2209 
L 2766 2266 
Q 2766 2663 2505 2880 
Q 2244 3097 1772 3097 
Q 1472 3097 1187 3025 
Q 903 2953 641 2809 
L 641 3341 
Q 956 3463 1253 3523 
Q 1550 3584 1831 3584 
Q 2591 3584 2966 3190 
Q 3341 2797 3341 1997 
z
" transform="scale(0.015625)"/>
      <path id="DejaVuSans-51" d="M 2522 4238 
Q 1834 4238 1429 3725 
Q 1025 3213 1025 2328 
Q 1025 1447 1429 934 
Q 1834 422 2522 422 
Q 3209 422 3611 934 
Q 4013 1447 4013 2328 
Q 4013 3213 3611 3725 
Q 3209 4238 2522 4238 
z
M 3406 84 
L 4238 -825 
L 3475 -825 
L 2784 -78 
Q 2681 -84 2626 -87 
Q 2572 -91 2522 -91 
Q 1538 -91 948 567 
Q 359 1225 359 2328 
Q 359 3434 948 4092 
Q 1538 4750 2522 4750 
Q 3503 4750 4090 4092 
Q 4678 3434 4678 2328 
Q 4678 1516 4351 937 
Q 4025 359 3406 84 
z
" transform="scale(0.015625)"/>
      <path id="DejaVuSans-43" d="M 4122 4306 
L 4122 3641 
Q 3803 3938 3442 4084 
Q 3081 4231 2675 4231 
Q 1875 4231 1450 3742 
Q 1025 3253 1025 2328 
Q 1025 1406 1450 917 
Q 1875 428 2675 428 
Q 3081 428 3442 575 
Q 3803 722 4122 1019 
L 4122 359 
Q 3791 134 3420 21 
Q 3050 -91 2638 -91 
Q 1578 -91 968 557 
Q 359 1206 359 2328 
Q 359 3453 968 4101 
Q 1578 4750 2638 4750 
Q 3056 4750 3426 4639 
Q 3797 4528 4122 4306 
z
" transform="scale(0.015625)"/>
      <path id="DejaVuSans-3a" d="M 750 794 
L 1409 794 
L 1409 0 
L 750 0 
L 750 794 
z
M 750 3309 
L 1409 3309 
L 1409 2516 
L 750 2516 
L 750 3309 
z
" transform="scale(0.015625)"/>
      <path id="DejaVuSans-41" d="M 2188 4044 
L 1331 1722 
L 3047 1722 
L 2188 4044 
z
M 1831 4666 
L 2547 4666 
L 4325 0 
L 3669 0 
L 3244 1197 
L 1141 1197 
L 716 0 
L 50 0 
L 1831 4666 
z
" transform="scale(0.015625)"/>
      <path id="DejaVuSans-64" d="M 2906 2969 
L 2906 4863 
L 3481 4863 
L 3481 0 
L 2906 0 
L 2906 525 
Q 2725 213 2448 61 
Q 2172 -91 1784 -91 
Q 1150 -91 751 415 
Q 353 922 353 1747 
Q 353 2572 751 3078 
Q 1150 3584 1784 3584 
Q 2172 3584 2448 3432 
Q 2725 3281 2906 2969 
z
M 947 1747 
Q 947 1113 1208 752 
Q 1469 391 1925 391 
Q 2381 391 2643 752 
Q 2906 1113 2906 1747 
Q 2906 2381 2643 2742 
Q 2381 3103 1925 3103 
Q 1469 3103 1208 2742 
Q 947 2381 947 1747 
z
" transform="scale(0.015625)"/>
      <path id="DejaVuSans-72" d="M 2631 2963 
Q 2534 3019 2420 3045 
Q 2306 3072 2169 3072 
Q 1681 3072 1420 2755 
Q 1159 2438 1159 1844 
L 1159 0 
L 581 0 
L 581 3500 
L 1159 3500 
L 1159 2956 
Q 1341 3275 1631 3429 
Q 1922 3584 2338 3584 
Q 2397 3584 2469 3576 
Q 2541 3569 2628 3553 
L 2631 2963 
z
" transform="scale(0.015625)"/>
     </defs>
     <use xlink:href="#DejaVuSans-46"/>
     <use xlink:href="#DejaVuSans-61" x="48.394531"/>
     <use xlink:href="#DejaVuSans-73" x="109.673828"/>
     <use xlink:href="#DejaVuSans-74" x="161.773438"/>
     <use xlink:href="#DejaVuSans-51" x="200.982422"/>
     <use xlink:href="#DejaVuSans-43" x="279.693359"/>
     <use xlink:href="#DejaVuSans-3a" x="349.517578"/>
     <use xlink:href="#DejaVuSans-20" x="383.208984"/>
     <use xlink:href="#DejaVuSans-41" x="414.996094"/>
     <use xlink:href="#DejaVuSans-64" x="481.654297"/>
     <use xlink:href="#DejaVuSans-61" x="545.130859"/>
     <use xlink:href="#DejaVuSans-70" x="606.410156"/>
     <use xlink:href="#DejaVuSans-74" x="669.886719"/>
     <use xlink:href="#DejaVuSans-65" x="709.095703"/>
     <use xlink:href="#DejaVuSans-72" x="770.619141"/>
     <use xlink:href="#DejaVuSans-20" x="811.732422"/>
     <use xlink:href="#DejaVuSans-43" x="843.519531"/>
     <use xlink:href="#DejaVuSans-6f" x="913.34375"/>
     <use xlink:href="#DejaVuSans-6e" x="974.525391"/>
     <use xlink:href="#DejaVuSans-74" x="1037.904297"/>
     <use xlink:href="#DejaVuSans-65" x="1077.113281"/>
     <use xlink:href="#DejaVuSans-6e" x="1138.636719"/>
     <use xlink:href="#DejaVuSans-74" x="1202.015625"/>
    </g>
   </g>
  </g>
 </g>
 <defs>
  <clipPath id="pa87a481e18">
   <rect x="32.968125" y="35.2559" width="960.19" height="317.968"/>
  </clipPath>
 </defs>
</svg>
