<?xml version="1.0" encoding="utf-8" standalone="no"?>
<!DOCTYPE svg PUBLIC "-//W3C//DTD SVG 1.1//EN"
  "http://www.w3.org/Graphics/SVG/1.1/DTD/svg11.dtd">
<svg xmlns:xlink="http://www.w3.org/1999/xlink" width="1000.198125pt" height="388.844525pt" viewBox="0 0 1000.198125 388.844525" xmlns="http://www.w3.org/2000/svg" version="1.1">
 <metadata>
  <rdf:RDF xmlns:dc="http://purl.org/dc/elements/1.1/" xmlns:cc="http://creativecommons.org/ns#" xmlns:rdf="http://www.w3.org/1999/02/22-rdf-syntax-ns#">
   <cc:Work>
    <dc:type rdf:resource="http://purl.org/dc/dcmitype/StillImage"/>
    <dc:date>2024-09-05T13:39:13.601342</dc:date>
    <dc:format>image/svg+xml</dc:format>
    <dc:creator>
     <cc:Agent>
      <dc:title>Matplotlib v3.8.2, https://matplotlib.org/</dc:title>
     </cc:Agent>
    </dc:creator>
   </cc:Work>
  </rdf:RDF>
 </metadata>
 <defs>
  <style type="text/css">*{stroke-linejoin: round; stroke-linecap: butt}</style>
 </defs>
 <g id="figure_1">
  <g id="axes_1">
   <g id="patch_1">
    <path d="M 53.328125 353.2239 
L 992.998125 353.2239 
L 992.998125 35.2559 
L 53.328125 35.2559 
z
" style="fill: #ffffff"/>
   </g>
   <g id="matplotlib.axis_1">
    <g id="xtick_1">
     <g id="text_1">
      <!-- 0 -->
      <g transform="translate(84.866656 366.30265) scale(0.08 -0.08)">
       <defs>
        <path id="DejaVuSans-30" d="M 2034 4250 
Q 1547 4250 1301 3770 
Q 1056 3291 1056 2328 
Q 1056 1369 1301 889 
Q 1547 409 2034 409 
Q 2525 409 2770 889 
Q 3016 1369 3016 2328 
Q 3016 3291 2770 3770 
Q 2525 4250 2034 4250 
z
M 2034 4750 
Q 2819 4750 3233 4129 
Q 3647 3509 3647 2328 
Q 3647 1150 3233 529 
Q 2819 -91 2034 -91 
Q 1250 -91 836 529 
Q 422 1150 422 2328 
Q 422 3509 836 4129 
Q 1250 4750 2034 4750 
z
" transform="scale(0.015625)"/>
       </defs>
       <use xlink:href="#DejaVuSans-30"/>
      </g>
     </g>
    </g>
    <g id="xtick_2">
     <g id="text_2">
      <!-- 20 -->
      <g transform="translate(254.896495 366.30265) scale(0.08 -0.08)">
       <defs>
        <path id="DejaVuSans-32" d="M 1228 531 
L 3431 531 
L 3431 0 
L 469 0 
L 469 531 
Q 828 903 1448 1529 
Q 2069 2156 2228 2338 
Q 2531 2678 2651 2914 
Q 2772 3150 2772 3378 
Q 2772 3750 2511 3984 
Q 2250 4219 1831 4219 
Q 1534 4219 1204 4116 
Q 875 4013 500 3803 
L 500 4441 
Q 881 4594 1212 4672 
Q 1544 4750 1819 4750 
Q 2544 4750 2975 4387 
Q 3406 4025 3406 3419 
Q 3406 3131 3298 2873 
Q 3191 2616 2906 2266 
Q 2828 2175 2409 1742 
Q 1991 1309 1228 531 
z
" transform="scale(0.015625)"/>
       </defs>
       <use xlink:href="#DejaVuSans-32"/>
       <use xlink:href="#DejaVuSans-30" x="63.623047"/>
      </g>
     </g>
    </g>
    <g id="xtick_3">
     <g id="text_3">
      <!-- 40 -->
      <g transform="translate(427.471334 366.30265) scale(0.08 -0.08)">
       <defs>
        <path id="DejaVuSans-34" d="M 2419 4116 
L 825 1625 
L 2419 1625 
L 2419 4116 
z
M 2253 4666 
L 3047 4666 
L 3047 1625 
L 3713 1625 
L 3713 1100 
L 3047 1100 
L 3047 0 
L 2419 0 
L 2419 1100 
L 313 1100 
L 313 1709 
L 2253 4666 
z
" transform="scale(0.015625)"/>
       </defs>
       <use xlink:href="#DejaVuSans-34"/>
       <use xlink:href="#DejaVuSans-30" x="63.623047"/>
      </g>
     </g>
    </g>
    <g id="xtick_4">
     <g id="text_4">
      <!-- 60 -->
      <g transform="translate(600.046174 366.30265) scale(0.08 -0.08)">
       <defs>
        <path id="DejaVuSans-36" d="M 2113 2584 
Q 1688 2584 1439 2293 
Q 1191 2003 1191 1497 
Q 1191 994 1439 701 
Q 1688 409 2113 409 
Q 2538 409 2786 701 
Q 3034 994 3034 1497 
Q 3034 2003 2786 2293 
Q 2538 2584 2113 2584 
z
M 3366 4563 
L 3366 3988 
Q 3128 4100 2886 4159 
Q 2644 4219 2406 4219 
Q 1781 4219 1451 3797 
Q 1122 3375 1075 2522 
Q 1259 2794 1537 2939 
Q 1816 3084 2150 3084 
Q 2853 3084 3261 2657 
Q 3669 2231 3669 1497 
Q 3669 778 3244 343 
Q 2819 -91 2113 -91 
Q 1303 -91 875 529 
Q 447 1150 447 2328 
Q 447 3434 972 4092 
Q 1497 4750 2381 4750 
Q 2619 4750 2861 4703 
Q 3103 4656 3366 4563 
z
" transform="scale(0.015625)"/>
       </defs>
       <use xlink:href="#DejaVuSans-36"/>
       <use xlink:href="#DejaVuSans-30" x="63.623047"/>
      </g>
     </g>
    </g>
    <g id="xtick_5">
     <g id="text_5">
      <!-- 80 -->
      <g transform="translate(772.621013 366.30265) scale(0.08 -0.08)">
       <defs>
        <path id="DejaVuSans-38" d="M 2034 2216 
Q 1584 2216 1326 1975 
Q 1069 1734 1069 1313 
Q 1069 891 1326 650 
Q 1584 409 2034 409 
Q 2484 409 2743 651 
Q 3003 894 3003 1313 
Q 3003 1734 2745 1975 
Q 2488 2216 2034 2216 
z
M 1403 2484 
Q 997 2584 770 2862 
Q 544 3141 544 3541 
Q 544 4100 942 4425 
Q 1341 4750 2034 4750 
Q 2731 4750 3128 4425 
Q 3525 4100 3525 3541 
Q 3525 3141 3298 2862 
Q 3072 2584 2669 2484 
Q 3125 2378 3379 2068 
Q 3634 1759 3634 1313 
Q 3634 634 3220 271 
Q 2806 -91 2034 -91 
Q 1263 -91 848 271 
Q 434 634 434 1313 
Q 434 1759 690 2068 
Q 947 2378 1403 2484 
z
M 1172 3481 
Q 1172 3119 1398 2916 
Q 1625 2713 2034 2713 
Q 2441 2713 2670 2916 
Q 2900 3119 2900 3481 
Q 2900 3844 2670 4047 
Q 2441 4250 2034 4250 
Q 1625 4250 1398 4047 
Q 1172 3844 1172 3481 
z
" transform="scale(0.015625)"/>
       </defs>
       <use xlink:href="#DejaVuSans-38"/>
       <use xlink:href="#DejaVuSans-30" x="63.623047"/>
      </g>
     </g>
    </g>
    <g id="xtick_6">
     <g id="text_6">
      <!-- 100 -->
      <g transform="translate(942.650852 366.30265) scale(0.08 -0.08)">
       <defs>
        <path id="DejaVuSans-31" d="M 794 531 
L 1825 531 
L 1825 4091 
L 703 3866 
L 703 4441 
L 1819 4666 
L 2450 4666 
L 2450 531 
L 3481 531 
L 3481 0 
L 794 0 
L 794 531 
z
" transform="scale(0.015625)"/>
       </defs>
       <use xlink:href="#DejaVuSans-31"/>
       <use xlink:href="#DejaVuSans-30" x="63.623047"/>
       <use xlink:href="#DejaVuSans-30" x="127.246094"/>
      </g>
     </g>
    </g>
    <g id="text_7">
     <!-- Length Trimmed (bp) -->
     <g transform="translate(470.735781 379.564837) scale(0.1 -0.1)">
      <defs>
       <path id="DejaVuSans-4c" d="M 628 4666 
L 1259 4666 
L 1259 531 
L 3531 531 
L 3531 0 
L 628 0 
L 628 4666 
z
" transform="scale(0.015625)"/>
       <path id="DejaVuSans-65" d="M 3597 1894 
L 3597 1613 
L 953 1613 
Q 991 1019 1311 708 
Q 1631 397 2203 397 
Q 2534 397 2845 478 
Q 3156 559 3463 722 
L 3463 178 
Q 3153 47 2828 -22 
Q 2503 -91 2169 -91 
Q 1331 -91 842 396 
Q 353 884 353 1716 
Q 353 2575 817 3079 
Q 1281 3584 2069 3584 
Q 2775 3584 3186 3129 
Q 3597 2675 3597 1894 
z
M 3022 2063 
Q 3016 2534 2758 2815 
Q 2500 3097 2075 3097 
Q 1594 3097 1305 2825 
Q 1016 2553 972 2059 
L 3022 2063 
z
" transform="scale(0.015625)"/>
       <path id="DejaVuSans-6e" d="M 3513 2113 
L 3513 0 
L 2938 0 
L 2938 2094 
Q 2938 2591 2744 2837 
Q 2550 3084 2163 3084 
Q 1697 3084 1428 2787 
Q 1159 2491 1159 1978 
L 1159 0 
L 581 0 
L 581 3500 
L 1159 3500 
L 1159 2956 
Q 1366 3272 1645 3428 
Q 1925 3584 2291 3584 
Q 2894 3584 3203 3211 
Q 3513 2838 3513 2113 
z
" transform="scale(0.015625)"/>
       <path id="DejaVuSans-67" d="M 2906 1791 
Q 2906 2416 2648 2759 
Q 2391 3103 1925 3103 
Q 1463 3103 1205 2759 
Q 947 2416 947 1791 
Q 947 1169 1205 825 
Q 1463 481 1925 481 
Q 2391 481 2648 825 
Q 2906 1169 2906 1791 
z
M 3481 434 
Q 3481 -459 3084 -895 
Q 2688 -1331 1869 -1331 
Q 1566 -1331 1297 -1286 
Q 1028 -1241 775 -1147 
L 775 -588 
Q 1028 -725 1275 -790 
Q 1522 -856 1778 -856 
Q 2344 -856 2625 -561 
Q 2906 -266 2906 331 
L 2906 616 
Q 2728 306 2450 153 
Q 2172 0 1784 0 
Q 1141 0 747 490 
Q 353 981 353 1791 
Q 353 2603 747 3093 
Q 1141 3584 1784 3584 
Q 2172 3584 2450 3431 
Q 2728 3278 2906 2969 
L 2906 3500 
L 3481 3500 
L 3481 434 
z
" transform="scale(0.015625)"/>
       <path id="DejaVuSans-74" d="M 1172 4494 
L 1172 3500 
L 2356 3500 
L 2356 3053 
L 1172 3053 
L 1172 1153 
Q 1172 725 1289 603 
Q 1406 481 1766 481 
L 2356 481 
L 2356 0 
L 1766 0 
Q 1100 0 847 248 
Q 594 497 594 1153 
L 594 3053 
L 172 3053 
L 172 3500 
L 594 3500 
L 594 4494 
L 1172 4494 
z
" transform="scale(0.015625)"/>
       <path id="DejaVuSans-68" d="M 3513 2113 
L 3513 0 
L 2938 0 
L 2938 2094 
Q 2938 2591 2744 2837 
Q 2550 3084 2163 3084 
Q 1697 3084 1428 2787 
Q 1159 2491 1159 1978 
L 1159 0 
L 581 0 
L 581 4863 
L 1159 4863 
L 1159 2956 
Q 1366 3272 1645 3428 
Q 1925 3584 2291 3584 
Q 2894 3584 3203 3211 
Q 3513 2838 3513 2113 
z
" transform="scale(0.015625)"/>
       <path id="DejaVuSans-20" transform="scale(0.015625)"/>
       <path id="DejaVuSans-54" d="M -19 4666 
L 3928 4666 
L 3928 4134 
L 2272 4134 
L 2272 0 
L 1638 0 
L 1638 4134 
L -19 4134 
L -19 4666 
z
" transform="scale(0.015625)"/>
       <path id="DejaVuSans-72" d="M 2631 2963 
Q 2534 3019 2420 3045 
Q 2306 3072 2169 3072 
Q 1681 3072 1420 2755 
Q 1159 2438 1159 1844 
L 1159 0 
L 581 0 
L 581 3500 
L 1159 3500 
L 1159 2956 
Q 1341 3275 1631 3429 
Q 1922 3584 2338 3584 
Q 2397 3584 2469 3576 
Q 2541 3569 2628 3553 
L 2631 2963 
z
" transform="scale(0.015625)"/>
       <path id="DejaVuSans-69" d="M 603 3500 
L 1178 3500 
L 1178 0 
L 603 0 
L 603 3500 
z
M 603 4863 
L 1178 4863 
L 1178 4134 
L 603 4134 
L 603 4863 
z
" transform="scale(0.015625)"/>
       <path id="DejaVuSans-6d" d="M 3328 2828 
Q 3544 3216 3844 3400 
Q 4144 3584 4550 3584 
Q 5097 3584 5394 3201 
Q 5691 2819 5691 2113 
L 5691 0 
L 5113 0 
L 5113 2094 
Q 5113 2597 4934 2840 
Q 4756 3084 4391 3084 
Q 3944 3084 3684 2787 
Q 3425 2491 3425 1978 
L 3425 0 
L 2847 0 
L 2847 2094 
Q 2847 2600 2669 2842 
Q 2491 3084 2119 3084 
Q 1678 3084 1418 2786 
Q 1159 2488 1159 1978 
L 1159 0 
L 581 0 
L 581 3500 
L 1159 3500 
L 1159 2956 
Q 1356 3278 1631 3431 
Q 1906 3584 2284 3584 
Q 2666 3584 2933 3390 
Q 3200 3197 3328 2828 
z
" transform="scale(0.015625)"/>
       <path id="DejaVuSans-64" d="M 2906 2969 
L 2906 4863 
L 3481 4863 
L 3481 0 
L 2906 0 
L 2906 525 
Q 2725 213 2448 61 
Q 2172 -91 1784 -91 
Q 1150 -91 751 415 
Q 353 922 353 1747 
Q 353 2572 751 3078 
Q 1150 3584 1784 3584 
Q 2172 3584 2448 3432 
Q 2725 3281 2906 2969 
z
M 947 1747 
Q 947 1113 1208 752 
Q 1469 391 1925 391 
Q 2381 391 2643 752 
Q 2906 1113 2906 1747 
Q 2906 2381 2643 2742 
Q 2381 3103 1925 3103 
Q 1469 3103 1208 2742 
Q 947 2381 947 1747 
z
" transform="scale(0.015625)"/>
       <path id="DejaVuSans-28" d="M 1984 4856 
Q 1566 4138 1362 3434 
Q 1159 2731 1159 2009 
Q 1159 1288 1364 580 
Q 1569 -128 1984 -844 
L 1484 -844 
Q 1016 -109 783 600 
Q 550 1309 550 2009 
Q 550 2706 781 3412 
Q 1013 4119 1484 4856 
L 1984 4856 
z
" transform="scale(0.015625)"/>
       <path id="DejaVuSans-62" d="M 3116 1747 
Q 3116 2381 2855 2742 
Q 2594 3103 2138 3103 
Q 1681 3103 1420 2742 
Q 1159 2381 1159 1747 
Q 1159 1113 1420 752 
Q 1681 391 2138 391 
Q 2594 391 2855 752 
Q 3116 1113 3116 1747 
z
M 1159 2969 
Q 1341 3281 1617 3432 
Q 1894 3584 2278 3584 
Q 2916 3584 3314 3078 
Q 3713 2572 3713 1747 
Q 3713 922 3314 415 
Q 2916 -91 2278 -91 
Q 1894 -91 1617 61 
Q 1341 213 1159 525 
L 1159 0 
L 581 0 
L 581 4863 
L 1159 4863 
L 1159 2969 
z
" transform="scale(0.015625)"/>
       <path id="DejaVuSans-70" d="M 1159 525 
L 1159 -1331 
L 581 -1331 
L 581 3500 
L 1159 3500 
L 1159 2969 
Q 1341 3281 1617 3432 
Q 1894 3584 2278 3584 
Q 2916 3584 3314 3078 
Q 3713 2572 3713 1747 
Q 3713 922 3314 415 
Q 2916 -91 2278 -91 
Q 1894 -91 1617 61 
Q 1341 213 1159 525 
z
M 3116 1747 
Q 3116 2381 2855 2742 
Q 2594 3103 2138 3103 
Q 1681 3103 1420 2742 
Q 1159 2381 1159 1747 
Q 1159 1113 1420 752 
Q 1681 391 2138 391 
Q 2594 391 2855 752 
Q 3116 1113 3116 1747 
z
" transform="scale(0.015625)"/>
       <path id="DejaVuSans-29" d="M 513 4856 
L 1013 4856 
Q 1481 4119 1714 3412 
Q 1947 2706 1947 2009 
Q 1947 1309 1714 600 
Q 1481 -109 1013 -844 
L 513 -844 
Q 928 -128 1133 580 
Q 1338 1288 1338 2009 
Q 1338 2731 1133 3434 
Q 928 4138 513 4856 
z
" transform="scale(0.015625)"/>
      </defs>
      <use xlink:href="#DejaVuSans-4c"/>
      <use xlink:href="#DejaVuSans-65" x="53.962891"/>
      <use xlink:href="#DejaVuSans-6e" x="115.486328"/>
      <use xlink:href="#DejaVuSans-67" x="178.865234"/>
      <use xlink:href="#DejaVuSans-74" x="242.341797"/>
      <use xlink:href="#DejaVuSans-68" x="281.550781"/>
      <use xlink:href="#DejaVuSans-20" x="344.929688"/>
      <use xlink:href="#DejaVuSans-54" x="376.716797"/>
      <use xlink:href="#DejaVuSans-72" x="423.050781"/>
      <use xlink:href="#DejaVuSans-69" x="464.164062"/>
      <use xlink:href="#DejaVuSans-6d" x="491.947266"/>
      <use xlink:href="#DejaVuSans-6d" x="589.359375"/>
      <use xlink:href="#DejaVuSans-65" x="686.771484"/>
      <use xlink:href="#DejaVuSans-64" x="748.294922"/>
      <use xlink:href="#DejaVuSans-20" x="811.771484"/>
      <use xlink:href="#DejaVuSans-28" x="843.558594"/>
      <use xlink:href="#DejaVuSans-62" x="882.572266"/>
      <use xlink:href="#DejaVuSans-70" x="946.048828"/>
      <use xlink:href="#DejaVuSans-29" x="1009.525391"/>
     </g>
    </g>
   </g>
   <g id="matplotlib.axis_2">
    <g id="ytick_1">
     <g id="line2d_1">
      <path d="M 53.328125 353.2239 
L 992.998125 353.2239 
" clip-path="url(#p744fc0a012)" style="fill: none; stroke: #dedede; stroke-linecap: square"/>
     </g>
     <g id="text_8">
      <!-- 0 -->
      <g transform="translate(41.238125 356.263275) scale(0.08 -0.08)">
       <use xlink:href="#DejaVuSans-30"/>
      </g>
     </g>
    </g>
    <g id="ytick_2">
     <g id="line2d_2">
      <path d="M 53.328125 290.66465 
L 992.998125 290.66465 
" clip-path="url(#p744fc0a012)" style="fill: none; stroke: #dedede; stroke-linecap: square"/>
     </g>
     <g id="text_9">
      <!-- 5000 -->
      <g transform="translate(25.968125 293.704025) scale(0.08 -0.08)">
       <defs>
        <path id="DejaVuSans-35" d="M 691 4666 
L 3169 4666 
L 3169 4134 
L 1269 4134 
L 1269 2991 
Q 1406 3038 1543 3061 
Q 1681 3084 1819 3084 
Q 2600 3084 3056 2656 
Q 3513 2228 3513 1497 
Q 3513 744 3044 326 
Q 2575 -91 1722 -91 
Q 1428 -91 1123 -41 
Q 819 9 494 109 
L 494 744 
Q 775 591 1075 516 
Q 1375 441 1709 441 
Q 2250 441 2565 725 
Q 2881 1009 2881 1497 
Q 2881 1984 2565 2268 
Q 2250 2553 1709 2553 
Q 1456 2553 1204 2497 
Q 953 2441 691 2322 
L 691 4666 
z
" transform="scale(0.015625)"/>
       </defs>
       <use xlink:href="#DejaVuSans-35"/>
       <use xlink:href="#DejaVuSans-30" x="63.623047"/>
       <use xlink:href="#DejaVuSans-30" x="127.246094"/>
       <use xlink:href="#DejaVuSans-30" x="190.869141"/>
      </g>
     </g>
    </g>
    <g id="ytick_3">
     <g id="line2d_3">
      <path d="M 53.328125 228.105401 
L 992.998125 228.105401 
" clip-path="url(#p744fc0a012)" style="fill: none; stroke: #dedede; stroke-linecap: square"/>
     </g>
     <g id="text_10">
      <!-- 10000 -->
      <g transform="translate(20.878125 231.144776) scale(0.08 -0.08)">
       <use xlink:href="#DejaVuSans-31"/>
       <use xlink:href="#DejaVuSans-30" x="63.623047"/>
       <use xlink:href="#DejaVuSans-30" x="127.246094"/>
       <use xlink:href="#DejaVuSans-30" x="190.869141"/>
       <use xlink:href="#DejaVuSans-30" x="254.492188"/>
      </g>
     </g>
    </g>
    <g id="ytick_4">
     <g id="line2d_4">
      <path d="M 53.328125 165.546151 
L 992.998125 165.546151 
" clip-path="url(#p744fc0a012)" style="fill: none; stroke: #dedede; stroke-linecap: square"/>
     </g>
     <g id="text_11">
      <!-- 15000 -->
      <g transform="translate(20.878125 168.585526) scale(0.08 -0.08)">
       <use xlink:href="#DejaVuSans-31"/>
       <use xlink:href="#DejaVuSans-35" x="63.623047"/>
       <use xlink:href="#DejaVuSans-30" x="127.246094"/>
       <use xlink:href="#DejaVuSans-30" x="190.869141"/>
       <use xlink:href="#DejaVuSans-30" x="254.492188"/>
      </g>
     </g>
    </g>
    <g id="ytick_5">
     <g id="line2d_5">
      <path d="M 53.328125 102.986901 
L 992.998125 102.986901 
" clip-path="url(#p744fc0a012)" style="fill: none; stroke: #dedede; stroke-linecap: square"/>
     </g>
     <g id="text_12">
      <!-- 20000 -->
      <g transform="translate(20.878125 106.026276) scale(0.08 -0.08)">
       <use xlink:href="#DejaVuSans-32"/>
       <use xlink:href="#DejaVuSans-30" x="63.623047"/>
       <use xlink:href="#DejaVuSans-30" x="127.246094"/>
       <use xlink:href="#DejaVuSans-30" x="190.869141"/>
       <use xlink:href="#DejaVuSans-30" x="254.492188"/>
      </g>
     </g>
    </g>
    <g id="ytick_6">
     <g id="line2d_6">
      <path d="M 53.328125 40.427651 
L 992.998125 40.427651 
" clip-path="url(#p744fc0a012)" style="fill: none; stroke: #dedede; stroke-linecap: square"/>
     </g>
     <g id="text_13">
      <!-- 25000 -->
      <g transform="translate(20.878125 43.467026) scale(0.08 -0.08)">
       <use xlink:href="#DejaVuSans-32"/>
       <use xlink:href="#DejaVuSans-35" x="63.623047"/>
       <use xlink:href="#DejaVuSans-30" x="127.246094"/>
       <use xlink:href="#DejaVuSans-30" x="190.869141"/>
       <use xlink:href="#DejaVuSans-30" x="254.492188"/>
      </g>
     </g>
    </g>
    <g id="text_14">
     <!-- Observed / Expected -->
     <g transform="translate(14.798438 246.489119) rotate(-90) scale(0.1 -0.1)">
      <defs>
       <path id="DejaVuSans-4f" d="M 2522 4238 
Q 1834 4238 1429 3725 
Q 1025 3213 1025 2328 
Q 1025 1447 1429 934 
Q 1834 422 2522 422 
Q 3209 422 3611 934 
Q 4013 1447 4013 2328 
Q 4013 3213 3611 3725 
Q 3209 4238 2522 4238 
z
M 2522 4750 
Q 3503 4750 4090 4092 
Q 4678 3434 4678 2328 
Q 4678 1225 4090 567 
Q 3503 -91 2522 -91 
Q 1538 -91 948 565 
Q 359 1222 359 2328 
Q 359 3434 948 4092 
Q 1538 4750 2522 4750 
z
" transform="scale(0.015625)"/>
       <path id="DejaVuSans-73" d="M 2834 3397 
L 2834 2853 
Q 2591 2978 2328 3040 
Q 2066 3103 1784 3103 
Q 1356 3103 1142 2972 
Q 928 2841 928 2578 
Q 928 2378 1081 2264 
Q 1234 2150 1697 2047 
L 1894 2003 
Q 2506 1872 2764 1633 
Q 3022 1394 3022 966 
Q 3022 478 2636 193 
Q 2250 -91 1575 -91 
Q 1294 -91 989 -36 
Q 684 19 347 128 
L 347 722 
Q 666 556 975 473 
Q 1284 391 1588 391 
Q 1994 391 2212 530 
Q 2431 669 2431 922 
Q 2431 1156 2273 1281 
Q 2116 1406 1581 1522 
L 1381 1569 
Q 847 1681 609 1914 
Q 372 2147 372 2553 
Q 372 3047 722 3315 
Q 1072 3584 1716 3584 
Q 2034 3584 2315 3537 
Q 2597 3491 2834 3397 
z
" transform="scale(0.015625)"/>
       <path id="DejaVuSans-76" d="M 191 3500 
L 800 3500 
L 1894 563 
L 2988 3500 
L 3597 3500 
L 2284 0 
L 1503 0 
L 191 3500 
z
" transform="scale(0.015625)"/>
       <path id="DejaVuSans-2f" d="M 1625 4666 
L 2156 4666 
L 531 -594 
L 0 -594 
L 1625 4666 
z
" transform="scale(0.015625)"/>
       <path id="DejaVuSans-45" d="M 628 4666 
L 3578 4666 
L 3578 4134 
L 1259 4134 
L 1259 2753 
L 3481 2753 
L 3481 2222 
L 1259 2222 
L 1259 531 
L 3634 531 
L 3634 0 
L 628 0 
L 628 4666 
z
" transform="scale(0.015625)"/>
       <path id="DejaVuSans-78" d="M 3513 3500 
L 2247 1797 
L 3578 0 
L 2900 0 
L 1881 1375 
L 863 0 
L 184 0 
L 1544 1831 
L 300 3500 
L 978 3500 
L 1906 2253 
L 2834 3500 
L 3513 3500 
z
" transform="scale(0.015625)"/>
       <path id="DejaVuSans-63" d="M 3122 3366 
L 3122 2828 
Q 2878 2963 2633 3030 
Q 2388 3097 2138 3097 
Q 1578 3097 1268 2742 
Q 959 2388 959 1747 
Q 959 1106 1268 751 
Q 1578 397 2138 397 
Q 2388 397 2633 464 
Q 2878 531 3122 666 
L 3122 134 
Q 2881 22 2623 -34 
Q 2366 -91 2075 -91 
Q 1284 -91 818 406 
Q 353 903 353 1747 
Q 353 2603 823 3093 
Q 1294 3584 2113 3584 
Q 2378 3584 2631 3529 
Q 2884 3475 3122 3366 
z
" transform="scale(0.015625)"/>
      </defs>
      <use xlink:href="#DejaVuSans-4f"/>
      <use xlink:href="#DejaVuSans-62" x="78.710938"/>
      <use xlink:href="#DejaVuSans-73" x="142.1875"/>
      <use xlink:href="#DejaVuSans-65" x="194.287109"/>
      <use xlink:href="#DejaVuSans-72" x="255.810547"/>
      <use xlink:href="#DejaVuSans-76" x="296.923828"/>
      <use xlink:href="#DejaVuSans-65" x="356.103516"/>
      <use xlink:href="#DejaVuSans-64" x="417.626953"/>
      <use xlink:href="#DejaVuSans-20" x="481.103516"/>
      <use xlink:href="#DejaVuSans-2f" x="512.890625"/>
      <use xlink:href="#DejaVuSans-20" x="546.582031"/>
      <use xlink:href="#DejaVuSans-45" x="578.369141"/>
      <use xlink:href="#DejaVuSans-78" x="641.552734"/>
      <use xlink:href="#DejaVuSans-70" x="700.732422"/>
      <use xlink:href="#DejaVuSans-65" x="764.208984"/>
      <use xlink:href="#DejaVuSans-63" x="825.732422"/>
      <use xlink:href="#DejaVuSans-74" x="880.712891"/>
      <use xlink:href="#DejaVuSans-65" x="919.921875"/>
      <use xlink:href="#DejaVuSans-64" x="981.445312"/>
     </g>
    </g>
   </g>
   <g id="line2d_7">
    <path d="M 96.040398 353.219706 
L 104.66914 353.21849 
L 113.297882 353.216765 
L 121.926624 353.223196 
L 130.555366 353.217645 
L 139.184108 353.222738 
L 147.81285 353.212351 
L 156.441591 353.213654 
L 165.070333 353.118845 
L 173.699075 352.819861 
L 182.327817 351.434705 
L 190.956559 351.972715 
L 199.585301 350.977091 
L 208.214043 351.71183 
L 216.842785 351.232652 
L 225.471527 350.963781 
L 234.100269 351.783706 
L 242.729011 351.269922 
L 251.357753 350.705557 
L 259.986495 351.759747 
L 268.615237 350.875932 
L 277.243979 351.916811 
L 285.872721 351.21668 
L 294.501463 351.911487 
L 303.130205 351.653264 
L 311.758947 351.514835 
L 320.387689 351.208694 
L 329.016431 351.757085 
L 337.645173 350.953132 
L 346.273915 351.578725 
L 354.902657 351.336474 
L 363.531399 351.549442 
L 372.160141 351.573401 
L 380.788883 351.576063 
L 389.417625 351.1661 
L 398.046367 351.77572 
L 406.675108 352.092509 
L 415.30385 351.898176 
L 423.932592 351.994012 
L 432.561334 351.264598 
L 441.190076 351.935446 
L 449.818818 351.339136 
L 458.44756 352.164386 
L 467.076302 351.863569 
L 475.705044 351.477565 
L 484.333786 350.846649 
L 492.962528 351.144803 
L 501.59127 351.091561 
L 510.220012 351.669236 
L 518.848754 351.541455 
L 527.477496 351.312515 
L 536.106238 351.773058 
L 544.73498 351.970053 
L 553.363722 351.988688 
L 561.992464 352.481175 
L 570.621206 352.393326 
L 579.249948 351.706505 
L 587.87869 352.483837 
L 596.507432 352.201655 
L 605.136174 352.505134 
L 613.764916 352.198993 
L 622.393658 352.624928 
L 631.0224 352.289504 
L 639.651142 352.395988 
L 648.279883 352.159062 
L 656.908625 352.459879 
L 665.537367 352.462541 
L 674.166109 352.507796 
L 682.794851 352.638239 
L 691.423593 352.478513 
L 700.052335 352.595645 
L 708.681077 351.304529 
L 717.309819 352.433258 
L 725.938561 352.305477 
L 734.567303 352.1564 
L 743.196045 352.656874 
L 751.824787 352.55039 
L 760.453529 352.081861 
L 769.082271 352.590321 
L 777.711013 352.198993 
L 786.339755 352.148413 
L 794.968497 352.49981 
L 803.597239 352.443906 
L 812.225981 352.39865 
L 820.854723 352.108482 
L 829.483465 352.065888 
L 838.112207 352.137765 
L 846.740949 352.183021 
L 855.369691 352.374691 
L 863.998433 352.143089 
L 872.627175 352.135103 
L 881.255917 351.847597 
L 889.884659 352.302815 
L 898.5134 351.709168 
L 907.142142 351.490876 
L 915.770884 349.704609 
L 924.399626 349.960171 
L 933.028368 340.954301 
L 941.65711 50.3972 
L 950.285852 336.745527 
" clip-path="url(#p744fc0a012)" style="fill: none; stroke: #7cb5ec; stroke-linecap: square"/>
   </g>
   <g id="line2d_8">
    <path d="M 96.040398 353.219422 
L 104.66914 353.218384 
L 113.297882 353.215983 
L 121.926624 353.22314 
L 130.555366 353.216999 
L 139.184108 353.222519 
L 147.81285 353.209993 
L 156.441591 353.211154 
L 165.070333 353.072891 
L 173.699075 352.714432 
L 182.327817 351.367013 
L 190.956559 351.929307 
L 199.585301 349.123077 
L 208.214043 351.839936 
L 216.842785 348.957104 
L 225.471527 349.623551 
L 234.100269 350.254251 
L 242.729011 349.255856 
L 251.357753 350.307873 
L 259.986495 351.045817 
L 268.615237 349.901876 
L 277.243979 351.066244 
L 285.872721 349.927411 
L 294.501463 350.716423 
L 303.130205 350.358942 
L 311.758947 350.989641 
L 320.387689 350.124025 
L 329.016431 351.408405 
L 337.645173 350.057636 
L 346.273915 350.953893 
L 354.902657 351.076458 
L 363.531399 350.279785 
L 372.160141 351.045817 
L 380.788883 351.21179 
L 389.417625 351.60502 
L 398.046367 351.536077 
L 406.675108 351.645875 
L 415.30385 351.533524 
L 423.932592 351.571825 
L 432.561334 351.296054 
L 441.190076 351.214344 
L 449.818818 351.413512 
L 458.44756 351.913986 
L 467.076302 351.492669 
L 475.705044 351.380317 
L 484.333786 351.147954 
L 492.962528 351.283287 
L 501.59127 351.663749 
L 510.220012 352.286788 
L 518.848754 352.036551 
L 527.477496 351.387978 
L 536.106238 351.919093 
L 544.73498 351.977822 
L 553.363722 351.824616 
L 561.992464 352.123368 
L 570.621206 351.965055 
L 579.249948 351.85015 
L 587.87869 352.302109 
L 596.507432 352.371051 
L 605.136174 352.373605 
L 613.764916 352.383819 
L 622.393658 352.378712 
L 631.0224 352.34041 
L 639.651142 352.297002 
L 648.279883 351.707157 
L 656.908625 352.680018 
L 665.537367 352.524258 
L 674.166109 352.613628 
L 682.794851 352.746407 
L 691.423593 352.439994 
L 700.052335 352.560006 
L 708.681077 352.062085 
L 717.309819 352.547239 
L 725.938561 352.595754 
L 734.567303 352.322536 
L 743.196045 352.608521 
L 751.824787 352.58554 
L 760.453529 352.508937 
L 769.082271 352.603414 
L 777.711013 352.485956 
L 786.339755 352.360838 
L 794.968497 352.268914 
L 803.597239 352.560006 
L 812.225981 352.600861 
L 820.854723 352.373605 
L 829.483465 351.722478 
L 838.112207 352.465529 
L 846.740949 352.427227 
L 855.369691 352.434887 
L 863.998433 352.424674 
L 872.627175 352.281681 
L 881.255917 352.240826 
L 889.884659 352.429781 
L 898.5134 352.113154 
L 907.142142 351.995696 
L 915.770884 350.624499 
L 924.399626 350.39469 
L 933.028368 342.261987 
L 941.65711 88.805102 
L 950.285852 334.172693 
" clip-path="url(#p744fc0a012)" style="fill: none; stroke: #434348; stroke-linecap: square"/>
   </g>
   <g id="line2d_9">
    <path d="M 96.040398 353.219042 
L 104.66914 353.217958 
L 113.297882 353.215664 
L 121.926624 353.223088 
L 130.555366 353.216679 
L 139.184108 353.222502 
L 147.81285 353.209016 
L 156.441591 353.210961 
L 165.070333 353.076339 
L 173.699075 352.702342 
L 182.327817 350.837195 
L 190.956559 351.816317 
L 199.585301 349.150846 
L 208.214043 351.604062 
L 216.842785 349.405552 
L 225.471527 349.595464 
L 234.100269 350.560663 
L 242.729011 349.794313 
L 251.357753 350.332769 
L 259.986495 351.242112 
L 268.615237 350.022207 
L 277.243979 351.378402 
L 285.872721 350.335003 
L 294.501463 351.286798 
L 303.130205 350.889099 
L 311.758947 351.44543 
L 320.387689 350.969533 
L 329.016431 351.724712 
L 337.645173 351.141571 
L 346.273915 351.742586 
L 354.902657 351.400745 
L 363.531399 351.400745 
L 372.160141 351.977184 
L 380.788883 351.599594 
L 389.417625 351.876642 
L 398.046367 351.650982 
L 406.675108 352.084428 
L 415.30385 351.892282 
L 423.932592 351.818551 
L 432.561334 351.092417 
L 441.190076 352.012932 
L 449.818818 351.876642 
L 458.44756 352.292214 
L 467.076302 352.247529 
L 475.705044 352.216249 
L 484.333786 352.026337 
L 492.962528 351.80738 
L 501.59127 352.041977 
L 510.220012 352.012932 
L 518.848754 352.236358 
L 527.477496 351.762695 
L 536.106238 352.117942 
L 544.73498 352.383819 
L 553.363722 352.441909 
L 561.992464 352.513406 
L 570.621206 352.390521 
L 579.249948 351.42979 
L 587.87869 352.336899 
L 596.507432 352.482126 
L 605.136174 352.439675 
L 613.764916 352.332431 
L 622.393658 352.580433 
L 631.0224 352.479892 
L 639.651142 352.419567 
L 648.279883 352.077725 
L 656.908625 352.504469 
L 665.537367 352.508937 
L 674.166109 352.493297 
L 682.794851 352.665335 
L 691.423593 352.491063 
L 700.052335 352.701083 
L 708.681077 351.825254 
L 717.309819 352.562559 
L 725.938561 352.591605 
L 734.567303 352.231889 
L 743.196045 352.683209 
L 751.824787 352.462018 
L 760.453529 352.278808 
L 769.082271 352.625119 
L 777.711013 352.430738 
L 786.339755 352.339133 
L 794.968497 352.343602 
L 803.597239 352.555857 
L 812.225981 352.430738 
L 820.854723 352.332431 
L 829.483465 351.963778 
L 838.112207 352.276574 
L 846.740949 352.312322 
L 855.369691 352.390521 
L 863.998433 352.459783 
L 872.627175 352.511171 
L 881.255917 352.146987 
L 889.884659 352.638524 
L 898.5134 352.278808 
L 907.142142 352.298917 
L 915.770884 351.273392 
L 924.399626 351.224238 
L 933.028368 348.333107 
L 941.65711 259.262141 
L 950.285852 348.312999 
" clip-path="url(#p744fc0a012)" style="fill: none; stroke: #90ed7d; stroke-linecap: square"/>
   </g>
   <g id="line2d_10">
    <path d="M 96.040398 353.218936 
L 104.66914 353.217764 
L 113.297882 353.215391 
L 121.926624 353.223052 
L 130.555366 353.216214 
L 139.184108 353.222392 
L 147.81285 353.209049 
L 156.441591 353.210577 
L 165.070333 353.073376 
L 173.699075 352.677799 
L 182.327817 350.879738 
L 190.956559 351.851767 
L 199.585301 349.307691 
L 208.214043 351.518118 
L 216.842785 349.57044 
L 225.471527 349.783141 
L 234.100269 350.598497 
L 242.729011 349.530819 
L 251.357753 350.047975 
L 259.986495 351.194895 
L 268.615237 350.271103 
L 277.243979 351.470156 
L 285.872721 350.723615 
L 294.501463 351.374232 
L 303.130205 351.149018 
L 311.758947 351.476412 
L 320.387689 351.347123 
L 329.016431 351.611957 
L 337.645173 351.253284 
L 346.273915 351.83717 
L 354.902657 351.497265 
L 363.531399 351.63698 
L 372.160141 351.789208 
L 380.788883 351.520203 
L 389.417625 351.707881 
L 398.046367 352.049871 
L 406.675108 351.895559 
L 415.30385 352.166649 
L 423.932592 352.348071 
L 432.561334 351.359634 
L 441.190076 352.13954 
L 449.818818 351.931009 
L 458.44756 352.164563 
L 467.076302 352.135369 
L 475.705044 352.060298 
L 484.333786 352.060298 
L 492.962528 352.250061 
L 501.59127 352.120772 
L 510.220012 351.914326 
L 518.848754 352.214611 
L 527.477496 351.845511 
L 536.106238 352.4148 
L 544.73498 352.291767 
L 553.363722 352.295938 
L 561.992464 352.466933 
L 570.621206 352.318876 
L 579.249948 351.63281 
L 587.87869 352.358497 
L 596.507432 352.425227 
L 605.136174 352.302194 
L 613.764916 352.24589 
L 622.393658 352.391862 
L 631.0224 352.464848 
L 639.651142 352.448165 
L 648.279883 352.00608 
L 656.908625 352.542004 
L 665.537367 352.364753 
L 674.166109 352.54826 
L 682.794851 352.589966 
L 691.423593 352.398118 
L 700.052335 352.441909 
L 708.681077 351.511862 
L 717.309819 352.47736 
L 725.938561 352.573284 
L 734.567303 352.091578 
L 743.196045 352.604563 
L 751.824787 352.469018 
L 760.453529 352.24172 
L 769.082271 352.412715 
L 777.711013 352.225037 
L 786.339755 352.262573 
L 794.968497 352.254232 
L 803.597239 352.441909 
L 812.225981 352.425227 
L 820.854723 352.204184 
L 829.483465 351.943521 
L 838.112207 352.13954 
L 846.740949 352.362668 
L 855.369691 352.412715 
L 863.998433 352.471104 
L 872.627175 352.448165 
L 881.255917 352.208355 
L 889.884659 352.773473 
L 898.5134 352.421056 
L 907.142142 352.318876 
L 915.770884 351.682857 
L 924.399626 351.501435 
L 933.028368 350.187691 
L 941.65711 317.143895 
L 950.285852 350.92589 
" clip-path="url(#p744fc0a012)" style="fill: none; stroke: #f7a35c; stroke-linecap: square"/>
   </g>
   <g id="line2d_11">
    <path d="M 96.040398 353.219213 
L 104.66914 353.218038 
L 113.297882 353.215755 
L 121.926624 353.223132 
L 130.555366 353.216754 
L 139.184108 353.222648 
L 147.81285 353.210032 
L 156.441591 353.212104 
L 165.070333 353.0839 
L 173.699075 352.705673 
L 182.327817 351.004456 
L 190.956559 351.878876 
L 199.585301 349.859106 
L 208.214043 351.610765 
L 216.842785 349.903791 
L 225.471527 350.073595 
L 234.100269 351.087948 
L 242.729011 350.060189 
L 251.357753 350.547258 
L 259.986495 351.494584 
L 268.615237 350.091469 
L 277.243979 351.633108 
L 285.872721 350.953893 
L 294.501463 351.458835 
L 303.130205 351.351591 
L 311.758947 351.5348 
L 320.387689 351.199661 
L 329.016431 351.726947 
L 337.645173 351.369465 
L 346.273915 351.44543 
L 354.902657 351.516926 
L 363.531399 351.811848 
L 372.160141 351.780569 
L 380.788883 351.753758 
L 389.417625 351.718009 
L 398.046367 352.13805 
L 406.675108 352.41063 
L 415.30385 352.142519 
L 423.932592 352.276574 
L 432.561334 351.311374 
L 441.190076 352.093365 
L 449.818818 351.793974 
L 458.44756 352.343602 
L 467.076302 352.352539 
L 475.705044 352.214015 
L 484.333786 352.187204 
L 492.962528 351.883345 
L 501.59127 352.120176 
L 510.220012 352.079959 
L 518.848754 352.115708 
L 527.477496 351.700135 
L 536.106238 352.182735 
L 544.73498 352.200609 
L 553.363722 352.164861 
L 561.992464 352.5 
L 570.621206 352.222952 
L 579.249948 351.418619 
L 587.87869 352.298917 
L 596.507432 352.281043 
L 605.136174 352.41063 
L 613.764916 352.303385 
L 622.393658 352.482126 
L 631.0224 352.164861 
L 639.651142 352.374882 
L 648.279883 352.012932 
L 656.908625 352.526811 
L 665.537367 352.361476 
L 674.166109 352.482126 
L 682.794851 352.540217 
L 691.423593 352.401693 
L 700.052335 352.535748 
L 708.681077 351.704604 
L 717.309819 352.513406 
L 725.938561 352.549154 
L 734.567303 352.012932 
L 743.196045 352.759174 
L 751.824787 352.406161 
L 760.453529 352.263169 
L 769.082271 352.383819 
L 777.711013 352.343602 
L 786.339755 351.744821 
L 794.968497 352.084428 
L 803.597239 352.508937 
L 812.225981 352.441909 
L 820.854723 352.205078 
L 829.483465 351.744821 
L 838.112207 352.205078 
L 846.740949 352.075491 
L 855.369691 352.272106 
L 863.998433 352.325728 
L 872.627175 352.562559 
L 881.255917 352.097834 
L 889.884659 352.540217 
L 898.5134 352.196141 
L 907.142142 352.200609 
L 915.770884 351.718009 
L 924.399626 351.454367 
L 933.028368 349.961882 
L 941.65711 297.166344 
L 950.285852 350.84218 
" clip-path="url(#p744fc0a012)" style="fill: none; stroke: #8085e9; stroke-linecap: square"/>
   </g>
   <g id="line2d_12">
    <path d="M 96.040398 353.219099 
L 104.66914 353.21805 
L 113.297882 353.215838 
L 121.926624 353.223078 
L 130.555366 353.216718 
L 139.184108 353.222301 
L 147.81285 353.209237 
L 156.441591 353.211578 
L 165.070333 353.080394 
L 173.699075 352.666273 
L 182.327817 350.682508 
L 190.956559 351.491867 
L 199.585301 348.334465 
L 208.214043 351.594906 
L 216.842785 348.655848 
L 225.471527 348.677928 
L 234.100269 349.941379 
L 242.729011 348.498837 
L 251.357753 349.779461 
L 259.986495 350.763236 
L 268.615237 349.718129 
L 277.243979 351.131232 
L 285.872721 349.929113 
L 294.501463 350.942327 
L 303.130205 350.385427 
L 311.758947 351.320136 
L 320.387689 350.755876 
L 329.016431 351.609626 
L 337.645173 350.930061 
L 346.273915 351.675865 
L 354.902657 351.30787 
L 363.531399 351.440348 
L 372.160141 351.734745 
L 380.788883 351.418268 
L 389.417625 351.722478 
L 398.046367 351.489414 
L 406.675108 351.901569 
L 415.30385 351.943275 
L 423.932592 352.35543 
L 432.561334 351.401095 
L 441.190076 352.026688 
L 449.818818 351.599813 
L 458.44756 351.960448 
L 467.076302 351.940822 
L 475.705044 352.1101 
L 484.333786 351.803437 
L 492.962528 352.034048 
L 501.59127 351.771544 
L 510.220012 351.837783 
L 518.848754 351.977622 
L 527.477496 351.688132 
L 536.106238 352.168979 
L 544.73498 352.164073 
L 553.363722 352.333351 
L 561.992464 352.487909 
L 570.621206 352.299004 
L 579.249948 351.85741 
L 587.87869 352.38487 
L 596.507432 352.497722 
L 605.136174 352.37015 
L 613.764916 352.345617 
L 622.393658 352.42903 
L 631.0224 352.505082 
L 639.651142 352.509989 
L 648.279883 351.928556 
L 656.908625 352.483002 
L 665.537367 352.419216 
L 674.166109 352.453563 
L 682.794851 352.559055 
L 691.423593 352.7038 
L 700.052335 352.593401 
L 708.681077 351.712665 
L 717.309819 352.568868 
L 725.938561 352.556601 
L 734.567303 352.242578 
L 743.196045 352.640014 
L 751.824787 352.475642 
L 760.453529 352.426576 
L 769.082271 352.647374 
L 777.711013 352.343164 
L 786.339755 352.306364 
L 794.968497 352.397137 
L 803.597239 352.514895 
L 812.225981 352.468282 
L 820.854723 352.242578 
L 829.483465 351.943275 
L 838.112207 352.313724 
L 846.740949 352.372604 
L 855.369691 352.433936 
L 863.998433 352.453563 
L 872.627175 352.448656 
L 881.255917 352.235219 
L 889.884659 352.603214 
L 898.5134 352.306364 
L 907.142142 352.134633 
L 915.770884 351.310323 
L 924.399626 351.396189 
L 933.028368 347.949297 
L 941.65711 245.91884 
L 950.285852 345.96212 
" clip-path="url(#p744fc0a012)" style="fill: none; stroke: #f15c80; stroke-linecap: square"/>
   </g>
   <g id="line2d_13">
    <path d="M 96.040398 353.219038 
L 104.66914 353.21797 
L 113.297882 353.215655 
L 121.926624 353.223075 
L 130.555366 353.216644 
L 139.184108 353.22229 
L 147.81285 353.208552 
L 156.441591 353.212694 
L 165.070333 353.07609 
L 173.699075 352.598902 
L 182.327817 350.629618 
L 190.956559 351.675263 
L 199.585301 348.179028 
L 208.214043 351.53362 
L 216.842785 348.053909 
L 225.471527 348.67478 
L 234.100269 349.956655 
L 242.729011 348.006695 
L 251.357753 349.763075 
L 259.986495 351.009539 
L 268.615237 349.786682 
L 277.243979 351.075639 
L 285.872721 349.61671 
L 294.501463 350.662512 
L 303.130205 350.450046 
L 311.758947 351.160625 
L 320.387689 350.903306 
L 329.016431 351.805103 
L 337.645173 350.811238 
L 346.273915 351.656378 
L 354.902657 351.217283 
L 363.531399 350.955242 
L 372.160141 351.698871 
L 380.788883 351.37073 
L 389.417625 351.845236 
L 398.046367 352.081308 
L 406.675108 351.644574 
L 415.30385 352.156852 
L 423.932592 352.130884 
L 432.561334 351.347123 
L 441.190076 352.218231 
L 449.818818 351.507652 
L 458.44756 352.149769 
L 467.076302 352.045898 
L 475.705044 351.967994 
L 484.333786 351.95619 
L 492.962528 351.781496 
L 501.59127 351.960911 
L 510.220012 352.001044 
L 518.848754 352.258363 
L 527.477496 351.698871 
L 536.106238 352.451942 
L 544.73498 352.060062 
L 553.363722 352.336267 
L 561.992464 352.551093 
L 570.621206 352.473189 
L 579.249948 351.958551 
L 587.87869 352.624275 
L 596.507432 352.633718 
L 605.136174 352.5747 
L 613.764916 352.433057 
L 622.393658 352.503878 
L 631.0224 352.579422 
L 639.651142 352.525125 
L 648.279883 351.920779 
L 656.908625 352.690376 
L 665.537367 352.525125 
L 674.166109 352.636079 
L 682.794851 352.725787 
L 691.423593 352.546372 
L 700.052335 352.588865 
L 708.681077 351.98924 
L 717.309819 352.67149 
L 725.938561 352.593586 
L 734.567303 352.454303 
L 743.196045 352.777723 
L 751.824787 352.513321 
L 760.453529 352.57234 
L 769.082271 352.775362 
L 777.711013 352.494436 
L 786.339755 352.435417 
L 794.968497 352.456664 
L 803.597239 352.555814 
L 812.225981 352.624275 
L 820.854723 352.222952 
L 829.483465 352.003404 
L 838.112207 352.324463 
L 846.740949 352.468468 
L 855.369691 352.525125 
L 863.998433 352.565257 
L 872.627175 352.628997 
L 881.255917 352.374038 
L 889.884659 352.697458 
L 898.5134 352.402367 
L 907.142142 352.232395 
L 915.770884 351.521816 
L 924.399626 351.366008 
L 933.028368 348.4151 
L 941.65711 234.31175 
L 950.285852 346.783838 
" clip-path="url(#p744fc0a012)" style="fill: none; stroke: #e4d354; stroke-linecap: square"/>
   </g>
   <g id="line2d_14">
    <path d="M 96.040398 353.219075 
L 104.66914 353.217895 
L 113.297882 353.21567 
L 121.926624 353.223058 
L 130.555366 353.216462 
L 139.184108 353.22234 
L 147.81285 353.209161 
L 156.441591 353.209748 
L 165.070333 353.056682 
L 173.699075 352.592369 
L 182.327817 350.486933 
L 190.956559 351.411839 
L 199.585301 348.163072 
L 208.214043 351.491656 
L 216.842785 348.221317 
L 225.471527 348.488812 
L 234.100269 350.07868 
L 242.729011 348.33565 
L 251.357753 349.595464 
L 259.986495 350.883321 
L 268.615237 349.75294 
L 277.243979 351.129244 
L 285.872721 349.703324 
L 294.501463 350.725844 
L 303.130205 350.311659 
L 311.758947 351.17886 
L 320.387689 350.507966 
L 329.016431 351.396738 
L 337.645173 350.846649 
L 346.273915 351.392424 
L 354.902657 351.081785 
L 363.531399 351.079628 
L 372.160141 351.450669 
L 380.788883 351.297507 
L 389.417625 351.582259 
L 398.046367 351.765622 
L 406.675108 351.642661 
L 415.30385 351.985658 
L 423.932592 351.979187 
L 432.561334 351.172388 
L 441.190076 351.86054 
L 449.818818 351.565001 
L 458.44756 352.082733 
L 467.076302 352.125877 
L 475.705044 352.08489 
L 484.333786 351.890741 
L 492.962528 351.974872 
L 501.59127 352.102148 
L 510.220012 352.033117 
L 518.848754 352.158236 
L 527.477496 351.808767 
L 536.106238 352.253153 
L 544.73498 352.097834 
L 553.363722 352.270411 
L 561.992464 352.451617 
L 570.621206 352.156078 
L 579.249948 351.450669 
L 587.87869 352.354542 
L 596.507432 352.281197 
L 605.136174 352.358857 
L 613.764916 352.233738 
L 622.393658 352.419259 
L 631.0224 352.419259 
L 639.651142 352.33297 
L 648.279883 351.89937 
L 656.908625 352.483975 
L 665.537367 352.430045 
L 674.166109 352.512019 
L 682.794851 352.54222 
L 691.423593 352.350228 
L 700.052335 352.475346 
L 708.681077 351.306135 
L 717.309819 352.432202 
L 725.938561 352.460246 
L 734.567303 352.024488 
L 743.196045 352.602622 
L 751.824787 352.272568 
L 760.453529 352.406315 
L 769.082271 352.455931 
L 777.711013 352.12372 
L 786.339755 352.283354 
L 794.968497 352.263939 
L 803.597239 352.447302 
L 812.225981 352.419259 
L 820.854723 352.192751 
L 829.483465 351.901527 
L 838.112207 352.194908 
L 846.740949 352.421416 
L 855.369691 352.455931 
L 863.998433 352.494761 
L 872.627175 352.537905 
L 881.255917 352.218638 
L 889.884659 352.613408 
L 898.5134 352.393372 
L 907.142142 352.166864 
L 915.770884 351.532643 
L 924.399626 351.59736 
L 933.028368 349.865115 
L 941.65711 308.59974 
L 950.285852 350.238314 
" clip-path="url(#p744fc0a012)" style="fill: none; stroke: #2b908f; stroke-linecap: square"/>
   </g>
   <g id="line2d_15">
    <path d="M 96.040398 353.219361 
L 104.66914 353.217948 
L 113.297882 353.215995 
L 121.926624 353.223133 
L 130.555366 353.216942 
L 139.184108 353.222572 
L 147.81285 353.209857 
L 156.441591 353.213288 
L 165.070333 353.087721 
L 173.699075 352.756643 
L 182.327817 351.411343 
L 190.956559 351.981652 
L 199.585301 349.684834 
L 208.214043 351.722478 
L 216.842785 349.577589 
L 225.471527 350.212119 
L 234.100269 350.882397 
L 242.729011 350.203182 
L 251.357753 350.734936 
L 259.986495 351.503521 
L 268.615237 350.203182 
L 277.243979 351.467772 
L 285.872721 350.247867 
L 294.501463 350.909208 
L 303.130205 350.998578 
L 311.758947 351.061137 
L 320.387689 350.037847 
L 329.016431 351.034326 
L 337.645173 351.347123 
L 346.273915 351.458835 
L 354.902657 351.440961 
L 363.531399 351.047732 
L 372.160141 351.396276 
L 380.788883 351.400745 
L 389.417625 351.074543 
L 398.046367 351.463304 
L 406.675108 351.610765 
L 415.30385 352.160393 
L 423.932592 352.424035 
L 432.561334 351.583954 
L 441.190076 351.695667 
L 449.818818 351.744821 
L 458.44756 351.887813 
L 467.076302 351.919093 
L 475.705044 351.7761 
L 484.333786 351.525863 
L 492.962528 351.624171 
L 501.59127 351.570548 
L 510.220012 352.044211 
L 518.848754 351.910156 
L 527.477496 351.575017 
L 536.106238 352.227421 
L 544.73498 351.901219 
L 553.363722 351.941435 
L 561.992464 352.298917 
L 570.621206 352.397224 
L 579.249948 352.0174 
L 587.87869 352.477658 
L 596.507432 352.41063 
L 605.136174 352.276574 
L 613.764916 352.352539 
L 622.393658 352.58937 
L 631.0224 352.263169 
L 639.651142 352.222952 
L 648.279883 351.704604 
L 656.908625 352.642993 
L 665.537367 352.334665 
L 674.166109 352.642993 
L 682.794851 352.567028 
L 691.423593 352.146987 
L 700.052335 352.611713 
L 708.681077 351.80738 
L 717.309819 352.535748 
L 725.938561 352.580433 
L 734.567303 352.495532 
L 743.196045 352.464252 
L 751.824787 352.446378 
L 760.453529 352.517874 
L 769.082271 352.522343 
L 777.711013 352.075491 
L 786.339755 351.816317 
L 794.968497 352.419567 
L 803.597239 352.339133 
L 812.225981 352.562559 
L 820.854723 352.102302 
L 829.483465 351.440961 
L 838.112207 352.446378 
L 846.740949 352.281043 
L 855.369691 352.370413 
L 863.998433 352.370413 
L 872.627175 352.37935 
L 881.255917 352.057617 
L 889.884659 352.37935 
L 898.5134 352.04868 
L 907.142142 351.914624 
L 915.770884 350.672376 
L 924.399626 350.819837 
L 933.028368 344.948205 
L 941.65711 165.291445 
L 950.285852 339.268719 
" clip-path="url(#p744fc0a012)" style="fill: none; stroke: #f45b5b; stroke-linecap: square"/>
   </g>
   <g id="line2d_16">
    <path d="M 96.040398 353.219089 
L 104.66914 353.217921 
L 113.297882 353.215778 
L 121.926624 353.223077 
L 130.555366 353.216576 
L 139.184108 353.222314 
L 147.81285 353.208701 
L 156.441591 353.212039 
L 165.070333 353.084502 
L 173.699075 352.669665 
L 182.327817 350.822289 
L 190.956559 351.539269 
L 199.585301 348.67048 
L 208.214043 351.510223 
L 216.842785 348.326404 
L 225.471527 348.750914 
L 234.100269 349.946242 
L 242.729011 348.109681 
L 251.357753 349.760799 
L 259.986495 350.714827 
L 268.615237 349.698239 
L 277.243979 350.940487 
L 285.872721 349.135206 
L 294.501463 350.410968 
L 303.130205 349.87698 
L 311.758947 351.009749 
L 320.387689 350.205416 
L 329.016431 351.523629 
L 337.645173 350.073595 
L 346.273915 351.275626 
L 354.902657 350.911442 
L 363.531399 350.658971 
L 372.160141 351.416385 
L 380.788883 351.058903 
L 389.417625 351.572783 
L 398.046367 351.264455 
L 406.675108 351.738118 
L 415.30385 351.0522 
L 423.932592 352.227421 
L 432.561334 351.264455 
L 441.190076 351.820785 
L 449.818818 351.646513 
L 458.44756 351.80738 
L 467.076302 351.552674 
L 475.705044 351.680027 
L 484.333786 351.675559 
L 492.962528 351.595125 
L 501.59127 351.769397 
L 510.220012 351.905687 
L 518.848754 352.133582 
L 527.477496 351.389573 
L 536.106238 352.200609 
L 544.73498 352.019634 
L 553.363722 352.202844 
L 561.992464 352.343602 
L 570.621206 352.415098 
L 579.249948 351.892282 
L 587.87869 352.473189 
L 596.507432 352.397224 
L 605.136174 352.401693 
L 613.764916 352.491063 
L 622.393658 352.564794 
L 631.0224 352.435207 
L 639.651142 352.372647 
L 648.279883 351.932498 
L 656.908625 352.763643 
L 665.537367 352.53128 
L 674.166109 352.707786 
L 682.794851 352.634056 
L 691.423593 352.513406 
L 700.052335 352.470955 
L 708.681077 351.814083 
L 717.309819 352.616182 
L 725.938561 352.520108 
L 734.567303 352.42627 
L 743.196045 352.616182 
L 751.824787 352.466486 
L 760.453529 352.629587 
L 769.082271 352.631821 
L 777.711013 352.283277 
L 786.339755 352.388287 
L 794.968497 352.249763 
L 803.597239 352.488829 
L 812.225981 352.522343 
L 820.854723 352.2587 
L 829.483465 351.939201 
L 838.112207 352.173798 
L 846.740949 352.439675 
L 855.369691 352.54692 
L 863.998433 352.591605 
L 872.627175 352.415098 
L 881.255917 352.15369 
L 889.884659 352.600542 
L 898.5134 352.149221 
L 907.142142 352.104536 
L 915.770884 351.262221 
L 924.399626 351.242112 
L 933.028368 348.373324 
L 941.65711 257.193217 
L 950.285852 348.263845 
" clip-path="url(#p744fc0a012)" style="fill: none; stroke: #91e8e1; stroke-linecap: square"/>
   </g>
   <g id="line2d_17">
    <path d="M 96.040398 353.21895 
L 104.66914 353.217642 
L 113.297882 353.215328 
L 121.926624 353.22306 
L 130.555366 353.216277 
L 139.184108 353.222447 
L 147.81285 353.208603 
L 156.441591 353.208621 
L 165.070333 353.079823 
L 173.699075 352.756178 
L 182.327817 351.331667 
L 190.956559 351.95782 
L 199.585301 349.973798 
L 208.214043 351.710562 
L 216.842785 350.426608 
L 225.471527 350.256804 
L 234.100269 351.034326 
L 242.729011 350.334258 
L 251.357753 350.733446 
L 259.986495 351.645024 
L 268.615237 350.900271 
L 277.243979 351.740352 
L 285.872721 350.998578 
L 294.501463 351.573527 
L 303.130205 351.394787 
L 311.758947 351.457346 
L 320.387689 351.362018 
L 329.016431 351.755247 
L 337.645173 351.335206 
L 346.273915 351.966757 
L 354.902657 351.832701 
L 363.531399 351.674814 
L 372.160141 351.95782 
L 380.788883 351.704604 
L 389.417625 351.80589 
L 398.046367 352.112729 
L 406.675108 351.767163 
L 415.30385 352.068043 
L 423.932592 352.085917 
L 432.561334 351.838659 
L 441.190076 352.044211 
L 449.818818 351.95782 
L 458.44756 352.401693 
L 467.076302 352.22891 
L 475.705044 352.324238 
L 484.333786 352.130603 
L 492.962528 352.10975 
L 501.59127 352.032295 
L 510.220012 352.136561 
L 518.848754 352.178267 
L 527.477496 351.892282 
L 536.106238 352.327217 
L 544.73498 351.969736 
L 553.363722 352.28849 
L 561.992464 352.446378 
L 570.621206 352.303385 
L 579.249948 351.454367 
L 587.87869 352.357008 
L 596.507432 352.383819 
L 605.136174 352.443399 
L 613.764916 352.386798 
L 622.393658 352.556601 
L 631.0224 352.413609 
L 639.651142 352.300406 
L 648.279883 351.865471 
L 656.908625 352.577454 
L 665.537367 352.312322 
L 674.166109 352.68172 
L 682.794851 352.479147 
L 691.423593 352.514895 
L 700.052335 352.395735 
L 708.681077 351.570548 
L 717.309819 352.312322 
L 725.938561 352.38084 
L 734.567303 352.136561 
L 743.196045 352.547664 
L 751.824787 352.300406 
L 760.453529 352.476168 
L 769.082271 352.419567 
L 777.711013 352.10975 
L 786.339755 352.082938 
L 794.968497 352.237847 
L 803.597239 352.327217 
L 812.225981 352.505958 
L 820.854723 352.068043 
L 829.483465 351.945904 
L 838.112207 352.091875 
L 846.740949 352.482126 
L 855.369691 352.270616 
L 863.998433 352.514895 
L 872.627175 352.407651 
L 881.255917 352.324238 
L 889.884659 352.663846 
L 898.5134 352.312322 
L 907.142142 352.115708 
L 915.770884 351.362018 
L 924.399626 351.546716 
L 933.028368 350.089979 
L 941.65711 317.389366 
L 950.285852 350.313405 
" clip-path="url(#p744fc0a012)" style="fill: none; stroke: #7cb5ec; stroke-linecap: square"/>
   </g>
   <g id="line2d_18">
    <path d="M 96.040398 353.219025 
L 104.66914 353.217905 
L 113.297882 353.215435 
L 121.926624 353.223083 
L 130.555366 353.21639 
L 139.184108 353.222401 
L 147.81285 353.209075 
L 156.441591 353.210417 
L 165.070333 353.081133 
L 173.699075 352.733718 
L 182.327817 351.315402 
L 190.956559 351.76025 
L 199.585301 349.560053 
L 208.214043 351.798021 
L 216.842785 349.61671 
L 225.471527 349.744189 
L 234.100269 350.452407 
L 242.729011 349.279126 
L 251.357753 350.561001 
L 259.986495 351.075639 
L 268.615237 350.386307 
L 277.243979 351.30699 
L 285.872721 350.306042 
L 294.501463 351.092164 
L 303.130205 350.771105 
L 311.758947 351.332958 
L 320.387689 350.766384 
L 329.016431 351.750807 
L 337.645173 350.893863 
L 346.273915 351.554866 
L 354.902657 351.510013 
L 363.531399 351.167707 
L 372.160141 351.675263 
L 380.788883 351.524177 
L 389.417625 351.59736 
L 398.046367 351.967994 
L 406.675108 351.89009 
L 415.30385 351.779135 
L 423.932592 352.060062 
L 432.561334 351.439191 
L 441.190076 351.998683 
L 449.818818 351.866482 
L 458.44756 352.031733 
L 467.076302 352.048258 
L 475.705044 351.920779 
L 484.333786 351.958551 
L 492.962528 352.064783 
L 501.59127 351.849957 
L 510.220012 352.18282 
L 518.848754 352.130884 
L 527.477496 351.76261 
L 536.106238 352.286692 
L 544.73498 352.18518 
L 553.363722 352.069505 
L 561.992464 352.565257 
L 570.621206 352.392924 
L 579.249948 351.753167 
L 587.87869 352.449582 
L 596.507432 352.416532 
L 605.136174 352.402367 
L 613.764916 352.310299 
L 622.393658 352.466107 
L 631.0224 352.362235 
L 639.651142 352.343349 
L 648.279883 351.849957 
L 656.908625 352.63844 
L 665.537367 352.369317 
L 674.166109 352.584143 
L 682.794851 352.610111 
L 691.423593 352.350431 
L 700.052335 352.577061 
L 708.681077 351.646935 
L 717.309819 352.456664 
L 725.938561 352.501518 
L 734.567303 352.24892 
L 743.196045 352.673851 
L 751.824787 352.414171 
L 760.453529 352.336267 
L 769.082271 352.414171 
L 777.711013 352.333906 
L 786.339755 352.227673 
L 794.968497 352.168655 
L 803.597239 352.558175 
L 812.225981 352.395285 
L 820.854723 352.123801 
L 829.483465 351.679985 
L 838.112207 352.305577 
L 846.740949 352.584143 
L 855.369691 352.447221 
L 863.998433 352.303217 
L 872.627175 352.307938 
L 881.255917 352.303217 
L 889.884659 352.640801 
L 898.5134 352.230034 
L 907.142142 352.178098 
L 915.770884 351.380173 
L 924.399626 351.290465 
L 933.028368 348.894328 
L 941.65711 275.737777 
L 950.285852 347.664389 
" clip-path="url(#p744fc0a012)" style="fill: none; stroke: #434348; stroke-linecap: square"/>
   </g>
   <g id="line2d_19">
    <path d="M 96.040398 353.219168 
L 104.66914 353.218086 
L 113.297882 353.215803 
L 121.926624 353.223063 
L 130.555366 353.216772 
L 139.184108 353.22245 
L 147.81285 353.209669 
L 156.441591 353.212618 
L 165.070333 353.082023 
L 173.699075 352.719754 
L 182.327817 350.865048 
L 190.956559 351.745416 
L 199.585301 349.011577 
L 208.214043 351.528544 
L 216.842785 348.846838 
L 225.471527 349.447407 
L 234.100269 350.095938 
L 242.729011 349.149208 
L 251.357753 350.158497 
L 259.986495 350.909208 
L 268.615237 350.152241 
L 277.243979 351.073947 
L 285.872721 349.839445 
L 294.501463 350.842478 
L 303.130205 350.594326 
L 311.758947 350.96134 
L 320.387689 350.479634 
L 329.016431 351.574421 
L 337.645173 350.565132 
L 346.273915 351.113568 
L 354.902657 351.265795 
L 363.531399 350.880013 
L 372.160141 351.474326 
L 380.788883 351.249113 
L 389.417625 351.749587 
L 398.046367 351.860108 
L 406.675108 351.839255 
L 415.30385 351.718307 
L 423.932592 351.645322 
L 432.561334 351.159445 
L 441.190076 351.814232 
L 449.818818 351.69954 
L 458.44756 351.978971 
L 467.076302 351.9039 
L 475.705044 351.718307 
L 484.333786 351.639066 
L 492.962528 351.655748 
L 501.59127 351.657833 
L 510.220012 351.958118 
L 518.848754 352.118687 
L 527.477496 351.5348 
L 536.106238 352.498213 
L 544.73498 352.239634 
L 553.363722 352.164563 
L 561.992464 352.527407 
L 570.621206 352.373094 
L 579.249948 352.043615 
L 587.87869 352.431483 
L 596.507432 352.502383 
L 605.136174 352.416886 
L 613.764916 352.310535 
L 622.393658 352.531578 
L 631.0224 352.239634 
L 639.651142 352.333473 
L 648.279883 351.843426 
L 656.908625 352.529492 
L 665.537367 352.469018 
L 674.166109 352.602478 
L 682.794851 352.533663 
L 691.423593 352.544089 
L 700.052335 352.494042 
L 708.681077 351.718307 
L 717.309819 352.487786 
L 725.938561 352.462762 
L 734.567303 352.31262 
L 743.196045 352.604563 
L 751.824787 352.398118 
L 760.453529 352.494042 
L 769.082271 352.592052 
L 777.711013 352.270914 
L 786.339755 352.260488 
L 794.968497 352.421056 
L 803.597239 352.544089 
L 812.225981 352.58371 
L 820.854723 352.085322 
L 829.483465 351.705796 
L 838.112207 352.268829 
L 846.740949 352.333473 
L 855.369691 352.391862 
L 863.998433 352.498213 
L 872.627175 352.371009 
L 881.255917 352.058213 
L 889.884659 352.546175 
L 898.5134 352.233379 
L 907.142142 351.997739 
L 915.770884 350.829966 
L 924.399626 350.930061 
L 933.028368 346.244373 
L 941.65711 217.376489 
L 950.285852 348.360961 
" clip-path="url(#p744fc0a012)" style="fill: none; stroke: #90ed7d; stroke-linecap: square"/>
   </g>
   <g id="line2d_20">
    <path d="M 96.040398 353.219214 
L 104.66914 353.217973 
L 113.297882 353.215651 
L 121.926624 353.223123 
L 130.555366 353.216665 
L 139.184108 353.222661 
L 147.81285 353.209269 
L 156.441591 353.211189 
L 165.070333 353.067716 
L 173.699075 352.732206 
L 182.327817 351.342732 
L 190.956559 351.715893 
L 199.585301 350.203496 
L 208.214043 351.702722 
L 216.842785 350.106913 
L 225.471527 350.495439 
L 234.100269 351.09469 
L 242.729011 350.455928 
L 251.357753 350.607387 
L 259.986495 351.518337 
L 268.615237 350.559095 
L 277.243979 351.61053 
L 285.872721 350.88616 
L 294.501463 351.586384 
L 303.130205 351.362488 
L 311.758947 351.103471 
L 320.387689 351.316392 
L 329.016431 351.786135 
L 337.645173 351.279076 
L 346.273915 351.540288 
L 354.902657 351.595164 
L 363.531399 351.720283 
L 372.160141 351.715893 
L 380.788883 351.709308 
L 389.417625 351.922229 
L 398.046367 352.029787 
L 406.675108 351.933204 
L 415.30385 351.823451 
L 423.932592 352.086858 
L 432.561334 351.478826 
L 441.190076 352.053932 
L 449.818818 351.772964 
L 458.44756 352.233927 
L 467.076302 352.117589 
L 475.705044 352.049542 
L 484.333786 352.067103 
L 492.962528 352.185636 
L 501.59127 352.047347 
L 510.220012 352.172466 
L 518.848754 352.097834 
L 527.477496 351.920034 
L 536.106238 352.33051 
L 544.73498 352.190026 
L 553.363722 352.14832 
L 561.992464 352.442458 
L 570.621206 352.190026 
L 579.249948 351.305416 
L 587.87869 352.172466 
L 596.507432 352.284414 
L 605.136174 352.332705 
L 613.764916 352.229537 
L 622.393658 352.264658 
L 631.0224 352.372216 
L 639.651142 352.33051 
L 648.279883 351.841011 
L 656.908625 352.460019 
L 665.537367 352.319535 
L 674.166109 352.464409 
L 682.794851 352.530261 
L 691.423593 352.420508 
L 700.052335 352.372216 
L 708.681077 351.522727 
L 717.309819 352.385387 
L 725.938561 352.50831 
L 734.567303 352.229537 
L 743.196045 352.611478 
L 751.824787 352.299779 
L 760.453529 352.154905 
L 769.082271 352.510505 
L 777.711013 352.280024 
L 786.339755 352.029787 
L 794.968497 352.350266 
L 803.597239 352.468799 
L 812.225981 352.50392 
L 820.854723 352.117589 
L 829.483465 351.80589 
L 838.112207 352.205392 
L 846.740949 352.519285 
L 855.369691 352.5127 
L 863.998433 352.387582 
L 872.627175 352.387582 
L 881.255917 352.275633 
L 889.884659 352.631233 
L 898.5134 352.258073 
L 907.142142 352.211977 
L 915.770884 351.391024 
L 924.399626 351.586384 
L 933.028368 350.221056 
L 941.65711 328.975057 
L 950.285852 351.586384 
" clip-path="url(#p744fc0a012)" style="fill: none; stroke: #f7a35c; stroke-linecap: square"/>
   </g>
   <g id="line2d_21">
    <path d="M 96.040398 353.219055 
L 104.66914 353.217843 
L 113.297882 353.215581 
L 121.926624 353.223062 
L 130.555366 353.216287 
L 139.184108 353.222518 
L 147.81285 353.208986 
L 156.441591 353.210867 
L 165.070333 353.069864 
L 173.699075 352.744931 
L 182.327817 351.319101 
L 190.956559 351.933615 
L 199.585301 349.90044 
L 208.214043 351.691198 
L 216.842785 349.803994 
L 225.471527 350.035985 
L 234.100269 350.648544 
L 242.729011 350.038592 
L 251.357753 350.604231 
L 259.986495 350.932667 
L 268.615237 350.335748 
L 277.243979 351.472241 
L 285.872721 350.497359 
L 294.501463 350.990013 
L 303.130205 350.724137 
L 311.758947 351.229824 
L 320.387689 350.854468 
L 329.016431 351.592146 
L 337.645173 350.815369 
L 346.273915 351.594753 
L 354.902657 351.151625 
L 363.531399 350.72153 
L 372.160141 351.253284 
L 380.788883 351.083852 
L 389.417625 351.610393 
L 398.046367 352.050914 
L 406.675108 351.972715 
L 415.30385 351.568687 
L 423.932592 351.420108 
L 432.561334 351.404468 
L 441.190076 351.764184 
L 449.818818 351.82153 
L 458.44756 352.045701 
L 467.076302 351.858023 
L 475.705044 351.745938 
L 484.333786 351.521767 
L 492.962528 351.618213 
L 501.59127 351.80589 
L 510.220012 351.657312 
L 518.848754 352.350677 
L 527.477496 351.714658 
L 536.106238 352.368924 
L 544.73498 352.353284 
L 553.363722 352.183852 
L 561.992464 352.392383 
L 570.621206 352.36371 
L 579.249948 351.712051 
L 587.87869 352.499255 
L 596.507432 352.322004 
L 605.136174 352.202099 
L 613.764916 352.204706 
L 622.393658 352.473189 
L 631.0224 352.293331 
L 639.651142 352.345464 
L 648.279883 351.824137 
L 656.908625 352.556601 
L 665.537367 352.481009 
L 674.166109 352.465369 
L 682.794851 352.6348 
L 691.423593 352.449729 
L 700.052335 352.327217 
L 708.681077 351.639066 
L 717.309819 352.504469 
L 725.938561 352.481009 
L 734.567303 352.335037 
L 743.196045 352.548781 
L 751.824787 352.303758 
L 760.453529 352.381957 
L 769.082271 352.504469 
L 777.711013 352.311578 
L 786.339755 352.113473 
L 794.968497 352.087407 
L 803.597239 352.421056 
L 812.225981 352.462762 
L 820.854723 352.095227 
L 829.483465 351.847597 
L 838.112207 352.181246 
L 846.740949 352.35589 
L 855.369691 352.358497 
L 863.998433 352.434089 
L 872.627175 352.38717 
L 881.255917 352.07698 
L 889.884659 352.676507 
L 898.5134 352.319398 
L 907.142142 352.027454 
L 915.770884 351.300203 
L 924.399626 351.281957 
L 933.028368 348.573662 
L 941.65711 271.967254 
L 950.285852 348.135748 
" clip-path="url(#p744fc0a012)" style="fill: none; stroke: #8085e9; stroke-linecap: square"/>
   </g>
   <g id="line2d_22">
    <path d="M 96.040398 353.21904 
L 104.66914 353.218061 
L 113.297882 353.216039 
L 121.926624 353.223126 
L 130.555366 353.216865 
L 139.184108 353.22255 
L 147.81285 353.211187 
L 156.441591 353.211538 
L 165.070333 353.089492 
L 173.699075 352.702676 
L 182.327817 350.826372 
L 190.956559 351.690702 
L 199.585301 349.21415 
L 208.214043 351.662898 
L 216.842785 348.944053 
L 225.471527 349.25387 
L 234.100269 350.407741 
L 242.729011 349.085059 
L 251.357753 349.813924 
L 259.986495 350.947935 
L 268.615237 349.704694 
L 277.243979 351.033333 
L 285.872721 349.863575 
L 294.501463 350.945949 
L 303.130205 350.501083 
L 311.758947 351.067095 
L 320.387689 350.526901 
L 329.016431 351.541751 
L 337.645173 350.685782 
L 346.273915 351.315346 
L 354.902657 351.088941 
L 363.531399 350.79104 
L 372.160141 351.605304 
L 380.788883 351.158452 
L 389.417625 351.557639 
L 398.046367 351.593387 
L 406.675108 351.698646 
L 415.30385 351.791988 
L 423.932592 351.287542 
L 432.561334 350.892327 
L 441.190076 351.813834 
L 449.818818 351.664884 
L 458.44756 351.799932 
L 467.076302 351.972715 
L 475.705044 351.549695 
L 484.333786 351.84561 
L 492.962528 351.869443 
L 501.59127 351.956827 
L 510.220012 351.73638 
L 518.848754 351.853555 
L 527.477496 351.341164 
L 536.106238 352.052155 
L 544.73498 351.927037 
L 553.363722 352.123652 
L 561.992464 352.395735 
L 570.621206 352.395735 
L 579.249948 351.573527 
L 587.87869 352.439427 
L 596.507432 352.254728 
L 605.136174 352.383819 
L 613.764916 352.284518 
L 622.393658 352.564545 
L 631.0224 352.411623 
L 639.651142 352.463259 
L 648.279883 351.954841 
L 656.908625 352.508937 
L 665.537367 352.435455 
L 674.166109 352.634056 
L 682.794851 352.663846 
L 691.423593 352.479147 
L 700.052335 352.502979 
L 708.681077 351.664884 
L 717.309819 352.592349 
L 725.938561 352.594335 
L 734.567303 352.075987 
L 743.196045 352.69165 
L 751.824787 352.324238 
L 760.453529 352.342112 
L 769.082271 352.586391 
L 777.711013 352.361973 
L 786.339755 352.302392 
L 794.968497 352.262672 
L 803.597239 352.453329 
L 812.225981 352.512909 
L 820.854723 352.201106 
L 829.483465 352.008463 
L 838.112207 352.254728 
L 846.740949 352.24877 
L 855.369691 352.266644 
L 863.998433 352.441413 
L 872.627175 352.397721 
L 881.255917 352.236854 
L 889.884659 352.608238 
L 898.5134 352.451343 
L 907.142142 352.346084 
L 915.770884 351.700632 
L 924.399626 351.670842 
L 933.028368 349.79605 
L 941.65711 295.466817 
L 950.285852 347.671022 
" clip-path="url(#p744fc0a012)" style="fill: none; stroke: #f15c80; stroke-linecap: square"/>
   </g>
   <g id="line2d_23">
    <path d="M 53.328125 353.2239 
L 992.998125 353.2239 
" clip-path="url(#p744fc0a012)" style="fill: none; stroke: #dedede; stroke-width: 2; stroke-linecap: square"/>
   </g>
   <g id="text_15">
    <!-- Cutadapt: Lengths of Trimmed Sequences (3' end) -->
    <g transform="translate(321.810625 19.3575) scale(0.16 -0.16)">
     <defs>
      <path id="DejaVuSans-43" d="M 4122 4306 
L 4122 3641 
Q 3803 3938 3442 4084 
Q 3081 4231 2675 4231 
Q 1875 4231 1450 3742 
Q 1025 3253 1025 2328 
Q 1025 1406 1450 917 
Q 1875 428 2675 428 
Q 3081 428 3442 575 
Q 3803 722 4122 1019 
L 4122 359 
Q 3791 134 3420 21 
Q 3050 -91 2638 -91 
Q 1578 -91 968 557 
Q 359 1206 359 2328 
Q 359 3453 968 4101 
Q 1578 4750 2638 4750 
Q 3056 4750 3426 4639 
Q 3797 4528 4122 4306 
z
" transform="scale(0.015625)"/>
      <path id="DejaVuSans-75" d="M 544 1381 
L 544 3500 
L 1119 3500 
L 1119 1403 
Q 1119 906 1312 657 
Q 1506 409 1894 409 
Q 2359 409 2629 706 
Q 2900 1003 2900 1516 
L 2900 3500 
L 3475 3500 
L 3475 0 
L 2900 0 
L 2900 538 
Q 2691 219 2414 64 
Q 2138 -91 1772 -91 
Q 1169 -91 856 284 
Q 544 659 544 1381 
z
M 1991 3584 
L 1991 3584 
z
" transform="scale(0.015625)"/>
      <path id="DejaVuSans-61" d="M 2194 1759 
Q 1497 1759 1228 1600 
Q 959 1441 959 1056 
Q 959 750 1161 570 
Q 1363 391 1709 391 
Q 2188 391 2477 730 
Q 2766 1069 2766 1631 
L 2766 1759 
L 2194 1759 
z
M 3341 1997 
L 3341 0 
L 2766 0 
L 2766 531 
Q 2569 213 2275 61 
Q 1981 -91 1556 -91 
Q 1019 -91 701 211 
Q 384 513 384 1019 
Q 384 1609 779 1909 
Q 1175 2209 1959 2209 
L 2766 2209 
L 2766 2266 
Q 2766 2663 2505 2880 
Q 2244 3097 1772 3097 
Q 1472 3097 1187 3025 
Q 903 2953 641 2809 
L 641 3341 
Q 956 3463 1253 3523 
Q 1550 3584 1831 3584 
Q 2591 3584 2966 3190 
Q 3341 2797 3341 1997 
z
" transform="scale(0.015625)"/>
      <path id="DejaVuSans-3a" d="M 750 794 
L 1409 794 
L 1409 0 
L 750 0 
L 750 794 
z
M 750 3309 
L 1409 3309 
L 1409 2516 
L 750 2516 
L 750 3309 
z
" transform="scale(0.015625)"/>
      <path id="DejaVuSans-6f" d="M 1959 3097 
Q 1497 3097 1228 2736 
Q 959 2375 959 1747 
Q 959 1119 1226 758 
Q 1494 397 1959 397 
Q 2419 397 2687 759 
Q 2956 1122 2956 1747 
Q 2956 2369 2687 2733 
Q 2419 3097 1959 3097 
z
M 1959 3584 
Q 2709 3584 3137 3096 
Q 3566 2609 3566 1747 
Q 3566 888 3137 398 
Q 2709 -91 1959 -91 
Q 1206 -91 779 398 
Q 353 888 353 1747 
Q 353 2609 779 3096 
Q 1206 3584 1959 3584 
z
" transform="scale(0.015625)"/>
      <path id="DejaVuSans-66" d="M 2375 4863 
L 2375 4384 
L 1825 4384 
Q 1516 4384 1395 4259 
Q 1275 4134 1275 3809 
L 1275 3500 
L 2222 3500 
L 2222 3053 
L 1275 3053 
L 1275 0 
L 697 0 
L 697 3053 
L 147 3053 
L 147 3500 
L 697 3500 
L 697 3744 
Q 697 4328 969 4595 
Q 1241 4863 1831 4863 
L 2375 4863 
z
" transform="scale(0.015625)"/>
      <path id="DejaVuSans-53" d="M 3425 4513 
L 3425 3897 
Q 3066 4069 2747 4153 
Q 2428 4238 2131 4238 
Q 1616 4238 1336 4038 
Q 1056 3838 1056 3469 
Q 1056 3159 1242 3001 
Q 1428 2844 1947 2747 
L 2328 2669 
Q 3034 2534 3370 2195 
Q 3706 1856 3706 1288 
Q 3706 609 3251 259 
Q 2797 -91 1919 -91 
Q 1588 -91 1214 -16 
Q 841 59 441 206 
L 441 856 
Q 825 641 1194 531 
Q 1563 422 1919 422 
Q 2459 422 2753 634 
Q 3047 847 3047 1241 
Q 3047 1584 2836 1778 
Q 2625 1972 2144 2069 
L 1759 2144 
Q 1053 2284 737 2584 
Q 422 2884 422 3419 
Q 422 4038 858 4394 
Q 1294 4750 2059 4750 
Q 2388 4750 2728 4690 
Q 3069 4631 3425 4513 
z
" transform="scale(0.015625)"/>
      <path id="DejaVuSans-71" d="M 947 1747 
Q 947 1113 1208 752 
Q 1469 391 1925 391 
Q 2381 391 2643 752 
Q 2906 1113 2906 1747 
Q 2906 2381 2643 2742 
Q 2381 3103 1925 3103 
Q 1469 3103 1208 2742 
Q 947 2381 947 1747 
z
M 2906 525 
Q 2725 213 2448 61 
Q 2172 -91 1784 -91 
Q 1150 -91 751 415 
Q 353 922 353 1747 
Q 353 2572 751 3078 
Q 1150 3584 1784 3584 
Q 2172 3584 2448 3432 
Q 2725 3281 2906 2969 
L 2906 3500 
L 3481 3500 
L 3481 -1331 
L 2906 -1331 
L 2906 525 
z
" transform="scale(0.015625)"/>
      <path id="DejaVuSans-33" d="M 2597 2516 
Q 3050 2419 3304 2112 
Q 3559 1806 3559 1356 
Q 3559 666 3084 287 
Q 2609 -91 1734 -91 
Q 1441 -91 1130 -33 
Q 819 25 488 141 
L 488 750 
Q 750 597 1062 519 
Q 1375 441 1716 441 
Q 2309 441 2620 675 
Q 2931 909 2931 1356 
Q 2931 1769 2642 2001 
Q 2353 2234 1838 2234 
L 1294 2234 
L 1294 2753 
L 1863 2753 
Q 2328 2753 2575 2939 
Q 2822 3125 2822 3475 
Q 2822 3834 2567 4026 
Q 2313 4219 1838 4219 
Q 1578 4219 1281 4162 
Q 984 4106 628 3988 
L 628 4550 
Q 988 4650 1302 4700 
Q 1616 4750 1894 4750 
Q 2613 4750 3031 4423 
Q 3450 4097 3450 3541 
Q 3450 3153 3228 2886 
Q 3006 2619 2597 2516 
z
" transform="scale(0.015625)"/>
      <path id="DejaVuSans-27" d="M 1147 4666 
L 1147 2931 
L 616 2931 
L 616 4666 
L 1147 4666 
z
" transform="scale(0.015625)"/>
     </defs>
     <use xlink:href="#DejaVuSans-43"/>
     <use xlink:href="#DejaVuSans-75" x="69.824219"/>
     <use xlink:href="#DejaVuSans-74" x="133.203125"/>
     <use xlink:href="#DejaVuSans-61" x="172.412109"/>
     <use xlink:href="#DejaVuSans-64" x="233.691406"/>
     <use xlink:href="#DejaVuSans-61" x="297.167969"/>
     <use xlink:href="#DejaVuSans-70" x="358.447266"/>
     <use xlink:href="#DejaVuSans-74" x="421.923828"/>
     <use xlink:href="#DejaVuSans-3a" x="461.132812"/>
     <use xlink:href="#DejaVuSans-20" x="494.824219"/>
     <use xlink:href="#DejaVuSans-4c" x="526.611328"/>
     <use xlink:href="#DejaVuSans-65" x="580.574219"/>
     <use xlink:href="#DejaVuSans-6e" x="642.097656"/>
     <use xlink:href="#DejaVuSans-67" x="705.476562"/>
     <use xlink:href="#DejaVuSans-74" x="768.953125"/>
     <use xlink:href="#DejaVuSans-68" x="808.162109"/>
     <use xlink:href="#DejaVuSans-73" x="871.541016"/>
     <use xlink:href="#DejaVuSans-20" x="923.640625"/>
     <use xlink:href="#DejaVuSans-6f" x="955.427734"/>
     <use xlink:href="#DejaVuSans-66" x="1016.609375"/>
     <use xlink:href="#DejaVuSans-20" x="1051.814453"/>
     <use xlink:href="#DejaVuSans-54" x="1083.601562"/>
     <use xlink:href="#DejaVuSans-72" x="1129.935547"/>
     <use xlink:href="#DejaVuSans-69" x="1171.048828"/>
     <use xlink:href="#DejaVuSans-6d" x="1198.832031"/>
     <use xlink:href="#DejaVuSans-6d" x="1296.244141"/>
     <use xlink:href="#DejaVuSans-65" x="1393.65625"/>
     <use xlink:href="#DejaVuSans-64" x="1455.179688"/>
     <use xlink:href="#DejaVuSans-20" x="1518.65625"/>
     <use xlink:href="#DejaVuSans-53" x="1550.443359"/>
     <use xlink:href="#DejaVuSans-65" x="1613.919922"/>
     <use xlink:href="#DejaVuSans-71" x="1675.443359"/>
     <use xlink:href="#DejaVuSans-75" x="1738.919922"/>
     <use xlink:href="#DejaVuSans-65" x="1802.298828"/>
     <use xlink:href="#DejaVuSans-6e" x="1863.822266"/>
     <use xlink:href="#DejaVuSans-63" x="1927.201172"/>
     <use xlink:href="#DejaVuSans-65" x="1982.181641"/>
     <use xlink:href="#DejaVuSans-73" x="2043.705078"/>
     <use xlink:href="#DejaVuSans-20" x="2095.804688"/>
     <use xlink:href="#DejaVuSans-28" x="2127.591797"/>
     <use xlink:href="#DejaVuSans-33" x="2166.605469"/>
     <use xlink:href="#DejaVuSans-27" x="2230.228516"/>
     <use xlink:href="#DejaVuSans-20" x="2257.71875"/>
     <use xlink:href="#DejaVuSans-65" x="2289.505859"/>
     <use xlink:href="#DejaVuSans-6e" x="2351.029297"/>
     <use xlink:href="#DejaVuSans-64" x="2414.408203"/>
     <use xlink:href="#DejaVuSans-29" x="2477.884766"/>
    </g>
   </g>
  </g>
 </g>
 <defs>
  <clipPath id="p744fc0a012">
   <rect x="53.328125" y="35.2559" width="939.67" height="317.968"/>
  </clipPath>
 </defs>
</svg>
