<?xml version="1.0" encoding="utf-8" standalone="no"?>
<!DOCTYPE svg PUBLIC "-//W3C//DTD SVG 1.1//EN"
  "http://www.w3.org/Graphics/SVG/1.1/DTD/svg11.dtd">
<svg xmlns:xlink="http://www.w3.org/1999/xlink" width="1000.280625pt" height="388.844525pt" viewBox="0 0 1000.280625 388.844525" xmlns="http://www.w3.org/2000/svg" version="1.1">
 <metadata>
  <rdf:RDF xmlns:dc="http://purl.org/dc/elements/1.1/" xmlns:cc="http://creativecommons.org/ns#" xmlns:rdf="http://www.w3.org/1999/02/22-rdf-syntax-ns#">
   <cc:Work>
    <dc:type rdf:resource="http://purl.org/dc/dcmitype/StillImage"/>
    <dc:date>2024-09-05T13:39:15.103474</dc:date>
    <dc:format>image/svg+xml</dc:format>
    <dc:creator>
     <cc:Agent>
      <dc:title>Matplotlib v3.8.2, https://matplotlib.org/</dc:title>
     </cc:Agent>
    </dc:creator>
   </cc:Work>
  </rdf:RDF>
 </metadata>
 <defs>
  <style type="text/css">*{stroke-linejoin: round; stroke-linecap: butt}</style>
 </defs>
 <g id="figure_1">
  <g id="axes_1">
   <g id="patch_1">
    <path d="M 40.600625 353.2239 
L 985.445625 353.2239 
L 985.445625 35.2559 
L 40.600625 35.2559 
z
" style="fill: #ffffff"/>
   </g>
   <g id="matplotlib.axis_1">
    <g id="xtick_1">
     <g id="text_1">
      <!-- 0 -->
      <g transform="translate(38.055625 366.30265) scale(0.08 -0.08)">
       <defs>
        <path id="DejaVuSans-30" d="M 2034 4250 
Q 1547 4250 1301 3770 
Q 1056 3291 1056 2328 
Q 1056 1369 1301 889 
Q 1547 409 2034 409 
Q 2525 409 2770 889 
Q 3016 1369 3016 2328 
Q 3016 3291 2770 3770 
Q 2525 4250 2034 4250 
z
M 2034 4750 
Q 2819 4750 3233 4129 
Q 3647 3509 3647 2328 
Q 3647 1150 3233 529 
Q 2819 -91 2034 -91 
Q 1250 -91 836 529 
Q 422 1150 422 2328 
Q 422 3509 836 4129 
Q 1250 4750 2034 4750 
z
" transform="scale(0.015625)"/>
       </defs>
       <use xlink:href="#DejaVuSans-30"/>
      </g>
     </g>
    </g>
    <g id="xtick_2">
     <g id="text_2">
      <!-- 20 -->
      <g transform="translate(224.479625 366.30265) scale(0.08 -0.08)">
       <defs>
        <path id="DejaVuSans-32" d="M 1228 531 
L 3431 531 
L 3431 0 
L 469 0 
L 469 531 
Q 828 903 1448 1529 
Q 2069 2156 2228 2338 
Q 2531 2678 2651 2914 
Q 2772 3150 2772 3378 
Q 2772 3750 2511 3984 
Q 2250 4219 1831 4219 
Q 1534 4219 1204 4116 
Q 875 4013 500 3803 
L 500 4441 
Q 881 4594 1212 4672 
Q 1544 4750 1819 4750 
Q 2544 4750 2975 4387 
Q 3406 4025 3406 3419 
Q 3406 3131 3298 2873 
Q 3191 2616 2906 2266 
Q 2828 2175 2409 1742 
Q 1991 1309 1228 531 
z
" transform="scale(0.015625)"/>
       </defs>
       <use xlink:href="#DejaVuSans-32"/>
       <use xlink:href="#DejaVuSans-30" x="63.623047"/>
      </g>
     </g>
    </g>
    <g id="xtick_3">
     <g id="text_3">
      <!-- 40 -->
      <g transform="translate(413.448625 366.30265) scale(0.08 -0.08)">
       <defs>
        <path id="DejaVuSans-34" d="M 2419 4116 
L 825 1625 
L 2419 1625 
L 2419 4116 
z
M 2253 4666 
L 3047 4666 
L 3047 1625 
L 3713 1625 
L 3713 1100 
L 3047 1100 
L 3047 0 
L 2419 0 
L 2419 1100 
L 313 1100 
L 313 1709 
L 2253 4666 
z
" transform="scale(0.015625)"/>
       </defs>
       <use xlink:href="#DejaVuSans-34"/>
       <use xlink:href="#DejaVuSans-30" x="63.623047"/>
      </g>
     </g>
    </g>
    <g id="xtick_4">
     <g id="text_4">
      <!-- 60 -->
      <g transform="translate(602.417625 366.30265) scale(0.08 -0.08)">
       <defs>
        <path id="DejaVuSans-36" d="M 2113 2584 
Q 1688 2584 1439 2293 
Q 1191 2003 1191 1497 
Q 1191 994 1439 701 
Q 1688 409 2113 409 
Q 2538 409 2786 701 
Q 3034 994 3034 1497 
Q 3034 2003 2786 2293 
Q 2538 2584 2113 2584 
z
M 3366 4563 
L 3366 3988 
Q 3128 4100 2886 4159 
Q 2644 4219 2406 4219 
Q 1781 4219 1451 3797 
Q 1122 3375 1075 2522 
Q 1259 2794 1537 2939 
Q 1816 3084 2150 3084 
Q 2853 3084 3261 2657 
Q 3669 2231 3669 1497 
Q 3669 778 3244 343 
Q 2819 -91 2113 -91 
Q 1303 -91 875 529 
Q 447 1150 447 2328 
Q 447 3434 972 4092 
Q 1497 4750 2381 4750 
Q 2619 4750 2861 4703 
Q 3103 4656 3366 4563 
z
" transform="scale(0.015625)"/>
       </defs>
       <use xlink:href="#DejaVuSans-36"/>
       <use xlink:href="#DejaVuSans-30" x="63.623047"/>
      </g>
     </g>
    </g>
    <g id="xtick_5">
     <g id="text_5">
      <!-- 80 -->
      <g transform="translate(791.386625 366.30265) scale(0.08 -0.08)">
       <defs>
        <path id="DejaVuSans-38" d="M 2034 2216 
Q 1584 2216 1326 1975 
Q 1069 1734 1069 1313 
Q 1069 891 1326 650 
Q 1584 409 2034 409 
Q 2484 409 2743 651 
Q 3003 894 3003 1313 
Q 3003 1734 2745 1975 
Q 2488 2216 2034 2216 
z
M 1403 2484 
Q 997 2584 770 2862 
Q 544 3141 544 3541 
Q 544 4100 942 4425 
Q 1341 4750 2034 4750 
Q 2731 4750 3128 4425 
Q 3525 4100 3525 3541 
Q 3525 3141 3298 2862 
Q 3072 2584 2669 2484 
Q 3125 2378 3379 2068 
Q 3634 1759 3634 1313 
Q 3634 634 3220 271 
Q 2806 -91 2034 -91 
Q 1263 -91 848 271 
Q 434 634 434 1313 
Q 434 1759 690 2068 
Q 947 2378 1403 2484 
z
M 1172 3481 
Q 1172 3119 1398 2916 
Q 1625 2713 2034 2713 
Q 2441 2713 2670 2916 
Q 2900 3119 2900 3481 
Q 2900 3844 2670 4047 
Q 2441 4250 2034 4250 
Q 1625 4250 1398 4047 
Q 1172 3844 1172 3481 
z
" transform="scale(0.015625)"/>
       </defs>
       <use xlink:href="#DejaVuSans-38"/>
       <use xlink:href="#DejaVuSans-30" x="63.623047"/>
      </g>
     </g>
    </g>
    <g id="xtick_6">
     <g id="text_6">
      <!-- 100 -->
      <g transform="translate(977.810625 366.30265) scale(0.08 -0.08)">
       <defs>
        <path id="DejaVuSans-31" d="M 794 531 
L 1825 531 
L 1825 4091 
L 703 3866 
L 703 4441 
L 1819 4666 
L 2450 4666 
L 2450 531 
L 3481 531 
L 3481 0 
L 794 0 
L 794 531 
z
" transform="scale(0.015625)"/>
       </defs>
       <use xlink:href="#DejaVuSans-31"/>
       <use xlink:href="#DejaVuSans-30" x="63.623047"/>
       <use xlink:href="#DejaVuSans-30" x="127.246094"/>
      </g>
     </g>
    </g>
    <g id="text_7">
     <!-- % GC -->
     <g transform="translate(499.317656 379.564837) scale(0.1 -0.1)">
      <defs>
       <path id="DejaVuSans-25" d="M 4653 2053 
Q 4381 2053 4226 1822 
Q 4072 1591 4072 1178 
Q 4072 772 4226 539 
Q 4381 306 4653 306 
Q 4919 306 5073 539 
Q 5228 772 5228 1178 
Q 5228 1588 5073 1820 
Q 4919 2053 4653 2053 
z
M 4653 2450 
Q 5147 2450 5437 2106 
Q 5728 1763 5728 1178 
Q 5728 594 5436 251 
Q 5144 -91 4653 -91 
Q 4153 -91 3862 251 
Q 3572 594 3572 1178 
Q 3572 1766 3864 2108 
Q 4156 2450 4653 2450 
z
M 1428 4353 
Q 1159 4353 1004 4120 
Q 850 3888 850 3481 
Q 850 3069 1003 2837 
Q 1156 2606 1428 2606 
Q 1700 2606 1854 2837 
Q 2009 3069 2009 3481 
Q 2009 3884 1853 4118 
Q 1697 4353 1428 4353 
z
M 4250 4750 
L 4750 4750 
L 1831 -91 
L 1331 -91 
L 4250 4750 
z
M 1428 4750 
Q 1922 4750 2215 4408 
Q 2509 4066 2509 3481 
Q 2509 2891 2217 2550 
Q 1925 2209 1428 2209 
Q 931 2209 642 2551 
Q 353 2894 353 3481 
Q 353 4063 643 4406 
Q 934 4750 1428 4750 
z
" transform="scale(0.015625)"/>
       <path id="DejaVuSans-20" transform="scale(0.015625)"/>
       <path id="DejaVuSans-47" d="M 3809 666 
L 3809 1919 
L 2778 1919 
L 2778 2438 
L 4434 2438 
L 4434 434 
Q 4069 175 3628 42 
Q 3188 -91 2688 -91 
Q 1594 -91 976 548 
Q 359 1188 359 2328 
Q 359 3472 976 4111 
Q 1594 4750 2688 4750 
Q 3144 4750 3555 4637 
Q 3966 4525 4313 4306 
L 4313 3634 
Q 3963 3931 3569 4081 
Q 3175 4231 2741 4231 
Q 1884 4231 1454 3753 
Q 1025 3275 1025 2328 
Q 1025 1384 1454 906 
Q 1884 428 2741 428 
Q 3075 428 3337 486 
Q 3600 544 3809 666 
z
" transform="scale(0.015625)"/>
       <path id="DejaVuSans-43" d="M 4122 4306 
L 4122 3641 
Q 3803 3938 3442 4084 
Q 3081 4231 2675 4231 
Q 1875 4231 1450 3742 
Q 1025 3253 1025 2328 
Q 1025 1406 1450 917 
Q 1875 428 2675 428 
Q 3081 428 3442 575 
Q 3803 722 4122 1019 
L 4122 359 
Q 3791 134 3420 21 
Q 3050 -91 2638 -91 
Q 1578 -91 968 557 
Q 359 1206 359 2328 
Q 359 3453 968 4101 
Q 1578 4750 2638 4750 
Q 3056 4750 3426 4639 
Q 3797 4528 4122 4306 
z
" transform="scale(0.015625)"/>
      </defs>
      <use xlink:href="#DejaVuSans-25"/>
      <use xlink:href="#DejaVuSans-20" x="95.019531"/>
      <use xlink:href="#DejaVuSans-47" x="126.806641"/>
      <use xlink:href="#DejaVuSans-43" x="204.296875"/>
     </g>
    </g>
   </g>
   <g id="matplotlib.axis_2">
    <g id="ytick_1">
     <g id="line2d_1">
      <path d="M 40.600625 353.2239 
L 985.445625 353.2239 
" clip-path="url(#pefaa53a4fd)" style="fill: none; stroke: #dedede; stroke-linecap: square"/>
     </g>
     <g id="text_8">
      <!-- 0.0 -->
      <g transform="translate(20.878125 356.263275) scale(0.08 -0.08)">
       <defs>
        <path id="DejaVuSans-2e" d="M 684 794 
L 1344 794 
L 1344 0 
L 684 0 
L 684 794 
z
" transform="scale(0.015625)"/>
       </defs>
       <use xlink:href="#DejaVuSans-30"/>
       <use xlink:href="#DejaVuSans-2e" x="63.623047"/>
       <use xlink:href="#DejaVuSans-30" x="95.410156"/>
      </g>
     </g>
    </g>
    <g id="ytick_2">
     <g id="line2d_2">
      <path d="M 40.600625 314.094487 
L 985.445625 314.094487 
" clip-path="url(#pefaa53a4fd)" style="fill: none; stroke: #dedede; stroke-linecap: square"/>
     </g>
     <g id="text_9">
      <!-- 0.5 -->
      <g transform="translate(20.878125 317.133862) scale(0.08 -0.08)">
       <defs>
        <path id="DejaVuSans-35" d="M 691 4666 
L 3169 4666 
L 3169 4134 
L 1269 4134 
L 1269 2991 
Q 1406 3038 1543 3061 
Q 1681 3084 1819 3084 
Q 2600 3084 3056 2656 
Q 3513 2228 3513 1497 
Q 3513 744 3044 326 
Q 2575 -91 1722 -91 
Q 1428 -91 1123 -41 
Q 819 9 494 109 
L 494 744 
Q 775 591 1075 516 
Q 1375 441 1709 441 
Q 2250 441 2565 725 
Q 2881 1009 2881 1497 
Q 2881 1984 2565 2268 
Q 2250 2553 1709 2553 
Q 1456 2553 1204 2497 
Q 953 2441 691 2322 
L 691 4666 
z
" transform="scale(0.015625)"/>
       </defs>
       <use xlink:href="#DejaVuSans-30"/>
       <use xlink:href="#DejaVuSans-2e" x="63.623047"/>
       <use xlink:href="#DejaVuSans-35" x="95.410156"/>
      </g>
     </g>
    </g>
    <g id="ytick_3">
     <g id="line2d_3">
      <path d="M 40.600625 274.965073 
L 985.445625 274.965073 
" clip-path="url(#pefaa53a4fd)" style="fill: none; stroke: #dedede; stroke-linecap: square"/>
     </g>
     <g id="text_10">
      <!-- 1.0 -->
      <g transform="translate(20.878125 278.004448) scale(0.08 -0.08)">
       <use xlink:href="#DejaVuSans-31"/>
       <use xlink:href="#DejaVuSans-2e" x="63.623047"/>
       <use xlink:href="#DejaVuSans-30" x="95.410156"/>
      </g>
     </g>
    </g>
    <g id="ytick_4">
     <g id="line2d_4">
      <path d="M 40.600625 235.83566 
L 985.445625 235.83566 
" clip-path="url(#pefaa53a4fd)" style="fill: none; stroke: #dedede; stroke-linecap: square"/>
     </g>
     <g id="text_11">
      <!-- 1.5 -->
      <g transform="translate(20.878125 238.875035) scale(0.08 -0.08)">
       <use xlink:href="#DejaVuSans-31"/>
       <use xlink:href="#DejaVuSans-2e" x="63.623047"/>
       <use xlink:href="#DejaVuSans-35" x="95.410156"/>
      </g>
     </g>
    </g>
    <g id="ytick_5">
     <g id="line2d_5">
      <path d="M 40.600625 196.706246 
L 985.445625 196.706246 
" clip-path="url(#pefaa53a4fd)" style="fill: none; stroke: #dedede; stroke-linecap: square"/>
     </g>
     <g id="text_12">
      <!-- 2.0 -->
      <g transform="translate(20.878125 199.745621) scale(0.08 -0.08)">
       <use xlink:href="#DejaVuSans-32"/>
       <use xlink:href="#DejaVuSans-2e" x="63.623047"/>
       <use xlink:href="#DejaVuSans-30" x="95.410156"/>
      </g>
     </g>
    </g>
    <g id="ytick_6">
     <g id="line2d_6">
      <path d="M 40.600625 157.576833 
L 985.445625 157.576833 
" clip-path="url(#pefaa53a4fd)" style="fill: none; stroke: #dedede; stroke-linecap: square"/>
     </g>
     <g id="text_13">
      <!-- 2.5 -->
      <g transform="translate(20.878125 160.616208) scale(0.08 -0.08)">
       <use xlink:href="#DejaVuSans-32"/>
       <use xlink:href="#DejaVuSans-2e" x="63.623047"/>
       <use xlink:href="#DejaVuSans-35" x="95.410156"/>
      </g>
     </g>
    </g>
    <g id="ytick_7">
     <g id="line2d_7">
      <path d="M 40.600625 118.44742 
L 985.445625 118.44742 
" clip-path="url(#pefaa53a4fd)" style="fill: none; stroke: #dedede; stroke-linecap: square"/>
     </g>
     <g id="text_14">
      <!-- 3.0 -->
      <g transform="translate(20.878125 121.486795) scale(0.08 -0.08)">
       <defs>
        <path id="DejaVuSans-33" d="M 2597 2516 
Q 3050 2419 3304 2112 
Q 3559 1806 3559 1356 
Q 3559 666 3084 287 
Q 2609 -91 1734 -91 
Q 1441 -91 1130 -33 
Q 819 25 488 141 
L 488 750 
Q 750 597 1062 519 
Q 1375 441 1716 441 
Q 2309 441 2620 675 
Q 2931 909 2931 1356 
Q 2931 1769 2642 2001 
Q 2353 2234 1838 2234 
L 1294 2234 
L 1294 2753 
L 1863 2753 
Q 2328 2753 2575 2939 
Q 2822 3125 2822 3475 
Q 2822 3834 2567 4026 
Q 2313 4219 1838 4219 
Q 1578 4219 1281 4162 
Q 984 4106 628 3988 
L 628 4550 
Q 988 4650 1302 4700 
Q 1616 4750 1894 4750 
Q 2613 4750 3031 4423 
Q 3450 4097 3450 3541 
Q 3450 3153 3228 2886 
Q 3006 2619 2597 2516 
z
" transform="scale(0.015625)"/>
       </defs>
       <use xlink:href="#DejaVuSans-33"/>
       <use xlink:href="#DejaVuSans-2e" x="63.623047"/>
       <use xlink:href="#DejaVuSans-30" x="95.410156"/>
      </g>
     </g>
    </g>
    <g id="ytick_8">
     <g id="line2d_8">
      <path d="M 40.600625 79.318006 
L 985.445625 79.318006 
" clip-path="url(#pefaa53a4fd)" style="fill: none; stroke: #dedede; stroke-linecap: square"/>
     </g>
     <g id="text_15">
      <!-- 3.5 -->
      <g transform="translate(20.878125 82.357381) scale(0.08 -0.08)">
       <use xlink:href="#DejaVuSans-33"/>
       <use xlink:href="#DejaVuSans-2e" x="63.623047"/>
       <use xlink:href="#DejaVuSans-35" x="95.410156"/>
      </g>
     </g>
    </g>
    <g id="ytick_9">
     <g id="line2d_9">
      <path d="M 40.600625 40.188593 
L 985.445625 40.188593 
" clip-path="url(#pefaa53a4fd)" style="fill: none; stroke: #dedede; stroke-linecap: square"/>
     </g>
     <g id="text_16">
      <!-- 4.0 -->
      <g transform="translate(20.878125 43.227968) scale(0.08 -0.08)">
       <use xlink:href="#DejaVuSans-34"/>
       <use xlink:href="#DejaVuSans-2e" x="63.623047"/>
       <use xlink:href="#DejaVuSans-30" x="95.410156"/>
      </g>
     </g>
    </g>
    <g id="text_17">
     <!-- Count -->
     <g transform="translate(14.798438 209.088338) rotate(-90) scale(0.1 -0.1)">
      <defs>
       <path id="DejaVuSans-6f" d="M 1959 3097 
Q 1497 3097 1228 2736 
Q 959 2375 959 1747 
Q 959 1119 1226 758 
Q 1494 397 1959 397 
Q 2419 397 2687 759 
Q 2956 1122 2956 1747 
Q 2956 2369 2687 2733 
Q 2419 3097 1959 3097 
z
M 1959 3584 
Q 2709 3584 3137 3096 
Q 3566 2609 3566 1747 
Q 3566 888 3137 398 
Q 2709 -91 1959 -91 
Q 1206 -91 779 398 
Q 353 888 353 1747 
Q 353 2609 779 3096 
Q 1206 3584 1959 3584 
z
" transform="scale(0.015625)"/>
       <path id="DejaVuSans-75" d="M 544 1381 
L 544 3500 
L 1119 3500 
L 1119 1403 
Q 1119 906 1312 657 
Q 1506 409 1894 409 
Q 2359 409 2629 706 
Q 2900 1003 2900 1516 
L 2900 3500 
L 3475 3500 
L 3475 0 
L 2900 0 
L 2900 538 
Q 2691 219 2414 64 
Q 2138 -91 1772 -91 
Q 1169 -91 856 284 
Q 544 659 544 1381 
z
M 1991 3584 
L 1991 3584 
z
" transform="scale(0.015625)"/>
       <path id="DejaVuSans-6e" d="M 3513 2113 
L 3513 0 
L 2938 0 
L 2938 2094 
Q 2938 2591 2744 2837 
Q 2550 3084 2163 3084 
Q 1697 3084 1428 2787 
Q 1159 2491 1159 1978 
L 1159 0 
L 581 0 
L 581 3500 
L 1159 3500 
L 1159 2956 
Q 1366 3272 1645 3428 
Q 1925 3584 2291 3584 
Q 2894 3584 3203 3211 
Q 3513 2838 3513 2113 
z
" transform="scale(0.015625)"/>
       <path id="DejaVuSans-74" d="M 1172 4494 
L 1172 3500 
L 2356 3500 
L 2356 3053 
L 1172 3053 
L 1172 1153 
Q 1172 725 1289 603 
Q 1406 481 1766 481 
L 2356 481 
L 2356 0 
L 1766 0 
Q 1100 0 847 248 
Q 594 497 594 1153 
L 594 3053 
L 172 3053 
L 172 3500 
L 594 3500 
L 594 4494 
L 1172 4494 
z
" transform="scale(0.015625)"/>
      </defs>
      <use xlink:href="#DejaVuSans-43"/>
      <use xlink:href="#DejaVuSans-6f" x="69.824219"/>
      <use xlink:href="#DejaVuSans-75" x="131.005859"/>
      <use xlink:href="#DejaVuSans-6e" x="194.384766"/>
      <use xlink:href="#DejaVuSans-74" x="257.763672"/>
     </g>
    </g>
    <g id="text_18">
     <!-- 1e6 -->
     <g transform="translate(40.600625 32.2559) scale(0.1 -0.1)">
      <defs>
       <path id="DejaVuSans-65" d="M 3597 1894 
L 3597 1613 
L 953 1613 
Q 991 1019 1311 708 
Q 1631 397 2203 397 
Q 2534 397 2845 478 
Q 3156 559 3463 722 
L 3463 178 
Q 3153 47 2828 -22 
Q 2503 -91 2169 -91 
Q 1331 -91 842 396 
Q 353 884 353 1716 
Q 353 2575 817 3079 
Q 1281 3584 2069 3584 
Q 2775 3584 3186 3129 
Q 3597 2675 3597 1894 
z
M 3022 2063 
Q 3016 2534 2758 2815 
Q 2500 3097 2075 3097 
Q 1594 3097 1305 2825 
Q 1016 2553 972 2059 
L 3022 2063 
z
" transform="scale(0.015625)"/>
      </defs>
      <use xlink:href="#DejaVuSans-31"/>
      <use xlink:href="#DejaVuSans-65" x="63.623047"/>
      <use xlink:href="#DejaVuSans-36" x="125.146484"/>
     </g>
    </g>
   </g>
   <g id="line2d_10">
    <path d="M 40.600625 353.209187 
L 50.049075 353.206879 
L 59.497525 353.208326 
L 68.945975 353.214079 
L 78.394425 353.215761 
L 87.842875 353.215174 
L 97.291325 353.214392 
L 106.739775 353.214 
L 116.188225 353.212592 
L 125.636675 353.208953 
L 135.085125 353.205314 
L 144.533575 353.201596 
L 153.982025 353.196549 
L 163.430475 353.190327 
L 172.878925 353.180466 
L 182.327375 353.162271 
L 191.775825 353.123377 
L 201.224275 353.061904 
L 210.672725 352.963885 
L 220.121175 352.777277 
L 229.569625 352.478015 
L 239.018075 352.009323 
L 248.466525 351.357779 
L 257.914975 350.530701 
L 267.363425 349.4116 
L 276.811875 347.852684 
L 286.260325 345.838341 
L 295.708775 343.248678 
L 305.157225 339.892783 
L 314.605675 335.683867 
L 324.054125 330.344775 
L 333.502575 323.727209 
L 342.951025 315.725283 
L 352.399475 306.081409 
L 361.847925 294.588748 
L 371.296375 281.341955 
L 380.744825 266.397336 
L 390.193275 250.460435 
L 399.641725 235.310074 
L 409.090175 221.77474 
L 418.538625 209.310731 
L 427.987075 198.266571 
L 437.435525 188.410576 
L 446.883975 180.555346 
L 456.332425 175.763637 
L 465.780875 171.586298 
L 475.229325 168.169909 
L 484.677775 167.052999 
L 494.126225 166.932206 
L 503.574675 165.496039 
L 513.023125 159.972923 
L 522.471575 149.155557 
L 531.920025 139.085877 
L 541.368475 139.76755 
L 550.816925 150.880421 
L 560.265375 165.242285 
L 569.713825 176.62014 
L 579.162275 184.350782 
L 588.610725 191.321648 
L 598.059175 197.586971 
L 607.507625 204.850408 
L 616.956075 214.123844 
L 626.404525 224.249558 
L 635.852975 235.124091 
L 645.301425 246.628961 
L 654.749875 258.490103 
L 664.198325 270.644677 
L 673.646775 281.817768 
L 683.095225 292.138425 
L 692.543675 302.127851 
L 701.992125 311.114156 
L 711.440575 318.67165 
L 720.889025 324.836137 
L 730.337475 330.202618 
L 739.785925 334.368297 
L 749.234375 337.251 
L 758.682825 339.766082 
L 768.131275 342.00628 
L 777.579725 343.824115 
L 787.028175 345.409952 
L 796.476625 346.778973 
L 805.925075 347.907034 
L 815.373525 348.894113 
L 824.821975 349.820071 
L 834.270425 350.685575 
L 843.718875 351.342049 
L 853.167325 351.822832 
L 862.615775 352.262334 
L 872.064225 352.617825 
L 881.512675 352.848571 
L 890.961125 352.996675 
L 900.409575 353.103421 
L 909.858025 353.173619 
L 919.306475 353.198388 
L 928.754925 353.208679 
L 938.203375 353.213061 
L 947.651825 353.211731 
L 957.100275 353.204648 
L 966.548725 353.174636 
L 975.997175 353.184105 
L 985.445625 353.220691 
" clip-path="url(#pefaa53a4fd)" style="fill: none; stroke: #5cb85c; stroke-linecap: square"/>
   </g>
   <g id="line2d_11">
    <path d="M 40.600625 353.155189 
L 50.049075 353.144233 
L 59.497525 353.148615 
L 68.945975 353.170567 
L 78.394425 353.182071 
L 87.842875 353.188527 
L 97.291325 353.191462 
L 106.739775 353.193653 
L 116.188225 353.192636 
L 125.636675 353.18794 
L 135.085125 353.182227 
L 144.533575 353.177845 
L 153.982025 353.173462 
L 163.430475 353.161919 
L 172.878925 353.144898 
L 182.327375 353.122359 
L 191.775825 353.087886 
L 201.224275 353.044061 
L 210.672725 352.961929 
L 220.121175 352.804394 
L 229.569625 352.557917 
L 239.018075 352.208374 
L 248.466525 351.735417 
L 257.914975 351.124607 
L 267.363425 350.330749 
L 276.811875 349.209966 
L 286.260325 347.721287 
L 295.708775 345.900909 
L 305.157225 343.72637 
L 314.605675 341.162219 
L 324.054125 338.155593 
L 333.502575 334.692445 
L 342.951025 330.544649 
L 352.399475 325.388292 
L 361.847925 319.071944 
L 371.296375 311.248213 
L 380.744825 301.086931 
L 390.193275 288.207523 
L 399.641725 273.049062 
L 409.090175 256.395271 
L 418.538625 237.920123 
L 427.987075 217.334256 
L 437.435525 197.225416 
L 446.883975 179.848552 
L 456.332425 166.045182 
L 465.780875 153.990075 
L 475.229325 144.204239 
L 484.677775 139.277493 
L 494.126225 136.788315 
L 503.574675 134.16907 
L 513.023125 130.883686 
L 522.471575 128.480397 
L 531.920025 128.585616 
L 541.368475 131.323423 
L 550.816925 135.576673 
L 560.265375 141.352291 
L 569.713825 148.821431 
L 579.162275 155.544334 
L 588.610725 161.030356 
L 598.059175 167.283197 
L 607.507625 175.000965 
L 616.956075 184.953805 
L 626.404525 196.114062 
L 635.852975 208.547746 
L 645.301425 222.724372 
L 654.749875 237.231758 
L 664.198325 252.032459 
L 673.646775 265.393745 
L 683.095225 277.758013 
L 692.543675 289.959112 
L 701.992125 300.936047 
L 711.440575 310.290755 
L 720.889025 318.21047 
L 730.337475 324.900348 
L 739.785925 329.620451 
L 749.234375 333.109738 
L 758.682825 336.60689 
L 768.131275 339.383826 
L 777.579725 341.395704 
L 787.028175 343.344819 
L 796.476625 345.05857 
L 805.925075 346.53277 
L 815.373525 347.806394 
L 824.821975 348.900295 
L 834.270425 349.845897 
L 843.718875 350.588651 
L 853.167325 351.188388 
L 862.615775 351.701609 
L 872.064225 352.127689 
L 881.512675 352.435638 
L 890.961125 352.661649 
L 900.409575 352.898813 
L 909.858025 353.094108 
L 919.306475 353.165832 
L 928.754925 353.184105 
L 938.203375 353.177923 
L 947.651825 353.120051 
L 957.100275 352.90343 
L 966.548725 352.112625 
L 975.997175 352.248012 
L 985.445625 353.112068 
" clip-path="url(#pefaa53a4fd)" style="fill: none; stroke: #5cb85c; stroke-linecap: square"/>
   </g>
   <g id="line2d_12">
    <path d="M 40.600625 353.219204 
L 50.049075 353.218383 
L 59.497525 353.216544 
L 68.945975 353.215565 
L 78.394425 353.215135 
L 87.842875 353.214157 
L 97.291325 353.212983 
L 106.739775 353.211731 
L 116.188225 353.210244 
L 125.636675 353.207896 
L 135.085125 353.202927 
L 144.533575 353.196862 
L 153.982025 353.192323 
L 163.430475 353.185279 
L 172.878925 353.171662 
L 182.327375 353.145406 
L 191.775825 353.105181 
L 201.224275 353.051183 
L 210.672725 352.957233 
L 220.121175 352.785846 
L 229.569625 352.524266 
L 239.018075 352.131172 
L 248.466525 351.55953 
L 257.914975 350.871518 
L 267.363425 350.024444 
L 276.811875 348.78459 
L 286.260325 347.072248 
L 295.708775 345.014158 
L 305.157225 342.541688 
L 314.605675 339.570043 
L 324.054125 335.970216 
L 333.502575 331.837406 
L 342.951025 327.019362 
L 352.399475 320.891774 
L 361.847925 312.88304 
L 371.296375 302.754039 
L 380.744825 289.904762 
L 390.193275 273.302504 
L 399.641725 253.797704 
L 409.090175 232.705815 
L 418.538625 210.213055 
L 427.987075 186.920841 
L 437.435525 164.136605 
L 446.883975 143.934011 
L 456.332425 127.73639 
L 465.780875 113.630315 
L 475.229325 101.482236 
L 484.677775 93.963441 
L 494.126225 90.459285 
L 503.574675 87.541913 
L 513.023125 82.711661 
L 522.471575 79.324189 
L 531.920025 80.557391 
L 541.368475 82.851353 
L 550.816925 84.458046 
L 560.265375 88.348958 
L 569.713825 95.393269 
L 579.162275 103.729791 
L 588.610725 111.521983 
L 598.059175 119.341449 
L 607.507625 128.778367 
L 616.956075 140.748094 
L 626.404525 155.643449 
L 635.852975 173.099824 
L 645.301425 191.573602 
L 654.749875 210.259501 
L 664.198325 229.221498 
L 673.646775 246.003086 
L 683.095225 260.957487 
L 692.543675 275.726492 
L 701.992125 289.29133 
L 711.440575 300.38534 
L 720.889025 309.527575 
L 730.337475 317.859949 
L 739.785925 324.229396 
L 749.234375 328.659393 
L 758.682825 332.69931 
L 768.131275 336.114055 
L 777.579725 338.658641 
L 787.028175 340.950842 
L 796.476625 343.131837 
L 805.925075 345.013688 
L 815.373525 346.500019 
L 824.821975 347.880426 
L 834.270425 349.116525 
L 843.718875 349.981637 
L 853.167325 350.685927 
L 862.615775 351.366935 
L 872.064225 351.938968 
L 881.512675 352.371583 
L 890.961125 352.706531 
L 900.409575 352.956998 
L 909.858025 353.121029 
L 919.306475 353.179019 
L 928.754925 353.19737 
L 938.203375 353.199757 
L 947.651825 353.177532 
L 957.100275 353.105494 
L 966.548725 352.864105 
L 975.997175 352.934929 
L 985.445625 353.208326 
" clip-path="url(#pefaa53a4fd)" style="fill: none; stroke: #5cb85c; stroke-linecap: square"/>
   </g>
   <g id="line2d_13">
    <path d="M 40.600625 353.221474 
L 50.049075 353.220339 
L 59.497525 353.219204 
L 68.945975 353.219322 
L 78.394425 353.21897 
L 87.842875 353.217013 
L 97.291325 353.213687 
L 106.739775 353.210361 
L 116.188225 353.207466 
L 125.636675 353.205705 
L 135.085125 353.202966 
L 144.533575 353.197527 
L 153.982025 353.192636 
L 163.430475 353.184575 
L 172.878925 353.169784 
L 182.327375 353.146932 
L 191.775825 353.111129 
L 201.224275 353.049618 
L 210.672725 352.941268 
L 220.121175 352.756499 
L 229.569625 352.495349 
L 239.018075 352.099399 
L 248.466525 351.514727 
L 257.914975 350.772677 
L 267.363425 349.843275 
L 276.811875 348.537331 
L 286.260325 346.770012 
L 295.708775 344.618325 
L 305.157225 342.004949 
L 314.605675 338.864579 
L 324.054125 334.979654 
L 333.502575 330.344697 
L 342.951025 324.709631 
L 352.399475 317.416965 
L 361.847925 307.773599 
L 371.296375 295.058692 
L 380.744825 278.683698 
L 390.193275 257.950587 
L 399.641725 234.051476 
L 409.090175 208.396237 
L 418.538625 181.745467 
L 427.987075 155.517374 
L 437.435525 130.941637 
L 446.883975 110.008027 
L 456.332425 93.945833 
L 465.780875 80.848006 
L 475.229325 70.675258 
L 484.677775 65.479146 
L 494.126225 63.549557 
L 503.574675 61.538618 
L 513.023125 58.384866 
L 522.471575 56.772186 
L 531.920025 59.408374 
L 541.368475 63.305077 
L 550.816925 66.157611 
L 560.265375 71.931195 
L 569.713825 81.276707 
L 579.162275 90.586299 
L 588.610725 98.573591 
L 598.059175 106.951863 
L 607.507625 117.306054 
L 616.956075 129.966845 
L 626.404525 145.463149 
L 635.852975 163.57772 
L 645.301425 182.422993 
L 654.749875 201.6695 
L 664.198325 221.444214 
L 673.646775 239.087666 
L 683.095225 254.945291 
L 692.543675 270.255379 
L 701.992125 284.204036 
L 711.440575 296.007385 
L 720.889025 305.716723 
L 730.337475 314.176189 
L 739.785925 320.679889 
L 749.234375 325.334176 
L 758.682825 329.632503 
L 768.131275 333.380161 
L 777.579725 336.321324 
L 787.028175 338.994998 
L 796.476625 341.43233 
L 805.925075 343.594464 
L 815.373525 345.420008 
L 824.821975 347.012888 
L 834.270425 348.412586 
L 843.718875 349.457107 
L 853.167325 350.300894 
L 862.615775 351.123237 
L 872.064225 351.799511 
L 881.512675 352.262216 
L 890.961125 352.608668 
L 900.409575 352.898891 
L 909.858025 353.097199 
L 919.306475 353.171467 
L 928.754925 353.196157 
L 938.203375 353.201596 
L 947.651825 353.19064 
L 957.100275 353.15108 
L 966.548725 352.996245 
L 975.997175 353.033144 
L 985.445625 353.208679 
" clip-path="url(#pefaa53a4fd)" style="fill: none; stroke: #5cb85c; stroke-linecap: square"/>
   </g>
   <g id="line2d_14">
    <path d="M 40.600625 353.222022 
L 50.049075 353.221396 
L 59.497525 353.220613 
L 68.945975 353.220496 
L 78.394425 353.220261 
L 87.842875 353.219596 
L 97.291325 353.218344 
L 106.739775 353.217131 
L 116.188225 353.216387 
L 125.636675 353.215331 
L 135.085125 353.21357 
L 144.533575 353.211418 
L 153.982025 353.209109 
L 163.430475 353.205314 
L 172.878925 353.199679 
L 182.327375 353.189075 
L 191.775825 353.170371 
L 201.224275 353.145406 
L 210.672725 353.101073 
L 220.121175 353.010919 
L 229.569625 352.869348 
L 239.018075 352.664819 
L 248.466525 352.350297 
L 257.914975 351.925586 
L 267.363425 351.378087 
L 276.811875 350.5415 
L 286.260325 349.292803 
L 295.708775 347.575843 
L 305.157225 345.324728 
L 314.605675 342.462568 
L 324.054125 338.892713 
L 333.502575 334.779938 
L 342.951025 330.040583 
L 352.399475 324.371905 
L 361.847925 317.649237 
L 371.296375 310.021154 
L 380.744825 301.67215 
L 390.193275 292.688663 
L 399.641725 283.731157 
L 409.090175 275.237101 
L 418.538625 267.030059 
L 427.987075 259.178038 
L 437.435525 251.940857 
L 446.883975 245.846999 
L 456.332425 241.16086 
L 465.780875 236.753714 
L 475.229325 232.819565 
L 484.677775 230.737176 
L 494.126225 229.954861 
L 503.574675 228.86272 
L 513.023125 226.791444 
L 522.471575 225.630591 
L 531.920025 226.835699 
L 541.368475 228.351142 
L 550.816925 229.461478 
L 560.265375 231.948818 
L 569.713825 235.688064 
L 579.162275 239.690259 
L 588.610725 243.203533 
L 598.059175 246.685307 
L 607.507625 251.121956 
L 616.956075 256.590449 
L 626.404525 263.163016 
L 635.852975 270.929657 
L 645.301425 279.338959 
L 654.749875 287.920157 
L 664.198325 296.518924 
L 673.646775 304.126582 
L 683.095225 310.974307 
L 692.543675 317.712275 
L 701.992125 323.870658 
L 711.440575 328.975324 
L 720.889025 333.197544 
L 730.337475 336.858649 
L 739.785925 339.638363 
L 749.234375 341.675206 
L 758.682825 343.536435 
L 768.131275 345.107442 
L 777.579725 346.301398 
L 787.028175 347.383326 
L 796.476625 348.418534 
L 805.925075 349.319528 
L 815.373525 350.057 
L 824.821975 350.735152 
L 834.270425 351.316224 
L 843.718875 351.728413 
L 853.167325 352.070365 
L 862.615775 352.405039 
L 872.064225 352.669945 
L 881.512675 352.852875 
L 890.961125 352.984271 
L 900.409575 353.094577 
L 909.858025 353.178784 
L 919.306475 353.206487 
L 928.754925 353.214822 
L 938.203375 353.216896 
L 947.651825 353.212435 
L 957.100275 353.195179 
L 966.548725 353.134489 
L 975.997175 353.148302 
L 985.445625 353.216348 
" clip-path="url(#pefaa53a4fd)" style="fill: none; stroke: #5cb85c; stroke-linecap: square"/>
   </g>
   <g id="line2d_15">
    <path d="M 40.600625 353.221944 
L 50.049075 353.220926 
L 59.497525 353.219596 
L 68.945975 353.2194 
L 78.394425 353.219244 
L 87.842875 353.218383 
L 97.291325 353.216896 
L 106.739775 353.215213 
L 116.188225 353.213452 
L 125.636675 353.211066 
L 135.085125 353.207387 
L 144.533575 353.202927 
L 153.982025 353.198975 
L 163.430475 353.192323 
L 172.878925 353.182658 
L 182.327375 353.169158 
L 191.775825 353.143763 
L 201.224275 353.10479 
L 210.672725 353.031266 
L 220.121175 352.908204 
L 229.569625 352.734039 
L 239.018075 352.470228 
L 248.466525 352.059604 
L 257.914975 351.508623 
L 267.363425 350.852031 
L 276.811875 349.927677 
L 286.260325 348.625685 
L 295.708775 346.936977 
L 305.157225 344.777581 
L 314.605675 342.124959 
L 324.054125 338.849123 
L 333.502575 334.818402 
L 342.951025 329.826506 
L 352.399475 323.402709 
L 361.847925 314.89977 
L 371.296375 304.200654 
L 380.744825 291.231992 
L 390.193275 275.639195 
L 399.641725 258.018594 
L 409.090175 239.614192 
L 418.538625 220.908884 
L 427.987075 202.242393 
L 437.435525 183.795066 
L 446.883975 166.503348 
L 456.332425 152.529961 
L 465.780875 140.241094 
L 475.229325 128.893956 
L 484.677775 121.265364 
L 494.126225 117.450794 
L 503.574675 114.587538 
L 513.023125 110.261194 
L 522.471575 106.999992 
L 531.920025 108.093855 
L 541.368475 110.720965 
L 550.816925 112.542517 
L 560.265375 116.83924 
L 569.713825 124.030013 
L 579.162275 131.821579 
L 588.610725 138.726395 
L 598.059175 145.666661 
L 607.507625 154.438067 
L 616.956075 165.265059 
L 626.404525 178.652248 
L 635.852975 193.979865 
L 645.301425 210.260127 
L 654.749875 227.050441 
L 664.198325 243.619478 
L 673.646775 258.163021 
L 683.095225 271.294226 
L 692.543675 284.253692 
L 701.992125 296.083452 
L 711.440575 305.856532 
L 720.889025 313.811229 
L 730.337475 320.95536 
L 739.785925 326.571644 
L 749.234375 330.429373 
L 758.682825 333.976337 
L 768.131275 337.058835 
L 777.579725 339.352875 
L 787.028175 341.473533 
L 796.476625 343.471833 
L 805.925075 345.327271 
L 815.373525 346.907356 
L 824.821975 348.27399 
L 834.270425 349.459768 
L 843.718875 350.278042 
L 853.167325 350.91593 
L 862.615775 351.500406 
L 872.064225 352.028262 
L 881.512675 352.466668 
L 890.961125 352.798642 
L 900.409575 353.021718 
L 909.858025 353.142237 
L 919.306475 353.185827 
L 928.754925 353.201048 
L 938.203375 353.204727 
L 947.651825 353.190366 
L 957.100275 353.139263 
L 966.548725 352.967681 
L 975.997175 353.012406 
L 985.445625 353.206644 
" clip-path="url(#pefaa53a4fd)" style="fill: none; stroke: #5cb85c; stroke-linecap: square"/>
   </g>
   <g id="line2d_16">
    <path d="M 40.600625 353.217091 
L 50.049075 353.215644 
L 59.497525 353.215252 
L 68.945975 353.216896 
L 78.394425 353.217718 
L 87.842875 353.217639 
L 97.291325 353.215918 
L 106.739775 353.213452 
L 116.188225 353.2122 
L 125.636675 353.210753 
L 135.085125 353.207974 
L 144.533575 353.204766 
L 153.982025 353.200501 
L 163.430475 353.192401 
L 172.878925 353.181718 
L 182.327375 353.16638 
L 191.775825 353.139185 
L 201.224275 353.108155 
L 210.672725 353.0576 
L 220.121175 352.946238 
L 229.569625 352.786511 
L 239.018075 352.559404 
L 248.466525 352.217687 
L 257.914975 351.794111 
L 267.363425 351.275568 
L 276.811875 350.556487 
L 286.260325 349.538027 
L 295.708775 348.312298 
L 305.157225 346.819237 
L 314.605675 344.970411 
L 324.054125 342.76449 
L 333.502575 340.163558 
L 342.951025 337.017006 
L 352.399475 332.958894 
L 361.847925 327.389487 
L 371.296375 320.147807 
L 380.744825 310.813642 
L 390.193275 298.481303 
L 399.641725 283.281365 
L 409.090175 265.577066 
L 418.538625 245.196472 
L 427.987075 222.700111 
L 437.435525 199.615088 
L 446.883975 177.636409 
L 456.332425 158.591498 
L 465.780875 141.3393 
L 475.229325 125.722439 
L 484.677775 114.882887 
L 494.126225 108.707052 
L 503.574675 103.623163 
L 513.023125 97.44412 
L 522.471575 91.932116 
L 531.920025 89.210548 
L 541.368475 88.262325 
L 550.816925 88.011701 
L 560.265375 91.293329 
L 569.713825 98.136985 
L 579.162275 105.560734 
L 588.610725 112.764342 
L 598.059175 120.297693 
L 607.507625 129.382682 
L 616.956075 141.06739 
L 626.404525 155.432424 
L 635.852975 172.337935 
L 645.301425 190.940293 
L 654.749875 209.959301 
L 664.198325 228.739384 
L 673.646775 245.248866 
L 683.095225 260.034463 
L 692.543675 274.688859 
L 701.992125 288.337902 
L 711.440575 299.623334 
L 720.889025 308.755591 
L 730.337475 316.71107 
L 739.785925 322.646963 
L 749.234375 326.899744 
L 758.682825 331.035997 
L 768.131275 334.449803 
L 777.579725 336.926656 
L 787.028175 339.419865 
L 796.476625 341.761564 
L 805.925075 343.802907 
L 815.373525 345.563065 
L 824.821975 347.157276 
L 834.270425 348.533027 
L 843.718875 349.471898 
L 853.167325 350.139367 
L 862.615775 350.748769 
L 872.064225 351.368305 
L 881.512675 351.929303 
L 890.961125 352.410634 
L 900.409575 352.813472 
L 909.858025 353.078886 
L 919.306475 353.170214 
L 928.754925 353.194083 
L 938.203375 353.196549 
L 947.651825 353.177179 
L 957.100275 353.103655 
L 966.548725 352.830649 
L 975.997175 352.889813 
L 985.445625 353.193418 
" clip-path="url(#pefaa53a4fd)" style="fill: none; stroke: #5cb85c; stroke-linecap: square"/>
   </g>
   <g id="line2d_17">
    <path d="M 40.600625 353.221239 
L 50.049075 353.221044 
L 59.497525 353.219361 
L 68.945975 353.218031 
L 78.394425 353.217209 
L 87.842875 353.215761 
L 97.291325 353.214665 
L 106.739775 353.212435 
L 116.188225 353.209226 
L 125.636675 353.206135 
L 135.085125 353.201714 
L 144.533575 353.196822 
L 153.982025 353.191501 
L 163.430475 353.183127 
L 172.878925 353.169275 
L 182.327375 353.150063 
L 191.775825 353.120011 
L 201.224275 353.075326 
L 210.672725 352.993976 
L 220.121175 352.856749 
L 229.569625 352.645841 
L 239.018075 352.322906 
L 248.466525 351.851162 
L 257.914975 351.225639 
L 267.363425 350.431508 
L 276.811875 349.327197 
L 286.260325 347.795203 
L 295.708775 345.904508 
L 305.157225 343.609764 
L 314.605675 340.791977 
L 324.054125 337.292868 
L 333.502575 332.913974 
L 342.951025 327.297651 
L 352.399475 319.970551 
L 361.847925 310.005111 
L 371.296375 296.685341 
L 380.744825 279.539693 
L 390.193275 258.083979 
L 399.641725 233.545063 
L 409.090175 207.596275 
L 418.538625 181.431102 
L 427.987075 156.206951 
L 437.435525 133.10385 
L 446.883975 113.825414 
L 456.332425 99.489141 
L 465.780875 87.922721 
L 475.229325 78.612816 
L 484.677775 74.018201 
L 494.126225 72.808828 
L 503.574675 71.589673 
L 513.023125 69.064535 
L 522.471575 67.990902 
L 531.920025 70.906082 
L 541.368475 75.132568 
L 550.816925 78.457903 
L 560.265375 84.705501 
L 569.713825 94.52624 
L 579.162275 104.289224 
L 588.610725 112.713709 
L 598.059175 121.030548 
L 607.507625 131.667409 
L 616.956075 144.681461 
L 626.404525 159.412355 
L 635.852975 176.466518 
L 645.301425 194.605701 
L 654.749875 213.007677 
L 664.198325 231.704376 
L 673.646775 248.008664 
L 683.095225 262.455282 
L 692.543675 276.629912 
L 701.992125 289.586992 
L 711.440575 300.427365 
L 720.889025 309.267013 
L 730.337475 317.124668 
L 739.785925 323.236996 
L 749.234375 327.484141 
L 758.682825 331.337528 
L 768.131275 334.696944 
L 777.579725 337.349019 
L 787.028175 339.809085 
L 796.476625 342.056444 
L 805.925075 344.090312 
L 815.373525 345.896565 
L 824.821975 347.512923 
L 834.270425 348.86277 
L 843.718875 349.807394 
L 853.167325 350.5514 
L 862.615775 351.257373 
L 872.064225 351.869788 
L 881.512675 352.322397 
L 890.961125 352.659536 
L 900.409575 352.921704 
L 909.858025 353.100995 
L 919.306475 353.171623 
L 928.754925 353.194866 
L 938.203375 353.201401 
L 947.651825 353.187627 
L 957.100275 353.141376 
L 966.548725 352.984389 
L 975.997175 353.030562 
L 985.445625 353.211652 
" clip-path="url(#pefaa53a4fd)" style="fill: none; stroke: #5cb85c; stroke-linecap: square"/>
   </g>
   <g id="line2d_18">
    <path d="M 40.600625 353.114103 
L 50.049075 353.095086 
L 59.497525 353.108899 
L 68.945975 353.155071 
L 78.394425 353.175653 
L 87.842875 353.187157 
L 97.291325 353.193183 
L 106.739775 353.19467 
L 116.188225 353.194396 
L 125.636675 353.193418 
L 135.085125 353.189818 
L 144.533575 353.187236 
L 153.982025 353.18571 
L 163.430475 353.180427 
L 172.878925 353.168884 
L 182.327375 353.155267 
L 191.775825 353.140241 
L 201.224275 353.115512 
L 210.672725 353.064252 
L 220.121175 352.974998 
L 229.569625 352.826971 
L 239.018075 352.601038 
L 248.466525 352.300368 
L 257.914975 351.922456 
L 267.363425 351.417412 
L 276.811875 350.688431 
L 286.260325 349.70057 
L 295.708775 348.425499 
L 305.157225 346.742347 
L 314.605675 344.599347 
L 324.054125 341.993328 
L 333.502575 338.956885 
L 342.951025 335.232704 
L 352.399475 330.695336 
L 361.847925 325.238857 
L 371.296375 318.754448 
L 380.744825 311.196914 
L 390.193275 302.578818 
L 399.641725 293.732009 
L 409.090175 285.129643 
L 418.538625 276.597357 
L 427.987075 268.11187 
L 437.435525 260.190276 
L 446.883975 253.760062 
L 456.332425 248.979425 
L 465.780875 244.534481 
L 475.229325 240.531776 
L 484.677775 238.137487 
L 494.126225 236.285805 
L 503.574675 233.785396 
L 513.023125 229.74818 
L 522.471575 223.446231 
L 531.920025 217.013473 
L 541.368475 214.440597 
L 550.816925 217.267618 
L 560.265375 223.965322 
L 569.713825 230.492812 
L 579.162275 235.188068 
L 588.610725 239.720624 
L 598.059175 244.104488 
L 607.507625 248.805221 
L 616.956075 255.006764 
L 626.404525 261.604139 
L 635.852975 268.707693 
L 645.301425 276.942243 
L 654.749875 285.608039 
L 664.198325 294.288234 
L 673.646775 301.853202 
L 683.095225 308.853297 
L 692.543675 315.938147 
L 701.992125 322.371062 
L 711.440575 327.751787 
L 720.889025 332.266734 
L 730.337475 336.107677 
L 739.785925 338.914665 
L 749.234375 340.938634 
L 758.682825 342.914552 
L 768.131275 344.54887 
L 777.579725 345.732417 
L 787.028175 346.843067 
L 796.476625 347.888683 
L 805.925075 348.830136 
L 815.373525 349.608773 
L 824.821975 350.315685 
L 834.270425 350.958072 
L 843.718875 351.460298 
L 853.167325 351.86114 
L 862.615775 352.225043 
L 872.064225 352.520392 
L 881.512675 352.732317 
L 890.961125 352.893648 
L 900.409575 353.044531 
L 909.858025 353.160315 
L 919.306475 353.194279 
L 928.754925 353.204257 
L 938.203375 353.205274 
L 947.651825 353.186297 
L 957.100275 353.12279 
L 966.548725 352.869661 
L 975.997175 352.915482 
L 985.445625 353.195062 
" clip-path="url(#pefaa53a4fd)" style="fill: none; stroke: #5cb85c; stroke-linecap: square"/>
   </g>
   <g id="line2d_19">
    <path d="M 40.600625 353.163328 
L 50.049075 353.154837 
L 59.497525 353.16231 
L 68.945975 353.184027 
L 78.394425 353.192792 
L 87.842875 353.197566 
L 97.291325 353.199562 
L 106.739775 353.198035 
L 116.188225 353.194357 
L 125.636675 353.191266 
L 135.085125 353.187666 
L 144.533575 353.183323 
L 153.982025 353.17581 
L 163.430475 353.16141 
L 172.878925 353.143098 
L 182.327375 353.11422 
L 191.775825 353.06253 
L 201.224275 352.991589 
L 210.672725 352.864966 
L 220.121175 352.629485 
L 229.569625 352.266521 
L 239.018075 351.721644 
L 248.466525 350.920351 
L 257.914975 349.896256 
L 267.363425 348.579943 
L 276.811875 346.75796 
L 286.260325 344.419625 
L 295.708775 341.682758 
L 305.157225 338.377105 
L 314.605675 334.430082 
L 324.054125 329.963772 
L 333.502575 325.129216 
L 342.951025 319.961316 
L 352.399475 314.075978 
L 361.847925 306.99242 
L 371.296375 298.621425 
L 380.744825 288.518093 
L 390.193275 276.120721 
L 399.641725 261.89538 
L 409.090175 246.028755 
L 418.538625 228.002538 
L 427.987075 208.055655 
L 437.435525 187.246593 
L 446.883975 167.091698 
L 456.332425 149.546695 
L 465.780875 133.401821 
L 475.229325 118.748755 
L 484.677775 108.770677 
L 494.126225 102.557082 
L 503.574675 96.451603 
L 513.023125 89.560443 
L 522.471575 82.374287 
L 531.920025 77.017666 
L 541.368475 75.63002 
L 550.816925 77.076165 
L 560.265375 82.404261 
L 569.713825 90.598273 
L 579.162275 98.513449 
L 588.610725 105.57263 
L 598.059175 112.611424 
L 607.507625 121.717504 
L 616.956075 134.057708 
L 626.404525 148.091902 
L 635.852975 164.180743 
L 645.301425 182.344774 
L 654.749875 201.042568 
L 664.198325 219.752101 
L 673.646775 236.541672 
L 683.095225 252.334342 
L 692.543675 268.011855 
L 701.992125 282.289317 
L 711.440575 294.388053 
L 720.889025 304.577783 
L 730.337475 313.383388 
L 739.785925 319.943551 
L 749.234375 324.644285 
L 758.682825 328.950321 
L 768.131275 332.604499 
L 777.579725 335.421504 
L 787.028175 338.08246 
L 796.476625 340.535288 
L 805.925075 342.689362 
L 815.373525 344.562643 
L 824.821975 346.279799 
L 834.270425 347.805102 
L 843.718875 348.906321 
L 853.167325 349.734495 
L 862.615775 350.496932 
L 872.064225 351.19547 
L 881.512675 351.76179 
L 890.961125 352.212561 
L 900.409575 352.646428 
L 909.858025 352.975702 
L 919.306475 353.109955 
L 928.754925 353.159063 
L 938.203375 353.167671 
L 947.651825 353.120677 
L 957.100275 352.949603 
L 966.548725 352.330849 
L 975.997175 352.485332 
L 985.445625 353.17491 
" clip-path="url(#pefaa53a4fd)" style="fill: none; stroke: #5cb85c; stroke-linecap: square"/>
   </g>
   <g id="line2d_20">
    <path d="M 40.600625 353.182423 
L 50.049075 353.17624 
L 59.497525 353.181914 
L 68.945975 353.19784 
L 78.394425 353.204492 
L 87.842875 353.20684 
L 97.291325 353.206331 
L 106.739775 353.205274 
L 116.188225 353.20367 
L 125.636675 353.201205 
L 135.085125 353.198114 
L 144.533575 353.19424 
L 153.982025 353.188331 
L 163.430475 353.180779 
L 172.878925 353.169667 
L 182.327375 353.149867 
L 191.775825 353.115746 
L 201.224275 353.063195 
L 210.672725 352.977933 
L 220.121175 352.819889 
L 229.569625 352.559209 
L 239.018075 352.166467 
L 248.466525 351.608051 
L 257.914975 350.874296 
L 267.363425 349.925956 
L 276.811875 348.63535 
L 286.260325 346.999936 
L 295.708775 345.049648 
L 305.157225 342.592282 
L 314.605675 339.66415 
L 324.054125 336.288181 
L 333.502575 332.475137 
L 342.951025 328.093895 
L 352.399475 322.719001 
L 361.847925 316.045362 
L 371.296375 307.66435 
L 380.744825 297.028428 
L 390.193275 283.830859 
L 399.641725 268.694115 
L 409.090175 252.438074 
L 418.538625 235.242575 
L 427.987075 217.781622 
L 437.435525 201.206481 
L 446.883975 186.980748 
L 456.332425 176.04889 
L 465.780875 166.942067 
L 475.229325 159.859487 
L 484.677775 156.358852 
L 494.126225 154.561755 
L 503.574675 152.480736 
L 513.023125 149.492462 
L 522.471575 146.454923 
L 531.920025 145.782406 
L 541.368475 147.365974 
L 550.816925 150.468427 
L 560.265375 156.200143 
L 569.713825 163.470662 
L 579.162275 170.031491 
L 588.610725 175.704199 
L 598.059175 181.344078 
L 607.507625 188.23465 
L 616.956075 197.198221 
L 626.404525 207.602732 
L 635.852975 219.576058 
L 645.301425 232.607092 
L 654.749875 245.82266 
L 664.198325 259.424396 
L 673.646775 271.863167 
L 683.095225 283.316425 
L 692.543675 294.577674 
L 701.992125 304.815181 
L 711.440575 313.531297 
L 720.889025 320.78006 
L 730.337475 326.857836 
L 739.785925 331.517327 
L 749.234375 335.111677 
L 758.682825 338.320915 
L 768.131275 340.972324 
L 777.579725 342.979741 
L 787.028175 344.79652 
L 796.476625 346.510545 
L 805.925075 347.99801 
L 815.373525 349.200144 
L 824.821975 350.219622 
L 834.270425 351.113181 
L 843.718875 351.794542 
L 853.167325 352.284011 
L 862.615775 352.657737 
L 872.064225 352.923073 
L 881.512675 353.071687 
L 890.961125 353.148693 
L 900.409575 353.183714 
L 909.858025 353.200188 
L 919.306475 353.206527 
L 928.754925 353.210166 
L 938.203375 353.208561 
L 947.651825 353.190914 
L 957.100275 353.140593 
L 966.548725 352.986384 
L 975.997175 353.027001 
L 985.445625 353.204335 
" clip-path="url(#pefaa53a4fd)" style="fill: none; stroke: #5cb85c; stroke-linecap: square"/>
   </g>
   <g id="line2d_21">
    <path d="M 40.600625 353.126859 
L 50.049075 353.111246 
L 59.497525 353.122711 
L 68.945975 353.160628 
L 78.394425 353.177571 
L 87.842875 353.186336 
L 97.291325 353.189466 
L 106.739775 353.189701 
L 116.188225 353.188449 
L 125.636675 353.186101 
L 135.085125 353.182188 
L 144.533575 353.177179 
L 153.982025 353.173345 
L 163.430475 353.162662 
L 172.878925 353.143137 
L 182.327375 353.118368 
L 191.775825 353.078534 
L 201.224275 353.016671 
L 210.672725 352.915247 
L 220.121175 352.732161 
L 229.569625 352.445577 
L 239.018075 352.000871 
L 248.466525 351.363062 
L 257.914975 350.581804 
L 267.363425 349.586469 
L 276.811875 348.195262 
L 286.260325 346.356688 
L 295.708775 344.154093 
L 305.157225 341.487619 
L 314.605675 338.264373 
L 324.054125 334.541679 
L 333.502575 330.281542 
L 342.951025 325.15015 
L 352.399475 318.831024 
L 361.847925 310.71574 
L 371.296375 300.295969 
L 380.744825 287.056453 
L 390.193275 270.499116 
L 399.641725 251.620465 
L 409.090175 231.500512 
L 418.538625 210.443449 
L 427.987075 189.299988 
L 437.435525 169.462705 
L 446.883975 152.578324 
L 456.332425 139.789971 
L 465.780875 129.163362 
L 475.229325 120.293545 
L 484.677775 115.463489 
L 494.126225 113.380748 
L 503.574675 110.885308 
L 513.023125 107.090421 
L 522.471575 103.642963 
L 531.920025 102.888039 
L 541.368475 104.305658 
L 550.816925 106.538931 
L 560.265375 111.222917 
L 569.713825 117.674575 
L 579.162275 123.719404 
L 588.610725 129.236221 
L 598.059175 135.521265 
L 607.507625 143.796862 
L 616.956075 154.539686 
L 626.404525 167.086611 
L 635.852975 181.592784 
L 645.301425 198.124883 
L 654.749875 215.142461 
L 664.198325 232.04852 
L 673.646775 247.389441 
L 683.095225 261.718789 
L 692.543675 276.042228 
L 701.992125 289.084335 
L 711.440575 299.960864 
L 720.889025 309.166998 
L 730.337475 317.218736 
L 739.785925 323.153024 
L 749.234375 327.478507 
L 758.682825 331.675997 
L 768.131275 335.149711 
L 777.579725 337.700597 
L 787.028175 340.092304 
L 796.476625 342.338332 
L 805.925075 344.340154 
L 815.373525 346.054922 
L 824.821975 347.597912 
L 834.270425 348.940716 
L 843.718875 349.953855 
L 853.167325 350.768803 
L 862.615775 351.474111 
L 872.064225 352.076547 
L 881.512675 352.530879 
L 890.961125 352.836049 
L 900.409575 353.033379 
L 909.858025 353.14118 
L 919.306475 353.178119 
L 928.754925 353.191579 
L 938.203375 353.192244 
L 947.651825 353.166223 
L 957.100275 353.067656 
L 966.548725 352.706727 
L 975.997175 352.791911 
L 985.445625 353.191462 
" clip-path="url(#pefaa53a4fd)" style="fill: none; stroke: #5cb85c; stroke-linecap: square"/>
   </g>
   <g id="line2d_22">
    <path d="M 40.600625 353.107216 
L 50.049075 353.083425 
L 59.497525 353.091838 
L 68.945975 353.140359 
L 78.394425 353.165088 
L 87.842875 353.177884 
L 97.291325 353.184223 
L 106.739775 353.184262 
L 116.188225 353.180232 
L 125.636675 353.176045 
L 135.085125 353.171584 
L 144.533575 353.167749 
L 153.982025 353.162662 
L 163.430475 353.151941 
L 172.878925 353.13265 
L 182.327375 353.103225 
L 191.775825 353.056465 
L 201.224275 353.001958 
L 210.672725 352.911765 
L 220.121175 352.732395 
L 229.569625 352.439629 
L 239.018075 351.991245 
L 248.466525 351.380552 
L 257.914975 350.602268 
L 267.363425 349.60756 
L 276.811875 348.239908 
L 286.260325 346.394957 
L 295.708775 344.187275 
L 305.157225 341.497754 
L 314.605675 338.137281 
L 324.054125 334.098304 
L 333.502575 329.329445 
L 342.951025 323.42826 
L 352.399475 316.051153 
L 361.847925 306.372297 
L 371.296375 293.652851 
L 380.744825 277.69705 
L 390.193275 257.980951 
L 399.641725 235.697885 
L 409.090175 212.501186 
L 418.538625 188.660926 
L 427.987075 165.283802 
L 437.435525 143.840218 
L 446.883975 125.696183 
L 456.332425 112.406973 
L 465.780875 101.551456 
L 475.229325 91.997149 
L 484.677775 86.912008 
L 494.126225 85.178927 
L 503.574675 82.811637 
L 513.023125 79.07736 
L 522.471575 76.149972 
L 531.920025 76.552261 
L 541.368475 79.132181 
L 550.816925 81.80425 
L 560.265375 86.999071 
L 569.713825 94.937294 
L 579.162275 103.063652 
L 588.610725 110.298602 
L 598.059175 117.879574 
L 607.507625 127.460176 
L 616.956075 139.529878 
L 626.404525 153.689678 
L 635.852975 170.305592 
L 645.301425 188.89085 
L 654.749875 207.735185 
L 664.198325 226.299 
L 673.646775 242.686555 
L 683.095225 257.701841 
L 692.543675 272.760835 
L 701.992125 286.440556 
L 711.440575 297.834533 
L 720.889025 307.414744 
L 730.337475 315.67958 
L 739.785925 321.817146 
L 749.234375 326.412817 
L 758.682825 330.780521 
L 768.131275 334.292894 
L 777.579725 336.934756 
L 787.028175 339.461107 
L 796.476625 341.826128 
L 805.925075 343.94436 
L 815.373525 345.770999 
L 824.821975 347.397217 
L 834.270425 348.821058 
L 843.718875 349.887804 
L 853.167325 350.727248 
L 862.615775 351.435842 
L 872.064225 352.041644 
L 881.512675 352.540818 
L 890.961125 352.879209 
L 900.409575 353.05803 
L 909.858025 353.144741 
L 919.306475 353.175536 
L 928.754925 353.18927 
L 938.203375 353.190601 
L 947.651825 353.158358 
L 957.100275 353.042574 
L 966.548725 352.628585 
L 975.997175 352.728365 
L 985.445625 353.187705 
" clip-path="url(#pefaa53a4fd)" style="fill: none; stroke: #5cb85c; stroke-linecap: square"/>
   </g>
   <g id="line2d_23">
    <path d="M 40.600625 353.195101 
L 50.049075 353.189623 
L 59.497525 353.191266 
L 68.945975 353.201831 
L 78.394425 353.206644 
L 87.842875 353.207935 
L 97.291325 353.2068 
L 106.739775 353.204766 
L 116.188225 353.202222 
L 125.636675 353.199522 
L 135.085125 353.194944 
L 144.533575 353.189349 
L 153.982025 353.183245 
L 163.430475 353.172484 
L 172.878925 353.154132 
L 182.327375 353.124629 
L 191.775825 353.076069 
L 201.224275 353.003249 
L 210.672725 352.880305 
L 220.121175 352.645763 
L 229.569625 352.270707 
L 239.018075 351.715696 
L 248.466525 350.922777 
L 257.914975 349.904865 
L 267.363425 348.618212 
L 276.811875 346.882822 
L 286.260325 344.557361 
L 295.708775 341.729361 
L 305.157225 338.245395 
L 314.605675 333.895535 
L 324.054125 328.48112 
L 333.502575 321.872475 
L 342.951025 313.489115 
L 352.399475 302.762882 
L 361.847925 289.565353 
L 371.296375 273.072031 
L 380.744825 252.359815 
L 390.193275 228.687812 
L 399.641725 204.431019 
L 409.090175 180.554446 
L 418.538625 157.112563 
L 427.987075 134.563143 
L 437.435525 114.659223 
L 446.883975 99.354653 
L 456.332425 89.258169 
L 465.780875 81.262777 
L 475.229325 76.015523 
L 484.677775 75.5473 
L 494.126225 76.632163 
L 503.574675 76.203853 
L 513.023125 74.268082 
L 522.471575 76.356458 
L 531.920025 84.289164 
L 541.368475 92.410865 
L 550.816925 99.132711 
L 560.265375 108.361031 
L 569.713825 119.988727 
L 579.162275 130.184366 
L 588.610725 137.722843 
L 598.059175 145.069038 
L 607.507625 154.935559 
L 616.956075 167.614193 
L 626.404525 181.347991 
L 635.852975 195.763775 
L 645.301425 210.91621 
L 654.749875 226.509438 
L 664.198325 242.846751 
L 673.646775 257.686855 
L 683.095225 271.325881 
L 692.543675 284.81516 
L 701.992125 297.013559 
L 711.440575 307.346737 
L 720.889025 315.920617 
L 730.337475 323.271351 
L 739.785925 328.866584 
L 749.234375 333.052179 
L 758.682825 336.832432 
L 768.131275 339.854749 
L 777.579725 342.140181 
L 787.028175 344.249139 
L 796.476625 346.118664 
L 805.925075 347.689084 
L 815.373525 349.002932 
L 824.821975 350.164371 
L 834.270425 351.116625 
L 843.718875 351.811406 
L 853.167325 352.330575 
L 862.615775 352.683914 
L 872.064225 352.92096 
L 881.512675 353.070943 
L 890.961125 353.147637 
L 900.409575 353.174793 
L 909.858025 353.188097 
L 919.306475 353.194123 
L 928.754925 353.198309 
L 938.203375 353.195336 
L 947.651825 353.168688 
L 957.100275 353.084795 
L 966.548725 352.771838 
L 975.997175 352.852014 
L 985.445625 353.202888 
" clip-path="url(#pefaa53a4fd)" style="fill: none; stroke: #f0ad4e; stroke-linecap: square"/>
   </g>
   <g id="line2d_24">
    <path d="M 40.600625 353.108077 
L 50.049075 353.094108 
L 59.497525 353.110386 
L 68.945975 353.154015 
L 78.394425 353.172406 
L 87.842875 353.180819 
L 97.291325 353.183675 
L 106.739775 353.182345 
L 116.188225 353.181092 
L 125.636675 353.179566 
L 135.085125 353.177062 
L 144.533575 353.171506 
L 153.982025 353.164384 
L 163.430475 353.152958 
L 172.878925 353.13535 
L 182.327375 353.109799 
L 191.775825 353.064643 
L 201.224275 353.005401 
L 210.672725 352.906873 
L 220.121175 352.721204 
L 229.569625 352.43286 
L 239.018075 352.007993 
L 248.466525 351.409156 
L 257.914975 350.642689 
L 267.363425 349.682453 
L 276.811875 348.361444 
L 286.260325 346.631181 
L 295.708775 344.533844 
L 305.157225 341.978537 
L 314.605675 338.846227 
L 324.054125 335.091408 
L 333.502575 330.750274 
L 342.951025 325.467881 
L 352.399475 318.84245 
L 361.847925 310.497359 
L 371.296375 300.032628 
L 380.744825 286.950843 
L 390.193275 270.919131 
L 399.641725 252.833321 
L 409.090175 233.847807 
L 418.538625 214.383624 
L 427.987075 194.949492 
L 437.435525 177.067937 
L 446.883975 162.276315 
L 456.332425 151.215721 
L 465.780875 141.988184 
L 475.229325 134.666053 
L 484.677775 131.289341 
L 494.126225 130.164214 
L 503.574675 128.408242 
L 513.023125 125.426425 
L 522.471575 122.695504 
L 531.920025 122.25659 
L 541.368475 124.710748 
L 550.816925 129.080368 
L 560.265375 136.019891 
L 569.713825 144.141123 
L 579.162275 151.208365 
L 588.610725 157.488009 
L 598.059175 164.197882 
L 607.507625 172.719955 
L 616.956075 183.105136 
L 626.404525 194.609966 
L 635.852975 207.708655 
L 645.301425 222.109179 
L 654.749875 236.655891 
L 664.198325 251.48586 
L 673.646775 264.955261 
L 683.095225 277.258526 
L 692.543675 289.40637 
L 701.992125 300.403261 
L 711.440575 309.809346 
L 720.889025 317.683358 
L 730.337475 324.379888 
L 739.785925 329.456616 
L 749.234375 333.20584 
L 758.682825 336.648211 
L 768.131275 339.434538 
L 777.579725 341.512388 
L 787.028175 343.496015 
L 796.476625 345.297807 
L 805.925075 346.818298 
L 815.373525 348.10456 
L 824.821975 349.277581 
L 834.270425 350.278003 
L 843.718875 351.026236 
L 853.167325 351.614233 
L 862.615775 352.132776 
L 872.064225 352.548213 
L 881.512675 352.830219 
L 890.961125 353.01894 
L 900.409575 353.121811 
L 909.858025 353.172093 
L 919.306475 353.18884 
L 928.754925 353.196901 
L 938.203375 353.195766 
L 947.651825 353.165206 
L 957.100275 353.059596 
L 966.548725 352.684071 
L 975.997175 352.769451 
L 985.445625 353.186258 
" clip-path="url(#pefaa53a4fd)" style="fill: none; stroke: #5cb85c; stroke-linecap: square"/>
   </g>
   <g id="line2d_25">
    <path d="M 40.600625 353.218891 
L 50.049075 353.218344 
L 59.497525 353.217718 
L 68.945975 353.217757 
L 78.394425 353.217209 
L 87.842875 353.215096 
L 97.291325 353.211613 
L 106.739775 353.209031 
L 116.188225 353.207427 
L 125.636675 353.203748 
L 135.085125 353.200109 
L 144.533575 353.19647 
L 153.982025 353.191344 
L 163.430475 353.183049 
L 172.878925 353.16638 
L 182.327375 353.143528 
L 191.775825 353.101934 
L 201.224275 353.032635 
L 210.672725 352.919786 
L 220.121175 352.727856 
L 229.569625 352.446946 
L 239.018075 352.001067 
L 248.466525 351.354649 
L 257.914975 350.528901 
L 267.363425 349.473424 
L 276.811875 347.98995 
L 286.260325 345.88557 
L 295.708775 343.297785 
L 305.157225 340.132216 
L 314.605675 336.145633 
L 324.054125 331.259699 
L 333.502575 325.282095 
L 342.951025 317.769834 
L 352.399475 307.934539 
L 361.847925 294.884801 
L 371.296375 278.38788 
L 380.744825 258.47316 
L 390.193275 235.153752 
L 399.641725 210.23665 
L 409.090175 185.760302 
L 418.538625 162.29674 
L 427.987075 140.790393 
L 437.435525 120.865657 
L 446.883975 103.307898 
L 456.332425 89.766186 
L 465.780875 76.719344 
L 475.229325 64.422456 
L 484.677775 57.678306 
L 494.126225 56.200818 
L 503.574675 56.066957 
L 513.023125 52.999759 
L 522.471575 50.397144 
L 531.920025 53.629273 
L 541.368475 58.283012 
L 550.816925 62.314202 
L 560.265375 67.927943 
L 569.713825 72.679271 
L 579.162275 78.574039 
L 588.610725 87.434934 
L 598.059175 98.724708 
L 607.507625 110.923616 
L 616.956075 124.75062 
L 626.404525 144.23206 
L 635.852975 165.172752 
L 645.301425 185.964675 
L 654.749875 206.715003 
L 664.198325 225.569706 
L 673.646775 241.831929 
L 683.095225 256.030272 
L 692.543675 270.332659 
L 701.992125 283.569553 
L 711.440575 292.967342 
L 720.889025 300.552501 
L 730.337475 310.045453 
L 739.785925 318.072618 
L 749.234375 322.968764 
L 758.682825 327.657054 
L 768.131275 331.773116 
L 777.579725 334.517262 
L 787.028175 336.924543 
L 796.476625 339.801924 
L 805.925075 342.572874 
L 815.373525 344.675375 
L 824.821975 346.613416 
L 834.270425 348.263621 
L 843.718875 349.25113 
L 853.167325 350.030627 
L 862.615775 350.854888 
L 872.064225 351.65168 
L 881.512675 352.367435 
L 890.961125 352.842466 
L 900.409575 353.034161 
L 909.858025 353.123611 
L 919.306475 353.156832 
L 928.754925 353.178471 
L 938.203375 353.186805 
L 947.651825 353.16501 
L 957.100275 353.089686 
L 966.548725 352.812611 
L 975.997175 352.882574 
L 985.445625 353.197722 
" clip-path="url(#pefaa53a4fd)" style="fill: none; stroke: #5cb85c; stroke-linecap: square"/>
   </g>
   <g id="line2d_26">
    <path d="M 40.600625 353.2239 
L 985.445625 353.2239 
" clip-path="url(#pefaa53a4fd)" style="fill: none; stroke: #dedede; stroke-width: 2; stroke-linecap: square"/>
   </g>
   <g id="text_19">
    <!-- FastQC: Per Sequence GC Content -->
    <g transform="translate(376.386875 19.3575) scale(0.16 -0.16)">
     <defs>
      <path id="DejaVuSans-46" d="M 628 4666 
L 3309 4666 
L 3309 4134 
L 1259 4134 
L 1259 2759 
L 3109 2759 
L 3109 2228 
L 1259 2228 
L 1259 0 
L 628 0 
L 628 4666 
z
" transform="scale(0.015625)"/>
      <path id="DejaVuSans-61" d="M 2194 1759 
Q 1497 1759 1228 1600 
Q 959 1441 959 1056 
Q 959 750 1161 570 
Q 1363 391 1709 391 
Q 2188 391 2477 730 
Q 2766 1069 2766 1631 
L 2766 1759 
L 2194 1759 
z
M 3341 1997 
L 3341 0 
L 2766 0 
L 2766 531 
Q 2569 213 2275 61 
Q 1981 -91 1556 -91 
Q 1019 -91 701 211 
Q 384 513 384 1019 
Q 384 1609 779 1909 
Q 1175 2209 1959 2209 
L 2766 2209 
L 2766 2266 
Q 2766 2663 2505 2880 
Q 2244 3097 1772 3097 
Q 1472 3097 1187 3025 
Q 903 2953 641 2809 
L 641 3341 
Q 956 3463 1253 3523 
Q 1550 3584 1831 3584 
Q 2591 3584 2966 3190 
Q 3341 2797 3341 1997 
z
" transform="scale(0.015625)"/>
      <path id="DejaVuSans-73" d="M 2834 3397 
L 2834 2853 
Q 2591 2978 2328 3040 
Q 2066 3103 1784 3103 
Q 1356 3103 1142 2972 
Q 928 2841 928 2578 
Q 928 2378 1081 2264 
Q 1234 2150 1697 2047 
L 1894 2003 
Q 2506 1872 2764 1633 
Q 3022 1394 3022 966 
Q 3022 478 2636 193 
Q 2250 -91 1575 -91 
Q 1294 -91 989 -36 
Q 684 19 347 128 
L 347 722 
Q 666 556 975 473 
Q 1284 391 1588 391 
Q 1994 391 2212 530 
Q 2431 669 2431 922 
Q 2431 1156 2273 1281 
Q 2116 1406 1581 1522 
L 1381 1569 
Q 847 1681 609 1914 
Q 372 2147 372 2553 
Q 372 3047 722 3315 
Q 1072 3584 1716 3584 
Q 2034 3584 2315 3537 
Q 2597 3491 2834 3397 
z
" transform="scale(0.015625)"/>
      <path id="DejaVuSans-51" d="M 2522 4238 
Q 1834 4238 1429 3725 
Q 1025 3213 1025 2328 
Q 1025 1447 1429 934 
Q 1834 422 2522 422 
Q 3209 422 3611 934 
Q 4013 1447 4013 2328 
Q 4013 3213 3611 3725 
Q 3209 4238 2522 4238 
z
M 3406 84 
L 4238 -825 
L 3475 -825 
L 2784 -78 
Q 2681 -84 2626 -87 
Q 2572 -91 2522 -91 
Q 1538 -91 948 567 
Q 359 1225 359 2328 
Q 359 3434 948 4092 
Q 1538 4750 2522 4750 
Q 3503 4750 4090 4092 
Q 4678 3434 4678 2328 
Q 4678 1516 4351 937 
Q 4025 359 3406 84 
z
" transform="scale(0.015625)"/>
      <path id="DejaVuSans-3a" d="M 750 794 
L 1409 794 
L 1409 0 
L 750 0 
L 750 794 
z
M 750 3309 
L 1409 3309 
L 1409 2516 
L 750 2516 
L 750 3309 
z
" transform="scale(0.015625)"/>
      <path id="DejaVuSans-50" d="M 1259 4147 
L 1259 2394 
L 2053 2394 
Q 2494 2394 2734 2622 
Q 2975 2850 2975 3272 
Q 2975 3691 2734 3919 
Q 2494 4147 2053 4147 
L 1259 4147 
z
M 628 4666 
L 2053 4666 
Q 2838 4666 3239 4311 
Q 3641 3956 3641 3272 
Q 3641 2581 3239 2228 
Q 2838 1875 2053 1875 
L 1259 1875 
L 1259 0 
L 628 0 
L 628 4666 
z
" transform="scale(0.015625)"/>
      <path id="DejaVuSans-72" d="M 2631 2963 
Q 2534 3019 2420 3045 
Q 2306 3072 2169 3072 
Q 1681 3072 1420 2755 
Q 1159 2438 1159 1844 
L 1159 0 
L 581 0 
L 581 3500 
L 1159 3500 
L 1159 2956 
Q 1341 3275 1631 3429 
Q 1922 3584 2338 3584 
Q 2397 3584 2469 3576 
Q 2541 3569 2628 3553 
L 2631 2963 
z
" transform="scale(0.015625)"/>
      <path id="DejaVuSans-53" d="M 3425 4513 
L 3425 3897 
Q 3066 4069 2747 4153 
Q 2428 4238 2131 4238 
Q 1616 4238 1336 4038 
Q 1056 3838 1056 3469 
Q 1056 3159 1242 3001 
Q 1428 2844 1947 2747 
L 2328 2669 
Q 3034 2534 3370 2195 
Q 3706 1856 3706 1288 
Q 3706 609 3251 259 
Q 2797 -91 1919 -91 
Q 1588 -91 1214 -16 
Q 841 59 441 206 
L 441 856 
Q 825 641 1194 531 
Q 1563 422 1919 422 
Q 2459 422 2753 634 
Q 3047 847 3047 1241 
Q 3047 1584 2836 1778 
Q 2625 1972 2144 2069 
L 1759 2144 
Q 1053 2284 737 2584 
Q 422 2884 422 3419 
Q 422 4038 858 4394 
Q 1294 4750 2059 4750 
Q 2388 4750 2728 4690 
Q 3069 4631 3425 4513 
z
" transform="scale(0.015625)"/>
      <path id="DejaVuSans-71" d="M 947 1747 
Q 947 1113 1208 752 
Q 1469 391 1925 391 
Q 2381 391 2643 752 
Q 2906 1113 2906 1747 
Q 2906 2381 2643 2742 
Q 2381 3103 1925 3103 
Q 1469 3103 1208 2742 
Q 947 2381 947 1747 
z
M 2906 525 
Q 2725 213 2448 61 
Q 2172 -91 1784 -91 
Q 1150 -91 751 415 
Q 353 922 353 1747 
Q 353 2572 751 3078 
Q 1150 3584 1784 3584 
Q 2172 3584 2448 3432 
Q 2725 3281 2906 2969 
L 2906 3500 
L 3481 3500 
L 3481 -1331 
L 2906 -1331 
L 2906 525 
z
" transform="scale(0.015625)"/>
      <path id="DejaVuSans-63" d="M 3122 3366 
L 3122 2828 
Q 2878 2963 2633 3030 
Q 2388 3097 2138 3097 
Q 1578 3097 1268 2742 
Q 959 2388 959 1747 
Q 959 1106 1268 751 
Q 1578 397 2138 397 
Q 2388 397 2633 464 
Q 2878 531 3122 666 
L 3122 134 
Q 2881 22 2623 -34 
Q 2366 -91 2075 -91 
Q 1284 -91 818 406 
Q 353 903 353 1747 
Q 353 2603 823 3093 
Q 1294 3584 2113 3584 
Q 2378 3584 2631 3529 
Q 2884 3475 3122 3366 
z
" transform="scale(0.015625)"/>
     </defs>
     <use xlink:href="#DejaVuSans-46"/>
     <use xlink:href="#DejaVuSans-61" x="48.394531"/>
     <use xlink:href="#DejaVuSans-73" x="109.673828"/>
     <use xlink:href="#DejaVuSans-74" x="161.773438"/>
     <use xlink:href="#DejaVuSans-51" x="200.982422"/>
     <use xlink:href="#DejaVuSans-43" x="279.693359"/>
     <use xlink:href="#DejaVuSans-3a" x="349.517578"/>
     <use xlink:href="#DejaVuSans-20" x="383.208984"/>
     <use xlink:href="#DejaVuSans-50" x="414.996094"/>
     <use xlink:href="#DejaVuSans-65" x="471.673828"/>
     <use xlink:href="#DejaVuSans-72" x="533.197266"/>
     <use xlink:href="#DejaVuSans-20" x="574.310547"/>
     <use xlink:href="#DejaVuSans-53" x="606.097656"/>
     <use xlink:href="#DejaVuSans-65" x="669.574219"/>
     <use xlink:href="#DejaVuSans-71" x="731.097656"/>
     <use xlink:href="#DejaVuSans-75" x="794.574219"/>
     <use xlink:href="#DejaVuSans-65" x="857.953125"/>
     <use xlink:href="#DejaVuSans-6e" x="919.476562"/>
     <use xlink:href="#DejaVuSans-63" x="982.855469"/>
     <use xlink:href="#DejaVuSans-65" x="1037.835938"/>
     <use xlink:href="#DejaVuSans-20" x="1099.359375"/>
     <use xlink:href="#DejaVuSans-47" x="1131.146484"/>
     <use xlink:href="#DejaVuSans-43" x="1208.636719"/>
     <use xlink:href="#DejaVuSans-20" x="1278.460938"/>
     <use xlink:href="#DejaVuSans-43" x="1310.248047"/>
     <use xlink:href="#DejaVuSans-6f" x="1380.072266"/>
     <use xlink:href="#DejaVuSans-6e" x="1441.253906"/>
     <use xlink:href="#DejaVuSans-74" x="1504.632812"/>
     <use xlink:href="#DejaVuSans-65" x="1543.841797"/>
     <use xlink:href="#DejaVuSans-6e" x="1605.365234"/>
     <use xlink:href="#DejaVuSans-74" x="1668.744141"/>
    </g>
   </g>
  </g>
 </g>
 <defs>
  <clipPath id="pefaa53a4fd">
   <rect x="40.600625" y="35.2559" width="944.845" height="317.968"/>
  </clipPath>
 </defs>
</svg>
