<?xml version="1.0" encoding="utf-8" standalone="no"?>
<!DOCTYPE svg PUBLIC "-//W3C//DTD SVG 1.1//EN"
  "http://www.w3.org/Graphics/SVG/1.1/DTD/svg11.dtd">
<svg xmlns:xlink="http://www.w3.org/1999/xlink" width="1000.298125pt" height="388.844525pt" viewBox="0 0 1000.298125 388.844525" xmlns="http://www.w3.org/2000/svg" version="1.1">
 <metadata>
  <rdf:RDF xmlns:dc="http://purl.org/dc/elements/1.1/" xmlns:cc="http://creativecommons.org/ns#" xmlns:rdf="http://www.w3.org/1999/02/22-rdf-syntax-ns#">
   <cc:Work>
    <dc:type rdf:resource="http://purl.org/dc/dcmitype/StillImage"/>
    <dc:date>2024-09-05T13:39:11.746524</dc:date>
    <dc:format>image/svg+xml</dc:format>
    <dc:creator>
     <cc:Agent>
      <dc:title>Matplotlib v3.8.2, https://matplotlib.org/</dc:title>
     </cc:Agent>
    </dc:creator>
   </cc:Work>
  </rdf:RDF>
 </metadata>
 <defs>
  <style type="text/css">*{stroke-linejoin: round; stroke-linecap: butt}</style>
 </defs>
 <g id="figure_1">
  <g id="axes_1">
   <g id="patch_1">
    <path d="M 32.968125 353.2239 
L 985.463125 353.2239 
L 985.463125 35.2559 
L 32.968125 35.2559 
z
" style="fill: #ffffff"/>
   </g>
   <g id="matplotlib.axis_1">
    <g id="xtick_1">
     <g id="text_1">
      <!-- 0 -->
      <g transform="translate(30.423125 366.30265) scale(0.08 -0.08)">
       <defs>
        <path id="DejaVuSans-30" d="M 2034 4250 
Q 1547 4250 1301 3770 
Q 1056 3291 1056 2328 
Q 1056 1369 1301 889 
Q 1547 409 2034 409 
Q 2525 409 2770 889 
Q 3016 1369 3016 2328 
Q 3016 3291 2770 3770 
Q 2525 4250 2034 4250 
z
M 2034 4750 
Q 2819 4750 3233 4129 
Q 3647 3509 3647 2328 
Q 3647 1150 3233 529 
Q 2819 -91 2034 -91 
Q 1250 -91 836 529 
Q 422 1150 422 2328 
Q 422 3509 836 4129 
Q 1250 4750 2034 4750 
z
" transform="scale(0.015625)"/>
       </defs>
       <use xlink:href="#DejaVuSans-30"/>
      </g>
     </g>
    </g>
    <g id="xtick_2">
     <g id="text_2">
      <!-- 20 -->
      <g transform="translate(218.377125 366.30265) scale(0.08 -0.08)">
       <defs>
        <path id="DejaVuSans-32" d="M 1228 531 
L 3431 531 
L 3431 0 
L 469 0 
L 469 531 
Q 828 903 1448 1529 
Q 2069 2156 2228 2338 
Q 2531 2678 2651 2914 
Q 2772 3150 2772 3378 
Q 2772 3750 2511 3984 
Q 2250 4219 1831 4219 
Q 1534 4219 1204 4116 
Q 875 4013 500 3803 
L 500 4441 
Q 881 4594 1212 4672 
Q 1544 4750 1819 4750 
Q 2544 4750 2975 4387 
Q 3406 4025 3406 3419 
Q 3406 3131 3298 2873 
Q 3191 2616 2906 2266 
Q 2828 2175 2409 1742 
Q 1991 1309 1228 531 
z
" transform="scale(0.015625)"/>
       </defs>
       <use xlink:href="#DejaVuSans-32"/>
       <use xlink:href="#DejaVuSans-30" x="63.623047"/>
      </g>
     </g>
    </g>
    <g id="xtick_3">
     <g id="text_3">
      <!-- 40 -->
      <g transform="translate(408.876125 366.30265) scale(0.08 -0.08)">
       <defs>
        <path id="DejaVuSans-34" d="M 2419 4116 
L 825 1625 
L 2419 1625 
L 2419 4116 
z
M 2253 4666 
L 3047 4666 
L 3047 1625 
L 3713 1625 
L 3713 1100 
L 3047 1100 
L 3047 0 
L 2419 0 
L 2419 1100 
L 313 1100 
L 313 1709 
L 2253 4666 
z
" transform="scale(0.015625)"/>
       </defs>
       <use xlink:href="#DejaVuSans-34"/>
       <use xlink:href="#DejaVuSans-30" x="63.623047"/>
      </g>
     </g>
    </g>
    <g id="xtick_4">
     <g id="text_4">
      <!-- 60 -->
      <g transform="translate(599.375125 366.30265) scale(0.08 -0.08)">
       <defs>
        <path id="DejaVuSans-36" d="M 2113 2584 
Q 1688 2584 1439 2293 
Q 1191 2003 1191 1497 
Q 1191 994 1439 701 
Q 1688 409 2113 409 
Q 2538 409 2786 701 
Q 3034 994 3034 1497 
Q 3034 2003 2786 2293 
Q 2538 2584 2113 2584 
z
M 3366 4563 
L 3366 3988 
Q 3128 4100 2886 4159 
Q 2644 4219 2406 4219 
Q 1781 4219 1451 3797 
Q 1122 3375 1075 2522 
Q 1259 2794 1537 2939 
Q 1816 3084 2150 3084 
Q 2853 3084 3261 2657 
Q 3669 2231 3669 1497 
Q 3669 778 3244 343 
Q 2819 -91 2113 -91 
Q 1303 -91 875 529 
Q 447 1150 447 2328 
Q 447 3434 972 4092 
Q 1497 4750 2381 4750 
Q 2619 4750 2861 4703 
Q 3103 4656 3366 4563 
z
" transform="scale(0.015625)"/>
       </defs>
       <use xlink:href="#DejaVuSans-36"/>
       <use xlink:href="#DejaVuSans-30" x="63.623047"/>
      </g>
     </g>
    </g>
    <g id="xtick_5">
     <g id="text_5">
      <!-- 80 -->
      <g transform="translate(789.874125 366.30265) scale(0.08 -0.08)">
       <defs>
        <path id="DejaVuSans-38" d="M 2034 2216 
Q 1584 2216 1326 1975 
Q 1069 1734 1069 1313 
Q 1069 891 1326 650 
Q 1584 409 2034 409 
Q 2484 409 2743 651 
Q 3003 894 3003 1313 
Q 3003 1734 2745 1975 
Q 2488 2216 2034 2216 
z
M 1403 2484 
Q 997 2584 770 2862 
Q 544 3141 544 3541 
Q 544 4100 942 4425 
Q 1341 4750 2034 4750 
Q 2731 4750 3128 4425 
Q 3525 4100 3525 3541 
Q 3525 3141 3298 2862 
Q 3072 2584 2669 2484 
Q 3125 2378 3379 2068 
Q 3634 1759 3634 1313 
Q 3634 634 3220 271 
Q 2806 -91 2034 -91 
Q 1263 -91 848 271 
Q 434 634 434 1313 
Q 434 1759 690 2068 
Q 947 2378 1403 2484 
z
M 1172 3481 
Q 1172 3119 1398 2916 
Q 1625 2713 2034 2713 
Q 2441 2713 2670 2916 
Q 2900 3119 2900 3481 
Q 2900 3844 2670 4047 
Q 2441 4250 2034 4250 
Q 1625 4250 1398 4047 
Q 1172 3844 1172 3481 
z
" transform="scale(0.015625)"/>
       </defs>
       <use xlink:href="#DejaVuSans-38"/>
       <use xlink:href="#DejaVuSans-30" x="63.623047"/>
      </g>
     </g>
    </g>
    <g id="xtick_6">
     <g id="text_6">
      <!-- 100 -->
      <g transform="translate(977.828125 366.30265) scale(0.08 -0.08)">
       <defs>
        <path id="DejaVuSans-31" d="M 794 531 
L 1825 531 
L 1825 4091 
L 703 3866 
L 703 4441 
L 1819 4666 
L 2450 4666 
L 2450 531 
L 3481 531 
L 3481 0 
L 794 0 
L 794 531 
z
" transform="scale(0.015625)"/>
       </defs>
       <use xlink:href="#DejaVuSans-31"/>
       <use xlink:href="#DejaVuSans-30" x="63.623047"/>
       <use xlink:href="#DejaVuSans-30" x="127.246094"/>
      </g>
     </g>
    </g>
    <g id="text_7">
     <!-- % GC -->
     <g transform="translate(495.510156 379.564837) scale(0.1 -0.1)">
      <defs>
       <path id="DejaVuSans-25" d="M 4653 2053 
Q 4381 2053 4226 1822 
Q 4072 1591 4072 1178 
Q 4072 772 4226 539 
Q 4381 306 4653 306 
Q 4919 306 5073 539 
Q 5228 772 5228 1178 
Q 5228 1588 5073 1820 
Q 4919 2053 4653 2053 
z
M 4653 2450 
Q 5147 2450 5437 2106 
Q 5728 1763 5728 1178 
Q 5728 594 5436 251 
Q 5144 -91 4653 -91 
Q 4153 -91 3862 251 
Q 3572 594 3572 1178 
Q 3572 1766 3864 2108 
Q 4156 2450 4653 2450 
z
M 1428 4353 
Q 1159 4353 1004 4120 
Q 850 3888 850 3481 
Q 850 3069 1003 2837 
Q 1156 2606 1428 2606 
Q 1700 2606 1854 2837 
Q 2009 3069 2009 3481 
Q 2009 3884 1853 4118 
Q 1697 4353 1428 4353 
z
M 4250 4750 
L 4750 4750 
L 1831 -91 
L 1331 -91 
L 4250 4750 
z
M 1428 4750 
Q 1922 4750 2215 4408 
Q 2509 4066 2509 3481 
Q 2509 2891 2217 2550 
Q 1925 2209 1428 2209 
Q 931 2209 642 2551 
Q 353 2894 353 3481 
Q 353 4063 643 4406 
Q 934 4750 1428 4750 
z
" transform="scale(0.015625)"/>
       <path id="DejaVuSans-20" transform="scale(0.015625)"/>
       <path id="DejaVuSans-47" d="M 3809 666 
L 3809 1919 
L 2778 1919 
L 2778 2438 
L 4434 2438 
L 4434 434 
Q 4069 175 3628 42 
Q 3188 -91 2688 -91 
Q 1594 -91 976 548 
Q 359 1188 359 2328 
Q 359 3472 976 4111 
Q 1594 4750 2688 4750 
Q 3144 4750 3555 4637 
Q 3966 4525 4313 4306 
L 4313 3634 
Q 3963 3931 3569 4081 
Q 3175 4231 2741 4231 
Q 1884 4231 1454 3753 
Q 1025 3275 1025 2328 
Q 1025 1384 1454 906 
Q 1884 428 2741 428 
Q 3075 428 3337 486 
Q 3600 544 3809 666 
z
" transform="scale(0.015625)"/>
       <path id="DejaVuSans-43" d="M 4122 4306 
L 4122 3641 
Q 3803 3938 3442 4084 
Q 3081 4231 2675 4231 
Q 1875 4231 1450 3742 
Q 1025 3253 1025 2328 
Q 1025 1406 1450 917 
Q 1875 428 2675 428 
Q 3081 428 3442 575 
Q 3803 722 4122 1019 
L 4122 359 
Q 3791 134 3420 21 
Q 3050 -91 2638 -91 
Q 1578 -91 968 557 
Q 359 1206 359 2328 
Q 359 3453 968 4101 
Q 1578 4750 2638 4750 
Q 3056 4750 3426 4639 
Q 3797 4528 4122 4306 
z
" transform="scale(0.015625)"/>
      </defs>
      <use xlink:href="#DejaVuSans-25"/>
      <use xlink:href="#DejaVuSans-20" x="95.019531"/>
      <use xlink:href="#DejaVuSans-47" x="126.806641"/>
      <use xlink:href="#DejaVuSans-43" x="204.296875"/>
     </g>
    </g>
   </g>
   <g id="matplotlib.axis_2">
    <g id="ytick_1">
     <g id="line2d_1">
      <path d="M 32.968125 353.2239 
L 985.463125 353.2239 
" clip-path="url(#p1c4ec52ee9)" style="fill: none; stroke: #dedede; stroke-linecap: square"/>
     </g>
     <g id="text_8">
      <!-- 0 -->
      <g transform="translate(20.878125 356.263275) scale(0.08 -0.08)">
       <use xlink:href="#DejaVuSans-30"/>
      </g>
     </g>
    </g>
    <g id="ytick_2">
     <g id="line2d_2">
      <path d="M 32.968125 282.98964 
L 985.463125 282.98964 
" clip-path="url(#p1c4ec52ee9)" style="fill: none; stroke: #dedede; stroke-linecap: square"/>
     </g>
     <g id="text_9">
      <!-- 2 -->
      <g transform="translate(20.878125 286.029015) scale(0.08 -0.08)">
       <use xlink:href="#DejaVuSans-32"/>
      </g>
     </g>
    </g>
    <g id="ytick_3">
     <g id="line2d_3">
      <path d="M 32.968125 212.755381 
L 985.463125 212.755381 
" clip-path="url(#p1c4ec52ee9)" style="fill: none; stroke: #dedede; stroke-linecap: square"/>
     </g>
     <g id="text_10">
      <!-- 4 -->
      <g transform="translate(20.878125 215.794756) scale(0.08 -0.08)">
       <use xlink:href="#DejaVuSans-34"/>
      </g>
     </g>
    </g>
    <g id="ytick_4">
     <g id="line2d_4">
      <path d="M 32.968125 142.521121 
L 985.463125 142.521121 
" clip-path="url(#p1c4ec52ee9)" style="fill: none; stroke: #dedede; stroke-linecap: square"/>
     </g>
     <g id="text_11">
      <!-- 6 -->
      <g transform="translate(20.878125 145.560496) scale(0.08 -0.08)">
       <use xlink:href="#DejaVuSans-36"/>
      </g>
     </g>
    </g>
    <g id="ytick_5">
     <g id="line2d_5">
      <path d="M 32.968125 72.286862 
L 985.463125 72.286862 
" clip-path="url(#p1c4ec52ee9)" style="fill: none; stroke: #dedede; stroke-linecap: square"/>
     </g>
     <g id="text_12">
      <!-- 8 -->
      <g transform="translate(20.878125 75.326237) scale(0.08 -0.08)">
       <use xlink:href="#DejaVuSans-38"/>
      </g>
     </g>
    </g>
    <g id="text_13">
     <!-- Count -->
     <g transform="translate(14.798437 209.088338) rotate(-90) scale(0.1 -0.1)">
      <defs>
       <path id="DejaVuSans-6f" d="M 1959 3097 
Q 1497 3097 1228 2736 
Q 959 2375 959 1747 
Q 959 1119 1226 758 
Q 1494 397 1959 397 
Q 2419 397 2687 759 
Q 2956 1122 2956 1747 
Q 2956 2369 2687 2733 
Q 2419 3097 1959 3097 
z
M 1959 3584 
Q 2709 3584 3137 3096 
Q 3566 2609 3566 1747 
Q 3566 888 3137 398 
Q 2709 -91 1959 -91 
Q 1206 -91 779 398 
Q 353 888 353 1747 
Q 353 2609 779 3096 
Q 1206 3584 1959 3584 
z
" transform="scale(0.015625)"/>
       <path id="DejaVuSans-75" d="M 544 1381 
L 544 3500 
L 1119 3500 
L 1119 1403 
Q 1119 906 1312 657 
Q 1506 409 1894 409 
Q 2359 409 2629 706 
Q 2900 1003 2900 1516 
L 2900 3500 
L 3475 3500 
L 3475 0 
L 2900 0 
L 2900 538 
Q 2691 219 2414 64 
Q 2138 -91 1772 -91 
Q 1169 -91 856 284 
Q 544 659 544 1381 
z
M 1991 3584 
L 1991 3584 
z
" transform="scale(0.015625)"/>
       <path id="DejaVuSans-6e" d="M 3513 2113 
L 3513 0 
L 2938 0 
L 2938 2094 
Q 2938 2591 2744 2837 
Q 2550 3084 2163 3084 
Q 1697 3084 1428 2787 
Q 1159 2491 1159 1978 
L 1159 0 
L 581 0 
L 581 3500 
L 1159 3500 
L 1159 2956 
Q 1366 3272 1645 3428 
Q 1925 3584 2291 3584 
Q 2894 3584 3203 3211 
Q 3513 2838 3513 2113 
z
" transform="scale(0.015625)"/>
       <path id="DejaVuSans-74" d="M 1172 4494 
L 1172 3500 
L 2356 3500 
L 2356 3053 
L 1172 3053 
L 1172 1153 
Q 1172 725 1289 603 
Q 1406 481 1766 481 
L 2356 481 
L 2356 0 
L 1766 0 
Q 1100 0 847 248 
Q 594 497 594 1153 
L 594 3053 
L 172 3053 
L 172 3500 
L 594 3500 
L 594 4494 
L 1172 4494 
z
" transform="scale(0.015625)"/>
      </defs>
      <use xlink:href="#DejaVuSans-43"/>
      <use xlink:href="#DejaVuSans-6f" x="69.824219"/>
      <use xlink:href="#DejaVuSans-75" x="131.005859"/>
      <use xlink:href="#DejaVuSans-6e" x="194.384766"/>
      <use xlink:href="#DejaVuSans-74" x="257.763672"/>
     </g>
    </g>
    <g id="text_14">
     <!-- 1e6 -->
     <g transform="translate(32.968125 32.2559) scale(0.1 -0.1)">
      <defs>
       <path id="DejaVuSans-65" d="M 3597 1894 
L 3597 1613 
L 953 1613 
Q 991 1019 1311 708 
Q 1631 397 2203 397 
Q 2534 397 2845 478 
Q 3156 559 3463 722 
L 3463 178 
Q 3153 47 2828 -22 
Q 2503 -91 2169 -91 
Q 1331 -91 842 396 
Q 353 884 353 1716 
Q 353 2575 817 3079 
Q 1281 3584 2069 3584 
Q 2775 3584 3186 3129 
Q 3597 2675 3597 1894 
z
M 3022 2063 
Q 3016 2534 2758 2815 
Q 2500 3097 2075 3097 
Q 1594 3097 1305 2825 
Q 1016 2553 972 2059 
L 3022 2063 
z
" transform="scale(0.015625)"/>
      </defs>
      <use xlink:href="#DejaVuSans-31"/>
      <use xlink:href="#DejaVuSans-65" x="63.623047"/>
      <use xlink:href="#DejaVuSans-36" x="125.146484"/>
     </g>
    </g>
   </g>
   <g id="line2d_6">
    <path d="M 32.968125 50.397231 
L 42.493075 201.809231 
L 52.018025 353.222337 
L 61.542975 353.223549 
L 71.067925 353.223619 
L 80.592875 353.223514 
L 90.117825 353.22318 
L 99.642775 353.223163 
L 109.167725 353.223022 
L 118.692675 353.222285 
L 128.217625 353.221898 
L 137.742575 353.22153 
L 147.267525 353.220704 
L 156.792475 353.219019 
L 166.317425 353.215033 
L 175.842375 353.208642 
L 185.367325 353.194173 
L 194.892275 353.170434 
L 204.417225 353.132279 
L 213.942175 353.055548 
L 223.467125 352.926353 
L 232.992075 352.724815 
L 242.517025 352.44149 
L 252.041975 352.083471 
L 261.566925 351.605141 
L 271.091875 350.941603 
L 280.616825 350.062937 
L 290.141775 348.893326 
L 299.666725 347.423727 
L 309.191675 345.623429 
L 318.716625 343.282258 
L 328.241575 340.34601 
L 337.766525 336.820934 
L 347.291475 332.480966 
L 356.816425 327.311813 
L 366.341375 321.461316 
L 375.866325 314.801967 
L 385.391275 307.682162 
L 394.916225 300.961358 
L 404.441175 294.899949 
L 413.966125 289.24279 
L 423.491075 284.276648 
L 433.016025 279.789311 
L 442.540975 276.116235 
L 452.065925 274.036107 
L 461.590875 272.100451 
L 471.115825 270.400623 
L 480.640775 270.115139 
L 490.165725 270.188534 
L 499.690675 269.447632 
L 509.215625 266.927188 
L 518.740575 262.007542 
L 528.265525 257.317719 
L 537.790475 257.585382 
L 547.315425 262.670255 
L 556.840375 269.138777 
L 566.365325 274.175153 
L 575.890275 277.596352 
L 585.415225 280.605117 
L 594.940175 283.430132 
L 604.465125 286.688563 
L 613.990075 290.659573 
L 623.515025 295.1267 
L 633.039975 299.90356 
L 642.564925 304.974684 
L 652.089875 310.253368 
L 661.614825 315.695452 
L 671.139775 320.858215 
L 680.664725 325.654407 
L 690.189675 330.199213 
L 699.714625 334.301842 
L 709.239575 337.774962 
L 718.764525 340.594586 
L 728.289475 342.998582 
L 737.814425 344.862792 
L 747.339375 346.162407 
L 756.864325 347.281801 
L 766.389275 348.275826 
L 775.914225 349.105784 
L 785.439175 349.803456 
L 794.964125 350.389719 
L 804.489075 350.887944 
L 814.014025 351.324766 
L 823.538975 351.733669 
L 833.063925 352.118571 
L 842.588875 352.405372 
L 852.113825 352.617445 
L 861.638775 352.812169 
L 871.163725 352.966825 
L 880.688675 353.06647 
L 890.213625 353.131735 
L 899.738575 353.178546 
L 909.263525 353.208361 
L 918.788475 353.218562 
L 928.313425 353.221775 
L 937.838375 353.222355 
L 947.363325 353.221143 
L 956.888275 353.217509 
L 966.413225 353.202584 
L 975.938175 353.205973 
L 985.463125 353.222671 
" clip-path="url(#p1c4ec52ee9)" style="fill: none; stroke: #d9534f; stroke-linecap: square"/>
   </g>
   <g id="line2d_7">
    <path d="M 32.968125 93.300601 
L 42.493075 223.257615 
L 52.018025 353.218387 
L 61.542975 353.222232 
L 71.067925 353.222214 
L 80.592875 353.222109 
L 90.117825 353.222074 
L 99.642775 353.221547 
L 109.167725 353.221003 
L 118.692675 353.220195 
L 128.217625 353.219545 
L 137.742575 353.219124 
L 147.267525 353.217158 
L 156.792475 353.211469 
L 166.317425 353.204831 
L 175.842375 353.198054 
L 185.367325 353.184393 
L 194.892275 353.163639 
L 204.417225 353.129452 
L 213.942175 353.065469 
L 223.467125 352.963471 
L 232.992075 352.812749 
L 242.517025 352.604153 
L 252.041975 352.343233 
L 261.566925 352.006512 
L 271.091875 351.538559 
L 280.616825 350.893299 
L 290.141775 350.058863 
L 299.666725 349.0933 
L 309.191675 347.991641 
L 318.716625 346.674292 
L 328.241575 345.140095 
L 337.766525 343.332124 
L 347.291475 341.029529 
L 356.816425 338.21886 
L 366.341375 334.82198 
L 375.866325 330.319209 
L 385.391275 324.600331 
L 394.916225 317.888307 
L 404.441175 310.451131 
L 413.966125 302.238094 
L 423.491075 293.16072 
L 433.016025 284.099886 
L 442.540975 275.960701 
L 452.065925 269.828126 
L 461.590875 264.516889 
L 471.115825 259.821887 
L 480.640775 257.591422 
L 490.165725 256.584298 
L 499.690675 255.520196 
L 509.215625 254.017675 
L 518.740575 252.732159 
L 528.265525 252.656306 
L 537.790475 253.863317 
L 547.315425 255.817709 
L 556.840375 258.401188 
L 566.365325 261.70039 
L 575.890275 264.704467 
L 585.415225 267.108182 
L 594.940175 269.784212 
L 604.465125 273.155053 
L 613.990075 277.532438 
L 623.515025 282.439373 
L 633.039975 287.930129 
L 642.564925 294.231547 
L 652.089875 300.741543 
L 661.614825 307.419557 
L 671.139775 313.621733 
L 680.664725 319.43634 
L 690.189675 324.969237 
L 699.714625 329.886214 
L 709.239575 334.124009 
L 718.764525 337.697897 
L 728.289475 340.6654 
L 737.814425 342.762296 
L 747.339375 344.328415 
L 756.864325 345.870566 
L 766.389275 347.111676 
L 775.914225 348.047407 
L 785.439175 348.908707 
L 794.964125 349.637739 
L 804.489075 350.287037 
L 814.014025 350.850105 
L 823.538975 351.329138 
L 833.063925 351.750824 
L 842.588875 352.076255 
L 852.113825 352.337175 
L 861.638775 352.563277 
L 871.163725 352.752084 
L 880.688675 352.886758 
L 890.213625 352.985472 
L 899.738575 353.089173 
L 909.263525 353.175035 
L 918.788475 353.206816 
L 928.313425 353.213628 
L 937.838375 353.2098 
L 947.363325 353.184323 
L 956.888275 353.0874 
L 966.413225 352.724148 
L 975.938175 352.781126 
L 985.463125 353.173788 
" clip-path="url(#p1c4ec52ee9)" style="fill: none; stroke: #d9534f; stroke-linecap: square"/>
   </g>
   <g id="line2d_8">
    <path d="M 32.968125 246.033075 
L 42.493075 299.627978 
L 52.018025 353.223303 
L 61.542975 353.223689 
L 71.067925 353.223672 
L 80.592875 353.223707 
L 90.117825 353.223672 
L 99.642775 353.223531 
L 109.167725 353.223373 
L 118.692675 353.22325 
L 128.217625 353.222811 
L 137.742575 353.222127 
L 147.267525 353.221477 
L 156.792475 353.219493 
L 166.317425 353.215595 
L 175.842375 353.208677 
L 185.367325 353.194437 
L 194.892275 353.172489 
L 204.417225 353.137231 
L 213.942175 353.068191 
L 223.467125 352.95564 
L 232.992075 352.789835 
L 242.517025 352.541504 
L 252.041975 352.243746 
L 261.566925 351.887096 
L 271.091875 351.375475 
L 280.616825 350.642879 
L 290.141775 349.683725 
L 299.666725 348.580309 
L 309.191675 347.324749 
L 318.716625 345.749008 
L 328.241575 343.932522 
L 337.766525 341.835169 
L 347.291475 339.082548 
L 356.816425 335.537895 
L 366.341375 331.140914 
L 375.866325 325.41482 
L 385.391275 318.064314 
L 394.916225 309.521615 
L 404.441175 300.091841 
L 413.966125 289.940462 
L 423.491075 279.570935 
L 433.016025 269.324757 
L 442.540975 260.033871 
L 452.065925 252.79221 
L 461.590875 246.422823 
L 471.115825 240.84171 
L 480.640775 237.610881 
L 490.165725 235.915813 
L 499.690675 234.67465 
L 509.215625 232.60662 
L 518.740575 230.869727 
L 528.265525 231.167608 
L 537.790475 232.060408 
L 547.315425 232.956369 
L 556.840375 234.759493 
L 566.365325 237.769295 
L 575.890275 241.471729 
L 585.415225 245.042035 
L 594.940175 248.494874 
L 604.465125 252.654603 
L 613.990075 257.981257 
L 623.515025 264.635848 
L 633.039975 272.408832 
L 642.564925 280.61423 
L 652.089875 288.992001 
L 661.614825 297.480987 
L 671.139775 305.169655 
L 680.664725 312.119774 
L 690.189675 318.726026 
L 699.714625 324.751932 
L 709.239575 329.77089 
L 718.764525 333.882245 
L 728.289475 337.565453 
L 737.814425 340.38376 
L 747.339375 342.360785 
L 756.864325 344.159712 
L 766.389275 345.679634 
L 775.914225 346.859921 
L 785.439175 347.882479 
L 794.964125 348.804532 
L 804.489075 349.624306 
L 814.014025 350.280681 
L 823.538975 350.88473 
L 833.063925 351.43189 
L 842.588875 351.81026 
L 852.113825 352.119765 
L 861.638775 352.418594 
L 871.163725 352.666855 
L 880.688675 352.858963 
L 890.213625 353.00656 
L 899.738575 353.116845 
L 909.263525 353.189029 
L 918.788475 353.213418 
L 928.313425 353.219194 
L 937.838375 353.218053 
L 947.363325 353.207079 
L 956.888275 353.174789 
L 966.413225 353.063239 
L 975.938175 353.092983 
L 985.463125 353.21714 
" clip-path="url(#p1c4ec52ee9)" style="fill: none; stroke: #d9534f; stroke-linecap: square"/>
   </g>
   <g id="line2d_9">
    <path d="M 32.968125 314.070583 
L 42.493075 333.646908 
L 52.018025 353.223479 
L 61.542975 353.223707 
L 71.067925 353.223707 
L 80.592875 353.223689 
L 90.117825 353.223584 
L 99.642775 353.223285 
L 109.167725 353.223127 
L 118.692675 353.223145 
L 128.217625 353.222794 
L 137.742575 353.222109 
L 147.267525 353.221407 
L 156.792475 353.219071 
L 166.317425 353.214629 
L 175.842375 353.207413 
L 185.367325 353.194437 
L 194.892275 353.171084 
L 204.417225 353.13105 
L 213.942175 353.055039 
L 223.467125 352.943981 
L 232.992075 352.777228 
L 242.517025 352.525754 
L 252.041975 352.205731 
L 261.566925 351.811665 
L 271.091875 351.271405 
L 280.616825 350.505887 
L 290.141775 349.509754 
L 299.666725 348.365357 
L 309.191675 347.03635 
L 318.716625 345.339753 
L 328.241575 343.294461 
L 337.766525 340.839405 
L 347.291475 337.597602 
L 356.816425 333.333224 
L 366.341375 327.80333 
L 375.866325 320.54713 
L 385.391275 311.345529 
L 394.916225 300.802682 
L 404.441175 289.347895 
L 413.966125 277.331902 
L 423.491075 265.581833 
L 433.016025 254.442697 
L 442.540975 244.863131 
L 452.065925 237.745327 
L 461.590875 231.765144 
L 471.115825 227.004613 
L 480.640775 224.815077 
L 490.165725 223.908932 
L 499.690675 223.076411 
L 509.215625 221.724471 
L 518.740575 220.736591 
L 528.265525 221.660067 
L 537.790475 223.341334 
L 547.315425 224.783296 
L 556.840375 227.386828 
L 566.365325 231.464822 
L 575.890275 235.642496 
L 585.415225 239.276504 
L 594.940175 242.987753 
L 604.465125 247.577193 
L 613.990075 253.240936 
L 623.515025 260.169423 
L 633.039975 268.221219 
L 642.564925 276.603415 
L 652.089875 285.237488 
L 661.614825 294.107618 
L 671.139775 302.22561 
L 680.664725 309.527287 
L 690.189675 316.324962 
L 699.714625 322.531019 
L 709.239575 327.83037 
L 718.764525 332.185473 
L 728.289475 335.932682 
L 737.814425 338.812655 
L 747.339375 340.897103 
L 756.864325 342.797993 
L 766.389275 344.467251 
L 775.914225 345.824492 
L 785.439175 347.001548 
L 794.964125 348.040787 
L 804.489075 348.995464 
L 814.014025 349.805967 
L 823.538975 350.504201 
L 833.063925 351.122403 
L 842.588875 351.584211 
L 852.113825 351.954152 
L 861.638775 352.313734 
L 871.163725 352.611089 
L 880.688675 352.814557 
L 890.213625 352.964542 
L 899.738575 353.090402 
L 909.263525 353.178037 
L 918.788475 353.21052 
L 928.313425 353.219194 
L 937.838375 353.219124 
L 947.363325 353.213189 
L 956.888275 353.194683 
L 966.413225 353.122482 
L 975.938175 353.13774 
L 985.463125 353.217438 
" clip-path="url(#p1c4ec52ee9)" style="fill: none; stroke: #f0ad4e; stroke-linecap: square"/>
   </g>
   <g id="line2d_10">
    <path d="M 32.968125 320.278238 
L 42.493075 336.750946 
L 52.018025 353.223724 
L 61.542975 353.223795 
L 71.067925 353.223812 
L 80.592875 353.22383 
L 90.117825 353.22383 
L 99.642775 353.223812 
L 109.167725 353.223707 
L 118.692675 353.223531 
L 128.217625 353.223356 
L 137.742575 353.223285 
L 147.267525 353.222899 
L 156.792475 353.221512 
L 166.317425 353.219862 
L 175.842375 353.216947 
L 185.367325 353.210415 
L 194.892275 353.200828 
L 204.417225 353.184341 
L 213.942175 353.147029 
L 223.467125 353.087663 
L 232.992075 353.000801 
L 242.517025 352.865898 
L 252.041975 352.684079 
L 261.566925 352.451148 
L 271.091875 352.104155 
L 280.616825 351.563141 
L 290.141775 350.783821 
L 299.666725 349.790551 
L 309.191675 348.560345 
L 318.716625 346.98845 
L 328.241575 345.150946 
L 337.766525 343.058931 
L 347.291475 340.520805 
L 356.816425 337.519133 
L 366.341375 334.149557 
L 375.866325 330.404649 
L 385.391275 326.383298 
L 394.916225 322.43536 
L 404.441175 318.627083 
L 413.966125 314.904176 
L 423.491075 311.4073 
L 433.016025 308.149027 
L 442.540975 305.30979 
L 452.065925 303.22018 
L 461.590875 301.247616 
L 471.115825 299.412166 
L 480.640775 298.523966 
L 490.165725 298.143999 
L 499.690675 297.694183 
L 509.215625 296.793271 
L 518.740575 296.170908 
L 528.265525 296.598073 
L 537.790475 297.238574 
L 547.315425 297.80921 
L 556.840375 298.930886 
L 566.365325 300.545905 
L 575.890275 302.334737 
L 585.415225 303.953513 
L 594.940175 305.496226 
L 604.465125 307.467772 
L 613.990075 309.917772 
L 623.515025 312.854652 
L 633.039975 316.312952 
L 642.564925 320.041127 
L 652.089875 323.875075 
L 661.614825 327.724773 
L 671.139775 331.208076 
L 680.664725 334.371339 
L 690.189675 337.36611 
L 699.714625 340.098978 
L 709.239575 342.404225 
L 718.764525 344.30529 
L 728.289475 345.94145 
L 737.814425 347.182489 
L 747.339375 348.094446 
L 756.864325 348.924545 
L 766.389275 349.629802 
L 775.914225 350.183828 
L 785.439175 350.660859 
L 794.964125 351.103475 
L 804.489075 351.504548 
L 814.014025 351.831436 
L 823.538975 352.129703 
L 833.063925 352.387375 
L 842.588875 352.570493 
L 852.113825 352.720092 
L 861.638775 352.866882 
L 871.163725 352.984366 
L 880.688675 353.064556 
L 890.213625 353.122131 
L 899.738575 353.170522 
L 909.263525 353.206956 
L 918.788475 353.218755 
L 928.313425 353.221933 
L 937.838375 353.222337 
L 947.363325 353.219932 
L 956.888275 353.212294 
L 966.413225 353.184147 
L 975.938175 353.189626 
L 985.463125 353.220687 
" clip-path="url(#p1c4ec52ee9)" style="fill: none; stroke: #f0ad4e; stroke-linecap: square"/>
   </g>
   <g id="line2d_11">
    <path d="M 32.968125 251.906029 
L 42.493075 302.564789 
L 52.018025 353.223654 
L 61.542975 353.22376 
L 71.067925 353.223795 
L 80.592875 353.223847 
L 90.117825 353.223707 
L 99.642775 353.223584 
L 109.167725 353.223514 
L 118.692675 353.223408 
L 128.217625 353.223215 
L 137.742575 353.222794 
L 147.267525 353.222249 
L 156.792475 353.2203 
L 166.317425 353.217755 
L 175.842375 353.214418 
L 185.367325 353.20606 
L 194.892275 353.190346 
L 204.417225 353.161936 
L 213.942175 353.11458 
L 223.467125 353.041712 
L 232.992075 352.928951 
L 242.517025 352.754261 
L 252.041975 352.519134 
L 261.566925 352.237442 
L 271.091875 351.859073 
L 280.616825 351.299446 
L 290.141775 350.525465 
L 299.666725 349.586169 
L 309.191675 348.462579 
L 318.716625 347.018615 
L 328.241575 345.242005 
L 337.766525 343.074856 
L 347.291475 340.206437 
L 356.816425 336.445251 
L 366.341375 331.762821 
L 375.866325 325.969706 
L 385.391275 319.040219 
L 394.916225 311.299332 
L 404.441175 303.09123 
L 413.966125 294.636465 
L 423.491075 286.327927 
L 433.016025 278.051838 
L 442.540975 270.115613 
L 452.065925 263.876581 
L 461.590875 258.315098 
L 471.115825 253.11074 
L 480.640775 249.846409 
L 490.165725 248.038053 
L 499.690675 246.768077 
L 509.215625 244.87119 
L 518.740575 243.24532 
L 528.265525 243.539215 
L 537.790475 244.563915 
L 547.315425 245.517889 
L 556.840375 247.481516 
L 566.365325 250.537532 
L 575.890275 253.975253 
L 585.415225 257.117885 
L 594.940175 260.192864 
L 604.465125 264.06602 
L 613.990075 268.892641 
L 623.515025 274.888874 
L 633.039975 281.745528 
L 642.564925 289.020937 
L 652.089875 296.564922 
L 661.614825 304.035565 
L 671.139775 310.743709 
L 680.664725 316.830754 
L 690.189675 322.59416 
L 699.714625 327.840747 
L 709.239575 332.251125 
L 718.764525 335.800097 
L 728.289475 338.936987 
L 737.814425 341.426283 
L 747.339375 343.150165 
L 756.864325 344.726116 
L 766.389275 346.097212 
L 775.914225 347.15782 
L 785.439175 348.103419 
L 794.964125 348.947037 
L 804.489075 349.760438 
L 814.014025 350.460322 
L 823.538975 351.053679 
L 833.063925 351.578224 
L 842.588875 351.941352 
L 852.113825 352.221306 
L 861.638775 352.477591 
L 871.163725 352.708468 
L 880.688675 352.901472 
L 890.213625 353.0477 
L 899.738575 353.144167 
L 909.263525 353.196333 
L 918.788475 353.214892 
L 928.313425 353.219423 
L 937.838375 353.219317 
L 947.363325 353.212838 
L 956.888275 353.18931 
L 966.413225 353.109225 
L 975.938175 353.128048 
L 985.463125 353.216385 
" clip-path="url(#p1c4ec52ee9)" style="fill: none; stroke: #d9534f; stroke-linecap: square"/>
   </g>
   <g id="line2d_12">
    <path d="M 32.968125 233.096592 
L 42.493075 293.159825 
L 52.018025 353.223408 
L 61.542975 353.223724 
L 71.067925 353.223689 
L 80.592875 353.223724 
L 90.117825 353.223707 
L 99.642775 353.223426 
L 109.167725 353.22318 
L 118.692675 353.223022 
L 128.217625 353.222706 
L 137.742575 353.222583 
L 147.267525 353.222162 
L 156.792475 353.220055 
L 166.317425 353.217052 
L 175.842375 353.212329 
L 185.367325 353.202531 
L 194.892275 353.190152 
L 204.417225 353.170469 
L 213.942175 353.12717 
L 223.467125 353.061799 
L 232.992075 352.967194 
L 242.517025 352.820422 
L 252.041975 352.634915 
L 261.566925 352.415012 
L 271.091875 352.131406 
L 280.616825 351.696972 
L 290.141775 351.117013 
L 299.666725 350.459199 
L 309.191675 349.684971 
L 318.716625 348.715001 
L 328.241575 347.567566 
L 337.766525 346.205882 
L 347.291475 344.397701 
L 356.816425 341.957359 
L 366.341375 338.826298 
L 375.866325 334.669571 
L 385.391275 329.224063 
L 394.916225 322.579639 
L 404.441175 314.732365 
L 413.966125 305.595503 
L 423.491075 295.584065 
L 433.016025 285.235627 
L 442.540975 275.214778 
L 452.065925 266.69919 
L 461.590875 258.846034 
L 471.115825 251.757958 
L 480.640775 247.079478 
L 490.165725 244.150639 
L 499.690675 241.91654 
L 509.215625 239.210871 
L 518.740575 236.530064 
L 528.265525 235.074476 
L 537.790475 234.516711 
L 547.315425 234.542908 
L 556.840375 236.018811 
L 566.365325 238.977745 
L 575.890275 242.303777 
L 585.415225 245.556992 
L 594.940175 248.868643 
L 604.465125 252.863515 
L 613.990075 258.077549 
L 623.515025 264.509865 
L 633.039975 272.030339 
L 642.564925 280.286008 
L 652.089875 288.80142 
L 661.614825 297.247195 
L 671.139775 304.845541 
L 680.664725 311.719035 
L 690.189675 318.263129 
L 699.714625 324.330035 
L 709.239575 329.442369 
L 718.764525 333.547403 
L 728.289475 337.047949 
L 737.814425 339.677344 
L 747.339375 341.570649 
L 756.864325 343.398671 
L 766.389275 344.94091 
L 775.914225 346.095579 
L 785.439175 347.198626 
L 794.964125 348.192283 
L 804.489075 349.090473 
L 814.014025 349.865807 
L 823.538975 350.556736 
L 833.063925 351.17032 
L 842.588875 351.588864 
L 852.113825 351.877386 
L 861.638775 352.140431 
L 871.163725 352.413976 
L 880.688675 352.664186 
L 890.213625 352.878628 
L 899.738575 353.054811 
L 909.263525 353.17003 
L 918.788475 353.208712 
L 928.313425 353.217245 
L 937.838375 353.216736 
L 947.363325 353.207132 
L 956.888275 353.173279 
L 966.413225 353.048033 
L 975.938175 353.073248 
L 985.463125 353.21052 
" clip-path="url(#p1c4ec52ee9)" style="fill: none; stroke: #d9534f; stroke-linecap: square"/>
   </g>
   <g id="line2d_13">
    <path d="M 32.968125 300.436498 
L 42.493075 326.830129 
L 52.018025 353.223777 
L 61.542975 353.223812 
L 71.067925 353.223777 
L 80.592875 353.223637 
L 90.117825 353.223549 
L 99.642775 353.223338 
L 109.167725 353.223022 
L 118.692675 353.222846 
L 128.217625 353.222513 
L 137.742575 353.222179 
L 147.267525 353.221389 
L 156.792475 353.219159 
L 166.317425 353.215367 
L 175.842375 353.21038 
L 185.367325 353.200758 
L 194.892275 353.183972 
L 204.417225 353.152893 
L 213.942175 353.097917 
L 223.467125 353.00944 
L 232.992075 352.874502 
L 242.517025 352.675511 
L 252.041975 352.40474 
L 261.566925 352.067177 
L 271.091875 351.61464 
L 280.616825 350.953788 
L 290.141775 350.081356 
L 299.666725 349.070773 
L 309.191675 347.884411 
L 318.716625 346.35506 
L 328.241575 344.43949 
L 337.766525 342.013476 
L 347.291475 338.748566 
L 356.816425 334.340454 
L 366.341375 328.523758 
L 375.866325 320.918599 
L 385.391275 311.381085 
L 394.916225 300.534826 
L 404.441175 288.952283 
L 413.966125 277.135264 
L 423.491075 265.820015 
L 433.016025 255.353109 
L 442.540975 246.506331 
L 452.065925 240.142071 
L 461.590875 234.881192 
L 471.115825 230.586981 
L 480.640775 228.656839 
L 490.165725 227.976409 
L 499.690675 227.47218 
L 509.215625 226.429903 
L 518.740575 225.753986 
L 528.265525 226.823285 
L 537.790475 228.631115 
L 547.315425 230.284992 
L 556.840375 233.09524 
L 566.365325 237.37054 
L 575.890275 241.76227 
L 585.415225 245.640624 
L 594.940175 249.333243 
L 604.465125 254.03583 
L 613.990075 259.855388 
L 623.515025 266.445732 
L 633.039975 274.030225 
L 642.564925 282.110869 
L 652.089875 290.345731 
L 661.614825 298.714038 
L 671.139775 306.191001 
L 680.664725 312.835426 
L 690.189675 319.133929 
L 699.714625 324.882796 
L 709.239575 329.756597 
L 718.764525 333.731294 
L 728.289475 337.223675 
L 737.814425 339.934841 
L 747.339375 341.839822 
L 756.864325 343.553836 
L 766.389275 345.051231 
L 775.914225 346.283034 
L 785.439175 347.367785 
L 794.964125 348.315965 
L 804.489075 349.214858 
L 814.014025 350.018373 
L 823.538975 350.725597 
L 833.063925 351.323343 
L 842.588875 351.736356 
L 852.113825 352.063735 
L 861.638775 352.374838 
L 871.163725 352.642343 
L 880.688675 352.840403 
L 890.213625 352.987527 
L 899.738575 353.10236 
L 909.263525 353.1796 
L 918.788475 353.21045 
L 928.313425 353.218387 
L 937.838375 353.219036 
L 947.363325 353.212136 
L 956.888275 353.190662 
L 966.413225 353.117197 
L 975.938175 353.136248 
L 985.463125 353.218773 
" clip-path="url(#p1c4ec52ee9)" style="fill: none; stroke: #f0ad4e; stroke-linecap: square"/>
   </g>
   <g id="line2d_14">
    <path d="M 32.968125 255.793425 
L 42.493075 304.499392 
L 52.018025 353.213418 
L 61.542975 353.221512 
L 71.067925 353.221477 
L 80.592875 353.22153 
L 90.117825 353.22174 
L 99.642775 353.221336 
L 109.167725 353.220792 
L 118.692675 353.220441 
L 128.217625 353.219563 
L 137.742575 353.218966 
L 147.267525 353.217965 
L 156.792475 353.215226 
L 166.317425 353.211012 
L 175.842375 353.206464 
L 185.367325 353.200126 
L 194.892275 353.189643 
L 204.417225 353.168274 
L 213.942175 353.131981 
L 223.467125 353.071193 
L 232.992075 352.972374 
L 242.517025 352.83784 
L 252.041975 352.673457 
L 261.566925 352.456362 
L 271.091875 352.154706 
L 280.616825 351.729333 
L 290.141775 351.149759 
L 299.666725 350.398446 
L 309.191675 349.477341 
L 318.716625 348.35031 
L 328.241575 346.987993 
L 337.766525 345.340842 
L 347.291475 343.328139 
L 356.816425 340.88813 
L 366.341375 338.021923 
L 375.866325 334.661459 
L 385.391275 330.814922 
L 394.916225 326.867792 
L 404.441175 323.026382 
L 413.966125 319.206463 
L 423.491075 315.458008 
L 433.016025 311.888071 
L 442.540975 308.843855 
L 452.065925 306.74069 
L 461.590875 304.77859 
L 471.115825 302.854892 
L 480.640775 301.844379 
L 490.165725 301.080002 
L 499.690675 299.946702 
L 509.215625 298.103368 
L 518.740575 295.200867 
L 528.265525 292.234102 
L 537.790475 291.052252 
L 547.315425 292.352763 
L 556.840375 295.352363 
L 566.365325 298.228087 
L 575.890275 300.318627 
L 585.415225 302.234091 
L 594.940175 304.22669 
L 604.465125 306.387833 
L 613.990075 309.033505 
L 623.515025 311.972966 
L 633.039975 315.153191 
L 642.564925 318.826127 
L 652.089875 322.720388 
L 661.614825 326.673945 
L 671.139775 330.186238 
L 680.664725 333.445336 
L 690.189675 336.620855 
L 699.714625 339.475631 
L 709.239575 341.904894 
L 718.764525 343.930029 
L 728.289475 345.628047 
L 737.814425 346.874635 
L 747.339375 347.77941 
L 756.864325 348.650245 
L 766.389275 349.385966 
L 775.914225 349.933688 
L 785.439175 350.418515 
L 794.964125 350.869016 
L 804.489075 351.293213 
L 814.014025 351.637045 
L 823.538975 351.946233 
L 833.063925 352.234528 
L 842.588875 352.454888 
L 852.113825 352.630737 
L 861.638775 352.790572 
L 871.163725 352.920172 
L 880.688675 353.013601 
L 890.213625 353.084151 
L 899.738575 353.150382 
L 909.263525 353.200969 
L 918.788475 353.21628 
L 928.313425 353.220002 
L 937.838375 353.2193 
L 947.363325 353.210608 
L 956.888275 353.182111 
L 966.413225 353.064784 
L 975.938175 353.083642 
L 985.463125 353.211012 
" clip-path="url(#p1c4ec52ee9)" style="fill: none; stroke: #d9534f; stroke-linecap: square"/>
   </g>
   <g id="line2d_15">
    <path d="M 32.968125 241.618852 
L 42.493075 297.417566 
L 52.018025 353.2193 
L 61.542975 353.222408 
L 71.067925 353.222478 
L 80.592875 353.222653 
L 90.117825 353.22246 
L 99.642775 353.221811 
L 109.167725 353.221582 
L 118.692675 353.221108 
L 128.217625 353.2203 
L 137.742575 353.219984 
L 147.267525 353.218597 
L 156.792475 353.214664 
L 166.317425 353.208554 
L 175.842375 353.199055 
L 185.367325 353.179723 
L 194.892275 353.14896 
L 204.417225 353.097707 
L 213.942175 353.002627 
L 223.467125 352.848041 
L 232.992075 352.613512 
L 242.517025 352.263253 
L 252.041975 351.818548 
L 261.566925 351.253724 
L 271.091875 350.478917 
L 280.616825 349.459484 
L 290.141775 348.206101 
L 299.666725 346.743666 
L 309.191675 345.050809 
L 318.716625 343.080703 
L 328.241575 340.914521 
L 337.766525 338.62362 
L 347.291475 335.98685 
L 356.816425 332.849187 
L 366.341375 329.194495 
L 375.866325 324.696447 
L 385.391275 319.208289 
L 394.916225 312.958142 
L 404.441175 305.924954 
L 413.966125 297.861675 
L 423.491075 288.984784 
L 433.016025 279.638167 
L 442.540975 270.433581 
L 452.065925 262.608203 
L 461.590875 255.258538 
L 471.115825 248.566179 
L 480.640775 244.298974 
L 490.165725 241.43145 
L 499.690675 238.707414 
L 509.215625 235.636631 
L 518.740575 232.20618 
L 528.265525 229.61889 
L 537.790475 228.874969 
L 547.315425 229.612183 
L 556.840375 232.033315 
L 566.365325 235.629573 
L 575.890275 239.197719 
L 585.415225 242.340614 
L 594.940175 245.460929 
L 604.465125 249.508038 
L 613.990075 254.954828 
L 623.515025 261.242146 
L 633.039975 268.404952 
L 642.564925 276.454922 
L 652.089875 284.828215 
L 661.614825 293.257064 
L 671.139775 300.991664 
L 680.664725 308.312287 
L 690.189675 315.314274 
L 699.714625 321.675022 
L 709.239575 327.136578 
L 718.764525 331.694325 
L 728.289475 335.585689 
L 737.814425 338.492791 
L 747.339375 340.598695 
L 756.864325 342.498602 
L 766.389275 344.128405 
L 775.914225 345.432111 
L 785.439175 346.605515 
L 794.964125 347.647124 
L 804.489075 348.599343 
L 814.014025 349.436201 
L 823.538975 350.185074 
L 833.063925 350.862133 
L 842.588875 351.342869 
L 852.113825 351.701888 
L 861.638775 352.037819 
L 871.163725 352.34685 
L 880.688675 352.59576 
L 890.213625 352.795629 
L 899.738575 352.98549 
L 909.263525 353.128785 
L 918.788475 353.188678 
L 928.313425 353.208203 
L 937.838375 353.209168 
L 947.363325 353.186992 
L 956.888275 353.108575 
L 966.413225 352.822283 
L 975.938175 352.888444 
L 985.463125 353.202321 
" clip-path="url(#p1c4ec52ee9)" style="fill: none; stroke: #d9534f; stroke-linecap: square"/>
   </g>
   <g id="line2d_16">
    <path d="M 32.968125 323.967854 
L 42.493075 338.592787 
L 52.018025 353.220459 
L 61.542975 353.223268 
L 71.067925 353.22325 
L 80.592875 353.223057 
L 90.117825 353.222934 
L 99.642775 353.222566 
L 109.167725 353.221969 
L 118.692675 353.22167 
L 128.217625 353.221389 
L 137.742575 353.220669 
L 147.267525 353.219405 
L 156.792475 353.217491 
L 166.317425 353.214015 
L 175.842375 353.207044 
L 185.367325 353.194419 
L 194.892275 353.173595 
L 204.417225 353.139426 
L 213.942175 353.075653 
L 223.467125 352.966491 
L 232.992075 352.796349 
L 242.517025 352.551618 
L 252.041975 352.232456 
L 261.566925 351.82752 
L 271.091875 351.281888 
L 280.616825 350.567869 
L 290.141775 349.674735 
L 299.666725 348.590809 
L 309.191675 347.33618 
L 318.716625 345.856151 
L 328.241575 344.157043 
L 337.766525 342.240122 
L 347.291475 339.845748 
L 356.816425 336.876402 
L 366.341375 333.212456 
L 375.866325 328.491748 
L 385.391275 322.652279 
L 394.916225 315.961412 
L 404.441175 308.720049 
L 413.966125 301.013542 
L 423.491075 293.1846 
L 433.016025 285.670061 
L 442.540975 279.120734 
L 452.065925 274.265808 
L 461.590875 270.150765 
L 471.115825 266.80038 
L 480.640775 265.303495 
L 490.165725 264.556957 
L 499.690675 263.648618 
L 509.215625 262.287478 
L 518.740575 260.7822 
L 528.265525 260.311788 
L 537.790475 260.975941 
L 547.315425 262.445382 
L 556.840375 265.031776 
L 566.365325 268.232386 
L 575.890275 271.176624 
L 585.415225 273.738717 
L 594.940175 276.260004 
L 604.465125 279.311542 
L 613.990075 283.287012 
L 623.515025 287.963666 
L 633.039975 293.280592 
L 642.564925 299.076095 
L 652.089875 305.006518 
L 661.614825 311.120094 
L 671.139775 316.829982 
L 680.664725 322.099272 
L 690.189675 327.128255 
L 699.714625 331.684861 
L 709.239575 335.584425 
L 718.764525 338.832022 
L 728.289475 341.536147 
L 737.814425 343.60135 
L 747.339375 345.22032 
L 756.864325 346.642897 
L 766.389275 347.811507 
L 775.914225 348.735334 
L 785.439175 349.537444 
L 794.964125 350.278381 
L 804.489075 350.937389 
L 814.014025 351.46843 
L 823.538975 351.91447 
L 833.063925 352.309029 
L 842.588875 352.6077 
L 852.113825 352.823214 
L 861.638775 352.986947 
L 871.163725 353.101569 
L 880.688675 353.164798 
L 890.213625 353.197299 
L 899.738575 353.212136 
L 909.263525 353.218843 
L 918.788475 353.221143 
L 928.313425 353.221758 
L 937.838375 353.22002 
L 947.363325 353.211943 
L 956.888275 353.189099 
L 966.413225 353.117372 
L 975.938175 353.13458 
L 985.463125 353.215279 
" clip-path="url(#p1c4ec52ee9)" style="fill: none; stroke: #f0ad4e; stroke-linecap: square"/>
   </g>
   <g id="line2d_17">
    <path d="M 32.968125 268.970671 
L 42.493075 311.090157 
L 52.018025 353.215331 
L 61.542975 353.221214 
L 71.067925 353.221459 
L 80.592875 353.22153 
L 90.117825 353.221442 
L 99.642775 353.221056 
L 109.167725 353.220511 
L 118.692675 353.219932 
L 128.217625 353.21951 
L 137.742575 353.219159 
L 147.267525 353.218 
L 156.792475 353.213277 
L 166.317425 353.205832 
L 175.842375 353.197597 
L 185.367325 353.183445 
L 194.892275 353.157546 
L 204.417225 353.115651 
L 213.942175 353.041502 
L 223.467125 352.919768 
L 232.992075 352.725957 
L 242.517025 352.448514 
L 252.041975 352.112566 
L 261.566925 351.681134 
L 271.091875 351.093572 
L 280.616825 350.298766 
L 290.141775 349.289026 
L 299.666725 348.112075 
L 309.191675 346.735413 
L 318.716625 345.09676 
L 328.241575 343.196485 
L 337.766525 340.977451 
L 347.291475 338.171943 
L 356.816425 334.545783 
L 366.341375 329.990741 
L 375.866325 324.129674 
L 385.391275 316.783451 
L 394.916225 308.41295 
L 404.441175 299.434869 
L 413.966125 289.99988 
L 423.491075 280.559149 
L 433.016025 271.597784 
L 442.540975 263.781536 
L 452.065925 258.106029 
L 461.590875 253.309871 
L 471.115825 249.139045 
L 480.640775 247.106852 
L 490.165725 246.16796 
L 499.690675 245.113042 
L 509.215625 243.391934 
L 518.740575 241.645243 
L 528.265525 241.166965 
L 537.790475 241.72171 
L 547.315425 242.80855 
L 556.840375 244.891224 
L 566.365325 247.725001 
L 575.890275 250.457869 
L 585.415225 252.907886 
L 594.940175 255.643405 
L 604.465125 259.314725 
L 613.990075 264.097151 
L 623.515025 269.691732 
L 633.039975 276.213228 
L 642.564925 283.561716 
L 652.089875 291.167928 
L 661.614825 298.809258 
L 671.139775 305.871365 
L 680.664725 312.503639 
L 690.189675 318.896642 
L 699.714625 324.679046 
L 709.239575 329.577271 
L 718.764525 333.705466 
L 728.289475 337.255491 
L 737.814425 339.879338 
L 747.339375 341.830323 
L 756.864325 343.695411 
L 766.389275 345.237861 
L 775.914225 346.414548 
L 785.439175 347.471749 
L 794.964125 348.432536 
L 804.489075 349.322404 
L 814.014025 350.087712 
L 823.538975 350.75952 
L 833.063925 351.354211 
L 842.588875 351.801077 
L 852.113825 352.158815 
L 861.638775 352.466476 
L 871.163725 352.732717 
L 880.688675 352.931989 
L 890.213625 353.065206 
L 899.738575 353.151892 
L 909.263525 353.198352 
L 918.788475 353.214664 
L 928.313425 353.218299 
L 937.838375 353.21649 
L 947.363325 353.204199 
L 956.888275 353.1586 
L 966.413225 352.991003 
L 975.938175 353.027455 
L 985.463125 353.209555 
" clip-path="url(#p1c4ec52ee9)" style="fill: none; stroke: #d9534f; stroke-linecap: square"/>
   </g>
   <g id="line2d_18">
    <path d="M 32.968125 185.00126 
L 42.493075 269.103133 
L 52.018025 353.212733 
L 61.542975 353.220915 
L 71.067925 353.221056 
L 80.592875 353.220704 
L 90.117825 353.221003 
L 99.642775 353.220897 
L 109.167725 353.220283 
L 118.692675 353.219756 
L 128.217625 353.218387 
L 137.742575 353.217263 
L 147.267525 353.216069 
L 156.792475 353.21254 
L 166.317425 353.205551 
L 175.842375 353.195806 
L 185.367325 353.178019 
L 194.892275 353.153666 
L 204.417225 353.118584 
L 213.942175 353.047981 
L 223.467125 352.92407 
L 232.992075 352.732032 
L 242.517025 352.463807 
L 252.041975 352.125717 
L 261.566925 351.702819 
L 271.091875 351.137539 
L 280.616825 350.34354 
L 290.141775 349.322246 
L 299.666725 348.130353 
L 309.191675 346.705845 
L 318.716625 344.946108 
L 328.241575 342.83757 
L 337.766525 340.263133 
L 347.291475 336.96639 
L 356.816425 332.683364 
L 366.341375 327.132557 
L 375.866325 320.040354 
L 385.391275 311.29633 
L 394.916225 301.415809 
L 404.441175 291.036134 
L 413.966125 280.321458 
L 423.491075 269.895358 
L 433.016025 260.22626 
L 442.540975 251.820291 
L 452.065925 245.893994 
L 461.590875 240.957684 
L 471.115825 236.533014 
L 480.640775 234.465739 
L 490.165725 233.62809 
L 499.690675 232.615733 
L 509.215625 230.982874 
L 518.740575 229.457948 
L 528.265525 229.431347 
L 537.790475 230.476275 
L 547.315425 231.783088 
L 556.840375 234.116306 
L 566.365325 237.532237 
L 575.890275 241.143489 
L 585.415225 244.393123 
L 594.940175 247.677891 
L 604.465125 251.901833 
L 613.990075 257.295789 
L 623.515025 263.647828 
L 633.039975 271.072923 
L 642.564925 279.339303 
L 652.089875 287.813909 
L 661.614825 296.209431 
L 671.139775 303.775873 
L 680.664725 310.753436 
L 690.189675 317.473099 
L 699.714625 323.547169 
L 709.239575 328.679959 
L 718.764525 332.970727 
L 728.289475 336.615025 
L 737.814425 339.319817 
L 747.339375 341.377277 
L 756.864325 343.312125 
L 766.389275 344.873696 
L 775.914225 346.103182 
L 785.439175 347.219678 
L 794.964125 348.217198 
L 804.489075 349.160831 
L 814.014025 349.970561 
L 823.538975 350.676749 
L 833.063925 351.309103 
L 842.588875 351.774792 
L 852.113825 352.142784 
L 861.638775 352.453957 
L 871.163725 352.720092 
L 880.688675 352.939258 
L 890.213625 353.087821 
L 899.738575 353.164183 
L 909.263525 353.199968 
L 918.788475 353.212943 
L 928.313425 353.216912 
L 937.838375 353.215612 
L 947.363325 353.200863 
L 956.888275 353.148697 
L 966.413225 352.956834 
L 975.938175 352.998957 
L 985.463125 353.20822 
" clip-path="url(#p1c4ec52ee9)" style="fill: none; stroke: #d9534f; stroke-linecap: square"/>
   </g>
   <g id="line2d_19">
    <path d="M 32.968125 327.124112 
L 42.493075 340.171179 
L 52.018025 353.220704 
L 61.542975 353.223145 
L 71.067925 353.223198 
L 80.592875 353.223321 
L 90.117825 353.223233 
L 99.642775 353.222917 
L 109.167725 353.222232 
L 118.692675 353.221635 
L 128.217625 353.221196 
L 137.742575 353.220634 
L 147.267525 353.219405 
L 156.792475 353.216771 
L 166.317425 353.211152 
L 175.842375 353.201021 
L 185.367325 353.183603 
L 194.892275 353.154807 
L 204.417225 353.104238 
L 213.942175 353.007561 
L 223.467125 352.848867 
L 232.992075 352.610579 
L 242.517025 352.264939 
L 252.041975 351.830119 
L 261.566925 351.282221 
L 271.091875 350.542602 
L 280.616825 349.531457 
L 290.141775 348.24171 
L 299.666725 346.697294 
L 309.191675 344.847271 
L 318.716625 342.488295 
L 328.241575 339.559667 
L 337.766525 335.928345 
L 347.291475 331.15008 
L 356.816425 325.205891 
L 366.341375 317.96358 
L 375.866325 308.753621 
L 385.391275 298.15924 
L 394.916225 287.392415 
L 404.441175 276.743181 
L 413.966125 266.224529 
L 423.491075 256.178976 
L 433.016025 247.098283 
L 442.540975 239.787669 
L 452.065925 235.36939 
L 461.590875 231.899045 
L 471.115825 229.086497 
L 480.640775 228.928312 
L 490.165725 229.72605 
L 499.690675 229.5446 
L 509.215625 228.604918 
L 518.740575 229.384132 
L 528.265525 232.737835 
L 537.790475 236.360009 
L 547.315425 239.46475 
L 556.840375 243.613136 
L 566.365325 248.789735 
L 575.890275 253.361564 
L 585.415225 256.765432 
L 594.940175 260.038805 
L 604.465125 264.431168 
L 613.990075 270.089837 
L 623.515025 276.243587 
L 633.039975 282.650865 
L 642.564925 289.392441 
L 652.089875 296.399643 
L 661.614825 303.726586 
L 671.139775 310.537168 
L 680.664725 316.809543 
L 690.189675 322.81315 
L 699.714625 328.25318 
L 709.239575 332.880459 
L 718.764525 336.715337 
L 728.289475 339.978579 
L 737.814425 342.456303 
L 747.339375 344.332102 
L 756.864325 345.998796 
L 766.389275 347.341114 
L 775.914225 348.393416 
L 785.439175 349.317716 
L 794.964125 350.118914 
L 804.489075 350.810668 
L 814.014025 351.394227 
L 823.538975 351.903601 
L 833.063925 352.319493 
L 842.588875 352.62215 
L 852.113825 352.848024 
L 861.638775 353.000801 
L 871.163725 353.103343 
L 880.688675 353.16773 
L 890.213625 353.200951 
L 899.738575 353.212153 
L 909.263525 353.217807 
L 918.788475 353.220371 
L 928.313425 353.220037 
L 937.838375 353.216999 
L 947.363325 353.20513 
L 956.888275 353.166325 
L 966.413225 353.020291 
L 975.938175 353.054477 
L 985.463125 353.214559 
" clip-path="url(#p1c4ec52ee9)" style="fill: none; stroke: #f0ad4e; stroke-linecap: square"/>
   </g>
   <g id="line2d_20">
    <path d="M 32.968125 281.78291 
L 42.493075 317.494415 
L 52.018025 353.213295 
L 61.542975 353.22081 
L 71.067925 353.221091 
L 80.592875 353.221161 
L 90.117825 353.221214 
L 99.642775 353.220845 
L 109.167725 353.219862 
L 118.692675 353.218826 
L 128.217625 353.218597 
L 137.742575 353.218264 
L 147.267525 353.216086 
L 156.792475 353.212136 
L 166.317425 353.206447 
L 175.842375 353.197404 
L 185.367325 353.179652 
L 194.892275 353.154877 
L 204.417225 353.114335 
L 213.942175 353.037094 
L 223.467125 352.914975 
L 232.992075 352.732436 
L 242.517025 352.473447 
L 252.041975 352.139518 
L 261.566925 351.721466 
L 271.091875 351.167336 
L 280.616825 350.420675 
L 290.141775 349.462926 
L 299.666725 348.332874 
L 309.191675 346.991259 
L 318.716625 345.353941 
L 328.241575 343.431594 
L 337.766525 341.133142 
L 347.291475 338.184287 
L 356.816425 334.453109 
L 366.341375 329.870183 
L 375.866325 324.068026 
L 385.391275 316.932647 
L 394.916225 308.932525 
L 404.441175 300.470526 
L 413.966125 291.715685 
L 423.491075 283.055187 
L 433.016025 274.973453 
L 442.540975 268.054132 
L 452.065925 263.149972 
L 461.590875 259.065165 
L 471.115825 255.557315 
L 480.640775 254.126415 
L 490.165725 253.66984 
L 499.690675 252.900107 
L 509.215625 251.563005 
L 518.740575 250.175281 
L 528.265525 249.827973 
L 537.790475 250.858678 
L 547.315425 252.879441 
L 556.840375 256.042616 
L 566.365325 259.655344 
L 575.890275 262.792655 
L 585.415225 265.568647 
L 594.940175 268.527212 
L 604.465125 272.325393 
L 613.990075 276.955868 
L 623.515025 282.109728 
L 633.039975 287.942402 
L 642.564925 294.349172 
L 652.089875 300.857201 
L 661.614825 307.523977 
L 671.139775 313.729227 
L 680.664725 319.418571 
L 690.189675 324.842078 
L 699.714625 329.735263 
L 709.239575 333.965385 
L 718.764525 337.501452 
L 728.289475 340.465654 
L 737.814425 342.704845 
L 747.339375 344.390274 
L 756.864325 345.922417 
L 766.389275 347.153571 
L 775.914225 348.102523 
L 785.439175 348.979872 
L 794.964125 349.751027 
L 804.489075 350.42452 
L 814.014025 350.993787 
L 823.538975 351.505478 
L 833.063925 351.947849 
L 842.588875 352.272349 
L 852.113825 352.529195 
L 861.638775 352.756456 
L 871.163725 352.937783 
L 880.688675 353.061079 
L 890.213625 353.143868 
L 899.738575 353.188853 
L 909.263525 353.210345 
L 918.788475 353.217105 
L 928.313425 353.218685 
L 937.838375 353.21642 
L 947.363325 353.202549 
L 956.888275 353.155035 
L 966.413225 352.981083 
L 975.938175 353.017183 
L 985.463125 353.207184 
" clip-path="url(#p1c4ec52ee9)" style="fill: none; stroke: #d9534f; stroke-linecap: square"/>
   </g>
   <g id="line2d_21">
    <path d="M 32.968125 280.100695 
L 42.493075 316.662104 
L 52.018025 353.223672 
L 61.542975 353.223795 
L 71.067925 353.223742 
L 80.592875 353.223584 
L 90.117825 353.223479 
L 99.642775 353.223338 
L 109.167725 353.22311 
L 118.692675 353.222478 
L 128.217625 353.221898 
L 137.742575 353.221775 
L 147.267525 353.22102 
L 156.792475 353.21872 
L 166.317425 353.213892 
L 175.842375 353.20729 
L 185.367325 353.192382 
L 194.892275 353.165518 
L 204.417225 353.124325 
L 213.942175 353.04698 
L 223.467125 352.924983 
L 232.992075 352.734543 
L 242.517025 352.455959 
L 252.041975 352.101276 
L 261.566925 351.649265 
L 271.091875 351.0308 
L 280.616825 350.126113 
L 290.141775 348.939101 
L 299.666725 347.549147 
L 309.191675 345.867177 
L 318.716625 343.729931 
L 328.241575 341.086384 
L 337.766525 337.816101 
L 347.291475 333.42049 
L 356.816425 327.621247 
L 366.341375 320.393124 
L 375.866325 311.498622 
L 385.391275 301.096068 
L 394.916225 290.092291 
L 404.441175 279.125562 
L 413.966125 268.462369 
L 423.491075 258.898692 
L 433.016025 249.98219 
L 442.540975 241.795456 
L 452.065925 235.740648 
L 461.590875 229.889889 
L 471.115825 224.335693 
L 480.640775 221.523636 
L 490.165725 220.459236 
L 499.690675 220.489314 
L 509.215625 219.373116 
L 518.740575 217.950346 
L 528.265525 219.016203 
L 537.790475 220.879044 
L 547.315425 223.005702 
L 556.840375 225.624773 
L 566.365325 227.63867 
L 575.890275 230.199253 
L 585.415225 234.141344 
L 594.940175 239.180424 
L 604.465125 244.64321 
L 613.990075 250.745109 
L 623.515025 259.54497 
L 633.039975 269.050861 
L 642.564925 278.211446 
L 652.089875 287.515132 
L 661.614825 296.001011 
L 671.139775 303.425211 
L 680.664725 310.150335 
L 690.189675 316.521618 
L 699.714625 322.300985 
L 709.239575 326.633157 
L 718.764525 330.018746 
L 728.289475 334.106468 
L 737.814425 337.644431 
L 747.339375 339.836706 
L 756.864325 341.945683 
L 766.389275 343.798638 
L 775.914225 345.078306 
L 785.439175 346.168043 
L 794.964125 347.374053 
L 804.489075 348.571811 
L 814.014025 349.493144 
L 823.538975 350.327597 
L 833.063925 351.056541 
L 842.588875 351.490677 
L 852.113825 351.833718 
L 861.638775 352.194037 
L 871.163725 352.547316 
L 880.688675 352.865108 
L 890.213625 353.075548 
L 899.738575 353.159565 
L 909.263525 353.197106 
L 918.788475 353.209432 
L 928.313425 353.215244 
L 937.838375 353.215331 
L 947.363325 353.204357 
L 956.888275 353.168626 
L 966.413225 353.040062 
L 975.938175 353.069911 
L 985.463125 353.212663 
" clip-path="url(#p1c4ec52ee9)" style="fill: none; stroke: #f0ad4e; stroke-linecap: square"/>
   </g>
   <g id="line2d_22">
    <path d="M 32.968125 353.2239 
L 985.463125 353.2239 
" clip-path="url(#p1c4ec52ee9)" style="fill: none; stroke: #dedede; stroke-width: 2; stroke-linecap: square"/>
   </g>
   <g id="text_15">
    <!-- FastQC: Per Sequence GC Content -->
    <g transform="translate(372.579375 19.3575) scale(0.16 -0.16)">
     <defs>
      <path id="DejaVuSans-46" d="M 628 4666 
L 3309 4666 
L 3309 4134 
L 1259 4134 
L 1259 2759 
L 3109 2759 
L 3109 2228 
L 1259 2228 
L 1259 0 
L 628 0 
L 628 4666 
z
" transform="scale(0.015625)"/>
      <path id="DejaVuSans-61" d="M 2194 1759 
Q 1497 1759 1228 1600 
Q 959 1441 959 1056 
Q 959 750 1161 570 
Q 1363 391 1709 391 
Q 2188 391 2477 730 
Q 2766 1069 2766 1631 
L 2766 1759 
L 2194 1759 
z
M 3341 1997 
L 3341 0 
L 2766 0 
L 2766 531 
Q 2569 213 2275 61 
Q 1981 -91 1556 -91 
Q 1019 -91 701 211 
Q 384 513 384 1019 
Q 384 1609 779 1909 
Q 1175 2209 1959 2209 
L 2766 2209 
L 2766 2266 
Q 2766 2663 2505 2880 
Q 2244 3097 1772 3097 
Q 1472 3097 1187 3025 
Q 903 2953 641 2809 
L 641 3341 
Q 956 3463 1253 3523 
Q 1550 3584 1831 3584 
Q 2591 3584 2966 3190 
Q 3341 2797 3341 1997 
z
" transform="scale(0.015625)"/>
      <path id="DejaVuSans-73" d="M 2834 3397 
L 2834 2853 
Q 2591 2978 2328 3040 
Q 2066 3103 1784 3103 
Q 1356 3103 1142 2972 
Q 928 2841 928 2578 
Q 928 2378 1081 2264 
Q 1234 2150 1697 2047 
L 1894 2003 
Q 2506 1872 2764 1633 
Q 3022 1394 3022 966 
Q 3022 478 2636 193 
Q 2250 -91 1575 -91 
Q 1294 -91 989 -36 
Q 684 19 347 128 
L 347 722 
Q 666 556 975 473 
Q 1284 391 1588 391 
Q 1994 391 2212 530 
Q 2431 669 2431 922 
Q 2431 1156 2273 1281 
Q 2116 1406 1581 1522 
L 1381 1569 
Q 847 1681 609 1914 
Q 372 2147 372 2553 
Q 372 3047 722 3315 
Q 1072 3584 1716 3584 
Q 2034 3584 2315 3537 
Q 2597 3491 2834 3397 
z
" transform="scale(0.015625)"/>
      <path id="DejaVuSans-51" d="M 2522 4238 
Q 1834 4238 1429 3725 
Q 1025 3213 1025 2328 
Q 1025 1447 1429 934 
Q 1834 422 2522 422 
Q 3209 422 3611 934 
Q 4013 1447 4013 2328 
Q 4013 3213 3611 3725 
Q 3209 4238 2522 4238 
z
M 3406 84 
L 4238 -825 
L 3475 -825 
L 2784 -78 
Q 2681 -84 2626 -87 
Q 2572 -91 2522 -91 
Q 1538 -91 948 567 
Q 359 1225 359 2328 
Q 359 3434 948 4092 
Q 1538 4750 2522 4750 
Q 3503 4750 4090 4092 
Q 4678 3434 4678 2328 
Q 4678 1516 4351 937 
Q 4025 359 3406 84 
z
" transform="scale(0.015625)"/>
      <path id="DejaVuSans-3a" d="M 750 794 
L 1409 794 
L 1409 0 
L 750 0 
L 750 794 
z
M 750 3309 
L 1409 3309 
L 1409 2516 
L 750 2516 
L 750 3309 
z
" transform="scale(0.015625)"/>
      <path id="DejaVuSans-50" d="M 1259 4147 
L 1259 2394 
L 2053 2394 
Q 2494 2394 2734 2622 
Q 2975 2850 2975 3272 
Q 2975 3691 2734 3919 
Q 2494 4147 2053 4147 
L 1259 4147 
z
M 628 4666 
L 2053 4666 
Q 2838 4666 3239 4311 
Q 3641 3956 3641 3272 
Q 3641 2581 3239 2228 
Q 2838 1875 2053 1875 
L 1259 1875 
L 1259 0 
L 628 0 
L 628 4666 
z
" transform="scale(0.015625)"/>
      <path id="DejaVuSans-72" d="M 2631 2963 
Q 2534 3019 2420 3045 
Q 2306 3072 2169 3072 
Q 1681 3072 1420 2755 
Q 1159 2438 1159 1844 
L 1159 0 
L 581 0 
L 581 3500 
L 1159 3500 
L 1159 2956 
Q 1341 3275 1631 3429 
Q 1922 3584 2338 3584 
Q 2397 3584 2469 3576 
Q 2541 3569 2628 3553 
L 2631 2963 
z
" transform="scale(0.015625)"/>
      <path id="DejaVuSans-53" d="M 3425 4513 
L 3425 3897 
Q 3066 4069 2747 4153 
Q 2428 4238 2131 4238 
Q 1616 4238 1336 4038 
Q 1056 3838 1056 3469 
Q 1056 3159 1242 3001 
Q 1428 2844 1947 2747 
L 2328 2669 
Q 3034 2534 3370 2195 
Q 3706 1856 3706 1288 
Q 3706 609 3251 259 
Q 2797 -91 1919 -91 
Q 1588 -91 1214 -16 
Q 841 59 441 206 
L 441 856 
Q 825 641 1194 531 
Q 1563 422 1919 422 
Q 2459 422 2753 634 
Q 3047 847 3047 1241 
Q 3047 1584 2836 1778 
Q 2625 1972 2144 2069 
L 1759 2144 
Q 1053 2284 737 2584 
Q 422 2884 422 3419 
Q 422 4038 858 4394 
Q 1294 4750 2059 4750 
Q 2388 4750 2728 4690 
Q 3069 4631 3425 4513 
z
" transform="scale(0.015625)"/>
      <path id="DejaVuSans-71" d="M 947 1747 
Q 947 1113 1208 752 
Q 1469 391 1925 391 
Q 2381 391 2643 752 
Q 2906 1113 2906 1747 
Q 2906 2381 2643 2742 
Q 2381 3103 1925 3103 
Q 1469 3103 1208 2742 
Q 947 2381 947 1747 
z
M 2906 525 
Q 2725 213 2448 61 
Q 2172 -91 1784 -91 
Q 1150 -91 751 415 
Q 353 922 353 1747 
Q 353 2572 751 3078 
Q 1150 3584 1784 3584 
Q 2172 3584 2448 3432 
Q 2725 3281 2906 2969 
L 2906 3500 
L 3481 3500 
L 3481 -1331 
L 2906 -1331 
L 2906 525 
z
" transform="scale(0.015625)"/>
      <path id="DejaVuSans-63" d="M 3122 3366 
L 3122 2828 
Q 2878 2963 2633 3030 
Q 2388 3097 2138 3097 
Q 1578 3097 1268 2742 
Q 959 2388 959 1747 
Q 959 1106 1268 751 
Q 1578 397 2138 397 
Q 2388 397 2633 464 
Q 2878 531 3122 666 
L 3122 134 
Q 2881 22 2623 -34 
Q 2366 -91 2075 -91 
Q 1284 -91 818 406 
Q 353 903 353 1747 
Q 353 2603 823 3093 
Q 1294 3584 2113 3584 
Q 2378 3584 2631 3529 
Q 2884 3475 3122 3366 
z
" transform="scale(0.015625)"/>
     </defs>
     <use xlink:href="#DejaVuSans-46"/>
     <use xlink:href="#DejaVuSans-61" x="48.394531"/>
     <use xlink:href="#DejaVuSans-73" x="109.673828"/>
     <use xlink:href="#DejaVuSans-74" x="161.773438"/>
     <use xlink:href="#DejaVuSans-51" x="200.982422"/>
     <use xlink:href="#DejaVuSans-43" x="279.693359"/>
     <use xlink:href="#DejaVuSans-3a" x="349.517578"/>
     <use xlink:href="#DejaVuSans-20" x="383.208984"/>
     <use xlink:href="#DejaVuSans-50" x="414.996094"/>
     <use xlink:href="#DejaVuSans-65" x="471.673828"/>
     <use xlink:href="#DejaVuSans-72" x="533.197266"/>
     <use xlink:href="#DejaVuSans-20" x="574.310547"/>
     <use xlink:href="#DejaVuSans-53" x="606.097656"/>
     <use xlink:href="#DejaVuSans-65" x="669.574219"/>
     <use xlink:href="#DejaVuSans-71" x="731.097656"/>
     <use xlink:href="#DejaVuSans-75" x="794.574219"/>
     <use xlink:href="#DejaVuSans-65" x="857.953125"/>
     <use xlink:href="#DejaVuSans-6e" x="919.476562"/>
     <use xlink:href="#DejaVuSans-63" x="982.855469"/>
     <use xlink:href="#DejaVuSans-65" x="1037.835938"/>
     <use xlink:href="#DejaVuSans-20" x="1099.359375"/>
     <use xlink:href="#DejaVuSans-47" x="1131.146484"/>
     <use xlink:href="#DejaVuSans-43" x="1208.636719"/>
     <use xlink:href="#DejaVuSans-20" x="1278.460938"/>
     <use xlink:href="#DejaVuSans-43" x="1310.248047"/>
     <use xlink:href="#DejaVuSans-6f" x="1380.072266"/>
     <use xlink:href="#DejaVuSans-6e" x="1441.253906"/>
     <use xlink:href="#DejaVuSans-74" x="1504.632812"/>
     <use xlink:href="#DejaVuSans-65" x="1543.841797"/>
     <use xlink:href="#DejaVuSans-6e" x="1605.365234"/>
     <use xlink:href="#DejaVuSans-74" x="1668.744141"/>
    </g>
   </g>
  </g>
 </g>
 <defs>
  <clipPath id="p1c4ec52ee9">
   <rect x="32.968125" y="35.2559" width="952.495" height="317.968"/>
  </clipPath>
 </defs>
</svg>
