<?xml version="1.0" encoding="utf-8" standalone="no"?>
<!DOCTYPE svg PUBLIC "-//W3C//DTD SVG 1.1//EN"
  "http://www.w3.org/Graphics/SVG/1.1/DTD/svg11.dtd">
<svg xmlns:xlink="http://www.w3.org/1999/xlink" width="1000.258125pt" height="388.844525pt" viewBox="0 0 1000.258125 388.844525" xmlns="http://www.w3.org/2000/svg" version="1.1">
 <metadata>
  <rdf:RDF xmlns:dc="http://purl.org/dc/elements/1.1/" xmlns:cc="http://creativecommons.org/ns#" xmlns:rdf="http://www.w3.org/1999/02/22-rdf-syntax-ns#">
   <cc:Work>
    <dc:type rdf:resource="http://purl.org/dc/dcmitype/StillImage"/>
    <dc:date>2024-09-05T13:39:11.551112</dc:date>
    <dc:format>image/svg+xml</dc:format>
    <dc:creator>
     <cc:Agent>
      <dc:title>Matplotlib v3.8.2, https://matplotlib.org/</dc:title>
     </cc:Agent>
    </dc:creator>
   </cc:Work>
  </rdf:RDF>
 </metadata>
 <defs>
  <style type="text/css">*{stroke-linejoin: round; stroke-linecap: butt}</style>
 </defs>
 <g id="figure_1">
  <g id="axes_1">
   <g id="patch_1">
    <path d="M 38.058125 353.2239 
L 985.423125 353.2239 
L 985.423125 35.2559 
L 38.058125 35.2559 
z
" style="fill: #ffffff"/>
   </g>
   <g id="matplotlib.axis_1">
    <g id="xtick_1">
     <g id="text_1">
      <!-- 0 -->
      <g transform="translate(35.513125 366.30265) scale(0.08 -0.08)">
       <defs>
        <path id="DejaVuSans-30" d="M 2034 4250 
Q 1547 4250 1301 3770 
Q 1056 3291 1056 2328 
Q 1056 1369 1301 889 
Q 1547 409 2034 409 
Q 2525 409 2770 889 
Q 3016 1369 3016 2328 
Q 3016 3291 2770 3770 
Q 2525 4250 2034 4250 
z
M 2034 4750 
Q 2819 4750 3233 4129 
Q 3647 3509 3647 2328 
Q 3647 1150 3233 529 
Q 2819 -91 2034 -91 
Q 1250 -91 836 529 
Q 422 1150 422 2328 
Q 422 3509 836 4129 
Q 1250 4750 2034 4750 
z
" transform="scale(0.015625)"/>
       </defs>
       <use xlink:href="#DejaVuSans-30"/>
      </g>
     </g>
    </g>
    <g id="xtick_2">
     <g id="text_2">
      <!-- 20 -->
      <g transform="translate(222.441125 366.30265) scale(0.08 -0.08)">
       <defs>
        <path id="DejaVuSans-32" d="M 1228 531 
L 3431 531 
L 3431 0 
L 469 0 
L 469 531 
Q 828 903 1448 1529 
Q 2069 2156 2228 2338 
Q 2531 2678 2651 2914 
Q 2772 3150 2772 3378 
Q 2772 3750 2511 3984 
Q 2250 4219 1831 4219 
Q 1534 4219 1204 4116 
Q 875 4013 500 3803 
L 500 4441 
Q 881 4594 1212 4672 
Q 1544 4750 1819 4750 
Q 2544 4750 2975 4387 
Q 3406 4025 3406 3419 
Q 3406 3131 3298 2873 
Q 3191 2616 2906 2266 
Q 2828 2175 2409 1742 
Q 1991 1309 1228 531 
z
" transform="scale(0.015625)"/>
       </defs>
       <use xlink:href="#DejaVuSans-32"/>
       <use xlink:href="#DejaVuSans-30" x="63.623047"/>
      </g>
     </g>
    </g>
    <g id="xtick_3">
     <g id="text_3">
      <!-- 40 -->
      <g transform="translate(411.914125 366.30265) scale(0.08 -0.08)">
       <defs>
        <path id="DejaVuSans-34" d="M 2419 4116 
L 825 1625 
L 2419 1625 
L 2419 4116 
z
M 2253 4666 
L 3047 4666 
L 3047 1625 
L 3713 1625 
L 3713 1100 
L 3047 1100 
L 3047 0 
L 2419 0 
L 2419 1100 
L 313 1100 
L 313 1709 
L 2253 4666 
z
" transform="scale(0.015625)"/>
       </defs>
       <use xlink:href="#DejaVuSans-34"/>
       <use xlink:href="#DejaVuSans-30" x="63.623047"/>
      </g>
     </g>
    </g>
    <g id="xtick_4">
     <g id="text_4">
      <!-- 60 -->
      <g transform="translate(601.387125 366.30265) scale(0.08 -0.08)">
       <defs>
        <path id="DejaVuSans-36" d="M 2113 2584 
Q 1688 2584 1439 2293 
Q 1191 2003 1191 1497 
Q 1191 994 1439 701 
Q 1688 409 2113 409 
Q 2538 409 2786 701 
Q 3034 994 3034 1497 
Q 3034 2003 2786 2293 
Q 2538 2584 2113 2584 
z
M 3366 4563 
L 3366 3988 
Q 3128 4100 2886 4159 
Q 2644 4219 2406 4219 
Q 1781 4219 1451 3797 
Q 1122 3375 1075 2522 
Q 1259 2794 1537 2939 
Q 1816 3084 2150 3084 
Q 2853 3084 3261 2657 
Q 3669 2231 3669 1497 
Q 3669 778 3244 343 
Q 2819 -91 2113 -91 
Q 1303 -91 875 529 
Q 447 1150 447 2328 
Q 447 3434 972 4092 
Q 1497 4750 2381 4750 
Q 2619 4750 2861 4703 
Q 3103 4656 3366 4563 
z
" transform="scale(0.015625)"/>
       </defs>
       <use xlink:href="#DejaVuSans-36"/>
       <use xlink:href="#DejaVuSans-30" x="63.623047"/>
      </g>
     </g>
    </g>
    <g id="xtick_5">
     <g id="text_5">
      <!-- 80 -->
      <g transform="translate(790.860125 366.30265) scale(0.08 -0.08)">
       <defs>
        <path id="DejaVuSans-38" d="M 2034 2216 
Q 1584 2216 1326 1975 
Q 1069 1734 1069 1313 
Q 1069 891 1326 650 
Q 1584 409 2034 409 
Q 2484 409 2743 651 
Q 3003 894 3003 1313 
Q 3003 1734 2745 1975 
Q 2488 2216 2034 2216 
z
M 1403 2484 
Q 997 2584 770 2862 
Q 544 3141 544 3541 
Q 544 4100 942 4425 
Q 1341 4750 2034 4750 
Q 2731 4750 3128 4425 
Q 3525 4100 3525 3541 
Q 3525 3141 3298 2862 
Q 3072 2584 2669 2484 
Q 3125 2378 3379 2068 
Q 3634 1759 3634 1313 
Q 3634 634 3220 271 
Q 2806 -91 2034 -91 
Q 1263 -91 848 271 
Q 434 634 434 1313 
Q 434 1759 690 2068 
Q 947 2378 1403 2484 
z
M 1172 3481 
Q 1172 3119 1398 2916 
Q 1625 2713 2034 2713 
Q 2441 2713 2670 2916 
Q 2900 3119 2900 3481 
Q 2900 3844 2670 4047 
Q 2441 4250 2034 4250 
Q 1625 4250 1398 4047 
Q 1172 3844 1172 3481 
z
" transform="scale(0.015625)"/>
       </defs>
       <use xlink:href="#DejaVuSans-38"/>
       <use xlink:href="#DejaVuSans-30" x="63.623047"/>
      </g>
     </g>
    </g>
    <g id="xtick_6">
     <g id="text_6">
      <!-- 100 -->
      <g transform="translate(977.788125 366.30265) scale(0.08 -0.08)">
       <defs>
        <path id="DejaVuSans-31" d="M 794 531 
L 1825 531 
L 1825 4091 
L 703 3866 
L 703 4441 
L 1819 4666 
L 2450 4666 
L 2450 531 
L 3481 531 
L 3481 0 
L 794 0 
L 794 531 
z
" transform="scale(0.015625)"/>
       </defs>
       <use xlink:href="#DejaVuSans-31"/>
       <use xlink:href="#DejaVuSans-30" x="63.623047"/>
       <use xlink:href="#DejaVuSans-30" x="127.246094"/>
      </g>
     </g>
    </g>
    <g id="text_7">
     <!-- % GC -->
     <g transform="translate(498.035156 379.564837) scale(0.1 -0.1)">
      <defs>
       <path id="DejaVuSans-25" d="M 4653 2053 
Q 4381 2053 4226 1822 
Q 4072 1591 4072 1178 
Q 4072 772 4226 539 
Q 4381 306 4653 306 
Q 4919 306 5073 539 
Q 5228 772 5228 1178 
Q 5228 1588 5073 1820 
Q 4919 2053 4653 2053 
z
M 4653 2450 
Q 5147 2450 5437 2106 
Q 5728 1763 5728 1178 
Q 5728 594 5436 251 
Q 5144 -91 4653 -91 
Q 4153 -91 3862 251 
Q 3572 594 3572 1178 
Q 3572 1766 3864 2108 
Q 4156 2450 4653 2450 
z
M 1428 4353 
Q 1159 4353 1004 4120 
Q 850 3888 850 3481 
Q 850 3069 1003 2837 
Q 1156 2606 1428 2606 
Q 1700 2606 1854 2837 
Q 2009 3069 2009 3481 
Q 2009 3884 1853 4118 
Q 1697 4353 1428 4353 
z
M 4250 4750 
L 4750 4750 
L 1831 -91 
L 1331 -91 
L 4250 4750 
z
M 1428 4750 
Q 1922 4750 2215 4408 
Q 2509 4066 2509 3481 
Q 2509 2891 2217 2550 
Q 1925 2209 1428 2209 
Q 931 2209 642 2551 
Q 353 2894 353 3481 
Q 353 4063 643 4406 
Q 934 4750 1428 4750 
z
" transform="scale(0.015625)"/>
       <path id="DejaVuSans-20" transform="scale(0.015625)"/>
       <path id="DejaVuSans-47" d="M 3809 666 
L 3809 1919 
L 2778 1919 
L 2778 2438 
L 4434 2438 
L 4434 434 
Q 4069 175 3628 42 
Q 3188 -91 2688 -91 
Q 1594 -91 976 548 
Q 359 1188 359 2328 
Q 359 3472 976 4111 
Q 1594 4750 2688 4750 
Q 3144 4750 3555 4637 
Q 3966 4525 4313 4306 
L 4313 3634 
Q 3963 3931 3569 4081 
Q 3175 4231 2741 4231 
Q 1884 4231 1454 3753 
Q 1025 3275 1025 2328 
Q 1025 1384 1454 906 
Q 1884 428 2741 428 
Q 3075 428 3337 486 
Q 3600 544 3809 666 
z
" transform="scale(0.015625)"/>
       <path id="DejaVuSans-43" d="M 4122 4306 
L 4122 3641 
Q 3803 3938 3442 4084 
Q 3081 4231 2675 4231 
Q 1875 4231 1450 3742 
Q 1025 3253 1025 2328 
Q 1025 1406 1450 917 
Q 1875 428 2675 428 
Q 3081 428 3442 575 
Q 3803 722 4122 1019 
L 4122 359 
Q 3791 134 3420 21 
Q 3050 -91 2638 -91 
Q 1578 -91 968 557 
Q 359 1206 359 2328 
Q 359 3453 968 4101 
Q 1578 4750 2638 4750 
Q 3056 4750 3426 4639 
Q 3797 4528 4122 4306 
z
" transform="scale(0.015625)"/>
      </defs>
      <use xlink:href="#DejaVuSans-25"/>
      <use xlink:href="#DejaVuSans-20" x="95.019531"/>
      <use xlink:href="#DejaVuSans-47" x="126.806641"/>
      <use xlink:href="#DejaVuSans-43" x="204.296875"/>
     </g>
    </g>
   </g>
   <g id="matplotlib.axis_2">
    <g id="ytick_1">
     <g id="line2d_1">
      <path d="M 38.058125 353.2239 
L 985.423125 353.2239 
" clip-path="url(#pdc1e7b8d04)" style="fill: none; stroke: #dedede; stroke-linecap: square"/>
     </g>
     <g id="text_8">
      <!-- 0 -->
      <g transform="translate(25.968125 356.263275) scale(0.08 -0.08)">
       <use xlink:href="#DejaVuSans-30"/>
      </g>
     </g>
    </g>
    <g id="ytick_2">
     <g id="line2d_2">
      <path d="M 38.058125 293.882471 
L 985.423125 293.882471 
" clip-path="url(#pdc1e7b8d04)" style="fill: none; stroke: #dedede; stroke-linecap: square"/>
     </g>
     <g id="text_9">
      <!-- 2 -->
      <g transform="translate(25.968125 296.921846) scale(0.08 -0.08)">
       <use xlink:href="#DejaVuSans-32"/>
      </g>
     </g>
    </g>
    <g id="ytick_3">
     <g id="line2d_3">
      <path d="M 38.058125 234.541042 
L 985.423125 234.541042 
" clip-path="url(#pdc1e7b8d04)" style="fill: none; stroke: #dedede; stroke-linecap: square"/>
     </g>
     <g id="text_10">
      <!-- 4 -->
      <g transform="translate(25.968125 237.580417) scale(0.08 -0.08)">
       <use xlink:href="#DejaVuSans-34"/>
      </g>
     </g>
    </g>
    <g id="ytick_4">
     <g id="line2d_4">
      <path d="M 38.058125 175.199613 
L 985.423125 175.199613 
" clip-path="url(#pdc1e7b8d04)" style="fill: none; stroke: #dedede; stroke-linecap: square"/>
     </g>
     <g id="text_11">
      <!-- 6 -->
      <g transform="translate(25.968125 178.238988) scale(0.08 -0.08)">
       <use xlink:href="#DejaVuSans-36"/>
      </g>
     </g>
    </g>
    <g id="ytick_5">
     <g id="line2d_5">
      <path d="M 38.058125 115.858183 
L 985.423125 115.858183 
" clip-path="url(#pdc1e7b8d04)" style="fill: none; stroke: #dedede; stroke-linecap: square"/>
     </g>
     <g id="text_12">
      <!-- 8 -->
      <g transform="translate(25.968125 118.897558) scale(0.08 -0.08)">
       <use xlink:href="#DejaVuSans-38"/>
      </g>
     </g>
    </g>
    <g id="ytick_6">
     <g id="line2d_6">
      <path d="M 38.058125 56.516754 
L 985.423125 56.516754 
" clip-path="url(#pdc1e7b8d04)" style="fill: none; stroke: #dedede; stroke-linecap: square"/>
     </g>
     <g id="text_13">
      <!-- 10 -->
      <g transform="translate(20.878125 59.556129) scale(0.08 -0.08)">
       <use xlink:href="#DejaVuSans-31"/>
       <use xlink:href="#DejaVuSans-30" x="63.623047"/>
      </g>
     </g>
    </g>
    <g id="text_14">
     <!-- Percentage -->
     <g transform="translate(14.798438 222.362556) rotate(-90) scale(0.1 -0.1)">
      <defs>
       <path id="DejaVuSans-50" d="M 1259 4147 
L 1259 2394 
L 2053 2394 
Q 2494 2394 2734 2622 
Q 2975 2850 2975 3272 
Q 2975 3691 2734 3919 
Q 2494 4147 2053 4147 
L 1259 4147 
z
M 628 4666 
L 2053 4666 
Q 2838 4666 3239 4311 
Q 3641 3956 3641 3272 
Q 3641 2581 3239 2228 
Q 2838 1875 2053 1875 
L 1259 1875 
L 1259 0 
L 628 0 
L 628 4666 
z
" transform="scale(0.015625)"/>
       <path id="DejaVuSans-65" d="M 3597 1894 
L 3597 1613 
L 953 1613 
Q 991 1019 1311 708 
Q 1631 397 2203 397 
Q 2534 397 2845 478 
Q 3156 559 3463 722 
L 3463 178 
Q 3153 47 2828 -22 
Q 2503 -91 2169 -91 
Q 1331 -91 842 396 
Q 353 884 353 1716 
Q 353 2575 817 3079 
Q 1281 3584 2069 3584 
Q 2775 3584 3186 3129 
Q 3597 2675 3597 1894 
z
M 3022 2063 
Q 3016 2534 2758 2815 
Q 2500 3097 2075 3097 
Q 1594 3097 1305 2825 
Q 1016 2553 972 2059 
L 3022 2063 
z
" transform="scale(0.015625)"/>
       <path id="DejaVuSans-72" d="M 2631 2963 
Q 2534 3019 2420 3045 
Q 2306 3072 2169 3072 
Q 1681 3072 1420 2755 
Q 1159 2438 1159 1844 
L 1159 0 
L 581 0 
L 581 3500 
L 1159 3500 
L 1159 2956 
Q 1341 3275 1631 3429 
Q 1922 3584 2338 3584 
Q 2397 3584 2469 3576 
Q 2541 3569 2628 3553 
L 2631 2963 
z
" transform="scale(0.015625)"/>
       <path id="DejaVuSans-63" d="M 3122 3366 
L 3122 2828 
Q 2878 2963 2633 3030 
Q 2388 3097 2138 3097 
Q 1578 3097 1268 2742 
Q 959 2388 959 1747 
Q 959 1106 1268 751 
Q 1578 397 2138 397 
Q 2388 397 2633 464 
Q 2878 531 3122 666 
L 3122 134 
Q 2881 22 2623 -34 
Q 2366 -91 2075 -91 
Q 1284 -91 818 406 
Q 353 903 353 1747 
Q 353 2603 823 3093 
Q 1294 3584 2113 3584 
Q 2378 3584 2631 3529 
Q 2884 3475 3122 3366 
z
" transform="scale(0.015625)"/>
       <path id="DejaVuSans-6e" d="M 3513 2113 
L 3513 0 
L 2938 0 
L 2938 2094 
Q 2938 2591 2744 2837 
Q 2550 3084 2163 3084 
Q 1697 3084 1428 2787 
Q 1159 2491 1159 1978 
L 1159 0 
L 581 0 
L 581 3500 
L 1159 3500 
L 1159 2956 
Q 1366 3272 1645 3428 
Q 1925 3584 2291 3584 
Q 2894 3584 3203 3211 
Q 3513 2838 3513 2113 
z
" transform="scale(0.015625)"/>
       <path id="DejaVuSans-74" d="M 1172 4494 
L 1172 3500 
L 2356 3500 
L 2356 3053 
L 1172 3053 
L 1172 1153 
Q 1172 725 1289 603 
Q 1406 481 1766 481 
L 2356 481 
L 2356 0 
L 1766 0 
Q 1100 0 847 248 
Q 594 497 594 1153 
L 594 3053 
L 172 3053 
L 172 3500 
L 594 3500 
L 594 4494 
L 1172 4494 
z
" transform="scale(0.015625)"/>
       <path id="DejaVuSans-61" d="M 2194 1759 
Q 1497 1759 1228 1600 
Q 959 1441 959 1056 
Q 959 750 1161 570 
Q 1363 391 1709 391 
Q 2188 391 2477 730 
Q 2766 1069 2766 1631 
L 2766 1759 
L 2194 1759 
z
M 3341 1997 
L 3341 0 
L 2766 0 
L 2766 531 
Q 2569 213 2275 61 
Q 1981 -91 1556 -91 
Q 1019 -91 701 211 
Q 384 513 384 1019 
Q 384 1609 779 1909 
Q 1175 2209 1959 2209 
L 2766 2209 
L 2766 2266 
Q 2766 2663 2505 2880 
Q 2244 3097 1772 3097 
Q 1472 3097 1187 3025 
Q 903 2953 641 2809 
L 641 3341 
Q 956 3463 1253 3523 
Q 1550 3584 1831 3584 
Q 2591 3584 2966 3190 
Q 3341 2797 3341 1997 
z
" transform="scale(0.015625)"/>
       <path id="DejaVuSans-67" d="M 2906 1791 
Q 2906 2416 2648 2759 
Q 2391 3103 1925 3103 
Q 1463 3103 1205 2759 
Q 947 2416 947 1791 
Q 947 1169 1205 825 
Q 1463 481 1925 481 
Q 2391 481 2648 825 
Q 2906 1169 2906 1791 
z
M 3481 434 
Q 3481 -459 3084 -895 
Q 2688 -1331 1869 -1331 
Q 1566 -1331 1297 -1286 
Q 1028 -1241 775 -1147 
L 775 -588 
Q 1028 -725 1275 -790 
Q 1522 -856 1778 -856 
Q 2344 -856 2625 -561 
Q 2906 -266 2906 331 
L 2906 616 
Q 2728 306 2450 153 
Q 2172 0 1784 0 
Q 1141 0 747 490 
Q 353 981 353 1791 
Q 353 2603 747 3093 
Q 1141 3584 1784 3584 
Q 2172 3584 2450 3431 
Q 2728 3278 2906 2969 
L 2906 3500 
L 3481 3500 
L 3481 434 
z
" transform="scale(0.015625)"/>
      </defs>
      <use xlink:href="#DejaVuSans-50"/>
      <use xlink:href="#DejaVuSans-65" x="56.677734"/>
      <use xlink:href="#DejaVuSans-72" x="118.201172"/>
      <use xlink:href="#DejaVuSans-63" x="157.064453"/>
      <use xlink:href="#DejaVuSans-65" x="212.044922"/>
      <use xlink:href="#DejaVuSans-6e" x="273.568359"/>
      <use xlink:href="#DejaVuSans-74" x="336.947266"/>
      <use xlink:href="#DejaVuSans-61" x="376.15625"/>
      <use xlink:href="#DejaVuSans-67" x="437.435547"/>
      <use xlink:href="#DejaVuSans-65" x="500.912109"/>
     </g>
    </g>
   </g>
   <g id="line2d_7">
    <path d="M 38.058125 50.397231 
L 47.531775 201.809231 
L 57.005425 353.222337 
L 66.479075 353.223549 
L 75.952725 353.223619 
L 85.426375 353.223514 
L 94.900025 353.22318 
L 104.373675 353.223163 
L 113.847325 353.223022 
L 123.320975 353.222285 
L 132.794625 353.221898 
L 142.268275 353.22153 
L 151.741925 353.220704 
L 161.215575 353.219019 
L 170.689225 353.215033 
L 180.162875 353.208642 
L 189.636525 353.194173 
L 199.110175 353.170434 
L 208.583825 353.132279 
L 218.057475 353.055548 
L 227.531125 352.926353 
L 237.004775 352.724815 
L 246.478425 352.44149 
L 255.952075 352.083471 
L 265.425725 351.605141 
L 274.899375 350.941603 
L 284.373025 350.062937 
L 293.846675 348.893326 
L 303.320325 347.423727 
L 312.793975 345.623429 
L 322.267625 343.282258 
L 331.741275 340.34601 
L 341.214925 336.820934 
L 350.688575 332.480966 
L 360.162225 327.311813 
L 369.635875 321.461316 
L 379.109525 314.801967 
L 388.583175 307.682162 
L 398.056825 300.961358 
L 407.530475 294.899949 
L 417.004125 289.24279 
L 426.477775 284.276648 
L 435.951425 279.789311 
L 445.425075 276.116235 
L 454.898725 274.036107 
L 464.372375 272.100451 
L 473.846025 270.400623 
L 483.319675 270.115139 
L 492.793325 270.188534 
L 502.266975 269.447632 
L 511.740625 266.927188 
L 521.214275 262.007542 
L 530.687925 257.317719 
L 540.161575 257.585382 
L 549.635225 262.670255 
L 559.108875 269.138777 
L 568.582525 274.175153 
L 578.056175 277.596352 
L 587.529825 280.605117 
L 597.003475 283.430132 
L 606.477125 286.688563 
L 615.950775 290.659573 
L 625.424425 295.1267 
L 634.898075 299.90356 
L 644.371725 304.974684 
L 653.845375 310.253368 
L 663.319025 315.695452 
L 672.792675 320.858215 
L 682.266325 325.654407 
L 691.739975 330.199213 
L 701.213625 334.301842 
L 710.687275 337.774962 
L 720.160925 340.594586 
L 729.634575 342.998582 
L 739.108225 344.862792 
L 748.581875 346.162407 
L 758.055525 347.281801 
L 767.529175 348.275826 
L 777.002825 349.105784 
L 786.476475 349.803456 
L 795.950125 350.389719 
L 805.423775 350.887944 
L 814.897425 351.324766 
L 824.371075 351.733669 
L 833.844725 352.118571 
L 843.318375 352.405372 
L 852.792025 352.617445 
L 862.265675 352.812169 
L 871.739325 352.966825 
L 881.212975 353.06647 
L 890.686625 353.131735 
L 900.160275 353.178546 
L 909.633925 353.208361 
L 919.107575 353.218562 
L 928.581225 353.221775 
L 938.054875 353.222355 
L 947.528525 353.221143 
L 957.002175 353.217509 
L 966.475825 353.202584 
L 975.949475 353.205973 
L 985.423125 353.222671 
" clip-path="url(#pdc1e7b8d04)" style="fill: none; stroke: #d9534f; stroke-linecap: square"/>
   </g>
   <g id="line2d_8">
    <path d="M 38.058125 99.986125 
L 47.531775 226.600496 
L 57.005425 353.218528 
L 66.479075 353.222275 
L 75.952725 353.222258 
L 85.426375 353.222155 
L 94.900025 353.222121 
L 104.373675 353.221608 
L 113.847325 353.221077 
L 123.320975 353.22029 
L 132.794625 353.219657 
L 142.268275 353.219247 
L 151.741925 353.217331 
L 161.215575 353.211788 
L 170.689225 353.205322 
L 180.162875 353.198719 
L 189.636525 353.185409 
L 199.110175 353.165189 
L 208.583825 353.131882 
L 218.057475 353.069544 
L 227.531125 352.97017 
L 237.004775 352.823324 
L 246.478425 352.620093 
L 255.952075 352.365884 
L 265.425725 352.037825 
L 274.899375 351.581908 
L 284.373025 350.953245 
L 293.846675 350.140272 
L 303.320325 349.199544 
L 312.793975 348.12622 
L 322.267625 346.842755 
L 331.741275 345.348019 
L 341.214925 343.586552 
L 350.688575 341.343182 
L 360.162225 338.604806 
L 369.635875 335.295298 
L 379.109525 330.908343 
L 388.583175 325.336562 
L 398.056825 318.797178 
L 407.530475 311.551295 
L 417.004125 303.549507 
L 426.477775 294.705614 
L 435.951425 285.877835 
L 445.425075 277.947999 
L 454.898725 271.973161 
L 464.372375 266.798534 
L 473.846025 262.224293 
L 483.319675 260.051199 
L 492.793325 259.069979 
L 502.266975 258.033247 
L 511.740625 256.569372 
L 521.214275 255.316922 
L 530.687925 255.24302 
L 540.161575 256.418985 
L 549.635225 258.323107 
L 559.108875 260.840136 
L 568.582525 264.054479 
L 578.056175 266.981288 
L 587.529825 269.323176 
L 597.003475 271.930377 
L 606.477125 275.214515 
L 615.950775 279.479309 
L 625.424425 284.260031 
L 634.898075 289.609559 
L 644.371725 295.748897 
L 653.845375 302.091449 
L 663.319025 308.597697 
L 672.792675 314.640346 
L 682.266325 320.305394 
L 691.739975 325.695979 
L 701.213625 330.486486 
L 710.687275 334.61528 
L 720.160925 338.097244 
L 729.634575 340.988419 
L 739.108225 343.031381 
L 748.581875 344.557217 
L 758.055525 346.059702 
L 767.529175 347.268889 
L 777.002825 348.180552 
L 786.476475 349.019699 
L 795.950125 349.729979 
L 805.423775 350.362576 
L 814.897425 350.911162 
L 824.371075 351.377873 
L 833.844725 351.788713 
L 843.318375 352.105773 
L 852.792025 352.359982 
L 862.265675 352.580269 
L 871.739325 352.764219 
L 881.212975 352.89543 
L 890.686625 352.991605 
L 900.160275 353.092638 
L 909.633925 353.176291 
L 919.107575 353.207255 
L 928.581225 353.213892 
L 938.054875 353.210163 
L 947.528525 353.185341 
L 957.002175 353.090911 
L 966.475825 352.737002 
L 975.949475 352.792514 
L 985.423125 353.175077 
" clip-path="url(#pdc1e7b8d04)" style="fill: none; stroke: #d9534f; stroke-linecap: square"/>
   </g>
   <g id="line2d_9">
    <path d="M 38.058125 260.116245 
L 47.531775 306.66963 
L 57.005425 353.223381 
L 66.479075 353.223717 
L 75.952725 353.223702 
L 85.426375 353.223732 
L 94.900025 353.223702 
L 104.373675 353.22358 
L 113.847325 353.223442 
L 123.320975 353.223336 
L 132.794625 353.222954 
L 142.268275 353.22236 
L 151.741925 353.221795 
L 161.215575 353.220072 
L 170.689225 353.216686 
L 180.162875 353.210677 
L 189.636525 353.198308 
L 199.110175 353.179243 
L 208.583825 353.148618 
L 218.057475 353.088648 
L 227.531125 352.990885 
L 237.004775 352.846864 
L 246.478425 352.63116 
L 255.952075 352.372522 
L 265.425725 352.062731 
L 274.899375 351.618328 
L 284.373025 350.981984 
L 293.846675 350.148847 
L 303.320325 349.190403 
L 312.793975 348.099804 
L 322.267625 346.73109 
L 331.741275 345.153261 
L 341.214925 343.331467 
L 350.688575 340.940497 
L 360.162225 337.861555 
L 369.635875 334.042268 
L 379.109525 329.068491 
L 388.583175 322.683724 
L 398.056825 315.263401 
L 407.530475 307.072548 
L 417.004125 298.254899 
L 426.477775 289.247764 
L 435.951425 280.347771 
L 445.425075 272.277559 
L 454.898725 265.987337 
L 464.372375 260.454786 
L 473.846025 255.606943 
L 483.319675 252.800594 
L 492.793325 251.32823 
L 502.266975 250.250137 
L 511.740625 248.453813 
L 521.214275 246.94512 
L 530.687925 247.203864 
L 540.161575 247.979365 
L 549.635225 248.75761 
L 559.108875 250.323833 
L 568.582525 252.938194 
L 578.056175 256.154187 
L 587.529825 259.255412 
L 597.003475 262.254603 
L 606.477125 265.86781 
L 615.950775 270.494626 
L 625.424425 276.274909 
L 634.898075 283.026647 
L 644.371725 290.153986 
L 653.845375 297.431051 
L 663.319025 304.80472 
L 672.792675 311.483218 
L 682.266325 317.520202 
L 691.739975 323.258498 
L 701.213625 328.492696 
L 710.687275 332.852242 
L 720.160925 336.423431 
L 729.634575 339.622724 
L 739.108225 342.070751 
L 748.581875 343.788025 
L 758.055525 345.350602 
L 767.529175 346.670831 
L 777.002825 347.696047 
L 786.476475 348.584257 
L 795.950125 349.385167 
L 805.423775 350.097236 
L 814.897425 350.667373 
L 824.371075 351.19206 
L 833.844725 351.667332 
L 843.318375 351.99599 
L 852.792025 352.264831 
L 862.265675 352.524398 
L 871.739325 352.740041 
L 881.212975 352.90691 
L 890.686625 353.035115 
L 900.160275 353.130911 
L 909.633925 353.19361 
L 919.107575 353.214795 
L 928.581225 353.219813 
L 938.054875 353.218821 
L 947.528525 353.209289 
L 957.002175 353.181241 
L 966.475825 353.084347 
L 975.949475 353.110184 
L 985.423125 353.218028 
" clip-path="url(#pdc1e7b8d04)" style="fill: none; stroke: #d9534f; stroke-linecap: square"/>
   </g>
   <g id="line2d_10">
    <path d="M 38.058125 321.181026 
L 47.531775 337.20219 
L 57.005425 353.223555 
L 66.479075 353.223742 
L 75.952725 353.223742 
L 85.426375 353.223728 
L 94.900025 353.223641 
L 104.373675 353.223397 
L 113.847325 353.223268 
L 123.320975 353.223282 
L 132.794625 353.222995 
L 142.268275 353.222434 
L 151.741925 353.221859 
L 161.215575 353.219948 
L 170.689225 353.216313 
L 180.162875 353.210407 
L 189.636525 353.199787 
L 199.110175 353.180676 
L 208.583825 353.147912 
L 218.057475 353.085705 
L 227.531125 352.994816 
L 237.004775 352.858346 
L 246.478425 352.652541 
L 255.952075 352.390636 
L 265.425725 352.068134 
L 274.899375 351.625988 
L 284.373025 350.999492 
L 293.846675 350.184262 
L 303.320325 349.247694 
L 312.793975 348.16004 
L 322.267625 346.771555 
L 331.741275 345.097698 
L 341.214925 343.088493 
L 350.688575 340.435418 
L 360.162225 336.945473 
L 369.635875 332.419836 
L 379.109525 326.481399 
L 388.583175 318.950856 
L 398.056825 310.322644 
L 407.530475 300.948106 
L 417.004125 291.114279 
L 426.477775 281.498083 
L 435.951425 272.381871 
L 445.425075 264.542003 
L 454.898725 258.716829 
L 464.372375 253.822678 
L 473.846025 249.926684 
L 483.319675 248.134779 
L 492.793325 247.393195 
L 502.266975 246.711863 
L 511.740625 245.605443 
L 521.214275 244.796967 
L 530.687925 245.552735 
L 540.161575 246.928675 
L 549.635225 248.10877 
L 559.108875 250.239486 
L 568.582525 253.576896 
L 578.056175 256.995883 
L 587.529825 259.969937 
L 597.003475 263.007204 
L 606.477125 266.763178 
L 615.950775 271.398356 
L 625.424425 277.068594 
L 634.898075 283.658143 
L 644.371725 290.518089 
L 653.845375 297.58417 
L 663.319025 304.843439 
L 672.792675 311.487162 
L 682.266325 317.462816 
L 691.739975 323.025999 
L 701.213625 328.105004 
L 710.687275 332.441965 
L 720.160925 336.00616 
L 729.634575 339.072856 
L 739.108225 341.429811 
L 748.581875 343.135712 
L 758.055525 344.691391 
L 767.529175 346.057503 
L 777.002825 347.168263 
L 786.476475 348.131559 
L 795.950125 348.982067 
L 805.423775 349.76337 
L 814.897425 350.426681 
L 824.371075 350.998112 
L 833.844725 351.504046 
L 843.318375 351.881987 
L 852.792025 352.184745 
L 862.265675 352.479025 
L 871.739325 352.722378 
L 881.212975 352.888896 
L 890.686625 353.011643 
L 900.160275 353.114646 
L 909.633925 353.186366 
L 919.107575 353.21295 
L 928.581225 353.220049 
L 938.054875 353.219991 
L 947.528525 353.215134 
L 957.002175 353.199989 
L 966.475825 353.1409 
L 975.949475 353.153387 
L 985.423125 353.218612 
" clip-path="url(#pdc1e7b8d04)" style="fill: none; stroke: #f0ad4e; stroke-linecap: square"/>
   </g>
   <g id="line2d_11">
    <path d="M 38.058125 294.612225 
L 47.531775 323.917844 
L 57.005425 353.223588 
L 66.479075 353.223713 
L 75.952725 353.223744 
L 85.426375 353.223775 
L 94.900025 353.223775 
L 104.373675 353.223744 
L 113.847325 353.223556 
L 123.320975 353.223244 
L 132.794625 353.222932 
L 142.268275 353.222807 
L 151.741925 353.222119 
L 161.215575 353.219652 
L 170.689225 353.216715 
L 180.162875 353.21153 
L 189.636525 353.19991 
L 199.110175 353.182854 
L 208.583825 353.153522 
L 218.057475 353.087143 
L 227.531125 352.981529 
L 237.004775 352.826998 
L 246.478425 352.587001 
L 255.952075 352.263537 
L 265.425725 351.849142 
L 274.899375 351.231828 
L 284.373025 350.269342 
L 293.846675 348.882901 
L 303.320325 347.115832 
L 312.793975 344.927246 
L 322.267625 342.13078 
L 331.741275 338.861786 
L 341.214925 335.140006 
L 350.688575 330.624577 
L 360.162225 325.28448 
L 369.635875 319.289867 
L 379.109525 312.627522 
L 388.583175 305.473376 
L 398.056825 298.449834 
L 407.530475 291.674754 
L 417.004125 285.05155 
L 426.477775 278.830465 
L 435.951425 273.033865 
L 445.425075 267.982746 
L 454.898725 264.265245 
L 464.372375 260.755973 
L 473.846025 257.490634 
L 483.319675 255.91049 
L 492.793325 255.234512 
L 502.266975 254.434273 
L 511.740625 252.831513 
L 521.214275 251.724303 
L 530.687925 252.484247 
L 540.161575 253.623724 
L 549.635225 254.638909 
L 559.108875 256.634417 
L 568.582525 259.507602 
L 578.056175 262.690006 
L 587.529825 265.569875 
L 597.003475 268.314425 
L 606.477125 271.821885 
L 615.950775 276.180534 
L 625.424425 281.405364 
L 634.898075 287.55782 
L 644.371725 294.190395 
L 653.845375 301.011145 
L 663.319025 307.859914 
L 672.792675 314.056852 
L 682.266325 319.684426 
L 691.739975 325.012246 
L 701.213625 329.874129 
L 710.687275 333.975257 
L 720.160925 337.35733 
L 729.634575 340.268125 
L 739.108225 342.475985 
L 748.581875 344.098393 
L 758.055525 345.575172 
L 767.529175 346.829854 
L 777.002825 347.815487 
L 786.476475 348.664145 
L 795.950125 349.451578 
L 805.423775 350.165102 
L 814.897425 350.746649 
L 824.371075 351.277279 
L 833.844725 351.735688 
L 843.318375 352.061463 
L 852.792025 352.327605 
L 862.265675 352.58875 
L 871.739325 352.797759 
L 881.212975 352.940421 
L 890.686625 353.042848 
L 900.160275 353.128938 
L 909.633925 353.193756 
L 919.107575 353.214747 
L 928.581225 353.220401 
L 938.054875 353.22112 
L 947.528525 353.21684 
L 957.002175 353.203252 
L 966.475825 353.153179 
L 975.949475 353.162925 
L 985.423125 353.218184 
" clip-path="url(#pdc1e7b8d04)" style="fill: none; stroke: #f0ad4e; stroke-linecap: square"/>
   </g>
   <g id="line2d_12">
    <path d="M 38.058125 255.33627 
L 47.531775 304.279915 
L 57.005425 353.223663 
L 66.479075 353.223764 
L 75.952725 353.223798 
L 85.426375 353.223849 
L 94.900025 353.223713 
L 104.373675 353.223595 
L 113.847325 353.223527 
L 123.320975 353.223425 
L 132.794625 353.223238 
L 142.268275 353.222831 
L 151.741925 353.222305 
L 161.215575 353.220422 
L 170.689225 353.217963 
L 180.162875 353.214739 
L 189.636525 353.206664 
L 199.110175 353.191482 
L 208.583825 353.164034 
L 218.057475 353.118282 
L 227.531125 353.047881 
L 237.004775 352.938937 
L 246.478425 352.770161 
L 255.952075 352.542995 
L 265.425725 352.27084 
L 274.899375 351.905281 
L 284.373025 351.364601 
L 293.846675 350.616823 
L 303.320325 349.709329 
L 312.793975 348.623779 
L 322.267625 347.228703 
L 331.741275 345.512242 
L 341.214925 343.418465 
L 350.688575 340.647159 
L 360.162225 337.013313 
L 369.635875 332.489412 
L 379.109525 326.89243 
L 388.583175 320.197549 
L 398.056825 312.71874 
L 407.530475 304.788533 
L 417.004125 296.620014 
L 426.477775 288.592773 
L 435.951425 280.596881 
L 445.425075 272.929346 
L 454.898725 266.901544 
L 464.372375 261.528352 
L 473.846025 256.500193 
L 483.319675 253.346381 
L 492.793325 251.599249 
L 502.266975 250.372269 
L 511.740625 248.539604 
L 521.214275 246.968779 
L 530.687925 247.252724 
L 540.161575 248.242732 
L 549.635225 249.164408 
L 559.108875 251.061554 
L 568.582525 254.014105 
L 578.056175 257.335438 
L 587.529825 260.371672 
L 597.003475 263.342544 
L 606.477125 267.084569 
L 615.950775 271.747779 
L 625.424425 277.541002 
L 634.898075 284.165516 
L 644.371725 291.194607 
L 653.845375 298.483181 
L 663.319025 305.700896 
L 672.792675 312.181928 
L 682.266325 318.062889 
L 691.739975 323.631167 
L 701.213625 328.700125 
L 710.687275 332.961184 
L 720.160925 336.390001 
L 729.634575 339.420688 
L 739.108225 341.825705 
L 748.581875 343.491224 
L 758.055525 345.013819 
L 767.529175 346.338495 
L 777.002825 347.363194 
L 786.476475 348.276779 
L 795.950125 349.091836 
L 805.423775 349.877698 
L 814.897425 350.553887 
L 824.371075 351.127154 
L 833.844725 351.63394 
L 843.318375 351.984774 
L 852.792025 352.25525 
L 862.265675 352.502858 
L 871.739325 352.725919 
L 881.212975 352.912388 
L 890.686625 353.053665 
L 900.160275 353.146866 
L 909.633925 353.197266 
L 919.107575 353.215197 
L 928.581225 353.219574 
L 938.054875 353.219472 
L 947.528525 353.213213 
L 957.002175 353.190481 
L 966.475825 353.113107 
L 975.949475 353.131293 
L 985.423125 353.216639 
" clip-path="url(#pdc1e7b8d04)" style="fill: none; stroke: #d9534f; stroke-linecap: square"/>
   </g>
   <g id="line2d_13">
    <path d="M 38.058125 242.191308 
L 47.531775 297.707215 
L 57.005425 353.223446 
L 66.479075 353.223738 
L 75.952725 353.223705 
L 85.426375 353.223738 
L 94.900025 353.223721 
L 104.373675 353.223462 
L 113.847325 353.223235 
L 123.320975 353.223089 
L 132.794625 353.222796 
L 142.268275 353.222683 
L 151.741925 353.222293 
L 161.215575 353.220346 
L 170.689225 353.217571 
L 180.162875 353.213205 
L 189.636525 353.204149 
L 199.110175 353.192707 
L 208.583825 353.174514 
L 218.057475 353.134493 
L 227.531125 353.074072 
L 237.004775 352.986629 
L 246.478425 352.850969 
L 255.952075 352.679507 
L 265.425725 352.476252 
L 274.899375 352.214118 
L 284.373025 351.812574 
L 293.846675 351.276523 
L 303.320325 350.668511 
L 312.793975 349.9529 
L 322.267625 349.056365 
L 331.741275 347.995802 
L 341.214925 346.737209 
L 350.688575 345.065924 
L 360.162225 342.810337 
L 369.635875 339.916326 
L 379.109525 336.074301 
L 388.583175 331.041067 
L 398.056825 324.899685 
L 407.530475 317.64652 
L 417.004125 309.2014 
L 426.477775 299.947919 
L 435.951425 290.38295 
L 445.425075 281.120769 
L 454.898725 273.249888 
L 464.372375 265.991286 
L 473.846025 259.439841 
L 483.319675 255.115564 
L 492.793325 252.408465 
L 502.266975 250.343507 
L 511.740625 247.842681 
L 521.214275 245.364836 
L 530.687925 244.019449 
L 540.161575 243.503912 
L 549.635225 243.528126 
L 559.108875 244.892289 
L 568.582525 247.627206 
L 578.056175 250.701426 
L 587.529825 253.708344 
L 597.003475 256.769273 
L 606.477125 260.461698 
L 615.950775 265.280982 
L 625.424425 271.226315 
L 634.898075 278.177421 
L 644.371725 285.808061 
L 653.845375 293.67878 
L 663.319025 301.485134 
L 672.792675 308.508217 
L 682.266325 314.861326 
L 691.739975 320.909974 
L 701.213625 326.51756 
L 710.687275 331.242845 
L 720.160925 335.037091 
L 729.634575 338.272614 
L 739.108225 340.70294 
L 748.581875 342.452905 
L 758.055525 344.142529 
L 767.529175 345.568007 
L 777.002825 346.635257 
L 786.476475 347.654793 
L 795.950125 348.573221 
L 805.423775 349.403411 
L 814.897425 350.120045 
L 824.371075 350.758665 
L 833.844725 351.325795 
L 843.318375 351.712651 
L 852.792025 351.97933 
L 862.265675 352.22246 
L 871.739325 352.475295 
L 881.212975 352.706561 
L 890.686625 352.904769 
L 900.160275 353.067613 
L 909.633925 353.174109 
L 919.107575 353.209862 
L 928.581225 353.217749 
L 938.054875 353.217278 
L 947.528525 353.208401 
L 957.002175 353.177111 
L 966.475825 353.061348 
L 975.949475 353.084653 
L 985.423125 353.211533 
" clip-path="url(#pdc1e7b8d04)" style="fill: none; stroke: #d9534f; stroke-linecap: square"/>
   </g>
   <g id="line2d_14">
    <path d="M 38.058125 308.381199 
L 47.531775 330.80249 
L 57.005425 353.223796 
L 66.479075 353.223825 
L 75.952725 353.223796 
L 85.426375 353.223676 
L 94.900025 353.223602 
L 104.373675 353.223423 
L 113.847325 353.223154 
L 123.320975 353.223005 
L 132.794625 353.222722 
L 142.268275 353.222438 
L 151.741925 353.221767 
L 161.215575 353.219873 
L 170.689225 353.216651 
L 180.162875 353.212415 
L 189.636525 353.204241 
L 199.110175 353.189981 
L 208.583825 353.16358 
L 218.057475 353.116878 
L 227.531125 353.041717 
L 237.004775 352.927088 
L 246.478425 352.758046 
L 255.952075 352.528027 
L 265.425725 352.241268 
L 274.899375 351.85684 
L 284.373025 351.295449 
L 293.846675 350.55432 
L 303.320325 349.695834 
L 312.793975 348.688024 
L 322.267625 347.388846 
L 331.741275 345.761577 
L 341.214925 343.700687 
L 350.688575 340.927158 
L 360.162225 337.182483 
L 369.635875 332.241221 
L 379.109525 325.780667 
L 388.583175 317.678585 
L 398.056825 308.464728 
L 407.530475 298.625401 
L 417.004125 288.586888 
L 426.477775 278.974626 
L 435.951425 270.083028 
L 445.425075 262.567724 
L 454.898725 257.161309 
L 464.372375 252.692211 
L 473.846025 249.044295 
L 483.319675 247.404646 
L 492.793325 246.826624 
L 502.266975 246.398283 
L 511.740625 245.512873 
L 521.214275 244.938684 
L 530.687925 245.84705 
L 540.161575 247.382795 
L 549.635225 248.787756 
L 559.108875 251.175052 
L 568.582525 254.806903 
L 578.056175 258.537662 
L 587.529825 261.832309 
L 597.003475 264.969174 
L 606.477125 268.964005 
L 615.950775 273.907698 
L 625.424425 279.50617 
L 634.898075 285.949168 
L 644.371725 292.813646 
L 653.845375 299.80913 
L 663.319025 306.917975 
L 672.792675 313.269628 
L 682.266325 318.914042 
L 691.739975 324.264597 
L 701.213625 329.148238 
L 710.687275 333.288514 
L 720.160925 336.665004 
L 729.634575 339.631769 
L 739.108225 341.934894 
L 748.581875 343.553168 
L 758.055525 345.009217 
L 767.529175 346.281248 
L 777.002825 347.327661 
L 786.476475 348.249152 
L 795.950125 349.054628 
L 805.423775 349.818234 
L 814.897425 350.500817 
L 824.371075 351.101601 
L 833.844725 351.609384 
L 843.318375 351.960237 
L 852.792025 352.238344 
L 862.265675 352.502625 
L 871.739325 352.729869 
L 881.212975 352.898121 
L 890.686625 353.023102 
L 900.160275 353.120652 
L 909.633925 353.186267 
L 919.107575 353.212474 
L 928.581225 353.219216 
L 938.054875 353.219768 
L 947.528525 353.213906 
L 957.002175 353.195664 
L 966.475825 353.133256 
L 975.949475 353.14944 
L 985.423125 353.219545 
" clip-path="url(#pdc1e7b8d04)" style="fill: none; stroke: #f0ad4e; stroke-linecap: square"/>
   </g>
   <g id="line2d_15">
    <path d="M 38.058125 186.777206 
L 47.531775 269.984715 
L 57.005425 353.205992 
L 66.479075 353.21982 
L 75.952725 353.21976 
L 85.426375 353.21985 
L 94.900025 353.22021 
L 104.373675 353.219521 
L 113.847325 353.218591 
L 123.320975 353.217991 
L 132.794625 353.216491 
L 142.268275 353.215471 
L 151.741925 353.213761 
L 161.215575 353.209082 
L 170.689225 353.201883 
L 180.162875 353.194114 
L 189.636525 353.183285 
L 199.110175 353.165377 
L 208.583825 353.128871 
L 218.057475 353.066869 
L 227.531125 352.963021 
L 237.004775 352.794201 
L 246.478425 352.564369 
L 255.952075 352.283542 
L 265.425725 351.912667 
L 274.899375 351.397328 
L 284.373025 350.670635 
L 293.846675 349.680513 
L 303.320325 348.396997 
L 312.793975 346.823415 
L 322.267625 344.898035 
L 331.741275 342.570703 
L 341.214925 339.756769 
L 350.688575 336.31834 
L 360.162225 332.149918 
L 369.635875 327.253393 
L 379.109525 321.512499 
L 388.583175 314.941214 
L 398.056825 308.198079 
L 407.530475 301.635553 
L 417.004125 295.109743 
L 426.477775 288.706018 
L 435.951425 282.607267 
L 445.425075 277.406638 
L 454.898725 273.813667 
L 464.372375 270.461688 
L 473.846025 267.17531 
L 483.319675 265.448987 
L 492.793325 264.143153 
L 502.266975 262.207064 
L 511.740625 259.05798 
L 521.214275 254.099453 
L 530.687925 249.031138 
L 540.161575 247.012109 
L 549.635225 249.233854 
L 559.108875 254.358262 
L 568.582525 259.271045 
L 578.056175 262.842448 
L 587.529825 266.114757 
L 597.003475 269.51884 
L 606.477125 273.210859 
L 615.950775 277.730629 
L 625.424425 282.752299 
L 634.898075 288.18528 
L 644.371725 294.459991 
L 653.845375 301.112806 
L 663.319025 307.866919 
L 672.792675 313.867192 
L 682.266325 319.434917 
L 691.739975 324.859859 
L 701.213625 329.736856 
L 710.687275 333.88692 
L 720.160925 337.346587 
L 729.634575 340.24742 
L 739.108225 342.377046 
L 748.581875 343.922731 
L 758.055525 345.410433 
L 767.529175 346.667313 
L 777.002825 347.603022 
L 786.476475 348.431283 
L 795.950125 349.200901 
L 805.423775 349.925584 
L 814.897425 350.512974 
L 824.371075 351.041181 
L 833.844725 351.533692 
L 843.318375 351.910147 
L 852.792025 352.210561 
L 862.265675 352.483618 
L 871.739325 352.705022 
L 881.212975 352.864633 
L 890.686625 352.985159 
L 900.160275 353.098305 
L 909.633925 353.184725 
L 919.107575 353.210882 
L 928.581225 353.217241 
L 938.054875 353.216041 
L 947.528525 353.201193 
L 957.002175 353.152509 
L 966.475825 352.952072 
L 975.949475 352.984289 
L 985.423125 353.201883 
" clip-path="url(#pdc1e7b8d04)" style="fill: none; stroke: #d9534f; stroke-linecap: square"/>
   </g>
   <g id="line2d_16">
    <path d="M 38.058125 256.932124 
L 47.531775 305.074724 
L 57.005425 353.219931 
L 66.479075 353.222612 
L 75.952725 353.222673 
L 85.426375 353.222824 
L 94.900025 353.222658 
L 104.373675 353.222097 
L 113.847325 353.2219 
L 123.320975 353.221491 
L 132.794625 353.220794 
L 142.268275 353.220522 
L 151.741925 353.219325 
L 161.215575 353.215931 
L 170.689225 353.210659 
L 180.162875 353.202464 
L 189.636525 353.185784 
L 199.110175 353.159243 
L 208.583825 353.115022 
L 218.057475 353.032988 
L 227.531125 352.899613 
L 237.004775 352.697263 
L 246.478425 352.395063 
L 255.952075 352.011375 
L 265.425725 351.524051 
L 274.899375 350.855555 
L 284.373025 349.975998 
L 293.846675 348.894591 
L 303.320325 347.632815 
L 312.793975 346.172235 
L 322.267625 344.472446 
L 331.741275 342.603484 
L 341.214925 340.626917 
L 350.688575 338.351937 
L 360.162225 335.644791 
L 369.635875 332.491557 
L 379.109525 328.610684 
L 388.583175 323.875554 
L 398.056825 318.482986 
L 407.530475 312.414818 
L 417.004125 305.457897 
L 426.477775 297.799 
L 435.951425 289.734828 
L 445.425075 281.793198 
L 454.898725 275.041536 
L 464.372375 268.700315 
L 473.846025 262.926211 
L 483.319675 259.244507 
L 492.793325 256.770434 
L 502.266975 254.420162 
L 511.740625 251.77072 
L 521.214275 248.810959 
L 530.687925 246.57867 
L 540.161575 245.936822 
L 549.635225 246.572883 
L 559.108875 248.661813 
L 568.582525 251.76463 
L 578.056175 254.843193 
L 587.529825 257.554853 
L 597.003475 260.247031 
L 606.477125 263.738838 
L 615.950775 268.438277 
L 625.424425 273.862915 
L 634.898075 280.042916 
L 644.371725 286.988354 
L 653.845375 294.212752 
L 663.319025 301.485083 
L 672.792675 308.158423 
L 682.266325 314.474586 
L 691.739975 320.515834 
L 701.213625 326.003827 
L 710.687275 330.716006 
L 720.160925 334.648387 
L 729.634575 338.005819 
L 739.108225 340.514039 
L 748.581875 342.330993 
L 758.055525 343.970214 
L 767.529175 345.376394 
L 777.002825 346.501219 
L 786.476475 347.51362 
L 795.950125 348.412311 
L 805.423775 349.233876 
L 814.897425 349.95591 
L 824.371075 350.60203 
L 833.844725 351.186189 
L 843.318375 351.600964 
L 852.792025 351.910723 
L 862.265675 352.200561 
L 871.739325 352.467189 
L 881.212975 352.681947 
L 890.686625 352.854392 
L 900.160275 353.018202 
L 909.633925 353.141836 
L 919.107575 353.19351 
L 928.581225 353.210356 
L 938.054875 353.21119 
L 947.528525 353.192056 
L 957.002175 353.124399 
L 966.475825 352.877389 
L 975.949475 352.934471 
L 985.423125 353.205281 
" clip-path="url(#pdc1e7b8d04)" style="fill: none; stroke: #d9534f; stroke-linecap: square"/>
   </g>
   <g id="line2d_17">
    <path d="M 38.058125 319.069682 
L 47.531775 336.143183 
L 57.005425 353.219882 
L 66.479075 353.223162 
L 75.952725 353.223142 
L 85.426375 353.222916 
L 94.900025 353.222773 
L 104.373675 353.222342 
L 113.847325 353.221645 
L 123.320975 353.221297 
L 132.794625 353.220969 
L 142.268275 353.220128 
L 151.741925 353.218652 
L 161.215575 353.216418 
L 170.689225 353.212359 
L 180.162875 353.204222 
L 189.636525 353.189483 
L 199.110175 353.165172 
L 208.583825 353.125283 
L 218.057475 353.050833 
L 227.531125 352.923395 
L 237.004775 352.724767 
L 246.478425 352.439061 
L 255.952075 352.066464 
L 265.425725 351.593732 
L 274.899375 350.956748 
L 284.373025 350.123184 
L 293.846675 349.080518 
L 303.320325 347.815117 
L 312.793975 346.350432 
L 322.267625 344.62261 
L 331.741275 342.639031 
L 341.214925 340.401171 
L 350.688575 337.605921 
L 360.162225 334.139434 
L 369.635875 329.862055 
L 379.109525 324.350986 
L 388.583175 317.533847 
L 398.056825 309.722767 
L 407.530475 301.269024 
L 417.004125 292.272261 
L 426.477775 283.132563 
L 435.951425 274.359908 
L 445.425075 266.714064 
L 454.898725 261.046306 
L 464.372375 256.242305 
L 473.846025 252.330985 
L 483.319675 250.583485 
L 492.793325 249.711959 
L 502.266975 248.651541 
L 511.740625 247.062513 
L 521.214275 245.305215 
L 530.687925 244.756045 
L 540.161575 245.531393 
L 549.635225 247.246854 
L 559.108875 250.266273 
L 568.582525 254.002744 
L 578.056175 257.439918 
L 587.529825 260.430968 
L 597.003475 263.37438 
L 606.477125 266.936819 
L 615.950775 271.577879 
L 625.424425 277.037518 
L 634.898075 283.244627 
L 644.371725 290.010438 
L 653.845375 296.933758 
L 663.319025 304.070895 
L 672.792675 310.736756 
L 682.266325 316.888253 
L 691.739975 322.759211 
L 701.213625 328.078703 
L 710.687275 332.631149 
L 720.160925 336.422473 
L 729.634575 339.579333 
L 739.108225 341.990301 
L 748.581875 343.880326 
L 758.055525 345.541078 
L 767.529175 346.905342 
L 777.002825 347.983839 
L 786.476475 348.920242 
L 795.950125 349.785229 
L 805.423775 350.554571 
L 814.897425 351.174521 
L 824.371075 351.69524 
L 833.844725 352.155857 
L 843.318375 352.504533 
L 852.792025 352.756129 
L 862.265675 352.947276 
L 871.739325 353.081088 
L 881.212975 353.154903 
L 890.686625 353.192845 
L 900.160275 353.210166 
L 909.633925 353.217996 
L 919.107575 353.220682 
L 928.581225 353.221399 
L 938.054875 353.21937 
L 947.528525 353.209941 
L 957.002175 353.183272 
L 966.475825 353.099537 
L 975.949475 353.119625 
L 985.423125 353.213835 
" clip-path="url(#pdc1e7b8d04)" style="fill: none; stroke: #f0ad4e; stroke-linecap: square"/>
   </g>
   <g id="line2d_18">
    <path d="M 38.058125 275.493205 
L 47.531775 314.351976 
L 57.005425 353.215995 
L 66.479075 353.221422 
L 75.952725 353.221648 
L 85.426375 353.221713 
L 94.900025 353.221632 
L 104.373675 353.221276 
L 113.847325 353.220774 
L 123.320975 353.220239 
L 132.794625 353.21985 
L 142.268275 353.219526 
L 151.741925 353.218457 
L 161.215575 353.214099 
L 170.689225 353.207231 
L 180.162875 353.199634 
L 189.636525 353.186577 
L 199.110175 353.162683 
L 208.583825 353.124032 
L 218.057475 353.055622 
L 227.531125 352.943313 
L 237.004775 352.764505 
L 246.478425 352.508541 
L 255.952075 352.198601 
L 265.425725 351.800569 
L 274.899375 351.258493 
L 284.373025 350.525218 
L 293.846675 349.593647 
L 303.320325 348.507811 
L 312.793975 347.237725 
L 322.267625 345.725929 
L 331.741275 343.972765 
L 341.214925 341.92552 
L 350.688575 339.337203 
L 360.162225 335.991765 
L 369.635875 331.789355 
L 379.109525 326.382028 
L 388.583175 319.604519 
L 398.056825 311.882027 
L 407.530475 303.598992 
L 417.004125 294.89442 
L 426.477775 286.184551 
L 435.951425 277.916937 
L 445.425075 270.705791 
L 454.898725 265.469657 
L 464.372375 261.044799 
L 473.846025 257.19686 
L 483.319675 255.321991 
L 492.793325 254.455785 
L 502.266975 253.482533 
L 511.740625 251.894666 
L 521.214275 250.283197 
L 530.687925 249.841945 
L 540.161575 250.353745 
L 549.635225 251.356446 
L 559.108875 253.277888 
L 568.582525 255.892286 
L 578.056175 258.413586 
L 587.529825 260.673933 
L 597.003475 263.19768 
L 606.477125 266.584782 
L 615.950775 270.996972 
L 625.424425 276.158444 
L 634.898075 282.175073 
L 644.371725 288.954672 
L 653.845375 295.972043 
L 663.319025 303.021812 
L 672.792675 309.537201 
L 682.266325 315.656032 
L 691.739975 321.554115 
L 701.213625 326.88887 
L 710.687275 331.407895 
L 720.160925 335.216501 
L 729.634575 338.491699 
L 739.108225 340.912418 
L 748.581875 342.712366 
L 758.055525 344.433067 
L 767.529175 345.856107 
L 777.002825 346.9417 
L 786.476475 347.917057 
L 795.950125 348.803464 
L 805.423775 349.624442 
L 814.897425 350.330503 
L 824.371075 350.950302 
L 833.844725 351.498955 
L 843.318375 351.911226 
L 852.792025 352.241269 
L 862.265675 352.525113 
L 871.739325 352.770742 
L 881.212975 352.954587 
L 890.686625 353.077491 
L 900.160275 353.157467 
L 909.633925 353.20033 
L 919.107575 353.215379 
L 928.581225 353.218732 
L 938.054875 353.217064 
L 947.528525 353.205724 
L 957.002175 353.163655 
L 966.475825 353.009033 
L 975.949475 353.042663 
L 985.423125 353.210665 
" clip-path="url(#pdc1e7b8d04)" style="fill: none; stroke: #d9534f; stroke-linecap: square"/>
   </g>
   <g id="line2d_19">
    <path d="M 38.058125 216.294466 
L 47.531775 284.751494 
L 57.005425 353.21481 
L 66.479075 353.22147 
L 75.952725 353.221585 
L 85.426375 353.221299 
L 94.900025 353.221542 
L 104.373675 353.221456 
L 113.847325 353.220956 
L 123.320975 353.220527 
L 132.794625 353.219412 
L 142.268275 353.218498 
L 151.741925 353.217526 
L 161.215575 353.214653 
L 170.689225 353.208965 
L 180.162875 353.201032 
L 189.636525 353.186554 
L 199.110175 353.166731 
L 208.583825 353.138175 
L 218.057475 353.080706 
L 227.531125 352.979845 
L 237.004775 352.82353 
L 246.478425 352.605202 
L 255.952075 352.330004 
L 265.425725 351.985774 
L 274.899375 351.525649 
L 284.373025 350.879352 
L 293.846675 350.048042 
L 303.320325 349.077868 
L 312.793975 347.91835 
L 322.267625 346.485964 
L 331.741275 344.769662 
L 341.214925 342.674128 
L 350.688575 339.990653 
L 360.162225 336.504367 
L 369.635875 331.986136 
L 379.109525 326.213243 
L 388.583175 319.095804 
L 398.056825 311.053283 
L 407.530475 302.604461 
L 417.004125 293.882957 
L 426.477775 285.396347 
L 435.951425 277.525919 
L 445.425075 270.68365 
L 454.898725 265.859778 
L 464.372375 261.841733 
L 473.846025 258.240151 
L 483.319675 256.557436 
L 492.793325 255.875609 
L 502.266975 255.051573 
L 511.740625 253.722463 
L 521.214275 252.481208 
L 530.687925 252.459555 
L 540.161575 253.310102 
L 549.635225 254.373819 
L 559.108875 256.273005 
L 568.582525 259.053496 
L 578.056175 261.992974 
L 587.529825 264.638103 
L 597.003475 267.31183 
L 606.477125 270.750023 
L 615.950775 275.140582 
L 625.424425 280.310998 
L 634.898075 286.354858 
L 644.371725 293.083505 
L 653.845375 299.981643 
L 663.319025 306.815409 
L 672.792675 312.974322 
L 682.266325 318.653901 
L 691.739975 324.123555 
L 701.213625 329.06771 
L 710.687275 333.245685 
L 720.160925 336.738275 
L 729.634575 339.704651 
L 739.108225 341.90629 
L 748.581875 343.581016 
L 758.055525 345.155939 
L 767.529175 346.427023 
L 777.002825 347.427796 
L 786.476475 348.336599 
L 795.950125 349.148558 
L 805.423775 349.916653 
L 814.897425 350.575756 
L 824.371075 351.150577 
L 833.844725 351.665299 
L 843.318375 352.044358 
L 852.792025 352.343896 
L 862.265675 352.597184 
L 871.739325 352.813812 
L 881.212975 352.992208 
L 890.686625 353.113135 
L 900.160275 353.175292 
L 909.633925 353.20442 
L 919.107575 353.214982 
L 928.581225 353.218212 
L 938.054875 353.217154 
L 947.528525 353.205149 
L 957.002175 353.162686 
L 966.475825 353.006514 
L 975.949475 353.040802 
L 985.423125 353.211137 
" clip-path="url(#pdc1e7b8d04)" style="fill: none; stroke: #d9534f; stroke-linecap: square"/>
   </g>
   <g id="line2d_20">
    <path d="M 38.058125 330.506205 
L 47.531775 341.862592 
L 57.005425 353.221118 
L 66.479075 353.223243 
L 75.952725 353.223289 
L 85.426375 353.223396 
L 94.900025 353.223319 
L 104.373675 353.223044 
L 113.847325 353.222448 
L 123.320975 353.221928 
L 132.794625 353.221546 
L 142.268275 353.221057 
L 151.741925 353.219987 
L 161.215575 353.217695 
L 170.689225 353.212804 
L 180.162875 353.203986 
L 189.636525 353.188825 
L 199.110175 353.16376 
L 208.583825 353.119745 
L 218.057475 353.035595 
L 227.531125 352.897465 
L 237.004775 352.690055 
L 246.478425 352.389204 
L 255.952075 352.010729 
L 265.425725 351.53383 
L 274.899375 350.890053 
L 284.373025 350.009935 
L 293.846675 348.887318 
L 303.320325 347.543032 
L 312.793975 345.932741 
L 322.267625 343.879449 
L 331.741275 341.330321 
L 341.214925 338.169558 
L 350.688575 334.010475 
L 360.162225 328.836553 
L 369.635875 322.532724 
L 379.109525 314.516221 
L 388.583175 305.294693 
L 398.056825 295.923068 
L 407.530475 286.653795 
L 417.004125 277.498184 
L 426.477775 268.754365 
L 435.951425 260.850377 
L 445.425075 254.487096 
L 454.898725 250.641351 
L 464.372375 247.620704 
L 473.846025 245.172615 
L 483.319675 245.034928 
L 492.793325 245.729292 
L 502.266975 245.571355 
L 511.740625 244.75344 
L 521.214275 245.431681 
L 530.687925 248.350801 
L 540.161575 251.503602 
L 549.635225 254.206021 
L 559.108875 257.816846 
L 568.582525 262.322645 
L 578.056175 266.302042 
L 587.529825 269.264826 
L 597.003475 272.114025 
L 606.477125 275.937211 
L 615.950775 280.862612 
L 625.424425 286.21894 
L 634.898075 291.795943 
L 644.371725 297.663924 
L 653.845375 303.76311 
L 663.319025 310.140605 
L 672.792675 316.06865 
L 682.266325 321.528231 
L 691.739975 326.753872 
L 701.213625 331.488965 
L 710.687275 335.516626 
L 720.160925 338.854569 
L 729.634575 341.69495 
L 739.108225 343.851603 
L 748.581875 345.48433 
L 758.055525 346.935048 
L 767.529175 348.103424 
L 777.002825 349.019365 
L 786.476475 349.823892 
L 795.950125 350.521268 
L 805.423775 351.123383 
L 814.897425 351.631322 
L 824.371075 352.07469 
L 833.844725 352.436689 
L 843.318375 352.700127 
L 852.792025 352.896731 
L 862.265675 353.029711 
L 871.739325 353.118965 
L 881.212975 353.175009 
L 890.686625 353.203925 
L 900.160275 353.213675 
L 909.633925 353.218597 
L 919.107575 353.220828 
L 928.581225 353.220538 
L 938.054875 353.217894 
L 947.528525 353.207562 
L 957.002175 353.173786 
L 966.475825 353.046675 
L 975.949475 353.076432 
L 985.423125 353.215769 
" clip-path="url(#pdc1e7b8d04)" style="fill: none; stroke: #f0ad4e; stroke-linecap: square"/>
   </g>
   <g id="line2d_21">
    <path d="M 38.058125 280.170088 
L 47.531775 316.687801 
L 57.005425 353.213055 
L 66.479075 353.22074 
L 75.952725 353.221027 
L 85.426375 353.221099 
L 94.900025 353.221153 
L 104.373675 353.220776 
L 113.847325 353.21977 
L 123.320975 353.218711 
L 132.794625 353.218478 
L 142.268275 353.218136 
L 151.741925 353.21591 
L 161.215575 353.21187 
L 170.689225 353.206053 
L 180.162875 353.196806 
L 189.636525 353.178654 
L 199.110175 353.153319 
L 208.583825 353.111861 
L 218.057475 353.032877 
L 227.531125 352.908 
L 237.004775 352.721341 
L 246.478425 352.456505 
L 255.952075 352.115038 
L 265.425725 351.687548 
L 274.899375 351.120907 
L 284.373025 350.357391 
L 293.846675 349.378019 
L 303.320325 348.222456 
L 312.793975 346.850554 
L 322.267625 345.176271 
L 331.741275 343.210527 
L 341.214925 340.860186 
L 350.688575 337.844759 
L 360.162225 334.029348 
L 369.635875 329.342959 
L 379.109525 323.409815 
L 388.583175 316.11335 
L 398.056825 307.932621 
L 407.530475 299.279587 
L 417.004125 290.327101 
L 426.477775 281.471086 
L 435.951425 273.206903 
L 445.425075 266.131374 
L 454.898725 261.1165 
L 464.372375 256.939476 
L 473.846025 253.352434 
L 483.319675 251.88923 
L 492.793325 251.422347 
L 502.266975 250.635238 
L 511.740625 249.26795 
L 521.214275 247.848897 
L 530.687925 247.493748 
L 540.161575 248.547722 
L 549.635225 250.614105 
L 559.108875 253.848691 
L 568.582525 257.542978 
L 578.056175 260.751116 
L 587.529825 263.589777 
L 597.003475 266.615134 
L 606.477125 270.499061 
L 615.950775 275.234072 
L 625.424425 280.504283 
L 634.898075 286.468634 
L 644.371725 293.02004 
L 653.845375 299.674992 
L 663.319025 306.492274 
L 672.792675 312.837611 
L 682.266325 318.655395 
L 691.739975 324.201341 
L 701.213625 329.204993 
L 710.687275 333.530613 
L 720.160925 337.146508 
L 729.634575 340.177629 
L 739.108225 342.467371 
L 748.581875 344.190849 
L 758.055525 345.757581 
L 767.529175 347.016529 
L 777.002825 347.986905 
L 786.476475 348.88406 
L 795.950125 349.672624 
L 805.423775 350.361323 
L 814.897425 350.943441 
L 824.371075 351.466684 
L 833.844725 351.919041 
L 843.318375 352.250867 
L 852.792025 352.513512 
L 862.265675 352.745903 
L 871.739325 352.931324 
L 881.212975 353.057404 
L 890.686625 353.142061 
L 900.160275 353.188062 
L 909.633925 353.210039 
L 919.107575 353.216951 
L 928.581225 353.218567 
L 938.054875 353.216251 
L 947.528525 353.202067 
L 957.002175 353.153481 
L 966.475825 352.975601 
L 975.949475 353.012516 
L 985.423125 353.206807 
" clip-path="url(#pdc1e7b8d04)" style="fill: none; stroke: #d9534f; stroke-linecap: square"/>
   </g>
   <g id="line2d_22">
    <path d="M 38.058125 296.509637 
L 47.531775 324.866619 
L 57.005425 353.223723 
L 66.479075 353.223818 
L 75.952725 353.223777 
L 85.426375 353.223655 
L 94.900025 353.223573 
L 104.373675 353.223464 
L 113.847325 353.223287 
L 123.320975 353.222797 
L 132.794625 353.222348 
L 142.268275 353.222252 
L 151.741925 353.221667 
L 161.215575 353.219883 
L 170.689225 353.216138 
L 180.162875 353.211017 
L 189.636525 353.199455 
L 199.110175 353.178619 
L 208.583825 353.14667 
L 218.057475 353.086681 
L 227.531125 352.99206 
L 237.004775 352.844355 
L 246.478425 352.628286 
L 255.952075 352.353194 
L 265.425725 352.002615 
L 274.899375 351.522935 
L 284.373025 350.82126 
L 293.846675 349.900615 
L 303.320325 348.822569 
L 312.793975 347.518035 
L 322.267625 345.86039 
L 331.741275 343.810058 
L 341.214925 341.273631 
L 350.688575 337.864401 
L 360.162225 333.366516 
L 369.635875 327.760392 
L 379.109525 320.861828 
L 388.583175 312.793621 
L 398.056825 304.259106 
L 407.530475 295.753325 
L 417.004125 287.482966 
L 426.477775 280.065391 
L 435.951425 273.149763 
L 445.425075 266.800143 
L 454.898725 262.104042 
L 464.372375 257.566201 
L 473.846025 253.258374 
L 483.319675 251.077346 
L 492.793325 250.251799 
L 502.266975 250.275127 
L 511.740625 249.409406 
L 521.214275 248.305907 
L 530.687925 249.132584 
L 540.161575 250.577401 
L 549.635225 252.226835 
L 559.108875 254.258183 
L 568.582525 255.820159 
L 578.056175 257.806143 
L 587.529825 260.863624 
L 597.003475 264.771928 
L 606.477125 269.008857 
L 615.950775 273.741483 
L 625.424425 280.566644 
L 634.898075 287.9394 
L 644.371725 295.044338 
L 653.845375 302.260265 
L 663.319025 308.841902 
L 672.792675 314.600102 
L 682.266325 319.816099 
L 691.739975 324.757658 
L 701.213625 329.240127 
L 710.687275 332.600154 
L 720.160925 335.226013 
L 729.634575 338.396445 
L 739.108225 341.140484 
L 748.581875 342.84081 
L 758.055525 344.476529 
L 767.529175 345.913679 
L 777.002825 346.906188 
L 786.476475 347.751387 
L 795.950125 348.686767 
L 805.423775 349.615746 
L 814.897425 350.33033 
L 824.371075 350.977531 
L 833.844725 351.542899 
L 843.318375 351.879614 
L 852.792025 352.145677 
L 862.265675 352.42514 
L 871.739325 352.699142 
L 881.212975 352.945622 
L 890.686625 353.108838 
L 900.160275 353.174002 
L 909.633925 353.203118 
L 919.107575 353.212678 
L 928.581225 353.217186 
L 938.054875 353.217254 
L 947.528525 353.208743 
L 957.002175 353.181029 
L 966.475825 353.081315 
L 975.949475 353.104467 
L 985.423125 353.215184 
" clip-path="url(#pdc1e7b8d04)" style="fill: none; stroke: #f0ad4e; stroke-linecap: square"/>
   </g>
   <g id="line2d_23">
    <path d="M 38.058125 353.2239 
L 985.423125 353.2239 
" clip-path="url(#pdc1e7b8d04)" style="fill: none; stroke: #dedede; stroke-width: 2; stroke-linecap: square"/>
   </g>
   <g id="text_15">
    <!-- FastQC: Per Sequence GC Content -->
    <g transform="translate(375.104375 19.3575) scale(0.16 -0.16)">
     <defs>
      <path id="DejaVuSans-46" d="M 628 4666 
L 3309 4666 
L 3309 4134 
L 1259 4134 
L 1259 2759 
L 3109 2759 
L 3109 2228 
L 1259 2228 
L 1259 0 
L 628 0 
L 628 4666 
z
" transform="scale(0.015625)"/>
      <path id="DejaVuSans-73" d="M 2834 3397 
L 2834 2853 
Q 2591 2978 2328 3040 
Q 2066 3103 1784 3103 
Q 1356 3103 1142 2972 
Q 928 2841 928 2578 
Q 928 2378 1081 2264 
Q 1234 2150 1697 2047 
L 1894 2003 
Q 2506 1872 2764 1633 
Q 3022 1394 3022 966 
Q 3022 478 2636 193 
Q 2250 -91 1575 -91 
Q 1294 -91 989 -36 
Q 684 19 347 128 
L 347 722 
Q 666 556 975 473 
Q 1284 391 1588 391 
Q 1994 391 2212 530 
Q 2431 669 2431 922 
Q 2431 1156 2273 1281 
Q 2116 1406 1581 1522 
L 1381 1569 
Q 847 1681 609 1914 
Q 372 2147 372 2553 
Q 372 3047 722 3315 
Q 1072 3584 1716 3584 
Q 2034 3584 2315 3537 
Q 2597 3491 2834 3397 
z
" transform="scale(0.015625)"/>
      <path id="DejaVuSans-51" d="M 2522 4238 
Q 1834 4238 1429 3725 
Q 1025 3213 1025 2328 
Q 1025 1447 1429 934 
Q 1834 422 2522 422 
Q 3209 422 3611 934 
Q 4013 1447 4013 2328 
Q 4013 3213 3611 3725 
Q 3209 4238 2522 4238 
z
M 3406 84 
L 4238 -825 
L 3475 -825 
L 2784 -78 
Q 2681 -84 2626 -87 
Q 2572 -91 2522 -91 
Q 1538 -91 948 567 
Q 359 1225 359 2328 
Q 359 3434 948 4092 
Q 1538 4750 2522 4750 
Q 3503 4750 4090 4092 
Q 4678 3434 4678 2328 
Q 4678 1516 4351 937 
Q 4025 359 3406 84 
z
" transform="scale(0.015625)"/>
      <path id="DejaVuSans-3a" d="M 750 794 
L 1409 794 
L 1409 0 
L 750 0 
L 750 794 
z
M 750 3309 
L 1409 3309 
L 1409 2516 
L 750 2516 
L 750 3309 
z
" transform="scale(0.015625)"/>
      <path id="DejaVuSans-53" d="M 3425 4513 
L 3425 3897 
Q 3066 4069 2747 4153 
Q 2428 4238 2131 4238 
Q 1616 4238 1336 4038 
Q 1056 3838 1056 3469 
Q 1056 3159 1242 3001 
Q 1428 2844 1947 2747 
L 2328 2669 
Q 3034 2534 3370 2195 
Q 3706 1856 3706 1288 
Q 3706 609 3251 259 
Q 2797 -91 1919 -91 
Q 1588 -91 1214 -16 
Q 841 59 441 206 
L 441 856 
Q 825 641 1194 531 
Q 1563 422 1919 422 
Q 2459 422 2753 634 
Q 3047 847 3047 1241 
Q 3047 1584 2836 1778 
Q 2625 1972 2144 2069 
L 1759 2144 
Q 1053 2284 737 2584 
Q 422 2884 422 3419 
Q 422 4038 858 4394 
Q 1294 4750 2059 4750 
Q 2388 4750 2728 4690 
Q 3069 4631 3425 4513 
z
" transform="scale(0.015625)"/>
      <path id="DejaVuSans-71" d="M 947 1747 
Q 947 1113 1208 752 
Q 1469 391 1925 391 
Q 2381 391 2643 752 
Q 2906 1113 2906 1747 
Q 2906 2381 2643 2742 
Q 2381 3103 1925 3103 
Q 1469 3103 1208 2742 
Q 947 2381 947 1747 
z
M 2906 525 
Q 2725 213 2448 61 
Q 2172 -91 1784 -91 
Q 1150 -91 751 415 
Q 353 922 353 1747 
Q 353 2572 751 3078 
Q 1150 3584 1784 3584 
Q 2172 3584 2448 3432 
Q 2725 3281 2906 2969 
L 2906 3500 
L 3481 3500 
L 3481 -1331 
L 2906 -1331 
L 2906 525 
z
" transform="scale(0.015625)"/>
      <path id="DejaVuSans-75" d="M 544 1381 
L 544 3500 
L 1119 3500 
L 1119 1403 
Q 1119 906 1312 657 
Q 1506 409 1894 409 
Q 2359 409 2629 706 
Q 2900 1003 2900 1516 
L 2900 3500 
L 3475 3500 
L 3475 0 
L 2900 0 
L 2900 538 
Q 2691 219 2414 64 
Q 2138 -91 1772 -91 
Q 1169 -91 856 284 
Q 544 659 544 1381 
z
M 1991 3584 
L 1991 3584 
z
" transform="scale(0.015625)"/>
      <path id="DejaVuSans-6f" d="M 1959 3097 
Q 1497 3097 1228 2736 
Q 959 2375 959 1747 
Q 959 1119 1226 758 
Q 1494 397 1959 397 
Q 2419 397 2687 759 
Q 2956 1122 2956 1747 
Q 2956 2369 2687 2733 
Q 2419 3097 1959 3097 
z
M 1959 3584 
Q 2709 3584 3137 3096 
Q 3566 2609 3566 1747 
Q 3566 888 3137 398 
Q 2709 -91 1959 -91 
Q 1206 -91 779 398 
Q 353 888 353 1747 
Q 353 2609 779 3096 
Q 1206 3584 1959 3584 
z
" transform="scale(0.015625)"/>
     </defs>
     <use xlink:href="#DejaVuSans-46"/>
     <use xlink:href="#DejaVuSans-61" x="48.394531"/>
     <use xlink:href="#DejaVuSans-73" x="109.673828"/>
     <use xlink:href="#DejaVuSans-74" x="161.773438"/>
     <use xlink:href="#DejaVuSans-51" x="200.982422"/>
     <use xlink:href="#DejaVuSans-43" x="279.693359"/>
     <use xlink:href="#DejaVuSans-3a" x="349.517578"/>
     <use xlink:href="#DejaVuSans-20" x="383.208984"/>
     <use xlink:href="#DejaVuSans-50" x="414.996094"/>
     <use xlink:href="#DejaVuSans-65" x="471.673828"/>
     <use xlink:href="#DejaVuSans-72" x="533.197266"/>
     <use xlink:href="#DejaVuSans-20" x="574.310547"/>
     <use xlink:href="#DejaVuSans-53" x="606.097656"/>
     <use xlink:href="#DejaVuSans-65" x="669.574219"/>
     <use xlink:href="#DejaVuSans-71" x="731.097656"/>
     <use xlink:href="#DejaVuSans-75" x="794.574219"/>
     <use xlink:href="#DejaVuSans-65" x="857.953125"/>
     <use xlink:href="#DejaVuSans-6e" x="919.476562"/>
     <use xlink:href="#DejaVuSans-63" x="982.855469"/>
     <use xlink:href="#DejaVuSans-65" x="1037.835938"/>
     <use xlink:href="#DejaVuSans-20" x="1099.359375"/>
     <use xlink:href="#DejaVuSans-47" x="1131.146484"/>
     <use xlink:href="#DejaVuSans-43" x="1208.636719"/>
     <use xlink:href="#DejaVuSans-20" x="1278.460938"/>
     <use xlink:href="#DejaVuSans-43" x="1310.248047"/>
     <use xlink:href="#DejaVuSans-6f" x="1380.072266"/>
     <use xlink:href="#DejaVuSans-6e" x="1441.253906"/>
     <use xlink:href="#DejaVuSans-74" x="1504.632812"/>
     <use xlink:href="#DejaVuSans-65" x="1543.841797"/>
     <use xlink:href="#DejaVuSans-6e" x="1605.365234"/>
     <use xlink:href="#DejaVuSans-74" x="1668.744141"/>
    </g>
   </g>
  </g>
 </g>
 <defs>
  <clipPath id="pdc1e7b8d04">
   <rect x="38.058125" y="35.2559" width="947.365" height="317.968"/>
  </clipPath>
 </defs>
</svg>
