<?xml version="1.0" encoding="utf-8" standalone="no"?>
<!DOCTYPE svg PUBLIC "-//W3C//DTD SVG 1.1//EN"
  "http://www.w3.org/Graphics/SVG/1.1/DTD/svg11.dtd">
<svg xmlns:xlink="http://www.w3.org/1999/xlink" width="1000.340625pt" height="388.844525pt" viewBox="0 0 1000.340625 388.844525" xmlns="http://www.w3.org/2000/svg" version="1.1">
 <metadata>
  <rdf:RDF xmlns:dc="http://purl.org/dc/elements/1.1/" xmlns:cc="http://creativecommons.org/ns#" xmlns:rdf="http://www.w3.org/1999/02/22-rdf-syntax-ns#">
   <cc:Work>
    <dc:type rdf:resource="http://purl.org/dc/dcmitype/StillImage"/>
    <dc:date>2024-09-05T13:39:13.398710</dc:date>
    <dc:format>image/svg+xml</dc:format>
    <dc:creator>
     <cc:Agent>
      <dc:title>Matplotlib v3.8.2, https://matplotlib.org/</dc:title>
     </cc:Agent>
    </dc:creator>
   </cc:Work>
  </rdf:RDF>
 </metadata>
 <defs>
  <style type="text/css">*{stroke-linejoin: round; stroke-linecap: butt}</style>
 </defs>
 <g id="figure_1">
  <g id="axes_1">
   <g id="patch_1">
    <path d="M 40.600625 353.2239 
L 993.140625 353.2239 
L 993.140625 35.2559 
L 40.600625 35.2559 
z
" style="fill: #ffffff"/>
   </g>
   <g id="matplotlib.axis_1">
    <g id="xtick_1">
     <g id="text_1">
      <!-- 0 -->
      <g transform="translate(72.605974 366.30265) scale(0.08 -0.08)">
       <defs>
        <path id="DejaVuSans-30" d="M 2034 4250 
Q 1547 4250 1301 3770 
Q 1056 3291 1056 2328 
Q 1056 1369 1301 889 
Q 1547 409 2034 409 
Q 2525 409 2770 889 
Q 3016 1369 3016 2328 
Q 3016 3291 2770 3770 
Q 2525 4250 2034 4250 
z
M 2034 4750 
Q 2819 4750 3233 4129 
Q 3647 3509 3647 2328 
Q 3647 1150 3233 529 
Q 2819 -91 2034 -91 
Q 1250 -91 836 529 
Q 422 1150 422 2328 
Q 422 3509 836 4129 
Q 1250 4750 2034 4750 
z
" transform="scale(0.015625)"/>
       </defs>
       <use xlink:href="#DejaVuSans-30"/>
      </g>
     </g>
    </g>
    <g id="xtick_2">
     <g id="text_2">
      <!-- 20 -->
      <g transform="translate(244.99945 366.30265) scale(0.08 -0.08)">
       <defs>
        <path id="DejaVuSans-32" d="M 1228 531 
L 3431 531 
L 3431 0 
L 469 0 
L 469 531 
Q 828 903 1448 1529 
Q 2069 2156 2228 2338 
Q 2531 2678 2651 2914 
Q 2772 3150 2772 3378 
Q 2772 3750 2511 3984 
Q 2250 4219 1831 4219 
Q 1534 4219 1204 4116 
Q 875 4013 500 3803 
L 500 4441 
Q 881 4594 1212 4672 
Q 1544 4750 1819 4750 
Q 2544 4750 2975 4387 
Q 3406 4025 3406 3419 
Q 3406 3131 3298 2873 
Q 3191 2616 2906 2266 
Q 2828 2175 2409 1742 
Q 1991 1309 1228 531 
z
" transform="scale(0.015625)"/>
       </defs>
       <use xlink:href="#DejaVuSans-32"/>
       <use xlink:href="#DejaVuSans-30" x="63.623047"/>
      </g>
     </g>
    </g>
    <g id="xtick_3">
     <g id="text_3">
      <!-- 40 -->
      <g transform="translate(419.937925 366.30265) scale(0.08 -0.08)">
       <defs>
        <path id="DejaVuSans-34" d="M 2419 4116 
L 825 1625 
L 2419 1625 
L 2419 4116 
z
M 2253 4666 
L 3047 4666 
L 3047 1625 
L 3713 1625 
L 3713 1100 
L 3047 1100 
L 3047 0 
L 2419 0 
L 2419 1100 
L 313 1100 
L 313 1709 
L 2253 4666 
z
" transform="scale(0.015625)"/>
       </defs>
       <use xlink:href="#DejaVuSans-34"/>
       <use xlink:href="#DejaVuSans-30" x="63.623047"/>
      </g>
     </g>
    </g>
    <g id="xtick_4">
     <g id="text_4">
      <!-- 60 -->
      <g transform="translate(594.876401 366.30265) scale(0.08 -0.08)">
       <defs>
        <path id="DejaVuSans-36" d="M 2113 2584 
Q 1688 2584 1439 2293 
Q 1191 2003 1191 1497 
Q 1191 994 1439 701 
Q 1688 409 2113 409 
Q 2538 409 2786 701 
Q 3034 994 3034 1497 
Q 3034 2003 2786 2293 
Q 2538 2584 2113 2584 
z
M 3366 4563 
L 3366 3988 
Q 3128 4100 2886 4159 
Q 2644 4219 2406 4219 
Q 1781 4219 1451 3797 
Q 1122 3375 1075 2522 
Q 1259 2794 1537 2939 
Q 1816 3084 2150 3084 
Q 2853 3084 3261 2657 
Q 3669 2231 3669 1497 
Q 3669 778 3244 343 
Q 2819 -91 2113 -91 
Q 1303 -91 875 529 
Q 447 1150 447 2328 
Q 447 3434 972 4092 
Q 1497 4750 2381 4750 
Q 2619 4750 2861 4703 
Q 3103 4656 3366 4563 
z
" transform="scale(0.015625)"/>
       </defs>
       <use xlink:href="#DejaVuSans-36"/>
       <use xlink:href="#DejaVuSans-30" x="63.623047"/>
      </g>
     </g>
    </g>
    <g id="xtick_5">
     <g id="text_5">
      <!-- 80 -->
      <g transform="translate(769.814877 366.30265) scale(0.08 -0.08)">
       <defs>
        <path id="DejaVuSans-38" d="M 2034 2216 
Q 1584 2216 1326 1975 
Q 1069 1734 1069 1313 
Q 1069 891 1326 650 
Q 1584 409 2034 409 
Q 2484 409 2743 651 
Q 3003 894 3003 1313 
Q 3003 1734 2745 1975 
Q 2488 2216 2034 2216 
z
M 1403 2484 
Q 997 2584 770 2862 
Q 544 3141 544 3541 
Q 544 4100 942 4425 
Q 1341 4750 2034 4750 
Q 2731 4750 3128 4425 
Q 3525 4100 3525 3541 
Q 3525 3141 3298 2862 
Q 3072 2584 2669 2484 
Q 3125 2378 3379 2068 
Q 3634 1759 3634 1313 
Q 3634 634 3220 271 
Q 2806 -91 2034 -91 
Q 1263 -91 848 271 
Q 434 634 434 1313 
Q 434 1759 690 2068 
Q 947 2378 1403 2484 
z
M 1172 3481 
Q 1172 3119 1398 2916 
Q 1625 2713 2034 2713 
Q 2441 2713 2670 2916 
Q 2900 3119 2900 3481 
Q 2900 3844 2670 4047 
Q 2441 4250 2034 4250 
Q 1625 4250 1398 4047 
Q 1172 3844 1172 3481 
z
" transform="scale(0.015625)"/>
       </defs>
       <use xlink:href="#DejaVuSans-38"/>
       <use xlink:href="#DejaVuSans-30" x="63.623047"/>
      </g>
     </g>
    </g>
    <g id="xtick_6">
     <g id="text_6">
      <!-- 100 -->
      <g transform="translate(942.208352 366.30265) scale(0.08 -0.08)">
       <defs>
        <path id="DejaVuSans-31" d="M 794 531 
L 1825 531 
L 1825 4091 
L 703 3866 
L 703 4441 
L 1819 4666 
L 2450 4666 
L 2450 531 
L 3481 531 
L 3481 0 
L 794 0 
L 794 531 
z
" transform="scale(0.015625)"/>
       </defs>
       <use xlink:href="#DejaVuSans-31"/>
       <use xlink:href="#DejaVuSans-30" x="63.623047"/>
       <use xlink:href="#DejaVuSans-30" x="127.246094"/>
      </g>
     </g>
    </g>
    <g id="text_7">
     <!-- Length Trimmed (bp) -->
     <g transform="translate(464.443281 379.564837) scale(0.1 -0.1)">
      <defs>
       <path id="DejaVuSans-4c" d="M 628 4666 
L 1259 4666 
L 1259 531 
L 3531 531 
L 3531 0 
L 628 0 
L 628 4666 
z
" transform="scale(0.015625)"/>
       <path id="DejaVuSans-65" d="M 3597 1894 
L 3597 1613 
L 953 1613 
Q 991 1019 1311 708 
Q 1631 397 2203 397 
Q 2534 397 2845 478 
Q 3156 559 3463 722 
L 3463 178 
Q 3153 47 2828 -22 
Q 2503 -91 2169 -91 
Q 1331 -91 842 396 
Q 353 884 353 1716 
Q 353 2575 817 3079 
Q 1281 3584 2069 3584 
Q 2775 3584 3186 3129 
Q 3597 2675 3597 1894 
z
M 3022 2063 
Q 3016 2534 2758 2815 
Q 2500 3097 2075 3097 
Q 1594 3097 1305 2825 
Q 1016 2553 972 2059 
L 3022 2063 
z
" transform="scale(0.015625)"/>
       <path id="DejaVuSans-6e" d="M 3513 2113 
L 3513 0 
L 2938 0 
L 2938 2094 
Q 2938 2591 2744 2837 
Q 2550 3084 2163 3084 
Q 1697 3084 1428 2787 
Q 1159 2491 1159 1978 
L 1159 0 
L 581 0 
L 581 3500 
L 1159 3500 
L 1159 2956 
Q 1366 3272 1645 3428 
Q 1925 3584 2291 3584 
Q 2894 3584 3203 3211 
Q 3513 2838 3513 2113 
z
" transform="scale(0.015625)"/>
       <path id="DejaVuSans-67" d="M 2906 1791 
Q 2906 2416 2648 2759 
Q 2391 3103 1925 3103 
Q 1463 3103 1205 2759 
Q 947 2416 947 1791 
Q 947 1169 1205 825 
Q 1463 481 1925 481 
Q 2391 481 2648 825 
Q 2906 1169 2906 1791 
z
M 3481 434 
Q 3481 -459 3084 -895 
Q 2688 -1331 1869 -1331 
Q 1566 -1331 1297 -1286 
Q 1028 -1241 775 -1147 
L 775 -588 
Q 1028 -725 1275 -790 
Q 1522 -856 1778 -856 
Q 2344 -856 2625 -561 
Q 2906 -266 2906 331 
L 2906 616 
Q 2728 306 2450 153 
Q 2172 0 1784 0 
Q 1141 0 747 490 
Q 353 981 353 1791 
Q 353 2603 747 3093 
Q 1141 3584 1784 3584 
Q 2172 3584 2450 3431 
Q 2728 3278 2906 2969 
L 2906 3500 
L 3481 3500 
L 3481 434 
z
" transform="scale(0.015625)"/>
       <path id="DejaVuSans-74" d="M 1172 4494 
L 1172 3500 
L 2356 3500 
L 2356 3053 
L 1172 3053 
L 1172 1153 
Q 1172 725 1289 603 
Q 1406 481 1766 481 
L 2356 481 
L 2356 0 
L 1766 0 
Q 1100 0 847 248 
Q 594 497 594 1153 
L 594 3053 
L 172 3053 
L 172 3500 
L 594 3500 
L 594 4494 
L 1172 4494 
z
" transform="scale(0.015625)"/>
       <path id="DejaVuSans-68" d="M 3513 2113 
L 3513 0 
L 2938 0 
L 2938 2094 
Q 2938 2591 2744 2837 
Q 2550 3084 2163 3084 
Q 1697 3084 1428 2787 
Q 1159 2491 1159 1978 
L 1159 0 
L 581 0 
L 581 4863 
L 1159 4863 
L 1159 2956 
Q 1366 3272 1645 3428 
Q 1925 3584 2291 3584 
Q 2894 3584 3203 3211 
Q 3513 2838 3513 2113 
z
" transform="scale(0.015625)"/>
       <path id="DejaVuSans-20" transform="scale(0.015625)"/>
       <path id="DejaVuSans-54" d="M -19 4666 
L 3928 4666 
L 3928 4134 
L 2272 4134 
L 2272 0 
L 1638 0 
L 1638 4134 
L -19 4134 
L -19 4666 
z
" transform="scale(0.015625)"/>
       <path id="DejaVuSans-72" d="M 2631 2963 
Q 2534 3019 2420 3045 
Q 2306 3072 2169 3072 
Q 1681 3072 1420 2755 
Q 1159 2438 1159 1844 
L 1159 0 
L 581 0 
L 581 3500 
L 1159 3500 
L 1159 2956 
Q 1341 3275 1631 3429 
Q 1922 3584 2338 3584 
Q 2397 3584 2469 3576 
Q 2541 3569 2628 3553 
L 2631 2963 
z
" transform="scale(0.015625)"/>
       <path id="DejaVuSans-69" d="M 603 3500 
L 1178 3500 
L 1178 0 
L 603 0 
L 603 3500 
z
M 603 4863 
L 1178 4863 
L 1178 4134 
L 603 4134 
L 603 4863 
z
" transform="scale(0.015625)"/>
       <path id="DejaVuSans-6d" d="M 3328 2828 
Q 3544 3216 3844 3400 
Q 4144 3584 4550 3584 
Q 5097 3584 5394 3201 
Q 5691 2819 5691 2113 
L 5691 0 
L 5113 0 
L 5113 2094 
Q 5113 2597 4934 2840 
Q 4756 3084 4391 3084 
Q 3944 3084 3684 2787 
Q 3425 2491 3425 1978 
L 3425 0 
L 2847 0 
L 2847 2094 
Q 2847 2600 2669 2842 
Q 2491 3084 2119 3084 
Q 1678 3084 1418 2786 
Q 1159 2488 1159 1978 
L 1159 0 
L 581 0 
L 581 3500 
L 1159 3500 
L 1159 2956 
Q 1356 3278 1631 3431 
Q 1906 3584 2284 3584 
Q 2666 3584 2933 3390 
Q 3200 3197 3328 2828 
z
" transform="scale(0.015625)"/>
       <path id="DejaVuSans-64" d="M 2906 2969 
L 2906 4863 
L 3481 4863 
L 3481 0 
L 2906 0 
L 2906 525 
Q 2725 213 2448 61 
Q 2172 -91 1784 -91 
Q 1150 -91 751 415 
Q 353 922 353 1747 
Q 353 2572 751 3078 
Q 1150 3584 1784 3584 
Q 2172 3584 2448 3432 
Q 2725 3281 2906 2969 
z
M 947 1747 
Q 947 1113 1208 752 
Q 1469 391 1925 391 
Q 2381 391 2643 752 
Q 2906 1113 2906 1747 
Q 2906 2381 2643 2742 
Q 2381 3103 1925 3103 
Q 1469 3103 1208 2742 
Q 947 2381 947 1747 
z
" transform="scale(0.015625)"/>
       <path id="DejaVuSans-28" d="M 1984 4856 
Q 1566 4138 1362 3434 
Q 1159 2731 1159 2009 
Q 1159 1288 1364 580 
Q 1569 -128 1984 -844 
L 1484 -844 
Q 1016 -109 783 600 
Q 550 1309 550 2009 
Q 550 2706 781 3412 
Q 1013 4119 1484 4856 
L 1984 4856 
z
" transform="scale(0.015625)"/>
       <path id="DejaVuSans-62" d="M 3116 1747 
Q 3116 2381 2855 2742 
Q 2594 3103 2138 3103 
Q 1681 3103 1420 2742 
Q 1159 2381 1159 1747 
Q 1159 1113 1420 752 
Q 1681 391 2138 391 
Q 2594 391 2855 752 
Q 3116 1113 3116 1747 
z
M 1159 2969 
Q 1341 3281 1617 3432 
Q 1894 3584 2278 3584 
Q 2916 3584 3314 3078 
Q 3713 2572 3713 1747 
Q 3713 922 3314 415 
Q 2916 -91 2278 -91 
Q 1894 -91 1617 61 
Q 1341 213 1159 525 
L 1159 0 
L 581 0 
L 581 4863 
L 1159 4863 
L 1159 2969 
z
" transform="scale(0.015625)"/>
       <path id="DejaVuSans-70" d="M 1159 525 
L 1159 -1331 
L 581 -1331 
L 581 3500 
L 1159 3500 
L 1159 2969 
Q 1341 3281 1617 3432 
Q 1894 3584 2278 3584 
Q 2916 3584 3314 3078 
Q 3713 2572 3713 1747 
Q 3713 922 3314 415 
Q 2916 -91 2278 -91 
Q 1894 -91 1617 61 
Q 1341 213 1159 525 
z
M 3116 1747 
Q 3116 2381 2855 2742 
Q 2594 3103 2138 3103 
Q 1681 3103 1420 2742 
Q 1159 2381 1159 1747 
Q 1159 1113 1420 752 
Q 1681 391 2138 391 
Q 2594 391 2855 752 
Q 3116 1113 3116 1747 
z
" transform="scale(0.015625)"/>
       <path id="DejaVuSans-29" d="M 513 4856 
L 1013 4856 
Q 1481 4119 1714 3412 
Q 1947 2706 1947 2009 
Q 1947 1309 1714 600 
Q 1481 -109 1013 -844 
L 513 -844 
Q 928 -128 1133 580 
Q 1338 1288 1338 2009 
Q 1338 2731 1133 3434 
Q 928 4138 513 4856 
z
" transform="scale(0.015625)"/>
      </defs>
      <use xlink:href="#DejaVuSans-4c"/>
      <use xlink:href="#DejaVuSans-65" x="53.962891"/>
      <use xlink:href="#DejaVuSans-6e" x="115.486328"/>
      <use xlink:href="#DejaVuSans-67" x="178.865234"/>
      <use xlink:href="#DejaVuSans-74" x="242.341797"/>
      <use xlink:href="#DejaVuSans-68" x="281.550781"/>
      <use xlink:href="#DejaVuSans-20" x="344.929688"/>
      <use xlink:href="#DejaVuSans-54" x="376.716797"/>
      <use xlink:href="#DejaVuSans-72" x="423.050781"/>
      <use xlink:href="#DejaVuSans-69" x="464.164062"/>
      <use xlink:href="#DejaVuSans-6d" x="491.947266"/>
      <use xlink:href="#DejaVuSans-6d" x="589.359375"/>
      <use xlink:href="#DejaVuSans-65" x="686.771484"/>
      <use xlink:href="#DejaVuSans-64" x="748.294922"/>
      <use xlink:href="#DejaVuSans-20" x="811.771484"/>
      <use xlink:href="#DejaVuSans-28" x="843.558594"/>
      <use xlink:href="#DejaVuSans-62" x="882.572266"/>
      <use xlink:href="#DejaVuSans-70" x="946.048828"/>
      <use xlink:href="#DejaVuSans-29" x="1009.525391"/>
     </g>
    </g>
   </g>
   <g id="matplotlib.axis_2">
    <g id="ytick_1">
     <g id="line2d_1">
      <path d="M 40.600625 353.2239 
L 993.140625 353.2239 
" clip-path="url(#pf4d965e4b5)" style="fill: none; stroke: #dedede; stroke-linecap: square"/>
     </g>
     <g id="text_8">
      <!-- 0.0 -->
      <g transform="translate(20.878125 356.263275) scale(0.08 -0.08)">
       <defs>
        <path id="DejaVuSans-2e" d="M 684 794 
L 1344 794 
L 1344 0 
L 684 0 
L 684 794 
z
" transform="scale(0.015625)"/>
       </defs>
       <use xlink:href="#DejaVuSans-30"/>
       <use xlink:href="#DejaVuSans-2e" x="63.623047"/>
       <use xlink:href="#DejaVuSans-30" x="95.410156"/>
      </g>
     </g>
    </g>
    <g id="ytick_2">
     <g id="line2d_2">
      <path d="M 40.600625 294.528576 
L 993.140625 294.528576 
" clip-path="url(#pf4d965e4b5)" style="fill: none; stroke: #dedede; stroke-linecap: square"/>
     </g>
     <g id="text_9">
      <!-- 0.2 -->
      <g transform="translate(20.878125 297.567951) scale(0.08 -0.08)">
       <use xlink:href="#DejaVuSans-30"/>
       <use xlink:href="#DejaVuSans-2e" x="63.623047"/>
       <use xlink:href="#DejaVuSans-32" x="95.410156"/>
      </g>
     </g>
    </g>
    <g id="ytick_3">
     <g id="line2d_3">
      <path d="M 40.600625 235.833253 
L 993.140625 235.833253 
" clip-path="url(#pf4d965e4b5)" style="fill: none; stroke: #dedede; stroke-linecap: square"/>
     </g>
     <g id="text_10">
      <!-- 0.4 -->
      <g transform="translate(20.878125 238.872628) scale(0.08 -0.08)">
       <use xlink:href="#DejaVuSans-30"/>
       <use xlink:href="#DejaVuSans-2e" x="63.623047"/>
       <use xlink:href="#DejaVuSans-34" x="95.410156"/>
      </g>
     </g>
    </g>
    <g id="ytick_4">
     <g id="line2d_4">
      <path d="M 40.600625 177.137929 
L 993.140625 177.137929 
" clip-path="url(#pf4d965e4b5)" style="fill: none; stroke: #dedede; stroke-linecap: square"/>
     </g>
     <g id="text_11">
      <!-- 0.6 -->
      <g transform="translate(20.878125 180.177304) scale(0.08 -0.08)">
       <use xlink:href="#DejaVuSans-30"/>
       <use xlink:href="#DejaVuSans-2e" x="63.623047"/>
       <use xlink:href="#DejaVuSans-36" x="95.410156"/>
      </g>
     </g>
    </g>
    <g id="ytick_5">
     <g id="line2d_5">
      <path d="M 40.600625 118.442606 
L 993.140625 118.442606 
" clip-path="url(#pf4d965e4b5)" style="fill: none; stroke: #dedede; stroke-linecap: square"/>
     </g>
     <g id="text_12">
      <!-- 0.8 -->
      <g transform="translate(20.878125 121.481981) scale(0.08 -0.08)">
       <use xlink:href="#DejaVuSans-30"/>
       <use xlink:href="#DejaVuSans-2e" x="63.623047"/>
       <use xlink:href="#DejaVuSans-38" x="95.410156"/>
      </g>
     </g>
    </g>
    <g id="ytick_6">
     <g id="line2d_6">
      <path d="M 40.600625 59.747282 
L 993.140625 59.747282 
" clip-path="url(#pf4d965e4b5)" style="fill: none; stroke: #dedede; stroke-linecap: square"/>
     </g>
     <g id="text_13">
      <!-- 1.0 -->
      <g transform="translate(20.878125 62.786657) scale(0.08 -0.08)">
       <use xlink:href="#DejaVuSans-31"/>
       <use xlink:href="#DejaVuSans-2e" x="63.623047"/>
       <use xlink:href="#DejaVuSans-30" x="95.410156"/>
      </g>
     </g>
    </g>
    <g id="text_14">
     <!-- Count -->
     <g transform="translate(14.798438 209.088338) rotate(-90) scale(0.1 -0.1)">
      <defs>
       <path id="DejaVuSans-43" d="M 4122 4306 
L 4122 3641 
Q 3803 3938 3442 4084 
Q 3081 4231 2675 4231 
Q 1875 4231 1450 3742 
Q 1025 3253 1025 2328 
Q 1025 1406 1450 917 
Q 1875 428 2675 428 
Q 3081 428 3442 575 
Q 3803 722 4122 1019 
L 4122 359 
Q 3791 134 3420 21 
Q 3050 -91 2638 -91 
Q 1578 -91 968 557 
Q 359 1206 359 2328 
Q 359 3453 968 4101 
Q 1578 4750 2638 4750 
Q 3056 4750 3426 4639 
Q 3797 4528 4122 4306 
z
" transform="scale(0.015625)"/>
       <path id="DejaVuSans-6f" d="M 1959 3097 
Q 1497 3097 1228 2736 
Q 959 2375 959 1747 
Q 959 1119 1226 758 
Q 1494 397 1959 397 
Q 2419 397 2687 759 
Q 2956 1122 2956 1747 
Q 2956 2369 2687 2733 
Q 2419 3097 1959 3097 
z
M 1959 3584 
Q 2709 3584 3137 3096 
Q 3566 2609 3566 1747 
Q 3566 888 3137 398 
Q 2709 -91 1959 -91 
Q 1206 -91 779 398 
Q 353 888 353 1747 
Q 353 2609 779 3096 
Q 1206 3584 1959 3584 
z
" transform="scale(0.015625)"/>
       <path id="DejaVuSans-75" d="M 544 1381 
L 544 3500 
L 1119 3500 
L 1119 1403 
Q 1119 906 1312 657 
Q 1506 409 1894 409 
Q 2359 409 2629 706 
Q 2900 1003 2900 1516 
L 2900 3500 
L 3475 3500 
L 3475 0 
L 2900 0 
L 2900 538 
Q 2691 219 2414 64 
Q 2138 -91 1772 -91 
Q 1169 -91 856 284 
Q 544 659 544 1381 
z
M 1991 3584 
L 1991 3584 
z
" transform="scale(0.015625)"/>
      </defs>
      <use xlink:href="#DejaVuSans-43"/>
      <use xlink:href="#DejaVuSans-6f" x="69.824219"/>
      <use xlink:href="#DejaVuSans-75" x="131.005859"/>
      <use xlink:href="#DejaVuSans-6e" x="194.384766"/>
      <use xlink:href="#DejaVuSans-74" x="257.763672"/>
     </g>
    </g>
    <g id="text_15">
     <!-- 1e7 -->
     <g transform="translate(40.600625 32.2559) scale(0.1 -0.1)">
      <defs>
       <path id="DejaVuSans-37" d="M 525 4666 
L 3525 4666 
L 3525 4397 
L 1831 0 
L 1172 0 
L 2766 4134 
L 525 4134 
L 525 4666 
z
" transform="scale(0.015625)"/>
      </defs>
      <use xlink:href="#DejaVuSans-31"/>
      <use xlink:href="#DejaVuSans-65" x="63.623047"/>
      <use xlink:href="#DejaVuSans-37" x="125.146484"/>
     </g>
    </g>
   </g>
   <g id="line2d_7">
    <path d="M 83.897898 157.398516 
L 92.644822 290.07275 
L 101.391745 332.403465 
L 110.138669 352.710433 
L 118.885593 352.083068 
L 127.632517 353.170898 
L 136.37944 353.092246 
L 145.126364 353.194699 
L 153.873288 353.149063 
L 162.620212 353.151969 
L 171.367136 353.144162 
L 180.114059 353.210107 
L 188.860983 353.199131 
L 197.607907 353.207231 
L 206.354831 353.201948 
L 215.101754 353.198984 
L 223.848678 353.208023 
L 232.595602 353.202359 
L 241.342526 353.196137 
L 250.08945 353.207759 
L 258.836373 353.198015 
L 267.583297 353.20949 
L 276.330221 353.201772 
L 285.077145 353.209432 
L 293.824069 353.206585 
L 302.570992 353.205059 
L 311.317916 353.201684 
L 320.06484 353.207729 
L 328.811764 353.198866 
L 337.558687 353.205763 
L 346.305611 353.203093 
L 355.052535 353.20544 
L 363.799459 353.205704 
L 372.546383 353.205734 
L 381.293306 353.201214 
L 390.04023 353.207935 
L 398.787154 353.211427 
L 407.534078 353.209285 
L 416.281001 353.210341 
L 425.027925 353.2023 
L 433.774849 353.209696 
L 442.521773 353.203122 
L 451.268697 353.21222 
L 460.01562 353.208903 
L 468.762544 353.204648 
L 477.509468 353.197693 
L 486.256392 353.200979 
L 495.003316 353.200393 
L 503.750239 353.206761 
L 512.497163 353.205352 
L 521.244087 353.202828 
L 529.991011 353.207906 
L 538.737934 353.210077 
L 547.484858 353.210283 
L 556.231782 353.215712 
L 564.978706 353.214744 
L 573.72563 353.207172 
L 582.472553 353.215741 
L 591.219477 353.21263 
L 599.966401 353.215976 
L 608.713325 353.212601 
L 617.460249 353.217297 
L 626.207172 353.213599 
L 634.954096 353.214773 
L 643.70102 353.212161 
L 652.447944 353.215477 
L 661.194867 353.215507 
L 669.941791 353.216005 
L 678.688715 353.217444 
L 687.435639 353.215683 
L 696.182563 353.216974 
L 704.929486 353.20274 
L 713.67641 353.215184 
L 722.423334 353.213775 
L 731.170258 353.212132 
L 739.917181 353.217649 
L 748.664105 353.216475 
L 757.411029 353.21131 
L 766.157953 353.216915 
L 774.904877 353.212601 
L 783.6518 353.212044 
L 792.398724 353.215917 
L 801.145648 353.215301 
L 809.892572 353.214802 
L 818.639496 353.211603 
L 827.386419 353.211134 
L 836.133343 353.211926 
L 844.880267 353.212425 
L 853.627191 353.214538 
L 862.374114 353.211985 
L 871.121038 353.211897 
L 879.867962 353.208727 
L 888.614886 353.213746 
L 897.36181 353.207201 
L 906.108733 353.204795 
L 914.855657 353.185102 
L 923.602581 353.18792 
L 932.349505 353.088637 
L 941.096428 349.885457 
L 949.843352 353.042238 
" clip-path="url(#pf4d965e4b5)" style="fill: none; stroke: #7cb5ec; stroke-linecap: square"/>
   </g>
   <g id="line2d_8">
    <path d="M 83.897898 138.692551 
L 92.644822 287.157647 
L 101.391745 329.515069 
L 110.138669 352.654966 
L 118.885593 351.932397 
L 127.632517 353.159306 
L 136.37944 353.061226 
L 145.126364 353.186628 
L 153.873288 353.113494 
L 162.620212 353.130809 
L 171.367136 353.138968 
L 180.114059 353.209021 
L 188.860983 353.176768 
L 197.607907 353.207994 
L 206.354831 353.17486 
L 215.101754 353.18252 
L 223.848678 353.189769 
L 232.595602 353.178294 
L 241.342526 353.190385 
L 250.08945 353.198866 
L 258.836373 353.185719 
L 267.583297 353.199101 
L 276.330221 353.186012 
L 285.077145 353.195081 
L 293.824069 353.190972 
L 302.570992 353.198221 
L 311.317916 353.188272 
L 320.06484 353.203034 
L 328.811764 353.187509 
L 337.558687 353.19781 
L 346.305611 353.199219 
L 355.052535 353.190062 
L 363.799459 353.198866 
L 372.546383 353.200774 
L 381.293306 353.205294 
L 390.04023 353.204501 
L 398.787154 353.205763 
L 407.534078 353.204472 
L 416.281001 353.204912 
L 425.027925 353.201743 
L 433.774849 353.200803 
L 442.521773 353.203093 
L 451.268697 353.208845 
L 460.01562 353.204002 
L 468.762544 353.202711 
L 477.509468 353.20004 
L 486.256392 353.201596 
L 495.003316 353.205969 
L 503.750239 353.213129 
L 512.497163 353.210253 
L 521.244087 353.202799 
L 529.991011 353.208903 
L 538.737934 353.209578 
L 547.484858 353.207817 
L 556.231782 353.211251 
L 564.978706 353.209432 
L 573.72563 353.208111 
L 582.472553 353.213305 
L 591.219477 353.214098 
L 599.966401 353.214127 
L 608.713325 353.214245 
L 617.460249 353.214186 
L 626.207172 353.213746 
L 634.954096 353.213247 
L 643.70102 353.206467 
L 652.447944 353.217649 
L 661.194867 353.215859 
L 669.941791 353.216886 
L 678.688715 353.218412 
L 687.435639 353.21489 
L 696.182563 353.21627 
L 704.929486 353.210547 
L 713.67641 353.216123 
L 722.423334 353.21668 
L 731.170258 353.21354 
L 739.917181 353.216827 
L 748.664105 353.216563 
L 757.411029 353.215683 
L 766.157953 353.216769 
L 774.904877 353.215419 
L 783.6518 353.21398 
L 792.398724 353.212924 
L 801.145648 353.21627 
L 809.892572 353.216739 
L 818.639496 353.214127 
L 827.386419 353.206644 
L 836.133343 353.215184 
L 844.880267 353.214744 
L 853.627191 353.214832 
L 862.374114 353.214714 
L 871.121038 353.213071 
L 879.867962 353.212601 
L 888.614886 353.214773 
L 897.36181 353.211134 
L 906.108733 353.209784 
L 914.855657 353.194024 
L 923.602581 353.191383 
L 932.349505 353.09791 
L 941.096428 350.184832 
L 949.843352 353.004937 
" clip-path="url(#pf4d965e4b5)" style="fill: none; stroke: #434348; stroke-linecap: square"/>
   </g>
   <g id="line2d_9">
    <path d="M 83.897898 83.873584 
L 92.644822 270.862827 
L 101.391745 324.684884 
L 110.138669 352.520877 
L 118.885593 351.659904 
L 127.632517 353.148183 
L 136.37944 353.022428 
L 145.126364 353.180113 
L 153.873288 353.099055 
L 162.620212 353.113553 
L 171.367136 353.09794 
L 180.114059 353.205411 
L 188.860983 353.170399 
L 197.607907 353.202623 
L 206.354831 353.173745 
L 215.101754 353.176239 
L 223.848678 353.188918 
L 232.595602 353.178851 
L 241.342526 353.185924 
L 250.08945 353.197869 
L 258.836373 353.181845 
L 267.583297 353.199659 
L 276.330221 353.185953 
L 285.077145 353.198456 
L 293.824069 353.193232 
L 302.570992 353.200539 
L 311.317916 353.194288 
L 320.06484 353.204208 
L 328.811764 353.196548 
L 337.558687 353.204443 
L 346.305611 353.199952 
L 355.052535 353.199952 
L 363.799459 353.207524 
L 372.546383 353.202564 
L 381.293306 353.206203 
L 390.04023 353.203239 
L 398.787154 353.208933 
L 407.534078 353.206409 
L 416.281001 353.20544 
L 425.027925 353.195902 
L 433.774849 353.207994 
L 442.521773 353.206203 
L 451.268697 353.211662 
L 460.01562 353.211075 
L 468.762544 353.210664 
L 477.509468 353.20817 
L 486.256392 353.205294 
L 495.003316 353.208375 
L 503.750239 353.207994 
L 512.497163 353.210928 
L 521.244087 353.204707 
L 529.991011 353.209373 
L 538.737934 353.212865 
L 547.484858 353.213628 
L 556.231782 353.214567 
L 564.978706 353.212953 
L 573.72563 353.200334 
L 582.472553 353.212249 
L 591.219477 353.214157 
L 599.966401 353.213599 
L 608.713325 353.21219 
L 617.460249 353.215448 
L 626.207172 353.214127 
L 634.954096 353.213335 
L 643.70102 353.208845 
L 652.447944 353.21445 
L 661.194867 353.214509 
L 669.941791 353.214303 
L 678.688715 353.216563 
L 687.435639 353.214274 
L 696.182563 353.217033 
L 704.929486 353.205528 
L 713.67641 353.215213 
L 722.423334 353.215595 
L 731.170258 353.21087 
L 739.917181 353.216798 
L 748.664105 353.213892 
L 757.411029 353.211486 
L 766.157953 353.216035 
L 774.904877 353.213482 
L 783.6518 353.212278 
L 792.398724 353.212337 
L 801.145648 353.215125 
L 809.892572 353.213482 
L 818.639496 353.21219 
L 827.386419 353.207348 
L 836.133343 353.211457 
L 844.880267 353.211926 
L 853.627191 353.212953 
L 862.374114 353.213863 
L 871.121038 353.214538 
L 879.867962 353.209754 
L 888.614886 353.216211 
L 897.36181 353.211486 
L 906.108733 353.21175 
L 914.855657 353.198279 
L 923.602581 353.197634 
L 932.349505 353.159658 
L 941.096428 351.989684 
L 949.843352 353.159394 
" clip-path="url(#pf4d965e4b5)" style="fill: none; stroke: #90ed7d; stroke-linecap: square"/>
   </g>
   <g id="line2d_10">
    <path d="M 83.897898 57.803528 
L 92.644822 261.931219 
L 101.391745 321.575117 
L 110.138669 352.435182 
L 118.885593 351.437156 
L 127.632517 353.136239 
L 136.37944 353.008136 
L 145.126364 353.175506 
L 153.873288 353.087228 
L 162.620212 353.099906 
L 171.367136 353.090838 
L 180.114059 353.204589 
L 188.860983 353.168785 
L 197.607907 353.199894 
L 206.354831 353.172483 
L 215.101754 353.175476 
L 223.848678 353.186951 
L 232.595602 353.171925 
L 241.342526 353.179204 
L 250.08945 353.195345 
L 258.836373 353.182344 
L 267.583297 353.199219 
L 276.330221 353.188712 
L 285.077145 353.197869 
L 293.824069 353.194699 
L 302.570992 353.199307 
L 311.317916 353.197487 
L 320.06484 353.201214 
L 328.811764 353.196166 
L 337.558687 353.204384 
L 346.305611 353.1996 
L 355.052535 353.201566 
L 363.799459 353.203709 
L 372.546383 353.199923 
L 381.293306 353.202564 
L 390.04023 353.207377 
L 398.787154 353.205206 
L 407.534078 353.209021 
L 416.281001 353.211574 
L 425.027925 353.197663 
L 433.774849 353.208639 
L 442.521773 353.205704 
L 451.268697 353.208991 
L 460.01562 353.208581 
L 468.762544 353.207524 
L 477.509468 353.207524 
L 486.256392 353.210195 
L 495.003316 353.208375 
L 503.750239 353.20547 
L 512.497163 353.209696 
L 521.244087 353.204501 
L 529.991011 353.212513 
L 538.737934 353.210782 
L 547.484858 353.21084 
L 556.231782 353.213247 
L 564.978706 353.211163 
L 573.72563 353.201508 
L 582.472553 353.211721 
L 591.219477 353.21266 
L 599.966401 353.210928 
L 608.713325 353.210136 
L 617.460249 353.21219 
L 626.207172 353.213217 
L 634.954096 353.212983 
L 643.70102 353.206761 
L 652.447944 353.214303 
L 661.194867 353.211809 
L 669.941791 353.214391 
L 678.688715 353.214978 
L 687.435639 353.212278 
L 696.182563 353.212895 
L 704.929486 353.199806 
L 713.67641 353.213394 
L 722.423334 353.214744 
L 731.170258 353.207964 
L 739.917181 353.215184 
L 748.664105 353.213276 
L 757.411029 353.210077 
L 766.157953 353.212484 
L 774.904877 353.209842 
L 783.6518 353.210371 
L 792.398724 353.210253 
L 801.145648 353.212895 
L 809.892572 353.21266 
L 818.639496 353.209549 
L 827.386419 353.205881 
L 836.133343 353.208639 
L 844.880267 353.211779 
L 853.627191 353.212484 
L 862.374114 353.213305 
L 871.121038 353.212983 
L 879.867962 353.209608 
L 888.614886 353.217561 
L 897.36181 353.212601 
L 906.108733 353.211163 
L 914.855657 353.202212 
L 923.602581 353.199659 
L 932.349505 353.18117 
L 941.096428 352.716127 
L 949.843352 353.191559 
" clip-path="url(#pf4d965e4b5)" style="fill: none; stroke: #f7a35c; stroke-linecap: square"/>
   </g>
   <g id="line2d_11">
    <path d="M 83.897898 225.39834 
L 92.644822 313.260455 
L 101.391745 339.341986 
L 110.138669 352.89682 
L 118.885593 352.46268 
L 127.632517 353.190561 
L 136.37944 353.131572 
L 145.126364 353.204266 
L 153.873288 353.165645 
L 162.620212 353.16993 
L 171.367136 353.166114 
L 180.114059 353.215066 
L 188.860983 353.201801 
L 197.607907 353.213305 
L 206.354831 353.202095 
L 215.101754 353.20321 
L 223.848678 353.209872 
L 232.595602 353.203122 
L 241.342526 353.206321 
L 250.08945 353.212542 
L 258.836373 353.203327 
L 267.583297 353.213452 
L 276.330221 353.208991 
L 285.077145 353.212308 
L 293.824069 353.211603 
L 302.570992 353.212807 
L 311.317916 353.210606 
L 320.06484 353.214069 
L 328.811764 353.211721 
L 337.558687 353.21222 
L 346.305611 353.212689 
L 355.052535 353.214626 
L 363.799459 353.214421 
L 372.546383 353.214245 
L 381.293306 353.21401 
L 390.04023 353.216769 
L 398.787154 353.218559 
L 407.534078 353.216798 
L 416.281001 353.217678 
L 425.027925 353.211339 
L 433.774849 353.216475 
L 442.521773 353.214509 
L 451.268697 353.218119 
L 460.01562 353.218177 
L 468.762544 353.217267 
L 477.509468 353.217091 
L 486.256392 353.215096 
L 495.003316 353.216651 
L 503.750239 353.216387 
L 512.497163 353.216622 
L 521.244087 353.213892 
L 529.991011 353.217062 
L 538.737934 353.217179 
L 547.484858 353.216945 
L 556.231782 353.219146 
L 564.978706 353.217326 
L 573.72563 353.212044 
L 582.472553 353.217825 
L 591.219477 353.217708 
L 599.966401 353.218559 
L 608.713325 353.217854 
L 617.460249 353.219028 
L 626.207172 353.216945 
L 634.954096 353.218324 
L 643.70102 353.215947 
L 652.447944 353.219322 
L 661.194867 353.218236 
L 669.941791 353.219028 
L 678.688715 353.21941 
L 687.435639 353.2185 
L 696.182563 353.21938 
L 704.929486 353.213922 
L 713.67641 353.219234 
L 722.423334 353.219469 
L 731.170258 353.215947 
L 739.917181 353.220848 
L 748.664105 353.218529 
L 757.411029 353.21759 
L 766.157953 353.218383 
L 774.904877 353.218119 
L 783.6518 353.214186 
L 792.398724 353.216416 
L 801.145648 353.219204 
L 809.892572 353.218764 
L 818.639496 353.217209 
L 827.386419 353.214186 
L 836.133343 353.217209 
L 844.880267 353.216358 
L 853.627191 353.217649 
L 862.374114 353.218001 
L 871.121038 353.219557 
L 879.867962 353.216504 
L 888.614886 353.21941 
L 897.36181 353.21715 
L 906.108733 353.217179 
L 914.855657 353.21401 
L 923.602581 353.212278 
L 932.349505 353.202476 
L 941.096428 352.855734 
L 949.843352 353.208258 
" clip-path="url(#pf4d965e4b5)" style="fill: none; stroke: #8085e9; stroke-linecap: square"/>
   </g>
   <g id="line2d_12">
    <path d="M 83.897898 114.154296 
L 92.644822 280.399614 
L 101.391745 328.132354 
L 110.138669 352.584356 
L 118.885593 351.826805 
L 127.632517 353.146129 
L 136.37944 353.045642 
L 145.126364 353.186452 
L 153.873288 353.114873 
L 162.620212 353.117955 
L 171.367136 353.103487 
L 180.114059 353.203181 
L 188.860983 353.16541 
L 197.607907 353.204413 
L 206.354831 353.169255 
L 215.101754 353.169519 
L 223.848678 353.184633 
L 232.595602 353.167376 
L 241.342526 353.182696 
L 250.08945 353.194464 
L 258.836373 353.181962 
L 267.583297 353.198866 
L 276.330221 353.184486 
L 285.077145 353.196607 
L 293.824069 353.189945 
L 302.570992 353.201126 
L 311.317916 353.194376 
L 320.06484 353.204589 
L 328.811764 353.19646 
L 337.558687 353.205382 
L 346.305611 353.200979 
L 355.052535 353.202564 
L 363.799459 353.206086 
L 372.546383 353.2023 
L 381.293306 353.205939 
L 390.04023 353.203151 
L 398.787154 353.208082 
L 407.534078 353.208581 
L 416.281001 353.213511 
L 425.027925 353.202095 
L 433.774849 353.209578 
L 442.521773 353.204472 
L 451.268697 353.208786 
L 460.01562 353.208551 
L 468.762544 353.210576 
L 477.509468 353.206908 
L 486.256392 353.209666 
L 495.003316 353.206526 
L 503.750239 353.207319 
L 512.497163 353.208991 
L 521.244087 353.205528 
L 529.991011 353.211281 
L 538.737934 353.211222 
L 547.484858 353.213247 
L 556.231782 353.215096 
L 564.978706 353.212836 
L 573.72563 353.207553 
L 582.472553 353.213863 
L 591.219477 353.215213 
L 599.966401 353.213687 
L 608.713325 353.213394 
L 617.460249 353.214391 
L 626.207172 353.215301 
L 634.954096 353.21536 
L 643.70102 353.208404 
L 652.447944 353.215037 
L 661.194867 353.214274 
L 669.941791 353.214685 
L 678.688715 353.215947 
L 687.435639 353.217678 
L 696.182563 353.216358 
L 704.929486 353.205822 
L 713.67641 353.216064 
L 722.423334 353.215917 
L 731.170258 353.212161 
L 739.917181 353.216915 
L 748.664105 353.214949 
L 757.411029 353.214362 
L 766.157953 353.217003 
L 774.904877 353.213364 
L 783.6518 353.212924 
L 792.398724 353.21401 
L 801.145648 353.215419 
L 809.892572 353.214861 
L 818.639496 353.212161 
L 827.386419 353.208581 
L 836.133343 353.213012 
L 844.880267 353.213716 
L 853.627191 353.21445 
L 862.374114 353.214685 
L 871.121038 353.214626 
L 879.867962 353.212073 
L 888.614886 353.216475 
L 897.36181 353.212924 
L 906.108733 353.21087 
L 914.855657 353.201009 
L 923.602581 353.202036 
L 932.349505 353.160803 
L 941.096428 351.940263 
L 949.843352 353.137031 
" clip-path="url(#pf4d965e4b5)" style="fill: none; stroke: #f15c80; stroke-linecap: square"/>
   </g>
   <g id="line2d_13">
    <path d="M 83.897898 101.431527 
L 92.644822 276.437416 
L 101.391745 326.534285 
L 110.138669 352.556329 
L 118.885593 351.755842 
L 127.632517 353.14246 
L 136.37944 353.029824 
L 145.126364 353.188477 
L 153.873288 353.107096 
L 162.620212 353.100464 
L 171.367136 353.095504 
L 180.114059 353.204648 
L 188.860983 353.161184 
L 197.607907 353.202887 
L 206.354831 353.159629 
L 215.101754 353.167347 
L 223.848678 353.183283 
L 232.595602 353.159042 
L 241.342526 353.180876 
L 250.08945 353.196372 
L 258.836373 353.18117 
L 267.583297 353.197194 
L 276.330221 353.179057 
L 285.077145 353.192058 
L 293.824069 353.189416 
L 302.570992 353.19825 
L 311.317916 353.195051 
L 320.06484 353.206262 
L 328.811764 353.193907 
L 337.558687 353.204413 
L 346.305611 353.198954 
L 355.052535 353.195697 
L 363.799459 353.204941 
L 372.546383 353.200862 
L 381.293306 353.206761 
L 390.04023 353.209696 
L 398.787154 353.204266 
L 407.534078 353.210635 
L 416.281001 353.210312 
L 425.027925 353.200569 
L 433.774849 353.211398 
L 442.521773 353.202564 
L 451.268697 353.210547 
L 460.01562 353.209256 
L 468.762544 353.208287 
L 477.509468 353.20814 
L 486.256392 353.205969 
L 495.003316 353.208199 
L 503.750239 353.208698 
L 512.497163 353.211897 
L 521.244087 353.204941 
L 529.991011 353.214303 
L 538.737934 353.209432 
L 547.484858 353.212865 
L 556.231782 353.215536 
L 564.978706 353.214567 
L 573.72563 353.20817 
L 582.472553 353.216446 
L 591.219477 353.216563 
L 599.966401 353.215829 
L 608.713325 353.214069 
L 617.460249 353.214949 
L 626.207172 353.215888 
L 634.954096 353.215213 
L 643.70102 353.2077 
L 652.447944 353.217267 
L 661.194867 353.215213 
L 669.941791 353.216592 
L 678.688715 353.217708 
L 687.435639 353.215477 
L 696.182563 353.216005 
L 704.929486 353.208551 
L 713.67641 353.217033 
L 722.423334 353.216064 
L 731.170258 353.214333 
L 739.917181 353.218353 
L 748.664105 353.215066 
L 757.411029 353.2158 
L 766.157953 353.218324 
L 774.904877 353.214832 
L 783.6518 353.214098 
L 792.398724 353.214362 
L 801.145648 353.215595 
L 809.892572 353.216446 
L 818.639496 353.211457 
L 827.386419 353.208727 
L 836.133343 353.212719 
L 844.880267 353.214509 
L 853.627191 353.215213 
L 862.374114 353.215712 
L 871.121038 353.216504 
L 879.867962 353.213335 
L 888.614886 353.217355 
L 897.36181 353.213687 
L 906.108733 353.211574 
L 914.855657 353.20274 
L 923.602581 353.200803 
L 932.349505 353.164119 
L 941.096428 351.745629 
L 949.843352 353.14384 
" clip-path="url(#pf4d965e4b5)" style="fill: none; stroke: #e4d354; stroke-linecap: square"/>
   </g>
   <g id="line2d_14">
    <path d="M 83.897898 78.173417 
L 92.644822 267.629977 
L 101.391745 323.898396 
L 110.138669 352.474185 
L 118.885593 351.567577 
L 127.632517 353.13706 
L 136.37944 353.01876 
L 145.126364 353.174655 
L 153.873288 353.078424 
L 162.620212 353.086582 
L 171.367136 353.074961 
L 180.114059 353.199248 
L 188.860983 353.15505 
L 197.607907 353.200334 
L 206.354831 353.155843 
L 215.101754 353.159482 
L 223.848678 353.181111 
L 232.595602 353.157398 
L 241.342526 353.174537 
L 250.08945 353.192058 
L 258.836373 353.17668 
L 267.583297 353.195403 
L 276.330221 353.176005 
L 285.077145 353.189915 
L 293.824069 353.184281 
L 302.570992 353.196078 
L 311.317916 353.186951 
L 320.06484 353.199043 
L 328.811764 353.191559 
L 337.558687 353.198984 
L 346.305611 353.194758 
L 355.052535 353.194728 
L 363.799459 353.199776 
L 372.546383 353.197693 
L 381.293306 353.201566 
L 390.04023 353.204061 
L 398.787154 353.202388 
L 407.534078 353.207054 
L 416.281001 353.206966 
L 425.027925 353.19599 
L 433.774849 353.205352 
L 442.521773 353.201332 
L 451.268697 353.208375 
L 460.01562 353.208962 
L 468.762544 353.208404 
L 477.509468 353.205763 
L 486.256392 353.206908 
L 495.003316 353.208639 
L 503.750239 353.2077 
L 512.497163 353.209402 
L 521.244087 353.204648 
L 529.991011 353.210694 
L 538.737934 353.208581 
L 547.484858 353.210928 
L 556.231782 353.213394 
L 564.978706 353.209373 
L 573.72563 353.199776 
L 582.472553 353.212073 
L 591.219477 353.211075 
L 599.966401 353.212132 
L 608.713325 353.210429 
L 617.460249 353.212953 
L 626.207172 353.212953 
L 634.954096 353.211779 
L 643.70102 353.205881 
L 652.447944 353.213834 
L 661.194867 353.2131 
L 669.941791 353.214215 
L 678.688715 353.214626 
L 687.435639 353.212014 
L 696.182563 353.213716 
L 704.929486 353.19781 
L 713.67641 353.213129 
L 722.423334 353.213511 
L 731.170258 353.207583 
L 739.917181 353.215448 
L 748.664105 353.210958 
L 757.411029 353.212777 
L 766.157953 353.213452 
L 774.904877 353.208933 
L 783.6518 353.211104 
L 792.398724 353.21084 
L 801.145648 353.213335 
L 809.892572 353.212953 
L 818.639496 353.209872 
L 827.386419 353.20591 
L 836.133343 353.209901 
L 844.880267 353.212983 
L 853.627191 353.213452 
L 862.374114 353.21398 
L 871.121038 353.214567 
L 879.867962 353.210224 
L 888.614886 353.215595 
L 897.36181 353.212601 
L 906.108733 353.20952 
L 914.855657 353.200891 
L 923.602581 353.201772 
L 932.349505 353.178206 
L 941.096428 352.616814 
L 949.843352 353.183283 
" clip-path="url(#pf4d965e4b5)" style="fill: none; stroke: #2b908f; stroke-linecap: square"/>
   </g>
   <g id="line2d_15">
    <path d="M 83.897898 226.958344 
L 92.644822 311.828906 
L 101.391745 339.4786 
L 110.138669 352.890687 
L 118.885593 352.467787 
L 127.632517 353.187832 
L 136.37944 353.12852 
L 145.126364 353.205881 
L 153.873288 353.166085 
L 162.620212 353.174361 
L 171.367136 353.175858 
L 180.114059 353.215741 
L 188.860983 353.200657 
L 197.607907 353.214039 
L 206.354831 353.199952 
L 215.101754 353.20412 
L 223.848678 353.208522 
L 232.595602 353.204061 
L 241.342526 353.207553 
L 250.08945 353.212601 
L 258.836373 353.204061 
L 267.583297 353.212366 
L 276.330221 353.204354 
L 285.077145 353.208698 
L 293.824069 353.209285 
L 302.570992 353.209696 
L 311.317916 353.202975 
L 320.06484 353.20952 
L 328.811764 353.211574 
L 337.558687 353.212308 
L 346.305611 353.21219 
L 355.052535 353.209608 
L 363.799459 353.211897 
L 372.546383 353.211926 
L 381.293306 353.209784 
L 390.04023 353.212337 
L 398.787154 353.213305 
L 407.534078 353.216915 
L 416.281001 353.218647 
L 425.027925 353.213129 
L 433.774849 353.213863 
L 442.521773 353.214186 
L 451.268697 353.215125 
L 460.01562 353.21533 
L 468.762544 353.214391 
L 477.509468 353.212748 
L 486.256392 353.213394 
L 495.003316 353.213041 
L 503.750239 353.216152 
L 512.497163 353.215272 
L 521.244087 353.213071 
L 529.991011 353.217355 
L 538.737934 353.215213 
L 547.484858 353.215477 
L 556.231782 353.217825 
L 564.978706 353.218471 
L 573.72563 353.215976 
L 582.472553 353.218999 
L 591.219477 353.218559 
L 599.966401 353.217678 
L 608.713325 353.218177 
L 617.460249 353.219733 
L 626.207172 353.21759 
L 634.954096 353.217326 
L 643.70102 353.213922 
L 652.447944 353.220085 
L 661.194867 353.21806 
L 669.941791 353.220085 
L 678.688715 353.219586 
L 687.435639 353.216827 
L 696.182563 353.219879 
L 704.929486 353.214597 
L 713.67641 353.21938 
L 722.423334 353.219674 
L 731.170258 353.219116 
L 739.917181 353.218911 
L 748.664105 353.218794 
L 757.411029 353.219263 
L 766.157953 353.219292 
L 774.904877 353.216358 
L 783.6518 353.214655 
L 792.398724 353.218617 
L 801.145648 353.218089 
L 809.892572 353.219557 
L 818.639496 353.216534 
L 827.386419 353.21219 
L 836.133343 353.218794 
L 844.880267 353.217708 
L 853.627191 353.218295 
L 862.374114 353.218295 
L 871.121038 353.218353 
L 879.867962 353.21624 
L 888.614886 353.218353 
L 897.36181 353.216182 
L 906.108733 353.215301 
L 914.855657 353.207142 
L 923.602581 353.208111 
L 932.349505 353.169548 
L 941.096428 351.989625 
L 949.843352 353.132247 
" clip-path="url(#pf4d965e4b5)" style="fill: none; stroke: #f45b5b; stroke-linecap: square"/>
   </g>
   <g id="line2d_16">
    <path d="M 83.897898 86.222835 
L 92.644822 270.27652 
L 101.391745 325.052551 
L 110.138669 352.509959 
L 118.885593 351.636074 
L 127.632517 353.137941 
L 136.37944 353.017967 
L 145.126364 353.183723 
L 153.873288 353.105864 
L 162.620212 353.106509 
L 171.367136 353.09659 
L 180.114059 353.201772 
L 188.860983 353.164089 
L 197.607907 353.20139 
L 206.354831 353.15957 
L 215.101754 353.165146 
L 223.848678 353.180847 
L 232.595602 353.156723 
L 241.342526 353.178411 
L 250.08945 353.190943 
L 258.836373 353.177589 
L 267.583297 353.193907 
L 276.330221 353.170194 
L 285.077145 353.186951 
L 293.824069 353.179937 
L 302.570992 353.194816 
L 311.317916 353.184251 
L 320.06484 353.201566 
L 328.811764 353.18252 
L 337.558687 353.198309 
L 346.305611 353.193525 
L 355.052535 353.190209 
L 363.799459 353.200158 
L 372.546383 353.195462 
L 381.293306 353.202212 
L 390.04023 353.198162 
L 398.787154 353.204384 
L 407.534078 353.195374 
L 416.281001 353.210811 
L 425.027925 353.198162 
L 433.774849 353.20547 
L 442.521773 353.203181 
L 451.268697 353.205294 
L 460.01562 353.201948 
L 468.762544 353.203621 
L 477.509468 353.203562 
L 486.256392 353.202506 
L 495.003316 353.204795 
L 503.750239 353.206585 
L 512.497163 353.209578 
L 521.244087 353.199806 
L 529.991011 353.210459 
L 538.737934 353.208082 
L 547.484858 353.210488 
L 556.231782 353.212337 
L 564.978706 353.213276 
L 573.72563 353.206409 
L 582.472553 353.214039 
L 591.219477 353.213041 
L 599.966401 353.2131 
L 608.713325 353.214274 
L 617.460249 353.215242 
L 626.207172 353.21354 
L 634.954096 353.212719 
L 643.70102 353.206937 
L 652.447944 353.217854 
L 661.194867 353.214802 
L 669.941791 353.217121 
L 678.688715 353.216152 
L 687.435639 353.214567 
L 696.182563 353.21401 
L 704.929486 353.205382 
L 713.67641 353.215917 
L 722.423334 353.214655 
L 731.170258 353.213423 
L 739.917181 353.215917 
L 748.664105 353.213951 
L 757.411029 353.216094 
L 766.157953 353.216123 
L 774.904877 353.211545 
L 783.6518 353.212924 
L 792.398724 353.211104 
L 801.145648 353.214245 
L 809.892572 353.214685 
L 818.639496 353.211222 
L 827.386419 353.207025 
L 836.133343 353.210107 
L 844.880267 353.213599 
L 853.627191 353.215008 
L 862.374114 353.215595 
L 871.121038 353.213276 
L 879.867962 353.209842 
L 888.614886 353.215712 
L 897.36181 353.209784 
L 906.108733 353.209197 
L 914.855657 353.198133 
L 923.602581 353.197869 
L 932.349505 353.160186 
L 941.096428 351.962508 
L 949.843352 353.158748 
" clip-path="url(#pf4d965e4b5)" style="fill: none; stroke: #91e8e1; stroke-linecap: square"/>
   </g>
   <g id="line2d_17">
    <path d="M 83.897898 146.347449 
L 92.644822 287.838337 
L 101.391745 330.834363 
L 110.138669 352.675392 
L 118.885593 351.9795 
L 127.632517 353.164618 
L 136.37944 353.067829 
L 145.126364 353.184926 
L 153.873288 353.132012 
L 162.620212 353.149298 
L 171.367136 353.148447 
L 180.114059 353.211427 
L 188.860983 353.191882 
L 197.607907 353.208991 
L 206.354831 353.196343 
L 215.101754 353.19467 
L 223.848678 353.202329 
L 232.595602 353.195433 
L 241.342526 353.199365 
L 250.08945 353.208346 
L 258.836373 353.201009 
L 267.583297 353.209285 
L 276.330221 353.201977 
L 285.077145 353.207641 
L 293.824069 353.205881 
L 302.570992 353.206497 
L 311.317916 353.205558 
L 320.06484 353.209432 
L 328.811764 353.205294 
L 337.558687 353.211515 
L 346.305611 353.210195 
L 355.052535 353.208639 
L 363.799459 353.211427 
L 372.546383 353.208933 
L 381.293306 353.209931 
L 390.04023 353.212953 
L 398.787154 353.209549 
L 407.534078 353.212513 
L 416.281001 353.212689 
L 425.027925 353.210253 
L 433.774849 353.212278 
L 442.521773 353.211427 
L 451.268697 353.2158 
L 460.01562 353.214098 
L 468.762544 353.215037 
L 477.509468 353.213129 
L 486.256392 353.212924 
L 495.003316 353.212161 
L 503.750239 353.213188 
L 512.497163 353.213599 
L 521.244087 353.210782 
L 529.991011 353.215066 
L 538.737934 353.211545 
L 547.484858 353.214685 
L 556.231782 353.21624 
L 564.978706 353.214832 
L 573.72563 353.206467 
L 582.472553 353.21536 
L 591.219477 353.215624 
L 599.966401 353.216211 
L 608.713325 353.215653 
L 617.460249 353.217326 
L 626.207172 353.215917 
L 634.954096 353.214802 
L 643.70102 353.210517 
L 652.447944 353.217532 
L 661.194867 353.21492 
L 669.941791 353.218559 
L 678.688715 353.216563 
L 687.435639 353.216915 
L 696.182563 353.215741 
L 704.929486 353.207612 
L 713.67641 353.21492 
L 722.423334 353.215595 
L 731.170258 353.213188 
L 739.917181 353.217238 
L 748.664105 353.214802 
L 757.411029 353.216534 
L 766.157953 353.215976 
L 774.904877 353.212924 
L 783.6518 353.21266 
L 792.398724 353.214186 
L 801.145648 353.215066 
L 809.892572 353.216827 
L 818.639496 353.212513 
L 827.386419 353.21131 
L 836.133343 353.212748 
L 844.880267 353.216592 
L 853.627191 353.214509 
L 862.374114 353.216915 
L 871.121038 353.215859 
L 879.867962 353.215037 
L 888.614886 353.218383 
L 897.36181 353.21492 
L 906.108733 353.212983 
L 914.855657 353.205558 
L 923.602581 353.207377 
L 932.349505 353.193026 
L 941.096428 352.870877 
L 949.843352 353.195227 
" clip-path="url(#pf4d965e4b5)" style="fill: none; stroke: #7cb5ec; stroke-linecap: square"/>
   </g>
   <g id="line2d_18">
    <path d="M 83.897898 98.162286 
L 92.644822 274.82036 
L 101.391745 325.544858 
L 110.138669 352.556153 
L 118.885593 351.689223 
L 127.632517 353.147332 
L 136.37944 353.034549 
L 145.126364 353.180847 
L 153.873288 353.109943 
L 162.620212 353.126055 
L 171.367136 353.128549 
L 180.114059 353.205704 
L 188.860983 353.178352 
L 197.607907 353.206174 
L 206.354831 353.179057 
L 215.101754 353.180642 
L 223.848678 353.189446 
L 232.595602 353.17486 
L 241.342526 353.190796 
L 250.08945 353.197194 
L 258.836373 353.188624 
L 267.583297 353.20007 
L 276.330221 353.187626 
L 285.077145 353.197399 
L 293.824069 353.193408 
L 302.570992 353.200393 
L 311.317916 353.193349 
L 320.06484 353.205587 
L 328.811764 353.194934 
L 337.558687 353.203151 
L 346.305611 353.202594 
L 355.052535 353.198338 
L 363.799459 353.204648 
L 372.546383 353.20277 
L 381.293306 353.203679 
L 390.04023 353.208287 
L 398.787154 353.207319 
L 407.534078 353.205939 
L 416.281001 353.209432 
L 425.027925 353.201713 
L 433.774849 353.208669 
L 442.521773 353.207025 
L 451.268697 353.209079 
L 460.01562 353.209285 
L 468.762544 353.2077 
L 477.509468 353.20817 
L 486.256392 353.20949 
L 495.003316 353.20682 
L 503.750239 353.210958 
L 512.497163 353.210312 
L 521.244087 353.205734 
L 529.991011 353.212249 
L 538.737934 353.210987 
L 547.484858 353.209549 
L 556.231782 353.215712 
L 564.978706 353.21357 
L 573.72563 353.205616 
L 582.472553 353.214274 
L 591.219477 353.213863 
L 599.966401 353.213687 
L 608.713325 353.212542 
L 617.460249 353.214479 
L 626.207172 353.213188 
L 634.954096 353.212953 
L 643.70102 353.20682 
L 652.447944 353.216622 
L 661.194867 353.213276 
L 669.941791 353.215947 
L 678.688715 353.21627 
L 687.435639 353.213041 
L 696.182563 353.215859 
L 704.929486 353.204296 
L 713.67641 353.214362 
L 722.423334 353.21492 
L 731.170258 353.211779 
L 739.917181 353.217062 
L 748.664105 353.213834 
L 757.411029 353.212865 
L 766.157953 353.213834 
L 774.904877 353.212836 
L 783.6518 353.211515 
L 792.398724 353.210782 
L 801.145648 353.215624 
L 809.892572 353.213599 
L 818.639496 353.210224 
L 827.386419 353.204707 
L 836.133343 353.212484 
L 844.880267 353.215947 
L 853.627191 353.214245 
L 862.374114 353.212454 
L 871.121038 353.212513 
L 879.867962 353.212454 
L 888.614886 353.216651 
L 897.36181 353.211545 
L 906.108733 353.210899 
L 914.855657 353.200979 
L 923.602581 353.199864 
L 932.349505 353.170076 
L 941.096428 352.260622 
L 949.843352 353.154786 
" clip-path="url(#pf4d965e4b5)" style="fill: none; stroke: #434348; stroke-linecap: square"/>
   </g>
   <g id="line2d_19">
    <path d="M 83.897898 75.702021 
L 92.644822 267.983704 
L 101.391745 323.545754 
L 110.138669 352.45684 
L 118.885593 351.590996 
L 127.632517 353.140875 
L 136.37944 353.020139 
L 145.126364 353.183518 
L 153.873288 353.096942 
L 162.620212 353.111088 
L 171.367136 353.092217 
L 180.114059 353.203093 
L 188.860983 353.164618 
L 197.607907 353.20004 
L 206.354831 353.162299 
L 215.101754 353.170751 
L 223.848678 353.179879 
L 232.595602 353.166555 
L 241.342526 353.180759 
L 250.08945 353.191324 
L 258.836373 353.180671 
L 267.583297 353.193643 
L 276.330221 353.176269 
L 285.077145 353.190385 
L 293.824069 353.186893 
L 302.570992 353.192058 
L 311.317916 353.185278 
L 320.06484 353.200686 
L 328.811764 353.186482 
L 337.558687 353.1942 
L 346.305611 353.196343 
L 355.052535 353.190913 
L 363.799459 353.199277 
L 372.546383 353.196108 
L 381.293306 353.203151 
L 390.04023 353.204707 
L 398.787154 353.204413 
L 407.534078 353.202711 
L 416.281001 353.201684 
L 425.027925 353.194846 
L 433.774849 353.204061 
L 442.521773 353.202447 
L 451.268697 353.206379 
L 460.01562 353.205323 
L 468.762544 353.202711 
L 477.509468 353.201596 
L 486.256392 353.201831 
L 495.003316 353.20186 
L 503.750239 353.206086 
L 512.497163 353.208346 
L 521.244087 353.200128 
L 529.991011 353.213687 
L 538.737934 353.210048 
L 547.484858 353.208991 
L 556.231782 353.214098 
L 564.978706 353.211926 
L 573.72563 353.207289 
L 582.472553 353.212748 
L 591.219477 353.213746 
L 599.966401 353.212542 
L 608.713325 353.211046 
L 617.460249 353.214157 
L 626.207172 353.210048 
L 634.954096 353.211369 
L 643.70102 353.204472 
L 652.447944 353.214127 
L 661.194867 353.213276 
L 669.941791 353.215154 
L 678.688715 353.214186 
L 687.435639 353.214333 
L 696.182563 353.213628 
L 704.929486 353.202711 
L 713.67641 353.21354 
L 722.423334 353.213188 
L 731.170258 353.211075 
L 739.917181 353.215184 
L 748.664105 353.212278 
L 757.411029 353.213628 
L 766.157953 353.215008 
L 774.904877 353.210488 
L 783.6518 353.210341 
L 792.398724 353.212601 
L 801.145648 353.214333 
L 809.892572 353.21489 
L 818.639496 353.207876 
L 827.386419 353.202535 
L 836.133343 353.210459 
L 844.880267 353.211369 
L 853.627191 353.21219 
L 862.374114 353.213687 
L 871.121038 353.211897 
L 879.867962 353.207495 
L 888.614886 353.214362 
L 897.36181 353.20996 
L 906.108733 353.206644 
L 914.855657 353.190209 
L 923.602581 353.191618 
L 932.349505 353.125673 
L 941.096428 351.312047 
L 949.843352 353.155461 
" clip-path="url(#pf4d965e4b5)" style="fill: none; stroke: #90ed7d; stroke-linecap: square"/>
   </g>
   <g id="line2d_20">
    <path d="M 83.897898 90.345683 
L 92.644822 270.093831 
L 101.391745 324.301926 
L 110.138669 352.542447 
L 118.885593 351.638393 
L 127.632517 353.156048 
L 136.37944 353.023514 
L 145.126364 353.180377 
L 153.873288 353.090221 
L 162.620212 353.118718 
L 171.367136 353.123296 
L 180.114059 353.203738 
L 188.860983 353.183518 
L 197.607907 353.203562 
L 206.354831 353.182226 
L 215.101754 353.187421 
L 223.848678 353.195433 
L 232.595602 353.186893 
L 241.342526 353.188918 
L 250.08945 353.201097 
L 258.836373 353.188272 
L 267.583297 353.202329 
L 276.330221 353.192645 
L 285.077145 353.202007 
L 293.824069 353.199013 
L 302.570992 353.19555 
L 311.317916 353.198397 
L 320.06484 353.204677 
L 328.811764 353.197898 
L 337.558687 353.20139 
L 346.305611 353.202124 
L 355.052535 353.203797 
L 363.799459 353.203738 
L 372.546383 353.20365 
L 381.293306 353.206497 
L 390.04023 353.207935 
L 398.787154 353.206644 
L 407.534078 353.205176 
L 416.281001 353.208698 
L 425.027925 353.200569 
L 433.774849 353.208258 
L 442.521773 353.204501 
L 451.268697 353.210664 
L 460.01562 353.209109 
L 468.762544 353.208199 
L 477.509468 353.208434 
L 486.256392 353.210019 
L 495.003316 353.20817 
L 503.750239 353.209842 
L 512.497163 353.208845 
L 521.244087 353.206467 
L 529.991011 353.211956 
L 538.737934 353.210077 
L 547.484858 353.20952 
L 556.231782 353.213452 
L 564.978706 353.210077 
L 573.72563 353.19825 
L 582.472553 353.209842 
L 591.219477 353.211339 
L 599.966401 353.211985 
L 608.713325 353.210606 
L 617.460249 353.211075 
L 626.207172 353.212513 
L 634.954096 353.211956 
L 643.70102 353.205411 
L 652.447944 353.213687 
L 661.194867 353.211809 
L 669.941791 353.213746 
L 678.688715 353.214626 
L 687.435639 353.213159 
L 696.182563 353.212513 
L 704.929486 353.201156 
L 713.67641 353.212689 
L 722.423334 353.214333 
L 731.170258 353.210606 
L 739.917181 353.215712 
L 748.664105 353.211545 
L 757.411029 353.209608 
L 766.157953 353.214362 
L 774.904877 353.211281 
L 783.6518 353.207935 
L 792.398724 353.21222 
L 801.145648 353.213804 
L 809.892572 353.214274 
L 818.639496 353.209109 
L 827.386419 353.204941 
L 836.133343 353.210283 
L 844.880267 353.214479 
L 853.627191 353.214391 
L 862.374114 353.212719 
L 871.121038 353.212719 
L 879.867962 353.211222 
L 888.614886 353.215976 
L 897.36181 353.210987 
L 906.108733 353.210371 
L 914.855657 353.199395 
L 923.602581 353.202007 
L 932.349505 353.183752 
L 941.096428 352.899696 
L 949.843352 353.202007 
" clip-path="url(#pf4d965e4b5)" style="fill: none; stroke: #f7a35c; stroke-linecap: square"/>
   </g>
   <g id="line2d_21">
    <path d="M 83.897898 124.431407 
L 92.644822 281.719115 
L 101.391745 328.671529 
L 110.138669 352.60531 
L 118.885593 351.819585 
L 127.632517 353.160186 
L 136.37944 353.051952 
L 145.126364 353.186335 
L 153.873288 353.112907 
L 162.620212 353.137618 
L 171.367136 353.138117 
L 180.114059 353.209373 
L 188.860983 353.186482 
L 197.607907 353.206644 
L 206.354831 353.185396 
L 215.101754 353.188008 
L 223.848678 353.194905 
L 232.595602 353.188037 
L 241.342526 353.194406 
L 250.08945 353.198103 
L 258.836373 353.191383 
L 267.583297 353.204178 
L 276.330221 353.193202 
L 285.077145 353.198749 
L 293.824069 353.195756 
L 302.570992 353.201449 
L 311.317916 353.197223 
L 320.06484 353.205528 
L 328.811764 353.196783 
L 337.558687 353.205558 
L 346.305611 353.200569 
L 355.052535 353.195726 
L 363.799459 353.201713 
L 372.546383 353.199806 
L 381.293306 353.205734 
L 390.04023 353.210694 
L 398.787154 353.209813 
L 407.534078 353.205264 
L 416.281001 353.203591 
L 425.027925 353.203415 
L 433.774849 353.207465 
L 442.521773 353.208111 
L 451.268697 353.210635 
L 460.01562 353.208522 
L 468.762544 353.20726 
L 477.509468 353.204736 
L 486.256392 353.205822 
L 495.003316 353.207935 
L 503.750239 353.206262 
L 512.497163 353.214069 
L 521.244087 353.206908 
L 529.991011 353.214274 
L 538.737934 353.214098 
L 547.484858 353.21219 
L 556.231782 353.214538 
L 564.978706 353.214215 
L 573.72563 353.206878 
L 582.472553 353.215741 
L 591.219477 353.213746 
L 599.966401 353.212396 
L 608.713325 353.212425 
L 617.460249 353.215448 
L 626.207172 353.213423 
L 634.954096 353.21401 
L 643.70102 353.20814 
L 652.447944 353.216387 
L 661.194867 353.215536 
L 669.941791 353.21536 
L 678.688715 353.217267 
L 687.435639 353.215184 
L 696.182563 353.213804 
L 704.929486 353.206057 
L 713.67641 353.2158 
L 722.423334 353.215536 
L 731.170258 353.213892 
L 739.917181 353.216299 
L 748.664105 353.21354 
L 757.411029 353.214421 
L 766.157953 353.2158 
L 774.904877 353.213628 
L 783.6518 353.211398 
L 792.398724 353.211104 
L 801.145648 353.214861 
L 809.892572 353.21533 
L 818.639496 353.211192 
L 827.386419 353.208404 
L 836.133343 353.212161 
L 844.880267 353.214127 
L 853.627191 353.214157 
L 862.374114 353.215008 
L 871.121038 353.214479 
L 879.867962 353.210987 
L 888.614886 353.217737 
L 897.36181 353.213716 
L 906.108733 353.210429 
L 914.855657 353.202241 
L 923.602581 353.202036 
L 932.349505 353.171544 
L 941.096428 352.309045 
L 949.843352 353.166613 
" clip-path="url(#pf4d965e4b5)" style="fill: none; stroke: #8085e9; stroke-linecap: square"/>
   </g>
   <g id="line2d_22">
    <path d="M 83.897898 50.397088 
L 92.644822 262.269216 
L 101.391745 322.609828 
L 110.138669 352.469959 
L 118.885593 351.511523 
L 127.632517 353.141756 
L 136.37944 353.030499 
L 145.126364 353.176885 
L 153.873288 353.096091 
L 162.620212 353.100053 
L 171.367136 353.081623 
L 180.114059 353.201244 
L 188.860983 353.164647 
L 197.607907 353.200833 
L 206.354831 353.160656 
L 215.101754 353.165234 
L 223.848678 353.182285 
L 232.595602 353.162739 
L 241.342526 353.17351 
L 250.08945 353.190268 
L 258.836373 353.171896 
L 267.583297 353.19153 
L 276.330221 353.174244 
L 285.077145 353.190238 
L 293.824069 353.183664 
L 302.570992 353.192028 
L 311.317916 353.184046 
L 320.06484 353.199043 
L 328.811764 353.186394 
L 337.558687 353.195697 
L 346.305611 353.192351 
L 355.052535 353.187949 
L 363.799459 353.199982 
L 372.546383 353.193378 
L 381.293306 353.199277 
L 390.04023 353.199806 
L 398.787154 353.201361 
L 407.534078 353.20274 
L 416.281001 353.195286 
L 425.027925 353.189446 
L 433.774849 353.203063 
L 442.521773 353.200862 
L 451.268697 353.202858 
L 460.01562 353.205411 
L 468.762544 353.19916 
L 477.509468 353.203533 
L 486.256392 353.203885 
L 495.003316 353.205176 
L 503.750239 353.201919 
L 512.497163 353.20365 
L 521.244087 353.196078 
L 529.991011 353.206585 
L 538.737934 353.204736 
L 547.484858 353.207641 
L 556.231782 353.211662 
L 564.978706 353.211662 
L 573.72563 353.199512 
L 582.472553 353.212308 
L 591.219477 353.209578 
L 599.966401 353.211486 
L 608.713325 353.210019 
L 617.460249 353.214157 
L 626.207172 353.211897 
L 634.954096 353.21266 
L 643.70102 353.205147 
L 652.447944 353.213335 
L 661.194867 353.212249 
L 669.941791 353.215184 
L 678.688715 353.215624 
L 687.435639 353.212895 
L 696.182563 353.213247 
L 704.929486 353.200862 
L 713.67641 353.214567 
L 722.423334 353.214597 
L 731.170258 353.206937 
L 739.917181 353.216035 
L 748.664105 353.210606 
L 757.411029 353.21087 
L 766.157953 353.214479 
L 774.904877 353.211163 
L 783.6518 353.210283 
L 792.398724 353.209696 
L 801.145648 353.212513 
L 809.892572 353.213394 
L 818.639496 353.208786 
L 827.386419 353.205939 
L 836.133343 353.209578 
L 844.880267 353.20949 
L 853.627191 353.209754 
L 862.374114 353.212337 
L 871.121038 353.211691 
L 879.867962 353.209314 
L 888.614886 353.214802 
L 897.36181 353.212484 
L 906.108733 353.210928 
L 914.855657 353.20139 
L 923.602581 353.20095 
L 932.349505 353.173246 
L 941.096428 352.370411 
L 949.843352 353.141844 
" clip-path="url(#pf4d965e4b5)" style="fill: none; stroke: #f15c80; stroke-linecap: square"/>
   </g>
   <g id="line2d_23">
    <path d="M 40.600625 353.2239 
L 993.140625 353.2239 
" clip-path="url(#pf4d965e4b5)" style="fill: none; stroke: #dedede; stroke-width: 2; stroke-linecap: square"/>
   </g>
   <g id="text_16">
    <!-- Cutadapt: Lengths of Trimmed Sequences (3' end) -->
    <g transform="translate(315.518125 19.3575) scale(0.16 -0.16)">
     <defs>
      <path id="DejaVuSans-61" d="M 2194 1759 
Q 1497 1759 1228 1600 
Q 959 1441 959 1056 
Q 959 750 1161 570 
Q 1363 391 1709 391 
Q 2188 391 2477 730 
Q 2766 1069 2766 1631 
L 2766 1759 
L 2194 1759 
z
M 3341 1997 
L 3341 0 
L 2766 0 
L 2766 531 
Q 2569 213 2275 61 
Q 1981 -91 1556 -91 
Q 1019 -91 701 211 
Q 384 513 384 1019 
Q 384 1609 779 1909 
Q 1175 2209 1959 2209 
L 2766 2209 
L 2766 2266 
Q 2766 2663 2505 2880 
Q 2244 3097 1772 3097 
Q 1472 3097 1187 3025 
Q 903 2953 641 2809 
L 641 3341 
Q 956 3463 1253 3523 
Q 1550 3584 1831 3584 
Q 2591 3584 2966 3190 
Q 3341 2797 3341 1997 
z
" transform="scale(0.015625)"/>
      <path id="DejaVuSans-3a" d="M 750 794 
L 1409 794 
L 1409 0 
L 750 0 
L 750 794 
z
M 750 3309 
L 1409 3309 
L 1409 2516 
L 750 2516 
L 750 3309 
z
" transform="scale(0.015625)"/>
      <path id="DejaVuSans-73" d="M 2834 3397 
L 2834 2853 
Q 2591 2978 2328 3040 
Q 2066 3103 1784 3103 
Q 1356 3103 1142 2972 
Q 928 2841 928 2578 
Q 928 2378 1081 2264 
Q 1234 2150 1697 2047 
L 1894 2003 
Q 2506 1872 2764 1633 
Q 3022 1394 3022 966 
Q 3022 478 2636 193 
Q 2250 -91 1575 -91 
Q 1294 -91 989 -36 
Q 684 19 347 128 
L 347 722 
Q 666 556 975 473 
Q 1284 391 1588 391 
Q 1994 391 2212 530 
Q 2431 669 2431 922 
Q 2431 1156 2273 1281 
Q 2116 1406 1581 1522 
L 1381 1569 
Q 847 1681 609 1914 
Q 372 2147 372 2553 
Q 372 3047 722 3315 
Q 1072 3584 1716 3584 
Q 2034 3584 2315 3537 
Q 2597 3491 2834 3397 
z
" transform="scale(0.015625)"/>
      <path id="DejaVuSans-66" d="M 2375 4863 
L 2375 4384 
L 1825 4384 
Q 1516 4384 1395 4259 
Q 1275 4134 1275 3809 
L 1275 3500 
L 2222 3500 
L 2222 3053 
L 1275 3053 
L 1275 0 
L 697 0 
L 697 3053 
L 147 3053 
L 147 3500 
L 697 3500 
L 697 3744 
Q 697 4328 969 4595 
Q 1241 4863 1831 4863 
L 2375 4863 
z
" transform="scale(0.015625)"/>
      <path id="DejaVuSans-53" d="M 3425 4513 
L 3425 3897 
Q 3066 4069 2747 4153 
Q 2428 4238 2131 4238 
Q 1616 4238 1336 4038 
Q 1056 3838 1056 3469 
Q 1056 3159 1242 3001 
Q 1428 2844 1947 2747 
L 2328 2669 
Q 3034 2534 3370 2195 
Q 3706 1856 3706 1288 
Q 3706 609 3251 259 
Q 2797 -91 1919 -91 
Q 1588 -91 1214 -16 
Q 841 59 441 206 
L 441 856 
Q 825 641 1194 531 
Q 1563 422 1919 422 
Q 2459 422 2753 634 
Q 3047 847 3047 1241 
Q 3047 1584 2836 1778 
Q 2625 1972 2144 2069 
L 1759 2144 
Q 1053 2284 737 2584 
Q 422 2884 422 3419 
Q 422 4038 858 4394 
Q 1294 4750 2059 4750 
Q 2388 4750 2728 4690 
Q 3069 4631 3425 4513 
z
" transform="scale(0.015625)"/>
      <path id="DejaVuSans-71" d="M 947 1747 
Q 947 1113 1208 752 
Q 1469 391 1925 391 
Q 2381 391 2643 752 
Q 2906 1113 2906 1747 
Q 2906 2381 2643 2742 
Q 2381 3103 1925 3103 
Q 1469 3103 1208 2742 
Q 947 2381 947 1747 
z
M 2906 525 
Q 2725 213 2448 61 
Q 2172 -91 1784 -91 
Q 1150 -91 751 415 
Q 353 922 353 1747 
Q 353 2572 751 3078 
Q 1150 3584 1784 3584 
Q 2172 3584 2448 3432 
Q 2725 3281 2906 2969 
L 2906 3500 
L 3481 3500 
L 3481 -1331 
L 2906 -1331 
L 2906 525 
z
" transform="scale(0.015625)"/>
      <path id="DejaVuSans-63" d="M 3122 3366 
L 3122 2828 
Q 2878 2963 2633 3030 
Q 2388 3097 2138 3097 
Q 1578 3097 1268 2742 
Q 959 2388 959 1747 
Q 959 1106 1268 751 
Q 1578 397 2138 397 
Q 2388 397 2633 464 
Q 2878 531 3122 666 
L 3122 134 
Q 2881 22 2623 -34 
Q 2366 -91 2075 -91 
Q 1284 -91 818 406 
Q 353 903 353 1747 
Q 353 2603 823 3093 
Q 1294 3584 2113 3584 
Q 2378 3584 2631 3529 
Q 2884 3475 3122 3366 
z
" transform="scale(0.015625)"/>
      <path id="DejaVuSans-33" d="M 2597 2516 
Q 3050 2419 3304 2112 
Q 3559 1806 3559 1356 
Q 3559 666 3084 287 
Q 2609 -91 1734 -91 
Q 1441 -91 1130 -33 
Q 819 25 488 141 
L 488 750 
Q 750 597 1062 519 
Q 1375 441 1716 441 
Q 2309 441 2620 675 
Q 2931 909 2931 1356 
Q 2931 1769 2642 2001 
Q 2353 2234 1838 2234 
L 1294 2234 
L 1294 2753 
L 1863 2753 
Q 2328 2753 2575 2939 
Q 2822 3125 2822 3475 
Q 2822 3834 2567 4026 
Q 2313 4219 1838 4219 
Q 1578 4219 1281 4162 
Q 984 4106 628 3988 
L 628 4550 
Q 988 4650 1302 4700 
Q 1616 4750 1894 4750 
Q 2613 4750 3031 4423 
Q 3450 4097 3450 3541 
Q 3450 3153 3228 2886 
Q 3006 2619 2597 2516 
z
" transform="scale(0.015625)"/>
      <path id="DejaVuSans-27" d="M 1147 4666 
L 1147 2931 
L 616 2931 
L 616 4666 
L 1147 4666 
z
" transform="scale(0.015625)"/>
     </defs>
     <use xlink:href="#DejaVuSans-43"/>
     <use xlink:href="#DejaVuSans-75" x="69.824219"/>
     <use xlink:href="#DejaVuSans-74" x="133.203125"/>
     <use xlink:href="#DejaVuSans-61" x="172.412109"/>
     <use xlink:href="#DejaVuSans-64" x="233.691406"/>
     <use xlink:href="#DejaVuSans-61" x="297.167969"/>
     <use xlink:href="#DejaVuSans-70" x="358.447266"/>
     <use xlink:href="#DejaVuSans-74" x="421.923828"/>
     <use xlink:href="#DejaVuSans-3a" x="461.132812"/>
     <use xlink:href="#DejaVuSans-20" x="494.824219"/>
     <use xlink:href="#DejaVuSans-4c" x="526.611328"/>
     <use xlink:href="#DejaVuSans-65" x="580.574219"/>
     <use xlink:href="#DejaVuSans-6e" x="642.097656"/>
     <use xlink:href="#DejaVuSans-67" x="705.476562"/>
     <use xlink:href="#DejaVuSans-74" x="768.953125"/>
     <use xlink:href="#DejaVuSans-68" x="808.162109"/>
     <use xlink:href="#DejaVuSans-73" x="871.541016"/>
     <use xlink:href="#DejaVuSans-20" x="923.640625"/>
     <use xlink:href="#DejaVuSans-6f" x="955.427734"/>
     <use xlink:href="#DejaVuSans-66" x="1016.609375"/>
     <use xlink:href="#DejaVuSans-20" x="1051.814453"/>
     <use xlink:href="#DejaVuSans-54" x="1083.601562"/>
     <use xlink:href="#DejaVuSans-72" x="1129.935547"/>
     <use xlink:href="#DejaVuSans-69" x="1171.048828"/>
     <use xlink:href="#DejaVuSans-6d" x="1198.832031"/>
     <use xlink:href="#DejaVuSans-6d" x="1296.244141"/>
     <use xlink:href="#DejaVuSans-65" x="1393.65625"/>
     <use xlink:href="#DejaVuSans-64" x="1455.179688"/>
     <use xlink:href="#DejaVuSans-20" x="1518.65625"/>
     <use xlink:href="#DejaVuSans-53" x="1550.443359"/>
     <use xlink:href="#DejaVuSans-65" x="1613.919922"/>
     <use xlink:href="#DejaVuSans-71" x="1675.443359"/>
     <use xlink:href="#DejaVuSans-75" x="1738.919922"/>
     <use xlink:href="#DejaVuSans-65" x="1802.298828"/>
     <use xlink:href="#DejaVuSans-6e" x="1863.822266"/>
     <use xlink:href="#DejaVuSans-63" x="1927.201172"/>
     <use xlink:href="#DejaVuSans-65" x="1982.181641"/>
     <use xlink:href="#DejaVuSans-73" x="2043.705078"/>
     <use xlink:href="#DejaVuSans-20" x="2095.804688"/>
     <use xlink:href="#DejaVuSans-28" x="2127.591797"/>
     <use xlink:href="#DejaVuSans-33" x="2166.605469"/>
     <use xlink:href="#DejaVuSans-27" x="2230.228516"/>
     <use xlink:href="#DejaVuSans-20" x="2257.71875"/>
     <use xlink:href="#DejaVuSans-65" x="2289.505859"/>
     <use xlink:href="#DejaVuSans-6e" x="2351.029297"/>
     <use xlink:href="#DejaVuSans-64" x="2414.408203"/>
     <use xlink:href="#DejaVuSans-29" x="2477.884766"/>
    </g>
   </g>
  </g>
 </g>
 <defs>
  <clipPath id="pf4d965e4b5">
   <rect x="40.600625" y="35.2559" width="952.54" height="317.968"/>
  </clipPath>
 </defs>
</svg>
