<?xml version="1.0" encoding="utf-8" standalone="no"?>
<!DOCTYPE svg PUBLIC "-//W3C//DTD SVG 1.1//EN"
  "http://www.w3.org/Graphics/SVG/1.1/DTD/svg11.dtd">
<svg xmlns:xlink="http://www.w3.org/1999/xlink" width="996.152216pt" height="388.3819pt" viewBox="0 0 996.152216 388.3819" xmlns="http://www.w3.org/2000/svg" version="1.1">
 <metadata>
  <rdf:RDF xmlns:dc="http://purl.org/dc/elements/1.1/" xmlns:cc="http://creativecommons.org/ns#" xmlns:rdf="http://www.w3.org/1999/02/22-rdf-syntax-ns#">
   <cc:Work>
    <dc:type rdf:resource="http://purl.org/dc/dcmitype/StillImage"/>
    <dc:date>2024-09-05T13:39:09.371202</dc:date>
    <dc:format>image/svg+xml</dc:format>
    <dc:creator>
     <cc:Agent>
      <dc:title>Matplotlib v3.8.2, https://matplotlib.org/</dc:title>
     </cc:Agent>
    </dc:creator>
   </cc:Work>
  </rdf:RDF>
 </metadata>
 <defs>
  <style type="text/css">*{stroke-linejoin: round; stroke-linecap: butt}</style>
 </defs>
 <g id="figure_1">
  <g id="axes_1">
   <g id="patch_1">
    <path d="M 53.328125 352.538775 
L 988.952216 352.538775 
L 988.952216 35.223275 
L 53.328125 35.223275 
z
" style="fill: #ffffff"/>
   </g>
   <g id="matplotlib.axis_1">
    <g id="xtick_1">
     <g id="text_1">
      <!-- chr1 -->
      <g transform="translate(86.932743 365.617525) scale(0.08 -0.08)">
       <defs>
        <path id="DejaVuSans-63" d="M 3122 3366 
L 3122 2828 
Q 2878 2963 2633 3030 
Q 2388 3097 2138 3097 
Q 1578 3097 1268 2742 
Q 959 2388 959 1747 
Q 959 1106 1268 751 
Q 1578 397 2138 397 
Q 2388 397 2633 464 
Q 2878 531 3122 666 
L 3122 134 
Q 2881 22 2623 -34 
Q 2366 -91 2075 -91 
Q 1284 -91 818 406 
Q 353 903 353 1747 
Q 353 2603 823 3093 
Q 1294 3584 2113 3584 
Q 2378 3584 2631 3529 
Q 2884 3475 3122 3366 
z
" transform="scale(0.015625)"/>
        <path id="DejaVuSans-68" d="M 3513 2113 
L 3513 0 
L 2938 0 
L 2938 2094 
Q 2938 2591 2744 2837 
Q 2550 3084 2163 3084 
Q 1697 3084 1428 2787 
Q 1159 2491 1159 1978 
L 1159 0 
L 581 0 
L 581 4863 
L 1159 4863 
L 1159 2956 
Q 1366 3272 1645 3428 
Q 1925 3584 2291 3584 
Q 2894 3584 3203 3211 
Q 3513 2838 3513 2113 
z
" transform="scale(0.015625)"/>
        <path id="DejaVuSans-72" d="M 2631 2963 
Q 2534 3019 2420 3045 
Q 2306 3072 2169 3072 
Q 1681 3072 1420 2755 
Q 1159 2438 1159 1844 
L 1159 0 
L 581 0 
L 581 3500 
L 1159 3500 
L 1159 2956 
Q 1341 3275 1631 3429 
Q 1922 3584 2338 3584 
Q 2397 3584 2469 3576 
Q 2541 3569 2628 3553 
L 2631 2963 
z
" transform="scale(0.015625)"/>
        <path id="DejaVuSans-31" d="M 794 531 
L 1825 531 
L 1825 4091 
L 703 3866 
L 703 4441 
L 1819 4666 
L 2450 4666 
L 2450 531 
L 3481 531 
L 3481 0 
L 794 0 
L 794 531 
z
" transform="scale(0.015625)"/>
       </defs>
       <use xlink:href="#DejaVuSans-63"/>
       <use xlink:href="#DejaVuSans-68" x="54.980469"/>
       <use xlink:href="#DejaVuSans-72" x="118.359375"/>
       <use xlink:href="#DejaVuSans-31" x="159.472656"/>
      </g>
     </g>
    </g>
    <g id="xtick_2">
     <g id="text_2">
      <!-- chr2 -->
      <g transform="translate(120.955437 365.617525) scale(0.08 -0.08)">
       <defs>
        <path id="DejaVuSans-32" d="M 1228 531 
L 3431 531 
L 3431 0 
L 469 0 
L 469 531 
Q 828 903 1448 1529 
Q 2069 2156 2228 2338 
Q 2531 2678 2651 2914 
Q 2772 3150 2772 3378 
Q 2772 3750 2511 3984 
Q 2250 4219 1831 4219 
Q 1534 4219 1204 4116 
Q 875 4013 500 3803 
L 500 4441 
Q 881 4594 1212 4672 
Q 1544 4750 1819 4750 
Q 2544 4750 2975 4387 
Q 3406 4025 3406 3419 
Q 3406 3131 3298 2873 
Q 3191 2616 2906 2266 
Q 2828 2175 2409 1742 
Q 1991 1309 1228 531 
z
" transform="scale(0.015625)"/>
       </defs>
       <use xlink:href="#DejaVuSans-63"/>
       <use xlink:href="#DejaVuSans-68" x="54.980469"/>
       <use xlink:href="#DejaVuSans-72" x="118.359375"/>
       <use xlink:href="#DejaVuSans-32" x="159.472656"/>
      </g>
     </g>
    </g>
    <g id="xtick_3">
     <g id="text_3">
      <!-- chr3 -->
      <g transform="translate(154.978131 365.617525) scale(0.08 -0.08)">
       <defs>
        <path id="DejaVuSans-33" d="M 2597 2516 
Q 3050 2419 3304 2112 
Q 3559 1806 3559 1356 
Q 3559 666 3084 287 
Q 2609 -91 1734 -91 
Q 1441 -91 1130 -33 
Q 819 25 488 141 
L 488 750 
Q 750 597 1062 519 
Q 1375 441 1716 441 
Q 2309 441 2620 675 
Q 2931 909 2931 1356 
Q 2931 1769 2642 2001 
Q 2353 2234 1838 2234 
L 1294 2234 
L 1294 2753 
L 1863 2753 
Q 2328 2753 2575 2939 
Q 2822 3125 2822 3475 
Q 2822 3834 2567 4026 
Q 2313 4219 1838 4219 
Q 1578 4219 1281 4162 
Q 984 4106 628 3988 
L 628 4550 
Q 988 4650 1302 4700 
Q 1616 4750 1894 4750 
Q 2613 4750 3031 4423 
Q 3450 4097 3450 3541 
Q 3450 3153 3228 2886 
Q 3006 2619 2597 2516 
z
" transform="scale(0.015625)"/>
       </defs>
       <use xlink:href="#DejaVuSans-63"/>
       <use xlink:href="#DejaVuSans-68" x="54.980469"/>
       <use xlink:href="#DejaVuSans-72" x="118.359375"/>
       <use xlink:href="#DejaVuSans-33" x="159.472656"/>
      </g>
     </g>
    </g>
    <g id="xtick_4">
     <g id="text_4">
      <!-- chr4 -->
      <g transform="translate(189.000825 365.617525) scale(0.08 -0.08)">
       <defs>
        <path id="DejaVuSans-34" d="M 2419 4116 
L 825 1625 
L 2419 1625 
L 2419 4116 
z
M 2253 4666 
L 3047 4666 
L 3047 1625 
L 3713 1625 
L 3713 1100 
L 3047 1100 
L 3047 0 
L 2419 0 
L 2419 1100 
L 313 1100 
L 313 1709 
L 2253 4666 
z
" transform="scale(0.015625)"/>
       </defs>
       <use xlink:href="#DejaVuSans-63"/>
       <use xlink:href="#DejaVuSans-68" x="54.980469"/>
       <use xlink:href="#DejaVuSans-72" x="118.359375"/>
       <use xlink:href="#DejaVuSans-34" x="159.472656"/>
      </g>
     </g>
    </g>
    <g id="xtick_5">
     <g id="text_5">
      <!-- chr5 -->
      <g transform="translate(223.02352 365.617525) scale(0.08 -0.08)">
       <defs>
        <path id="DejaVuSans-35" d="M 691 4666 
L 3169 4666 
L 3169 4134 
L 1269 4134 
L 1269 2991 
Q 1406 3038 1543 3061 
Q 1681 3084 1819 3084 
Q 2600 3084 3056 2656 
Q 3513 2228 3513 1497 
Q 3513 744 3044 326 
Q 2575 -91 1722 -91 
Q 1428 -91 1123 -41 
Q 819 9 494 109 
L 494 744 
Q 775 591 1075 516 
Q 1375 441 1709 441 
Q 2250 441 2565 725 
Q 2881 1009 2881 1497 
Q 2881 1984 2565 2268 
Q 2250 2553 1709 2553 
Q 1456 2553 1204 2497 
Q 953 2441 691 2322 
L 691 4666 
z
" transform="scale(0.015625)"/>
       </defs>
       <use xlink:href="#DejaVuSans-63"/>
       <use xlink:href="#DejaVuSans-68" x="54.980469"/>
       <use xlink:href="#DejaVuSans-72" x="118.359375"/>
       <use xlink:href="#DejaVuSans-35" x="159.472656"/>
      </g>
     </g>
    </g>
    <g id="xtick_6">
     <g id="text_6">
      <!-- chr6 -->
      <g transform="translate(257.046214 365.617525) scale(0.08 -0.08)">
       <defs>
        <path id="DejaVuSans-36" d="M 2113 2584 
Q 1688 2584 1439 2293 
Q 1191 2003 1191 1497 
Q 1191 994 1439 701 
Q 1688 409 2113 409 
Q 2538 409 2786 701 
Q 3034 994 3034 1497 
Q 3034 2003 2786 2293 
Q 2538 2584 2113 2584 
z
M 3366 4563 
L 3366 3988 
Q 3128 4100 2886 4159 
Q 2644 4219 2406 4219 
Q 1781 4219 1451 3797 
Q 1122 3375 1075 2522 
Q 1259 2794 1537 2939 
Q 1816 3084 2150 3084 
Q 2853 3084 3261 2657 
Q 3669 2231 3669 1497 
Q 3669 778 3244 343 
Q 2819 -91 2113 -91 
Q 1303 -91 875 529 
Q 447 1150 447 2328 
Q 447 3434 972 4092 
Q 1497 4750 2381 4750 
Q 2619 4750 2861 4703 
Q 3103 4656 3366 4563 
z
" transform="scale(0.015625)"/>
       </defs>
       <use xlink:href="#DejaVuSans-63"/>
       <use xlink:href="#DejaVuSans-68" x="54.980469"/>
       <use xlink:href="#DejaVuSans-72" x="118.359375"/>
       <use xlink:href="#DejaVuSans-36" x="159.472656"/>
      </g>
     </g>
    </g>
    <g id="xtick_7">
     <g id="text_7">
      <!-- chr7 -->
      <g transform="translate(291.068908 365.617525) scale(0.08 -0.08)">
       <defs>
        <path id="DejaVuSans-37" d="M 525 4666 
L 3525 4666 
L 3525 4397 
L 1831 0 
L 1172 0 
L 2766 4134 
L 525 4134 
L 525 4666 
z
" transform="scale(0.015625)"/>
       </defs>
       <use xlink:href="#DejaVuSans-63"/>
       <use xlink:href="#DejaVuSans-68" x="54.980469"/>
       <use xlink:href="#DejaVuSans-72" x="118.359375"/>
       <use xlink:href="#DejaVuSans-37" x="159.472656"/>
      </g>
     </g>
    </g>
    <g id="xtick_8">
     <g id="text_8">
      <!-- chr8 -->
      <g transform="translate(325.091602 365.617525) scale(0.08 -0.08)">
       <defs>
        <path id="DejaVuSans-38" d="M 2034 2216 
Q 1584 2216 1326 1975 
Q 1069 1734 1069 1313 
Q 1069 891 1326 650 
Q 1584 409 2034 409 
Q 2484 409 2743 651 
Q 3003 894 3003 1313 
Q 3003 1734 2745 1975 
Q 2488 2216 2034 2216 
z
M 1403 2484 
Q 997 2584 770 2862 
Q 544 3141 544 3541 
Q 544 4100 942 4425 
Q 1341 4750 2034 4750 
Q 2731 4750 3128 4425 
Q 3525 4100 3525 3541 
Q 3525 3141 3298 2862 
Q 3072 2584 2669 2484 
Q 3125 2378 3379 2068 
Q 3634 1759 3634 1313 
Q 3634 634 3220 271 
Q 2806 -91 2034 -91 
Q 1263 -91 848 271 
Q 434 634 434 1313 
Q 434 1759 690 2068 
Q 947 2378 1403 2484 
z
M 1172 3481 
Q 1172 3119 1398 2916 
Q 1625 2713 2034 2713 
Q 2441 2713 2670 2916 
Q 2900 3119 2900 3481 
Q 2900 3844 2670 4047 
Q 2441 4250 2034 4250 
Q 1625 4250 1398 4047 
Q 1172 3844 1172 3481 
z
" transform="scale(0.015625)"/>
       </defs>
       <use xlink:href="#DejaVuSans-63"/>
       <use xlink:href="#DejaVuSans-68" x="54.980469"/>
       <use xlink:href="#DejaVuSans-72" x="118.359375"/>
       <use xlink:href="#DejaVuSans-38" x="159.472656"/>
      </g>
     </g>
    </g>
    <g id="xtick_9">
     <g id="text_9">
      <!-- chr9 -->
      <g transform="translate(359.114296 365.617525) scale(0.08 -0.08)">
       <defs>
        <path id="DejaVuSans-39" d="M 703 97 
L 703 672 
Q 941 559 1184 500 
Q 1428 441 1663 441 
Q 2288 441 2617 861 
Q 2947 1281 2994 2138 
Q 2813 1869 2534 1725 
Q 2256 1581 1919 1581 
Q 1219 1581 811 2004 
Q 403 2428 403 3163 
Q 403 3881 828 4315 
Q 1253 4750 1959 4750 
Q 2769 4750 3195 4129 
Q 3622 3509 3622 2328 
Q 3622 1225 3098 567 
Q 2575 -91 1691 -91 
Q 1453 -91 1209 -44 
Q 966 3 703 97 
z
M 1959 2075 
Q 2384 2075 2632 2365 
Q 2881 2656 2881 3163 
Q 2881 3666 2632 3958 
Q 2384 4250 1959 4250 
Q 1534 4250 1286 3958 
Q 1038 3666 1038 3163 
Q 1038 2656 1286 2365 
Q 1534 2075 1959 2075 
z
" transform="scale(0.015625)"/>
       </defs>
       <use xlink:href="#DejaVuSans-63"/>
       <use xlink:href="#DejaVuSans-68" x="54.980469"/>
       <use xlink:href="#DejaVuSans-72" x="118.359375"/>
       <use xlink:href="#DejaVuSans-39" x="159.472656"/>
      </g>
     </g>
    </g>
    <g id="xtick_10">
     <g id="text_10">
      <!-- chr10 -->
      <g transform="translate(390.591991 365.617525) scale(0.08 -0.08)">
       <defs>
        <path id="DejaVuSans-30" d="M 2034 4250 
Q 1547 4250 1301 3770 
Q 1056 3291 1056 2328 
Q 1056 1369 1301 889 
Q 1547 409 2034 409 
Q 2525 409 2770 889 
Q 3016 1369 3016 2328 
Q 3016 3291 2770 3770 
Q 2525 4250 2034 4250 
z
M 2034 4750 
Q 2819 4750 3233 4129 
Q 3647 3509 3647 2328 
Q 3647 1150 3233 529 
Q 2819 -91 2034 -91 
Q 1250 -91 836 529 
Q 422 1150 422 2328 
Q 422 3509 836 4129 
Q 1250 4750 2034 4750 
z
" transform="scale(0.015625)"/>
       </defs>
       <use xlink:href="#DejaVuSans-63"/>
       <use xlink:href="#DejaVuSans-68" x="54.980469"/>
       <use xlink:href="#DejaVuSans-72" x="118.359375"/>
       <use xlink:href="#DejaVuSans-31" x="159.472656"/>
       <use xlink:href="#DejaVuSans-30" x="223.095703"/>
      </g>
     </g>
    </g>
    <g id="xtick_11">
     <g id="text_11">
      <!-- chr11 -->
      <g transform="translate(424.614685 365.617525) scale(0.08 -0.08)">
       <use xlink:href="#DejaVuSans-63"/>
       <use xlink:href="#DejaVuSans-68" x="54.980469"/>
       <use xlink:href="#DejaVuSans-72" x="118.359375"/>
       <use xlink:href="#DejaVuSans-31" x="159.472656"/>
       <use xlink:href="#DejaVuSans-31" x="223.095703"/>
      </g>
     </g>
    </g>
    <g id="xtick_12">
     <g id="text_12">
      <!-- chr12 -->
      <g transform="translate(458.637379 365.617525) scale(0.08 -0.08)">
       <use xlink:href="#DejaVuSans-63"/>
       <use xlink:href="#DejaVuSans-68" x="54.980469"/>
       <use xlink:href="#DejaVuSans-72" x="118.359375"/>
       <use xlink:href="#DejaVuSans-31" x="159.472656"/>
       <use xlink:href="#DejaVuSans-32" x="223.095703"/>
      </g>
     </g>
    </g>
    <g id="xtick_13">
     <g id="text_13">
      <!-- chr13 -->
      <g transform="translate(492.660073 365.617525) scale(0.08 -0.08)">
       <use xlink:href="#DejaVuSans-63"/>
       <use xlink:href="#DejaVuSans-68" x="54.980469"/>
       <use xlink:href="#DejaVuSans-72" x="118.359375"/>
       <use xlink:href="#DejaVuSans-31" x="159.472656"/>
       <use xlink:href="#DejaVuSans-33" x="223.095703"/>
      </g>
     </g>
    </g>
    <g id="xtick_14">
     <g id="text_14">
      <!-- chr14 -->
      <g transform="translate(526.682768 365.617525) scale(0.08 -0.08)">
       <use xlink:href="#DejaVuSans-63"/>
       <use xlink:href="#DejaVuSans-68" x="54.980469"/>
       <use xlink:href="#DejaVuSans-72" x="118.359375"/>
       <use xlink:href="#DejaVuSans-31" x="159.472656"/>
       <use xlink:href="#DejaVuSans-34" x="223.095703"/>
      </g>
     </g>
    </g>
    <g id="xtick_15">
     <g id="text_15">
      <!-- chr15 -->
      <g transform="translate(560.705462 365.617525) scale(0.08 -0.08)">
       <use xlink:href="#DejaVuSans-63"/>
       <use xlink:href="#DejaVuSans-68" x="54.980469"/>
       <use xlink:href="#DejaVuSans-72" x="118.359375"/>
       <use xlink:href="#DejaVuSans-31" x="159.472656"/>
       <use xlink:href="#DejaVuSans-35" x="223.095703"/>
      </g>
     </g>
    </g>
    <g id="xtick_16">
     <g id="text_16">
      <!-- chr16 -->
      <g transform="translate(594.728156 365.617525) scale(0.08 -0.08)">
       <use xlink:href="#DejaVuSans-63"/>
       <use xlink:href="#DejaVuSans-68" x="54.980469"/>
       <use xlink:href="#DejaVuSans-72" x="118.359375"/>
       <use xlink:href="#DejaVuSans-31" x="159.472656"/>
       <use xlink:href="#DejaVuSans-36" x="223.095703"/>
      </g>
     </g>
    </g>
    <g id="xtick_17">
     <g id="text_17">
      <!-- chr17 -->
      <g transform="translate(628.75085 365.617525) scale(0.08 -0.08)">
       <use xlink:href="#DejaVuSans-63"/>
       <use xlink:href="#DejaVuSans-68" x="54.980469"/>
       <use xlink:href="#DejaVuSans-72" x="118.359375"/>
       <use xlink:href="#DejaVuSans-31" x="159.472656"/>
       <use xlink:href="#DejaVuSans-37" x="223.095703"/>
      </g>
     </g>
    </g>
    <g id="xtick_18">
     <g id="text_18">
      <!-- chr18 -->
      <g transform="translate(662.773544 365.617525) scale(0.08 -0.08)">
       <use xlink:href="#DejaVuSans-63"/>
       <use xlink:href="#DejaVuSans-68" x="54.980469"/>
       <use xlink:href="#DejaVuSans-72" x="118.359375"/>
       <use xlink:href="#DejaVuSans-31" x="159.472656"/>
       <use xlink:href="#DejaVuSans-38" x="223.095703"/>
      </g>
     </g>
    </g>
    <g id="xtick_19">
     <g id="text_19">
      <!-- chr19 -->
      <g transform="translate(696.796239 365.617525) scale(0.08 -0.08)">
       <use xlink:href="#DejaVuSans-63"/>
       <use xlink:href="#DejaVuSans-68" x="54.980469"/>
       <use xlink:href="#DejaVuSans-72" x="118.359375"/>
       <use xlink:href="#DejaVuSans-31" x="159.472656"/>
       <use xlink:href="#DejaVuSans-39" x="223.095703"/>
      </g>
     </g>
    </g>
    <g id="xtick_20">
     <g id="text_20">
      <!-- chr20 -->
      <g transform="translate(730.818933 365.617525) scale(0.08 -0.08)">
       <use xlink:href="#DejaVuSans-63"/>
       <use xlink:href="#DejaVuSans-68" x="54.980469"/>
       <use xlink:href="#DejaVuSans-72" x="118.359375"/>
       <use xlink:href="#DejaVuSans-32" x="159.472656"/>
       <use xlink:href="#DejaVuSans-30" x="223.095703"/>
      </g>
     </g>
    </g>
    <g id="xtick_21">
     <g id="text_21">
      <!-- chr21 -->
      <g transform="translate(764.841627 365.617525) scale(0.08 -0.08)">
       <use xlink:href="#DejaVuSans-63"/>
       <use xlink:href="#DejaVuSans-68" x="54.980469"/>
       <use xlink:href="#DejaVuSans-72" x="118.359375"/>
       <use xlink:href="#DejaVuSans-32" x="159.472656"/>
       <use xlink:href="#DejaVuSans-31" x="223.095703"/>
      </g>
     </g>
    </g>
    <g id="xtick_22">
     <g id="text_22">
      <!-- chr22 -->
      <g transform="translate(798.864321 365.617525) scale(0.08 -0.08)">
       <use xlink:href="#DejaVuSans-63"/>
       <use xlink:href="#DejaVuSans-68" x="54.980469"/>
       <use xlink:href="#DejaVuSans-72" x="118.359375"/>
       <use xlink:href="#DejaVuSans-32" x="159.472656"/>
       <use xlink:href="#DejaVuSans-32" x="223.095703"/>
      </g>
     </g>
    </g>
    <g id="xtick_23">
     <g id="text_23">
      <!-- chrX -->
      <g transform="translate(835.237015 365.617525) scale(0.08 -0.08)">
       <defs>
        <path id="DejaVuSans-58" d="M 403 4666 
L 1081 4666 
L 2241 2931 
L 3406 4666 
L 4084 4666 
L 2584 2425 
L 4184 0 
L 3506 0 
L 2194 1984 
L 872 0 
L 191 0 
L 1856 2491 
L 403 4666 
z
" transform="scale(0.015625)"/>
       </defs>
       <use xlink:href="#DejaVuSans-63"/>
       <use xlink:href="#DejaVuSans-68" x="54.980469"/>
       <use xlink:href="#DejaVuSans-72" x="118.359375"/>
       <use xlink:href="#DejaVuSans-58" x="159.472656"/>
      </g>
     </g>
    </g>
    <g id="xtick_24">
     <g id="text_24">
      <!-- chrM -->
      <g transform="translate(868.54846 365.617525) scale(0.08 -0.08)">
       <defs>
        <path id="DejaVuSans-4d" d="M 628 4666 
L 1569 4666 
L 2759 1491 
L 3956 4666 
L 4897 4666 
L 4897 0 
L 4281 0 
L 4281 4097 
L 3078 897 
L 2444 897 
L 1241 4097 
L 1241 0 
L 628 0 
L 628 4666 
z
" transform="scale(0.015625)"/>
       </defs>
       <use xlink:href="#DejaVuSans-63"/>
       <use xlink:href="#DejaVuSans-68" x="54.980469"/>
       <use xlink:href="#DejaVuSans-72" x="118.359375"/>
       <use xlink:href="#DejaVuSans-4d" x="159.472656"/>
      </g>
     </g>
    </g>
    <g id="xtick_25">
     <g id="text_25">
      <!-- chr22_KI270733v1_random -->
      <g transform="translate(857.433029 365.617525) scale(0.08 -0.08)">
       <defs>
        <path id="DejaVuSans-5f" d="M 3263 -1063 
L 3263 -1509 
L -63 -1509 
L -63 -1063 
L 3263 -1063 
z
" transform="scale(0.015625)"/>
        <path id="DejaVuSans-4b" d="M 628 4666 
L 1259 4666 
L 1259 2694 
L 3353 4666 
L 4166 4666 
L 1850 2491 
L 4331 0 
L 3500 0 
L 1259 2247 
L 1259 0 
L 628 0 
L 628 4666 
z
" transform="scale(0.015625)"/>
        <path id="DejaVuSans-49" d="M 628 4666 
L 1259 4666 
L 1259 0 
L 628 0 
L 628 4666 
z
" transform="scale(0.015625)"/>
        <path id="DejaVuSans-76" d="M 191 3500 
L 800 3500 
L 1894 563 
L 2988 3500 
L 3597 3500 
L 2284 0 
L 1503 0 
L 191 3500 
z
" transform="scale(0.015625)"/>
        <path id="DejaVuSans-61" d="M 2194 1759 
Q 1497 1759 1228 1600 
Q 959 1441 959 1056 
Q 959 750 1161 570 
Q 1363 391 1709 391 
Q 2188 391 2477 730 
Q 2766 1069 2766 1631 
L 2766 1759 
L 2194 1759 
z
M 3341 1997 
L 3341 0 
L 2766 0 
L 2766 531 
Q 2569 213 2275 61 
Q 1981 -91 1556 -91 
Q 1019 -91 701 211 
Q 384 513 384 1019 
Q 384 1609 779 1909 
Q 1175 2209 1959 2209 
L 2766 2209 
L 2766 2266 
Q 2766 2663 2505 2880 
Q 2244 3097 1772 3097 
Q 1472 3097 1187 3025 
Q 903 2953 641 2809 
L 641 3341 
Q 956 3463 1253 3523 
Q 1550 3584 1831 3584 
Q 2591 3584 2966 3190 
Q 3341 2797 3341 1997 
z
" transform="scale(0.015625)"/>
        <path id="DejaVuSans-6e" d="M 3513 2113 
L 3513 0 
L 2938 0 
L 2938 2094 
Q 2938 2591 2744 2837 
Q 2550 3084 2163 3084 
Q 1697 3084 1428 2787 
Q 1159 2491 1159 1978 
L 1159 0 
L 581 0 
L 581 3500 
L 1159 3500 
L 1159 2956 
Q 1366 3272 1645 3428 
Q 1925 3584 2291 3584 
Q 2894 3584 3203 3211 
Q 3513 2838 3513 2113 
z
" transform="scale(0.015625)"/>
        <path id="DejaVuSans-64" d="M 2906 2969 
L 2906 4863 
L 3481 4863 
L 3481 0 
L 2906 0 
L 2906 525 
Q 2725 213 2448 61 
Q 2172 -91 1784 -91 
Q 1150 -91 751 415 
Q 353 922 353 1747 
Q 353 2572 751 3078 
Q 1150 3584 1784 3584 
Q 2172 3584 2448 3432 
Q 2725 3281 2906 2969 
z
M 947 1747 
Q 947 1113 1208 752 
Q 1469 391 1925 391 
Q 2381 391 2643 752 
Q 2906 1113 2906 1747 
Q 2906 2381 2643 2742 
Q 2381 3103 1925 3103 
Q 1469 3103 1208 2742 
Q 947 2381 947 1747 
z
" transform="scale(0.015625)"/>
        <path id="DejaVuSans-6f" d="M 1959 3097 
Q 1497 3097 1228 2736 
Q 959 2375 959 1747 
Q 959 1119 1226 758 
Q 1494 397 1959 397 
Q 2419 397 2687 759 
Q 2956 1122 2956 1747 
Q 2956 2369 2687 2733 
Q 2419 3097 1959 3097 
z
M 1959 3584 
Q 2709 3584 3137 3096 
Q 3566 2609 3566 1747 
Q 3566 888 3137 398 
Q 2709 -91 1959 -91 
Q 1206 -91 779 398 
Q 353 888 353 1747 
Q 353 2609 779 3096 
Q 1206 3584 1959 3584 
z
" transform="scale(0.015625)"/>
        <path id="DejaVuSans-6d" d="M 3328 2828 
Q 3544 3216 3844 3400 
Q 4144 3584 4550 3584 
Q 5097 3584 5394 3201 
Q 5691 2819 5691 2113 
L 5691 0 
L 5113 0 
L 5113 2094 
Q 5113 2597 4934 2840 
Q 4756 3084 4391 3084 
Q 3944 3084 3684 2787 
Q 3425 2491 3425 1978 
L 3425 0 
L 2847 0 
L 2847 2094 
Q 2847 2600 2669 2842 
Q 2491 3084 2119 3084 
Q 1678 3084 1418 2786 
Q 1159 2488 1159 1978 
L 1159 0 
L 581 0 
L 581 3500 
L 1159 3500 
L 1159 2956 
Q 1356 3278 1631 3431 
Q 1906 3584 2284 3584 
Q 2666 3584 2933 3390 
Q 3200 3197 3328 2828 
z
" transform="scale(0.015625)"/>
       </defs>
       <use xlink:href="#DejaVuSans-63"/>
       <use xlink:href="#DejaVuSans-68" x="54.980469"/>
       <use xlink:href="#DejaVuSans-72" x="118.359375"/>
       <use xlink:href="#DejaVuSans-32" x="159.472656"/>
       <use xlink:href="#DejaVuSans-32" x="223.095703"/>
       <use xlink:href="#DejaVuSans-5f" x="286.71875"/>
       <use xlink:href="#DejaVuSans-4b" x="336.71875"/>
       <use xlink:href="#DejaVuSans-49" x="402.294922"/>
       <use xlink:href="#DejaVuSans-32" x="431.787109"/>
       <use xlink:href="#DejaVuSans-37" x="495.410156"/>
       <use xlink:href="#DejaVuSans-30" x="559.033203"/>
       <use xlink:href="#DejaVuSans-37" x="622.65625"/>
       <use xlink:href="#DejaVuSans-33" x="686.279297"/>
       <use xlink:href="#DejaVuSans-33" x="749.902344"/>
       <use xlink:href="#DejaVuSans-76" x="813.525391"/>
       <use xlink:href="#DejaVuSans-31" x="872.705078"/>
       <use xlink:href="#DejaVuSans-5f" x="936.328125"/>
       <use xlink:href="#DejaVuSans-72" x="986.328125"/>
       <use xlink:href="#DejaVuSans-61" x="1027.441406"/>
       <use xlink:href="#DejaVuSans-6e" x="1088.720703"/>
       <use xlink:href="#DejaVuSans-64" x="1152.099609"/>
       <use xlink:href="#DejaVuSans-6f" x="1215.576172"/>
       <use xlink:href="#DejaVuSans-6d" x="1276.757812"/>
      </g>
     </g>
    </g>
    <g id="xtick_26">
     <g id="text_26">
      <!-- chrUn_GL000220v1 -->
      <g transform="translate(907.071973 365.617525) scale(0.08 -0.08)">
       <defs>
        <path id="DejaVuSans-55" d="M 556 4666 
L 1191 4666 
L 1191 1831 
Q 1191 1081 1462 751 
Q 1734 422 2344 422 
Q 2950 422 3222 751 
Q 3494 1081 3494 1831 
L 3494 4666 
L 4128 4666 
L 4128 1753 
Q 4128 841 3676 375 
Q 3225 -91 2344 -91 
Q 1459 -91 1007 375 
Q 556 841 556 1753 
L 556 4666 
z
" transform="scale(0.015625)"/>
        <path id="DejaVuSans-47" d="M 3809 666 
L 3809 1919 
L 2778 1919 
L 2778 2438 
L 4434 2438 
L 4434 434 
Q 4069 175 3628 42 
Q 3188 -91 2688 -91 
Q 1594 -91 976 548 
Q 359 1188 359 2328 
Q 359 3472 976 4111 
Q 1594 4750 2688 4750 
Q 3144 4750 3555 4637 
Q 3966 4525 4313 4306 
L 4313 3634 
Q 3963 3931 3569 4081 
Q 3175 4231 2741 4231 
Q 1884 4231 1454 3753 
Q 1025 3275 1025 2328 
Q 1025 1384 1454 906 
Q 1884 428 2741 428 
Q 3075 428 3337 486 
Q 3600 544 3809 666 
z
" transform="scale(0.015625)"/>
        <path id="DejaVuSans-4c" d="M 628 4666 
L 1259 4666 
L 1259 531 
L 3531 531 
L 3531 0 
L 628 0 
L 628 4666 
z
" transform="scale(0.015625)"/>
       </defs>
       <use xlink:href="#DejaVuSans-63"/>
       <use xlink:href="#DejaVuSans-68" x="54.980469"/>
       <use xlink:href="#DejaVuSans-72" x="118.359375"/>
       <use xlink:href="#DejaVuSans-55" x="159.472656"/>
       <use xlink:href="#DejaVuSans-6e" x="232.666016"/>
       <use xlink:href="#DejaVuSans-5f" x="296.044922"/>
       <use xlink:href="#DejaVuSans-47" x="346.044922"/>
       <use xlink:href="#DejaVuSans-4c" x="423.535156"/>
       <use xlink:href="#DejaVuSans-30" x="479.248047"/>
       <use xlink:href="#DejaVuSans-30" x="542.871094"/>
       <use xlink:href="#DejaVuSans-30" x="606.494141"/>
       <use xlink:href="#DejaVuSans-32" x="670.117188"/>
       <use xlink:href="#DejaVuSans-32" x="733.740234"/>
       <use xlink:href="#DejaVuSans-30" x="797.363281"/>
       <use xlink:href="#DejaVuSans-76" x="860.986328"/>
       <use xlink:href="#DejaVuSans-31" x="920.166016"/>
      </g>
     </g>
    </g>
    <g id="text_27">
     <!-- Chromosome Name -->
     <g transform="translate(471.59642 379.102212) scale(0.1 -0.1)">
      <defs>
       <path id="DejaVuSans-43" d="M 4122 4306 
L 4122 3641 
Q 3803 3938 3442 4084 
Q 3081 4231 2675 4231 
Q 1875 4231 1450 3742 
Q 1025 3253 1025 2328 
Q 1025 1406 1450 917 
Q 1875 428 2675 428 
Q 3081 428 3442 575 
Q 3803 722 4122 1019 
L 4122 359 
Q 3791 134 3420 21 
Q 3050 -91 2638 -91 
Q 1578 -91 968 557 
Q 359 1206 359 2328 
Q 359 3453 968 4101 
Q 1578 4750 2638 4750 
Q 3056 4750 3426 4639 
Q 3797 4528 4122 4306 
z
" transform="scale(0.015625)"/>
       <path id="DejaVuSans-73" d="M 2834 3397 
L 2834 2853 
Q 2591 2978 2328 3040 
Q 2066 3103 1784 3103 
Q 1356 3103 1142 2972 
Q 928 2841 928 2578 
Q 928 2378 1081 2264 
Q 1234 2150 1697 2047 
L 1894 2003 
Q 2506 1872 2764 1633 
Q 3022 1394 3022 966 
Q 3022 478 2636 193 
Q 2250 -91 1575 -91 
Q 1294 -91 989 -36 
Q 684 19 347 128 
L 347 722 
Q 666 556 975 473 
Q 1284 391 1588 391 
Q 1994 391 2212 530 
Q 2431 669 2431 922 
Q 2431 1156 2273 1281 
Q 2116 1406 1581 1522 
L 1381 1569 
Q 847 1681 609 1914 
Q 372 2147 372 2553 
Q 372 3047 722 3315 
Q 1072 3584 1716 3584 
Q 2034 3584 2315 3537 
Q 2597 3491 2834 3397 
z
" transform="scale(0.015625)"/>
       <path id="DejaVuSans-65" d="M 3597 1894 
L 3597 1613 
L 953 1613 
Q 991 1019 1311 708 
Q 1631 397 2203 397 
Q 2534 397 2845 478 
Q 3156 559 3463 722 
L 3463 178 
Q 3153 47 2828 -22 
Q 2503 -91 2169 -91 
Q 1331 -91 842 396 
Q 353 884 353 1716 
Q 353 2575 817 3079 
Q 1281 3584 2069 3584 
Q 2775 3584 3186 3129 
Q 3597 2675 3597 1894 
z
M 3022 2063 
Q 3016 2534 2758 2815 
Q 2500 3097 2075 3097 
Q 1594 3097 1305 2825 
Q 1016 2553 972 2059 
L 3022 2063 
z
" transform="scale(0.015625)"/>
       <path id="DejaVuSans-20" transform="scale(0.015625)"/>
       <path id="DejaVuSans-4e" d="M 628 4666 
L 1478 4666 
L 3547 763 
L 3547 4666 
L 4159 4666 
L 4159 0 
L 3309 0 
L 1241 3903 
L 1241 0 
L 628 0 
L 628 4666 
z
" transform="scale(0.015625)"/>
      </defs>
      <use xlink:href="#DejaVuSans-43"/>
      <use xlink:href="#DejaVuSans-68" x="69.824219"/>
      <use xlink:href="#DejaVuSans-72" x="133.203125"/>
      <use xlink:href="#DejaVuSans-6f" x="172.066406"/>
      <use xlink:href="#DejaVuSans-6d" x="233.248047"/>
      <use xlink:href="#DejaVuSans-6f" x="330.660156"/>
      <use xlink:href="#DejaVuSans-73" x="391.841797"/>
      <use xlink:href="#DejaVuSans-6f" x="443.941406"/>
      <use xlink:href="#DejaVuSans-6d" x="505.123047"/>
      <use xlink:href="#DejaVuSans-65" x="602.535156"/>
      <use xlink:href="#DejaVuSans-20" x="664.058594"/>
      <use xlink:href="#DejaVuSans-4e" x="695.845703"/>
      <use xlink:href="#DejaVuSans-61" x="770.650391"/>
      <use xlink:href="#DejaVuSans-6d" x="831.929688"/>
      <use xlink:href="#DejaVuSans-65" x="929.341797"/>
     </g>
    </g>
   </g>
   <g id="matplotlib.axis_2">
    <g id="ytick_1">
     <g id="line2d_1">
      <path d="M 53.328125 338.118594 
L 988.952216 338.118594 
" clip-path="url(#pbf50227426)" style="fill: none; stroke: #dedede; stroke-linecap: square"/>
     </g>
     <g id="text_28">
      <!-- 0 -->
      <g transform="translate(41.238125 341.157969) scale(0.08 -0.08)">
       <use xlink:href="#DejaVuSans-30"/>
      </g>
     </g>
    </g>
    <g id="ytick_2">
     <g id="line2d_2">
      <path d="M 53.328125 299.727296 
L 988.952216 299.727296 
" clip-path="url(#pbf50227426)" style="fill: none; stroke: #dedede; stroke-linecap: square"/>
     </g>
     <g id="text_29">
      <!-- 2000 -->
      <g transform="translate(25.968125 302.766671) scale(0.08 -0.08)">
       <use xlink:href="#DejaVuSans-32"/>
       <use xlink:href="#DejaVuSans-30" x="63.623047"/>
       <use xlink:href="#DejaVuSans-30" x="127.246094"/>
       <use xlink:href="#DejaVuSans-30" x="190.869141"/>
      </g>
     </g>
    </g>
    <g id="ytick_3">
     <g id="line2d_3">
      <path d="M 53.328125 261.335999 
L 988.952216 261.335999 
" clip-path="url(#pbf50227426)" style="fill: none; stroke: #dedede; stroke-linecap: square"/>
     </g>
     <g id="text_30">
      <!-- 4000 -->
      <g transform="translate(25.968125 264.375374) scale(0.08 -0.08)">
       <use xlink:href="#DejaVuSans-34"/>
       <use xlink:href="#DejaVuSans-30" x="63.623047"/>
       <use xlink:href="#DejaVuSans-30" x="127.246094"/>
       <use xlink:href="#DejaVuSans-30" x="190.869141"/>
      </g>
     </g>
    </g>
    <g id="ytick_4">
     <g id="line2d_4">
      <path d="M 53.328125 222.944701 
L 988.952216 222.944701 
" clip-path="url(#pbf50227426)" style="fill: none; stroke: #dedede; stroke-linecap: square"/>
     </g>
     <g id="text_31">
      <!-- 6000 -->
      <g transform="translate(25.968125 225.984076) scale(0.08 -0.08)">
       <use xlink:href="#DejaVuSans-36"/>
       <use xlink:href="#DejaVuSans-30" x="63.623047"/>
       <use xlink:href="#DejaVuSans-30" x="127.246094"/>
       <use xlink:href="#DejaVuSans-30" x="190.869141"/>
      </g>
     </g>
    </g>
    <g id="ytick_5">
     <g id="line2d_5">
      <path d="M 53.328125 184.553404 
L 988.952216 184.553404 
" clip-path="url(#pbf50227426)" style="fill: none; stroke: #dedede; stroke-linecap: square"/>
     </g>
     <g id="text_32">
      <!-- 8000 -->
      <g transform="translate(25.968125 187.592779) scale(0.08 -0.08)">
       <use xlink:href="#DejaVuSans-38"/>
       <use xlink:href="#DejaVuSans-30" x="63.623047"/>
       <use xlink:href="#DejaVuSans-30" x="127.246094"/>
       <use xlink:href="#DejaVuSans-30" x="190.869141"/>
      </g>
     </g>
    </g>
    <g id="ytick_6">
     <g id="line2d_6">
      <path d="M 53.328125 146.162106 
L 988.952216 146.162106 
" clip-path="url(#pbf50227426)" style="fill: none; stroke: #dedede; stroke-linecap: square"/>
     </g>
     <g id="text_33">
      <!-- 10000 -->
      <g transform="translate(20.878125 149.201481) scale(0.08 -0.08)">
       <use xlink:href="#DejaVuSans-31"/>
       <use xlink:href="#DejaVuSans-30" x="63.623047"/>
       <use xlink:href="#DejaVuSans-30" x="127.246094"/>
       <use xlink:href="#DejaVuSans-30" x="190.869141"/>
       <use xlink:href="#DejaVuSans-30" x="254.492188"/>
      </g>
     </g>
    </g>
    <g id="ytick_7">
     <g id="line2d_7">
      <path d="M 53.328125 107.770809 
L 988.952216 107.770809 
" clip-path="url(#pbf50227426)" style="fill: none; stroke: #dedede; stroke-linecap: square"/>
     </g>
     <g id="text_34">
      <!-- 12000 -->
      <g transform="translate(20.878125 110.810184) scale(0.08 -0.08)">
       <use xlink:href="#DejaVuSans-31"/>
       <use xlink:href="#DejaVuSans-32" x="63.623047"/>
       <use xlink:href="#DejaVuSans-30" x="127.246094"/>
       <use xlink:href="#DejaVuSans-30" x="190.869141"/>
       <use xlink:href="#DejaVuSans-30" x="254.492188"/>
      </g>
     </g>
    </g>
    <g id="ytick_8">
     <g id="line2d_8">
      <path d="M 53.328125 69.379511 
L 988.952216 69.379511 
" clip-path="url(#pbf50227426)" style="fill: none; stroke: #dedede; stroke-linecap: square"/>
     </g>
     <g id="text_35">
      <!-- 14000 -->
      <g transform="translate(20.878125 72.418886) scale(0.08 -0.08)">
       <use xlink:href="#DejaVuSans-31"/>
       <use xlink:href="#DejaVuSans-34" x="63.623047"/>
       <use xlink:href="#DejaVuSans-30" x="127.246094"/>
       <use xlink:href="#DejaVuSans-30" x="190.869141"/>
       <use xlink:href="#DejaVuSans-30" x="254.492188"/>
      </g>
     </g>
    </g>
    <g id="text_36">
     <!-- log10 ( Observed over expected counts ) -->
     <g transform="translate(14.798438 296.380244) rotate(-90) scale(0.1 -0.1)">
      <defs>
       <path id="DejaVuSans-6c" d="M 603 4863 
L 1178 4863 
L 1178 0 
L 603 0 
L 603 4863 
z
" transform="scale(0.015625)"/>
       <path id="DejaVuSans-67" d="M 2906 1791 
Q 2906 2416 2648 2759 
Q 2391 3103 1925 3103 
Q 1463 3103 1205 2759 
Q 947 2416 947 1791 
Q 947 1169 1205 825 
Q 1463 481 1925 481 
Q 2391 481 2648 825 
Q 2906 1169 2906 1791 
z
M 3481 434 
Q 3481 -459 3084 -895 
Q 2688 -1331 1869 -1331 
Q 1566 -1331 1297 -1286 
Q 1028 -1241 775 -1147 
L 775 -588 
Q 1028 -725 1275 -790 
Q 1522 -856 1778 -856 
Q 2344 -856 2625 -561 
Q 2906 -266 2906 331 
L 2906 616 
Q 2728 306 2450 153 
Q 2172 0 1784 0 
Q 1141 0 747 490 
Q 353 981 353 1791 
Q 353 2603 747 3093 
Q 1141 3584 1784 3584 
Q 2172 3584 2450 3431 
Q 2728 3278 2906 2969 
L 2906 3500 
L 3481 3500 
L 3481 434 
z
" transform="scale(0.015625)"/>
       <path id="DejaVuSans-28" d="M 1984 4856 
Q 1566 4138 1362 3434 
Q 1159 2731 1159 2009 
Q 1159 1288 1364 580 
Q 1569 -128 1984 -844 
L 1484 -844 
Q 1016 -109 783 600 
Q 550 1309 550 2009 
Q 550 2706 781 3412 
Q 1013 4119 1484 4856 
L 1984 4856 
z
" transform="scale(0.015625)"/>
       <path id="DejaVuSans-4f" d="M 2522 4238 
Q 1834 4238 1429 3725 
Q 1025 3213 1025 2328 
Q 1025 1447 1429 934 
Q 1834 422 2522 422 
Q 3209 422 3611 934 
Q 4013 1447 4013 2328 
Q 4013 3213 3611 3725 
Q 3209 4238 2522 4238 
z
M 2522 4750 
Q 3503 4750 4090 4092 
Q 4678 3434 4678 2328 
Q 4678 1225 4090 567 
Q 3503 -91 2522 -91 
Q 1538 -91 948 565 
Q 359 1222 359 2328 
Q 359 3434 948 4092 
Q 1538 4750 2522 4750 
z
" transform="scale(0.015625)"/>
       <path id="DejaVuSans-62" d="M 3116 1747 
Q 3116 2381 2855 2742 
Q 2594 3103 2138 3103 
Q 1681 3103 1420 2742 
Q 1159 2381 1159 1747 
Q 1159 1113 1420 752 
Q 1681 391 2138 391 
Q 2594 391 2855 752 
Q 3116 1113 3116 1747 
z
M 1159 2969 
Q 1341 3281 1617 3432 
Q 1894 3584 2278 3584 
Q 2916 3584 3314 3078 
Q 3713 2572 3713 1747 
Q 3713 922 3314 415 
Q 2916 -91 2278 -91 
Q 1894 -91 1617 61 
Q 1341 213 1159 525 
L 1159 0 
L 581 0 
L 581 4863 
L 1159 4863 
L 1159 2969 
z
" transform="scale(0.015625)"/>
       <path id="DejaVuSans-78" d="M 3513 3500 
L 2247 1797 
L 3578 0 
L 2900 0 
L 1881 1375 
L 863 0 
L 184 0 
L 1544 1831 
L 300 3500 
L 978 3500 
L 1906 2253 
L 2834 3500 
L 3513 3500 
z
" transform="scale(0.015625)"/>
       <path id="DejaVuSans-70" d="M 1159 525 
L 1159 -1331 
L 581 -1331 
L 581 3500 
L 1159 3500 
L 1159 2969 
Q 1341 3281 1617 3432 
Q 1894 3584 2278 3584 
Q 2916 3584 3314 3078 
Q 3713 2572 3713 1747 
Q 3713 922 3314 415 
Q 2916 -91 2278 -91 
Q 1894 -91 1617 61 
Q 1341 213 1159 525 
z
M 3116 1747 
Q 3116 2381 2855 2742 
Q 2594 3103 2138 3103 
Q 1681 3103 1420 2742 
Q 1159 2381 1159 1747 
Q 1159 1113 1420 752 
Q 1681 391 2138 391 
Q 2594 391 2855 752 
Q 3116 1113 3116 1747 
z
" transform="scale(0.015625)"/>
       <path id="DejaVuSans-74" d="M 1172 4494 
L 1172 3500 
L 2356 3500 
L 2356 3053 
L 1172 3053 
L 1172 1153 
Q 1172 725 1289 603 
Q 1406 481 1766 481 
L 2356 481 
L 2356 0 
L 1766 0 
Q 1100 0 847 248 
Q 594 497 594 1153 
L 594 3053 
L 172 3053 
L 172 3500 
L 594 3500 
L 594 4494 
L 1172 4494 
z
" transform="scale(0.015625)"/>
       <path id="DejaVuSans-75" d="M 544 1381 
L 544 3500 
L 1119 3500 
L 1119 1403 
Q 1119 906 1312 657 
Q 1506 409 1894 409 
Q 2359 409 2629 706 
Q 2900 1003 2900 1516 
L 2900 3500 
L 3475 3500 
L 3475 0 
L 2900 0 
L 2900 538 
Q 2691 219 2414 64 
Q 2138 -91 1772 -91 
Q 1169 -91 856 284 
Q 544 659 544 1381 
z
M 1991 3584 
L 1991 3584 
z
" transform="scale(0.015625)"/>
       <path id="DejaVuSans-29" d="M 513 4856 
L 1013 4856 
Q 1481 4119 1714 3412 
Q 1947 2706 1947 2009 
Q 1947 1309 1714 600 
Q 1481 -109 1013 -844 
L 513 -844 
Q 928 -128 1133 580 
Q 1338 1288 1338 2009 
Q 1338 2731 1133 3434 
Q 928 4138 513 4856 
z
" transform="scale(0.015625)"/>
      </defs>
      <use xlink:href="#DejaVuSans-6c"/>
      <use xlink:href="#DejaVuSans-6f" x="27.783203"/>
      <use xlink:href="#DejaVuSans-67" x="88.964844"/>
      <use xlink:href="#DejaVuSans-31" x="152.441406"/>
      <use xlink:href="#DejaVuSans-30" x="216.064453"/>
      <use xlink:href="#DejaVuSans-20" x="279.6875"/>
      <use xlink:href="#DejaVuSans-28" x="311.474609"/>
      <use xlink:href="#DejaVuSans-20" x="350.488281"/>
      <use xlink:href="#DejaVuSans-4f" x="382.275391"/>
      <use xlink:href="#DejaVuSans-62" x="460.986328"/>
      <use xlink:href="#DejaVuSans-73" x="524.462891"/>
      <use xlink:href="#DejaVuSans-65" x="576.5625"/>
      <use xlink:href="#DejaVuSans-72" x="638.085938"/>
      <use xlink:href="#DejaVuSans-76" x="679.199219"/>
      <use xlink:href="#DejaVuSans-65" x="738.378906"/>
      <use xlink:href="#DejaVuSans-64" x="799.902344"/>
      <use xlink:href="#DejaVuSans-20" x="863.378906"/>
      <use xlink:href="#DejaVuSans-6f" x="895.166016"/>
      <use xlink:href="#DejaVuSans-76" x="956.347656"/>
      <use xlink:href="#DejaVuSans-65" x="1015.527344"/>
      <use xlink:href="#DejaVuSans-72" x="1077.050781"/>
      <use xlink:href="#DejaVuSans-20" x="1118.164062"/>
      <use xlink:href="#DejaVuSans-65" x="1149.951172"/>
      <use xlink:href="#DejaVuSans-78" x="1209.724609"/>
      <use xlink:href="#DejaVuSans-70" x="1268.904297"/>
      <use xlink:href="#DejaVuSans-65" x="1332.380859"/>
      <use xlink:href="#DejaVuSans-63" x="1393.904297"/>
      <use xlink:href="#DejaVuSans-74" x="1448.884766"/>
      <use xlink:href="#DejaVuSans-65" x="1488.09375"/>
      <use xlink:href="#DejaVuSans-64" x="1549.617188"/>
      <use xlink:href="#DejaVuSans-20" x="1613.09375"/>
      <use xlink:href="#DejaVuSans-63" x="1644.880859"/>
      <use xlink:href="#DejaVuSans-6f" x="1699.861328"/>
      <use xlink:href="#DejaVuSans-75" x="1761.042969"/>
      <use xlink:href="#DejaVuSans-6e" x="1824.421875"/>
      <use xlink:href="#DejaVuSans-74" x="1887.800781"/>
      <use xlink:href="#DejaVuSans-73" x="1927.009766"/>
      <use xlink:href="#DejaVuSans-20" x="1979.109375"/>
      <use xlink:href="#DejaVuSans-29" x="2010.896484"/>
     </g>
    </g>
   </g>
   <g id="line2d_9">
    <path d="M 95.856493 338.096563 
L 129.879187 338.107038 
L 163.901881 338.104918 
L 197.924575 338.110537 
L 231.94727 338.105588 
L 265.969964 338.100075 
L 299.992658 338.102083 
L 334.015352 338.106492 
L 368.038046 338.09993 
L 402.060741 338.101531 
L 436.083435 338.092696 
L 470.106129 338.090138 
L 504.128823 338.113262 
L 538.151518 338.103275 
L 572.174212 338.104366 
L 606.196906 338.098873 
L 640.2196 338.07098 
L 674.242294 338.111169 
L 708.264989 338.055222 
L 742.287683 338.091256 
L 776.310377 338.067097 
L 810.333071 338.09876 
L 844.355765 338.108132 
L 878.37846 199.186721 
L 912.401154 332.48919 
L 946.423848 331.928486 
" clip-path="url(#pbf50227426)" style="fill: none; stroke: #7cb5ec; stroke-linecap: square"/>
   </g>
   <g id="line2d_10">
    <path d="M 95.856493 338.097189 
L 129.879187 338.107881 
L 163.901881 338.105452 
L 197.924575 338.111436 
L 231.94727 338.106288 
L 265.969964 338.100435 
L 299.992658 338.102541 
L 334.015352 338.107002 
L 368.038046 338.099636 
L 402.060741 338.102672 
L 436.083435 338.092634 
L 470.106129 338.089724 
L 504.128823 338.113773 
L 538.151518 338.104168 
L 572.174212 338.104877 
L 606.196906 338.097519 
L 640.2196 338.068414 
L 674.242294 338.111972 
L 708.264989 338.051285 
L 742.287683 338.091127 
L 776.310377 338.061372 
L 810.333071 338.097478 
L 844.355765 338.108424 
L 878.37846 191.592763 
L 912.401154 331.598734 
L 946.423848 331.053618 
" clip-path="url(#pbf50227426)" style="fill: none; stroke: #434348; stroke-linecap: square"/>
   </g>
   <g id="line2d_11">
    <path d="M 95.856493 338.099559 
L 129.879187 338.109026 
L 163.901881 338.106929 
L 197.924575 338.112142 
L 231.94727 338.107162 
L 265.969964 338.10182 
L 299.992658 338.103894 
L 334.015352 338.108091 
L 368.038046 338.100739 
L 402.060741 338.104304 
L 436.083435 338.094482 
L 470.106129 338.090574 
L 504.128823 338.114297 
L 538.151518 338.10572 
L 572.174212 338.10655 
L 606.196906 338.098897 
L 640.2196 338.071954 
L 674.242294 338.112539 
L 708.264989 338.052647 
L 742.287683 338.09304 
L 776.310377 338.004187 
L 810.333071 338.098761 
L 844.355765 338.109511 
L 878.37846 276.646021 
L 912.401154 323.638769 
L 946.423848 322.364465 
" clip-path="url(#pbf50227426)" style="fill: none; stroke: #90ed7d; stroke-linecap: square"/>
   </g>
   <g id="line2d_12">
    <path d="M 95.856493 338.097813 
L 129.879187 338.107814 
L 163.901881 338.105469 
L 197.924575 338.110998 
L 231.94727 338.105651 
L 265.969964 338.100721 
L 299.992658 338.103015 
L 334.015352 338.106685 
L 368.038046 338.098891 
L 402.060741 338.102343 
L 436.083435 338.092788 
L 470.106129 338.088681 
L 504.128823 338.113549 
L 538.151518 338.104044 
L 572.174212 338.105093 
L 606.196906 338.097362 
L 640.2196 338.069295 
L 674.242294 338.111665 
L 708.264989 338.0523 
L 742.287683 338.091426 
L 776.310377 338.046984 
L 810.333071 338.097749 
L 844.355765 338.108976 
L 878.37846 276.295596 
L 912.401154 329.686134 
L 946.423848 328.970218 
" clip-path="url(#pbf50227426)" style="fill: none; stroke: #f7a35c; stroke-linecap: square"/>
   </g>
   <g id="line2d_13">
    <path d="M 95.856493 338.09776 
L 129.879187 338.107827 
L 163.901881 338.105834 
L 197.924575 338.111246 
L 231.94727 338.106355 
L 265.969964 338.100636 
L 299.992658 338.102642 
L 334.015352 338.107118 
L 368.038046 338.100576 
L 402.060741 338.102613 
L 436.083435 338.093551 
L 470.106129 338.091145 
L 504.128823 338.113735 
L 538.151518 338.104549 
L 572.174212 338.105084 
L 606.196906 338.099392 
L 640.2196 338.072033 
L 674.242294 338.111757 
L 708.264989 338.055392 
L 742.287683 338.092477 
L 776.310377 338.035321 
L 810.333071 338.099172 
L 844.355765 338.108733 
L 878.37846 240.816082 
L 912.401154 328.067307 
L 946.423848 327.189406 
" clip-path="url(#pbf50227426)" style="fill: none; stroke: #8085e9; stroke-linecap: square"/>
   </g>
   <g id="line2d_14">
    <path d="M 95.856493 338.099184 
L 129.879187 338.108753 
L 163.901881 338.106759 
L 197.924575 338.111922 
L 231.94727 338.10717 
L 265.969964 338.101441 
L 299.992658 338.103937 
L 334.015352 338.107971 
L 368.038046 338.100788 
L 402.060741 338.104162 
L 436.083435 338.094919 
L 470.106129 338.091444 
L 504.128823 338.114138 
L 538.151518 338.105777 
L 572.174212 338.106083 
L 606.196906 338.099437 
L 640.2196 338.074014 
L 674.242294 338.112369 
L 708.264989 338.054999 
L 742.287683 338.093952 
L 776.310377 338.002759 
L 810.333071 338.099528 
L 844.355765 338.109487 
L 878.37846 270.613398 
L 912.401154 323.429121 
L 946.423848 322.191492 
" clip-path="url(#pbf50227426)" style="fill: none; stroke: #f15c80; stroke-linecap: square"/>
   </g>
   <g id="line2d_15">
    <path d="M 95.856493 338.099494 
L 129.879187 338.109254 
L 163.901881 338.106808 
L 197.924575 338.112397 
L 231.94727 338.107328 
L 265.969964 338.101013 
L 299.992658 338.103652 
L 334.015352 338.108261 
L 368.038046 338.100257 
L 402.060741 338.104434 
L 436.083435 338.094055 
L 470.106129 338.089593 
L 504.128823 338.114542 
L 538.151518 338.106334 
L 572.174212 338.106178 
L 606.196906 338.099307 
L 640.2196 338.070696 
L 674.242294 338.112621 
L 708.264989 338.0489 
L 742.287683 338.093111 
L 776.310377 338.00427 
L 810.333071 338.098307 
L 844.355765 338.109322 
L 878.37846 312.175109 
L 912.401154 323.524618 
L 946.423848 322.316306 
" clip-path="url(#pbf50227426)" style="fill: none; stroke: #e4d354; stroke-linecap: square"/>
   </g>
   <g id="line2d_16">
    <path d="M 95.856493 338.097317 
L 129.879187 338.107465 
L 163.901881 338.105083 
L 197.924575 338.110682 
L 231.94727 338.105429 
L 265.969964 338.100586 
L 299.992658 338.102753 
L 334.015352 338.106279 
L 368.038046 338.098763 
L 402.060741 338.101605 
L 436.083435 338.093038 
L 470.106129 338.089062 
L 504.128823 338.113309 
L 538.151518 338.103894 
L 572.174212 338.104845 
L 606.196906 338.097136 
L 640.2196 338.070026 
L 674.242294 338.111265 
L 708.264989 338.052522 
L 742.287683 338.091849 
L 776.310377 338.053964 
L 810.333071 338.097889 
L 844.355765 338.108766 
L 878.37846 270.925916 
L 912.401154 330.680256 
L 946.423848 330.061642 
" clip-path="url(#pbf50227426)" style="fill: none; stroke: #2b908f; stroke-linecap: square"/>
   </g>
   <g id="line2d_17">
    <path d="M 95.856493 338.097281 
L 129.879187 338.107576 
L 163.901881 338.105264 
L 197.924575 338.11104 
L 231.94727 338.105938 
L 265.969964 338.099994 
L 299.992658 338.102199 
L 334.015352 338.106777 
L 368.038046 338.099469 
L 402.060741 338.102276 
L 436.083435 338.092568 
L 470.106129 338.089008 
L 504.128823 338.113633 
L 538.151518 338.103879 
L 572.174212 338.104796 
L 606.196906 338.098413 
L 640.2196 338.068742 
L 674.242294 338.111624 
L 708.264989 338.051188 
L 742.287683 338.091057 
L 776.310377 338.055839 
L 810.333071 338.097733 
L 844.355765 338.10833 
L 878.37846 257.25278 
L 912.401154 330.828572 
L 946.423848 330.198868 
" clip-path="url(#pbf50227426)" style="fill: none; stroke: #f45b5b; stroke-linecap: square"/>
   </g>
   <g id="line2d_18">
    <path d="M 95.856493 338.098326 
L 129.879187 338.108367 
L 163.901881 338.106117 
L 197.924575 338.111673 
L 231.94727 338.106581 
L 265.969964 338.100739 
L 299.992658 338.103001 
L 334.015352 338.10741 
L 368.038046 338.099579 
L 402.060741 338.103331 
L 436.083435 338.093217 
L 470.106129 338.089207 
L 504.128823 338.114069 
L 538.151518 338.104814 
L 572.174212 338.105683 
L 606.196906 338.097871 
L 640.2196 338.069203 
L 674.242294 338.112146 
L 708.264989 338.047551 
L 742.287683 338.09149 
L 776.310377 338.03531 
L 810.333071 338.097512 
L 844.355765 338.108946 
L 878.37846 279.431952 
L 912.401154 327.85487 
L 946.423848 327.000696 
" clip-path="url(#pbf50227426)" style="fill: none; stroke: #91e8e1; stroke-linecap: square"/>
   </g>
   <g id="line2d_19">
    <path d="M 95.856493 338.096459 
L 129.879187 338.107022 
L 163.901881 338.104726 
L 197.924575 338.110564 
L 231.94727 338.105202 
L 265.969964 338.100359 
L 299.992658 338.102544 
L 334.015352 338.105887 
L 368.038046 338.098216 
L 402.060741 338.101421 
L 436.083435 338.091729 
L 470.106129 338.088192 
L 504.128823 338.113175 
L 538.151518 338.103007 
L 572.174212 338.104586 
L 606.196906 338.095795 
L 640.2196 338.067807 
L 674.242294 338.111323 
L 708.264989 338.050312 
L 742.287683 338.090296 
L 776.310377 338.077109 
L 810.333071 338.096713 
L 844.355765 338.108404 
L 878.37846 240.656358 
L 912.401154 334.034821 
L 946.423848 333.636922 
" clip-path="url(#pbf50227426)" style="fill: none; stroke: #7cb5ec; stroke-linecap: square"/>
   </g>
   <g id="line2d_20">
    <path d="M 95.856493 338.097608 
L 129.879187 338.107782 
L 163.901881 338.105562 
L 197.924575 338.111172 
L 231.94727 338.10643 
L 265.969964 338.100612 
L 299.992658 338.102639 
L 334.015352 338.106796 
L 368.038046 338.100161 
L 402.060741 338.102594 
L 436.083435 338.092629 
L 470.106129 338.090879 
L 504.128823 338.11369 
L 538.151518 338.104095 
L 572.174212 338.104796 
L 606.196906 338.097714 
L 640.2196 338.070336 
L 674.242294 338.11181 
L 708.264989 338.052832 
L 742.287683 338.091396 
L 776.310377 338.042512 
L 810.333071 338.09787 
L 844.355765 338.108304 
L 878.37846 265.480207 
L 912.401154 329.104913 
L 946.423848 328.266358 
" clip-path="url(#pbf50227426)" style="fill: none; stroke: #434348; stroke-linecap: square"/>
   </g>
   <g id="line2d_21">
    <path d="M 95.856493 338.098365 
L 129.879187 338.108125 
L 163.901881 338.106014 
L 197.924575 338.111357 
L 231.94727 338.106476 
L 265.969964 338.100751 
L 299.992658 338.103119 
L 334.015352 338.10739 
L 368.038046 338.10019 
L 402.060741 338.103342 
L 436.083435 338.093897 
L 470.106129 338.09047 
L 504.128823 338.113847 
L 538.151518 338.104665 
L 572.174212 338.105431 
L 606.196906 338.098923 
L 640.2196 338.071786 
L 674.242294 338.111914 
L 708.264989 338.054105 
L 742.287683 338.092597 
L 776.310377 338.025623 
L 810.333071 338.098747 
L 844.355765 338.108864 
L 878.37846 274.814034 
L 912.401154 326.743536 
L 946.423848 325.66786 
" clip-path="url(#pbf50227426)" style="fill: none; stroke: #90ed7d; stroke-linecap: square"/>
   </g>
   <g id="line2d_22">
    <path d="M 95.856493 338.095621 
L 129.879187 338.107565 
L 163.901881 338.105335 
L 197.924575 338.110869 
L 231.94727 338.105681 
L 265.969964 338.100941 
L 299.992658 338.103028 
L 334.015352 338.106663 
L 368.038046 338.099722 
L 402.060741 338.102056 
L 436.083435 338.093691 
L 470.106129 338.08987 
L 504.128823 338.1133 
L 538.151518 338.103664 
L 572.174212 338.105041 
L 606.196906 338.097881 
L 640.2196 338.071471 
L 674.242294 338.111507 
L 708.264989 338.055549 
L 742.287683 338.091679 
L 776.310377 338.084901 
L 810.333071 338.098728 
L 844.355765 338.108795 
L 878.37846 49.646707 
L 912.401154 334.988202 
L 946.423848 334.664932 
" clip-path="url(#pbf50227426)" style="fill: none; stroke: #f7a35c; stroke-linecap: square"/>
   </g>
   <g id="line2d_23">
    <path d="M 95.856493 338.097035 
L 129.879187 338.107551 
L 163.901881 338.105188 
L 197.924575 338.110795 
L 231.94727 338.10566 
L 265.969964 338.100917 
L 299.992658 338.103067 
L 334.015352 338.106393 
L 368.038046 338.099043 
L 402.060741 338.102069 
L 436.083435 338.093045 
L 470.106129 338.089325 
L 504.128823 338.113342 
L 538.151518 338.103714 
L 572.174212 338.105119 
L 606.196906 338.096688 
L 640.2196 338.069905 
L 674.242294 338.111496 
L 708.264989 338.053514 
L 742.287683 338.091441 
L 776.310377 338.058764 
L 810.333071 338.097806 
L 844.355765 338.108801 
L 878.37846 223.654485 
L 912.401154 331.423095 
L 946.423848 330.777657 
" clip-path="url(#pbf50227426)" style="fill: none; stroke: #8085e9; stroke-linecap: square"/>
   </g>
   <g id="line2d_24">
    <path d="M 95.856493 338.104568 
L 129.879187 338.111415 
L 163.901881 338.11013 
L 197.924575 338.113618 
L 231.94727 338.110279 
L 265.969964 338.106451 
L 299.992658 338.108192 
L 334.015352 338.110752 
L 368.038046 338.106454 
L 402.060741 338.108248 
L 436.083435 338.101862 
L 470.106129 338.099542 
L 504.128823 338.115343 
L 538.151518 338.108994 
L 572.174212 338.109651 
L 606.196906 338.106012 
L 640.2196 338.088044 
L 674.242294 338.114023 
L 708.264989 338.077992 
L 742.287683 338.101256 
L 776.310377 337.852325 
L 810.333071 338.105872 
L 844.355765 338.112011 
L 878.37846 292.567957 
L 912.401154 302.634509 
L 946.423848 299.263345 
" clip-path="url(#pbf50227426)" style="fill: none; stroke: #f15c80; stroke-linecap: square"/>
   </g>
   <g id="line2d_25">
    <path d="M 53.328125 338.118594 
L 988.952216 338.118594 
" clip-path="url(#pbf50227426)" style="fill: none; stroke: #dedede; stroke-width: 2; stroke-linecap: square"/>
   </g>
   <g id="text_37">
    <!-- Samtools idxstats: Mapped reads per contig -->
    <g transform="translate(344.86142 19.3575) scale(0.16 -0.16)">
     <defs>
      <path id="DejaVuSans-53" d="M 3425 4513 
L 3425 3897 
Q 3066 4069 2747 4153 
Q 2428 4238 2131 4238 
Q 1616 4238 1336 4038 
Q 1056 3838 1056 3469 
Q 1056 3159 1242 3001 
Q 1428 2844 1947 2747 
L 2328 2669 
Q 3034 2534 3370 2195 
Q 3706 1856 3706 1288 
Q 3706 609 3251 259 
Q 2797 -91 1919 -91 
Q 1588 -91 1214 -16 
Q 841 59 441 206 
L 441 856 
Q 825 641 1194 531 
Q 1563 422 1919 422 
Q 2459 422 2753 634 
Q 3047 847 3047 1241 
Q 3047 1584 2836 1778 
Q 2625 1972 2144 2069 
L 1759 2144 
Q 1053 2284 737 2584 
Q 422 2884 422 3419 
Q 422 4038 858 4394 
Q 1294 4750 2059 4750 
Q 2388 4750 2728 4690 
Q 3069 4631 3425 4513 
z
" transform="scale(0.015625)"/>
      <path id="DejaVuSans-69" d="M 603 3500 
L 1178 3500 
L 1178 0 
L 603 0 
L 603 3500 
z
M 603 4863 
L 1178 4863 
L 1178 4134 
L 603 4134 
L 603 4863 
z
" transform="scale(0.015625)"/>
      <path id="DejaVuSans-3a" d="M 750 794 
L 1409 794 
L 1409 0 
L 750 0 
L 750 794 
z
M 750 3309 
L 1409 3309 
L 1409 2516 
L 750 2516 
L 750 3309 
z
" transform="scale(0.015625)"/>
     </defs>
     <use xlink:href="#DejaVuSans-53"/>
     <use xlink:href="#DejaVuSans-61" x="63.476562"/>
     <use xlink:href="#DejaVuSans-6d" x="124.755859"/>
     <use xlink:href="#DejaVuSans-74" x="222.167969"/>
     <use xlink:href="#DejaVuSans-6f" x="261.376953"/>
     <use xlink:href="#DejaVuSans-6f" x="322.558594"/>
     <use xlink:href="#DejaVuSans-6c" x="383.740234"/>
     <use xlink:href="#DejaVuSans-73" x="411.523438"/>
     <use xlink:href="#DejaVuSans-20" x="463.623047"/>
     <use xlink:href="#DejaVuSans-69" x="495.410156"/>
     <use xlink:href="#DejaVuSans-64" x="523.193359"/>
     <use xlink:href="#DejaVuSans-78" x="586.669922"/>
     <use xlink:href="#DejaVuSans-73" x="645.849609"/>
     <use xlink:href="#DejaVuSans-74" x="697.949219"/>
     <use xlink:href="#DejaVuSans-61" x="737.158203"/>
     <use xlink:href="#DejaVuSans-74" x="798.4375"/>
     <use xlink:href="#DejaVuSans-73" x="837.646484"/>
     <use xlink:href="#DejaVuSans-3a" x="889.746094"/>
     <use xlink:href="#DejaVuSans-20" x="923.4375"/>
     <use xlink:href="#DejaVuSans-4d" x="955.224609"/>
     <use xlink:href="#DejaVuSans-61" x="1041.503906"/>
     <use xlink:href="#DejaVuSans-70" x="1102.783203"/>
     <use xlink:href="#DejaVuSans-70" x="1166.259766"/>
     <use xlink:href="#DejaVuSans-65" x="1229.736328"/>
     <use xlink:href="#DejaVuSans-64" x="1291.259766"/>
     <use xlink:href="#DejaVuSans-20" x="1354.736328"/>
     <use xlink:href="#DejaVuSans-72" x="1386.523438"/>
     <use xlink:href="#DejaVuSans-65" x="1425.386719"/>
     <use xlink:href="#DejaVuSans-61" x="1486.910156"/>
     <use xlink:href="#DejaVuSans-64" x="1548.189453"/>
     <use xlink:href="#DejaVuSans-73" x="1611.666016"/>
     <use xlink:href="#DejaVuSans-20" x="1663.765625"/>
     <use xlink:href="#DejaVuSans-70" x="1695.552734"/>
     <use xlink:href="#DejaVuSans-65" x="1759.029297"/>
     <use xlink:href="#DejaVuSans-72" x="1820.552734"/>
     <use xlink:href="#DejaVuSans-20" x="1861.666016"/>
     <use xlink:href="#DejaVuSans-63" x="1893.453125"/>
     <use xlink:href="#DejaVuSans-6f" x="1948.433594"/>
     <use xlink:href="#DejaVuSans-6e" x="2009.615234"/>
     <use xlink:href="#DejaVuSans-74" x="2072.994141"/>
     <use xlink:href="#DejaVuSans-69" x="2112.203125"/>
     <use xlink:href="#DejaVuSans-67" x="2139.986328"/>
    </g>
   </g>
  </g>
 </g>
 <defs>
  <clipPath id="pbf50227426">
   <rect x="53.328125" y="35.223275" width="935.624091" height="317.3155"/>
  </clipPath>
 </defs>
</svg>
