<?xml version="1.0" encoding="utf-8" standalone="no"?>
<!DOCTYPE svg PUBLIC "-//W3C//DTD SVG 1.1//EN"
  "http://www.w3.org/Graphics/SVG/1.1/DTD/svg11.dtd">
<svg xmlns:xlink="http://www.w3.org/1999/xlink" width="1000.358125pt" height="388.844525pt" viewBox="0 0 1000.358125 388.844525" xmlns="http://www.w3.org/2000/svg" version="1.1">
 <metadata>
  <rdf:RDF xmlns:dc="http://purl.org/dc/elements/1.1/" xmlns:cc="http://creativecommons.org/ns#" xmlns:rdf="http://www.w3.org/1999/02/22-rdf-syntax-ns#">
   <cc:Work>
    <dc:type rdf:resource="http://purl.org/dc/dcmitype/StillImage"/>
    <dc:date>2024-09-05T13:39:12.152101</dc:date>
    <dc:format>image/svg+xml</dc:format>
    <dc:creator>
     <cc:Agent>
      <dc:title>Matplotlib v3.8.2, https://matplotlib.org/</dc:title>
     </cc:Agent>
    </dc:creator>
   </cc:Work>
  </rdf:RDF>
 </metadata>
 <defs>
  <style type="text/css">*{stroke-linejoin: round; stroke-linecap: butt}</style>
 </defs>
 <g id="figure_1">
  <g id="axes_1">
   <g id="patch_1">
    <path d="M 32.968125 353.2239 
L 993.158125 353.2239 
L 993.158125 35.2559 
L 32.968125 35.2559 
z
" style="fill: #ffffff"/>
   </g>
   <g id="matplotlib.axis_1">
    <g id="xtick_1">
     <g id="text_1">
      <!-- 40 -->
      <g transform="translate(150.87767 366.30265) scale(0.08 -0.08)">
       <defs>
        <path id="DejaVuSans-34" d="M 2419 4116 
L 825 1625 
L 2419 1625 
L 2419 4116 
z
M 2253 4666 
L 3047 4666 
L 3047 1625 
L 3713 1625 
L 3713 1100 
L 3047 1100 
L 3047 0 
L 2419 0 
L 2419 1100 
L 313 1100 
L 313 1709 
L 2253 4666 
z
" transform="scale(0.015625)"/>
        <path id="DejaVuSans-30" d="M 2034 4250 
Q 1547 4250 1301 3770 
Q 1056 3291 1056 2328 
Q 1056 1369 1301 889 
Q 1547 409 2034 409 
Q 2525 409 2770 889 
Q 3016 1369 3016 2328 
Q 3016 3291 2770 3770 
Q 2525 4250 2034 4250 
z
M 2034 4750 
Q 2819 4750 3233 4129 
Q 3647 3509 3647 2328 
Q 3647 1150 3233 529 
Q 2819 -91 2034 -91 
Q 1250 -91 836 529 
Q 422 1150 422 2328 
Q 422 3509 836 4129 
Q 1250 4750 2034 4750 
z
" transform="scale(0.015625)"/>
       </defs>
       <use xlink:href="#DejaVuSans-34"/>
       <use xlink:href="#DejaVuSans-30" x="63.623047"/>
      </g>
     </g>
    </g>
    <g id="xtick_2">
     <g id="text_2">
      <!-- 50 -->
      <g transform="translate(283.135246 366.30265) scale(0.08 -0.08)">
       <defs>
        <path id="DejaVuSans-35" d="M 691 4666 
L 3169 4666 
L 3169 4134 
L 1269 4134 
L 1269 2991 
Q 1406 3038 1543 3061 
Q 1681 3084 1819 3084 
Q 2600 3084 3056 2656 
Q 3513 2228 3513 1497 
Q 3513 744 3044 326 
Q 2575 -91 1722 -91 
Q 1428 -91 1123 -41 
Q 819 9 494 109 
L 494 744 
Q 775 591 1075 516 
Q 1375 441 1709 441 
Q 2250 441 2565 725 
Q 2881 1009 2881 1497 
Q 2881 1984 2565 2268 
Q 2250 2553 1709 2553 
Q 1456 2553 1204 2497 
Q 953 2441 691 2322 
L 691 4666 
z
" transform="scale(0.015625)"/>
       </defs>
       <use xlink:href="#DejaVuSans-35"/>
       <use xlink:href="#DejaVuSans-30" x="63.623047"/>
      </g>
     </g>
    </g>
    <g id="xtick_3">
     <g id="text_3">
      <!-- 60 -->
      <g transform="translate(415.392822 366.30265) scale(0.08 -0.08)">
       <defs>
        <path id="DejaVuSans-36" d="M 2113 2584 
Q 1688 2584 1439 2293 
Q 1191 2003 1191 1497 
Q 1191 994 1439 701 
Q 1688 409 2113 409 
Q 2538 409 2786 701 
Q 3034 994 3034 1497 
Q 3034 2003 2786 2293 
Q 2538 2584 2113 2584 
z
M 3366 4563 
L 3366 3988 
Q 3128 4100 2886 4159 
Q 2644 4219 2406 4219 
Q 1781 4219 1451 3797 
Q 1122 3375 1075 2522 
Q 1259 2794 1537 2939 
Q 1816 3084 2150 3084 
Q 2853 3084 3261 2657 
Q 3669 2231 3669 1497 
Q 3669 778 3244 343 
Q 2819 -91 2113 -91 
Q 1303 -91 875 529 
Q 447 1150 447 2328 
Q 447 3434 972 4092 
Q 1497 4750 2381 4750 
Q 2619 4750 2861 4703 
Q 3103 4656 3366 4563 
z
" transform="scale(0.015625)"/>
       </defs>
       <use xlink:href="#DejaVuSans-36"/>
       <use xlink:href="#DejaVuSans-30" x="63.623047"/>
      </g>
     </g>
    </g>
    <g id="xtick_4">
     <g id="text_4">
      <!-- 70 -->
      <g transform="translate(547.650398 366.30265) scale(0.08 -0.08)">
       <defs>
        <path id="DejaVuSans-37" d="M 525 4666 
L 3525 4666 
L 3525 4397 
L 1831 0 
L 1172 0 
L 2766 4134 
L 525 4134 
L 525 4666 
z
" transform="scale(0.015625)"/>
       </defs>
       <use xlink:href="#DejaVuSans-37"/>
       <use xlink:href="#DejaVuSans-30" x="63.623047"/>
      </g>
     </g>
    </g>
    <g id="xtick_5">
     <g id="text_5">
      <!-- 80 -->
      <g transform="translate(679.907973 366.30265) scale(0.08 -0.08)">
       <defs>
        <path id="DejaVuSans-38" d="M 2034 2216 
Q 1584 2216 1326 1975 
Q 1069 1734 1069 1313 
Q 1069 891 1326 650 
Q 1584 409 2034 409 
Q 2484 409 2743 651 
Q 3003 894 3003 1313 
Q 3003 1734 2745 1975 
Q 2488 2216 2034 2216 
z
M 1403 2484 
Q 997 2584 770 2862 
Q 544 3141 544 3541 
Q 544 4100 942 4425 
Q 1341 4750 2034 4750 
Q 2731 4750 3128 4425 
Q 3525 4100 3525 3541 
Q 3525 3141 3298 2862 
Q 3072 2584 2669 2484 
Q 3125 2378 3379 2068 
Q 3634 1759 3634 1313 
Q 3634 634 3220 271 
Q 2806 -91 2034 -91 
Q 1263 -91 848 271 
Q 434 634 434 1313 
Q 434 1759 690 2068 
Q 947 2378 1403 2484 
z
M 1172 3481 
Q 1172 3119 1398 2916 
Q 1625 2713 2034 2713 
Q 2441 2713 2670 2916 
Q 2900 3119 2900 3481 
Q 2900 3844 2670 4047 
Q 2441 4250 2034 4250 
Q 1625 4250 1398 4047 
Q 1172 3844 1172 3481 
z
" transform="scale(0.015625)"/>
       </defs>
       <use xlink:href="#DejaVuSans-38"/>
       <use xlink:href="#DejaVuSans-30" x="63.623047"/>
      </g>
     </g>
    </g>
    <g id="xtick_6">
     <g id="text_6">
      <!-- 90 -->
      <g transform="translate(812.165549 366.30265) scale(0.08 -0.08)">
       <defs>
        <path id="DejaVuSans-39" d="M 703 97 
L 703 672 
Q 941 559 1184 500 
Q 1428 441 1663 441 
Q 2288 441 2617 861 
Q 2947 1281 2994 2138 
Q 2813 1869 2534 1725 
Q 2256 1581 1919 1581 
Q 1219 1581 811 2004 
Q 403 2428 403 3163 
Q 403 3881 828 4315 
Q 1253 4750 1959 4750 
Q 2769 4750 3195 4129 
Q 3622 3509 3622 2328 
Q 3622 1225 3098 567 
Q 2575 -91 1691 -91 
Q 1453 -91 1209 -44 
Q 966 3 703 97 
z
M 1959 2075 
Q 2384 2075 2632 2365 
Q 2881 2656 2881 3163 
Q 2881 3666 2632 3958 
Q 2384 4250 1959 4250 
Q 1534 4250 1286 3958 
Q 1038 3666 1038 3163 
Q 1038 2656 1286 2365 
Q 1534 2075 1959 2075 
z
" transform="scale(0.015625)"/>
       </defs>
       <use xlink:href="#DejaVuSans-39"/>
       <use xlink:href="#DejaVuSans-30" x="63.623047"/>
      </g>
     </g>
    </g>
    <g id="xtick_7">
     <g id="text_7">
      <!-- 100 -->
      <g transform="translate(941.878125 366.30265) scale(0.08 -0.08)">
       <defs>
        <path id="DejaVuSans-31" d="M 794 531 
L 1825 531 
L 1825 4091 
L 703 3866 
L 703 4441 
L 1819 4666 
L 2450 4666 
L 2450 531 
L 3481 531 
L 3481 0 
L 794 0 
L 794 531 
z
" transform="scale(0.015625)"/>
       </defs>
       <use xlink:href="#DejaVuSans-31"/>
       <use xlink:href="#DejaVuSans-30" x="63.623047"/>
       <use xlink:href="#DejaVuSans-30" x="127.246094"/>
      </g>
     </g>
    </g>
    <g id="text_8">
     <!-- Sequence Length (bp) -->
     <g transform="translate(457.723281 379.564837) scale(0.1 -0.1)">
      <defs>
       <path id="DejaVuSans-53" d="M 3425 4513 
L 3425 3897 
Q 3066 4069 2747 4153 
Q 2428 4238 2131 4238 
Q 1616 4238 1336 4038 
Q 1056 3838 1056 3469 
Q 1056 3159 1242 3001 
Q 1428 2844 1947 2747 
L 2328 2669 
Q 3034 2534 3370 2195 
Q 3706 1856 3706 1288 
Q 3706 609 3251 259 
Q 2797 -91 1919 -91 
Q 1588 -91 1214 -16 
Q 841 59 441 206 
L 441 856 
Q 825 641 1194 531 
Q 1563 422 1919 422 
Q 2459 422 2753 634 
Q 3047 847 3047 1241 
Q 3047 1584 2836 1778 
Q 2625 1972 2144 2069 
L 1759 2144 
Q 1053 2284 737 2584 
Q 422 2884 422 3419 
Q 422 4038 858 4394 
Q 1294 4750 2059 4750 
Q 2388 4750 2728 4690 
Q 3069 4631 3425 4513 
z
" transform="scale(0.015625)"/>
       <path id="DejaVuSans-65" d="M 3597 1894 
L 3597 1613 
L 953 1613 
Q 991 1019 1311 708 
Q 1631 397 2203 397 
Q 2534 397 2845 478 
Q 3156 559 3463 722 
L 3463 178 
Q 3153 47 2828 -22 
Q 2503 -91 2169 -91 
Q 1331 -91 842 396 
Q 353 884 353 1716 
Q 353 2575 817 3079 
Q 1281 3584 2069 3584 
Q 2775 3584 3186 3129 
Q 3597 2675 3597 1894 
z
M 3022 2063 
Q 3016 2534 2758 2815 
Q 2500 3097 2075 3097 
Q 1594 3097 1305 2825 
Q 1016 2553 972 2059 
L 3022 2063 
z
" transform="scale(0.015625)"/>
       <path id="DejaVuSans-71" d="M 947 1747 
Q 947 1113 1208 752 
Q 1469 391 1925 391 
Q 2381 391 2643 752 
Q 2906 1113 2906 1747 
Q 2906 2381 2643 2742 
Q 2381 3103 1925 3103 
Q 1469 3103 1208 2742 
Q 947 2381 947 1747 
z
M 2906 525 
Q 2725 213 2448 61 
Q 2172 -91 1784 -91 
Q 1150 -91 751 415 
Q 353 922 353 1747 
Q 353 2572 751 3078 
Q 1150 3584 1784 3584 
Q 2172 3584 2448 3432 
Q 2725 3281 2906 2969 
L 2906 3500 
L 3481 3500 
L 3481 -1331 
L 2906 -1331 
L 2906 525 
z
" transform="scale(0.015625)"/>
       <path id="DejaVuSans-75" d="M 544 1381 
L 544 3500 
L 1119 3500 
L 1119 1403 
Q 1119 906 1312 657 
Q 1506 409 1894 409 
Q 2359 409 2629 706 
Q 2900 1003 2900 1516 
L 2900 3500 
L 3475 3500 
L 3475 0 
L 2900 0 
L 2900 538 
Q 2691 219 2414 64 
Q 2138 -91 1772 -91 
Q 1169 -91 856 284 
Q 544 659 544 1381 
z
M 1991 3584 
L 1991 3584 
z
" transform="scale(0.015625)"/>
       <path id="DejaVuSans-6e" d="M 3513 2113 
L 3513 0 
L 2938 0 
L 2938 2094 
Q 2938 2591 2744 2837 
Q 2550 3084 2163 3084 
Q 1697 3084 1428 2787 
Q 1159 2491 1159 1978 
L 1159 0 
L 581 0 
L 581 3500 
L 1159 3500 
L 1159 2956 
Q 1366 3272 1645 3428 
Q 1925 3584 2291 3584 
Q 2894 3584 3203 3211 
Q 3513 2838 3513 2113 
z
" transform="scale(0.015625)"/>
       <path id="DejaVuSans-63" d="M 3122 3366 
L 3122 2828 
Q 2878 2963 2633 3030 
Q 2388 3097 2138 3097 
Q 1578 3097 1268 2742 
Q 959 2388 959 1747 
Q 959 1106 1268 751 
Q 1578 397 2138 397 
Q 2388 397 2633 464 
Q 2878 531 3122 666 
L 3122 134 
Q 2881 22 2623 -34 
Q 2366 -91 2075 -91 
Q 1284 -91 818 406 
Q 353 903 353 1747 
Q 353 2603 823 3093 
Q 1294 3584 2113 3584 
Q 2378 3584 2631 3529 
Q 2884 3475 3122 3366 
z
" transform="scale(0.015625)"/>
       <path id="DejaVuSans-20" transform="scale(0.015625)"/>
       <path id="DejaVuSans-4c" d="M 628 4666 
L 1259 4666 
L 1259 531 
L 3531 531 
L 3531 0 
L 628 0 
L 628 4666 
z
" transform="scale(0.015625)"/>
       <path id="DejaVuSans-67" d="M 2906 1791 
Q 2906 2416 2648 2759 
Q 2391 3103 1925 3103 
Q 1463 3103 1205 2759 
Q 947 2416 947 1791 
Q 947 1169 1205 825 
Q 1463 481 1925 481 
Q 2391 481 2648 825 
Q 2906 1169 2906 1791 
z
M 3481 434 
Q 3481 -459 3084 -895 
Q 2688 -1331 1869 -1331 
Q 1566 -1331 1297 -1286 
Q 1028 -1241 775 -1147 
L 775 -588 
Q 1028 -725 1275 -790 
Q 1522 -856 1778 -856 
Q 2344 -856 2625 -561 
Q 2906 -266 2906 331 
L 2906 616 
Q 2728 306 2450 153 
Q 2172 0 1784 0 
Q 1141 0 747 490 
Q 353 981 353 1791 
Q 353 2603 747 3093 
Q 1141 3584 1784 3584 
Q 2172 3584 2450 3431 
Q 2728 3278 2906 2969 
L 2906 3500 
L 3481 3500 
L 3481 434 
z
" transform="scale(0.015625)"/>
       <path id="DejaVuSans-74" d="M 1172 4494 
L 1172 3500 
L 2356 3500 
L 2356 3053 
L 1172 3053 
L 1172 1153 
Q 1172 725 1289 603 
Q 1406 481 1766 481 
L 2356 481 
L 2356 0 
L 1766 0 
Q 1100 0 847 248 
Q 594 497 594 1153 
L 594 3053 
L 172 3053 
L 172 3500 
L 594 3500 
L 594 4494 
L 1172 4494 
z
" transform="scale(0.015625)"/>
       <path id="DejaVuSans-68" d="M 3513 2113 
L 3513 0 
L 2938 0 
L 2938 2094 
Q 2938 2591 2744 2837 
Q 2550 3084 2163 3084 
Q 1697 3084 1428 2787 
Q 1159 2491 1159 1978 
L 1159 0 
L 581 0 
L 581 4863 
L 1159 4863 
L 1159 2956 
Q 1366 3272 1645 3428 
Q 1925 3584 2291 3584 
Q 2894 3584 3203 3211 
Q 3513 2838 3513 2113 
z
" transform="scale(0.015625)"/>
       <path id="DejaVuSans-28" d="M 1984 4856 
Q 1566 4138 1362 3434 
Q 1159 2731 1159 2009 
Q 1159 1288 1364 580 
Q 1569 -128 1984 -844 
L 1484 -844 
Q 1016 -109 783 600 
Q 550 1309 550 2009 
Q 550 2706 781 3412 
Q 1013 4119 1484 4856 
L 1984 4856 
z
" transform="scale(0.015625)"/>
       <path id="DejaVuSans-62" d="M 3116 1747 
Q 3116 2381 2855 2742 
Q 2594 3103 2138 3103 
Q 1681 3103 1420 2742 
Q 1159 2381 1159 1747 
Q 1159 1113 1420 752 
Q 1681 391 2138 391 
Q 2594 391 2855 752 
Q 3116 1113 3116 1747 
z
M 1159 2969 
Q 1341 3281 1617 3432 
Q 1894 3584 2278 3584 
Q 2916 3584 3314 3078 
Q 3713 2572 3713 1747 
Q 3713 922 3314 415 
Q 2916 -91 2278 -91 
Q 1894 -91 1617 61 
Q 1341 213 1159 525 
L 1159 0 
L 581 0 
L 581 4863 
L 1159 4863 
L 1159 2969 
z
" transform="scale(0.015625)"/>
       <path id="DejaVuSans-70" d="M 1159 525 
L 1159 -1331 
L 581 -1331 
L 581 3500 
L 1159 3500 
L 1159 2969 
Q 1341 3281 1617 3432 
Q 1894 3584 2278 3584 
Q 2916 3584 3314 3078 
Q 3713 2572 3713 1747 
Q 3713 922 3314 415 
Q 2916 -91 2278 -91 
Q 1894 -91 1617 61 
Q 1341 213 1159 525 
z
M 3116 1747 
Q 3116 2381 2855 2742 
Q 2594 3103 2138 3103 
Q 1681 3103 1420 2742 
Q 1159 2381 1159 1747 
Q 1159 1113 1420 752 
Q 1681 391 2138 391 
Q 2594 391 2855 752 
Q 3116 1113 3116 1747 
z
" transform="scale(0.015625)"/>
       <path id="DejaVuSans-29" d="M 513 4856 
L 1013 4856 
Q 1481 4119 1714 3412 
Q 1947 2706 1947 2009 
Q 1947 1309 1714 600 
Q 1481 -109 1013 -844 
L 513 -844 
Q 928 -128 1133 580 
Q 1338 1288 1338 2009 
Q 1338 2731 1133 3434 
Q 928 4138 513 4856 
z
" transform="scale(0.015625)"/>
      </defs>
      <use xlink:href="#DejaVuSans-53"/>
      <use xlink:href="#DejaVuSans-65" x="63.476562"/>
      <use xlink:href="#DejaVuSans-71" x="125"/>
      <use xlink:href="#DejaVuSans-75" x="188.476562"/>
      <use xlink:href="#DejaVuSans-65" x="251.855469"/>
      <use xlink:href="#DejaVuSans-6e" x="313.378906"/>
      <use xlink:href="#DejaVuSans-63" x="376.757812"/>
      <use xlink:href="#DejaVuSans-65" x="431.738281"/>
      <use xlink:href="#DejaVuSans-20" x="493.261719"/>
      <use xlink:href="#DejaVuSans-4c" x="525.048828"/>
      <use xlink:href="#DejaVuSans-65" x="579.011719"/>
      <use xlink:href="#DejaVuSans-6e" x="640.535156"/>
      <use xlink:href="#DejaVuSans-67" x="703.914062"/>
      <use xlink:href="#DejaVuSans-74" x="767.390625"/>
      <use xlink:href="#DejaVuSans-68" x="806.599609"/>
      <use xlink:href="#DejaVuSans-20" x="869.978516"/>
      <use xlink:href="#DejaVuSans-28" x="901.765625"/>
      <use xlink:href="#DejaVuSans-62" x="940.779297"/>
      <use xlink:href="#DejaVuSans-70" x="1004.255859"/>
      <use xlink:href="#DejaVuSans-29" x="1067.732422"/>
     </g>
    </g>
   </g>
   <g id="matplotlib.axis_2">
    <g id="ytick_1">
     <g id="line2d_1">
      <path d="M 32.968125 353.2239 
L 993.158125 353.2239 
" clip-path="url(#p0a82508bad)" style="fill: none; stroke: #dedede; stroke-linecap: square"/>
     </g>
     <g id="text_9">
      <!-- 0 -->
      <g transform="translate(20.878125 356.263275) scale(0.08 -0.08)">
       <use xlink:href="#DejaVuSans-30"/>
      </g>
     </g>
    </g>
    <g id="ytick_2">
     <g id="line2d_2">
      <path d="M 32.968125 304.074665 
L 993.158125 304.074665 
" clip-path="url(#p0a82508bad)" style="fill: none; stroke: #dedede; stroke-linecap: square"/>
     </g>
     <g id="text_10">
      <!-- 1 -->
      <g transform="translate(20.878125 307.11404) scale(0.08 -0.08)">
       <use xlink:href="#DejaVuSans-31"/>
      </g>
     </g>
    </g>
    <g id="ytick_3">
     <g id="line2d_3">
      <path d="M 32.968125 254.925431 
L 993.158125 254.925431 
" clip-path="url(#p0a82508bad)" style="fill: none; stroke: #dedede; stroke-linecap: square"/>
     </g>
     <g id="text_11">
      <!-- 2 -->
      <g transform="translate(20.878125 257.964806) scale(0.08 -0.08)">
       <defs>
        <path id="DejaVuSans-32" d="M 1228 531 
L 3431 531 
L 3431 0 
L 469 0 
L 469 531 
Q 828 903 1448 1529 
Q 2069 2156 2228 2338 
Q 2531 2678 2651 2914 
Q 2772 3150 2772 3378 
Q 2772 3750 2511 3984 
Q 2250 4219 1831 4219 
Q 1534 4219 1204 4116 
Q 875 4013 500 3803 
L 500 4441 
Q 881 4594 1212 4672 
Q 1544 4750 1819 4750 
Q 2544 4750 2975 4387 
Q 3406 4025 3406 3419 
Q 3406 3131 3298 2873 
Q 3191 2616 2906 2266 
Q 2828 2175 2409 1742 
Q 1991 1309 1228 531 
z
" transform="scale(0.015625)"/>
       </defs>
       <use xlink:href="#DejaVuSans-32"/>
      </g>
     </g>
    </g>
    <g id="ytick_4">
     <g id="line2d_4">
      <path d="M 32.968125 205.776196 
L 993.158125 205.776196 
" clip-path="url(#p0a82508bad)" style="fill: none; stroke: #dedede; stroke-linecap: square"/>
     </g>
     <g id="text_12">
      <!-- 3 -->
      <g transform="translate(20.878125 208.815571) scale(0.08 -0.08)">
       <defs>
        <path id="DejaVuSans-33" d="M 2597 2516 
Q 3050 2419 3304 2112 
Q 3559 1806 3559 1356 
Q 3559 666 3084 287 
Q 2609 -91 1734 -91 
Q 1441 -91 1130 -33 
Q 819 25 488 141 
L 488 750 
Q 750 597 1062 519 
Q 1375 441 1716 441 
Q 2309 441 2620 675 
Q 2931 909 2931 1356 
Q 2931 1769 2642 2001 
Q 2353 2234 1838 2234 
L 1294 2234 
L 1294 2753 
L 1863 2753 
Q 2328 2753 2575 2939 
Q 2822 3125 2822 3475 
Q 2822 3834 2567 4026 
Q 2313 4219 1838 4219 
Q 1578 4219 1281 4162 
Q 984 4106 628 3988 
L 628 4550 
Q 988 4650 1302 4700 
Q 1616 4750 1894 4750 
Q 2613 4750 3031 4423 
Q 3450 4097 3450 3541 
Q 3450 3153 3228 2886 
Q 3006 2619 2597 2516 
z
" transform="scale(0.015625)"/>
       </defs>
       <use xlink:href="#DejaVuSans-33"/>
      </g>
     </g>
    </g>
    <g id="ytick_5">
     <g id="line2d_5">
      <path d="M 32.968125 156.626962 
L 993.158125 156.626962 
" clip-path="url(#p0a82508bad)" style="fill: none; stroke: #dedede; stroke-linecap: square"/>
     </g>
     <g id="text_13">
      <!-- 4 -->
      <g transform="translate(20.878125 159.666337) scale(0.08 -0.08)">
       <use xlink:href="#DejaVuSans-34"/>
      </g>
     </g>
    </g>
    <g id="ytick_6">
     <g id="line2d_6">
      <path d="M 32.968125 107.477727 
L 993.158125 107.477727 
" clip-path="url(#p0a82508bad)" style="fill: none; stroke: #dedede; stroke-linecap: square"/>
     </g>
     <g id="text_14">
      <!-- 5 -->
      <g transform="translate(20.878125 110.517102) scale(0.08 -0.08)">
       <use xlink:href="#DejaVuSans-35"/>
      </g>
     </g>
    </g>
    <g id="ytick_7">
     <g id="line2d_7">
      <path d="M 32.968125 58.328492 
L 993.158125 58.328492 
" clip-path="url(#p0a82508bad)" style="fill: none; stroke: #dedede; stroke-linecap: square"/>
     </g>
     <g id="text_15">
      <!-- 6 -->
      <g transform="translate(20.878125 61.367867) scale(0.08 -0.08)">
       <use xlink:href="#DejaVuSans-36"/>
      </g>
     </g>
    </g>
    <g id="text_16">
     <!-- Read Count -->
     <g transform="translate(14.798437 223.241463) rotate(-90) scale(0.1 -0.1)">
      <defs>
       <path id="DejaVuSans-52" d="M 2841 2188 
Q 3044 2119 3236 1894 
Q 3428 1669 3622 1275 
L 4263 0 
L 3584 0 
L 2988 1197 
Q 2756 1666 2539 1819 
Q 2322 1972 1947 1972 
L 1259 1972 
L 1259 0 
L 628 0 
L 628 4666 
L 2053 4666 
Q 2853 4666 3247 4331 
Q 3641 3997 3641 3322 
Q 3641 2881 3436 2590 
Q 3231 2300 2841 2188 
z
M 1259 4147 
L 1259 2491 
L 2053 2491 
Q 2509 2491 2742 2702 
Q 2975 2913 2975 3322 
Q 2975 3731 2742 3939 
Q 2509 4147 2053 4147 
L 1259 4147 
z
" transform="scale(0.015625)"/>
       <path id="DejaVuSans-61" d="M 2194 1759 
Q 1497 1759 1228 1600 
Q 959 1441 959 1056 
Q 959 750 1161 570 
Q 1363 391 1709 391 
Q 2188 391 2477 730 
Q 2766 1069 2766 1631 
L 2766 1759 
L 2194 1759 
z
M 3341 1997 
L 3341 0 
L 2766 0 
L 2766 531 
Q 2569 213 2275 61 
Q 1981 -91 1556 -91 
Q 1019 -91 701 211 
Q 384 513 384 1019 
Q 384 1609 779 1909 
Q 1175 2209 1959 2209 
L 2766 2209 
L 2766 2266 
Q 2766 2663 2505 2880 
Q 2244 3097 1772 3097 
Q 1472 3097 1187 3025 
Q 903 2953 641 2809 
L 641 3341 
Q 956 3463 1253 3523 
Q 1550 3584 1831 3584 
Q 2591 3584 2966 3190 
Q 3341 2797 3341 1997 
z
" transform="scale(0.015625)"/>
       <path id="DejaVuSans-64" d="M 2906 2969 
L 2906 4863 
L 3481 4863 
L 3481 0 
L 2906 0 
L 2906 525 
Q 2725 213 2448 61 
Q 2172 -91 1784 -91 
Q 1150 -91 751 415 
Q 353 922 353 1747 
Q 353 2572 751 3078 
Q 1150 3584 1784 3584 
Q 2172 3584 2448 3432 
Q 2725 3281 2906 2969 
z
M 947 1747 
Q 947 1113 1208 752 
Q 1469 391 1925 391 
Q 2381 391 2643 752 
Q 2906 1113 2906 1747 
Q 2906 2381 2643 2742 
Q 2381 3103 1925 3103 
Q 1469 3103 1208 2742 
Q 947 2381 947 1747 
z
" transform="scale(0.015625)"/>
       <path id="DejaVuSans-43" d="M 4122 4306 
L 4122 3641 
Q 3803 3938 3442 4084 
Q 3081 4231 2675 4231 
Q 1875 4231 1450 3742 
Q 1025 3253 1025 2328 
Q 1025 1406 1450 917 
Q 1875 428 2675 428 
Q 3081 428 3442 575 
Q 3803 722 4122 1019 
L 4122 359 
Q 3791 134 3420 21 
Q 3050 -91 2638 -91 
Q 1578 -91 968 557 
Q 359 1206 359 2328 
Q 359 3453 968 4101 
Q 1578 4750 2638 4750 
Q 3056 4750 3426 4639 
Q 3797 4528 4122 4306 
z
" transform="scale(0.015625)"/>
       <path id="DejaVuSans-6f" d="M 1959 3097 
Q 1497 3097 1228 2736 
Q 959 2375 959 1747 
Q 959 1119 1226 758 
Q 1494 397 1959 397 
Q 2419 397 2687 759 
Q 2956 1122 2956 1747 
Q 2956 2369 2687 2733 
Q 2419 3097 1959 3097 
z
M 1959 3584 
Q 2709 3584 3137 3096 
Q 3566 2609 3566 1747 
Q 3566 888 3137 398 
Q 2709 -91 1959 -91 
Q 1206 -91 779 398 
Q 353 888 353 1747 
Q 353 2609 779 3096 
Q 1206 3584 1959 3584 
z
" transform="scale(0.015625)"/>
      </defs>
      <use xlink:href="#DejaVuSans-52"/>
      <use xlink:href="#DejaVuSans-65" x="64.982422"/>
      <use xlink:href="#DejaVuSans-61" x="126.505859"/>
      <use xlink:href="#DejaVuSans-64" x="187.785156"/>
      <use xlink:href="#DejaVuSans-20" x="251.261719"/>
      <use xlink:href="#DejaVuSans-43" x="283.048828"/>
      <use xlink:href="#DejaVuSans-6f" x="352.873047"/>
      <use xlink:href="#DejaVuSans-75" x="414.054688"/>
      <use xlink:href="#DejaVuSans-6e" x="477.433594"/>
      <use xlink:href="#DejaVuSans-74" x="540.8125"/>
     </g>
    </g>
    <g id="text_17">
     <!-- 1e7 -->
     <g transform="translate(32.968125 32.2559) scale(0.1 -0.1)">
      <use xlink:href="#DejaVuSans-31"/>
      <use xlink:href="#DejaVuSans-65" x="63.623047"/>
      <use xlink:href="#DejaVuSans-37" x="125.146484"/>
     </g>
    </g>
   </g>
   <g id="line2d_8">
    <path d="M 76.613125 310.826271 
L 103.06464 353.219983 
L 129.516155 353.219329 
L 155.96767 353.216719 
L 182.419186 353.214965 
L 208.870701 353.211293 
L 235.322216 353.208728 
L 261.773731 353.205695 
L 288.225246 353.199168 
L 314.676761 353.194189 
L 341.128277 353.186532 
L 367.579792 353.178825 
L 394.031307 353.173576 
L 420.482822 353.164454 
L 446.934337 353.1517 
L 473.385852 353.134984 
L 499.837367 353.11501 
L 526.288883 353.100929 
L 552.740398 353.083363 
L 579.191913 353.063885 
L 605.643428 353.027347 
L 632.094943 352.981373 
L 658.546458 352.940481 
L 684.997973 352.914648 
L 711.449489 352.861434 
L 737.901004 352.794483 
L 764.352519 352.687815 
L 790.804034 352.58123 
L 817.255549 352.493105 
L 843.707064 352.379934 
L 870.15858 351.234334 
L 896.610095 341.922491 
L 923.06161 242.875483 
L 949.513125 133.499391 
" clip-path="url(#p0a82508bad)" style="fill: none; stroke: #f0ad4e; stroke-linecap: square"/>
   </g>
   <g id="line2d_9">
    <path d="M 76.613125 316.779123 
L 103.06464 353.196489 
L 129.516155 353.188552 
L 155.96767 353.174879 
L 182.419186 353.161451 
L 208.870701 353.147375 
L 235.322216 353.135623 
L 261.773731 353.121286 
L 288.225246 353.093527 
L 314.676761 353.066465 
L 341.128277 353.043857 
L 367.579792 353.018599 
L 394.031307 352.994801 
L 420.482822 352.956528 
L 446.934337 352.910407 
L 473.385852 352.862609 
L 499.837367 352.819775 
L 526.288883 352.772971 
L 552.740398 352.721157 
L 579.191913 352.645787 
L 605.643428 352.542913 
L 632.094943 352.461954 
L 658.546458 352.38594 
L 684.997973 352.292006 
L 711.449489 352.14762 
L 737.901004 351.999381 
L 764.352519 351.823914 
L 790.804034 351.701183 
L 817.255549 351.520884 
L 843.707064 351.299157 
L 870.15858 350.402464 
L 896.610095 339.947492 
L 923.06161 235.792563 
L 949.513125 137.903 
" clip-path="url(#p0a82508bad)" style="fill: none; stroke: #f0ad4e; stroke-linecap: square"/>
   </g>
   <g id="line2d_10">
    <path d="M 76.613125 338.199721 
L 103.06464 353.213485 
L 129.516155 353.210133 
L 155.96767 353.204171 
L 182.419186 353.196617 
L 208.870701 353.189225 
L 235.322216 353.182679 
L 261.773731 353.173335 
L 288.225246 353.158625 
L 314.676761 353.14362 
L 341.128277 353.122279 
L 367.579792 353.105293 
L 394.031307 353.086793 
L 420.482822 353.057707 
L 446.934337 353.020914 
L 473.385852 352.969238 
L 499.837367 352.922561 
L 526.288883 352.874862 
L 552.740398 352.816315 
L 579.191913 352.731341 
L 605.643428 352.630477 
L 632.094943 352.513364 
L 658.546458 352.395023 
L 684.997973 352.272248 
L 711.449489 352.112302 
L 737.901004 351.884269 
L 764.352519 351.616887 
L 790.804034 351.387169 
L 817.255549 351.103307 
L 843.707064 350.782864 
L 870.15858 349.684806 
L 896.610095 336.602342 
L 923.06161 205.318926 
L 949.513125 88.028126 
" clip-path="url(#p0a82508bad)" style="fill: none; stroke: #f0ad4e; stroke-linecap: square"/>
   </g>
   <g id="line2d_11">
    <path d="M 76.613125 347.729119 
L 103.06464 353.215948 
L 129.516155 353.213097 
L 155.96767 353.208855 
L 182.419186 353.202899 
L 208.870701 353.195541 
L 235.322216 353.190945 
L 261.773731 353.180958 
L 288.225246 353.168681 
L 314.676761 353.155047 
L 341.128277 353.13784 
L 367.579792 353.122859 
L 394.031307 353.102826 
L 420.482822 353.073194 
L 446.934337 353.040401 
L 473.385852 352.994786 
L 499.837367 352.947455 
L 526.288883 352.899549 
L 552.740398 352.841037 
L 579.191913 352.753684 
L 605.643428 352.648933 
L 632.094943 352.53009 
L 658.546458 352.40849 
L 684.997973 352.275472 
L 711.449489 352.105804 
L 737.901004 351.866929 
L 764.352519 351.574653 
L 790.804034 351.305984 
L 817.255549 351.005633 
L 843.707064 350.65081 
L 870.15858 349.42145 
L 896.610095 334.825135 
L 923.06161 190.092415 
L 949.513125 61.728278 
" clip-path="url(#p0a82508bad)" style="fill: none; stroke: #f0ad4e; stroke-linecap: square"/>
   </g>
   <g id="line2d_12">
    <path d="M 76.613125 348.606202 
L 103.06464 353.220759 
L 129.516155 353.219359 
L 155.96767 353.217452 
L 182.419186 353.215196 
L 208.870701 353.212094 
L 235.322216 353.210217 
L 261.773731 353.20658 
L 288.225246 353.201355 
L 314.676761 353.194946 
L 341.128277 353.187593 
L 367.579792 353.1806 
L 394.031307 353.173365 
L 420.482822 353.162675 
L 446.934337 353.146185 
L 473.385852 353.127209 
L 499.837367 353.107814 
L 526.288883 353.085304 
L 552.740398 353.062912 
L 579.191913 353.027131 
L 605.643428 352.981963 
L 632.094943 352.922989 
L 658.546458 352.873682 
L 684.997973 352.81919 
L 711.449489 352.736025 
L 737.901004 352.62338 
L 764.352519 352.498639 
L 790.804034 352.387704 
L 817.255549 352.249733 
L 843.707064 352.092549 
L 870.15858 351.527273 
L 896.610095 345.086197 
L 923.06161 280.854154 
L 949.513125 218.625084 
" clip-path="url(#p0a82508bad)" style="fill: none; stroke: #f0ad4e; stroke-linecap: square"/>
   </g>
   <g id="line2d_13">
    <path d="M 76.613125 339.028166 
L 103.06464 353.217004 
L 129.516155 353.214444 
L 155.96767 353.209765 
L 182.419186 353.205656 
L 208.870701 353.199719 
L 235.322216 353.195113 
L 261.773731 353.186758 
L 288.225246 353.176102 
L 314.676761 353.163078 
L 341.128277 353.148323 
L 367.579792 353.13491 
L 394.031307 353.116995 
L 420.482822 353.091266 
L 446.934337 353.061334 
L 473.385852 353.018746 
L 499.837367 352.973214 
L 526.288883 352.928523 
L 552.740398 352.872626 
L 579.191913 352.793731 
L 605.643428 352.693452 
L 632.094943 352.564047 
L 658.546458 352.442466 
L 684.997973 352.299172 
L 711.449489 352.123168 
L 737.901004 351.879629 
L 764.352519 351.570382 
L 790.804034 351.274828 
L 817.255549 350.97953 
L 843.707064 350.625837 
L 870.15858 349.548083 
L 896.610095 337.858119 
L 923.06161 220.985697 
L 949.513125 117.467727 
" clip-path="url(#p0a82508bad)" style="fill: none; stroke: #f0ad4e; stroke-linecap: square"/>
   </g>
   <g id="line2d_14">
    <path d="M 76.613125 336.384699 
L 103.06464 353.212787 
L 129.516155 353.208634 
L 155.96767 353.201449 
L 182.419186 353.194489 
L 208.870701 353.185421 
L 235.322216 353.1791 
L 261.773731 353.169556 
L 288.225246 353.147969 
L 314.676761 353.129578 
L 341.128277 353.11096 
L 367.579792 353.093124 
L 394.031307 353.068829 
L 420.482822 353.036002 
L 446.934337 352.991041 
L 473.385852 352.936854 
L 499.837367 352.873545 
L 526.288883 352.816772 
L 552.740398 352.741756 
L 579.191913 352.635746 
L 605.643428 352.496791 
L 632.094943 352.3423 
L 658.546458 352.192631 
L 684.997973 352.019744 
L 711.449489 351.779935 
L 737.901004 351.472442 
L 764.352519 351.116848 
L 790.804034 350.792817 
L 817.255549 350.41362 
L 843.707064 349.955058 
L 870.15858 348.755719 
L 896.610095 336.653491 
L 923.06161 214.719047 
L 949.513125 116.478431 
" clip-path="url(#p0a82508bad)" style="fill: none; stroke: #f0ad4e; stroke-linecap: square"/>
   </g>
   <g id="line2d_15">
    <path d="M 76.613125 345.815528 
L 103.06464 353.212601 
L 129.516155 353.208275 
L 155.96767 353.202156 
L 182.419186 353.19182 
L 208.870701 353.18291 
L 235.322216 353.173109 
L 261.773731 353.159677 
L 288.225246 353.139629 
L 314.676761 353.119119 
L 341.128277 353.093006 
L 367.579792 353.070599 
L 394.031307 353.043788 
L 420.482822 353.003938 
L 446.934337 352.955575 
L 473.385852 352.896104 
L 499.837367 352.828268 
L 526.288883 352.767127 
L 552.740398 352.69326 
L 579.191913 352.586656 
L 605.643428 352.449687 
L 632.094943 352.279173 
L 658.546458 352.117634 
L 684.997973 351.953451 
L 711.449489 351.738561 
L 737.901004 351.435792 
L 764.352519 351.052836 
L 790.804034 350.69152 
L 817.255549 350.327373 
L 843.707064 349.913507 
L 870.15858 348.635991 
L 896.610095 334.956368 
L 923.06161 199.839052 
L 949.513125 81.040727 
" clip-path="url(#p0a82508bad)" style="fill: none; stroke: #f0ad4e; stroke-linecap: square"/>
   </g>
   <g id="line2d_16">
    <path d="M 76.613125 339.564168 
L 103.06464 353.213711 
L 129.516155 353.210821 
L 155.96767 353.204855 
L 182.419186 353.197458 
L 208.870701 353.190827 
L 235.322216 353.189004 
L 261.773731 353.183834 
L 288.225246 353.170573 
L 314.676761 353.157706 
L 341.128277 353.144485 
L 367.579792 353.138179 
L 394.031307 353.13406 
L 420.482822 353.117354 
L 446.934337 353.089993 
L 473.385852 353.059825 
L 499.837367 353.044879 
L 526.288883 353.036892 
L 552.740398 353.013192 
L 579.191913 352.964358 
L 605.643428 352.905644 
L 632.094943 352.869097 
L 658.546458 352.848189 
L 684.997973 352.81403 
L 711.449489 352.733749 
L 737.901004 352.619468 
L 764.352519 352.527952 
L 790.804034 352.489316 
L 817.255549 352.426753 
L 843.707064 352.297186 
L 870.15858 351.239696 
L 896.610095 345.571993 
L 923.06161 283.246562 
L 949.513125 220.819809 
" clip-path="url(#p0a82508bad)" style="fill: none; stroke: #f0ad4e; stroke-linecap: square"/>
   </g>
   <g id="line2d_17">
    <path d="M 76.613125 337.564462 
L 103.06464 353.19933 
L 129.516155 353.189127 
L 155.96767 353.176152 
L 182.419186 353.157701 
L 208.870701 353.137122 
L 235.322216 353.119591 
L 261.773731 353.10087 
L 288.225246 353.069414 
L 314.676761 353.033457 
L 341.128277 352.996128 
L 367.579792 352.960612 
L 394.031307 352.931256 
L 420.482822 352.885159 
L 446.934337 352.821589 
L 473.385852 352.753532 
L 499.837367 352.673723 
L 526.288883 352.6095 
L 552.740398 352.548064 
L 579.191913 352.447362 
L 605.643428 352.312826 
L 632.094943 352.164901 
L 658.546458 352.031775 
L 684.997973 351.904336 
L 711.449489 351.746848 
L 737.901004 351.516692 
L 764.352519 351.237706 
L 790.804034 350.968825 
L 817.255549 350.720282 
L 843.707064 350.44169 
L 870.15858 349.084556 
L 896.610095 336.619745 
L 923.06161 207.249464 
L 949.513125 93.091815 
" clip-path="url(#p0a82508bad)" style="fill: none; stroke: #f0ad4e; stroke-linecap: square"/>
   </g>
   <g id="line2d_18">
    <path d="M 76.613125 349.120499 
L 103.06464 353.219024 
L 129.516155 353.217417 
L 155.96767 353.214945 
L 182.419186 353.210703 
L 208.870701 353.206934 
L 235.322216 353.203061 
L 261.773731 353.197669 
L 288.225246 353.190611 
L 314.676761 353.182059 
L 341.128277 353.171202 
L 367.579792 353.163004 
L 394.031307 353.152442 
L 420.482822 353.139009 
L 446.934337 353.120357 
L 473.385852 353.097778 
L 499.837367 353.070584 
L 526.288883 353.048481 
L 552.740398 353.021931 
L 579.191913 352.985182 
L 605.643428 352.935384 
L 632.094943 352.87465 
L 658.546458 352.811553 
L 684.997973 352.758589 
L 711.449489 352.685819 
L 737.901004 352.575882 
L 764.352519 352.435866 
L 790.804034 352.300735 
L 817.255549 352.162601 
L 843.707064 351.997553 
L 870.15858 351.092661 
L 896.610095 340.929558 
L 923.06161 239.163099 
L 949.513125 143.682631 
" clip-path="url(#p0a82508bad)" style="fill: none; stroke: #f0ad4e; stroke-linecap: square"/>
   </g>
   <g id="line2d_19">
    <path d="M 76.613125 341.409781 
L 103.06464 353.211588 
L 129.516155 353.207332 
L 155.96767 353.201006 
L 182.419186 353.192317 
L 208.870701 353.182354 
L 235.322216 353.172942 
L 261.773731 353.16239 
L 288.225246 353.145546 
L 314.676761 353.12655 
L 341.128277 353.104413 
L 367.579792 353.085717 
L 394.031307 353.065045 
L 420.482822 353.034872 
L 446.934337 352.994398 
L 473.385852 352.947416 
L 499.837367 352.897294 
L 526.288883 352.853713 
L 552.740398 352.804161 
L 579.191913 352.7242 
L 605.643428 352.627179 
L 632.094943 352.519002 
L 658.546458 352.419342 
L 684.997973 352.330465 
L 711.449489 352.20278 
L 737.901004 352.022236 
L 764.352519 351.799791 
L 790.804034 351.607441 
L 817.255549 351.41248 
L 843.707064 351.181464 
L 870.15858 350.186512 
L 896.610095 337.738574 
L 923.06161 213.148606 
L 949.513125 100.409448 
" clip-path="url(#p0a82508bad)" style="fill: none; stroke: #f0ad4e; stroke-linecap: square"/>
   </g>
   <g id="line2d_20">
    <path d="M 76.613125 329.652158 
L 103.06464 353.209524 
L 129.516155 353.20338 
L 155.96767 353.196642 
L 182.419186 353.185102 
L 208.870701 353.171989 
L 235.322216 353.161559 
L 261.773731 353.148048 
L 288.225246 353.123709 
L 314.676761 353.101587 
L 341.128277 353.074128 
L 367.579792 353.047779 
L 394.031307 353.021012 
L 420.482822 352.986342 
L 446.934337 352.93507 
L 473.385852 352.877644 
L 499.837367 352.810496 
L 526.288883 352.760206 
L 552.740398 352.698863 
L 579.191913 352.609151 
L 605.643428 352.498595 
L 632.094943 352.356367 
L 658.546458 352.235558 
L 684.997973 352.127002 
L 711.449489 351.981044 
L 737.901004 351.762251 
L 764.352519 351.487374 
L 790.804034 351.24784 
L 817.255549 351.010966 
L 843.707064 350.743171 
L 870.15858 349.664458 
L 896.610095 336.213743 
L 923.06161 200.071789 
L 949.513125 77.691743 
" clip-path="url(#p0a82508bad)" style="fill: none; stroke: #f0ad4e; stroke-linecap: square"/>
   </g>
   <g id="line2d_21">
    <path d="M 76.613125 349.548663 
L 103.06464 353.211701 
L 129.516155 353.206983 
L 155.96767 353.201223 
L 182.419186 353.193408 
L 208.870701 353.184192 
L 235.322216 353.176663 
L 261.773731 353.166459 
L 288.225246 353.151965 
L 314.676761 353.134817 
L 341.128277 353.11792 
L 367.579792 353.103062 
L 394.031307 353.087973 
L 420.482822 353.061349 
L 446.934337 353.029869 
L 473.385852 352.994653 
L 499.837367 352.960195 
L 526.288883 352.926729 
L 552.740398 352.890855 
L 579.191913 352.834392 
L 605.643428 352.75391 
L 632.094943 352.683588 
L 658.546458 352.616239 
L 684.997973 352.544672 
L 711.449489 352.434372 
L 737.901004 352.297879 
L 764.352519 352.145364 
L 790.804034 352.011388 
L 817.255549 351.852042 
L 843.707064 351.641752 
L 870.15858 350.544107 
L 896.610095 337.379307 
L 923.06161 205.597509 
L 949.513125 64.722189 
" clip-path="url(#p0a82508bad)" style="fill: none; stroke: #f0ad4e; stroke-linecap: square"/>
   </g>
   <g id="line2d_22">
    <path d="M 76.613125 343.188177 
L 103.06464 353.203243 
L 129.516155 353.197158 
L 155.96767 353.186787 
L 182.419186 353.171659 
L 208.870701 353.159288 
L 235.322216 353.15024 
L 261.773731 353.135918 
L 288.225246 353.113722 
L 314.676761 353.090715 
L 341.128277 353.069945 
L 367.579792 353.055436 
L 394.031307 353.044495 
L 420.482822 353.018274 
L 446.934337 352.978655 
L 473.385852 352.94286 
L 499.837367 352.907718 
L 526.288883 352.888579 
L 552.740398 352.856839 
L 579.191913 352.807798 
L 605.643428 352.732506 
L 632.094943 352.667285 
L 658.546458 352.617851 
L 684.997973 352.559481 
L 711.449489 352.466122 
L 737.901004 352.337066 
L 764.352519 352.191422 
L 790.804034 352.077229 
L 817.255549 351.946452 
L 843.707064 351.771747 
L 870.15858 350.807335 
L 896.610095 339.690511 
L 923.06161 227.642248 
L 949.513125 121.139784 
" clip-path="url(#p0a82508bad)" style="fill: none; stroke: #f0ad4e; stroke-linecap: square"/>
   </g>
   <g id="line2d_23">
    <path d="M 76.613125 342.949326 
L 103.06464 353.19994 
L 129.516155 353.192184 
L 155.96767 353.177523 
L 182.419186 353.157553 
L 208.870701 353.137746 
L 235.322216 353.122594 
L 261.773731 353.098889 
L 288.225246 353.069139 
L 314.676761 353.035246 
L 341.128277 352.996752 
L 367.579792 352.968039 
L 394.031307 352.931855 
L 420.482822 352.890403 
L 446.934337 352.837636 
L 473.385852 352.776013 
L 499.837367 352.717982 
L 526.288883 352.663314 
L 552.740398 352.600855 
L 579.191913 352.514893 
L 605.643428 352.406411 
L 632.094943 352.291116 
L 658.546458 352.173832 
L 684.997973 352.047238 
L 711.449489 351.896979 
L 737.901004 351.699895 
L 764.352519 351.447647 
L 790.804034 351.236968 
L 817.255549 350.953746 
L 843.707064 350.636321 
L 870.15858 349.547473 
L 896.610095 335.224025 
L 923.06161 186.344476 
L 949.513125 50.397084 
" clip-path="url(#p0a82508bad)" style="fill: none; stroke: #f0ad4e; stroke-linecap: square"/>
   </g>
   <g id="line2d_24">
    <path d="M 32.968125 353.2239 
L 993.158125 353.2239 
" clip-path="url(#p0a82508bad)" style="fill: none; stroke: #dedede; stroke-width: 2; stroke-linecap: square"/>
   </g>
   <g id="text_18">
    <!-- FastQC: Sequence Length Distribution -->
    <g transform="translate(361.050625 19.3575) scale(0.16 -0.16)">
     <defs>
      <path id="DejaVuSans-46" d="M 628 4666 
L 3309 4666 
L 3309 4134 
L 1259 4134 
L 1259 2759 
L 3109 2759 
L 3109 2228 
L 1259 2228 
L 1259 0 
L 628 0 
L 628 4666 
z
" transform="scale(0.015625)"/>
      <path id="DejaVuSans-73" d="M 2834 3397 
L 2834 2853 
Q 2591 2978 2328 3040 
Q 2066 3103 1784 3103 
Q 1356 3103 1142 2972 
Q 928 2841 928 2578 
Q 928 2378 1081 2264 
Q 1234 2150 1697 2047 
L 1894 2003 
Q 2506 1872 2764 1633 
Q 3022 1394 3022 966 
Q 3022 478 2636 193 
Q 2250 -91 1575 -91 
Q 1294 -91 989 -36 
Q 684 19 347 128 
L 347 722 
Q 666 556 975 473 
Q 1284 391 1588 391 
Q 1994 391 2212 530 
Q 2431 669 2431 922 
Q 2431 1156 2273 1281 
Q 2116 1406 1581 1522 
L 1381 1569 
Q 847 1681 609 1914 
Q 372 2147 372 2553 
Q 372 3047 722 3315 
Q 1072 3584 1716 3584 
Q 2034 3584 2315 3537 
Q 2597 3491 2834 3397 
z
" transform="scale(0.015625)"/>
      <path id="DejaVuSans-51" d="M 2522 4238 
Q 1834 4238 1429 3725 
Q 1025 3213 1025 2328 
Q 1025 1447 1429 934 
Q 1834 422 2522 422 
Q 3209 422 3611 934 
Q 4013 1447 4013 2328 
Q 4013 3213 3611 3725 
Q 3209 4238 2522 4238 
z
M 3406 84 
L 4238 -825 
L 3475 -825 
L 2784 -78 
Q 2681 -84 2626 -87 
Q 2572 -91 2522 -91 
Q 1538 -91 948 567 
Q 359 1225 359 2328 
Q 359 3434 948 4092 
Q 1538 4750 2522 4750 
Q 3503 4750 4090 4092 
Q 4678 3434 4678 2328 
Q 4678 1516 4351 937 
Q 4025 359 3406 84 
z
" transform="scale(0.015625)"/>
      <path id="DejaVuSans-3a" d="M 750 794 
L 1409 794 
L 1409 0 
L 750 0 
L 750 794 
z
M 750 3309 
L 1409 3309 
L 1409 2516 
L 750 2516 
L 750 3309 
z
" transform="scale(0.015625)"/>
      <path id="DejaVuSans-44" d="M 1259 4147 
L 1259 519 
L 2022 519 
Q 2988 519 3436 956 
Q 3884 1394 3884 2338 
Q 3884 3275 3436 3711 
Q 2988 4147 2022 4147 
L 1259 4147 
z
M 628 4666 
L 1925 4666 
Q 3281 4666 3915 4102 
Q 4550 3538 4550 2338 
Q 4550 1131 3912 565 
Q 3275 0 1925 0 
L 628 0 
L 628 4666 
z
" transform="scale(0.015625)"/>
      <path id="DejaVuSans-69" d="M 603 3500 
L 1178 3500 
L 1178 0 
L 603 0 
L 603 3500 
z
M 603 4863 
L 1178 4863 
L 1178 4134 
L 603 4134 
L 603 4863 
z
" transform="scale(0.015625)"/>
      <path id="DejaVuSans-72" d="M 2631 2963 
Q 2534 3019 2420 3045 
Q 2306 3072 2169 3072 
Q 1681 3072 1420 2755 
Q 1159 2438 1159 1844 
L 1159 0 
L 581 0 
L 581 3500 
L 1159 3500 
L 1159 2956 
Q 1341 3275 1631 3429 
Q 1922 3584 2338 3584 
Q 2397 3584 2469 3576 
Q 2541 3569 2628 3553 
L 2631 2963 
z
" transform="scale(0.015625)"/>
     </defs>
     <use xlink:href="#DejaVuSans-46"/>
     <use xlink:href="#DejaVuSans-61" x="48.394531"/>
     <use xlink:href="#DejaVuSans-73" x="109.673828"/>
     <use xlink:href="#DejaVuSans-74" x="161.773438"/>
     <use xlink:href="#DejaVuSans-51" x="200.982422"/>
     <use xlink:href="#DejaVuSans-43" x="279.693359"/>
     <use xlink:href="#DejaVuSans-3a" x="349.517578"/>
     <use xlink:href="#DejaVuSans-20" x="383.208984"/>
     <use xlink:href="#DejaVuSans-53" x="414.996094"/>
     <use xlink:href="#DejaVuSans-65" x="478.472656"/>
     <use xlink:href="#DejaVuSans-71" x="539.996094"/>
     <use xlink:href="#DejaVuSans-75" x="603.472656"/>
     <use xlink:href="#DejaVuSans-65" x="666.851562"/>
     <use xlink:href="#DejaVuSans-6e" x="728.375"/>
     <use xlink:href="#DejaVuSans-63" x="791.753906"/>
     <use xlink:href="#DejaVuSans-65" x="846.734375"/>
     <use xlink:href="#DejaVuSans-20" x="908.257812"/>
     <use xlink:href="#DejaVuSans-4c" x="940.044922"/>
     <use xlink:href="#DejaVuSans-65" x="994.007812"/>
     <use xlink:href="#DejaVuSans-6e" x="1055.53125"/>
     <use xlink:href="#DejaVuSans-67" x="1118.910156"/>
     <use xlink:href="#DejaVuSans-74" x="1182.386719"/>
     <use xlink:href="#DejaVuSans-68" x="1221.595703"/>
     <use xlink:href="#DejaVuSans-20" x="1284.974609"/>
     <use xlink:href="#DejaVuSans-44" x="1316.761719"/>
     <use xlink:href="#DejaVuSans-69" x="1393.763672"/>
     <use xlink:href="#DejaVuSans-73" x="1421.546875"/>
     <use xlink:href="#DejaVuSans-74" x="1473.646484"/>
     <use xlink:href="#DejaVuSans-72" x="1512.855469"/>
     <use xlink:href="#DejaVuSans-69" x="1553.96875"/>
     <use xlink:href="#DejaVuSans-62" x="1581.751953"/>
     <use xlink:href="#DejaVuSans-75" x="1645.228516"/>
     <use xlink:href="#DejaVuSans-74" x="1708.607422"/>
     <use xlink:href="#DejaVuSans-69" x="1747.816406"/>
     <use xlink:href="#DejaVuSans-6f" x="1775.599609"/>
     <use xlink:href="#DejaVuSans-6e" x="1836.78125"/>
    </g>
   </g>
  </g>
 </g>
 <defs>
  <clipPath id="p0a82508bad">
   <rect x="32.968125" y="35.2559" width="960.19" height="317.968"/>
  </clipPath>
 </defs>
</svg>
