<?xml version="1.0" encoding="utf-8" standalone="no"?>
<!DOCTYPE svg PUBLIC "-//W3C//DTD SVG 1.1//EN"
  "http://www.w3.org/Graphics/SVG/1.1/DTD/svg11.dtd">
<svg xmlns:xlink="http://www.w3.org/1999/xlink" width="1000.280625pt" height="388.844525pt" viewBox="0 0 1000.280625 388.844525" xmlns="http://www.w3.org/2000/svg" version="1.1">
 <metadata>
  <rdf:RDF xmlns:dc="http://purl.org/dc/elements/1.1/" xmlns:cc="http://creativecommons.org/ns#" xmlns:rdf="http://www.w3.org/1999/02/22-rdf-syntax-ns#">
   <cc:Work>
    <dc:type rdf:resource="http://purl.org/dc/dcmitype/StillImage"/>
    <dc:date>2024-09-05T13:39:14.890284</dc:date>
    <dc:format>image/svg+xml</dc:format>
    <dc:creator>
     <cc:Agent>
      <dc:title>Matplotlib v3.8.2, https://matplotlib.org/</dc:title>
     </cc:Agent>
    </dc:creator>
   </cc:Work>
  </rdf:RDF>
 </metadata>
 <defs>
  <style type="text/css">*{stroke-linejoin: round; stroke-linecap: butt}</style>
 </defs>
 <g id="figure_1">
  <g id="axes_1">
   <g id="patch_1">
    <path d="M 40.600625 353.2239 
L 985.445625 353.2239 
L 985.445625 35.2559 
L 40.600625 35.2559 
z
" style="fill: #ffffff"/>
   </g>
   <g id="matplotlib.axis_1">
    <g id="xtick_1">
     <g id="text_1">
      <!-- 0 -->
      <g transform="translate(38.055625 366.30265) scale(0.08 -0.08)">
       <defs>
        <path id="DejaVuSans-30" d="M 2034 4250 
Q 1547 4250 1301 3770 
Q 1056 3291 1056 2328 
Q 1056 1369 1301 889 
Q 1547 409 2034 409 
Q 2525 409 2770 889 
Q 3016 1369 3016 2328 
Q 3016 3291 2770 3770 
Q 2525 4250 2034 4250 
z
M 2034 4750 
Q 2819 4750 3233 4129 
Q 3647 3509 3647 2328 
Q 3647 1150 3233 529 
Q 2819 -91 2034 -91 
Q 1250 -91 836 529 
Q 422 1150 422 2328 
Q 422 3509 836 4129 
Q 1250 4750 2034 4750 
z
" transform="scale(0.015625)"/>
       </defs>
       <use xlink:href="#DejaVuSans-30"/>
      </g>
     </g>
    </g>
    <g id="xtick_2">
     <g id="text_2">
      <!-- 20 -->
      <g transform="translate(224.479625 366.30265) scale(0.08 -0.08)">
       <defs>
        <path id="DejaVuSans-32" d="M 1228 531 
L 3431 531 
L 3431 0 
L 469 0 
L 469 531 
Q 828 903 1448 1529 
Q 2069 2156 2228 2338 
Q 2531 2678 2651 2914 
Q 2772 3150 2772 3378 
Q 2772 3750 2511 3984 
Q 2250 4219 1831 4219 
Q 1534 4219 1204 4116 
Q 875 4013 500 3803 
L 500 4441 
Q 881 4594 1212 4672 
Q 1544 4750 1819 4750 
Q 2544 4750 2975 4387 
Q 3406 4025 3406 3419 
Q 3406 3131 3298 2873 
Q 3191 2616 2906 2266 
Q 2828 2175 2409 1742 
Q 1991 1309 1228 531 
z
" transform="scale(0.015625)"/>
       </defs>
       <use xlink:href="#DejaVuSans-32"/>
       <use xlink:href="#DejaVuSans-30" x="63.623047"/>
      </g>
     </g>
    </g>
    <g id="xtick_3">
     <g id="text_3">
      <!-- 40 -->
      <g transform="translate(413.448625 366.30265) scale(0.08 -0.08)">
       <defs>
        <path id="DejaVuSans-34" d="M 2419 4116 
L 825 1625 
L 2419 1625 
L 2419 4116 
z
M 2253 4666 
L 3047 4666 
L 3047 1625 
L 3713 1625 
L 3713 1100 
L 3047 1100 
L 3047 0 
L 2419 0 
L 2419 1100 
L 313 1100 
L 313 1709 
L 2253 4666 
z
" transform="scale(0.015625)"/>
       </defs>
       <use xlink:href="#DejaVuSans-34"/>
       <use xlink:href="#DejaVuSans-30" x="63.623047"/>
      </g>
     </g>
    </g>
    <g id="xtick_4">
     <g id="text_4">
      <!-- 60 -->
      <g transform="translate(602.417625 366.30265) scale(0.08 -0.08)">
       <defs>
        <path id="DejaVuSans-36" d="M 2113 2584 
Q 1688 2584 1439 2293 
Q 1191 2003 1191 1497 
Q 1191 994 1439 701 
Q 1688 409 2113 409 
Q 2538 409 2786 701 
Q 3034 994 3034 1497 
Q 3034 2003 2786 2293 
Q 2538 2584 2113 2584 
z
M 3366 4563 
L 3366 3988 
Q 3128 4100 2886 4159 
Q 2644 4219 2406 4219 
Q 1781 4219 1451 3797 
Q 1122 3375 1075 2522 
Q 1259 2794 1537 2939 
Q 1816 3084 2150 3084 
Q 2853 3084 3261 2657 
Q 3669 2231 3669 1497 
Q 3669 778 3244 343 
Q 2819 -91 2113 -91 
Q 1303 -91 875 529 
Q 447 1150 447 2328 
Q 447 3434 972 4092 
Q 1497 4750 2381 4750 
Q 2619 4750 2861 4703 
Q 3103 4656 3366 4563 
z
" transform="scale(0.015625)"/>
       </defs>
       <use xlink:href="#DejaVuSans-36"/>
       <use xlink:href="#DejaVuSans-30" x="63.623047"/>
      </g>
     </g>
    </g>
    <g id="xtick_5">
     <g id="text_5">
      <!-- 80 -->
      <g transform="translate(791.386625 366.30265) scale(0.08 -0.08)">
       <defs>
        <path id="DejaVuSans-38" d="M 2034 2216 
Q 1584 2216 1326 1975 
Q 1069 1734 1069 1313 
Q 1069 891 1326 650 
Q 1584 409 2034 409 
Q 2484 409 2743 651 
Q 3003 894 3003 1313 
Q 3003 1734 2745 1975 
Q 2488 2216 2034 2216 
z
M 1403 2484 
Q 997 2584 770 2862 
Q 544 3141 544 3541 
Q 544 4100 942 4425 
Q 1341 4750 2034 4750 
Q 2731 4750 3128 4425 
Q 3525 4100 3525 3541 
Q 3525 3141 3298 2862 
Q 3072 2584 2669 2484 
Q 3125 2378 3379 2068 
Q 3634 1759 3634 1313 
Q 3634 634 3220 271 
Q 2806 -91 2034 -91 
Q 1263 -91 848 271 
Q 434 634 434 1313 
Q 434 1759 690 2068 
Q 947 2378 1403 2484 
z
M 1172 3481 
Q 1172 3119 1398 2916 
Q 1625 2713 2034 2713 
Q 2441 2713 2670 2916 
Q 2900 3119 2900 3481 
Q 2900 3844 2670 4047 
Q 2441 4250 2034 4250 
Q 1625 4250 1398 4047 
Q 1172 3844 1172 3481 
z
" transform="scale(0.015625)"/>
       </defs>
       <use xlink:href="#DejaVuSans-38"/>
       <use xlink:href="#DejaVuSans-30" x="63.623047"/>
      </g>
     </g>
    </g>
    <g id="xtick_6">
     <g id="text_6">
      <!-- 100 -->
      <g transform="translate(977.810625 366.30265) scale(0.08 -0.08)">
       <defs>
        <path id="DejaVuSans-31" d="M 794 531 
L 1825 531 
L 1825 4091 
L 703 3866 
L 703 4441 
L 1819 4666 
L 2450 4666 
L 2450 531 
L 3481 531 
L 3481 0 
L 794 0 
L 794 531 
z
" transform="scale(0.015625)"/>
       </defs>
       <use xlink:href="#DejaVuSans-31"/>
       <use xlink:href="#DejaVuSans-30" x="63.623047"/>
       <use xlink:href="#DejaVuSans-30" x="127.246094"/>
      </g>
     </g>
    </g>
    <g id="text_7">
     <!-- % GC -->
     <g transform="translate(499.317656 379.564837) scale(0.1 -0.1)">
      <defs>
       <path id="DejaVuSans-25" d="M 4653 2053 
Q 4381 2053 4226 1822 
Q 4072 1591 4072 1178 
Q 4072 772 4226 539 
Q 4381 306 4653 306 
Q 4919 306 5073 539 
Q 5228 772 5228 1178 
Q 5228 1588 5073 1820 
Q 4919 2053 4653 2053 
z
M 4653 2450 
Q 5147 2450 5437 2106 
Q 5728 1763 5728 1178 
Q 5728 594 5436 251 
Q 5144 -91 4653 -91 
Q 4153 -91 3862 251 
Q 3572 594 3572 1178 
Q 3572 1766 3864 2108 
Q 4156 2450 4653 2450 
z
M 1428 4353 
Q 1159 4353 1004 4120 
Q 850 3888 850 3481 
Q 850 3069 1003 2837 
Q 1156 2606 1428 2606 
Q 1700 2606 1854 2837 
Q 2009 3069 2009 3481 
Q 2009 3884 1853 4118 
Q 1697 4353 1428 4353 
z
M 4250 4750 
L 4750 4750 
L 1831 -91 
L 1331 -91 
L 4250 4750 
z
M 1428 4750 
Q 1922 4750 2215 4408 
Q 2509 4066 2509 3481 
Q 2509 2891 2217 2550 
Q 1925 2209 1428 2209 
Q 931 2209 642 2551 
Q 353 2894 353 3481 
Q 353 4063 643 4406 
Q 934 4750 1428 4750 
z
" transform="scale(0.015625)"/>
       <path id="DejaVuSans-20" transform="scale(0.015625)"/>
       <path id="DejaVuSans-47" d="M 3809 666 
L 3809 1919 
L 2778 1919 
L 2778 2438 
L 4434 2438 
L 4434 434 
Q 4069 175 3628 42 
Q 3188 -91 2688 -91 
Q 1594 -91 976 548 
Q 359 1188 359 2328 
Q 359 3472 976 4111 
Q 1594 4750 2688 4750 
Q 3144 4750 3555 4637 
Q 3966 4525 4313 4306 
L 4313 3634 
Q 3963 3931 3569 4081 
Q 3175 4231 2741 4231 
Q 1884 4231 1454 3753 
Q 1025 3275 1025 2328 
Q 1025 1384 1454 906 
Q 1884 428 2741 428 
Q 3075 428 3337 486 
Q 3600 544 3809 666 
z
" transform="scale(0.015625)"/>
       <path id="DejaVuSans-43" d="M 4122 4306 
L 4122 3641 
Q 3803 3938 3442 4084 
Q 3081 4231 2675 4231 
Q 1875 4231 1450 3742 
Q 1025 3253 1025 2328 
Q 1025 1406 1450 917 
Q 1875 428 2675 428 
Q 3081 428 3442 575 
Q 3803 722 4122 1019 
L 4122 359 
Q 3791 134 3420 21 
Q 3050 -91 2638 -91 
Q 1578 -91 968 557 
Q 359 1206 359 2328 
Q 359 3453 968 4101 
Q 1578 4750 2638 4750 
Q 3056 4750 3426 4639 
Q 3797 4528 4122 4306 
z
" transform="scale(0.015625)"/>
      </defs>
      <use xlink:href="#DejaVuSans-25"/>
      <use xlink:href="#DejaVuSans-20" x="95.019531"/>
      <use xlink:href="#DejaVuSans-47" x="126.806641"/>
      <use xlink:href="#DejaVuSans-43" x="204.296875"/>
     </g>
    </g>
   </g>
   <g id="matplotlib.axis_2">
    <g id="ytick_1">
     <g id="line2d_1">
      <path d="M 40.600625 353.2239 
L 985.445625 353.2239 
" clip-path="url(#p908bcb4039)" style="fill: none; stroke: #dedede; stroke-linecap: square"/>
     </g>
     <g id="text_8">
      <!-- 0.0 -->
      <g transform="translate(20.878125 356.263275) scale(0.08 -0.08)">
       <defs>
        <path id="DejaVuSans-2e" d="M 684 794 
L 1344 794 
L 1344 0 
L 684 0 
L 684 794 
z
" transform="scale(0.015625)"/>
       </defs>
       <use xlink:href="#DejaVuSans-30"/>
       <use xlink:href="#DejaVuSans-2e" x="63.623047"/>
       <use xlink:href="#DejaVuSans-30" x="95.410156"/>
      </g>
     </g>
    </g>
    <g id="ytick_2">
     <g id="line2d_2">
      <path d="M 40.600625 314.427253 
L 985.445625 314.427253 
" clip-path="url(#p908bcb4039)" style="fill: none; stroke: #dedede; stroke-linecap: square"/>
     </g>
     <g id="text_9">
      <!-- 0.5 -->
      <g transform="translate(20.878125 317.466628) scale(0.08 -0.08)">
       <defs>
        <path id="DejaVuSans-35" d="M 691 4666 
L 3169 4666 
L 3169 4134 
L 1269 4134 
L 1269 2991 
Q 1406 3038 1543 3061 
Q 1681 3084 1819 3084 
Q 2600 3084 3056 2656 
Q 3513 2228 3513 1497 
Q 3513 744 3044 326 
Q 2575 -91 1722 -91 
Q 1428 -91 1123 -41 
Q 819 9 494 109 
L 494 744 
Q 775 591 1075 516 
Q 1375 441 1709 441 
Q 2250 441 2565 725 
Q 2881 1009 2881 1497 
Q 2881 1984 2565 2268 
Q 2250 2553 1709 2553 
Q 1456 2553 1204 2497 
Q 953 2441 691 2322 
L 691 4666 
z
" transform="scale(0.015625)"/>
       </defs>
       <use xlink:href="#DejaVuSans-30"/>
       <use xlink:href="#DejaVuSans-2e" x="63.623047"/>
       <use xlink:href="#DejaVuSans-35" x="95.410156"/>
      </g>
     </g>
    </g>
    <g id="ytick_3">
     <g id="line2d_3">
      <path d="M 40.600625 275.630606 
L 985.445625 275.630606 
" clip-path="url(#p908bcb4039)" style="fill: none; stroke: #dedede; stroke-linecap: square"/>
     </g>
     <g id="text_10">
      <!-- 1.0 -->
      <g transform="translate(20.878125 278.669981) scale(0.08 -0.08)">
       <use xlink:href="#DejaVuSans-31"/>
       <use xlink:href="#DejaVuSans-2e" x="63.623047"/>
       <use xlink:href="#DejaVuSans-30" x="95.410156"/>
      </g>
     </g>
    </g>
    <g id="ytick_4">
     <g id="line2d_4">
      <path d="M 40.600625 236.833959 
L 985.445625 236.833959 
" clip-path="url(#p908bcb4039)" style="fill: none; stroke: #dedede; stroke-linecap: square"/>
     </g>
     <g id="text_11">
      <!-- 1.5 -->
      <g transform="translate(20.878125 239.873334) scale(0.08 -0.08)">
       <use xlink:href="#DejaVuSans-31"/>
       <use xlink:href="#DejaVuSans-2e" x="63.623047"/>
       <use xlink:href="#DejaVuSans-35" x="95.410156"/>
      </g>
     </g>
    </g>
    <g id="ytick_5">
     <g id="line2d_5">
      <path d="M 40.600625 198.037312 
L 985.445625 198.037312 
" clip-path="url(#p908bcb4039)" style="fill: none; stroke: #dedede; stroke-linecap: square"/>
     </g>
     <g id="text_12">
      <!-- 2.0 -->
      <g transform="translate(20.878125 201.076687) scale(0.08 -0.08)">
       <use xlink:href="#DejaVuSans-32"/>
       <use xlink:href="#DejaVuSans-2e" x="63.623047"/>
       <use xlink:href="#DejaVuSans-30" x="95.410156"/>
      </g>
     </g>
    </g>
    <g id="ytick_6">
     <g id="line2d_6">
      <path d="M 40.600625 159.240665 
L 985.445625 159.240665 
" clip-path="url(#p908bcb4039)" style="fill: none; stroke: #dedede; stroke-linecap: square"/>
     </g>
     <g id="text_13">
      <!-- 2.5 -->
      <g transform="translate(20.878125 162.28004) scale(0.08 -0.08)">
       <use xlink:href="#DejaVuSans-32"/>
       <use xlink:href="#DejaVuSans-2e" x="63.623047"/>
       <use xlink:href="#DejaVuSans-35" x="95.410156"/>
      </g>
     </g>
    </g>
    <g id="ytick_7">
     <g id="line2d_7">
      <path d="M 40.600625 120.444018 
L 985.445625 120.444018 
" clip-path="url(#p908bcb4039)" style="fill: none; stroke: #dedede; stroke-linecap: square"/>
     </g>
     <g id="text_14">
      <!-- 3.0 -->
      <g transform="translate(20.878125 123.483393) scale(0.08 -0.08)">
       <defs>
        <path id="DejaVuSans-33" d="M 2597 2516 
Q 3050 2419 3304 2112 
Q 3559 1806 3559 1356 
Q 3559 666 3084 287 
Q 2609 -91 1734 -91 
Q 1441 -91 1130 -33 
Q 819 25 488 141 
L 488 750 
Q 750 597 1062 519 
Q 1375 441 1716 441 
Q 2309 441 2620 675 
Q 2931 909 2931 1356 
Q 2931 1769 2642 2001 
Q 2353 2234 1838 2234 
L 1294 2234 
L 1294 2753 
L 1863 2753 
Q 2328 2753 2575 2939 
Q 2822 3125 2822 3475 
Q 2822 3834 2567 4026 
Q 2313 4219 1838 4219 
Q 1578 4219 1281 4162 
Q 984 4106 628 3988 
L 628 4550 
Q 988 4650 1302 4700 
Q 1616 4750 1894 4750 
Q 2613 4750 3031 4423 
Q 3450 4097 3450 3541 
Q 3450 3153 3228 2886 
Q 3006 2619 2597 2516 
z
" transform="scale(0.015625)"/>
       </defs>
       <use xlink:href="#DejaVuSans-33"/>
       <use xlink:href="#DejaVuSans-2e" x="63.623047"/>
       <use xlink:href="#DejaVuSans-30" x="95.410156"/>
      </g>
     </g>
    </g>
    <g id="ytick_8">
     <g id="line2d_8">
      <path d="M 40.600625 81.647371 
L 985.445625 81.647371 
" clip-path="url(#p908bcb4039)" style="fill: none; stroke: #dedede; stroke-linecap: square"/>
     </g>
     <g id="text_15">
      <!-- 3.5 -->
      <g transform="translate(20.878125 84.686746) scale(0.08 -0.08)">
       <use xlink:href="#DejaVuSans-33"/>
       <use xlink:href="#DejaVuSans-2e" x="63.623047"/>
       <use xlink:href="#DejaVuSans-35" x="95.410156"/>
      </g>
     </g>
    </g>
    <g id="ytick_9">
     <g id="line2d_9">
      <path d="M 40.600625 42.850725 
L 985.445625 42.850725 
" clip-path="url(#p908bcb4039)" style="fill: none; stroke: #dedede; stroke-linecap: square"/>
     </g>
     <g id="text_16">
      <!-- 4.0 -->
      <g transform="translate(20.878125 45.8901) scale(0.08 -0.08)">
       <use xlink:href="#DejaVuSans-34"/>
       <use xlink:href="#DejaVuSans-2e" x="63.623047"/>
       <use xlink:href="#DejaVuSans-30" x="95.410156"/>
      </g>
     </g>
    </g>
    <g id="text_17">
     <!-- Percentage -->
     <g transform="translate(14.798438 222.362556) rotate(-90) scale(0.1 -0.1)">
      <defs>
       <path id="DejaVuSans-50" d="M 1259 4147 
L 1259 2394 
L 2053 2394 
Q 2494 2394 2734 2622 
Q 2975 2850 2975 3272 
Q 2975 3691 2734 3919 
Q 2494 4147 2053 4147 
L 1259 4147 
z
M 628 4666 
L 2053 4666 
Q 2838 4666 3239 4311 
Q 3641 3956 3641 3272 
Q 3641 2581 3239 2228 
Q 2838 1875 2053 1875 
L 1259 1875 
L 1259 0 
L 628 0 
L 628 4666 
z
" transform="scale(0.015625)"/>
       <path id="DejaVuSans-65" d="M 3597 1894 
L 3597 1613 
L 953 1613 
Q 991 1019 1311 708 
Q 1631 397 2203 397 
Q 2534 397 2845 478 
Q 3156 559 3463 722 
L 3463 178 
Q 3153 47 2828 -22 
Q 2503 -91 2169 -91 
Q 1331 -91 842 396 
Q 353 884 353 1716 
Q 353 2575 817 3079 
Q 1281 3584 2069 3584 
Q 2775 3584 3186 3129 
Q 3597 2675 3597 1894 
z
M 3022 2063 
Q 3016 2534 2758 2815 
Q 2500 3097 2075 3097 
Q 1594 3097 1305 2825 
Q 1016 2553 972 2059 
L 3022 2063 
z
" transform="scale(0.015625)"/>
       <path id="DejaVuSans-72" d="M 2631 2963 
Q 2534 3019 2420 3045 
Q 2306 3072 2169 3072 
Q 1681 3072 1420 2755 
Q 1159 2438 1159 1844 
L 1159 0 
L 581 0 
L 581 3500 
L 1159 3500 
L 1159 2956 
Q 1341 3275 1631 3429 
Q 1922 3584 2338 3584 
Q 2397 3584 2469 3576 
Q 2541 3569 2628 3553 
L 2631 2963 
z
" transform="scale(0.015625)"/>
       <path id="DejaVuSans-63" d="M 3122 3366 
L 3122 2828 
Q 2878 2963 2633 3030 
Q 2388 3097 2138 3097 
Q 1578 3097 1268 2742 
Q 959 2388 959 1747 
Q 959 1106 1268 751 
Q 1578 397 2138 397 
Q 2388 397 2633 464 
Q 2878 531 3122 666 
L 3122 134 
Q 2881 22 2623 -34 
Q 2366 -91 2075 -91 
Q 1284 -91 818 406 
Q 353 903 353 1747 
Q 353 2603 823 3093 
Q 1294 3584 2113 3584 
Q 2378 3584 2631 3529 
Q 2884 3475 3122 3366 
z
" transform="scale(0.015625)"/>
       <path id="DejaVuSans-6e" d="M 3513 2113 
L 3513 0 
L 2938 0 
L 2938 2094 
Q 2938 2591 2744 2837 
Q 2550 3084 2163 3084 
Q 1697 3084 1428 2787 
Q 1159 2491 1159 1978 
L 1159 0 
L 581 0 
L 581 3500 
L 1159 3500 
L 1159 2956 
Q 1366 3272 1645 3428 
Q 1925 3584 2291 3584 
Q 2894 3584 3203 3211 
Q 3513 2838 3513 2113 
z
" transform="scale(0.015625)"/>
       <path id="DejaVuSans-74" d="M 1172 4494 
L 1172 3500 
L 2356 3500 
L 2356 3053 
L 1172 3053 
L 1172 1153 
Q 1172 725 1289 603 
Q 1406 481 1766 481 
L 2356 481 
L 2356 0 
L 1766 0 
Q 1100 0 847 248 
Q 594 497 594 1153 
L 594 3053 
L 172 3053 
L 172 3500 
L 594 3500 
L 594 4494 
L 1172 4494 
z
" transform="scale(0.015625)"/>
       <path id="DejaVuSans-61" d="M 2194 1759 
Q 1497 1759 1228 1600 
Q 959 1441 959 1056 
Q 959 750 1161 570 
Q 1363 391 1709 391 
Q 2188 391 2477 730 
Q 2766 1069 2766 1631 
L 2766 1759 
L 2194 1759 
z
M 3341 1997 
L 3341 0 
L 2766 0 
L 2766 531 
Q 2569 213 2275 61 
Q 1981 -91 1556 -91 
Q 1019 -91 701 211 
Q 384 513 384 1019 
Q 384 1609 779 1909 
Q 1175 2209 1959 2209 
L 2766 2209 
L 2766 2266 
Q 2766 2663 2505 2880 
Q 2244 3097 1772 3097 
Q 1472 3097 1187 3025 
Q 903 2953 641 2809 
L 641 3341 
Q 956 3463 1253 3523 
Q 1550 3584 1831 3584 
Q 2591 3584 2966 3190 
Q 3341 2797 3341 1997 
z
" transform="scale(0.015625)"/>
       <path id="DejaVuSans-67" d="M 2906 1791 
Q 2906 2416 2648 2759 
Q 2391 3103 1925 3103 
Q 1463 3103 1205 2759 
Q 947 2416 947 1791 
Q 947 1169 1205 825 
Q 1463 481 1925 481 
Q 2391 481 2648 825 
Q 2906 1169 2906 1791 
z
M 3481 434 
Q 3481 -459 3084 -895 
Q 2688 -1331 1869 -1331 
Q 1566 -1331 1297 -1286 
Q 1028 -1241 775 -1147 
L 775 -588 
Q 1028 -725 1275 -790 
Q 1522 -856 1778 -856 
Q 2344 -856 2625 -561 
Q 2906 -266 2906 331 
L 2906 616 
Q 2728 306 2450 153 
Q 2172 0 1784 0 
Q 1141 0 747 490 
Q 353 981 353 1791 
Q 353 2603 747 3093 
Q 1141 3584 1784 3584 
Q 2172 3584 2450 3431 
Q 2728 3278 2906 2969 
L 2906 3500 
L 3481 3500 
L 3481 434 
z
" transform="scale(0.015625)"/>
      </defs>
      <use xlink:href="#DejaVuSans-50"/>
      <use xlink:href="#DejaVuSans-65" x="56.677734"/>
      <use xlink:href="#DejaVuSans-72" x="118.201172"/>
      <use xlink:href="#DejaVuSans-63" x="157.064453"/>
      <use xlink:href="#DejaVuSans-65" x="212.044922"/>
      <use xlink:href="#DejaVuSans-6e" x="273.568359"/>
      <use xlink:href="#DejaVuSans-74" x="336.947266"/>
      <use xlink:href="#DejaVuSans-61" x="376.15625"/>
      <use xlink:href="#DejaVuSans-67" x="437.435547"/>
      <use xlink:href="#DejaVuSans-65" x="500.912109"/>
     </g>
    </g>
   </g>
   <g id="line2d_10">
    <path d="M 40.600625 353.203606 
L 50.049075 353.200422 
L 59.497525 353.202419 
L 68.945975 353.210353 
L 78.394425 353.212674 
L 87.842875 353.211864 
L 97.291325 353.210784 
L 106.739775 353.210245 
L 116.188225 353.208302 
L 125.636675 353.203282 
L 135.085125 353.198263 
L 144.533575 353.193135 
L 153.982025 353.186173 
L 163.430475 353.177591 
L 172.878925 353.16399 
L 182.327375 353.138892 
L 191.775825 353.085242 
L 201.224275 353.00045 
L 210.672725 352.865247 
L 220.121175 352.607848 
L 229.569625 352.19506 
L 239.018075 351.548567 
L 248.466525 350.649857 
L 257.914975 349.509023 
L 267.363425 347.965385 
L 276.811875 345.815087 
L 286.260325 343.036593 
L 295.708775 339.464529 
L 305.157225 334.835559 
L 314.605675 329.02997 
L 324.054125 321.665469 
L 333.502575 312.537497 
L 342.951025 301.500002 
L 352.399475 288.197677 
L 361.847925 272.34522 
L 371.296375 254.073192 
L 380.744825 233.45926 
L 390.193275 211.476618 
L 399.641725 190.578894 
L 409.090175 171.908867 
L 418.538625 154.716575 
L 427.987075 139.48276 
L 437.435525 125.887846 
L 446.883975 115.052697 
L 456.332425 108.443229 
L 465.780875 102.681197 
L 475.229325 97.968784 
L 484.677775 96.428169 
L 494.126225 96.261553 
L 503.574675 94.280569 
L 513.023125 86.662232 
L 522.471575 71.741246 
L 531.920025 57.851584 
L 541.368475 58.791854 
L 550.816925 74.120445 
L 560.265375 93.930552 
L 569.713825 109.624652 
L 579.162275 120.28795 
L 588.610725 129.903247 
L 598.059175 138.545351 
L 607.507625 148.564207 
L 616.956075 161.355566 
L 626.404525 175.322519 
L 635.852975 190.322359 
L 645.301425 206.191656 
L 654.749875 222.55238 
L 664.198325 239.317851 
L 673.646775 254.729508 
L 683.095225 268.965355 
L 692.543675 282.744318 
L 701.992125 295.139621 
L 711.440575 305.564087 
L 720.889025 314.067102 
L 730.337475 321.469384 
L 739.785925 327.215332 
L 749.234375 331.191603 
L 758.682825 334.660793 
L 768.131275 337.750821 
L 777.579725 340.258261 
L 787.028175 342.445693 
L 796.476625 344.334058 
L 805.925075 345.890056 
L 815.373525 347.251587 
L 824.821975 348.528813 
L 834.270425 349.722649 
L 843.718875 350.62816 
L 853.167325 351.29133 
L 862.615775 351.897559 
L 872.064225 352.387907 
L 881.512675 352.706188 
L 890.961125 352.910477 
L 900.409575 353.057716 
L 909.858025 353.154544 
L 919.306475 353.188709 
L 928.754925 353.202904 
L 938.203375 353.208949 
L 947.651825 353.207114 
L 957.100275 353.197345 
L 966.548725 353.155948 
L 975.997175 353.169009 
L 985.445625 353.219474 
" clip-path="url(#p908bcb4039)" style="fill: none; stroke: #5cb85c; stroke-linecap: square"/>
   </g>
   <g id="line2d_11">
    <path d="M 40.600625 353.134271 
L 50.049075 353.119979 
L 59.497525 353.125696 
L 68.945975 353.15433 
L 78.394425 353.169336 
L 87.842875 353.177758 
L 97.291325 353.181586 
L 106.739775 353.184445 
L 116.188225 353.183118 
L 125.636675 353.176993 
L 135.085125 353.16954 
L 144.533575 353.163824 
L 153.982025 353.158107 
L 163.430475 353.14305 
L 172.878925 353.120847 
L 182.327375 353.091446 
L 191.775825 353.046479 
L 201.224275 352.989312 
L 210.672725 352.882175 
L 220.121175 352.676681 
L 229.569625 352.355168 
L 239.018075 351.899212 
L 248.466525 351.282269 
L 257.914975 350.485506 
L 267.363425 349.44997 
L 276.811875 347.987979 
L 286.260325 346.046093 
L 295.708775 343.671525 
L 305.157225 340.834978 
L 314.605675 337.490208 
L 324.054125 333.568257 
L 333.502575 329.0508 
L 342.951025 323.640265 
L 352.399475 316.914127 
L 361.847925 308.674855 
L 371.296375 298.469298 
L 380.744825 285.214554 
L 390.193275 268.41419 
L 399.641725 248.640946 
L 409.090175 226.917139 
L 418.538625 202.817489 
L 427.987075 175.964541 
L 437.435525 149.733843 
L 446.883975 127.066834 
L 456.332425 109.06122 
L 465.780875 93.336103 
L 475.229325 80.571105 
L 484.677775 74.144481 
L 494.126225 70.897506 
L 503.574675 67.480869 
L 513.023125 63.195296 
L 522.471575 60.060358 
L 531.920025 60.19761 
L 541.368475 63.768904 
L 550.816925 69.316996 
L 560.265375 76.850922 
L 569.713825 86.593938 
L 579.162275 95.363535 
L 588.610725 102.5197 
L 598.059175 110.676132 
L 607.507625 120.743467 
L 616.956075 133.726312 
L 626.404525 148.284153 
L 635.852975 164.5031 
L 645.301425 182.995602 
L 654.749875 201.919561 
L 664.198325 221.22613 
L 673.646775 238.655074 
L 683.095225 254.783472 
L 692.543675 270.699026 
L 701.992125 285.017737 
L 711.440575 297.220356 
L 720.889025 307.551118 
L 730.337475 316.277636 
L 739.785925 322.434709 
L 749.234375 326.986261 
L 758.682825 331.548072 
L 768.131275 335.170408 
L 777.579725 337.794774 
L 787.028175 340.33727 
L 796.476625 342.572748 
L 805.925075 344.495749 
L 815.373525 346.157109 
L 824.821975 347.584034 
L 834.270425 348.817511 
L 843.718875 349.786387 
L 853.167325 350.568705 
L 862.615775 351.238169 
L 872.064225 351.793963 
L 881.512675 352.195663 
L 890.961125 352.49048 
L 900.409575 352.799845 
L 909.858025 353.054594 
L 919.306475 353.148154 
L 928.754925 353.17199 
L 938.203375 353.163926 
L 947.651825 353.088435 
L 957.100275 352.805867 
L 966.548725 351.774312 
L 975.997175 351.950917 
L 985.445625 353.078022 
" clip-path="url(#p908bcb4039)" style="fill: none; stroke: #5cb85c; stroke-linecap: square"/>
   </g>
   <g id="line2d_12">
    <path d="M 40.600625 353.21891 
L 50.049075 353.218036 
L 59.497525 353.216082 
L 68.945975 353.215042 
L 78.394425 353.214585 
L 87.842875 353.213545 
L 97.291325 353.212298 
L 106.739775 353.210967 
L 116.188225 353.209387 
L 125.636675 353.206891 
L 135.085125 353.20161 
L 144.533575 353.195164 
L 153.982025 353.19034 
L 163.430475 353.182855 
L 172.878925 353.168383 
L 182.327375 353.140479 
L 191.775825 353.097729 
L 201.224275 353.040341 
L 210.672725 352.940494 
L 220.121175 352.758349 
L 229.569625 352.480349 
L 239.018075 352.06258 
L 248.466525 351.455056 
L 257.914975 350.723856 
L 267.363425 349.823611 
L 276.811875 348.50593 
L 286.260325 346.686102 
L 295.708775 344.498824 
L 305.157225 341.871154 
L 314.605675 338.712977 
L 324.054125 334.887184 
L 333.502575 330.494954 
L 342.951025 325.374476 
L 352.399475 318.862253 
L 361.847925 310.350803 
L 371.296375 299.585994 
L 380.744825 285.930154 
L 390.193275 268.285755 
L 399.641725 247.556619 
L 409.090175 225.140771 
L 418.538625 201.236116 
L 427.987075 176.481826 
L 437.435525 152.2674 
L 446.883975 130.796668 
L 456.332425 113.582306 
L 465.780875 98.590778 
L 475.229325 85.680152 
L 484.677775 77.689395 
L 494.126225 73.965279 
L 503.574675 70.864781 
L 513.023125 65.731328 
L 522.471575 62.131221 
L 531.920025 63.441833 
L 541.368475 65.879789 
L 550.816925 67.587336 
L 560.265375 71.722484 
L 569.713825 79.208974 
L 579.162275 88.068788 
L 588.610725 96.350104 
L 598.059175 104.660405 
L 607.507625 114.689689 
L 616.956075 127.410768 
L 626.404525 143.24112 
L 635.852975 161.793249 
L 645.301425 181.426646 
L 654.749875 201.285478 
L 664.198325 221.437739 
L 673.646775 239.272724 
L 683.095225 255.165829 
L 692.543675 270.8619 
L 701.992125 285.278216 
L 711.440575 297.068609 
L 720.889025 306.784712 
L 730.337475 315.640117 
L 739.785925 322.409381 
L 749.234375 327.117454 
L 758.682825 331.41096 
L 768.131275 335.040053 
L 777.579725 337.744365 
L 787.028175 340.18045 
L 796.476625 342.498348 
L 805.925075 344.498325 
L 815.373525 346.077954 
L 824.821975 347.545011 
L 834.270425 348.8587 
L 843.718875 349.778117 
L 853.167325 350.526616 
L 862.615775 351.250372 
L 872.064225 351.858312 
L 881.512675 352.318082 
L 890.961125 352.674055 
L 900.409575 352.940245 
L 909.858025 353.114571 
L 919.306475 353.176201 
L 928.754925 353.195705 
L 938.203375 353.198242 
L 947.651825 353.174621 
L 957.100275 353.098062 
L 966.548725 352.84152 
L 975.997175 352.91679 
L 985.445625 353.207349 
" clip-path="url(#p908bcb4039)" style="fill: none; stroke: #5cb85c; stroke-linecap: square"/>
   </g>
   <g id="line2d_13">
    <path d="M 40.600625 353.221548 
L 50.049075 353.220448 
L 59.497525 353.219347 
L 68.945975 353.219461 
L 78.394425 353.21912 
L 87.842875 353.217223 
L 97.291325 353.213998 
L 106.739775 353.210773 
L 116.188225 353.207966 
L 125.636675 353.206259 
L 135.085125 353.203603 
L 144.533575 353.198329 
L 153.982025 353.193587 
L 163.430475 353.185772 
L 172.878925 353.171431 
L 182.327375 353.149275 
L 191.775825 353.114561 
L 201.224275 353.054921 
L 210.672725 352.949869 
L 220.121175 352.770723 
L 229.569625 352.51752 
L 239.018075 352.133619 
L 248.466525 351.56674 
L 257.914975 350.847272 
L 267.363425 349.946153 
L 276.811875 348.679951 
L 286.260325 346.966414 
L 295.708775 344.880206 
L 305.157225 342.34636 
L 314.605675 339.301557 
L 324.054125 335.534856 
L 333.502575 331.040948 
L 342.951025 325.577367 
L 352.399475 318.506628 
L 361.847925 309.156726 
L 371.296375 296.828754 
L 380.744825 280.952077 
L 390.193275 260.849908 
L 399.641725 237.678086 
L 409.090175 212.803577 
L 418.538625 186.963834 
L 427.987075 161.533904 
L 437.435525 137.706046 
L 446.883975 117.40948 
L 456.332425 101.836085 
L 465.780875 89.136845 
L 475.229325 79.273671 
L 484.677775 74.235685 
L 494.126225 72.364816 
L 503.574675 70.415074 
L 513.023125 67.357295 
L 522.471575 65.793692 
L 531.920025 68.349656 
L 541.368475 72.127776 
L 550.816925 74.893503 
L 560.265375 80.491387 
L 569.713825 89.552501 
L 579.162275 98.578787 
L 588.610725 106.323012 
L 598.059175 114.44632 
L 607.507625 124.485416 
L 616.956075 136.760919 
L 626.404525 151.785645 
L 635.852975 169.34896 
L 645.301425 187.620741 
L 654.749875 206.281545 
L 664.198325 225.454483 
L 673.646775 242.561017 
L 683.095225 257.936069 
L 692.543675 272.780245 
L 701.992125 286.304423 
L 711.440575 297.748576 
L 720.889025 307.162443 
L 730.337475 315.364474 
L 739.785925 321.670256 
L 749.234375 326.182905 
L 758.682825 330.350427 
L 768.131275 333.984039 
L 777.579725 336.835697 
L 787.028175 339.428006 
L 796.476625 341.791166 
L 805.925075 343.887504 
L 815.373525 345.657493 
L 824.821975 347.201899 
L 834.270425 348.559003 
L 843.718875 349.571737 
L 853.167325 350.389846 
L 862.615775 351.187164 
L 872.064225 351.842858 
L 881.512675 352.291482 
L 890.961125 352.627391 
L 900.409575 352.908782 
L 909.858025 353.101055 
L 919.306475 353.173062 
L 928.754925 353.197002 
L 938.203375 353.202275 
L 947.651825 353.191652 
L 957.100275 353.153296 
L 966.548725 353.003173 
L 975.997175 353.038949 
L 985.445625 353.209142 
" clip-path="url(#p908bcb4039)" style="fill: none; stroke: #5cb85c; stroke-linecap: square"/>
   </g>
   <g id="line2d_14">
    <path d="M 40.600625 353.219881 
L 50.049075 353.218542 
L 59.497525 353.216867 
L 68.945975 353.216616 
L 78.394425 353.216114 
L 87.842875 353.21469 
L 97.291325 353.212011 
L 106.739775 353.209416 
L 116.188225 353.207825 
L 125.636675 353.205564 
L 135.085125 353.201797 
L 144.533575 353.197192 
L 153.982025 353.192252 
L 163.430475 353.184131 
L 172.878925 353.172075 
L 182.327375 353.149386 
L 191.775825 353.109365 
L 201.224275 353.055949 
L 210.672725 352.96109 
L 220.121175 352.768189 
L 229.569625 352.465275 
L 239.018075 352.027649 
L 248.466525 351.354675 
L 257.914975 350.445933 
L 267.363425 349.274464 
L 276.811875 347.484442 
L 286.260325 344.812636 
L 295.708775 341.138904 
L 305.157225 336.322254 
L 314.605675 330.198167 
L 324.054125 322.559844 
L 333.502575 313.75985 
L 342.951025 303.61918 
L 352.399475 291.490062 
L 361.847925 277.10575 
L 371.296375 260.784144 
L 380.744825 242.920005 
L 390.193275 223.698279 
L 399.641725 204.532145 
L 409.090175 186.35764 
L 418.538625 168.797252 
L 427.987075 151.996494 
L 437.435525 136.511292 
L 446.883975 123.472427 
L 456.332425 113.445623 
L 465.780875 104.015771 
L 475.229325 95.597977 
L 484.677775 91.142345 
L 494.126225 89.468448 
L 503.574675 87.131623 
L 513.023125 82.699769 
L 522.471575 80.215924 
L 531.920025 82.794461 
L 541.368475 86.037013 
L 550.816925 88.41277 
L 560.265375 93.734863 
L 569.713825 101.735627 
L 579.162275 110.299018 
L 588.610725 117.816275 
L 598.059175 125.266134 
L 607.507625 134.759113 
L 616.956075 146.459899 
L 626.404525 160.523045 
L 635.852975 177.141118 
L 645.301425 195.134276 
L 654.749875 213.495234 
L 664.198325 231.893785 
L 673.646775 248.171686 
L 683.095225 262.823581 
L 692.543675 277.240629 
L 701.992125 290.417555 
L 711.440575 301.339874 
L 720.889025 310.374045 
L 730.337475 318.207612 
L 739.785925 324.155292 
L 749.234375 328.513469 
L 758.682825 332.495892 
L 768.131275 335.857333 
L 777.579725 338.412009 
L 787.028175 340.726981 
L 796.476625 342.941988 
L 805.925075 344.86982 
L 815.373525 346.447769 
L 824.821975 347.898793 
L 834.270425 349.142096 
L 843.718875 350.024047 
L 853.167325 350.755712 
L 862.615775 351.471805 
L 872.064225 352.038617 
L 881.512675 352.430028 
L 890.961125 352.711173 
L 900.409575 352.947192 
L 909.858025 353.127366 
L 919.306475 353.186643 
L 928.754925 353.204476 
L 938.203375 353.208913 
L 947.651825 353.199369 
L 957.100275 353.162446 
L 966.548725 353.03259 
L 975.997175 353.062145 
L 985.445625 353.207741 
" clip-path="url(#p908bcb4039)" style="fill: none; stroke: #5cb85c; stroke-linecap: square"/>
   </g>
   <g id="line2d_15">
    <path d="M 40.600625 353.221582 
L 50.049075 353.220376 
L 59.497525 353.2188 
L 68.945975 353.218568 
L 78.394425 353.218382 
L 87.842875 353.217362 
L 97.291325 353.2156 
L 106.739775 353.213607 
L 116.188225 353.21152 
L 125.636675 353.208692 
L 135.085125 353.204333 
L 144.533575 353.199048 
L 153.982025 353.194365 
L 163.430475 353.186482 
L 172.878925 353.17503 
L 182.327375 353.159033 
L 191.775825 353.128941 
L 201.224275 353.08276 
L 210.672725 352.995637 
L 220.121175 352.849815 
L 229.569625 352.643437 
L 239.018075 352.330834 
L 248.466525 351.844263 
L 257.914975 351.191376 
L 267.363425 350.413345 
L 276.811875 349.318028 
L 286.260325 347.775227 
L 295.708775 345.774186 
L 305.157225 343.215401 
L 314.605675 340.072166 
L 324.054125 336.190451 
L 333.502575 331.414232 
L 342.951025 325.499065 
L 352.399475 317.88716 
L 361.847925 307.811569 
L 371.296375 295.133608 
L 380.744825 279.766341 
L 390.193275 261.289593 
L 399.641725 240.409992 
L 409.090175 218.601622 
L 418.538625 196.436693 
L 427.987075 174.31776 
L 437.435525 152.458526 
L 446.883975 131.968636 
L 456.332425 115.410814 
L 465.780875 100.849073 
L 475.229325 87.403236 
L 484.677775 78.363705 
L 494.126225 73.843615 
L 503.574675 70.450789 
L 513.023125 65.324271 
L 522.471575 61.459897 
L 531.920025 62.756074 
L 541.368475 65.869078 
L 550.816925 68.027534 
L 560.265375 73.118952 
L 569.713825 81.639688 
L 579.162275 90.872335 
L 588.610725 99.054224 
L 598.059175 107.278121 
L 607.507625 117.671833 
L 616.956075 130.50132 
L 626.404525 146.364524 
L 635.852975 164.527045 
L 645.301425 183.818406 
L 654.749875 203.714156 
L 664.198325 223.347703 
L 673.646775 240.581131 
L 683.095225 256.141005 
L 692.543675 271.497376 
L 701.992125 285.515098 
L 711.440575 297.095748 
L 720.889025 306.521698 
L 730.337475 314.987164 
L 739.785925 321.642202 
L 749.234375 326.213434 
L 758.682825 330.416424 
L 768.131275 334.069042 
L 777.579725 336.787374 
L 787.028175 339.300255 
L 796.476625 341.668149 
L 805.925075 343.866758 
L 815.373525 345.739086 
L 824.821975 347.358484 
L 834.270425 348.763577 
L 843.718875 349.733194 
L 853.167325 350.489062 
L 862.615775 351.181639 
L 872.064225 351.807124 
L 881.512675 352.326614 
L 890.961125 352.719988 
L 900.409575 352.984324 
L 909.858025 353.127133 
L 919.306475 353.178785 
L 928.754925 353.196822 
L 938.203375 353.20118 
L 947.651825 353.184164 
L 957.100275 353.123609 
L 966.548725 352.920292 
L 975.997175 352.973289 
L 985.445625 353.203452 
" clip-path="url(#p908bcb4039)" style="fill: none; stroke: #5cb85c; stroke-linecap: square"/>
   </g>
   <g id="line2d_16">
    <path d="M 40.600625 353.216126 
L 50.049075 353.214473 
L 59.497525 353.214026 
L 68.945975 353.215902 
L 78.394425 353.216841 
L 87.842875 353.216751 
L 97.291325 353.214785 
L 106.739775 353.211971 
L 116.188225 353.210541 
L 125.636675 353.208888 
L 135.085125 353.205716 
L 144.533575 353.202052 
L 153.982025 353.197182 
L 163.430475 353.187933 
L 172.878925 353.175736 
L 182.327375 353.158222 
L 191.775825 353.12717 
L 201.224275 353.091739 
L 210.672725 353.034014 
L 220.121175 352.906857 
L 229.569625 352.724477 
L 239.018075 352.46516 
L 248.466525 352.074978 
L 257.914975 351.591327 
L 267.363425 350.99924 
L 276.811875 350.178173 
L 286.260325 349.015266 
L 295.708775 347.615694 
L 305.157225 345.910875 
L 314.605675 343.799833 
L 324.054125 341.281051 
L 333.502575 338.311233 
L 342.951025 334.71841 
L 352.399475 330.084744 
L 361.847925 323.725438 
L 371.296375 315.456683 
L 380.744825 304.79867 
L 390.193275 290.717257 
L 399.641725 273.361539 
L 409.090175 253.14627 
L 418.538625 229.875133 
L 427.987075 204.188153 
L 437.435525 177.829021 
L 446.883975 152.733146 
L 456.332425 130.987128 
L 465.780875 111.288082 
L 475.229325 93.456308 
L 484.677775 81.079401 
L 494.126225 74.027659 
L 503.574675 68.222731 
L 513.023125 61.167325 
L 522.471575 54.873564 
L 531.920025 51.766 
L 541.368475 50.683292 
L 550.816925 50.397123 
L 560.265375 54.144178 
L 569.713825 61.958458 
L 579.162275 70.435105 
L 588.610725 78.660387 
L 598.059175 87.26218 
L 607.507625 97.635677 
L 616.956075 110.977607 
L 626.404525 127.380008 
L 635.852975 146.683197 
L 645.301425 167.923895 
L 654.749875 189.640335 
L 664.198325 211.083965 
L 673.646775 229.934958 
L 683.095225 246.81757 
L 692.543675 263.550372 
L 701.992125 279.135236 
L 711.440575 292.02126 
L 720.889025 302.448729 
L 730.337475 311.53252 
L 739.785925 318.31029 
L 749.234375 323.166235 
L 758.682825 327.889125 
L 768.131275 331.787106 
L 777.579725 334.615246 
L 787.028175 337.462063 
L 796.476625 340.135882 
L 805.925075 342.466744 
L 815.373525 344.476543 
L 824.821975 346.296857 
L 834.270425 347.867729 
L 843.718875 348.939758 
L 853.167325 349.701894 
L 862.615775 350.397725 
L 872.064225 351.105129 
L 881.512675 351.745693 
L 890.961125 352.29529 
L 900.409575 352.755261 
L 909.858025 353.058319 
L 919.306475 353.1626 
L 928.754925 353.189855 
L 938.203375 353.192669 
L 947.651825 353.170553 
L 957.100275 353.086601 
L 966.548725 352.774875 
L 975.997175 352.84243 
L 985.445625 353.189095 
" clip-path="url(#p908bcb4039)" style="fill: none; stroke: #5cb85c; stroke-linecap: square"/>
   </g>
   <g id="line2d_17">
    <path d="M 40.600625 353.221204 
L 50.049075 353.221006 
L 59.497525 353.219301 
L 68.945975 353.217953 
L 78.394425 353.217121 
L 87.842875 353.215654 
L 97.291325 353.214544 
L 106.739775 353.212284 
L 116.188225 353.209034 
L 125.636675 353.205902 
L 135.085125 353.201422 
L 144.533575 353.196467 
L 153.982025 353.191075 
L 163.430475 353.182591 
L 172.878925 353.168557 
L 182.327375 353.149092 
L 191.775825 353.118646 
L 201.224275 353.073373 
L 210.672725 352.990954 
L 220.121175 352.851923 
L 229.569625 352.638243 
L 239.018075 352.311064 
L 248.466525 351.833119 
L 257.914975 351.199375 
L 267.363425 350.394805 
L 276.811875 349.27598 
L 286.260325 347.723849 
L 295.708775 345.808304 
L 305.157225 343.483398 
L 314.605675 340.628575 
L 324.054125 337.083475 
L 333.502575 332.647025 
L 342.951025 326.956883 
L 352.399475 319.533477 
L 361.847925 309.437054 
L 371.296375 295.942213 
L 380.744825 278.571207 
L 390.193275 256.833485 
L 399.641725 231.972036 
L 409.090175 205.682184 
L 418.538625 179.173103 
L 427.987075 153.617413 
L 437.435525 130.21065 
L 446.883975 110.678824 
L 456.332425 96.154118 
L 465.780875 84.435672 
L 475.229325 75.003401 
L 484.677775 70.348395 
L 494.126225 69.123127 
L 503.574675 67.887947 
L 513.023125 65.329619 
L 522.471575 64.241875 
L 531.920025 67.195372 
L 541.368475 71.477409 
L 550.816925 74.846451 
L 560.265375 81.176166 
L 569.713825 91.125986 
L 579.162275 101.017292 
L 588.610725 109.552506 
L 598.059175 117.97866 
L 607.507625 128.755329 
L 616.956075 141.940434 
L 626.404525 156.864947 
L 635.852975 174.143266 
L 645.301425 192.520866 
L 654.749875 211.164713 
L 664.198325 230.107156 
L 673.646775 246.625743 
L 683.095225 261.262244 
L 692.543675 275.623181 
L 701.992125 288.750565 
L 711.440575 299.733421 
L 720.889025 308.689255 
L 730.337475 316.65019 
L 739.785925 322.842856 
L 749.234375 327.145825 
L 758.682825 331.049859 
L 768.131275 334.453431 
L 777.579725 337.140363 
L 787.028175 339.632764 
L 796.476625 341.909662 
L 805.925075 343.970263 
L 815.373525 345.800257 
L 824.821975 347.437859 
L 834.270425 348.805449 
L 843.718875 349.762488 
L 853.167325 350.516274 
L 862.615775 351.231526 
L 872.064225 351.851989 
L 881.512675 352.310548 
L 890.961125 352.652119 
L 900.409575 352.917732 
L 909.858025 353.099379 
L 919.306475 353.170936 
L 928.754925 353.194484 
L 938.203375 353.201105 
L 947.651825 353.18715 
L 957.100275 353.140291 
L 966.548725 352.981241 
L 975.997175 353.02802 
L 985.445625 353.211492 
" clip-path="url(#p908bcb4039)" style="fill: none; stroke: #5cb85c; stroke-linecap: square"/>
   </g>
   <g id="line2d_18">
    <path d="M 40.600625 352.984804 
L 50.049075 352.943392 
L 59.497525 352.973471 
L 68.945975 353.074017 
L 78.394425 353.118837 
L 87.842875 353.143889 
L 97.291325 353.157011 
L 106.739775 353.160249 
L 116.188225 353.159652 
L 125.636675 353.157522 
L 135.085125 353.149683 
L 144.533575 353.144059 
L 153.982025 353.140736 
L 163.430475 353.129233 
L 172.878925 353.104096 
L 182.327375 353.074443 
L 191.775825 353.041723 
L 201.224275 352.987871 
L 210.672725 352.876247 
L 220.121175 352.681886 
L 229.569625 352.35954 
L 239.018075 351.867544 
L 248.466525 351.212798 
L 257.914975 350.38985 
L 267.363425 349.290058 
L 276.811875 347.702615 
L 286.260325 345.551429 
L 295.708775 342.77481 
L 305.157225 339.109546 
L 314.605675 334.442906 
L 324.054125 328.767989 
L 333.502575 322.155773 
L 342.951025 314.045925 
L 352.399475 304.165263 
L 361.847925 292.283128 
L 371.296375 278.162554 
L 380.744825 261.705124 
L 390.193275 242.938189 
L 399.641725 223.673209 
L 409.090175 204.940529 
L 418.538625 186.360458 
L 427.987075 167.882297 
L 437.435525 150.632082 
L 446.883975 136.629522 
L 456.332425 126.219117 
L 465.780875 116.539719 
L 475.229325 107.823353 
L 484.677775 102.609501 
L 494.126225 98.577242 
L 503.574675 93.132304 
L 513.023125 84.340784 
L 522.471575 70.617539 
L 531.920025 56.60944 
L 541.368475 51.006695 
L 550.816925 57.162873 
L 560.265375 71.747921 
L 569.713825 85.962311 
L 579.162275 96.18679 
L 588.610725 106.056971 
L 598.059175 115.603357 
L 607.507625 125.839766 
L 616.956075 139.344365 
L 626.404525 153.710938 
L 635.852975 169.179774 
L 645.301425 187.11149 
L 654.749875 205.982293 
L 664.198325 224.884454 
L 673.646775 241.358074 
L 683.095225 256.601618 
L 692.543675 272.029724 
L 701.992125 286.038163 
L 711.440575 297.755333 
L 720.889025 307.58717 
L 730.337475 315.951282 
L 739.785925 322.063833 
L 749.234375 326.471267 
L 758.682825 330.774064 
L 768.131275 334.332987 
L 777.579725 336.910302 
L 787.028175 339.328874 
L 796.476625 341.605828 
L 805.925075 343.655955 
L 815.373525 345.351529 
L 824.821975 346.890914 
L 834.270425 348.28979 
L 843.718875 349.383447 
L 853.167325 350.256327 
L 862.615775 351.048771 
L 872.064225 351.691928 
L 881.512675 352.15342 
L 890.961125 352.504736 
L 900.409575 352.833302 
L 909.858025 353.085435 
L 919.306475 353.159397 
L 928.754925 353.181125 
L 938.203375 353.183341 
L 947.651825 353.142014 
L 957.100275 353.00372 
L 966.548725 352.452503 
L 975.997175 352.552283 
L 985.445625 353.161101 
" clip-path="url(#p908bcb4039)" style="fill: none; stroke: #5cb85c; stroke-linecap: square"/>
   </g>
   <g id="line2d_19">
    <path d="M 40.600625 353.15985 
L 50.049075 353.150871 
L 59.497525 353.158774 
L 68.945975 353.181738 
L 78.394425 353.191006 
L 87.842875 353.196054 
L 97.291325 353.198164 
L 106.739775 353.19655 
L 116.188225 353.192661 
L 125.636675 353.189392 
L 135.085125 353.185586 
L 144.533575 353.180993 
L 153.982025 353.173049 
L 163.430475 353.157822 
L 172.878925 353.138458 
L 182.327375 353.107923 
L 191.775825 353.053265 
L 201.224275 352.97825 
L 210.672725 352.844357 
L 220.121175 352.595356 
L 229.569625 352.211552 
L 239.018075 351.63539 
L 248.466525 350.788091 
L 257.914975 349.705197 
L 267.363425 348.313306 
L 276.811875 346.386712 
L 286.260325 343.914119 
L 295.708775 341.020112 
L 305.157225 337.524662 
L 314.605675 333.351017 
L 324.054125 328.62827 
L 333.502575 323.516132 
L 342.951025 318.051512 
L 352.399475 311.828262 
L 361.847925 304.337994 
L 371.296375 295.486371 
L 380.744825 284.802947 
L 390.193275 271.693767 
L 399.641725 256.651664 
L 409.090175 239.874041 
L 418.538625 220.812832 
L 427.987075 199.720679 
L 437.435525 177.716845 
L 446.883975 156.404736 
L 456.332425 137.85237 
L 465.780875 120.780522 
L 475.229325 105.286137 
L 484.677775 94.735157 
L 494.126225 88.164803 
L 503.574675 81.708771 
L 513.023125 74.421949 
L 522.471575 66.823193 
L 531.920025 61.159017 
L 541.368475 59.691697 
L 550.816925 61.220874 
L 560.265375 66.854887 
L 569.713825 75.519367 
L 579.162275 83.889 
L 588.610725 91.353491 
L 598.059175 98.796425 
L 607.507625 108.425339 
L 616.956075 121.474068 
L 626.404525 136.314049 
L 635.852975 153.326647 
L 645.301425 172.533582 
L 654.749875 192.304929 
L 664.198325 212.088688 
L 673.646775 229.842248 
L 683.095225 246.54167 
L 692.543675 263.119322 
L 701.992125 278.216539 
L 711.440575 291.009936 
L 720.889025 301.784719 
L 730.337475 311.095906 
L 739.785925 318.032728 
L 749.234375 323.003359 
L 758.682825 327.556629 
L 768.131275 331.420616 
L 777.579725 334.399362 
L 787.028175 337.2131 
L 796.476625 339.806759 
L 805.925075 342.084511 
L 815.373525 344.065349 
L 824.821975 345.881096 
L 834.270425 347.493977 
L 843.718875 348.658423 
L 853.167325 349.534148 
L 862.615775 350.340361 
L 872.064225 351.079006 
L 881.512675 351.677842 
L 890.961125 352.154494 
L 900.409575 352.613272 
L 909.858025 352.961452 
L 919.306475 353.103413 
L 928.754925 353.15534 
L 938.203375 353.164443 
L 947.651825 353.11475 
L 957.100275 352.933854 
L 966.548725 352.279574 
L 975.997175 352.442927 
L 985.445625 353.172097 
" clip-path="url(#p908bcb4039)" style="fill: none; stroke: #5cb85c; stroke-linecap: square"/>
   </g>
   <g id="line2d_20">
    <path d="M 40.600625 353.16644 
L 50.049075 353.157876 
L 59.497525 353.165736 
L 68.945975 353.187798 
L 78.394425 353.197013 
L 87.842875 353.200266 
L 97.291325 353.199561 
L 106.739775 353.198097 
L 116.188225 353.195875 
L 125.636675 353.19246 
L 135.085125 353.188178 
L 144.533575 353.182811 
L 153.982025 353.174626 
L 163.430475 353.164164 
L 172.878925 353.148769 
L 182.327375 353.12134 
L 191.775825 353.074072 
L 201.224275 353.001271 
L 210.672725 352.883154 
L 220.121175 352.664212 
L 229.569625 352.303084 
L 239.018075 351.759007 
L 248.466525 350.985417 
L 257.914975 349.968926 
L 267.363425 348.655162 
L 276.811875 346.867249 
L 286.260325 344.601663 
L 295.708775 341.899872 
L 305.157225 338.495612 
L 314.605675 334.439185 
L 324.054125 329.762359 
L 333.502575 324.480038 
L 342.951025 318.410577 
L 352.399475 310.96458 
L 361.847925 301.719395 
L 371.296375 290.108937 
L 380.744825 275.374686 
L 390.193275 257.091712 
L 399.641725 236.122342 
L 409.090175 213.602378 
L 418.538625 189.780956 
L 427.987075 165.591792 
L 437.435525 142.62977 
L 446.883975 122.92245 
L 456.332425 107.77823 
L 465.780875 95.162285 
L 475.229325 85.350581 
L 484.677775 80.50105 
L 494.126225 78.011481 
L 503.574675 75.128584 
L 513.023125 70.988841 
L 522.471575 66.780852 
L 531.920025 65.849194 
L 541.368475 68.042956 
L 550.816925 72.340875 
L 560.265375 80.281186 
L 569.713825 90.353247 
L 579.162275 99.442153 
L 588.610725 107.30072 
L 598.059175 115.113807 
L 607.507625 124.659517 
L 616.956075 137.07701 
L 626.404525 151.49068 
L 635.852975 168.077676 
L 645.301425 186.129945 
L 654.749875 204.437854 
L 664.198325 223.280732 
L 673.646775 240.512522 
L 683.095225 256.379051 
L 692.543675 271.979586 
L 701.992125 286.1619 
L 711.440575 298.236588 
L 720.889025 308.278509 
L 730.337475 316.698228 
L 739.785925 323.153157 
L 749.234375 328.132513 
L 758.682825 332.578364 
L 768.131275 336.251437 
L 777.579725 339.03237 
L 787.028175 341.549207 
L 796.476625 343.923695 
L 805.925075 345.984324 
L 815.373525 347.649675 
L 824.821975 349.061987 
L 834.270425 350.29986 
L 843.718875 351.243769 
L 853.167325 351.921845 
L 862.615775 352.439577 
L 872.064225 352.807156 
L 881.512675 353.013034 
L 890.961125 353.119714 
L 900.409575 353.168229 
L 909.858025 353.19105 
L 919.306475 353.199832 
L 928.754925 353.204873 
L 938.203375 353.202651 
L 947.651825 353.178203 
L 957.100275 353.108493 
L 966.548725 352.894863 
L 975.997175 352.95113 
L 985.445625 353.196796 
" clip-path="url(#p908bcb4039)" style="fill: none; stroke: #5cb85c; stroke-linecap: square"/>
   </g>
   <g id="line2d_21">
    <path d="M 40.600625 353.115215 
L 50.049075 353.097729 
L 59.497525 353.110569 
L 68.945975 353.153035 
L 78.394425 353.172012 
L 87.842875 353.181828 
L 97.291325 353.185334 
L 106.739775 353.185597 
L 116.188225 353.184195 
L 125.636675 353.181565 
L 135.085125 353.177183 
L 144.533575 353.171573 
L 153.982025 353.167278 
L 163.430475 353.155314 
L 172.878925 353.133446 
L 182.327375 353.105705 
L 191.775825 353.061091 
L 201.224275 352.991804 
L 210.672725 352.878211 
L 220.121175 352.673155 
L 229.569625 352.352183 
L 239.018075 351.854115 
L 248.466525 351.139772 
L 257.914975 350.264768 
L 267.363425 349.149999 
L 276.811875 347.591855 
L 286.260325 345.532663 
L 295.708775 343.06577 
L 305.157225 340.079336 
L 314.605675 336.469319 
L 324.054125 332.299924 
L 333.502575 327.528596 
L 342.951025 321.781467 
L 352.399475 314.704083 
L 361.847925 305.615014 
L 371.296375 293.944932 
L 380.744825 279.116754 
L 390.193275 260.572634 
L 399.641725 239.428658 
L 409.090175 216.89443 
L 418.538625 193.310645 
L 427.987075 169.630094 
L 437.435525 147.412456 
L 446.883975 128.50205 
L 456.332425 114.17917 
L 465.780875 102.277431 
L 475.229325 92.34329 
L 484.677775 86.933655 
L 494.126225 84.600997 
L 503.574675 81.80612 
L 513.023125 77.555868 
L 522.471575 73.694736 
L 531.920025 72.849226 
L 541.368475 74.436951 
L 550.816925 76.938203 
L 560.265375 82.18424 
L 569.713825 89.410058 
L 579.162275 96.180231 
L 588.610725 102.359033 
L 598.059175 109.398245 
L 607.507625 118.666865 
L 616.956075 130.698763 
L 626.404525 144.751244 
L 635.852975 160.998072 
L 645.301425 179.513925 
L 654.749875 198.57351 
L 664.198325 217.508195 
L 673.646775 234.689936 
L 683.095225 250.73872 
L 692.543675 266.780887 
L 701.992125 281.387969 
L 711.440575 293.569617 
L 720.889025 303.880432 
L 730.337475 312.89833 
L 739.785925 319.544698 
L 749.234375 324.389213 
L 758.682825 329.090377 
L 768.131275 332.980916 
L 777.579725 335.837893 
L 787.028175 338.51659 
L 796.476625 341.032129 
L 805.925075 343.274157 
L 815.373525 345.194687 
L 824.821975 346.922827 
L 834.270425 348.42676 
L 843.718875 349.561469 
L 853.167325 350.474206 
L 862.615775 351.264147 
L 872.064225 351.938872 
L 881.512675 352.447721 
L 890.961125 352.789509 
L 900.409575 353.010517 
L 909.858025 353.131255 
L 919.306475 353.172625 
L 928.754925 353.187701 
L 938.203375 353.188446 
L 947.651825 353.159302 
L 957.100275 353.048908 
L 966.548725 352.644669 
L 975.997175 352.740075 
L 985.445625 353.187569 
" clip-path="url(#p908bcb4039)" style="fill: none; stroke: #5cb85c; stroke-linecap: square"/>
   </g>
   <g id="line2d_22">
    <path d="M 40.600625 353.104928 
L 50.049075 353.080671 
L 59.497525 353.089249 
L 68.945975 353.138721 
L 78.394425 353.163935 
L 87.842875 353.176981 
L 97.291325 353.183445 
L 106.739775 353.183485 
L 116.188225 353.179375 
L 125.636675 353.175106 
L 135.085125 353.170558 
L 144.533575 353.166648 
L 153.982025 353.161462 
L 163.430475 353.15053 
L 172.878925 353.130861 
L 182.327375 353.100859 
L 191.775825 353.053182 
L 201.224275 352.997606 
L 210.672725 352.905644 
L 220.121175 352.722758 
L 229.569625 352.424251 
L 239.018075 351.967074 
L 248.466525 351.344407 
L 257.914975 350.550862 
L 267.363425 349.536648 
L 276.811875 348.142179 
L 286.260325 346.26105 
L 295.708775 344.010079 
L 305.157225 341.26782 
L 314.605675 337.841452 
L 324.054125 333.723276 
L 333.502575 328.860907 
L 342.951025 322.844007 
L 352.399475 315.322245 
L 361.847925 305.453599 
L 371.296375 292.484741 
L 380.744825 276.216068 
L 390.193275 256.113363 
L 399.641725 233.393355 
L 409.090175 209.7418 
L 418.538625 185.434064 
L 427.987075 161.598545 
L 437.435525 139.734481 
L 446.883975 121.234665 
L 456.332425 107.684872 
L 465.780875 96.616493 
L 475.229325 86.874838 
L 484.677775 81.689984 
L 494.126225 79.92292 
L 503.574675 77.50921 
L 513.023125 73.701709 
L 522.471575 70.716918 
L 531.920025 71.127096 
L 541.368475 73.757605 
L 550.816925 76.48207 
L 560.265375 81.778754 
L 569.713825 89.872636 
L 579.162275 98.15834 
L 588.610725 105.535158 
L 598.059175 113.264783 
L 607.507625 123.033248 
L 616.956075 135.339621 
L 626.404525 149.777076 
L 635.852975 166.718806 
L 645.301425 185.668497 
L 654.749875 204.882343 
L 664.198325 223.810171 
L 673.646775 240.519064 
L 683.095225 255.82878 
L 692.543675 271.183061 
L 701.992125 285.131023 
L 711.440575 296.748421 
L 720.889025 306.516487 
L 730.337475 314.943386 
L 739.785925 321.201301 
L 749.234375 325.887087 
L 758.682825 330.340436 
L 768.131275 333.921682 
L 777.579725 336.615347 
L 787.028175 339.191237 
L 796.476625 341.602633 
L 805.925075 343.7624 
L 815.373525 345.624857 
L 824.821975 347.282964 
L 834.270425 348.734725 
L 843.718875 349.822388 
L 853.167325 350.678292 
L 862.615775 351.400781 
L 872.064225 352.018461 
L 881.512675 352.527423 
L 890.961125 352.87245 
L 900.409575 353.054778 
L 909.858025 353.143189 
L 919.306475 353.174588 
L 928.754925 353.188591 
L 938.203375 353.189948 
L 947.651825 353.157073 
L 957.100275 353.039019 
L 966.548725 352.616912 
L 975.997175 352.718648 
L 985.445625 353.186996 
" clip-path="url(#p908bcb4039)" style="fill: none; stroke: #5cb85c; stroke-linecap: square"/>
   </g>
   <g id="line2d_23">
    <path d="M 40.600625 353.19433 
L 50.049075 353.188706 
L 59.497525 353.190393 
L 68.945975 353.201241 
L 78.394425 353.206182 
L 87.842875 353.207508 
L 97.291325 353.206343 
L 106.739775 353.204254 
L 116.188225 353.201642 
L 125.636675 353.19887 
L 135.085125 353.19417 
L 144.533575 353.188424 
L 153.982025 353.182157 
L 163.430475 353.171109 
L 172.878925 353.152266 
L 182.327375 353.121973 
L 191.775825 353.072115 
L 201.224275 352.997347 
L 210.672725 352.871113 
L 220.121175 352.630298 
L 229.569625 352.24521 
L 239.018075 351.675351 
L 248.466525 350.861223 
L 257.914975 349.816081 
L 267.363425 348.49501 
L 276.811875 346.713198 
L 286.260325 344.325531 
L 295.708775 341.421882 
L 305.157225 337.844721 
L 314.605675 333.378502 
L 324.054125 327.819251 
L 333.502575 321.033825 
L 342.951025 312.426212 
L 352.399475 301.413052 
L 361.847925 287.862489 
L 371.296375 270.927972 
L 380.744825 249.661705 
L 390.193275 225.356476 
L 399.641725 200.450815 
L 409.090175 175.935545 
L 418.538625 151.866592 
L 427.987075 128.713976 
L 437.435525 108.277627 
L 446.883975 92.56366 
L 456.332425 82.197096 
L 465.780875 73.987828 
L 475.229325 68.60021 
L 484.677775 68.119462 
L 494.126225 69.233345 
L 503.574675 68.793577 
L 513.023125 66.806024 
L 522.471575 68.950264 
L 531.920025 77.09517 
L 541.368475 85.434126 
L 550.816925 92.335781 
L 560.265375 101.810959 
L 569.713825 113.749695 
L 579.162275 124.218067 
L 588.610725 131.958198 
L 598.059175 139.500903 
L 607.507625 149.631353 
L 616.956075 162.64914 
L 626.404525 176.750317 
L 635.852975 191.551723 
L 645.301425 207.109485 
L 654.749875 223.119831 
L 664.198325 239.894166 
L 673.646775 255.131242 
L 683.095225 269.135112 
L 692.543675 282.985228 
L 701.992125 295.509934 
L 711.440575 306.119524 
L 720.889025 314.922756 
L 730.337475 322.470122 
L 739.785925 328.215026 
L 749.234375 332.512586 
L 758.682825 336.393961 
L 768.131275 339.497125 
L 777.579725 341.843692 
L 787.028175 344.009064 
L 796.476625 345.928599 
L 805.925075 347.541027 
L 815.373525 348.890021 
L 824.821975 350.082529 
L 834.270425 351.060255 
L 843.718875 351.773622 
L 853.167325 352.306679 
L 862.615775 352.669469 
L 872.064225 352.912856 
L 881.512675 353.066852 
L 890.961125 353.145597 
L 900.409575 353.173479 
L 909.858025 353.187139 
L 919.306475 353.193326 
L 928.754925 353.197625 
L 938.203375 353.194571 
L 947.651825 353.167211 
L 957.100275 353.081074 
L 966.548725 352.759745 
L 975.997175 352.842066 
L 985.445625 353.202325 
" clip-path="url(#p908bcb4039)" style="fill: none; stroke: #f0ad4e; stroke-linecap: square"/>
   </g>
   <g id="line2d_24">
    <path d="M 40.600625 353.080527 
L 50.049075 353.063235 
L 59.497525 353.083385 
L 68.945975 353.137392 
L 78.394425 353.160157 
L 87.842875 353.170571 
L 97.291325 353.174107 
L 106.739775 353.17246 
L 116.188225 353.17091 
L 125.636675 353.169021 
L 135.085125 353.165921 
L 144.533575 353.159043 
L 153.982025 353.150228 
L 163.430475 353.136084 
L 172.878925 353.114288 
L 182.327375 353.082658 
L 191.775825 353.026762 
L 201.224275 352.953429 
L 210.672725 352.831465 
L 220.121175 352.601632 
L 229.569625 352.244702 
L 239.018075 351.718775 
L 248.466525 350.977498 
L 257.914975 350.028718 
L 267.363425 348.840079 
L 276.811875 347.204853 
L 286.260325 345.063026 
L 295.708775 342.466814 
L 305.157225 339.303697 
L 314.605675 335.426331 
L 324.054125 330.778385 
L 333.502575 325.404661 
L 342.951025 318.86579 
L 352.399475 310.664423 
L 361.847925 300.334356 
L 371.296375 287.380467 
L 380.744825 271.187028 
L 390.193275 251.341988 
L 399.641725 228.954258 
L 409.090175 205.45282 
L 418.538625 181.358856 
L 427.987075 157.30209 
L 437.435525 135.1672 
L 446.883975 116.857219 
L 456.332425 103.165734 
L 465.780875 91.74332 
L 475.229325 82.679536 
L 484.677775 78.499634 
L 494.126225 77.106883 
L 503.574675 74.933233 
L 513.023125 71.242155 
L 522.471575 67.861654 
L 531.920025 67.318339 
L 541.368475 70.356246 
L 550.816925 75.765232 
L 560.265375 84.355401 
L 569.713825 94.408361 
L 579.162275 103.156628 
L 588.610725 110.929959 
L 598.059175 119.235853 
L 607.507625 129.785 
L 616.956075 142.640417 
L 626.404525 156.881804 
L 635.852975 173.096168 
L 645.301425 190.922023 
L 654.749875 208.928839 
L 664.198325 227.286288 
L 673.646775 243.959542 
L 683.095225 259.189282 
L 692.543675 274.226631 
L 701.992125 287.83926 
L 711.440575 299.482692 
L 720.889025 309.229628 
L 730.337475 317.519005 
L 739.785925 323.803292 
L 749.234375 328.444312 
L 758.682825 332.705491 
L 768.131275 336.154579 
L 777.579725 338.72667 
L 787.028175 341.182125 
L 796.476625 343.412494 
L 805.925075 345.294651 
L 815.373525 346.886865 
L 824.821975 348.338904 
L 834.270425 349.577287 
L 843.718875 350.503496 
L 853.167325 351.231355 
L 862.615775 351.87324 
L 872.064225 352.387493 
L 881.512675 352.736577 
L 890.961125 352.970188 
L 900.409575 353.097528 
L 909.858025 353.15977 
L 919.306475 353.180501 
L 928.754925 353.190479 
L 938.203375 353.189074 
L 947.651825 353.151245 
L 957.100275 353.020514 
L 966.548725 352.555666 
L 975.997175 352.661355 
L 985.445625 353.177304 
" clip-path="url(#p908bcb4039)" style="fill: none; stroke: #5cb85c; stroke-linecap: square"/>
   </g>
   <g id="line2d_25">
    <path d="M 40.600625 353.219238 
L 50.049075 353.218729 
L 59.497525 353.218146 
L 68.945975 353.218182 
L 78.394425 353.217672 
L 87.842875 353.215706 
L 97.291325 353.212464 
L 106.739775 353.210061 
L 116.188225 353.208568 
L 125.636675 353.205144 
L 135.085125 353.201757 
L 144.533575 353.19837 
L 153.982025 353.193599 
L 163.430475 353.185879 
L 172.878925 353.170364 
L 182.327375 353.149095 
L 191.775825 353.110382 
L 201.224275 353.045884 
L 210.672725 352.940852 
L 220.121175 352.762217 
L 229.569625 352.500765 
L 239.018075 352.085771 
L 248.466525 351.48413 
L 257.914975 350.715581 
L 267.363425 349.733216 
L 276.811875 348.3525 
L 286.260325 346.393888 
L 295.708775 343.985357 
L 305.157225 341.039063 
L 314.605675 337.328627 
L 324.054125 332.781137 
L 333.502575 327.217594 
L 342.951025 320.2257 
L 352.399475 311.071686 
L 361.847925 298.92589 
L 371.296375 283.571693 
L 380.744825 265.036446 
L 390.193275 243.332348 
L 399.641725 220.141228 
L 409.090175 197.360331 
L 418.538625 175.522066 
L 427.987075 155.505441 
L 437.435525 136.960871 
L 446.883975 120.619319 
L 456.332425 108.015628 
L 465.780875 95.872527 
L 475.229325 84.427432 
L 484.677775 78.150442 
L 494.126225 76.775299 
L 503.574675 76.650709 
L 513.023125 73.795973 
L 522.471575 71.373638 
L 531.920025 74.381881 
L 541.368475 78.713261 
L 550.816925 82.465215 
L 560.265375 87.690097 
L 569.713825 92.112306 
L 579.162275 97.598749 
L 588.610725 105.845859 
L 598.059175 116.353603 
L 607.507625 127.707505 
L 616.956075 140.576727 
L 626.404525 158.708707 
L 635.852975 178.19886 
L 645.301425 197.550547 
L 654.749875 216.863522 
L 664.198325 234.412179 
L 673.646775 249.547935 
L 683.095225 262.762773 
L 692.543675 276.074449 
L 701.992125 288.394437 
L 711.440575 297.141252 
L 720.889025 304.200994 
L 730.337475 313.036379 
L 739.785925 320.50751 
L 749.234375 325.064506 
L 758.682825 329.428043 
L 768.131275 333.25899 
L 777.579725 335.813052 
L 787.028175 338.053582 
L 796.476625 340.731651 
L 805.925075 343.310659 
L 815.373525 345.267523 
L 824.821975 347.071317 
L 834.270425 348.607214 
L 843.718875 349.526319 
L 853.167325 350.251822 
L 862.615775 351.018987 
L 872.064225 351.760586 
L 881.512675 352.426762 
L 890.961125 352.868888 
L 900.409575 353.047304 
L 909.858025 353.130558 
L 919.306475 353.161478 
L 928.754925 353.181618 
L 938.203375 353.189375 
L 947.651825 353.169089 
L 957.100275 353.098983 
L 966.548725 352.8411 
L 975.997175 352.906217 
L 985.445625 353.199536 
" clip-path="url(#p908bcb4039)" style="fill: none; stroke: #5cb85c; stroke-linecap: square"/>
   </g>
   <g id="line2d_26">
    <path d="M 40.600625 353.2239 
L 985.445625 353.2239 
" clip-path="url(#p908bcb4039)" style="fill: none; stroke: #dedede; stroke-width: 2; stroke-linecap: square"/>
   </g>
   <g id="text_18">
    <!-- FastQC: Per Sequence GC Content -->
    <g transform="translate(376.386875 19.3575) scale(0.16 -0.16)">
     <defs>
      <path id="DejaVuSans-46" d="M 628 4666 
L 3309 4666 
L 3309 4134 
L 1259 4134 
L 1259 2759 
L 3109 2759 
L 3109 2228 
L 1259 2228 
L 1259 0 
L 628 0 
L 628 4666 
z
" transform="scale(0.015625)"/>
      <path id="DejaVuSans-73" d="M 2834 3397 
L 2834 2853 
Q 2591 2978 2328 3040 
Q 2066 3103 1784 3103 
Q 1356 3103 1142 2972 
Q 928 2841 928 2578 
Q 928 2378 1081 2264 
Q 1234 2150 1697 2047 
L 1894 2003 
Q 2506 1872 2764 1633 
Q 3022 1394 3022 966 
Q 3022 478 2636 193 
Q 2250 -91 1575 -91 
Q 1294 -91 989 -36 
Q 684 19 347 128 
L 347 722 
Q 666 556 975 473 
Q 1284 391 1588 391 
Q 1994 391 2212 530 
Q 2431 669 2431 922 
Q 2431 1156 2273 1281 
Q 2116 1406 1581 1522 
L 1381 1569 
Q 847 1681 609 1914 
Q 372 2147 372 2553 
Q 372 3047 722 3315 
Q 1072 3584 1716 3584 
Q 2034 3584 2315 3537 
Q 2597 3491 2834 3397 
z
" transform="scale(0.015625)"/>
      <path id="DejaVuSans-51" d="M 2522 4238 
Q 1834 4238 1429 3725 
Q 1025 3213 1025 2328 
Q 1025 1447 1429 934 
Q 1834 422 2522 422 
Q 3209 422 3611 934 
Q 4013 1447 4013 2328 
Q 4013 3213 3611 3725 
Q 3209 4238 2522 4238 
z
M 3406 84 
L 4238 -825 
L 3475 -825 
L 2784 -78 
Q 2681 -84 2626 -87 
Q 2572 -91 2522 -91 
Q 1538 -91 948 567 
Q 359 1225 359 2328 
Q 359 3434 948 4092 
Q 1538 4750 2522 4750 
Q 3503 4750 4090 4092 
Q 4678 3434 4678 2328 
Q 4678 1516 4351 937 
Q 4025 359 3406 84 
z
" transform="scale(0.015625)"/>
      <path id="DejaVuSans-3a" d="M 750 794 
L 1409 794 
L 1409 0 
L 750 0 
L 750 794 
z
M 750 3309 
L 1409 3309 
L 1409 2516 
L 750 2516 
L 750 3309 
z
" transform="scale(0.015625)"/>
      <path id="DejaVuSans-53" d="M 3425 4513 
L 3425 3897 
Q 3066 4069 2747 4153 
Q 2428 4238 2131 4238 
Q 1616 4238 1336 4038 
Q 1056 3838 1056 3469 
Q 1056 3159 1242 3001 
Q 1428 2844 1947 2747 
L 2328 2669 
Q 3034 2534 3370 2195 
Q 3706 1856 3706 1288 
Q 3706 609 3251 259 
Q 2797 -91 1919 -91 
Q 1588 -91 1214 -16 
Q 841 59 441 206 
L 441 856 
Q 825 641 1194 531 
Q 1563 422 1919 422 
Q 2459 422 2753 634 
Q 3047 847 3047 1241 
Q 3047 1584 2836 1778 
Q 2625 1972 2144 2069 
L 1759 2144 
Q 1053 2284 737 2584 
Q 422 2884 422 3419 
Q 422 4038 858 4394 
Q 1294 4750 2059 4750 
Q 2388 4750 2728 4690 
Q 3069 4631 3425 4513 
z
" transform="scale(0.015625)"/>
      <path id="DejaVuSans-71" d="M 947 1747 
Q 947 1113 1208 752 
Q 1469 391 1925 391 
Q 2381 391 2643 752 
Q 2906 1113 2906 1747 
Q 2906 2381 2643 2742 
Q 2381 3103 1925 3103 
Q 1469 3103 1208 2742 
Q 947 2381 947 1747 
z
M 2906 525 
Q 2725 213 2448 61 
Q 2172 -91 1784 -91 
Q 1150 -91 751 415 
Q 353 922 353 1747 
Q 353 2572 751 3078 
Q 1150 3584 1784 3584 
Q 2172 3584 2448 3432 
Q 2725 3281 2906 2969 
L 2906 3500 
L 3481 3500 
L 3481 -1331 
L 2906 -1331 
L 2906 525 
z
" transform="scale(0.015625)"/>
      <path id="DejaVuSans-75" d="M 544 1381 
L 544 3500 
L 1119 3500 
L 1119 1403 
Q 1119 906 1312 657 
Q 1506 409 1894 409 
Q 2359 409 2629 706 
Q 2900 1003 2900 1516 
L 2900 3500 
L 3475 3500 
L 3475 0 
L 2900 0 
L 2900 538 
Q 2691 219 2414 64 
Q 2138 -91 1772 -91 
Q 1169 -91 856 284 
Q 544 659 544 1381 
z
M 1991 3584 
L 1991 3584 
z
" transform="scale(0.015625)"/>
      <path id="DejaVuSans-6f" d="M 1959 3097 
Q 1497 3097 1228 2736 
Q 959 2375 959 1747 
Q 959 1119 1226 758 
Q 1494 397 1959 397 
Q 2419 397 2687 759 
Q 2956 1122 2956 1747 
Q 2956 2369 2687 2733 
Q 2419 3097 1959 3097 
z
M 1959 3584 
Q 2709 3584 3137 3096 
Q 3566 2609 3566 1747 
Q 3566 888 3137 398 
Q 2709 -91 1959 -91 
Q 1206 -91 779 398 
Q 353 888 353 1747 
Q 353 2609 779 3096 
Q 1206 3584 1959 3584 
z
" transform="scale(0.015625)"/>
     </defs>
     <use xlink:href="#DejaVuSans-46"/>
     <use xlink:href="#DejaVuSans-61" x="48.394531"/>
     <use xlink:href="#DejaVuSans-73" x="109.673828"/>
     <use xlink:href="#DejaVuSans-74" x="161.773438"/>
     <use xlink:href="#DejaVuSans-51" x="200.982422"/>
     <use xlink:href="#DejaVuSans-43" x="279.693359"/>
     <use xlink:href="#DejaVuSans-3a" x="349.517578"/>
     <use xlink:href="#DejaVuSans-20" x="383.208984"/>
     <use xlink:href="#DejaVuSans-50" x="414.996094"/>
     <use xlink:href="#DejaVuSans-65" x="471.673828"/>
     <use xlink:href="#DejaVuSans-72" x="533.197266"/>
     <use xlink:href="#DejaVuSans-20" x="574.310547"/>
     <use xlink:href="#DejaVuSans-53" x="606.097656"/>
     <use xlink:href="#DejaVuSans-65" x="669.574219"/>
     <use xlink:href="#DejaVuSans-71" x="731.097656"/>
     <use xlink:href="#DejaVuSans-75" x="794.574219"/>
     <use xlink:href="#DejaVuSans-65" x="857.953125"/>
     <use xlink:href="#DejaVuSans-6e" x="919.476562"/>
     <use xlink:href="#DejaVuSans-63" x="982.855469"/>
     <use xlink:href="#DejaVuSans-65" x="1037.835938"/>
     <use xlink:href="#DejaVuSans-20" x="1099.359375"/>
     <use xlink:href="#DejaVuSans-47" x="1131.146484"/>
     <use xlink:href="#DejaVuSans-43" x="1208.636719"/>
     <use xlink:href="#DejaVuSans-20" x="1278.460938"/>
     <use xlink:href="#DejaVuSans-43" x="1310.248047"/>
     <use xlink:href="#DejaVuSans-6f" x="1380.072266"/>
     <use xlink:href="#DejaVuSans-6e" x="1441.253906"/>
     <use xlink:href="#DejaVuSans-74" x="1504.632812"/>
     <use xlink:href="#DejaVuSans-65" x="1543.841797"/>
     <use xlink:href="#DejaVuSans-6e" x="1605.365234"/>
     <use xlink:href="#DejaVuSans-74" x="1668.744141"/>
    </g>
   </g>
  </g>
 </g>
 <defs>
  <clipPath id="p908bcb4039">
   <rect x="40.600625" y="35.2559" width="944.845" height="317.968"/>
  </clipPath>
 </defs>
</svg>
