<?xml version="1.0" encoding="utf-8" standalone="no"?>
<!DOCTYPE svg PUBLIC "-//W3C//DTD SVG 1.1//EN"
  "http://www.w3.org/Graphics/SVG/1.1/DTD/svg11.dtd">
<svg xmlns:xlink="http://www.w3.org/1999/xlink" width="1000.280625pt" height="388.844525pt" viewBox="0 0 1000.280625 388.844525" xmlns="http://www.w3.org/2000/svg" version="1.1">
 <metadata>
  <rdf:RDF xmlns:dc="http://purl.org/dc/elements/1.1/" xmlns:cc="http://creativecommons.org/ns#" xmlns:rdf="http://www.w3.org/1999/02/22-rdf-syntax-ns#">
   <cc:Work>
    <dc:type rdf:resource="http://purl.org/dc/dcmitype/StillImage"/>
    <dc:date>2024-09-05T13:39:05.176650</dc:date>
    <dc:format>image/svg+xml</dc:format>
    <dc:creator>
     <cc:Agent>
      <dc:title>Matplotlib v3.8.2, https://matplotlib.org/</dc:title>
     </cc:Agent>
    </dc:creator>
   </cc:Work>
  </rdf:RDF>
 </metadata>
 <defs>
  <style type="text/css">*{stroke-linejoin: round; stroke-linecap: butt}</style>
 </defs>
 <g id="figure_1">
  <g id="axes_1">
   <g id="patch_1">
    <path d="M 40.600625 353.2239 
L 985.445625 353.2239 
L 985.445625 35.2559 
L 40.600625 35.2559 
z
" style="fill: #ffffff"/>
   </g>
   <g id="matplotlib.axis_1">
    <g id="xtick_1">
     <g id="text_1">
      <!-- 0 -->
      <g transform="translate(38.055625 366.30265) scale(0.08 -0.08)">
       <defs>
        <path id="DejaVuSans-30" d="M 2034 4250 
Q 1547 4250 1301 3770 
Q 1056 3291 1056 2328 
Q 1056 1369 1301 889 
Q 1547 409 2034 409 
Q 2525 409 2770 889 
Q 3016 1369 3016 2328 
Q 3016 3291 2770 3770 
Q 2525 4250 2034 4250 
z
M 2034 4750 
Q 2819 4750 3233 4129 
Q 3647 3509 3647 2328 
Q 3647 1150 3233 529 
Q 2819 -91 2034 -91 
Q 1250 -91 836 529 
Q 422 1150 422 2328 
Q 422 3509 836 4129 
Q 1250 4750 2034 4750 
z
" transform="scale(0.015625)"/>
       </defs>
       <use xlink:href="#DejaVuSans-30"/>
      </g>
     </g>
    </g>
    <g id="xtick_2">
     <g id="text_2">
      <!-- 20 -->
      <g transform="translate(224.479625 366.30265) scale(0.08 -0.08)">
       <defs>
        <path id="DejaVuSans-32" d="M 1228 531 
L 3431 531 
L 3431 0 
L 469 0 
L 469 531 
Q 828 903 1448 1529 
Q 2069 2156 2228 2338 
Q 2531 2678 2651 2914 
Q 2772 3150 2772 3378 
Q 2772 3750 2511 3984 
Q 2250 4219 1831 4219 
Q 1534 4219 1204 4116 
Q 875 4013 500 3803 
L 500 4441 
Q 881 4594 1212 4672 
Q 1544 4750 1819 4750 
Q 2544 4750 2975 4387 
Q 3406 4025 3406 3419 
Q 3406 3131 3298 2873 
Q 3191 2616 2906 2266 
Q 2828 2175 2409 1742 
Q 1991 1309 1228 531 
z
" transform="scale(0.015625)"/>
       </defs>
       <use xlink:href="#DejaVuSans-32"/>
       <use xlink:href="#DejaVuSans-30" x="63.623047"/>
      </g>
     </g>
    </g>
    <g id="xtick_3">
     <g id="text_3">
      <!-- 40 -->
      <g transform="translate(413.448625 366.30265) scale(0.08 -0.08)">
       <defs>
        <path id="DejaVuSans-34" d="M 2419 4116 
L 825 1625 
L 2419 1625 
L 2419 4116 
z
M 2253 4666 
L 3047 4666 
L 3047 1625 
L 3713 1625 
L 3713 1100 
L 3047 1100 
L 3047 0 
L 2419 0 
L 2419 1100 
L 313 1100 
L 313 1709 
L 2253 4666 
z
" transform="scale(0.015625)"/>
       </defs>
       <use xlink:href="#DejaVuSans-34"/>
       <use xlink:href="#DejaVuSans-30" x="63.623047"/>
      </g>
     </g>
    </g>
    <g id="xtick_4">
     <g id="text_4">
      <!-- 60 -->
      <g transform="translate(602.417625 366.30265) scale(0.08 -0.08)">
       <defs>
        <path id="DejaVuSans-36" d="M 2113 2584 
Q 1688 2584 1439 2293 
Q 1191 2003 1191 1497 
Q 1191 994 1439 701 
Q 1688 409 2113 409 
Q 2538 409 2786 701 
Q 3034 994 3034 1497 
Q 3034 2003 2786 2293 
Q 2538 2584 2113 2584 
z
M 3366 4563 
L 3366 3988 
Q 3128 4100 2886 4159 
Q 2644 4219 2406 4219 
Q 1781 4219 1451 3797 
Q 1122 3375 1075 2522 
Q 1259 2794 1537 2939 
Q 1816 3084 2150 3084 
Q 2853 3084 3261 2657 
Q 3669 2231 3669 1497 
Q 3669 778 3244 343 
Q 2819 -91 2113 -91 
Q 1303 -91 875 529 
Q 447 1150 447 2328 
Q 447 3434 972 4092 
Q 1497 4750 2381 4750 
Q 2619 4750 2861 4703 
Q 3103 4656 3366 4563 
z
" transform="scale(0.015625)"/>
       </defs>
       <use xlink:href="#DejaVuSans-36"/>
       <use xlink:href="#DejaVuSans-30" x="63.623047"/>
      </g>
     </g>
    </g>
    <g id="xtick_5">
     <g id="text_5">
      <!-- 80 -->
      <g transform="translate(791.386625 366.30265) scale(0.08 -0.08)">
       <defs>
        <path id="DejaVuSans-38" d="M 2034 2216 
Q 1584 2216 1326 1975 
Q 1069 1734 1069 1313 
Q 1069 891 1326 650 
Q 1584 409 2034 409 
Q 2484 409 2743 651 
Q 3003 894 3003 1313 
Q 3003 1734 2745 1975 
Q 2488 2216 2034 2216 
z
M 1403 2484 
Q 997 2584 770 2862 
Q 544 3141 544 3541 
Q 544 4100 942 4425 
Q 1341 4750 2034 4750 
Q 2731 4750 3128 4425 
Q 3525 4100 3525 3541 
Q 3525 3141 3298 2862 
Q 3072 2584 2669 2484 
Q 3125 2378 3379 2068 
Q 3634 1759 3634 1313 
Q 3634 634 3220 271 
Q 2806 -91 2034 -91 
Q 1263 -91 848 271 
Q 434 634 434 1313 
Q 434 1759 690 2068 
Q 947 2378 1403 2484 
z
M 1172 3481 
Q 1172 3119 1398 2916 
Q 1625 2713 2034 2713 
Q 2441 2713 2670 2916 
Q 2900 3119 2900 3481 
Q 2900 3844 2670 4047 
Q 2441 4250 2034 4250 
Q 1625 4250 1398 4047 
Q 1172 3844 1172 3481 
z
" transform="scale(0.015625)"/>
       </defs>
       <use xlink:href="#DejaVuSans-38"/>
       <use xlink:href="#DejaVuSans-30" x="63.623047"/>
      </g>
     </g>
    </g>
    <g id="xtick_6">
     <g id="text_6">
      <!-- 100 -->
      <g transform="translate(977.810625 366.30265) scale(0.08 -0.08)">
       <defs>
        <path id="DejaVuSans-31" d="M 794 531 
L 1825 531 
L 1825 4091 
L 703 3866 
L 703 4441 
L 1819 4666 
L 2450 4666 
L 2450 531 
L 3481 531 
L 3481 0 
L 794 0 
L 794 531 
z
" transform="scale(0.015625)"/>
       </defs>
       <use xlink:href="#DejaVuSans-31"/>
       <use xlink:href="#DejaVuSans-30" x="63.623047"/>
       <use xlink:href="#DejaVuSans-30" x="127.246094"/>
      </g>
     </g>
    </g>
    <g id="text_7">
     <!-- Transcript Position (%) -->
     <g transform="translate(457.191094 379.564837) scale(0.1 -0.1)">
      <defs>
       <path id="DejaVuSans-54" d="M -19 4666 
L 3928 4666 
L 3928 4134 
L 2272 4134 
L 2272 0 
L 1638 0 
L 1638 4134 
L -19 4134 
L -19 4666 
z
" transform="scale(0.015625)"/>
       <path id="DejaVuSans-72" d="M 2631 2963 
Q 2534 3019 2420 3045 
Q 2306 3072 2169 3072 
Q 1681 3072 1420 2755 
Q 1159 2438 1159 1844 
L 1159 0 
L 581 0 
L 581 3500 
L 1159 3500 
L 1159 2956 
Q 1341 3275 1631 3429 
Q 1922 3584 2338 3584 
Q 2397 3584 2469 3576 
Q 2541 3569 2628 3553 
L 2631 2963 
z
" transform="scale(0.015625)"/>
       <path id="DejaVuSans-61" d="M 2194 1759 
Q 1497 1759 1228 1600 
Q 959 1441 959 1056 
Q 959 750 1161 570 
Q 1363 391 1709 391 
Q 2188 391 2477 730 
Q 2766 1069 2766 1631 
L 2766 1759 
L 2194 1759 
z
M 3341 1997 
L 3341 0 
L 2766 0 
L 2766 531 
Q 2569 213 2275 61 
Q 1981 -91 1556 -91 
Q 1019 -91 701 211 
Q 384 513 384 1019 
Q 384 1609 779 1909 
Q 1175 2209 1959 2209 
L 2766 2209 
L 2766 2266 
Q 2766 2663 2505 2880 
Q 2244 3097 1772 3097 
Q 1472 3097 1187 3025 
Q 903 2953 641 2809 
L 641 3341 
Q 956 3463 1253 3523 
Q 1550 3584 1831 3584 
Q 2591 3584 2966 3190 
Q 3341 2797 3341 1997 
z
" transform="scale(0.015625)"/>
       <path id="DejaVuSans-6e" d="M 3513 2113 
L 3513 0 
L 2938 0 
L 2938 2094 
Q 2938 2591 2744 2837 
Q 2550 3084 2163 3084 
Q 1697 3084 1428 2787 
Q 1159 2491 1159 1978 
L 1159 0 
L 581 0 
L 581 3500 
L 1159 3500 
L 1159 2956 
Q 1366 3272 1645 3428 
Q 1925 3584 2291 3584 
Q 2894 3584 3203 3211 
Q 3513 2838 3513 2113 
z
" transform="scale(0.015625)"/>
       <path id="DejaVuSans-73" d="M 2834 3397 
L 2834 2853 
Q 2591 2978 2328 3040 
Q 2066 3103 1784 3103 
Q 1356 3103 1142 2972 
Q 928 2841 928 2578 
Q 928 2378 1081 2264 
Q 1234 2150 1697 2047 
L 1894 2003 
Q 2506 1872 2764 1633 
Q 3022 1394 3022 966 
Q 3022 478 2636 193 
Q 2250 -91 1575 -91 
Q 1294 -91 989 -36 
Q 684 19 347 128 
L 347 722 
Q 666 556 975 473 
Q 1284 391 1588 391 
Q 1994 391 2212 530 
Q 2431 669 2431 922 
Q 2431 1156 2273 1281 
Q 2116 1406 1581 1522 
L 1381 1569 
Q 847 1681 609 1914 
Q 372 2147 372 2553 
Q 372 3047 722 3315 
Q 1072 3584 1716 3584 
Q 2034 3584 2315 3537 
Q 2597 3491 2834 3397 
z
" transform="scale(0.015625)"/>
       <path id="DejaVuSans-63" d="M 3122 3366 
L 3122 2828 
Q 2878 2963 2633 3030 
Q 2388 3097 2138 3097 
Q 1578 3097 1268 2742 
Q 959 2388 959 1747 
Q 959 1106 1268 751 
Q 1578 397 2138 397 
Q 2388 397 2633 464 
Q 2878 531 3122 666 
L 3122 134 
Q 2881 22 2623 -34 
Q 2366 -91 2075 -91 
Q 1284 -91 818 406 
Q 353 903 353 1747 
Q 353 2603 823 3093 
Q 1294 3584 2113 3584 
Q 2378 3584 2631 3529 
Q 2884 3475 3122 3366 
z
" transform="scale(0.015625)"/>
       <path id="DejaVuSans-69" d="M 603 3500 
L 1178 3500 
L 1178 0 
L 603 0 
L 603 3500 
z
M 603 4863 
L 1178 4863 
L 1178 4134 
L 603 4134 
L 603 4863 
z
" transform="scale(0.015625)"/>
       <path id="DejaVuSans-70" d="M 1159 525 
L 1159 -1331 
L 581 -1331 
L 581 3500 
L 1159 3500 
L 1159 2969 
Q 1341 3281 1617 3432 
Q 1894 3584 2278 3584 
Q 2916 3584 3314 3078 
Q 3713 2572 3713 1747 
Q 3713 922 3314 415 
Q 2916 -91 2278 -91 
Q 1894 -91 1617 61 
Q 1341 213 1159 525 
z
M 3116 1747 
Q 3116 2381 2855 2742 
Q 2594 3103 2138 3103 
Q 1681 3103 1420 2742 
Q 1159 2381 1159 1747 
Q 1159 1113 1420 752 
Q 1681 391 2138 391 
Q 2594 391 2855 752 
Q 3116 1113 3116 1747 
z
" transform="scale(0.015625)"/>
       <path id="DejaVuSans-74" d="M 1172 4494 
L 1172 3500 
L 2356 3500 
L 2356 3053 
L 1172 3053 
L 1172 1153 
Q 1172 725 1289 603 
Q 1406 481 1766 481 
L 2356 481 
L 2356 0 
L 1766 0 
Q 1100 0 847 248 
Q 594 497 594 1153 
L 594 3053 
L 172 3053 
L 172 3500 
L 594 3500 
L 594 4494 
L 1172 4494 
z
" transform="scale(0.015625)"/>
       <path id="DejaVuSans-20" transform="scale(0.015625)"/>
       <path id="DejaVuSans-50" d="M 1259 4147 
L 1259 2394 
L 2053 2394 
Q 2494 2394 2734 2622 
Q 2975 2850 2975 3272 
Q 2975 3691 2734 3919 
Q 2494 4147 2053 4147 
L 1259 4147 
z
M 628 4666 
L 2053 4666 
Q 2838 4666 3239 4311 
Q 3641 3956 3641 3272 
Q 3641 2581 3239 2228 
Q 2838 1875 2053 1875 
L 1259 1875 
L 1259 0 
L 628 0 
L 628 4666 
z
" transform="scale(0.015625)"/>
       <path id="DejaVuSans-6f" d="M 1959 3097 
Q 1497 3097 1228 2736 
Q 959 2375 959 1747 
Q 959 1119 1226 758 
Q 1494 397 1959 397 
Q 2419 397 2687 759 
Q 2956 1122 2956 1747 
Q 2956 2369 2687 2733 
Q 2419 3097 1959 3097 
z
M 1959 3584 
Q 2709 3584 3137 3096 
Q 3566 2609 3566 1747 
Q 3566 888 3137 398 
Q 2709 -91 1959 -91 
Q 1206 -91 779 398 
Q 353 888 353 1747 
Q 353 2609 779 3096 
Q 1206 3584 1959 3584 
z
" transform="scale(0.015625)"/>
       <path id="DejaVuSans-28" d="M 1984 4856 
Q 1566 4138 1362 3434 
Q 1159 2731 1159 2009 
Q 1159 1288 1364 580 
Q 1569 -128 1984 -844 
L 1484 -844 
Q 1016 -109 783 600 
Q 550 1309 550 2009 
Q 550 2706 781 3412 
Q 1013 4119 1484 4856 
L 1984 4856 
z
" transform="scale(0.015625)"/>
       <path id="DejaVuSans-25" d="M 4653 2053 
Q 4381 2053 4226 1822 
Q 4072 1591 4072 1178 
Q 4072 772 4226 539 
Q 4381 306 4653 306 
Q 4919 306 5073 539 
Q 5228 772 5228 1178 
Q 5228 1588 5073 1820 
Q 4919 2053 4653 2053 
z
M 4653 2450 
Q 5147 2450 5437 2106 
Q 5728 1763 5728 1178 
Q 5728 594 5436 251 
Q 5144 -91 4653 -91 
Q 4153 -91 3862 251 
Q 3572 594 3572 1178 
Q 3572 1766 3864 2108 
Q 4156 2450 4653 2450 
z
M 1428 4353 
Q 1159 4353 1004 4120 
Q 850 3888 850 3481 
Q 850 3069 1003 2837 
Q 1156 2606 1428 2606 
Q 1700 2606 1854 2837 
Q 2009 3069 2009 3481 
Q 2009 3884 1853 4118 
Q 1697 4353 1428 4353 
z
M 4250 4750 
L 4750 4750 
L 1831 -91 
L 1331 -91 
L 4250 4750 
z
M 1428 4750 
Q 1922 4750 2215 4408 
Q 2509 4066 2509 3481 
Q 2509 2891 2217 2550 
Q 1925 2209 1428 2209 
Q 931 2209 642 2551 
Q 353 2894 353 3481 
Q 353 4063 643 4406 
Q 934 4750 1428 4750 
z
" transform="scale(0.015625)"/>
       <path id="DejaVuSans-29" d="M 513 4856 
L 1013 4856 
Q 1481 4119 1714 3412 
Q 1947 2706 1947 2009 
Q 1947 1309 1714 600 
Q 1481 -109 1013 -844 
L 513 -844 
Q 928 -128 1133 580 
Q 1338 1288 1338 2009 
Q 1338 2731 1133 3434 
Q 928 4138 513 4856 
z
" transform="scale(0.015625)"/>
      </defs>
      <use xlink:href="#DejaVuSans-54"/>
      <use xlink:href="#DejaVuSans-72" x="46.333984"/>
      <use xlink:href="#DejaVuSans-61" x="87.447266"/>
      <use xlink:href="#DejaVuSans-6e" x="148.726562"/>
      <use xlink:href="#DejaVuSans-73" x="212.105469"/>
      <use xlink:href="#DejaVuSans-63" x="264.205078"/>
      <use xlink:href="#DejaVuSans-72" x="319.185547"/>
      <use xlink:href="#DejaVuSans-69" x="360.298828"/>
      <use xlink:href="#DejaVuSans-70" x="388.082031"/>
      <use xlink:href="#DejaVuSans-74" x="451.558594"/>
      <use xlink:href="#DejaVuSans-20" x="490.767578"/>
      <use xlink:href="#DejaVuSans-50" x="522.554688"/>
      <use xlink:href="#DejaVuSans-6f" x="579.232422"/>
      <use xlink:href="#DejaVuSans-73" x="640.414062"/>
      <use xlink:href="#DejaVuSans-69" x="692.513672"/>
      <use xlink:href="#DejaVuSans-74" x="720.296875"/>
      <use xlink:href="#DejaVuSans-69" x="759.505859"/>
      <use xlink:href="#DejaVuSans-6f" x="787.289062"/>
      <use xlink:href="#DejaVuSans-6e" x="848.470703"/>
      <use xlink:href="#DejaVuSans-20" x="911.849609"/>
      <use xlink:href="#DejaVuSans-28" x="943.636719"/>
      <use xlink:href="#DejaVuSans-25" x="982.650391"/>
      <use xlink:href="#DejaVuSans-29" x="1077.669922"/>
     </g>
    </g>
   </g>
   <g id="matplotlib.axis_2">
    <g id="ytick_1">
     <g id="line2d_1">
      <path d="M 40.600625 353.2239 
L 985.445625 353.2239 
" clip-path="url(#p74ef1b2863)" style="fill: none; stroke: #dedede; stroke-linecap: square"/>
     </g>
     <g id="text_8">
      <!-- 0.0 -->
      <g transform="translate(20.878125 356.263275) scale(0.08 -0.08)">
       <defs>
        <path id="DejaVuSans-2e" d="M 684 794 
L 1344 794 
L 1344 0 
L 684 0 
L 684 794 
z
" transform="scale(0.015625)"/>
       </defs>
       <use xlink:href="#DejaVuSans-30"/>
       <use xlink:href="#DejaVuSans-2e" x="63.623047"/>
       <use xlink:href="#DejaVuSans-30" x="95.410156"/>
      </g>
     </g>
    </g>
    <g id="ytick_2">
     <g id="line2d_2">
      <path d="M 40.600625 303.970851 
L 985.445625 303.970851 
" clip-path="url(#p74ef1b2863)" style="fill: none; stroke: #dedede; stroke-linecap: square"/>
     </g>
     <g id="text_9">
      <!-- 0.2 -->
      <g transform="translate(20.878125 307.010226) scale(0.08 -0.08)">
       <use xlink:href="#DejaVuSans-30"/>
       <use xlink:href="#DejaVuSans-2e" x="63.623047"/>
       <use xlink:href="#DejaVuSans-32" x="95.410156"/>
      </g>
     </g>
    </g>
    <g id="ytick_3">
     <g id="line2d_3">
      <path d="M 40.600625 254.717803 
L 985.445625 254.717803 
" clip-path="url(#p74ef1b2863)" style="fill: none; stroke: #dedede; stroke-linecap: square"/>
     </g>
     <g id="text_10">
      <!-- 0.4 -->
      <g transform="translate(20.878125 257.757178) scale(0.08 -0.08)">
       <use xlink:href="#DejaVuSans-30"/>
       <use xlink:href="#DejaVuSans-2e" x="63.623047"/>
       <use xlink:href="#DejaVuSans-34" x="95.410156"/>
      </g>
     </g>
    </g>
    <g id="ytick_4">
     <g id="line2d_4">
      <path d="M 40.600625 205.464754 
L 985.445625 205.464754 
" clip-path="url(#p74ef1b2863)" style="fill: none; stroke: #dedede; stroke-linecap: square"/>
     </g>
     <g id="text_11">
      <!-- 0.6 -->
      <g transform="translate(20.878125 208.504129) scale(0.08 -0.08)">
       <use xlink:href="#DejaVuSans-30"/>
       <use xlink:href="#DejaVuSans-2e" x="63.623047"/>
       <use xlink:href="#DejaVuSans-36" x="95.410156"/>
      </g>
     </g>
    </g>
    <g id="ytick_5">
     <g id="line2d_5">
      <path d="M 40.600625 156.211706 
L 985.445625 156.211706 
" clip-path="url(#p74ef1b2863)" style="fill: none; stroke: #dedede; stroke-linecap: square"/>
     </g>
     <g id="text_12">
      <!-- 0.8 -->
      <g transform="translate(20.878125 159.251081) scale(0.08 -0.08)">
       <use xlink:href="#DejaVuSans-30"/>
       <use xlink:href="#DejaVuSans-2e" x="63.623047"/>
       <use xlink:href="#DejaVuSans-38" x="95.410156"/>
      </g>
     </g>
    </g>
    <g id="ytick_6">
     <g id="line2d_6">
      <path d="M 40.600625 106.958657 
L 985.445625 106.958657 
" clip-path="url(#p74ef1b2863)" style="fill: none; stroke: #dedede; stroke-linecap: square"/>
     </g>
     <g id="text_13">
      <!-- 1.0 -->
      <g transform="translate(20.878125 109.998032) scale(0.08 -0.08)">
       <use xlink:href="#DejaVuSans-31"/>
       <use xlink:href="#DejaVuSans-2e" x="63.623047"/>
       <use xlink:href="#DejaVuSans-30" x="95.410156"/>
      </g>
     </g>
    </g>
    <g id="ytick_7">
     <g id="line2d_7">
      <path d="M 40.600625 57.705608 
L 985.445625 57.705608 
" clip-path="url(#p74ef1b2863)" style="fill: none; stroke: #dedede; stroke-linecap: square"/>
     </g>
     <g id="text_14">
      <!-- 1.2 -->
      <g transform="translate(20.878125 60.744983) scale(0.08 -0.08)">
       <use xlink:href="#DejaVuSans-31"/>
       <use xlink:href="#DejaVuSans-2e" x="63.623047"/>
       <use xlink:href="#DejaVuSans-32" x="95.410156"/>
      </g>
     </g>
    </g>
    <g id="text_15">
     <!-- Percentage total cumulative mapped-read depth -->
     <g transform="translate(14.798438 316.09615) rotate(-90) scale(0.1 -0.1)">
      <defs>
       <path id="DejaVuSans-65" d="M 3597 1894 
L 3597 1613 
L 953 1613 
Q 991 1019 1311 708 
Q 1631 397 2203 397 
Q 2534 397 2845 478 
Q 3156 559 3463 722 
L 3463 178 
Q 3153 47 2828 -22 
Q 2503 -91 2169 -91 
Q 1331 -91 842 396 
Q 353 884 353 1716 
Q 353 2575 817 3079 
Q 1281 3584 2069 3584 
Q 2775 3584 3186 3129 
Q 3597 2675 3597 1894 
z
M 3022 2063 
Q 3016 2534 2758 2815 
Q 2500 3097 2075 3097 
Q 1594 3097 1305 2825 
Q 1016 2553 972 2059 
L 3022 2063 
z
" transform="scale(0.015625)"/>
       <path id="DejaVuSans-67" d="M 2906 1791 
Q 2906 2416 2648 2759 
Q 2391 3103 1925 3103 
Q 1463 3103 1205 2759 
Q 947 2416 947 1791 
Q 947 1169 1205 825 
Q 1463 481 1925 481 
Q 2391 481 2648 825 
Q 2906 1169 2906 1791 
z
M 3481 434 
Q 3481 -459 3084 -895 
Q 2688 -1331 1869 -1331 
Q 1566 -1331 1297 -1286 
Q 1028 -1241 775 -1147 
L 775 -588 
Q 1028 -725 1275 -790 
Q 1522 -856 1778 -856 
Q 2344 -856 2625 -561 
Q 2906 -266 2906 331 
L 2906 616 
Q 2728 306 2450 153 
Q 2172 0 1784 0 
Q 1141 0 747 490 
Q 353 981 353 1791 
Q 353 2603 747 3093 
Q 1141 3584 1784 3584 
Q 2172 3584 2450 3431 
Q 2728 3278 2906 2969 
L 2906 3500 
L 3481 3500 
L 3481 434 
z
" transform="scale(0.015625)"/>
       <path id="DejaVuSans-6c" d="M 603 4863 
L 1178 4863 
L 1178 0 
L 603 0 
L 603 4863 
z
" transform="scale(0.015625)"/>
       <path id="DejaVuSans-75" d="M 544 1381 
L 544 3500 
L 1119 3500 
L 1119 1403 
Q 1119 906 1312 657 
Q 1506 409 1894 409 
Q 2359 409 2629 706 
Q 2900 1003 2900 1516 
L 2900 3500 
L 3475 3500 
L 3475 0 
L 2900 0 
L 2900 538 
Q 2691 219 2414 64 
Q 2138 -91 1772 -91 
Q 1169 -91 856 284 
Q 544 659 544 1381 
z
M 1991 3584 
L 1991 3584 
z
" transform="scale(0.015625)"/>
       <path id="DejaVuSans-6d" d="M 3328 2828 
Q 3544 3216 3844 3400 
Q 4144 3584 4550 3584 
Q 5097 3584 5394 3201 
Q 5691 2819 5691 2113 
L 5691 0 
L 5113 0 
L 5113 2094 
Q 5113 2597 4934 2840 
Q 4756 3084 4391 3084 
Q 3944 3084 3684 2787 
Q 3425 2491 3425 1978 
L 3425 0 
L 2847 0 
L 2847 2094 
Q 2847 2600 2669 2842 
Q 2491 3084 2119 3084 
Q 1678 3084 1418 2786 
Q 1159 2488 1159 1978 
L 1159 0 
L 581 0 
L 581 3500 
L 1159 3500 
L 1159 2956 
Q 1356 3278 1631 3431 
Q 1906 3584 2284 3584 
Q 2666 3584 2933 3390 
Q 3200 3197 3328 2828 
z
" transform="scale(0.015625)"/>
       <path id="DejaVuSans-76" d="M 191 3500 
L 800 3500 
L 1894 563 
L 2988 3500 
L 3597 3500 
L 2284 0 
L 1503 0 
L 191 3500 
z
" transform="scale(0.015625)"/>
       <path id="DejaVuSans-64" d="M 2906 2969 
L 2906 4863 
L 3481 4863 
L 3481 0 
L 2906 0 
L 2906 525 
Q 2725 213 2448 61 
Q 2172 -91 1784 -91 
Q 1150 -91 751 415 
Q 353 922 353 1747 
Q 353 2572 751 3078 
Q 1150 3584 1784 3584 
Q 2172 3584 2448 3432 
Q 2725 3281 2906 2969 
z
M 947 1747 
Q 947 1113 1208 752 
Q 1469 391 1925 391 
Q 2381 391 2643 752 
Q 2906 1113 2906 1747 
Q 2906 2381 2643 2742 
Q 2381 3103 1925 3103 
Q 1469 3103 1208 2742 
Q 947 2381 947 1747 
z
" transform="scale(0.015625)"/>
       <path id="DejaVuSans-2d" d="M 313 2009 
L 1997 2009 
L 1997 1497 
L 313 1497 
L 313 2009 
z
" transform="scale(0.015625)"/>
       <path id="DejaVuSans-68" d="M 3513 2113 
L 3513 0 
L 2938 0 
L 2938 2094 
Q 2938 2591 2744 2837 
Q 2550 3084 2163 3084 
Q 1697 3084 1428 2787 
Q 1159 2491 1159 1978 
L 1159 0 
L 581 0 
L 581 4863 
L 1159 4863 
L 1159 2956 
Q 1366 3272 1645 3428 
Q 1925 3584 2291 3584 
Q 2894 3584 3203 3211 
Q 3513 2838 3513 2113 
z
" transform="scale(0.015625)"/>
      </defs>
      <use xlink:href="#DejaVuSans-50"/>
      <use xlink:href="#DejaVuSans-65" x="56.677734"/>
      <use xlink:href="#DejaVuSans-72" x="118.201172"/>
      <use xlink:href="#DejaVuSans-63" x="157.064453"/>
      <use xlink:href="#DejaVuSans-65" x="212.044922"/>
      <use xlink:href="#DejaVuSans-6e" x="273.568359"/>
      <use xlink:href="#DejaVuSans-74" x="336.947266"/>
      <use xlink:href="#DejaVuSans-61" x="376.15625"/>
      <use xlink:href="#DejaVuSans-67" x="437.435547"/>
      <use xlink:href="#DejaVuSans-65" x="500.912109"/>
      <use xlink:href="#DejaVuSans-20" x="562.435547"/>
      <use xlink:href="#DejaVuSans-74" x="594.222656"/>
      <use xlink:href="#DejaVuSans-6f" x="633.431641"/>
      <use xlink:href="#DejaVuSans-74" x="694.613281"/>
      <use xlink:href="#DejaVuSans-61" x="733.822266"/>
      <use xlink:href="#DejaVuSans-6c" x="795.101562"/>
      <use xlink:href="#DejaVuSans-20" x="822.884766"/>
      <use xlink:href="#DejaVuSans-63" x="854.671875"/>
      <use xlink:href="#DejaVuSans-75" x="909.652344"/>
      <use xlink:href="#DejaVuSans-6d" x="973.03125"/>
      <use xlink:href="#DejaVuSans-75" x="1070.443359"/>
      <use xlink:href="#DejaVuSans-6c" x="1133.822266"/>
      <use xlink:href="#DejaVuSans-61" x="1161.605469"/>
      <use xlink:href="#DejaVuSans-74" x="1222.884766"/>
      <use xlink:href="#DejaVuSans-69" x="1262.09375"/>
      <use xlink:href="#DejaVuSans-76" x="1289.876953"/>
      <use xlink:href="#DejaVuSans-65" x="1349.056641"/>
      <use xlink:href="#DejaVuSans-20" x="1410.580078"/>
      <use xlink:href="#DejaVuSans-6d" x="1442.367188"/>
      <use xlink:href="#DejaVuSans-61" x="1539.779297"/>
      <use xlink:href="#DejaVuSans-70" x="1601.058594"/>
      <use xlink:href="#DejaVuSans-70" x="1664.535156"/>
      <use xlink:href="#DejaVuSans-65" x="1728.011719"/>
      <use xlink:href="#DejaVuSans-64" x="1789.535156"/>
      <use xlink:href="#DejaVuSans-2d" x="1853.011719"/>
      <use xlink:href="#DejaVuSans-72" x="1889.095703"/>
      <use xlink:href="#DejaVuSans-65" x="1927.958984"/>
      <use xlink:href="#DejaVuSans-61" x="1989.482422"/>
      <use xlink:href="#DejaVuSans-64" x="2050.761719"/>
      <use xlink:href="#DejaVuSans-20" x="2114.238281"/>
      <use xlink:href="#DejaVuSans-64" x="2146.025391"/>
      <use xlink:href="#DejaVuSans-65" x="2209.501953"/>
      <use xlink:href="#DejaVuSans-70" x="2271.025391"/>
      <use xlink:href="#DejaVuSans-74" x="2334.501953"/>
      <use xlink:href="#DejaVuSans-68" x="2373.710938"/>
     </g>
    </g>
   </g>
   <g id="line2d_8">
    <path d="M 40.600625 268.503909 
L 50.049075 264.476438 
L 59.497525 257.590165 
L 68.945975 246.588118 
L 78.394425 232.144942 
L 87.842875 216.095769 
L 97.291325 198.458336 
L 106.739775 183.681588 
L 116.188225 171.571212 
L 125.636675 158.776505 
L 135.085125 146.115926 
L 144.533575 134.955264 
L 153.982025 126.582335 
L 163.430475 117.569831 
L 172.878925 110.016843 
L 182.327375 104.300739 
L 191.775825 99.68596 
L 201.224275 95.009965 
L 210.672725 88.798683 
L 220.121175 83.702205 
L 229.569625 79.277325 
L 239.018075 74.777859 
L 248.466525 72.109808 
L 257.914975 68.778258 
L 267.363425 66.592295 
L 276.811875 65.784287 
L 286.260325 64.688753 
L 295.708775 63.05801 
L 305.157225 60.718569 
L 314.605675 60.144584 
L 324.054125 58.725631 
L 333.502575 55.668873 
L 342.951025 55.506298 
L 352.399475 54.442158 
L 361.847925 53.771239 
L 371.296375 52.083395 
L 380.744825 53.633312 
L 390.193275 55.426077 
L 399.641725 54.526352 
L 409.090175 54.510731 
L 418.538625 54.377318 
L 427.987075 55.400011 
L 437.435525 56.399319 
L 446.883975 56.867497 
L 456.332425 58.781407 
L 465.780875 60.191955 
L 475.229325 60.956176 
L 484.677775 60.250365 
L 494.126225 60.314827 
L 503.574675 61.220661 
L 513.023125 62.179585 
L 522.471575 63.301859 
L 531.920025 66.633503 
L 541.368475 67.913495 
L 550.816925 70.564071 
L 560.265375 74.054243 
L 569.713825 77.767033 
L 579.162275 78.733757 
L 588.610725 79.612571 
L 598.059175 78.38603 
L 607.507625 77.079264 
L 616.956075 77.468864 
L 626.404525 78.176287 
L 635.852975 78.179316 
L 645.301425 79.081816 
L 654.749875 79.211705 
L 664.198325 80.077714 
L 673.646775 81.38104 
L 683.095225 84.410954 
L 692.543675 86.797673 
L 701.992125 89.264943 
L 711.440575 91.093283 
L 720.889025 91.163438 
L 730.337475 90.262586 
L 739.785925 91.853107 
L 749.234375 94.165565 
L 758.682825 94.968564 
L 768.131275 95.962285 
L 777.579725 98.141268 
L 787.028175 100.505052 
L 796.476625 102.834704 
L 805.925075 103.689063 
L 815.373525 104.412978 
L 824.821975 105.905824 
L 834.270425 107.399259 
L 843.718875 107.360944 
L 853.167325 108.805475 
L 862.615775 111.894089 
L 872.064225 113.897426 
L 881.512675 117.726825 
L 890.961125 123.122524 
L 900.409575 130.784171 
L 909.858025 140.294841 
L 919.306475 153.925709 
L 928.754925 171.183909 
L 938.203375 193.360626 
L 947.651825 223.103592 
L 957.100275 260.474236 
L 966.548725 302.847266 
L 975.997175 340.843292 
" clip-path="url(#p74ef1b2863)" style="fill: none; stroke: #7cb5ec; stroke-linecap: square"/>
   </g>
   <g id="line2d_9">
    <path d="M 40.600625 253.724643 
L 50.049075 248.719821 
L 59.497525 240.472484 
L 68.945975 228.86387 
L 78.394425 214.791712 
L 87.842875 199.614416 
L 97.291325 183.150408 
L 106.739775 169.047104 
L 116.188225 157.471739 
L 125.636675 145.130456 
L 135.085125 133.430441 
L 144.533575 121.824289 
L 153.982025 114.303586 
L 163.430475 105.563053 
L 172.878925 99.12982 
L 182.327375 95.851286 
L 191.775825 92.900122 
L 201.224275 89.344743 
L 210.672725 84.832345 
L 220.121175 79.642639 
L 229.569625 75.757603 
L 239.018075 70.867369 
L 248.466525 68.795397 
L 257.914975 66.882554 
L 267.363425 65.629857 
L 276.811875 65.891729 
L 286.260325 65.342108 
L 295.708775 64.845816 
L 305.157225 63.206246 
L 314.605675 63.208598 
L 324.054125 61.191415 
L 333.502575 58.454849 
L 342.951025 58.263305 
L 352.399475 57.300593 
L 361.847925 56.607625 
L 371.296375 55.975348 
L 380.744825 57.734141 
L 390.193275 59.557805 
L 399.641725 59.253114 
L 409.090175 59.125045 
L 418.538625 59.409807 
L 427.987075 61.069381 
L 437.435525 62.372379 
L 446.883975 63.325867 
L 456.332425 65.152633 
L 465.780875 65.215828 
L 475.229325 65.165793 
L 484.677775 64.852501 
L 494.126225 64.067018 
L 503.574675 64.640975 
L 513.023125 65.317893 
L 522.471575 64.669849 
L 531.920025 67.170602 
L 541.368475 67.552927 
L 550.816925 70.322745 
L 560.265375 74.119405 
L 569.713825 78.980569 
L 579.162275 80.56518 
L 588.610725 81.448403 
L 598.059175 81.332686 
L 607.507625 79.769889 
L 616.956075 80.322997 
L 626.404525 82.540934 
L 635.852975 83.162906 
L 645.301425 84.575034 
L 654.749875 85.548435 
L 664.198325 86.862622 
L 673.646775 87.823898 
L 683.095225 90.104285 
L 692.543675 92.223075 
L 701.992125 94.541434 
L 711.440575 95.529674 
L 720.889025 95.740858 
L 730.337475 93.773265 
L 739.785925 94.885003 
L 749.234375 98.371674 
L 758.682825 100.540125 
L 768.131275 102.779832 
L 777.579725 105.388905 
L 787.028175 108.339416 
L 796.476625 110.447211 
L 805.925075 110.442149 
L 815.373525 109.927549 
L 824.821975 111.434735 
L 834.270425 111.866238 
L 843.718875 112.02173 
L 853.167325 112.523883 
L 862.615775 114.255867 
L 872.064225 116.261678 
L 881.512675 120.139175 
L 890.961125 126.448076 
L 900.409575 133.455842 
L 909.858025 142.004246 
L 919.306475 154.697558 
L 928.754925 171.787602 
L 938.203375 193.034462 
L 947.651825 222.328164 
L 957.100275 259.268581 
L 966.548725 301.656842 
L 975.997175 340.587923 
" clip-path="url(#p74ef1b2863)" style="fill: none; stroke: #434348; stroke-linecap: square"/>
   </g>
   <g id="line2d_10">
    <path d="M 40.600625 260.053742 
L 50.049075 257.0808 
L 59.497525 252.08011 
L 68.945975 243.159904 
L 78.394425 230.862639 
L 87.842875 215.968183 
L 97.291325 200.525398 
L 106.739775 187.178723 
L 116.188225 175.500336 
L 125.636675 163.299451 
L 135.085125 151.359015 
L 144.533575 140.752783 
L 153.982025 133.106604 
L 163.430475 124.46837 
L 172.878925 117.78824 
L 182.327375 113.119807 
L 191.775825 109.182866 
L 201.224275 104.643393 
L 210.672725 99.62355 
L 220.121175 94.125562 
L 229.569625 89.728874 
L 239.018075 84.94474 
L 248.466525 81.137887 
L 257.914975 77.694358 
L 267.363425 75.33899 
L 276.811875 73.800454 
L 286.260325 72.506843 
L 295.708775 70.642836 
L 305.157225 68.18992 
L 314.605675 67.526825 
L 324.054125 65.587363 
L 333.502575 61.93577 
L 342.951025 61.681986 
L 352.399475 60.741805 
L 361.847925 59.93512 
L 371.296375 58.349082 
L 380.744825 59.721885 
L 390.193275 61.418801 
L 399.641725 60.365493 
L 409.090175 59.931465 
L 418.538625 59.249623 
L 427.987075 60.190568 
L 437.435525 60.674123 
L 446.883975 61.193826 
L 456.332425 62.313519 
L 465.780875 62.697064 
L 475.229325 62.757629 
L 484.677775 62.111425 
L 494.126225 61.014194 
L 503.574675 61.12647 
L 513.023125 61.079644 
L 522.471575 60.609658 
L 531.920025 63.292016 
L 541.368475 64.178879 
L 550.816925 66.933161 
L 560.265375 70.145548 
L 569.713825 73.785427 
L 579.162275 74.623072 
L 588.610725 75.145148 
L 598.059175 73.951195 
L 607.507625 71.715328 
L 616.956075 71.702813 
L 626.404525 72.482585 
L 635.852975 72.515756 
L 645.301425 73.611956 
L 654.749875 73.678394 
L 664.198325 74.356212 
L 673.646775 75.535024 
L 683.095225 78.252257 
L 692.543675 80.31265 
L 701.992125 82.691203 
L 711.440575 84.062494 
L 720.889025 84.495195 
L 730.337475 83.027948 
L 739.785925 84.034073 
L 749.234375 86.875981 
L 758.682825 88.272474 
L 768.131275 89.438019 
L 777.579725 92.034866 
L 787.028175 94.939393 
L 796.476625 97.255214 
L 805.925075 97.613907 
L 815.373525 97.599578 
L 824.821975 98.315917 
L 834.270425 99.039328 
L 843.718875 99.290008 
L 853.167325 101.139137 
L 862.615775 103.959002 
L 872.064225 107.07627 
L 881.512675 112.024255 
L 890.961125 118.799957 
L 900.409575 126.935422 
L 909.858025 137.409823 
L 919.306475 151.719899 
L 928.754925 169.987953 
L 938.203375 192.698475 
L 947.651825 223.376277 
L 957.100275 261.159705 
L 966.548725 303.357841 
L 975.997175 340.940958 
" clip-path="url(#p74ef1b2863)" style="fill: none; stroke: #90ed7d; stroke-linecap: square"/>
   </g>
   <g id="line2d_11">
    <path d="M 40.600625 245.676343 
L 50.049075 239.722214 
L 59.497525 231.632579 
L 68.945975 220.339737 
L 78.394425 206.140063 
L 87.842875 189.935019 
L 97.291325 172.902553 
L 106.739775 158.669316 
L 116.188225 146.914717 
L 125.636675 134.862791 
L 135.085125 123.277139 
L 144.533575 112.747975 
L 153.982025 105.387301 
L 163.430475 96.908778 
L 172.878925 90.638021 
L 182.327375 86.80909 
L 191.775825 83.771115 
L 201.224275 79.996492 
L 210.672725 75.664626 
L 220.121175 71.168632 
L 229.569625 67.323563 
L 239.018075 63.4 
L 248.466525 61.029242 
L 257.914975 58.877149 
L 267.363425 57.759976 
L 276.811875 57.19188 
L 286.260325 56.743343 
L 295.708775 55.848508 
L 305.157225 54.117131 
L 314.605675 54.11559 
L 324.054125 52.913656 
L 333.502575 50.127349 
L 342.951025 50.963921 
L 352.399475 51.099699 
L 361.847925 51.001406 
L 371.296375 50.232337 
L 380.744825 52.256624 
L 390.193275 54.711357 
L 399.641725 54.46097 
L 409.090175 54.761285 
L 418.538625 55.163495 
L 427.987075 57.072398 
L 437.435525 58.092474 
L 446.883975 59.386016 
L 456.332425 61.510392 
L 465.780875 63.062287 
L 475.229325 64.233225 
L 484.677775 64.602385 
L 494.126225 64.863606 
L 503.574675 65.776971 
L 513.023125 66.168117 
L 522.471575 66.386957 
L 531.920025 69.744653 
L 541.368475 71.172775 
L 550.816925 74.464832 
L 560.265375 78.563721 
L 569.713825 82.878675 
L 579.162275 84.20379 
L 588.610725 85.615618 
L 598.059175 85.462974 
L 607.507625 84.097524 
L 616.956075 84.70565 
L 626.404525 86.246883 
L 635.852975 87.179951 
L 645.301425 88.637822 
L 654.749875 89.46403 
L 664.198325 90.874341 
L 673.646775 92.601013 
L 683.095225 95.428485 
L 692.543675 97.866494 
L 701.992125 100.667036 
L 711.440575 102.577381 
L 720.889025 103.508906 
L 730.337475 102.479158 
L 739.785925 104.255267 
L 749.234375 107.176992 
L 758.682825 108.802005 
L 768.131275 110.284663 
L 777.579725 113.384826 
L 787.028175 116.686847 
L 796.476625 119.441026 
L 805.925075 120.222544 
L 815.373525 120.521489 
L 824.821975 121.55207 
L 834.270425 122.380352 
L 843.718875 122.734007 
L 853.167325 124.151307 
L 862.615775 126.692205 
L 872.064225 129.251099 
L 881.512675 133.049874 
L 890.961125 138.516868 
L 900.409575 145.631708 
L 909.858025 154.448906 
L 919.306475 166.707204 
L 928.754925 182.628244 
L 938.203375 202.450984 
L 947.651825 229.597117 
L 957.100275 263.822852 
L 966.548725 303.731875 
L 975.997175 340.88385 
" clip-path="url(#p74ef1b2863)" style="fill: none; stroke: #f7a35c; stroke-linecap: square"/>
   </g>
   <g id="line2d_12">
    <path d="M 40.600625 254.850412 
L 50.049075 250.84092 
L 59.497525 243.618428 
L 68.945975 232.794455 
L 78.394425 219.03442 
L 87.842875 203.113949 
L 97.291325 186.201843 
L 106.739775 172.121225 
L 116.188225 160.254298 
L 125.636675 148.39194 
L 135.085125 136.591063 
L 144.533575 125.704065 
L 153.982025 118.094377 
L 163.430475 109.548672 
L 172.878925 103.351053 
L 182.327375 99.54883 
L 191.775825 96.260719 
L 201.224275 92.138893 
L 210.672725 87.47276 
L 220.121175 82.531504 
L 229.569625 78.517413 
L 239.018075 74.187219 
L 248.466525 71.431331 
L 257.914975 68.684468 
L 267.363425 66.703952 
L 276.811875 65.497801 
L 286.260325 64.423632 
L 295.708775 63.321776 
L 305.157225 61.622245 
L 314.605675 61.719786 
L 324.054125 60.624085 
L 333.502575 57.55984 
L 342.951025 57.63436 
L 352.399475 57.060611 
L 361.847925 56.950409 
L 371.296375 56.093746 
L 380.744825 57.843824 
L 390.193275 59.556971 
L 399.641725 58.514907 
L 409.090175 58.45195 
L 418.538625 58.201506 
L 427.987075 59.523623 
L 437.435525 60.617226 
L 446.883975 61.475167 
L 456.332425 63.339842 
L 465.780875 64.326688 
L 475.229325 65.28044 
L 484.677775 65.558352 
L 494.126225 65.612792 
L 503.574675 66.290612 
L 513.023125 66.873958 
L 522.471575 67.366743 
L 531.920025 70.38338 
L 541.368475 71.524381 
L 550.816925 74.251789 
L 560.265375 77.208735 
L 569.713825 80.867261 
L 579.162275 82.302224 
L 588.610725 83.059338 
L 598.059175 81.874341 
L 607.507625 80.227192 
L 616.956075 80.389045 
L 626.404525 81.049353 
L 635.852975 81.66506 
L 645.301425 82.655272 
L 654.749875 82.822573 
L 664.198325 83.683158 
L 673.646775 85.094032 
L 683.095225 87.685443 
L 692.543675 89.721004 
L 701.992125 92.262261 
L 711.440575 93.575991 
L 720.889025 93.359346 
L 730.337475 91.992309 
L 739.785925 92.938218 
L 749.234375 95.04574 
L 758.682825 96.040891 
L 768.131275 97.244344 
L 777.579725 99.68356 
L 787.028175 102.262444 
L 796.476625 104.205361 
L 805.925075 104.375553 
L 815.373525 104.82395 
L 824.821975 106.435534 
L 834.270425 107.429419 
L 843.718875 107.818204 
L 853.167325 108.999197 
L 862.615775 111.532003 
L 872.064225 113.98487 
L 881.512675 118.077242 
L 890.961125 124.103877 
L 900.409575 131.606619 
L 909.858025 141.444026 
L 919.306475 155.454795 
L 928.754925 173.332978 
L 938.203375 195.362104 
L 947.651825 225.14296 
L 957.100275 262.308059 
L 966.548725 304.067709 
L 975.997175 341.161461 
" clip-path="url(#p74ef1b2863)" style="fill: none; stroke: #8085e9; stroke-linecap: square"/>
   </g>
   <g id="line2d_13">
    <path d="M 40.600625 246.401034 
L 50.049075 241.707807 
L 59.497525 235.633502 
L 68.945975 225.793122 
L 78.394425 212.851121 
L 87.842875 197.42525 
L 97.291325 181.49288 
L 106.739775 168.115878 
L 116.188225 156.015905 
L 125.636675 143.575862 
L 135.085125 131.651545 
L 144.533575 121.176564 
L 153.982025 113.753607 
L 163.430475 105.364637 
L 172.878925 99.189449 
L 182.327375 94.78701 
L 191.775825 91.404345 
L 201.224275 87.742573 
L 210.672725 83.229126 
L 220.121175 78.482367 
L 229.569625 74.885739 
L 239.018075 70.992734 
L 248.466525 67.880272 
L 257.914975 64.889247 
L 267.363425 63.385557 
L 276.811875 62.093144 
L 286.260325 60.967034 
L 295.708775 59.692247 
L 305.157225 57.80349 
L 314.605675 57.756538 
L 324.054125 56.448995 
L 333.502575 53.175815 
L 342.951025 53.747424 
L 352.399475 53.565087 
L 361.847925 53.56588 
L 371.296375 52.605922 
L 380.744825 54.358263 
L 390.193275 56.983716 
L 399.641725 56.878239 
L 409.090175 56.786563 
L 418.538625 56.458842 
L 427.987075 58.039216 
L 437.435525 59.038927 
L 446.883975 60.380469 
L 456.332425 62.489431 
L 465.780875 63.451555 
L 475.229325 64.273617 
L 484.677775 64.543014 
L 494.126225 64.471732 
L 503.574675 65.30525 
L 513.023125 65.629205 
L 522.471575 66.102435 
L 531.920025 69.13722 
L 541.368475 70.113415 
L 550.816925 73.340958 
L 560.265375 76.691914 
L 569.713825 80.482967 
L 579.162275 81.82766 
L 588.610725 83.033525 
L 598.059175 82.352499 
L 607.507625 80.269598 
L 616.956075 80.599825 
L 626.404525 81.685257 
L 635.852975 82.26733 
L 645.301425 83.19827 
L 654.749875 83.851237 
L 664.198325 84.975805 
L 673.646775 86.233795 
L 683.095225 88.76638 
L 692.543675 91.067013 
L 701.992125 93.938947 
L 711.440575 95.944041 
L 720.889025 96.473282 
L 730.337475 95.353122 
L 739.785925 96.664278 
L 749.234375 99.144675 
L 758.682825 100.374538 
L 768.131275 101.608273 
L 777.579725 104.689662 
L 787.028175 108.015524 
L 796.476625 110.679132 
L 805.925075 111.266707 
L 815.373525 111.731026 
L 824.821975 113.008096 
L 834.270425 114.368646 
L 843.718875 115.203468 
L 853.167325 117.059552 
L 862.615775 120.051848 
L 872.064225 123.206847 
L 881.512675 127.612806 
L 890.961125 133.542375 
L 900.409575 141.188812 
L 909.858025 151.13114 
L 919.306475 164.809509 
L 928.754925 182.212502 
L 938.203375 203.832659 
L 947.651825 232.43738 
L 957.100275 267.578138 
L 966.548725 306.76807 
L 975.997175 341.636804 
" clip-path="url(#p74ef1b2863)" style="fill: none; stroke: #f15c80; stroke-linecap: square"/>
   </g>
   <g id="line2d_14">
    <path d="M 40.600625 242.732111 
L 50.049075 236.965766 
L 59.497525 230.090022 
L 68.945975 220.237514 
L 78.394425 207.892124 
L 87.842875 193.008061 
L 97.291325 177.74751 
L 106.739775 164.33766 
L 116.188225 152.434928 
L 125.636675 140.350551 
L 135.085125 128.780628 
L 144.533575 118.237927 
L 153.982025 111.183945 
L 163.430475 102.615997 
L 172.878925 96.534125 
L 182.327375 92.823052 
L 191.775825 90.214308 
L 201.224275 86.430938 
L 210.672725 82.407002 
L 220.121175 78.013593 
L 229.569625 74.171999 
L 239.018075 69.481426 
L 248.466525 66.253185 
L 257.914975 63.103326 
L 267.363425 61.892157 
L 276.811875 61.18727 
L 286.260325 60.616605 
L 295.708775 59.600041 
L 305.157225 57.799924 
L 314.605675 57.811219 
L 324.054125 56.328978 
L 333.502575 52.58822 
L 342.951025 53.009637 
L 352.399475 53.268892 
L 361.847925 53.694934 
L 371.296375 52.599949 
L 380.744825 54.211731 
L 390.193275 56.980468 
L 399.641725 56.978341 
L 409.090175 57.025922 
L 418.538625 57.313313 
L 427.987075 59.132418 
L 437.435525 60.346749 
L 446.883975 61.239428 
L 456.332425 62.892602 
L 465.780875 64.005832 
L 475.229325 64.899456 
L 484.677775 64.881118 
L 494.126225 64.477382 
L 503.574675 65.071494 
L 513.023125 65.223174 
L 522.471575 65.374107 
L 531.920025 68.48964 
L 541.368475 69.418519 
L 550.816925 72.51549 
L 560.265375 75.754023 
L 569.713825 79.963708 
L 579.162275 81.623647 
L 588.610725 82.60695 
L 598.059175 81.938924 
L 607.507625 80.221392 
L 616.956075 81.032943 
L 626.404525 82.927278 
L 635.852975 84.154444 
L 645.301425 85.45992 
L 654.749875 86.08671 
L 664.198325 86.954358 
L 673.646775 88.078742 
L 683.095225 90.481346 
L 692.543675 92.762998 
L 701.992125 95.343495 
L 711.440575 97.366273 
L 720.889025 98.247512 
L 730.337475 96.864439 
L 739.785925 97.617202 
L 749.234375 100.604696 
L 758.682825 102.785364 
L 768.131275 104.671608 
L 777.579725 107.794393 
L 787.028175 111.355207 
L 796.476625 114.013683 
L 805.925075 114.765048 
L 815.373525 114.912092 
L 824.821975 115.855553 
L 834.270425 116.618508 
L 843.718875 116.988256 
L 853.167325 118.302153 
L 862.615775 120.681359 
L 872.064225 123.502405 
L 881.512675 128.105441 
L 890.961125 134.7331 
L 900.409575 142.918596 
L 909.858025 152.759657 
L 919.306475 166.634013 
L 928.754925 184.588053 
L 938.203375 206.539423 
L 947.651825 234.882469 
L 957.100275 269.598543 
L 966.548725 307.854718 
L 975.997175 341.992355 
" clip-path="url(#p74ef1b2863)" style="fill: none; stroke: #e4d354; stroke-linecap: square"/>
   </g>
   <g id="line2d_15">
    <path d="M 40.600625 239.195444 
L 50.049075 232.296739 
L 59.497525 223.644637 
L 68.945975 212.160276 
L 78.394425 198.388105 
L 87.842875 182.437389 
L 97.291325 166.126668 
L 106.739775 152.209782 
L 116.188225 140.646316 
L 125.636675 129.156585 
L 135.085125 118.163902 
L 144.533575 108.392121 
L 153.982025 101.703861 
L 163.430475 93.730617 
L 172.878925 87.784967 
L 182.327375 83.799356 
L 191.775825 81.064805 
L 201.224275 77.990816 
L 210.672725 74.309913 
L 220.121175 70.47324 
L 229.569625 66.915154 
L 239.018075 63.121635 
L 248.466525 60.69001 
L 257.914975 58.609919 
L 267.363425 57.294422 
L 276.811875 56.489411 
L 286.260325 55.799219 
L 295.708775 54.622011 
L 305.157225 53.092572 
L 314.605675 53.343055 
L 324.054125 52.560981 
L 333.502575 49.862398 
L 342.951025 50.889108 
L 352.399475 51.341267 
L 361.847925 51.34453 
L 371.296375 50.510176 
L 380.744825 53.196322 
L 390.193275 56.183561 
L 399.641725 56.18484 
L 409.090175 56.709322 
L 418.538625 56.679256 
L 427.987075 58.225005 
L 437.435525 59.392435 
L 446.883975 60.792727 
L 456.332425 62.6822 
L 465.780875 64.169924 
L 475.229325 65.447614 
L 484.677775 65.723087 
L 494.126225 65.97267 
L 503.574675 66.909267 
L 513.023125 67.272049 
L 522.471575 67.775138 
L 531.920025 71.450289 
L 541.368475 73.093529 
L 550.816925 76.12409 
L 560.265375 79.967687 
L 569.713825 84.234639 
L 579.162275 85.852114 
L 588.610725 87.232428 
L 598.059175 86.88443 
L 607.507625 85.290951 
L 616.956075 86.060526 
L 626.404525 87.766313 
L 635.852975 88.45328 
L 645.301425 89.823364 
L 654.749875 90.606605 
L 664.198325 91.809854 
L 673.646775 93.610524 
L 683.095225 96.509198 
L 692.543675 99.080399 
L 701.992125 102.185464 
L 711.440575 104.71417 
L 720.889025 105.797564 
L 730.337475 104.705419 
L 739.785925 106.425215 
L 749.234375 109.558353 
L 758.682825 110.995418 
L 768.131275 112.370484 
L 777.579725 115.644544 
L 787.028175 118.966232 
L 796.476625 121.739549 
L 805.925075 122.419286 
L 815.373525 122.563846 
L 824.821975 123.57662 
L 834.270425 124.885851 
L 843.718875 125.428744 
L 853.167325 126.997617 
L 862.615775 129.801225 
L 872.064225 132.741744 
L 881.512675 136.692297 
L 890.961125 142.046442 
L 900.409575 148.79576 
L 909.858025 157.159083 
L 919.306475 169.037644 
L 928.754925 184.142052 
L 938.203375 203.042266 
L 947.651825 229.464099 
L 957.100275 263.104294 
L 966.548725 302.897368 
L 975.997175 340.640015 
" clip-path="url(#p74ef1b2863)" style="fill: none; stroke: #2b908f; stroke-linecap: square"/>
   </g>
   <g id="line2d_16">
    <path d="M 40.600625 259.219233 
L 50.049075 253.902709 
L 59.497525 245.815327 
L 68.945975 234.480468 
L 78.394425 221.16975 
L 87.842875 206.203663 
L 97.291325 190.452443 
L 106.739775 176.896872 
L 116.188225 165.406684 
L 125.636675 153.670015 
L 135.085125 142.051994 
L 144.533575 130.910154 
L 153.982025 123.726547 
L 163.430475 115.038586 
L 172.878925 108.349064 
L 182.327375 103.703293 
L 191.775825 100.141776 
L 201.224275 96.236767 
L 210.672725 91.219032 
L 220.121175 86.185397 
L 229.569625 82.83752 
L 239.018075 78.105418 
L 248.466525 75.683871 
L 257.914975 73.136688 
L 267.363425 71.59463 
L 276.811875 71.164338 
L 286.260325 70.103395 
L 295.708775 69.28282 
L 305.157225 67.064123 
L 314.605675 67.012562 
L 324.054125 65.102696 
L 333.502575 62.06696 
L 342.951025 61.980707 
L 352.399475 60.754617 
L 361.847925 59.950706 
L 371.296375 59.070093 
L 380.744825 60.744325 
L 390.193275 61.986814 
L 399.641725 61.080832 
L 409.090175 60.158222 
L 418.538625 59.857871 
L 427.987075 61.442608 
L 437.435525 62.925029 
L 446.883975 63.620058 
L 456.332425 65.172257 
L 465.780875 65.376852 
L 475.229325 65.723552 
L 484.677775 65.743828 
L 494.126225 65.097244 
L 503.574675 65.458871 
L 513.023125 65.558412 
L 522.471575 65.585023 
L 531.920025 68.100721 
L 541.368475 68.287497 
L 550.816925 70.693326 
L 560.265375 73.630862 
L 569.713825 77.832092 
L 579.162275 78.493591 
L 588.610725 78.853728 
L 598.059175 78.047448 
L 607.507625 76.54016 
L 616.956075 76.913429 
L 626.404525 78.712832 
L 635.852975 79.099383 
L 645.301425 79.634939 
L 654.749875 80.065435 
L 664.198325 80.799332 
L 673.646775 82.139512 
L 683.095225 84.510744 
L 692.543675 86.967352 
L 701.992125 89.025206 
L 711.440575 90.214305 
L 720.889025 89.767364 
L 730.337475 87.614948 
L 739.785925 88.335535 
L 749.234375 91.491761 
L 758.682825 93.247851 
L 768.131275 95.164436 
L 777.579725 97.068545 
L 787.028175 99.385385 
L 796.476625 101.224297 
L 805.925075 101.270273 
L 815.373525 100.850759 
L 824.821975 102.588802 
L 834.270425 103.174784 
L 843.718875 103.192278 
L 853.167325 103.971367 
L 862.615775 106.121951 
L 872.064225 108.075077 
L 881.512675 112.17186 
L 890.961125 118.663542 
L 900.409575 126.481323 
L 909.858025 136.156288 
L 919.306475 150.104832 
L 928.754925 168.752204 
L 938.203375 191.454785 
L 947.651825 221.925115 
L 957.100275 259.989038 
L 966.548725 302.905524 
L 975.997175 340.931177 
" clip-path="url(#p74ef1b2863)" style="fill: none; stroke: #f45b5b; stroke-linecap: square"/>
   </g>
   <g id="line2d_17">
    <path d="M 40.600625 255.332956 
L 50.049075 249.159953 
L 59.497525 242.42395 
L 68.945975 233.186968 
L 78.394425 221.701038 
L 87.842875 208.095212 
L 97.291325 194.053574 
L 106.739775 182.090314 
L 116.188225 171.508385 
L 125.636675 160.582877 
L 135.085125 150.080116 
L 144.533575 140.372592 
L 153.982025 133.896916 
L 163.430475 125.688598 
L 172.878925 119.253787 
L 182.327375 114.86955 
L 191.775825 111.160349 
L 201.224275 107.041703 
L 210.672725 102.429941 
L 220.121175 97.447677 
L 229.569625 93.362673 
L 239.018075 88.561125 
L 248.466525 85.235122 
L 257.914975 82.125848 
L 267.363425 80.22856 
L 276.811875 78.955327 
L 286.260325 77.569983 
L 295.708775 75.685778 
L 305.157225 73.201584 
L 314.605675 72.511425 
L 324.054125 70.093264 
L 333.502575 65.963743 
L 342.951025 65.399648 
L 352.399475 64.744293 
L 361.847925 64.097709 
L 371.296375 62.460352 
L 380.744825 63.782581 
L 390.193275 65.145109 
L 399.641725 63.924269 
L 409.090175 63.132475 
L 418.538625 62.893705 
L 427.987075 64.164983 
L 437.435525 64.564524 
L 446.883975 65.159601 
L 456.332425 66.189994 
L 465.780875 66.447408 
L 475.229325 66.56231 
L 484.677775 65.585268 
L 494.126225 64.280628 
L 503.574675 63.621031 
L 513.023125 63.004567 
L 522.471575 62.292037 
L 531.920025 64.856906 
L 541.368475 65.354767 
L 550.816925 67.931957 
L 560.265375 71.075927 
L 569.713825 74.462205 
L 579.162275 74.834388 
L 588.610725 74.936644 
L 598.059175 73.623673 
L 607.507625 71.314815 
L 616.956075 71.566494 
L 626.404525 73.082635 
L 635.852975 73.263958 
L 645.301425 74.076133 
L 654.749875 74.440982 
L 664.198325 75.038995 
L 673.646775 76.070366 
L 683.095225 78.479802 
L 692.543675 80.445453 
L 701.992125 82.136976 
L 711.440575 83.0969 
L 720.889025 83.073927 
L 730.337475 80.9584 
L 739.785925 81.849551 
L 749.234375 84.841244 
L 758.682825 86.645995 
L 768.131275 88.050047 
L 777.579725 90.259342 
L 787.028175 93.320215 
L 796.476625 95.599063 
L 805.925075 96.192091 
L 815.373525 95.813429 
L 824.821975 96.519921 
L 834.270425 97.258381 
L 843.718875 97.422173 
L 853.167325 98.367401 
L 862.615775 100.727996 
L 872.064225 103.104611 
L 881.512675 107.306888 
L 890.961125 113.413764 
L 900.409575 121.413111 
L 909.858025 131.273932 
L 919.306475 145.657162 
L 928.754925 164.745853 
L 938.203375 188.590452 
L 947.651825 220.201632 
L 957.100275 258.844692 
L 966.548725 302.151448 
L 975.997175 340.84963 
" clip-path="url(#p74ef1b2863)" style="fill: none; stroke: #91e8e1; stroke-linecap: square"/>
   </g>
   <g id="line2d_18">
    <path d="M 40.600625 256.55926 
L 50.049075 250.681937 
L 59.497525 242.11266 
L 68.945975 230.127989 
L 78.394425 215.635386 
L 87.842875 199.361272 
L 97.291325 182.170155 
L 106.739775 167.826043 
L 116.188225 156.337458 
L 125.636675 143.972011 
L 135.085125 131.820408 
L 144.533575 121.231082 
L 153.982025 114.166976 
L 163.430475 105.512318 
L 172.878925 98.93993 
L 182.327375 94.527603 
L 191.775825 90.78087 
L 201.224275 86.899291 
L 210.672725 82.091379 
L 220.121175 77.172784 
L 229.569625 73.197074 
L 239.018075 68.642382 
L 248.466525 66.660876 
L 257.914975 64.647489 
L 267.363425 63.359034 
L 276.811875 62.630023 
L 286.260325 61.744871 
L 295.708775 60.509814 
L 305.157225 58.481713 
L 314.605675 58.541348 
L 324.054125 56.979719 
L 333.502575 54.060639 
L 342.951025 54.145414 
L 352.399475 53.692113 
L 361.847925 53.091303 
L 371.296375 52.158463 
L 380.744825 54.248485 
L 390.193275 56.144995 
L 399.641725 55.614442 
L 409.090175 55.542227 
L 418.538625 55.637227 
L 427.987075 57.327776 
L 437.435525 58.432679 
L 446.883975 59.583403 
L 456.332425 61.311173 
L 465.780875 62.419809 
L 475.229325 63.371684 
L 484.677775 63.718842 
L 494.126225 63.858706 
L 503.574675 64.718012 
L 513.023125 65.060211 
L 522.471575 65.029733 
L 531.920025 67.742467 
L 541.368475 68.708893 
L 550.816925 71.700147 
L 560.265375 76.080013 
L 569.713825 80.263486 
L 579.162275 81.205586 
L 588.610725 82.280858 
L 598.059175 82.215153 
L 607.507625 81.011679 
L 616.956075 81.700144 
L 626.404525 83.646216 
L 635.852975 84.221208 
L 645.301425 85.499277 
L 654.749875 86.008836 
L 664.198325 87.429459 
L 673.646775 88.847243 
L 683.095225 91.615782 
L 692.543675 93.805592 
L 701.992125 96.527363 
L 711.440575 97.953749 
L 720.889025 98.563977 
L 730.337475 97.420985 
L 739.785925 99.378887 
L 749.234375 102.524826 
L 758.682825 103.910997 
L 768.131275 105.159073 
L 777.579725 107.567862 
L 787.028175 110.650234 
L 796.476625 113.176704 
L 805.925075 113.767422 
L 815.373525 113.89444 
L 824.821975 115.047116 
L 834.270425 116.069634 
L 843.718875 116.237117 
L 853.167325 117.478267 
L 862.615775 119.970485 
L 872.064225 121.97036 
L 881.512675 125.406096 
L 890.961125 130.510428 
L 900.409575 136.940861 
L 909.858025 145.184592 
L 919.306475 157.057193 
L 928.754925 172.966736 
L 938.203375 193.513278 
L 947.651825 221.919353 
L 957.100275 258.148876 
L 966.548725 300.46226 
L 975.997175 340.016006 
" clip-path="url(#p74ef1b2863)" style="fill: none; stroke: #7cb5ec; stroke-linecap: square"/>
   </g>
   <g id="line2d_19">
    <path d="M 40.600625 252.809996 
L 50.049075 246.426054 
L 59.497525 236.966392 
L 68.945975 225.004789 
L 78.394425 210.916017 
L 87.842875 195.853646 
L 97.291325 180.023876 
L 106.739775 166.414117 
L 116.188225 155.118461 
L 125.636675 143.486333 
L 135.085125 132.03219 
L 144.533575 121.377632 
L 153.982025 114.549857 
L 163.430475 106.690549 
L 172.878925 100.406418 
L 182.327375 96.231652 
L 191.775825 92.694618 
L 201.224275 88.836962 
L 210.672725 84.393693 
L 220.121175 79.475576 
L 229.569625 75.850538 
L 239.018075 71.57078 
L 248.466525 69.487129 
L 257.914975 67.001235 
L 267.363425 65.730369 
L 276.811875 65.513193 
L 286.260325 64.530828 
L 295.708775 63.502024 
L 305.157225 61.658975 
L 314.605675 61.513817 
L 324.054125 59.784932 
L 333.502575 57.005693 
L 342.951025 57.125174 
L 352.399475 56.969789 
L 361.847925 56.852774 
L 371.296375 56.243165 
L 380.744825 58.275857 
L 390.193275 59.773168 
L 399.641725 59.09721 
L 409.090175 59.054186 
L 418.538625 59.035316 
L 427.987075 60.51181 
L 437.435525 61.779752 
L 446.883975 62.968062 
L 456.332425 64.637635 
L 465.780875 65.311829 
L 475.229325 66.022823 
L 484.677775 66.12986 
L 494.126225 65.646771 
L 503.574675 65.999772 
L 513.023125 66.533374 
L 522.471575 66.785573 
L 531.920025 69.456912 
L 541.368475 69.880791 
L 550.816925 72.36671 
L 560.265375 75.856374 
L 569.713825 79.942471 
L 579.162275 81.056258 
L 588.610725 82.017453 
L 598.059175 81.571582 
L 607.507625 80.423994 
L 616.956075 81.148133 
L 626.404525 83.22307 
L 635.852975 83.722199 
L 645.301425 84.616113 
L 654.749875 85.101429 
L 664.198325 86.003405 
L 673.646775 87.278734 
L 683.095225 89.972842 
L 692.543675 91.947099 
L 701.992125 94.086031 
L 711.440575 95.63582 
L 720.889025 96.176887 
L 730.337475 94.658034 
L 739.785925 96.086855 
L 749.234375 99.477014 
L 758.682825 101.385735 
L 768.131275 103.172548 
L 777.579725 105.562494 
L 787.028175 107.949984 
L 796.476625 110.17715 
L 805.925075 110.810471 
L 815.373525 110.52388 
L 824.821975 111.791817 
L 834.270425 112.533556 
L 843.718875 112.543435 
L 853.167325 113.657344 
L 862.615775 116.201675 
L 872.064225 118.330546 
L 881.512675 121.869048 
L 890.961125 127.694459 
L 900.409575 134.739912 
L 909.858025 143.155404 
L 919.306475 155.527789 
L 928.754925 172.556011 
L 938.203375 193.745112 
L 947.651825 222.291966 
L 957.100275 258.769332 
L 966.548725 301.157619 
L 975.997175 340.399973 
" clip-path="url(#p74ef1b2863)" style="fill: none; stroke: #434348; stroke-linecap: square"/>
   </g>
   <g id="line2d_20">
    <path d="M 40.600625 255.595882 
L 50.049075 250.144084 
L 59.497525 242.775512 
L 68.945975 232.17088 
L 78.394425 219.188564 
L 87.842875 204.236632 
L 97.291325 188.242999 
L 106.739775 174.58101 
L 116.188225 163.108527 
L 125.636675 151.14216 
L 135.085125 139.283451 
L 144.533575 128.084602 
L 153.982025 120.794602 
L 163.430475 112.343046 
L 172.878925 105.995478 
L 182.327375 101.497961 
L 191.775825 98.017592 
L 201.224275 93.729162 
L 210.672725 89.095722 
L 220.121175 83.927109 
L 229.569625 79.78365 
L 239.018075 75.013607 
L 248.466525 72.215809 
L 257.914975 69.192267 
L 267.363425 67.538029 
L 276.811875 67.084806 
L 286.260325 66.362996 
L 295.708775 65.223128 
L 305.157225 63.285487 
L 314.605675 63.131442 
L 324.054125 61.30712 
L 333.502575 57.797832 
L 342.951025 57.942879 
L 352.399475 57.743152 
L 361.847925 57.450948 
L 371.296375 56.589226 
L 380.744825 58.198916 
L 390.193275 59.89627 
L 399.641725 59.27244 
L 409.090175 58.846287 
L 418.538625 58.658877 
L 427.987075 60.017346 
L 437.435525 60.927007 
L 446.883975 61.524245 
L 456.332425 63.116688 
L 465.780875 63.866387 
L 475.229325 64.494382 
L 484.677775 64.210088 
L 494.126225 63.574066 
L 503.574675 63.689461 
L 513.023125 63.891497 
L 522.471575 64.42326 
L 531.920025 67.29981 
L 541.368475 67.732065 
L 550.816925 70.11055 
L 560.265375 73.227359 
L 569.713825 77.181843 
L 579.162275 78.247976 
L 588.610725 78.825316 
L 598.059175 78.047636 
L 607.507625 76.074915 
L 616.956075 76.461094 
L 626.404525 78.054015 
L 635.852975 78.777917 
L 645.301425 79.810659 
L 654.749875 80.63019 
L 664.198325 81.550793 
L 673.646775 82.707476 
L 683.095225 85.380751 
L 692.543675 87.298748 
L 701.992125 89.26717 
L 711.440575 90.878945 
L 720.889025 91.410783 
L 730.337475 89.910226 
L 739.785925 91.463193 
L 749.234375 94.886329 
L 758.682825 96.567341 
L 768.131275 98.26245 
L 777.579725 100.64514 
L 787.028175 103.53402 
L 796.476625 105.771726 
L 805.925075 106.230213 
L 815.373525 106.096993 
L 824.821975 107.385356 
L 834.270425 108.579884 
L 843.718875 109.035594 
L 853.167325 110.53168 
L 862.615775 113.405217 
L 872.064225 116.209557 
L 881.512675 120.426637 
L 890.961125 127.018239 
L 900.409575 134.910031 
L 909.858025 144.079422 
L 919.306475 157.392666 
L 928.754925 175.192524 
L 938.203375 196.88053 
L 947.651825 225.803067 
L 957.100275 261.993409 
L 966.548725 303.493615 
L 975.997175 340.960063 
" clip-path="url(#p74ef1b2863)" style="fill: none; stroke: #90ed7d; stroke-linecap: square"/>
   </g>
   <g id="line2d_21">
    <path d="M 40.600625 272.45702 
L 50.049075 268.593247 
L 59.497525 261.802829 
L 68.945975 250.843102 
L 78.394425 236.468423 
L 87.842875 220.299013 
L 97.291325 202.673089 
L 106.739775 188.05874 
L 116.188225 175.882419 
L 125.636675 163.277022 
L 135.085125 151.00207 
L 144.533575 139.587256 
L 153.982025 131.483986 
L 163.430475 122.092806 
L 172.878925 114.650251 
L 182.327375 109.466826 
L 191.775825 104.731986 
L 201.224275 100.442237 
L 210.672725 94.943862 
L 220.121175 89.171599 
L 229.569625 84.313826 
L 239.018075 79.35372 
L 248.466525 76.727348 
L 257.914975 73.995923 
L 267.363425 71.521225 
L 276.811875 70.648531 
L 286.260325 69.305191 
L 295.708775 67.557723 
L 305.157225 64.719833 
L 314.605675 63.948614 
L 324.054125 62.257132 
L 333.502575 59.364302 
L 342.951025 58.895848 
L 352.399475 57.524015 
L 361.847925 56.356318 
L 371.296375 55.022397 
L 380.744825 56.519194 
L 390.193275 58.042283 
L 399.641725 57.036829 
L 409.090175 56.3401 
L 418.538625 55.436532 
L 427.987075 56.513114 
L 437.435525 57.270788 
L 446.883975 57.935382 
L 456.332425 59.657094 
L 465.780875 60.331354 
L 475.229325 60.854619 
L 484.677775 60.822458 
L 494.126225 60.724032 
L 503.574675 61.159546 
L 513.023125 61.720097 
L 522.471575 61.835844 
L 531.920025 64.184535 
L 541.368475 65.074202 
L 550.816925 67.960578 
L 560.265375 71.665997 
L 569.713825 75.500884 
L 579.162275 76.167846 
L 588.610725 76.829023 
L 598.059175 75.585629 
L 607.507625 73.909321 
L 616.956075 74.200907 
L 626.404525 75.4173 
L 635.852975 75.139979 
L 645.301425 76.028276 
L 654.749875 76.42446 
L 664.198325 77.572286 
L 673.646775 78.901705 
L 683.095225 81.640195 
L 692.543675 84.168778 
L 701.992125 86.643398 
L 711.440575 87.87447 
L 720.889025 87.943756 
L 730.337475 86.561198 
L 739.785925 88.073418 
L 749.234375 91.071418 
L 758.682825 92.445831 
L 768.131275 93.840043 
L 777.579725 96.051912 
L 787.028175 98.209064 
L 796.476625 100.243597 
L 805.925075 100.272303 
L 815.373525 100.220731 
L 824.821975 101.388083 
L 834.270425 102.458615 
L 843.718875 102.920285 
L 853.167325 104.482216 
L 862.615775 107.163142 
L 872.064225 109.157908 
L 881.512675 112.667395 
L 890.961125 118.224492 
L 900.409575 125.500825 
L 909.858025 134.871196 
L 919.306475 147.484748 
L 928.754925 163.912271 
L 938.203375 185.842222 
L 947.651825 216.724735 
L 957.100275 255.340961 
L 966.548725 299.996904 
L 975.997175 340.267671 
" clip-path="url(#p74ef1b2863)" style="fill: none; stroke: #f7a35c; stroke-linecap: square"/>
   </g>
   <g id="line2d_22">
    <path d="M 40.600625 258.862287 
L 50.049075 253.335487 
L 59.497525 245.009126 
L 68.945975 233.378043 
L 78.394425 219.20971 
L 87.842875 203.753427 
L 97.291325 187.015603 
L 106.739775 172.9099 
L 116.188225 161.355976 
L 125.636675 149.280943 
L 135.085125 137.556582 
L 144.533575 126.283047 
L 153.982025 118.923873 
L 163.430475 110.289506 
L 172.878925 103.736436 
L 182.327375 99.791362 
L 191.775825 96.307187 
L 201.224275 92.515337 
L 210.672725 87.971827 
L 220.121175 82.898395 
L 229.569625 78.70925 
L 239.018075 73.789349 
L 248.466525 71.527526 
L 257.914975 69.001895 
L 267.363425 67.58389 
L 276.811875 67.05687 
L 286.260325 66.071661 
L 295.708775 64.963953 
L 305.157225 62.896999 
L 314.605675 62.806678 
L 324.054125 61.010463 
L 333.502575 58.142531 
L 342.951025 58.04717 
L 352.399475 57.501035 
L 361.847925 56.648652 
L 371.296375 56.018388 
L 380.744825 58.076701 
L 390.193275 59.786294 
L 399.641725 58.925571 
L 409.090175 58.357202 
L 418.538625 58.382413 
L 427.987075 60.26196 
L 437.435525 61.474128 
L 446.883975 62.124642 
L 456.332425 63.543832 
L 465.780875 64.059437 
L 475.229325 64.567741 
L 484.677775 64.468279 
L 494.126225 63.998293 
L 503.574675 64.386251 
L 513.023125 64.865673 
L 522.471575 64.620528 
L 531.920025 67.290673 
L 541.368475 67.84892 
L 550.816925 70.514311 
L 560.265375 74.489006 
L 569.713825 78.80329 
L 579.162275 79.799059 
L 588.610725 80.615033 
L 598.059175 80.181903 
L 607.507625 78.45298 
L 616.956075 79.15435 
L 626.404525 81.235446 
L 635.852975 81.353765 
L 645.301425 82.527803 
L 654.749875 82.934194 
L 664.198325 83.656702 
L 673.646775 84.790827 
L 683.095225 87.500951 
L 692.543675 90.140853 
L 701.992125 92.478491 
L 711.440575 93.978785 
L 720.889025 94.515497 
L 730.337475 92.603578 
L 739.785925 93.814089 
L 749.234375 97.116367 
L 758.682825 98.732698 
L 768.131275 99.999427 
L 777.579725 102.4359 
L 787.028175 105.202622 
L 796.476625 107.501195 
L 805.925075 107.524165 
L 815.373525 106.988779 
L 824.821975 108.22761 
L 834.270425 109.148372 
L 843.718875 109.480055 
L 853.167325 110.26492 
L 862.615775 112.689769 
L 872.064225 114.731775 
L 881.512675 118.367055 
L 890.961125 124.285051 
L 900.409575 131.495641 
L 909.858025 140.071085 
L 919.306475 152.732272 
L 928.754925 169.688408 
L 938.203375 190.838393 
L 947.651825 219.846891 
L 957.100275 256.401245 
L 966.548725 299.456648 
L 975.997175 339.899551 
" clip-path="url(#p74ef1b2863)" style="fill: none; stroke: #8085e9; stroke-linecap: square"/>
   </g>
   <g id="line2d_23">
    <path d="M 40.600625 253.201296 
L 50.049075 249.805064 
L 59.497525 243.399525 
L 68.945975 232.774907 
L 78.394425 218.86077 
L 87.842875 202.304972 
L 97.291325 184.622924 
L 106.739775 169.787316 
L 116.188225 157.396727 
L 125.636675 144.480629 
L 135.085125 131.708436 
L 144.533575 120.423046 
L 153.982025 112.464681 
L 163.430475 103.398913 
L 172.878925 96.478226 
L 182.327375 91.706583 
L 191.775825 88.421121 
L 201.224275 84.483123 
L 210.672725 79.812878 
L 220.121175 75.309862 
L 229.569625 71.729905 
L 239.018075 67.217069 
L 248.466525 64.019324 
L 257.914975 61.044418 
L 267.363425 59.053419 
L 276.811875 58.222442 
L 286.260325 57.725925 
L 295.708775 56.710155 
L 305.157225 54.908397 
L 314.605675 54.933467 
L 324.054125 53.695036 
L 333.502575 50.901002 
L 342.951025 51.796899 
L 352.399475 51.366608 
L 361.847925 51.284679 
L 371.296375 50.355518 
L 380.744825 52.595395 
L 390.193275 55.100034 
L 399.641725 55.055442 
L 409.090175 55.369473 
L 418.538625 55.584004 
L 427.987075 57.08905 
L 437.435525 57.875506 
L 446.883975 58.699985 
L 456.332425 60.757791 
L 465.780875 61.452527 
L 475.229325 62.384052 
L 484.677775 62.87178 
L 494.126225 62.988295 
L 503.574675 63.814818 
L 513.023125 64.538356 
L 522.471575 65.543459 
L 531.920025 68.94778 
L 541.368475 70.475369 
L 550.816925 73.481181 
L 560.265375 76.906738 
L 569.713825 80.786515 
L 579.162275 82.24253 
L 588.610725 83.421721 
L 598.059175 82.614974 
L 607.507625 80.883062 
L 616.956075 81.277693 
L 626.404525 82.258385 
L 635.852975 82.871148 
L 645.301425 83.989377 
L 654.749875 84.71968 
L 664.198325 85.839994 
L 673.646775 87.360238 
L 683.095225 90.275555 
L 692.543675 92.722252 
L 701.992125 95.653447 
L 711.440575 97.666912 
L 720.889025 98.320939 
L 730.337475 97.635467 
L 739.785925 99.01547 
L 749.234375 101.647471 
L 758.682825 103.040029 
L 768.131275 104.46481 
L 777.579725 107.350434 
L 787.028175 110.229324 
L 796.476625 112.12859 
L 805.925075 112.455384 
L 815.373525 113.176169 
L 824.821975 114.473916 
L 834.270425 115.936388 
L 843.718875 116.452851 
L 853.167325 118.009371 
L 862.615775 121.258179 
L 872.064225 124.525664 
L 881.512675 129.233972 
L 890.961125 135.586678 
L 900.409575 143.167745 
L 909.858025 152.506241 
L 919.306475 165.473796 
L 928.754925 181.705536 
L 938.203375 202.677462 
L 947.651825 230.763112 
L 957.100275 265.75364 
L 966.548725 305.550802 
L 975.997175 341.406491 
" clip-path="url(#p74ef1b2863)" style="fill: none; stroke: #f15c80; stroke-linecap: square"/>
   </g>
   <g id="line2d_24">
    <path d="M 40.600625 353.2239 
L 985.445625 353.2239 
" clip-path="url(#p74ef1b2863)" style="fill: none; stroke: #dedede; stroke-width: 2; stroke-linecap: square"/>
   </g>
   <g id="text_16">
    <!-- Qualimap RNAseq: Coverage Profile Along Genes (total) -->
    <g transform="translate(289.641875 19.3575) scale(0.16 -0.16)">
     <defs>
      <path id="DejaVuSans-51" d="M 2522 4238 
Q 1834 4238 1429 3725 
Q 1025 3213 1025 2328 
Q 1025 1447 1429 934 
Q 1834 422 2522 422 
Q 3209 422 3611 934 
Q 4013 1447 4013 2328 
Q 4013 3213 3611 3725 
Q 3209 4238 2522 4238 
z
M 3406 84 
L 4238 -825 
L 3475 -825 
L 2784 -78 
Q 2681 -84 2626 -87 
Q 2572 -91 2522 -91 
Q 1538 -91 948 567 
Q 359 1225 359 2328 
Q 359 3434 948 4092 
Q 1538 4750 2522 4750 
Q 3503 4750 4090 4092 
Q 4678 3434 4678 2328 
Q 4678 1516 4351 937 
Q 4025 359 3406 84 
z
" transform="scale(0.015625)"/>
      <path id="DejaVuSans-52" d="M 2841 2188 
Q 3044 2119 3236 1894 
Q 3428 1669 3622 1275 
L 4263 0 
L 3584 0 
L 2988 1197 
Q 2756 1666 2539 1819 
Q 2322 1972 1947 1972 
L 1259 1972 
L 1259 0 
L 628 0 
L 628 4666 
L 2053 4666 
Q 2853 4666 3247 4331 
Q 3641 3997 3641 3322 
Q 3641 2881 3436 2590 
Q 3231 2300 2841 2188 
z
M 1259 4147 
L 1259 2491 
L 2053 2491 
Q 2509 2491 2742 2702 
Q 2975 2913 2975 3322 
Q 2975 3731 2742 3939 
Q 2509 4147 2053 4147 
L 1259 4147 
z
" transform="scale(0.015625)"/>
      <path id="DejaVuSans-4e" d="M 628 4666 
L 1478 4666 
L 3547 763 
L 3547 4666 
L 4159 4666 
L 4159 0 
L 3309 0 
L 1241 3903 
L 1241 0 
L 628 0 
L 628 4666 
z
" transform="scale(0.015625)"/>
      <path id="DejaVuSans-41" d="M 2188 4044 
L 1331 1722 
L 3047 1722 
L 2188 4044 
z
M 1831 4666 
L 2547 4666 
L 4325 0 
L 3669 0 
L 3244 1197 
L 1141 1197 
L 716 0 
L 50 0 
L 1831 4666 
z
" transform="scale(0.015625)"/>
      <path id="DejaVuSans-71" d="M 947 1747 
Q 947 1113 1208 752 
Q 1469 391 1925 391 
Q 2381 391 2643 752 
Q 2906 1113 2906 1747 
Q 2906 2381 2643 2742 
Q 2381 3103 1925 3103 
Q 1469 3103 1208 2742 
Q 947 2381 947 1747 
z
M 2906 525 
Q 2725 213 2448 61 
Q 2172 -91 1784 -91 
Q 1150 -91 751 415 
Q 353 922 353 1747 
Q 353 2572 751 3078 
Q 1150 3584 1784 3584 
Q 2172 3584 2448 3432 
Q 2725 3281 2906 2969 
L 2906 3500 
L 3481 3500 
L 3481 -1331 
L 2906 -1331 
L 2906 525 
z
" transform="scale(0.015625)"/>
      <path id="DejaVuSans-3a" d="M 750 794 
L 1409 794 
L 1409 0 
L 750 0 
L 750 794 
z
M 750 3309 
L 1409 3309 
L 1409 2516 
L 750 2516 
L 750 3309 
z
" transform="scale(0.015625)"/>
      <path id="DejaVuSans-43" d="M 4122 4306 
L 4122 3641 
Q 3803 3938 3442 4084 
Q 3081 4231 2675 4231 
Q 1875 4231 1450 3742 
Q 1025 3253 1025 2328 
Q 1025 1406 1450 917 
Q 1875 428 2675 428 
Q 3081 428 3442 575 
Q 3803 722 4122 1019 
L 4122 359 
Q 3791 134 3420 21 
Q 3050 -91 2638 -91 
Q 1578 -91 968 557 
Q 359 1206 359 2328 
Q 359 3453 968 4101 
Q 1578 4750 2638 4750 
Q 3056 4750 3426 4639 
Q 3797 4528 4122 4306 
z
" transform="scale(0.015625)"/>
      <path id="DejaVuSans-66" d="M 2375 4863 
L 2375 4384 
L 1825 4384 
Q 1516 4384 1395 4259 
Q 1275 4134 1275 3809 
L 1275 3500 
L 2222 3500 
L 2222 3053 
L 1275 3053 
L 1275 0 
L 697 0 
L 697 3053 
L 147 3053 
L 147 3500 
L 697 3500 
L 697 3744 
Q 697 4328 969 4595 
Q 1241 4863 1831 4863 
L 2375 4863 
z
" transform="scale(0.015625)"/>
      <path id="DejaVuSans-47" d="M 3809 666 
L 3809 1919 
L 2778 1919 
L 2778 2438 
L 4434 2438 
L 4434 434 
Q 4069 175 3628 42 
Q 3188 -91 2688 -91 
Q 1594 -91 976 548 
Q 359 1188 359 2328 
Q 359 3472 976 4111 
Q 1594 4750 2688 4750 
Q 3144 4750 3555 4637 
Q 3966 4525 4313 4306 
L 4313 3634 
Q 3963 3931 3569 4081 
Q 3175 4231 2741 4231 
Q 1884 4231 1454 3753 
Q 1025 3275 1025 2328 
Q 1025 1384 1454 906 
Q 1884 428 2741 428 
Q 3075 428 3337 486 
Q 3600 544 3809 666 
z
" transform="scale(0.015625)"/>
     </defs>
     <use xlink:href="#DejaVuSans-51"/>
     <use xlink:href="#DejaVuSans-75" x="78.710938"/>
     <use xlink:href="#DejaVuSans-61" x="142.089844"/>
     <use xlink:href="#DejaVuSans-6c" x="203.369141"/>
     <use xlink:href="#DejaVuSans-69" x="231.152344"/>
     <use xlink:href="#DejaVuSans-6d" x="258.935547"/>
     <use xlink:href="#DejaVuSans-61" x="356.347656"/>
     <use xlink:href="#DejaVuSans-70" x="417.626953"/>
     <use xlink:href="#DejaVuSans-20" x="481.103516"/>
     <use xlink:href="#DejaVuSans-52" x="512.890625"/>
     <use xlink:href="#DejaVuSans-4e" x="582.373047"/>
     <use xlink:href="#DejaVuSans-41" x="657.177734"/>
     <use xlink:href="#DejaVuSans-73" x="725.585938"/>
     <use xlink:href="#DejaVuSans-65" x="777.685547"/>
     <use xlink:href="#DejaVuSans-71" x="839.208984"/>
     <use xlink:href="#DejaVuSans-3a" x="902.685547"/>
     <use xlink:href="#DejaVuSans-20" x="936.376953"/>
     <use xlink:href="#DejaVuSans-43" x="968.164062"/>
     <use xlink:href="#DejaVuSans-6f" x="1037.988281"/>
     <use xlink:href="#DejaVuSans-76" x="1099.169922"/>
     <use xlink:href="#DejaVuSans-65" x="1158.349609"/>
     <use xlink:href="#DejaVuSans-72" x="1219.873047"/>
     <use xlink:href="#DejaVuSans-61" x="1260.986328"/>
     <use xlink:href="#DejaVuSans-67" x="1322.265625"/>
     <use xlink:href="#DejaVuSans-65" x="1385.742188"/>
     <use xlink:href="#DejaVuSans-20" x="1447.265625"/>
     <use xlink:href="#DejaVuSans-50" x="1479.052734"/>
     <use xlink:href="#DejaVuSans-72" x="1537.605469"/>
     <use xlink:href="#DejaVuSans-6f" x="1576.46875"/>
     <use xlink:href="#DejaVuSans-66" x="1637.650391"/>
     <use xlink:href="#DejaVuSans-69" x="1672.855469"/>
     <use xlink:href="#DejaVuSans-6c" x="1700.638672"/>
     <use xlink:href="#DejaVuSans-65" x="1728.421875"/>
     <use xlink:href="#DejaVuSans-20" x="1789.945312"/>
     <use xlink:href="#DejaVuSans-41" x="1821.732422"/>
     <use xlink:href="#DejaVuSans-6c" x="1890.140625"/>
     <use xlink:href="#DejaVuSans-6f" x="1917.923828"/>
     <use xlink:href="#DejaVuSans-6e" x="1979.105469"/>
     <use xlink:href="#DejaVuSans-67" x="2042.484375"/>
     <use xlink:href="#DejaVuSans-20" x="2105.960938"/>
     <use xlink:href="#DejaVuSans-47" x="2137.748047"/>
     <use xlink:href="#DejaVuSans-65" x="2215.238281"/>
     <use xlink:href="#DejaVuSans-6e" x="2276.761719"/>
     <use xlink:href="#DejaVuSans-65" x="2340.140625"/>
     <use xlink:href="#DejaVuSans-73" x="2401.664062"/>
     <use xlink:href="#DejaVuSans-20" x="2453.763672"/>
     <use xlink:href="#DejaVuSans-28" x="2485.550781"/>
     <use xlink:href="#DejaVuSans-74" x="2524.564453"/>
     <use xlink:href="#DejaVuSans-6f" x="2563.773438"/>
     <use xlink:href="#DejaVuSans-74" x="2624.955078"/>
     <use xlink:href="#DejaVuSans-61" x="2664.164062"/>
     <use xlink:href="#DejaVuSans-6c" x="2725.443359"/>
     <use xlink:href="#DejaVuSans-29" x="2753.226562"/>
    </g>
   </g>
  </g>
 </g>
 <defs>
  <clipPath id="p74ef1b2863">
   <rect x="40.600625" y="35.2559" width="944.845" height="317.968"/>
  </clipPath>
 </defs>
</svg>
