<?xml version="1.0" encoding="utf-8" standalone="no"?>
<!DOCTYPE svg PUBLIC "-//W3C//DTD SVG 1.1//EN"
  "http://www.w3.org/Graphics/SVG/1.1/DTD/svg11.dtd">
<svg xmlns:xlink="http://www.w3.org/1999/xlink" width="1000.278125pt" height="385.971725pt" viewBox="0 0 1000.278125 385.971725" xmlns="http://www.w3.org/2000/svg" version="1.1">
 <metadata>
  <rdf:RDF xmlns:dc="http://purl.org/dc/elements/1.1/" xmlns:cc="http://creativecommons.org/ns#" xmlns:rdf="http://www.w3.org/1999/02/22-rdf-syntax-ns#">
   <cc:Work>
    <dc:type rdf:resource="http://purl.org/dc/dcmitype/StillImage"/>
    <dc:date>2024-09-05T13:39:03.451136</dc:date>
    <dc:format>image/svg+xml</dc:format>
    <dc:creator>
     <cc:Agent>
      <dc:title>Matplotlib v3.8.2, https://matplotlib.org/</dc:title>
     </cc:Agent>
    </dc:creator>
   </cc:Work>
  </rdf:RDF>
 </metadata>
 <defs>
  <style type="text/css">*{stroke-linejoin: round; stroke-linecap: butt}</style>
 </defs>
 <g id="figure_1">
  <g id="axes_1">
   <g id="patch_1">
    <path d="M 43.148125 350.3511 
L 993.078125 350.3511 
L 993.078125 35.1191 
L 43.148125 35.1191 
z
" style="fill: #ffffff"/>
   </g>
   <g id="matplotlib.axis_1">
    <g id="xtick_1">
     <g id="text_1">
      <!-- $\mathdefault{10^{-2}}$ -->
      <g transform="translate(84.731246 363.42985) scale(0.08 -0.08)">
       <defs>
        <path id="DejaVuSans-31" d="M 794 531 
L 1825 531 
L 1825 4091 
L 703 3866 
L 703 4441 
L 1819 4666 
L 2450 4666 
L 2450 531 
L 3481 531 
L 3481 0 
L 794 0 
L 794 531 
z
" transform="scale(0.015625)"/>
        <path id="DejaVuSans-30" d="M 2034 4250 
Q 1547 4250 1301 3770 
Q 1056 3291 1056 2328 
Q 1056 1369 1301 889 
Q 1547 409 2034 409 
Q 2525 409 2770 889 
Q 3016 1369 3016 2328 
Q 3016 3291 2770 3770 
Q 2525 4250 2034 4250 
z
M 2034 4750 
Q 2819 4750 3233 4129 
Q 3647 3509 3647 2328 
Q 3647 1150 3233 529 
Q 2819 -91 2034 -91 
Q 1250 -91 836 529 
Q 422 1150 422 2328 
Q 422 3509 836 4129 
Q 1250 4750 2034 4750 
z
" transform="scale(0.015625)"/>
        <path id="DejaVuSans-2212" d="M 678 2272 
L 4684 2272 
L 4684 1741 
L 678 1741 
L 678 2272 
z
" transform="scale(0.015625)"/>
        <path id="DejaVuSans-32" d="M 1228 531 
L 3431 531 
L 3431 0 
L 469 0 
L 469 531 
Q 828 903 1448 1529 
Q 2069 2156 2228 2338 
Q 2531 2678 2651 2914 
Q 2772 3150 2772 3378 
Q 2772 3750 2511 3984 
Q 2250 4219 1831 4219 
Q 1534 4219 1204 4116 
Q 875 4013 500 3803 
L 500 4441 
Q 881 4594 1212 4672 
Q 1544 4750 1819 4750 
Q 2544 4750 2975 4387 
Q 3406 4025 3406 3419 
Q 3406 3131 3298 2873 
Q 3191 2616 2906 2266 
Q 2828 2175 2409 1742 
Q 1991 1309 1228 531 
z
" transform="scale(0.015625)"/>
       </defs>
       <use xlink:href="#DejaVuSans-31" transform="translate(0 0.765625)"/>
       <use xlink:href="#DejaVuSans-30" transform="translate(63.623047 0.765625)"/>
       <use xlink:href="#DejaVuSans-2212" transform="translate(128.203125 39.046875) scale(0.7)"/>
       <use xlink:href="#DejaVuSans-32" transform="translate(186.855469 39.046875) scale(0.7)"/>
      </g>
     </g>
    </g>
    <g id="xtick_2">
     <g id="text_2">
      <!-- $\mathdefault{10^{-1}}$ -->
      <g transform="translate(199.69735 363.42985) scale(0.08 -0.08)">
       <use xlink:href="#DejaVuSans-31" transform="translate(0 0.684375)"/>
       <use xlink:href="#DejaVuSans-30" transform="translate(63.623047 0.684375)"/>
       <use xlink:href="#DejaVuSans-2212" transform="translate(128.203125 38.965625) scale(0.7)"/>
       <use xlink:href="#DejaVuSans-31" transform="translate(186.855469 38.965625) scale(0.7)"/>
      </g>
     </g>
    </g>
    <g id="xtick_3">
     <g id="text_3">
      <!-- $\mathdefault{10^{0}}$ -->
      <g transform="translate(317.023454 363.42985) scale(0.08 -0.08)">
       <use xlink:href="#DejaVuSans-31" transform="translate(0 0.765625)"/>
       <use xlink:href="#DejaVuSans-30" transform="translate(63.623047 0.765625)"/>
       <use xlink:href="#DejaVuSans-30" transform="translate(128.203125 39.046875) scale(0.7)"/>
      </g>
     </g>
    </g>
    <g id="xtick_4">
     <g id="text_4">
      <!-- $\mathdefault{10^{1}}$ -->
      <g transform="translate(431.989558 363.42985) scale(0.08 -0.08)">
       <use xlink:href="#DejaVuSans-31" transform="translate(0 0.684375)"/>
       <use xlink:href="#DejaVuSans-30" transform="translate(63.623047 0.684375)"/>
       <use xlink:href="#DejaVuSans-31" transform="translate(128.203125 38.965625) scale(0.7)"/>
      </g>
     </g>
    </g>
    <g id="xtick_5">
     <g id="text_5">
      <!-- $\mathdefault{10^{2}}$ -->
      <g transform="translate(546.955662 363.42985) scale(0.08 -0.08)">
       <use xlink:href="#DejaVuSans-31" transform="translate(0 0.765625)"/>
       <use xlink:href="#DejaVuSans-30" transform="translate(63.623047 0.765625)"/>
       <use xlink:href="#DejaVuSans-32" transform="translate(128.203125 39.046875) scale(0.7)"/>
      </g>
     </g>
    </g>
    <g id="xtick_6">
     <g id="text_6">
      <!-- $\mathdefault{10^{3}}$ -->
      <g transform="translate(661.921767 363.42985) scale(0.08 -0.08)">
       <defs>
        <path id="DejaVuSans-33" d="M 2597 2516 
Q 3050 2419 3304 2112 
Q 3559 1806 3559 1356 
Q 3559 666 3084 287 
Q 2609 -91 1734 -91 
Q 1441 -91 1130 -33 
Q 819 25 488 141 
L 488 750 
Q 750 597 1062 519 
Q 1375 441 1716 441 
Q 2309 441 2620 675 
Q 2931 909 2931 1356 
Q 2931 1769 2642 2001 
Q 2353 2234 1838 2234 
L 1294 2234 
L 1294 2753 
L 1863 2753 
Q 2328 2753 2575 2939 
Q 2822 3125 2822 3475 
Q 2822 3834 2567 4026 
Q 2313 4219 1838 4219 
Q 1578 4219 1281 4162 
Q 984 4106 628 3988 
L 628 4550 
Q 988 4650 1302 4700 
Q 1616 4750 1894 4750 
Q 2613 4750 3031 4423 
Q 3450 4097 3450 3541 
Q 3450 3153 3228 2886 
Q 3006 2619 2597 2516 
z
" transform="scale(0.015625)"/>
       </defs>
       <use xlink:href="#DejaVuSans-31" transform="translate(0 0.765625)"/>
       <use xlink:href="#DejaVuSans-30" transform="translate(63.623047 0.765625)"/>
       <use xlink:href="#DejaVuSans-33" transform="translate(128.203125 39.046875) scale(0.7)"/>
      </g>
     </g>
    </g>
    <g id="xtick_7">
     <g id="text_7">
      <!-- $\mathdefault{10^{4}}$ -->
      <g transform="translate(776.887871 363.42985) scale(0.08 -0.08)">
       <defs>
        <path id="DejaVuSans-34" d="M 2419 4116 
L 825 1625 
L 2419 1625 
L 2419 4116 
z
M 2253 4666 
L 3047 4666 
L 3047 1625 
L 3713 1625 
L 3713 1100 
L 3047 1100 
L 3047 0 
L 2419 0 
L 2419 1100 
L 313 1100 
L 313 1709 
L 2253 4666 
z
" transform="scale(0.015625)"/>
       </defs>
       <use xlink:href="#DejaVuSans-31" transform="translate(0 0.684375)"/>
       <use xlink:href="#DejaVuSans-30" transform="translate(63.623047 0.684375)"/>
       <use xlink:href="#DejaVuSans-34" transform="translate(128.203125 38.965625) scale(0.7)"/>
      </g>
     </g>
    </g>
    <g id="xtick_8">
     <g id="text_8">
      <!-- $\mathdefault{10^{5}}$ -->
      <g transform="translate(891.853975 363.42985) scale(0.08 -0.08)">
       <defs>
        <path id="DejaVuSans-35" d="M 691 4666 
L 3169 4666 
L 3169 4134 
L 1269 4134 
L 1269 2991 
Q 1406 3038 1543 3061 
Q 1681 3084 1819 3084 
Q 2600 3084 3056 2656 
Q 3513 2228 3513 1497 
Q 3513 744 3044 326 
Q 2575 -91 1722 -91 
Q 1428 -91 1123 -41 
Q 819 9 494 109 
L 494 744 
Q 775 591 1075 516 
Q 1375 441 1709 441 
Q 2250 441 2565 725 
Q 2881 1009 2881 1497 
Q 2881 1984 2565 2268 
Q 2250 2553 1709 2553 
Q 1456 2553 1204 2497 
Q 953 2441 691 2322 
L 691 4666 
z
" transform="scale(0.015625)"/>
       </defs>
       <use xlink:href="#DejaVuSans-31" transform="translate(0 0.684375)"/>
       <use xlink:href="#DejaVuSans-30" transform="translate(63.623047 0.684375)"/>
       <use xlink:href="#DejaVuSans-35" transform="translate(128.203125 38.965625) scale(0.7)"/>
      </g>
     </g>
    </g>
    <g id="xtick_9">
     <g id="line2d_1">
      <defs>
       <path id="m6034c1f02f" d="M 0 0 
L 0 2 
" style="stroke: #000000; stroke-width: 0.6"/>
      </defs>
      <g>
       <use xlink:href="#m6034c1f02f" x="48.381633" y="350.3511" style="stroke: #000000; stroke-width: 0.6"/>
      </g>
     </g>
    </g>
    <g id="xtick_10">
     <g id="line2d_2">
      <g>
       <use xlink:href="#m6034c1f02f" x="59.523" y="350.3511" style="stroke: #000000; stroke-width: 0.6"/>
      </g>
     </g>
    </g>
    <g id="xtick_11">
     <g id="line2d_3">
      <g>
       <use xlink:href="#m6034c1f02f" x="68.626159" y="350.3511" style="stroke: #000000; stroke-width: 0.6"/>
      </g>
     </g>
    </g>
    <g id="xtick_12">
     <g id="line2d_4">
      <g>
       <use xlink:href="#m6034c1f02f" x="76.322771" y="350.3511" style="stroke: #000000; stroke-width: 0.6"/>
      </g>
     </g>
    </g>
    <g id="xtick_13">
     <g id="line2d_5">
      <g>
       <use xlink:href="#m6034c1f02f" x="82.989879" y="350.3511" style="stroke: #000000; stroke-width: 0.6"/>
      </g>
     </g>
    </g>
    <g id="xtick_14">
     <g id="line2d_6">
      <g>
       <use xlink:href="#m6034c1f02f" x="88.870686" y="350.3511" style="stroke: #000000; stroke-width: 0.6"/>
      </g>
     </g>
    </g>
    <g id="xtick_15">
     <g id="line2d_7">
      <g>
       <use xlink:href="#m6034c1f02f" x="128.739492" y="350.3511" style="stroke: #000000; stroke-width: 0.6"/>
      </g>
     </g>
    </g>
    <g id="xtick_16">
     <g id="line2d_8">
      <g>
       <use xlink:href="#m6034c1f02f" x="148.984018" y="350.3511" style="stroke: #000000; stroke-width: 0.6"/>
      </g>
     </g>
    </g>
    <g id="xtick_17">
     <g id="line2d_9">
      <g>
       <use xlink:href="#m6034c1f02f" x="163.347738" y="350.3511" style="stroke: #000000; stroke-width: 0.6"/>
      </g>
     </g>
    </g>
    <g id="xtick_18">
     <g id="line2d_10">
      <g>
       <use xlink:href="#m6034c1f02f" x="174.489104" y="350.3511" style="stroke: #000000; stroke-width: 0.6"/>
      </g>
     </g>
    </g>
    <g id="xtick_19">
     <g id="line2d_11">
      <g>
       <use xlink:href="#m6034c1f02f" x="183.592264" y="350.3511" style="stroke: #000000; stroke-width: 0.6"/>
      </g>
     </g>
    </g>
    <g id="xtick_20">
     <g id="line2d_12">
      <g>
       <use xlink:href="#m6034c1f02f" x="191.288875" y="350.3511" style="stroke: #000000; stroke-width: 0.6"/>
      </g>
     </g>
    </g>
    <g id="xtick_21">
     <g id="line2d_13">
      <g>
       <use xlink:href="#m6034c1f02f" x="197.955983" y="350.3511" style="stroke: #000000; stroke-width: 0.6"/>
      </g>
     </g>
    </g>
    <g id="xtick_22">
     <g id="line2d_14">
      <g>
       <use xlink:href="#m6034c1f02f" x="203.83679" y="350.3511" style="stroke: #000000; stroke-width: 0.6"/>
      </g>
     </g>
    </g>
    <g id="xtick_23">
     <g id="line2d_15">
      <g>
       <use xlink:href="#m6034c1f02f" x="243.705596" y="350.3511" style="stroke: #000000; stroke-width: 0.6"/>
      </g>
     </g>
    </g>
    <g id="xtick_24">
     <g id="line2d_16">
      <g>
       <use xlink:href="#m6034c1f02f" x="263.950122" y="350.3511" style="stroke: #000000; stroke-width: 0.6"/>
      </g>
     </g>
    </g>
    <g id="xtick_25">
     <g id="line2d_17">
      <g>
       <use xlink:href="#m6034c1f02f" x="278.313842" y="350.3511" style="stroke: #000000; stroke-width: 0.6"/>
      </g>
     </g>
    </g>
    <g id="xtick_26">
     <g id="line2d_18">
      <g>
       <use xlink:href="#m6034c1f02f" x="289.455208" y="350.3511" style="stroke: #000000; stroke-width: 0.6"/>
      </g>
     </g>
    </g>
    <g id="xtick_27">
     <g id="line2d_19">
      <g>
       <use xlink:href="#m6034c1f02f" x="298.558368" y="350.3511" style="stroke: #000000; stroke-width: 0.6"/>
      </g>
     </g>
    </g>
    <g id="xtick_28">
     <g id="line2d_20">
      <g>
       <use xlink:href="#m6034c1f02f" x="306.254979" y="350.3511" style="stroke: #000000; stroke-width: 0.6"/>
      </g>
     </g>
    </g>
    <g id="xtick_29">
     <g id="line2d_21">
      <g>
       <use xlink:href="#m6034c1f02f" x="312.922088" y="350.3511" style="stroke: #000000; stroke-width: 0.6"/>
      </g>
     </g>
    </g>
    <g id="xtick_30">
     <g id="line2d_22">
      <g>
       <use xlink:href="#m6034c1f02f" x="318.802894" y="350.3511" style="stroke: #000000; stroke-width: 0.6"/>
      </g>
     </g>
    </g>
    <g id="xtick_31">
     <g id="line2d_23">
      <g>
       <use xlink:href="#m6034c1f02f" x="358.6717" y="350.3511" style="stroke: #000000; stroke-width: 0.6"/>
      </g>
     </g>
    </g>
    <g id="xtick_32">
     <g id="line2d_24">
      <g>
       <use xlink:href="#m6034c1f02f" x="378.916226" y="350.3511" style="stroke: #000000; stroke-width: 0.6"/>
      </g>
     </g>
    </g>
    <g id="xtick_33">
     <g id="line2d_25">
      <g>
       <use xlink:href="#m6034c1f02f" x="393.279946" y="350.3511" style="stroke: #000000; stroke-width: 0.6"/>
      </g>
     </g>
    </g>
    <g id="xtick_34">
     <g id="line2d_26">
      <g>
       <use xlink:href="#m6034c1f02f" x="404.421312" y="350.3511" style="stroke: #000000; stroke-width: 0.6"/>
      </g>
     </g>
    </g>
    <g id="xtick_35">
     <g id="line2d_27">
      <g>
       <use xlink:href="#m6034c1f02f" x="413.524472" y="350.3511" style="stroke: #000000; stroke-width: 0.6"/>
      </g>
     </g>
    </g>
    <g id="xtick_36">
     <g id="line2d_28">
      <g>
       <use xlink:href="#m6034c1f02f" x="421.221083" y="350.3511" style="stroke: #000000; stroke-width: 0.6"/>
      </g>
     </g>
    </g>
    <g id="xtick_37">
     <g id="line2d_29">
      <g>
       <use xlink:href="#m6034c1f02f" x="427.888192" y="350.3511" style="stroke: #000000; stroke-width: 0.6"/>
      </g>
     </g>
    </g>
    <g id="xtick_38">
     <g id="line2d_30">
      <g>
       <use xlink:href="#m6034c1f02f" x="433.768998" y="350.3511" style="stroke: #000000; stroke-width: 0.6"/>
      </g>
     </g>
    </g>
    <g id="xtick_39">
     <g id="line2d_31">
      <g>
       <use xlink:href="#m6034c1f02f" x="473.637804" y="350.3511" style="stroke: #000000; stroke-width: 0.6"/>
      </g>
     </g>
    </g>
    <g id="xtick_40">
     <g id="line2d_32">
      <g>
       <use xlink:href="#m6034c1f02f" x="493.88233" y="350.3511" style="stroke: #000000; stroke-width: 0.6"/>
      </g>
     </g>
    </g>
    <g id="xtick_41">
     <g id="line2d_33">
      <g>
       <use xlink:href="#m6034c1f02f" x="508.24605" y="350.3511" style="stroke: #000000; stroke-width: 0.6"/>
      </g>
     </g>
    </g>
    <g id="xtick_42">
     <g id="line2d_34">
      <g>
       <use xlink:href="#m6034c1f02f" x="519.387417" y="350.3511" style="stroke: #000000; stroke-width: 0.6"/>
      </g>
     </g>
    </g>
    <g id="xtick_43">
     <g id="line2d_35">
      <g>
       <use xlink:href="#m6034c1f02f" x="528.490576" y="350.3511" style="stroke: #000000; stroke-width: 0.6"/>
      </g>
     </g>
    </g>
    <g id="xtick_44">
     <g id="line2d_36">
      <g>
       <use xlink:href="#m6034c1f02f" x="536.187188" y="350.3511" style="stroke: #000000; stroke-width: 0.6"/>
      </g>
     </g>
    </g>
    <g id="xtick_45">
     <g id="line2d_37">
      <g>
       <use xlink:href="#m6034c1f02f" x="542.854296" y="350.3511" style="stroke: #000000; stroke-width: 0.6"/>
      </g>
     </g>
    </g>
    <g id="xtick_46">
     <g id="line2d_38">
      <g>
       <use xlink:href="#m6034c1f02f" x="548.735102" y="350.3511" style="stroke: #000000; stroke-width: 0.6"/>
      </g>
     </g>
    </g>
    <g id="xtick_47">
     <g id="line2d_39">
      <g>
       <use xlink:href="#m6034c1f02f" x="588.603908" y="350.3511" style="stroke: #000000; stroke-width: 0.6"/>
      </g>
     </g>
    </g>
    <g id="xtick_48">
     <g id="line2d_40">
      <g>
       <use xlink:href="#m6034c1f02f" x="608.848434" y="350.3511" style="stroke: #000000; stroke-width: 0.6"/>
      </g>
     </g>
    </g>
    <g id="xtick_49">
     <g id="line2d_41">
      <g>
       <use xlink:href="#m6034c1f02f" x="623.212154" y="350.3511" style="stroke: #000000; stroke-width: 0.6"/>
      </g>
     </g>
    </g>
    <g id="xtick_50">
     <g id="line2d_42">
      <g>
       <use xlink:href="#m6034c1f02f" x="634.353521" y="350.3511" style="stroke: #000000; stroke-width: 0.6"/>
      </g>
     </g>
    </g>
    <g id="xtick_51">
     <g id="line2d_43">
      <g>
       <use xlink:href="#m6034c1f02f" x="643.45668" y="350.3511" style="stroke: #000000; stroke-width: 0.6"/>
      </g>
     </g>
    </g>
    <g id="xtick_52">
     <g id="line2d_44">
      <g>
       <use xlink:href="#m6034c1f02f" x="651.153292" y="350.3511" style="stroke: #000000; stroke-width: 0.6"/>
      </g>
     </g>
    </g>
    <g id="xtick_53">
     <g id="line2d_45">
      <g>
       <use xlink:href="#m6034c1f02f" x="657.8204" y="350.3511" style="stroke: #000000; stroke-width: 0.6"/>
      </g>
     </g>
    </g>
    <g id="xtick_54">
     <g id="line2d_46">
      <g>
       <use xlink:href="#m6034c1f02f" x="663.701206" y="350.3511" style="stroke: #000000; stroke-width: 0.6"/>
      </g>
     </g>
    </g>
    <g id="xtick_55">
     <g id="line2d_47">
      <g>
       <use xlink:href="#m6034c1f02f" x="703.570012" y="350.3511" style="stroke: #000000; stroke-width: 0.6"/>
      </g>
     </g>
    </g>
    <g id="xtick_56">
     <g id="line2d_48">
      <g>
       <use xlink:href="#m6034c1f02f" x="723.814538" y="350.3511" style="stroke: #000000; stroke-width: 0.6"/>
      </g>
     </g>
    </g>
    <g id="xtick_57">
     <g id="line2d_49">
      <g>
       <use xlink:href="#m6034c1f02f" x="738.178258" y="350.3511" style="stroke: #000000; stroke-width: 0.6"/>
      </g>
     </g>
    </g>
    <g id="xtick_58">
     <g id="line2d_50">
      <g>
       <use xlink:href="#m6034c1f02f" x="749.319625" y="350.3511" style="stroke: #000000; stroke-width: 0.6"/>
      </g>
     </g>
    </g>
    <g id="xtick_59">
     <g id="line2d_51">
      <g>
       <use xlink:href="#m6034c1f02f" x="758.422784" y="350.3511" style="stroke: #000000; stroke-width: 0.6"/>
      </g>
     </g>
    </g>
    <g id="xtick_60">
     <g id="line2d_52">
      <g>
       <use xlink:href="#m6034c1f02f" x="766.119396" y="350.3511" style="stroke: #000000; stroke-width: 0.6"/>
      </g>
     </g>
    </g>
    <g id="xtick_61">
     <g id="line2d_53">
      <g>
       <use xlink:href="#m6034c1f02f" x="772.786504" y="350.3511" style="stroke: #000000; stroke-width: 0.6"/>
      </g>
     </g>
    </g>
    <g id="xtick_62">
     <g id="line2d_54">
      <g>
       <use xlink:href="#m6034c1f02f" x="778.66731" y="350.3511" style="stroke: #000000; stroke-width: 0.6"/>
      </g>
     </g>
    </g>
    <g id="xtick_63">
     <g id="line2d_55">
      <g>
       <use xlink:href="#m6034c1f02f" x="818.536116" y="350.3511" style="stroke: #000000; stroke-width: 0.6"/>
      </g>
     </g>
    </g>
    <g id="xtick_64">
     <g id="line2d_56">
      <g>
       <use xlink:href="#m6034c1f02f" x="838.780643" y="350.3511" style="stroke: #000000; stroke-width: 0.6"/>
      </g>
     </g>
    </g>
    <g id="xtick_65">
     <g id="line2d_57">
      <g>
       <use xlink:href="#m6034c1f02f" x="853.144362" y="350.3511" style="stroke: #000000; stroke-width: 0.6"/>
      </g>
     </g>
    </g>
    <g id="xtick_66">
     <g id="line2d_58">
      <g>
       <use xlink:href="#m6034c1f02f" x="864.285729" y="350.3511" style="stroke: #000000; stroke-width: 0.6"/>
      </g>
     </g>
    </g>
    <g id="xtick_67">
     <g id="line2d_59">
      <g>
       <use xlink:href="#m6034c1f02f" x="873.388888" y="350.3511" style="stroke: #000000; stroke-width: 0.6"/>
      </g>
     </g>
    </g>
    <g id="xtick_68">
     <g id="line2d_60">
      <g>
       <use xlink:href="#m6034c1f02f" x="881.0855" y="350.3511" style="stroke: #000000; stroke-width: 0.6"/>
      </g>
     </g>
    </g>
    <g id="xtick_69">
     <g id="line2d_61">
      <g>
       <use xlink:href="#m6034c1f02f" x="887.752608" y="350.3511" style="stroke: #000000; stroke-width: 0.6"/>
      </g>
     </g>
    </g>
    <g id="xtick_70">
     <g id="line2d_62">
      <g>
       <use xlink:href="#m6034c1f02f" x="893.633414" y="350.3511" style="stroke: #000000; stroke-width: 0.6"/>
      </g>
     </g>
    </g>
    <g id="xtick_71">
     <g id="line2d_63">
      <g>
       <use xlink:href="#m6034c1f02f" x="933.502221" y="350.3511" style="stroke: #000000; stroke-width: 0.6"/>
      </g>
     </g>
    </g>
    <g id="xtick_72">
     <g id="line2d_64">
      <g>
       <use xlink:href="#m6034c1f02f" x="953.746747" y="350.3511" style="stroke: #000000; stroke-width: 0.6"/>
      </g>
     </g>
    </g>
    <g id="xtick_73">
     <g id="line2d_65">
      <g>
       <use xlink:href="#m6034c1f02f" x="968.110466" y="350.3511" style="stroke: #000000; stroke-width: 0.6"/>
      </g>
     </g>
    </g>
    <g id="xtick_74">
     <g id="line2d_66">
      <g>
       <use xlink:href="#m6034c1f02f" x="979.251833" y="350.3511" style="stroke: #000000; stroke-width: 0.6"/>
      </g>
     </g>
    </g>
    <g id="xtick_75">
     <g id="line2d_67">
      <g>
       <use xlink:href="#m6034c1f02f" x="988.354992" y="350.3511" style="stroke: #000000; stroke-width: 0.6"/>
      </g>
     </g>
    </g>
    <g id="text_9">
     <!-- expression (reads/kbp) -->
     <g transform="translate(460.863125 376.692037) scale(0.1 -0.1)">
      <defs>
       <path id="DejaVuSans-65" d="M 3597 1894 
L 3597 1613 
L 953 1613 
Q 991 1019 1311 708 
Q 1631 397 2203 397 
Q 2534 397 2845 478 
Q 3156 559 3463 722 
L 3463 178 
Q 3153 47 2828 -22 
Q 2503 -91 2169 -91 
Q 1331 -91 842 396 
Q 353 884 353 1716 
Q 353 2575 817 3079 
Q 1281 3584 2069 3584 
Q 2775 3584 3186 3129 
Q 3597 2675 3597 1894 
z
M 3022 2063 
Q 3016 2534 2758 2815 
Q 2500 3097 2075 3097 
Q 1594 3097 1305 2825 
Q 1016 2553 972 2059 
L 3022 2063 
z
" transform="scale(0.015625)"/>
       <path id="DejaVuSans-78" d="M 3513 3500 
L 2247 1797 
L 3578 0 
L 2900 0 
L 1881 1375 
L 863 0 
L 184 0 
L 1544 1831 
L 300 3500 
L 978 3500 
L 1906 2253 
L 2834 3500 
L 3513 3500 
z
" transform="scale(0.015625)"/>
       <path id="DejaVuSans-70" d="M 1159 525 
L 1159 -1331 
L 581 -1331 
L 581 3500 
L 1159 3500 
L 1159 2969 
Q 1341 3281 1617 3432 
Q 1894 3584 2278 3584 
Q 2916 3584 3314 3078 
Q 3713 2572 3713 1747 
Q 3713 922 3314 415 
Q 2916 -91 2278 -91 
Q 1894 -91 1617 61 
Q 1341 213 1159 525 
z
M 3116 1747 
Q 3116 2381 2855 2742 
Q 2594 3103 2138 3103 
Q 1681 3103 1420 2742 
Q 1159 2381 1159 1747 
Q 1159 1113 1420 752 
Q 1681 391 2138 391 
Q 2594 391 2855 752 
Q 3116 1113 3116 1747 
z
" transform="scale(0.015625)"/>
       <path id="DejaVuSans-72" d="M 2631 2963 
Q 2534 3019 2420 3045 
Q 2306 3072 2169 3072 
Q 1681 3072 1420 2755 
Q 1159 2438 1159 1844 
L 1159 0 
L 581 0 
L 581 3500 
L 1159 3500 
L 1159 2956 
Q 1341 3275 1631 3429 
Q 1922 3584 2338 3584 
Q 2397 3584 2469 3576 
Q 2541 3569 2628 3553 
L 2631 2963 
z
" transform="scale(0.015625)"/>
       <path id="DejaVuSans-73" d="M 2834 3397 
L 2834 2853 
Q 2591 2978 2328 3040 
Q 2066 3103 1784 3103 
Q 1356 3103 1142 2972 
Q 928 2841 928 2578 
Q 928 2378 1081 2264 
Q 1234 2150 1697 2047 
L 1894 2003 
Q 2506 1872 2764 1633 
Q 3022 1394 3022 966 
Q 3022 478 2636 193 
Q 2250 -91 1575 -91 
Q 1294 -91 989 -36 
Q 684 19 347 128 
L 347 722 
Q 666 556 975 473 
Q 1284 391 1588 391 
Q 1994 391 2212 530 
Q 2431 669 2431 922 
Q 2431 1156 2273 1281 
Q 2116 1406 1581 1522 
L 1381 1569 
Q 847 1681 609 1914 
Q 372 2147 372 2553 
Q 372 3047 722 3315 
Q 1072 3584 1716 3584 
Q 2034 3584 2315 3537 
Q 2597 3491 2834 3397 
z
" transform="scale(0.015625)"/>
       <path id="DejaVuSans-69" d="M 603 3500 
L 1178 3500 
L 1178 0 
L 603 0 
L 603 3500 
z
M 603 4863 
L 1178 4863 
L 1178 4134 
L 603 4134 
L 603 4863 
z
" transform="scale(0.015625)"/>
       <path id="DejaVuSans-6f" d="M 1959 3097 
Q 1497 3097 1228 2736 
Q 959 2375 959 1747 
Q 959 1119 1226 758 
Q 1494 397 1959 397 
Q 2419 397 2687 759 
Q 2956 1122 2956 1747 
Q 2956 2369 2687 2733 
Q 2419 3097 1959 3097 
z
M 1959 3584 
Q 2709 3584 3137 3096 
Q 3566 2609 3566 1747 
Q 3566 888 3137 398 
Q 2709 -91 1959 -91 
Q 1206 -91 779 398 
Q 353 888 353 1747 
Q 353 2609 779 3096 
Q 1206 3584 1959 3584 
z
" transform="scale(0.015625)"/>
       <path id="DejaVuSans-6e" d="M 3513 2113 
L 3513 0 
L 2938 0 
L 2938 2094 
Q 2938 2591 2744 2837 
Q 2550 3084 2163 3084 
Q 1697 3084 1428 2787 
Q 1159 2491 1159 1978 
L 1159 0 
L 581 0 
L 581 3500 
L 1159 3500 
L 1159 2956 
Q 1366 3272 1645 3428 
Q 1925 3584 2291 3584 
Q 2894 3584 3203 3211 
Q 3513 2838 3513 2113 
z
" transform="scale(0.015625)"/>
       <path id="DejaVuSans-20" transform="scale(0.015625)"/>
       <path id="DejaVuSans-28" d="M 1984 4856 
Q 1566 4138 1362 3434 
Q 1159 2731 1159 2009 
Q 1159 1288 1364 580 
Q 1569 -128 1984 -844 
L 1484 -844 
Q 1016 -109 783 600 
Q 550 1309 550 2009 
Q 550 2706 781 3412 
Q 1013 4119 1484 4856 
L 1984 4856 
z
" transform="scale(0.015625)"/>
       <path id="DejaVuSans-61" d="M 2194 1759 
Q 1497 1759 1228 1600 
Q 959 1441 959 1056 
Q 959 750 1161 570 
Q 1363 391 1709 391 
Q 2188 391 2477 730 
Q 2766 1069 2766 1631 
L 2766 1759 
L 2194 1759 
z
M 3341 1997 
L 3341 0 
L 2766 0 
L 2766 531 
Q 2569 213 2275 61 
Q 1981 -91 1556 -91 
Q 1019 -91 701 211 
Q 384 513 384 1019 
Q 384 1609 779 1909 
Q 1175 2209 1959 2209 
L 2766 2209 
L 2766 2266 
Q 2766 2663 2505 2880 
Q 2244 3097 1772 3097 
Q 1472 3097 1187 3025 
Q 903 2953 641 2809 
L 641 3341 
Q 956 3463 1253 3523 
Q 1550 3584 1831 3584 
Q 2591 3584 2966 3190 
Q 3341 2797 3341 1997 
z
" transform="scale(0.015625)"/>
       <path id="DejaVuSans-64" d="M 2906 2969 
L 2906 4863 
L 3481 4863 
L 3481 0 
L 2906 0 
L 2906 525 
Q 2725 213 2448 61 
Q 2172 -91 1784 -91 
Q 1150 -91 751 415 
Q 353 922 353 1747 
Q 353 2572 751 3078 
Q 1150 3584 1784 3584 
Q 2172 3584 2448 3432 
Q 2725 3281 2906 2969 
z
M 947 1747 
Q 947 1113 1208 752 
Q 1469 391 1925 391 
Q 2381 391 2643 752 
Q 2906 1113 2906 1747 
Q 2906 2381 2643 2742 
Q 2381 3103 1925 3103 
Q 1469 3103 1208 2742 
Q 947 2381 947 1747 
z
" transform="scale(0.015625)"/>
       <path id="DejaVuSans-2f" d="M 1625 4666 
L 2156 4666 
L 531 -594 
L 0 -594 
L 1625 4666 
z
" transform="scale(0.015625)"/>
       <path id="DejaVuSans-6b" d="M 581 4863 
L 1159 4863 
L 1159 1991 
L 2875 3500 
L 3609 3500 
L 1753 1863 
L 3688 0 
L 2938 0 
L 1159 1709 
L 1159 0 
L 581 0 
L 581 4863 
z
" transform="scale(0.015625)"/>
       <path id="DejaVuSans-62" d="M 3116 1747 
Q 3116 2381 2855 2742 
Q 2594 3103 2138 3103 
Q 1681 3103 1420 2742 
Q 1159 2381 1159 1747 
Q 1159 1113 1420 752 
Q 1681 391 2138 391 
Q 2594 391 2855 752 
Q 3116 1113 3116 1747 
z
M 1159 2969 
Q 1341 3281 1617 3432 
Q 1894 3584 2278 3584 
Q 2916 3584 3314 3078 
Q 3713 2572 3713 1747 
Q 3713 922 3314 415 
Q 2916 -91 2278 -91 
Q 1894 -91 1617 61 
Q 1341 213 1159 525 
L 1159 0 
L 581 0 
L 581 4863 
L 1159 4863 
L 1159 2969 
z
" transform="scale(0.015625)"/>
       <path id="DejaVuSans-29" d="M 513 4856 
L 1013 4856 
Q 1481 4119 1714 3412 
Q 1947 2706 1947 2009 
Q 1947 1309 1714 600 
Q 1481 -109 1013 -844 
L 513 -844 
Q 928 -128 1133 580 
Q 1338 1288 1338 2009 
Q 1338 2731 1133 3434 
Q 928 4138 513 4856 
z
" transform="scale(0.015625)"/>
      </defs>
      <use xlink:href="#DejaVuSans-65"/>
      <use xlink:href="#DejaVuSans-78" x="59.773438"/>
      <use xlink:href="#DejaVuSans-70" x="118.953125"/>
      <use xlink:href="#DejaVuSans-72" x="182.429688"/>
      <use xlink:href="#DejaVuSans-65" x="221.292969"/>
      <use xlink:href="#DejaVuSans-73" x="282.816406"/>
      <use xlink:href="#DejaVuSans-73" x="334.916016"/>
      <use xlink:href="#DejaVuSans-69" x="387.015625"/>
      <use xlink:href="#DejaVuSans-6f" x="414.798828"/>
      <use xlink:href="#DejaVuSans-6e" x="475.980469"/>
      <use xlink:href="#DejaVuSans-20" x="539.359375"/>
      <use xlink:href="#DejaVuSans-28" x="571.146484"/>
      <use xlink:href="#DejaVuSans-72" x="610.160156"/>
      <use xlink:href="#DejaVuSans-65" x="649.023438"/>
      <use xlink:href="#DejaVuSans-61" x="710.546875"/>
      <use xlink:href="#DejaVuSans-64" x="771.826172"/>
      <use xlink:href="#DejaVuSans-73" x="835.302734"/>
      <use xlink:href="#DejaVuSans-2f" x="887.402344"/>
      <use xlink:href="#DejaVuSans-6b" x="921.09375"/>
      <use xlink:href="#DejaVuSans-62" x="979.003906"/>
      <use xlink:href="#DejaVuSans-70" x="1042.480469"/>
      <use xlink:href="#DejaVuSans-29" x="1105.957031"/>
     </g>
    </g>
   </g>
   <g id="matplotlib.axis_2">
    <g id="ytick_1">
     <g id="line2d_68">
      <path d="M 43.148125 350.3511 
L 993.078125 350.3511 
" clip-path="url(#pd16937b419)" style="fill: none; stroke: #dedede; stroke-linecap: square"/>
     </g>
     <g id="text_10">
      <!-- 0 -->
      <g transform="translate(31.058125 353.390475) scale(0.08 -0.08)">
       <use xlink:href="#DejaVuSans-30"/>
      </g>
     </g>
    </g>
    <g id="ytick_2">
     <g id="line2d_69">
      <path d="M 43.148125 287.3047 
L 993.078125 287.3047 
" clip-path="url(#pd16937b419)" style="fill: none; stroke: #dedede; stroke-linecap: square"/>
     </g>
     <g id="text_11">
      <!-- 20 -->
      <g transform="translate(25.968125 290.344075) scale(0.08 -0.08)">
       <use xlink:href="#DejaVuSans-32"/>
       <use xlink:href="#DejaVuSans-30" x="63.623047"/>
      </g>
     </g>
    </g>
    <g id="ytick_3">
     <g id="line2d_70">
      <path d="M 43.148125 224.2583 
L 993.078125 224.2583 
" clip-path="url(#pd16937b419)" style="fill: none; stroke: #dedede; stroke-linecap: square"/>
     </g>
     <g id="text_12">
      <!-- 40 -->
      <g transform="translate(25.968125 227.297675) scale(0.08 -0.08)">
       <use xlink:href="#DejaVuSans-34"/>
       <use xlink:href="#DejaVuSans-30" x="63.623047"/>
      </g>
     </g>
    </g>
    <g id="ytick_4">
     <g id="line2d_71">
      <path d="M 43.148125 161.2119 
L 993.078125 161.2119 
" clip-path="url(#pd16937b419)" style="fill: none; stroke: #dedede; stroke-linecap: square"/>
     </g>
     <g id="text_13">
      <!-- 60 -->
      <g transform="translate(25.968125 164.251275) scale(0.08 -0.08)">
       <defs>
        <path id="DejaVuSans-36" d="M 2113 2584 
Q 1688 2584 1439 2293 
Q 1191 2003 1191 1497 
Q 1191 994 1439 701 
Q 1688 409 2113 409 
Q 2538 409 2786 701 
Q 3034 994 3034 1497 
Q 3034 2003 2786 2293 
Q 2538 2584 2113 2584 
z
M 3366 4563 
L 3366 3988 
Q 3128 4100 2886 4159 
Q 2644 4219 2406 4219 
Q 1781 4219 1451 3797 
Q 1122 3375 1075 2522 
Q 1259 2794 1537 2939 
Q 1816 3084 2150 3084 
Q 2853 3084 3261 2657 
Q 3669 2231 3669 1497 
Q 3669 778 3244 343 
Q 2819 -91 2113 -91 
Q 1303 -91 875 529 
Q 447 1150 447 2328 
Q 447 3434 972 4092 
Q 1497 4750 2381 4750 
Q 2619 4750 2861 4703 
Q 3103 4656 3366 4563 
z
" transform="scale(0.015625)"/>
       </defs>
       <use xlink:href="#DejaVuSans-36"/>
       <use xlink:href="#DejaVuSans-30" x="63.623047"/>
      </g>
     </g>
    </g>
    <g id="ytick_5">
     <g id="line2d_72">
      <path d="M 43.148125 98.1655 
L 993.078125 98.1655 
" clip-path="url(#pd16937b419)" style="fill: none; stroke: #dedede; stroke-linecap: square"/>
     </g>
     <g id="text_14">
      <!-- 80 -->
      <g transform="translate(25.968125 101.204875) scale(0.08 -0.08)">
       <defs>
        <path id="DejaVuSans-38" d="M 2034 2216 
Q 1584 2216 1326 1975 
Q 1069 1734 1069 1313 
Q 1069 891 1326 650 
Q 1584 409 2034 409 
Q 2484 409 2743 651 
Q 3003 894 3003 1313 
Q 3003 1734 2745 1975 
Q 2488 2216 2034 2216 
z
M 1403 2484 
Q 997 2584 770 2862 
Q 544 3141 544 3541 
Q 544 4100 942 4425 
Q 1341 4750 2034 4750 
Q 2731 4750 3128 4425 
Q 3525 4100 3525 3541 
Q 3525 3141 3298 2862 
Q 3072 2584 2669 2484 
Q 3125 2378 3379 2068 
Q 3634 1759 3634 1313 
Q 3634 634 3220 271 
Q 2806 -91 2034 -91 
Q 1263 -91 848 271 
Q 434 634 434 1313 
Q 434 1759 690 2068 
Q 947 2378 1403 2484 
z
M 1172 3481 
Q 1172 3119 1398 2916 
Q 1625 2713 2034 2713 
Q 2441 2713 2670 2916 
Q 2900 3119 2900 3481 
Q 2900 3844 2670 4047 
Q 2441 4250 2034 4250 
Q 1625 4250 1398 4047 
Q 1172 3844 1172 3481 
z
" transform="scale(0.015625)"/>
       </defs>
       <use xlink:href="#DejaVuSans-38"/>
       <use xlink:href="#DejaVuSans-30" x="63.623047"/>
      </g>
     </g>
    </g>
    <g id="ytick_6">
     <g id="line2d_73">
      <path d="M 43.148125 35.1191 
L 993.078125 35.1191 
" clip-path="url(#pd16937b419)" style="fill: none; stroke: #dedede; stroke-linecap: square"/>
     </g>
     <g id="text_15">
      <!-- 100 -->
      <g transform="translate(20.878125 38.158475) scale(0.08 -0.08)">
       <use xlink:href="#DejaVuSans-31"/>
       <use xlink:href="#DejaVuSans-30" x="63.623047"/>
       <use xlink:href="#DejaVuSans-30" x="127.246094"/>
      </g>
     </g>
    </g>
    <g id="text_16">
     <!-- % duplicate reads -->
     <g transform="translate(14.798438 237.671819) rotate(-90) scale(0.1 -0.1)">
      <defs>
       <path id="DejaVuSans-25" d="M 4653 2053 
Q 4381 2053 4226 1822 
Q 4072 1591 4072 1178 
Q 4072 772 4226 539 
Q 4381 306 4653 306 
Q 4919 306 5073 539 
Q 5228 772 5228 1178 
Q 5228 1588 5073 1820 
Q 4919 2053 4653 2053 
z
M 4653 2450 
Q 5147 2450 5437 2106 
Q 5728 1763 5728 1178 
Q 5728 594 5436 251 
Q 5144 -91 4653 -91 
Q 4153 -91 3862 251 
Q 3572 594 3572 1178 
Q 3572 1766 3864 2108 
Q 4156 2450 4653 2450 
z
M 1428 4353 
Q 1159 4353 1004 4120 
Q 850 3888 850 3481 
Q 850 3069 1003 2837 
Q 1156 2606 1428 2606 
Q 1700 2606 1854 2837 
Q 2009 3069 2009 3481 
Q 2009 3884 1853 4118 
Q 1697 4353 1428 4353 
z
M 4250 4750 
L 4750 4750 
L 1831 -91 
L 1331 -91 
L 4250 4750 
z
M 1428 4750 
Q 1922 4750 2215 4408 
Q 2509 4066 2509 3481 
Q 2509 2891 2217 2550 
Q 1925 2209 1428 2209 
Q 931 2209 642 2551 
Q 353 2894 353 3481 
Q 353 4063 643 4406 
Q 934 4750 1428 4750 
z
" transform="scale(0.015625)"/>
       <path id="DejaVuSans-75" d="M 544 1381 
L 544 3500 
L 1119 3500 
L 1119 1403 
Q 1119 906 1312 657 
Q 1506 409 1894 409 
Q 2359 409 2629 706 
Q 2900 1003 2900 1516 
L 2900 3500 
L 3475 3500 
L 3475 0 
L 2900 0 
L 2900 538 
Q 2691 219 2414 64 
Q 2138 -91 1772 -91 
Q 1169 -91 856 284 
Q 544 659 544 1381 
z
M 1991 3584 
L 1991 3584 
z
" transform="scale(0.015625)"/>
       <path id="DejaVuSans-6c" d="M 603 4863 
L 1178 4863 
L 1178 0 
L 603 0 
L 603 4863 
z
" transform="scale(0.015625)"/>
       <path id="DejaVuSans-63" d="M 3122 3366 
L 3122 2828 
Q 2878 2963 2633 3030 
Q 2388 3097 2138 3097 
Q 1578 3097 1268 2742 
Q 959 2388 959 1747 
Q 959 1106 1268 751 
Q 1578 397 2138 397 
Q 2388 397 2633 464 
Q 2878 531 3122 666 
L 3122 134 
Q 2881 22 2623 -34 
Q 2366 -91 2075 -91 
Q 1284 -91 818 406 
Q 353 903 353 1747 
Q 353 2603 823 3093 
Q 1294 3584 2113 3584 
Q 2378 3584 2631 3529 
Q 2884 3475 3122 3366 
z
" transform="scale(0.015625)"/>
       <path id="DejaVuSans-74" d="M 1172 4494 
L 1172 3500 
L 2356 3500 
L 2356 3053 
L 1172 3053 
L 1172 1153 
Q 1172 725 1289 603 
Q 1406 481 1766 481 
L 2356 481 
L 2356 0 
L 1766 0 
Q 1100 0 847 248 
Q 594 497 594 1153 
L 594 3053 
L 172 3053 
L 172 3500 
L 594 3500 
L 594 4494 
L 1172 4494 
z
" transform="scale(0.015625)"/>
      </defs>
      <use xlink:href="#DejaVuSans-25"/>
      <use xlink:href="#DejaVuSans-20" x="95.019531"/>
      <use xlink:href="#DejaVuSans-64" x="126.806641"/>
      <use xlink:href="#DejaVuSans-75" x="190.283203"/>
      <use xlink:href="#DejaVuSans-70" x="253.662109"/>
      <use xlink:href="#DejaVuSans-6c" x="317.138672"/>
      <use xlink:href="#DejaVuSans-69" x="344.921875"/>
      <use xlink:href="#DejaVuSans-63" x="372.705078"/>
      <use xlink:href="#DejaVuSans-61" x="427.685547"/>
      <use xlink:href="#DejaVuSans-74" x="488.964844"/>
      <use xlink:href="#DejaVuSans-65" x="528.173828"/>
      <use xlink:href="#DejaVuSans-20" x="589.697266"/>
      <use xlink:href="#DejaVuSans-72" x="621.484375"/>
      <use xlink:href="#DejaVuSans-65" x="660.347656"/>
      <use xlink:href="#DejaVuSans-61" x="721.871094"/>
      <use xlink:href="#DejaVuSans-64" x="783.150391"/>
      <use xlink:href="#DejaVuSans-73" x="846.626953"/>
     </g>
    </g>
   </g>
   <g id="line2d_74">
    <path d="M 183.484391 307.563221 
L 204.771673 302.456856 
L 221.07894 298.214853 
L 237.709531 293.583767 
L 251.726131 289.436281 
L 266.663801 284.766923 
L 281.530869 279.862779 
L 296.022558 274.836447 
L 310.571703 269.548649 
L 325.481416 263.884055 
L 340.500066 257.934817 
L 355.96166 251.566946 
L 372.03364 244.702815 
L 389.197524 237.120609 
L 407.317922 228.867088 
L 427.161216 219.584319 
L 451.357492 208.006709 
L 488.999272 189.707601 
L 526.728659 171.447851 
L 549.650116 160.601156 
L 569.366052 151.514764 
L 587.19736 143.540861 
L 603.748024 136.380169 
L 619.56181 129.778223 
L 634.894166 123.618472 
L 649.733087 117.895621 
L 664.323357 112.506439 
L 678.617796 107.46102 
L 692.924167 102.647232 
L 707.097269 98.112282 
L 721.302749 93.800158 
L 735.45614 89.733865 
L 749.45011 85.935593 
L 764.264201 82.150272 
L 778.708856 78.68627 
L 793.02158 75.46775 
L 808.425765 72.232705 
L 821.284925 69.706589 
L 834.746264 67.224938 
L 850.909029 64.454882 
L 868.266661 61.72066 
L 888.585342 58.81531 
L 888.585342 58.81531 
" clip-path="url(#pd16937b419)" style="fill: none; stroke: #7cb5ec; stroke-linecap: square"/>
   </g>
   <g id="line2d_75">
    <path d="M 190.151499 296.25962 
L 220.151417 287.635572 
L 236.597321 282.486569 
L 251.878802 277.433207 
L 267.012957 272.174974 
L 282.325287 266.602227 
L 297.834672 260.705859 
L 312.563886 254.8806 
L 329.047398 248.115275 
L 345.880282 240.957903 
L 363.814511 233.083857 
L 383.232578 224.309697 
L 405.57174 213.960872 
L 434.044366 200.507745 
L 501.272426 168.648021 
L 523.761113 158.298784 
L 543.190829 149.59815 
L 560.873326 141.917951 
L 577.77445 134.819934 
L 593.790554 128.334648 
L 609.286292 122.299402 
L 624.404532 116.649636 
L 639.241228 111.342193 
L 653.917954 106.328396 
L 668.380513 101.620696 
L 682.897284 97.128777 
L 697.443346 92.861463 
L 711.984516 88.826848 
L 726.87272 84.931381 
L 741.623013 81.301478 
L 756.636323 77.834663 
L 772.160544 74.483302 
L 787.577274 71.380779 
L 803.382399 68.423141 
L 819.903508 65.560962 
L 838.145286 62.657723 
L 850.603759 60.821203 
L 872.831573 57.819815 
L 890.804809 55.632891 
L 905.699668 53.970741 
L 905.699668 53.970741 
" clip-path="url(#pd16937b419)" style="fill: none; stroke: #434348; stroke-linecap: square"/>
   </g>
   <g id="line2d_76">
    <path d="M 135.251632 340.439374 
L 198.875099 334.042062 
L 220.363696 331.107045 
L 235.297945 328.783612 
L 250.076861 326.230795 
L 264.150239 323.545087 
L 276.973911 320.864608 
L 289.131719 318.103841 
L 301.446319 315.076399 
L 313.302998 311.9297 
L 324.767401 308.660157 
L 335.89611 305.263756 
L 347.311127 301.54364 
L 358.339944 297.714871 
L 369.069691 293.763069 
L 380.02693 289.49212 
L 390.939088 284.999354 
L 401.985261 280.20668 
L 413.140561 275.117285 
L 424.391981 269.732965 
L 435.821392 264.010758 
L 447.596374 257.85801 
L 459.045206 251.636787 
L 471.679547 244.515651 
L 484.779171 236.873783 
L 499.159536 228.218951 
L 514.628661 218.651954 
L 534.173931 206.286597 
L 604.889387 161.272325 
L 620.347936 151.858303 
L 634.040781 143.77051 
L 646.943051 136.401334 
L 659.244812 129.628044 
L 671.142962 123.330481 
L 682.606302 117.512066 
L 693.809263 112.071075 
L 705.027072 106.871941 
L 716.040782 102.013318 
L 726.84394 97.485444 
L 737.810319 93.129307 
L 748.604397 89.075435 
L 759.834819 85.099717 
L 770.878717 81.425188 
L 781.685639 78.048819 
L 793.498895 74.597768 
L 805.013864 71.465387 
L 817.042964 68.42623 
L 829.489011 65.519823 
L 842.943871 62.63465 
L 854.875712 60.285679 
L 868.214512 57.877585 
L 882.971738 55.462196 
L 901.157789 52.814078 
L 908.977713 51.778012 
L 927.60734 49.536067 
L 927.60734 49.536067 
" clip-path="url(#pd16937b419)" style="fill: none; stroke: #90ed7d; stroke-linecap: square"/>
   </g>
   <g id="line2d_77">
    <path d="M 163.895963 339.60181 
L 196.25958 336.384198 
L 215.101258 334.106935 
L 233.361438 331.56829 
L 247.901341 329.285811 
L 261.628325 326.897061 
L 274.10276 324.512704 
L 286.793797 321.862359 
L 299.060172 319.07052 
L 311.002253 316.121226 
L 322.34582 313.096361 
L 333.607935 309.866929 
L 344.734192 306.445057 
L 355.668266 302.849343 
L 366.420348 299.080687 
L 377.224912 295.054623 
L 387.955832 290.813701 
L 398.514406 286.401635 
L 409.350117 281.625018 
L 420.020687 276.674862 
L 430.747937 271.454012 
L 441.854068 265.795176 
L 452.846341 259.947647 
L 464.277736 253.617166 
L 476.218304 246.749138 
L 489.024298 239.116638 
L 502.503692 230.817896 
L 517.149891 221.541054 
L 534.496361 210.285943 
L 559.915985 193.493176 
L 593.31276 171.465067 
L 610.849898 160.174119 
L 625.538138 150.973671 
L 639.044165 142.773913 
L 651.552805 135.437597 
L 663.495119 128.690028 
L 675.011277 122.438716 
L 686.189431 116.623654 
L 697.075207 111.208801 
L 707.840691 106.100209 
L 718.566387 101.257276 
L 729.039738 96.766804 
L 739.473926 92.526449 
L 750.220866 88.399662 
L 761.055637 84.481906 
L 771.449748 80.947099 
L 782.338804 77.47194 
L 793.501687 74.143159 
L 804.043753 71.208263 
L 816.395469 68.015829 
L 828.755394 65.073617 
L 841.357505 62.318435 
L 853.890604 59.80797 
L 865.569689 57.66123 
L 878.296488 55.518991 
L 890.10384 53.702414 
L 903.956145 51.764766 
L 923.266966 49.380036 
L 923.266966 49.380036 
" clip-path="url(#pd16937b419)" style="fill: none; stroke: #f7a35c; stroke-linecap: square"/>
   </g>
   <g id="line2d_78">
    <path d="M 86.326761 345.601974 
L 200.786833 338.226715 
L 221.381339 336.041273 
L 238.11857 333.993591 
L 253.69452 331.841738 
L 267.929114 329.645631 
L 281.616145 327.307697 
L 294.521976 324.882763 
L 307.29936 322.254827 
L 319.532166 319.51219 
L 331.477933 316.606071 
L 343.172617 313.530247 
L 354.52622 310.31427 
L 365.461234 306.992913 
L 376.623034 303.366889 
L 387.496874 299.597413 
L 398.237763 295.637766 
L 408.584485 291.596427 
L 419.455232 287.106585 
L 429.926399 282.543371 
L 440.700717 277.6034 
L 451.618248 272.346315 
L 462.357697 266.931945 
L 473.637804 260.992412 
L 485.100472 254.702162 
L 497.018605 247.905083 
L 509.676099 240.421672 
L 523.039838 232.256148 
L 537.51698 223.148947 
L 554.535085 212.171828 
L 577.618183 196.992143 
L 617.954595 170.445977 
L 635.127631 159.43824 
L 649.761616 150.314582 
L 663.217031 142.186155 
L 675.530857 134.999828 
L 687.402139 128.324249 
L 698.879746 122.123124 
L 710.075384 116.326623 
L 720.832808 111.000109 
L 731.573539 105.924971 
L 741.845415 101.301364 
L 752.18386 96.875592 
L 762.841765 92.551259 
L 770.963235 89.41676 
L 782.061706 85.354427 
L 794.217743 81.191443 
L 803.667759 78.156105 
L 817.269485 74.084469 
L 831.648456 70.144436 
L 846.085189 66.54374 
L 859.810746 63.42954 
L 873.987689 60.507618 
L 914.42047 53.626724 
L 914.42047 53.626724 
" clip-path="url(#pd16937b419)" style="fill: none; stroke: #8085e9; stroke-linecap: square"/>
   </g>
   <g id="line2d_79">
    <path d="M 135.251632 339.795398 
L 195.535151 333.633253 
L 213.48353 331.219486 
L 227.551934 329.10348 
L 244.480487 326.270168 
L 258.029388 323.757056 
L 271.439956 321.037418 
L 283.702162 318.334869 
L 296.351087 315.317786 
L 308.479033 312.194246 
L 320.371331 308.901105 
L 332.23666 305.378174 
L 343.672943 301.749799 
L 354.866099 297.970169 
L 365.99937 293.980859 
L 376.957969 289.825843 
L 388.14651 285.346889 
L 399.248205 280.664779 
L 410.588246 275.63779 
L 421.981839 270.340825 
L 433.470318 264.75477 
L 445.349167 258.728305 
L 457.556451 252.281741 
L 470.174896 245.364864 
L 483.597057 237.749049 
L 497.987801 229.32248 
L 513.763316 219.826 
L 532.992252 207.977574 
L 564.061107 188.520816 
L 592.608291 170.741841 
L 610.752867 159.702712 
L 626.19052 150.565647 
L 640.237026 142.507292 
L 653.338023 135.244894 
L 665.712989 128.633531 
L 677.809111 122.42198 
L 689.529621 116.652371 
L 700.999992 111.251902 
L 712.407422 106.128075 
L 723.657219 101.319356 
L 734.969914 96.729257 
L 746.121379 92.444451 
L 756.881299 88.53328 
L 767.643603 84.836721 
L 778.878521 81.202472 
L 789.880537 77.859687 
L 800.814827 74.742387 
L 812.704657 71.575685 
L 824.750063 68.594192 
L 836.176391 65.966646 
L 849.010568 63.236006 
L 864.203286 60.286745 
L 876.99251 58.026013 
L 890.517107 55.84007 
L 903.672888 53.901189 
L 920.21512 51.704208 
L 920.21512 51.704208 
" clip-path="url(#pd16937b419)" style="fill: none; stroke: #f15c80; stroke-linecap: square"/>
   </g>
   <g id="line2d_80">
    <path d="M 175.787779 332.455397 
L 200.786833 328.910957 
L 218.364546 326.039919 
L 234.303757 323.136139 
L 248.458361 320.297891 
L 262.073547 317.320863 
L 274.637951 314.345565 
L 287.24554 311.128067 
L 299.730372 307.701908 
L 311.543286 304.230997 
L 323.34468 300.532967 
L 335.017937 296.641671 
L 346.511157 292.578172 
L 358.249096 288.186123 
L 369.595103 283.705728 
L 380.902451 279.009921 
L 392.750189 273.843678 
L 404.456989 268.494833 
L 416.190727 262.895889 
L 428.513431 256.768608 
L 441.294408 250.159136 
L 454.614718 243.014203 
L 468.369335 235.387173 
L 483.54629 226.715465 
L 500.835566 216.570262 
L 522.285049 203.706914 
L 586.866938 164.791889 
L 604.01754 154.832178 
L 619.096444 146.33037 
L 632.884133 138.805644 
L 645.956272 131.918973 
L 658.569619 125.522573 
L 670.862307 119.538475 
L 682.812072 113.968027 
L 694.549776 108.740249 
L 706.216478 103.787824 
L 717.744932 99.134698 
L 729.335141 94.697654 
L 740.851884 90.52621 
L 752.320602 86.603976 
L 764.151816 82.795149 
L 776.199513 79.157723 
L 788.475811 75.69333 
L 800.665292 72.485977 
L 812.611527 69.5579 
L 824.723154 66.796735 
L 837.266884 64.146097 
L 852.421258 61.210811 
L 863.320459 59.269403 
L 881.187891 56.371668 
L 892.950877 54.643558 
L 905.557488 52.937759 
L 918.880079 51.287932 
L 949.899489 47.989768 
L 949.899489 47.989768 
" clip-path="url(#pd16937b419)" style="fill: none; stroke: #e4d354; stroke-linecap: square"/>
   </g>
   <g id="line2d_81">
    <path d="M 135.251632 342.659948 
L 200.261192 337.201271 
L 216.030504 335.398769 
L 233.426418 333.138811 
L 247.684588 331.050224 
L 261.685551 328.770715 
L 275.085248 326.357799 
L 287.906703 323.819612 
L 300.223504 321.154126 
L 312.090246 318.361086 
L 323.591366 315.430481 
L 334.873064 312.330092 
L 346.141819 308.999016 
L 356.889787 305.594176 
L 367.675101 301.94548 
L 378.074565 298.200175 
L 388.815345 294.09167 
L 399.285731 289.846859 
L 409.681873 285.394797 
L 420.220119 280.63895 
L 430.434208 275.796272 
L 441.359256 270.365022 
L 452.162479 264.743735 
L 463.220644 258.739813 
L 474.731494 252.233639 
L 486.687523 245.21631 
L 499.081288 237.68687 
L 512.560906 229.237577 
L 527.461073 219.634947 
L 545.604094 207.665811 
L 575.894189 187.361265 
L 601.648824 170.210218 
L 618.482691 159.261815 
L 633.050947 150.04841 
L 646.193208 141.996546 
L 658.584499 134.66523 
L 670.314529 127.982439 
L 681.611093 121.800521 
L 692.681259 115.996674 
L 703.40888 110.620896 
L 713.849159 105.62914 
L 724.433114 100.813163 
L 734.690561 96.381241 
L 744.944356 92.181396 
L 755.216375 88.202427 
L 765.325881 84.505577 
L 775.926468 80.85715 
L 786.943337 77.305495 
L 797.935322 73.997084 
L 809.233517 70.831363 
L 819.189435 68.230436 
L 828.683231 65.907425 
L 842.750253 62.732608 
L 850.304827 61.152405 
L 862.726046 58.732423 
L 874.478351 56.634795 
L 885.774305 54.782596 
L 901.009374 52.519662 
L 917.250318 50.378588 
L 917.250318 50.378588 
" clip-path="url(#pd16937b419)" style="fill: none; stroke: #2b908f; stroke-linecap: square"/>
   </g>
   <g id="line2d_82">
    <path d="M 173.336662 323.234994 
L 207.038377 316.975302 
L 227.573615 312.562962 
L 244.632849 308.52253 
L 259.323171 304.755295 
L 272.282366 301.201784 
L 285.451064 297.362783 
L 298.578343 293.301419 
L 311.601603 289.036606 
L 324.767401 284.483649 
L 337.79871 279.736931 
L 351.003628 274.683834 
L 364.210418 269.388052 
L 377.39938 263.863076 
L 391.08222 257.88976 
L 405.032876 251.558093 
L 419.661005 244.673806 
L 434.85918 237.278247 
L 451.417244 228.972213 
L 470.116871 219.332102 
L 492.158058 207.706306 
L 528.197736 188.397302 
L 560.73487 171.060106 
L 581.693724 160.142639 
L 599.568673 151.078617 
L 615.786981 143.101486 
L 630.885972 135.919276 
L 645.294025 129.309074 
L 659.101835 123.214203 
L 672.733784 117.439845 
L 686.086403 112.026635 
L 699.174583 106.959652 
L 711.959942 102.241592 
L 724.781348 97.741319 
L 737.938358 93.363134 
L 750.992178 89.257009 
L 763.502142 85.540527 
L 777.1239 81.731587 
L 790.565156 78.209349 
L 802.564542 75.256754 
L 817.863651 71.744495 
L 834.063413 68.319526 
L 847.251365 65.743094 
L 865.682133 62.441737 
L 906.123675 56.302457 
L 906.123675 56.302457 
" clip-path="url(#pd16937b419)" style="fill: none; stroke: #f45b5b; stroke-linecap: square"/>
   </g>
   <g id="line2d_83">
    <path d="M 143.73699 339.288368 
L 206.258738 332.440062 
L 221.560457 330.235916 
L 236.875237 327.778907 
L 251.340666 325.20659 
L 264.816375 322.572169 
L 277.383888 319.893191 
L 289.680397 317.051041 
L 301.764746 314.032613 
L 313.727414 310.812959 
L 325.106135 307.526596 
L 336.725623 303.936125 
L 347.931373 300.241046 
L 359.106305 296.322074 
L 370.063339 292.247273 
L 381.22263 287.856835 
L 392.356527 283.232086 
L 403.330052 278.434451 
L 414.444096 273.334255 
L 425.357128 268.093455 
L 437.111325 262.196891 
L 448.851135 256.056406 
L 461.072823 249.411144 
L 473.679429 242.305618 
L 487.006269 234.543679 
L 501.84386 225.639442 
L 518.532899 215.357954 
L 539.627501 202.086991 
L 595.544392 166.770692 
L 612.266014 156.552578 
L 627.02992 147.787089 
L 640.549209 140.016033 
L 653.21518 132.98739 
L 665.447907 126.452375 
L 677.261942 120.393003 
L 688.764261 114.742567 
L 699.953228 109.489303 
L 711.244061 104.436129 
L 722.392336 99.693392 
L 733.434028 95.237723 
L 744.579707 90.982345 
L 755.816305 86.935179 
L 766.744027 83.228491 
L 778.198167 79.579541 
L 789.994812 76.066237 
L 801.035672 72.994737 
L 812.516272 70.013943 
L 823.482174 67.360604 
L 835.369769 64.687667 
L 845.996777 62.468153 
L 857.530648 60.230821 
L 873.079101 57.479328 
L 889.928128 54.813939 
L 902.712952 52.992536 
L 919.28464 50.86674 
L 919.28464 50.86674 
" clip-path="url(#pd16937b419)" style="fill: none; stroke: #91e8e1; stroke-linecap: square"/>
   </g>
   <g id="line2d_84">
    <path d="M 166.68462 335.726035 
L 206.258738 330.792277 
L 218.817435 328.925354 
L 235.340154 326.217385 
L 250.406953 323.477954 
L 263.255962 320.922132 
L 276.04927 318.162878 
L 289.007856 315.136639 
L 301.256234 312.05048 
L 313.565306 308.717026 
L 325.652935 305.207349 
L 337.653356 301.482653 
L 349.181705 297.671765 
L 360.779302 293.601969 
L 372.242877 289.342089 
L 383.789951 284.809833 
L 395.292155 280.053041 
L 406.903569 275.006519 
L 418.785032 269.59111 
L 430.73338 263.894119 
L 442.87501 257.855575 
L 455.431485 251.358794 
L 468.193337 244.510228 
L 481.943507 236.878613 
L 496.971716 228.274231 
L 513.50661 218.544479 
L 533.751136 206.358544 
L 573.656884 181.993548 
L 597.330479 167.706149 
L 614.84546 157.387391 
L 630.307993 148.532506 
L 644.416129 140.707539 
L 657.679648 133.603674 
L 670.356571 127.065124 
L 682.640061 120.979791 
L 694.423284 115.384993 
L 706.24582 110.018256 
L 717.925791 104.963936 
L 729.562341 100.175792 
L 740.579356 95.870486 
L 752.153244 91.584888 
L 763.614884 87.577433 
L 775.224506 83.753612 
L 786.547165 80.246819 
L 798.305268 76.830702 
L 811.83055 73.174827 
L 825.629206 69.7333 
L 836.355164 67.249539 
L 847.572602 64.822254 
L 862.138395 61.916264 
L 877.939148 59.05758 
L 896.943262 55.991295 
L 896.943262 55.991295 
" clip-path="url(#pd16937b419)" style="fill: none; stroke: #7cb5ec; stroke-linecap: square"/>
   </g>
   <g id="line2d_85">
    <path d="M 143.014084 338.98073 
L 201.971757 332.465435 
L 221.6631 329.595148 
L 237.798168 326.929866 
L 252.067347 324.314096 
L 265.183502 321.678016 
L 277.560629 318.972678 
L 289.931803 316.044113 
L 302.053077 312.944685 
L 313.862907 309.694734 
L 325.635756 306.218585 
L 336.806115 302.693574 
L 348.038863 298.918787 
L 359.223964 294.924491 
L 370.555007 290.633294 
L 381.405043 286.289933 
L 392.605485 281.56394 
L 403.677937 276.649886 
L 415.004112 271.376259 
L 426.2271 265.908658 
L 437.565256 260.147261 
L 449.459816 253.856937 
L 461.916037 247.014933 
L 474.704768 239.740557 
L 488.671724 231.538112 
L 503.878989 222.347205 
L 521.917721 211.173218 
L 546.760293 195.4957 
L 585.491445 171.060164 
L 603.578085 159.932689 
L 618.915009 150.752842 
L 632.845777 142.670366 
L 645.865487 135.371305 
L 658.271314 128.670058 
L 670.135835 122.510232 
L 681.666558 116.769392 
L 692.870628 111.431617 
L 704.182328 106.288642 
L 715.446535 101.416137 
L 726.473535 96.887717 
L 737.502617 92.596403 
L 748.287099 88.627816 
L 759.314301 84.79851 
L 770.698953 81.081899 
L 781.773728 77.690638 
L 792.907913 74.496501 
L 804.232984 71.460594 
L 816.940552 68.298431 
L 827.347932 65.891983 
L 841.761344 62.816696 
L 853.677119 60.486947 
L 871.462397 57.341229 
L 882.762007 55.534003 
L 890.166572 54.424918 
L 905.500818 52.305009 
L 905.500818 52.305009 
" clip-path="url(#pd16937b419)" style="fill: none; stroke: #434348; stroke-linecap: square"/>
   </g>
   <g id="line2d_86">
    <path d="M 135.251632 336.14274 
L 210.157028 326.012898 
L 223.341383 323.65135 
L 238.485994 320.683538 
L 251.855284 317.821425 
L 264.451927 314.903847 
L 277.580305 311.62248 
L 289.517659 308.415278 
L 301.956782 304.836927 
L 313.768023 301.207745 
L 325.738916 297.292232 
L 337.822194 293.091599 
L 349.154189 288.921156 
L 360.91838 284.352283 
L 372.491027 279.61875 
L 384.439007 274.483718 
L 396.422476 269.083421 
L 408.448992 263.41759 
L 420.917892 257.291904 
L 433.734683 250.741508 
L 446.868327 243.780096 
L 461.197696 235.923613 
L 476.621071 227.201229 
L 493.665717 217.29956 
L 514.462875 204.951298 
L 584.297762 163.266986 
L 601.140591 153.607166 
L 616.122062 145.267923 
L 629.980885 137.804168 
L 643.175332 130.948983 
L 655.773187 124.651275 
L 668.036784 118.766829 
L 679.969208 113.284127 
L 691.739056 108.117293 
L 703.510679 103.193197 
L 715.175606 98.555635 
L 726.942679 94.121092 
L 738.48061 90.008406 
L 749.860135 86.177102 
L 761.105926 82.605697 
L 773.522839 78.903843 
L 785.508509 75.56315 
L 797.882784 72.344691 
L 810.628358 69.263955 
L 824.04885 66.264408 
L 837.898492 63.417165 
L 850.906097 60.958918 
L 865.009104 58.514705 
L 884.39727 55.501097 
L 902.406366 53.029292 
L 915.863344 51.369154 
L 915.863344 51.369154 
" clip-path="url(#pd16937b419)" style="fill: none; stroke: #90ed7d; stroke-linecap: square"/>
   </g>
   <g id="line2d_87">
    <path d="M 143.73699 338.554462 
L 207.134293 331.198404 
L 220.38247 329.192485 
L 235.340154 326.694375 
L 250.349885 323.917704 
L 263.820475 321.177014 
L 277.017676 318.247179 
L 289.680397 315.193723 
L 301.796701 312.03725 
L 313.363409 308.799085 
L 325.327551 305.208415 
L 336.806115 301.524142 
L 347.494034 297.876247 
L 359.072739 293.681667 
L 370.246146 289.390008 
L 381.173353 284.958204 
L 392.340192 280.188059 
L 403.75999 275.058285 
L 415.222067 269.656539 
L 426.730057 263.983593 
L 438.467956 257.948191 
L 450.471402 251.528246 
L 462.868724 244.65126 
L 476.349224 236.914218 
L 490.658002 228.44203 
L 506.867248 218.577553 
L 526.306905 206.47384 
L 564.566714 182.307885 
L 587.539422 167.959426 
L 604.830661 157.417529 
L 619.698266 148.608029 
L 633.331779 140.782953 
L 646.251795 133.622681 
L 658.569619 127.050139 
L 670.421868 120.976287 
L 682.014654 115.284397 
L 693.385313 109.948674 
L 704.5917 104.934406 
L 715.725087 100.1955 
L 726.627509 95.789689 
L 737.805422 91.512269 
L 749.070361 87.443887 
L 760.435856 83.580889 
L 771.890626 79.926883 
L 783.20731 76.545534 
L 794.38546 73.420669 
L 805.175025 70.599206 
L 817.983528 67.486941 
L 829.547954 64.887149 
L 842.951953 62.109118 
L 851.889696 60.389471 
L 870.408629 57.141056 
L 881.957801 55.315238 
L 890.454015 54.063146 
L 902.536541 52.407279 
L 902.536541 52.407279 
" clip-path="url(#pd16937b419)" style="fill: none; stroke: #f7a35c; stroke-linecap: square"/>
   </g>
   <g id="line2d_88">
    <path d="M 120.935007 330.579649 
L 204.397636 316.797119 
L 219.704843 313.491497 
L 235.079031 309.890656 
L 247.082636 306.874368 
L 260.763668 303.208625 
L 273.718758 299.506138 
L 286.687401 295.568043 
L 299.669072 291.388634 
L 312.208235 287.122661 
L 325.31475 282.420926 
L 338.084397 277.601013 
L 351.132256 272.434 
L 364.154662 267.036892 
L 377.271006 261.364608 
L 390.65405 255.341876 
L 405.175923 248.552357 
L 419.624197 241.553663 
L 435.451836 233.635699 
L 452.432529 224.888782 
L 471.905984 214.600589 
L 496.491162 201.346648 
L 558.827394 167.627211 
L 578.354157 157.389739 
L 595.400871 148.698975 
L 611.108815 140.938531 
L 625.870607 133.892624 
L 639.880397 127.44864 
L 653.571012 121.395888 
L 666.899232 115.746831 
L 679.906124 110.473359 
L 692.76199 105.498441 
L 705.515868 100.798722 
L 718.292338 96.326675 
L 731.159614 92.060333 
L 744.147985 87.992596 
L 757.029588 84.190833 
L 770.08714 80.567717 
L 782.787856 77.259773 
L 795.993457 74.038591 
L 808.494664 71.186418 
L 821.898597 68.332205 
L 833.541311 66.016625 
L 850.784498 62.851567 
L 866.485954 60.227444 
L 881.779774 57.891441 
L 892.323047 56.399492 
L 931.716155 51.593627 
L 931.716155 51.593627 
" clip-path="url(#pd16937b419)" style="fill: none; stroke: #8085e9; stroke-linecap: square"/>
   </g>
   <g id="line2d_89">
    <path d="M 186.470694 335.626735 
L 200.106658 333.975651 
L 221.139273 331.08239 
L 237.709531 328.473298 
L 251.690966 326.02134 
L 265.168151 323.421887 
L 278.074755 320.699027 
L 290.336704 317.886232 
L 302.407758 314.889077 
L 313.971567 311.79404 
L 325.713106 308.41637 
L 337.199706 304.872931 
L 348.425947 301.172709 
L 359.44321 297.306341 
L 369.875517 293.425331 
L 380.928435 289.07569 
L 391.901144 284.512711 
L 402.703679 279.780907 
L 413.649451 274.744566 
L 424.790818 269.371166 
L 435.84453 263.799013 
L 447.621784 257.606809 
L 459.499884 251.107537 
L 472.073002 243.968549 
L 485.407219 236.132454 
L 499.802869 227.405186 
L 516.02039 217.301534 
L 535.641775 204.802842 
L 600.111953 163.515665 
L 615.9895 153.741822 
L 630.122464 145.300129 
L 643.229355 137.728757 
L 655.472244 130.907478 
L 667.301262 124.566577 
L 678.899547 118.602003 
L 690.177833 113.05195 
L 701.209252 107.868419 
L 712.226983 102.937108 
L 723.213579 98.265923 
L 734.085925 93.884886 
L 745.003582 89.725165 
L 755.926373 85.799912 
L 766.837813 82.109669 
L 777.793528 78.630303 
L 789.123588 75.262275 
L 801.089734 71.949492 
L 813.237328 68.831734 
L 825.759581 65.863348 
L 838.541262 63.076087 
L 852.949222 60.209338 
L 869.240382 57.293155 
L 884.477581 54.852276 
L 897.117983 53.020075 
L 903.146886 52.203604 
L 919.031846 50.217441 
L 919.031846 50.217441 
" clip-path="url(#pd16937b419)" style="fill: none; stroke: #f15c80; stroke-linecap: square"/>
   </g>
   <g id="line2d_90">
    <path d="M 43.148125 350.3511 
L 993.078125 350.3511 
" clip-path="url(#pd16937b419)" style="fill: none; stroke: #dedede; stroke-width: 2; stroke-linecap: square"/>
   </g>
   <g id="text_17">
    <!-- DupRadar General Linear Model -->
    <g transform="translate(390.213125 19.3575) scale(0.16 -0.16)">
     <defs>
      <path id="DejaVuSans-44" d="M 1259 4147 
L 1259 519 
L 2022 519 
Q 2988 519 3436 956 
Q 3884 1394 3884 2338 
Q 3884 3275 3436 3711 
Q 2988 4147 2022 4147 
L 1259 4147 
z
M 628 4666 
L 1925 4666 
Q 3281 4666 3915 4102 
Q 4550 3538 4550 2338 
Q 4550 1131 3912 565 
Q 3275 0 1925 0 
L 628 0 
L 628 4666 
z
" transform="scale(0.015625)"/>
      <path id="DejaVuSans-52" d="M 2841 2188 
Q 3044 2119 3236 1894 
Q 3428 1669 3622 1275 
L 4263 0 
L 3584 0 
L 2988 1197 
Q 2756 1666 2539 1819 
Q 2322 1972 1947 1972 
L 1259 1972 
L 1259 0 
L 628 0 
L 628 4666 
L 2053 4666 
Q 2853 4666 3247 4331 
Q 3641 3997 3641 3322 
Q 3641 2881 3436 2590 
Q 3231 2300 2841 2188 
z
M 1259 4147 
L 1259 2491 
L 2053 2491 
Q 2509 2491 2742 2702 
Q 2975 2913 2975 3322 
Q 2975 3731 2742 3939 
Q 2509 4147 2053 4147 
L 1259 4147 
z
" transform="scale(0.015625)"/>
      <path id="DejaVuSans-47" d="M 3809 666 
L 3809 1919 
L 2778 1919 
L 2778 2438 
L 4434 2438 
L 4434 434 
Q 4069 175 3628 42 
Q 3188 -91 2688 -91 
Q 1594 -91 976 548 
Q 359 1188 359 2328 
Q 359 3472 976 4111 
Q 1594 4750 2688 4750 
Q 3144 4750 3555 4637 
Q 3966 4525 4313 4306 
L 4313 3634 
Q 3963 3931 3569 4081 
Q 3175 4231 2741 4231 
Q 1884 4231 1454 3753 
Q 1025 3275 1025 2328 
Q 1025 1384 1454 906 
Q 1884 428 2741 428 
Q 3075 428 3337 486 
Q 3600 544 3809 666 
z
" transform="scale(0.015625)"/>
      <path id="DejaVuSans-4c" d="M 628 4666 
L 1259 4666 
L 1259 531 
L 3531 531 
L 3531 0 
L 628 0 
L 628 4666 
z
" transform="scale(0.015625)"/>
      <path id="DejaVuSans-4d" d="M 628 4666 
L 1569 4666 
L 2759 1491 
L 3956 4666 
L 4897 4666 
L 4897 0 
L 4281 0 
L 4281 4097 
L 3078 897 
L 2444 897 
L 1241 4097 
L 1241 0 
L 628 0 
L 628 4666 
z
" transform="scale(0.015625)"/>
     </defs>
     <use xlink:href="#DejaVuSans-44"/>
     <use xlink:href="#DejaVuSans-75" x="77.001953"/>
     <use xlink:href="#DejaVuSans-70" x="140.380859"/>
     <use xlink:href="#DejaVuSans-52" x="203.857422"/>
     <use xlink:href="#DejaVuSans-61" x="271.089844"/>
     <use xlink:href="#DejaVuSans-64" x="332.369141"/>
     <use xlink:href="#DejaVuSans-61" x="395.845703"/>
     <use xlink:href="#DejaVuSans-72" x="457.125"/>
     <use xlink:href="#DejaVuSans-20" x="498.238281"/>
     <use xlink:href="#DejaVuSans-47" x="530.025391"/>
     <use xlink:href="#DejaVuSans-65" x="607.515625"/>
     <use xlink:href="#DejaVuSans-6e" x="669.039062"/>
     <use xlink:href="#DejaVuSans-65" x="732.417969"/>
     <use xlink:href="#DejaVuSans-72" x="793.941406"/>
     <use xlink:href="#DejaVuSans-61" x="835.054688"/>
     <use xlink:href="#DejaVuSans-6c" x="896.333984"/>
     <use xlink:href="#DejaVuSans-20" x="924.117188"/>
     <use xlink:href="#DejaVuSans-4c" x="955.904297"/>
     <use xlink:href="#DejaVuSans-69" x="1011.617188"/>
     <use xlink:href="#DejaVuSans-6e" x="1039.400391"/>
     <use xlink:href="#DejaVuSans-65" x="1102.779297"/>
     <use xlink:href="#DejaVuSans-61" x="1164.302734"/>
     <use xlink:href="#DejaVuSans-72" x="1225.582031"/>
     <use xlink:href="#DejaVuSans-20" x="1266.695312"/>
     <use xlink:href="#DejaVuSans-4d" x="1298.482422"/>
     <use xlink:href="#DejaVuSans-6f" x="1384.761719"/>
     <use xlink:href="#DejaVuSans-64" x="1445.943359"/>
     <use xlink:href="#DejaVuSans-65" x="1509.419922"/>
     <use xlink:href="#DejaVuSans-6c" x="1570.943359"/>
    </g>
   </g>
  </g>
 </g>
 <defs>
  <clipPath id="pd16937b419">
   <rect x="43.148125" y="35.1191" width="949.93" height="315.232"/>
  </clipPath>
 </defs>
</svg>
