<?xml version="1.0" encoding="utf-8" standalone="no"?>
<!DOCTYPE svg PUBLIC "-//W3C//DTD SVG 1.1//EN"
  "http://www.w3.org/Graphics/SVG/1.1/DTD/svg11.dtd">
<svg xmlns:xlink="http://www.w3.org/1999/xlink" width="1000.318125pt" height="388.844525pt" viewBox="0 0 1000.318125 388.844525" xmlns="http://www.w3.org/2000/svg" version="1.1">
 <metadata>
  <rdf:RDF xmlns:dc="http://purl.org/dc/elements/1.1/" xmlns:cc="http://creativecommons.org/ns#" xmlns:rdf="http://www.w3.org/1999/02/22-rdf-syntax-ns#">
   <cc:Work>
    <dc:type rdf:resource="http://purl.org/dc/dcmitype/StillImage"/>
    <dc:date>2024-09-05T13:39:11.113806</dc:date>
    <dc:format>image/svg+xml</dc:format>
    <dc:creator>
     <cc:Agent>
      <dc:title>Matplotlib v3.8.2, https://matplotlib.org/</dc:title>
     </cc:Agent>
    </dc:creator>
   </cc:Work>
  </rdf:RDF>
 </metadata>
 <defs>
  <style type="text/css">*{stroke-linejoin: round; stroke-linecap: butt}</style>
 </defs>
 <g id="figure_1">
  <g id="axes_1">
   <g id="patch_1">
    <path d="M 38.058125 353.2239 
L 993.118125 353.2239 
L 993.118125 35.2559 
L 38.058125 35.2559 
z
" style="fill: #ffffff"/>
   </g>
   <g id="patch_2">
    <path d="M 38.058125 132.501121 
L 958.476371 132.501121 
L 958.476371 -435.07174 
L 38.058125 -435.07174 
z
" clip-path="url(#pff6616b565)" style="fill: #c3e6c3"/>
   </g>
   <g id="patch_3">
    <path d="M 38.058125 195.564772 
L 958.476371 195.564772 
L 958.476371 132.501121 
L 38.058125 132.501121 
z
" clip-path="url(#pff6616b565)" style="fill: #e6dcc3"/>
   </g>
   <g id="patch_4">
    <path d="M 38.058125 353.2239 
L 958.476371 353.2239 
L 958.476371 195.564772 
L 38.058125 195.564772 
z
" clip-path="url(#pff6616b565)" style="fill: #e6c3c3"/>
   </g>
   <g id="matplotlib.axis_1">
    <g id="xtick_1">
     <g id="text_1">
      <!-- 0 -->
      <g transform="translate(70.154879 366.30265) scale(0.08 -0.08)">
       <defs>
        <path id="DejaVuSans-30" d="M 2034 4250 
Q 1547 4250 1301 3770 
Q 1056 3291 1056 2328 
Q 1056 1369 1301 889 
Q 1547 409 2034 409 
Q 2525 409 2770 889 
Q 3016 1369 3016 2328 
Q 3016 3291 2770 3770 
Q 2525 4250 2034 4250 
z
M 2034 4750 
Q 2819 4750 3233 4129 
Q 3647 3509 3647 2328 
Q 3647 1150 3233 529 
Q 2819 -91 2034 -91 
Q 1250 -91 836 529 
Q 422 1150 422 2328 
Q 422 3509 836 4129 
Q 1250 4750 2034 4750 
z
" transform="scale(0.015625)"/>
       </defs>
       <use xlink:href="#DejaVuSans-30"/>
      </g>
     </g>
    </g>
    <g id="xtick_2">
     <g id="text_2">
      <!-- 20 -->
      <g transform="translate(243.011164 366.30265) scale(0.08 -0.08)">
       <defs>
        <path id="DejaVuSans-32" d="M 1228 531 
L 3431 531 
L 3431 0 
L 469 0 
L 469 531 
Q 828 903 1448 1529 
Q 2069 2156 2228 2338 
Q 2531 2678 2651 2914 
Q 2772 3150 2772 3378 
Q 2772 3750 2511 3984 
Q 2250 4219 1831 4219 
Q 1534 4219 1204 4116 
Q 875 4013 500 3803 
L 500 4441 
Q 881 4594 1212 4672 
Q 1544 4750 1819 4750 
Q 2544 4750 2975 4387 
Q 3406 4025 3406 3419 
Q 3406 3131 3298 2873 
Q 3191 2616 2906 2266 
Q 2828 2175 2409 1742 
Q 1991 1309 1228 531 
z
" transform="scale(0.015625)"/>
       </defs>
       <use xlink:href="#DejaVuSans-32"/>
       <use xlink:href="#DejaVuSans-30" x="63.623047"/>
      </g>
     </g>
    </g>
    <g id="xtick_3">
     <g id="text_3">
      <!-- 40 -->
      <g transform="translate(418.41245 366.30265) scale(0.08 -0.08)">
       <defs>
        <path id="DejaVuSans-34" d="M 2419 4116 
L 825 1625 
L 2419 1625 
L 2419 4116 
z
M 2253 4666 
L 3047 4666 
L 3047 1625 
L 3713 1625 
L 3713 1100 
L 3047 1100 
L 3047 0 
L 2419 0 
L 2419 1100 
L 313 1100 
L 313 1709 
L 2253 4666 
z
" transform="scale(0.015625)"/>
       </defs>
       <use xlink:href="#DejaVuSans-34"/>
       <use xlink:href="#DejaVuSans-30" x="63.623047"/>
      </g>
     </g>
    </g>
    <g id="xtick_4">
     <g id="text_4">
      <!-- 60 -->
      <g transform="translate(593.813736 366.30265) scale(0.08 -0.08)">
       <defs>
        <path id="DejaVuSans-36" d="M 2113 2584 
Q 1688 2584 1439 2293 
Q 1191 2003 1191 1497 
Q 1191 994 1439 701 
Q 1688 409 2113 409 
Q 2538 409 2786 701 
Q 3034 994 3034 1497 
Q 3034 2003 2786 2293 
Q 2538 2584 2113 2584 
z
M 3366 4563 
L 3366 3988 
Q 3128 4100 2886 4159 
Q 2644 4219 2406 4219 
Q 1781 4219 1451 3797 
Q 1122 3375 1075 2522 
Q 1259 2794 1537 2939 
Q 1816 3084 2150 3084 
Q 2853 3084 3261 2657 
Q 3669 2231 3669 1497 
Q 3669 778 3244 343 
Q 2819 -91 2113 -91 
Q 1303 -91 875 529 
Q 447 1150 447 2328 
Q 447 3434 972 4092 
Q 1497 4750 2381 4750 
Q 2619 4750 2861 4703 
Q 3103 4656 3366 4563 
z
" transform="scale(0.015625)"/>
       </defs>
       <use xlink:href="#DejaVuSans-36"/>
       <use xlink:href="#DejaVuSans-30" x="63.623047"/>
      </g>
     </g>
    </g>
    <g id="xtick_5">
     <g id="text_5">
      <!-- 80 -->
      <g transform="translate(769.215021 366.30265) scale(0.08 -0.08)">
       <defs>
        <path id="DejaVuSans-38" d="M 2034 2216 
Q 1584 2216 1326 1975 
Q 1069 1734 1069 1313 
Q 1069 891 1326 650 
Q 1584 409 2034 409 
Q 2484 409 2743 651 
Q 3003 894 3003 1313 
Q 3003 1734 2745 1975 
Q 2488 2216 2034 2216 
z
M 1403 2484 
Q 997 2584 770 2862 
Q 544 3141 544 3541 
Q 544 4100 942 4425 
Q 1341 4750 2034 4750 
Q 2731 4750 3128 4425 
Q 3525 4100 3525 3541 
Q 3525 3141 3298 2862 
Q 3072 2584 2669 2484 
Q 3125 2378 3379 2068 
Q 3634 1759 3634 1313 
Q 3634 634 3220 271 
Q 2806 -91 2034 -91 
Q 1263 -91 848 271 
Q 434 634 434 1313 
Q 434 1759 690 2068 
Q 947 2378 1403 2484 
z
M 1172 3481 
Q 1172 3119 1398 2916 
Q 1625 2713 2034 2713 
Q 2441 2713 2670 2916 
Q 2900 3119 2900 3481 
Q 2900 3844 2670 4047 
Q 2441 4250 2034 4250 
Q 1625 4250 1398 4047 
Q 1172 3844 1172 3481 
z
" transform="scale(0.015625)"/>
       </defs>
       <use xlink:href="#DejaVuSans-38"/>
       <use xlink:href="#DejaVuSans-30" x="63.623047"/>
      </g>
     </g>
    </g>
    <g id="xtick_6">
     <g id="text_6">
      <!-- 100 -->
      <g transform="translate(942.071307 366.30265) scale(0.08 -0.08)">
       <defs>
        <path id="DejaVuSans-31" d="M 794 531 
L 1825 531 
L 1825 4091 
L 703 3866 
L 703 4441 
L 1819 4666 
L 2450 4666 
L 2450 531 
L 3481 531 
L 3481 0 
L 794 0 
L 794 531 
z
" transform="scale(0.015625)"/>
       </defs>
       <use xlink:href="#DejaVuSans-31"/>
       <use xlink:href="#DejaVuSans-30" x="63.623047"/>
       <use xlink:href="#DejaVuSans-30" x="127.246094"/>
      </g>
     </g>
    </g>
    <g id="text_7">
     <!-- Position (bp) -->
     <g transform="translate(484.285 379.564837) scale(0.1 -0.1)">
      <defs>
       <path id="DejaVuSans-50" d="M 1259 4147 
L 1259 2394 
L 2053 2394 
Q 2494 2394 2734 2622 
Q 2975 2850 2975 3272 
Q 2975 3691 2734 3919 
Q 2494 4147 2053 4147 
L 1259 4147 
z
M 628 4666 
L 2053 4666 
Q 2838 4666 3239 4311 
Q 3641 3956 3641 3272 
Q 3641 2581 3239 2228 
Q 2838 1875 2053 1875 
L 1259 1875 
L 1259 0 
L 628 0 
L 628 4666 
z
" transform="scale(0.015625)"/>
       <path id="DejaVuSans-6f" d="M 1959 3097 
Q 1497 3097 1228 2736 
Q 959 2375 959 1747 
Q 959 1119 1226 758 
Q 1494 397 1959 397 
Q 2419 397 2687 759 
Q 2956 1122 2956 1747 
Q 2956 2369 2687 2733 
Q 2419 3097 1959 3097 
z
M 1959 3584 
Q 2709 3584 3137 3096 
Q 3566 2609 3566 1747 
Q 3566 888 3137 398 
Q 2709 -91 1959 -91 
Q 1206 -91 779 398 
Q 353 888 353 1747 
Q 353 2609 779 3096 
Q 1206 3584 1959 3584 
z
" transform="scale(0.015625)"/>
       <path id="DejaVuSans-73" d="M 2834 3397 
L 2834 2853 
Q 2591 2978 2328 3040 
Q 2066 3103 1784 3103 
Q 1356 3103 1142 2972 
Q 928 2841 928 2578 
Q 928 2378 1081 2264 
Q 1234 2150 1697 2047 
L 1894 2003 
Q 2506 1872 2764 1633 
Q 3022 1394 3022 966 
Q 3022 478 2636 193 
Q 2250 -91 1575 -91 
Q 1294 -91 989 -36 
Q 684 19 347 128 
L 347 722 
Q 666 556 975 473 
Q 1284 391 1588 391 
Q 1994 391 2212 530 
Q 2431 669 2431 922 
Q 2431 1156 2273 1281 
Q 2116 1406 1581 1522 
L 1381 1569 
Q 847 1681 609 1914 
Q 372 2147 372 2553 
Q 372 3047 722 3315 
Q 1072 3584 1716 3584 
Q 2034 3584 2315 3537 
Q 2597 3491 2834 3397 
z
" transform="scale(0.015625)"/>
       <path id="DejaVuSans-69" d="M 603 3500 
L 1178 3500 
L 1178 0 
L 603 0 
L 603 3500 
z
M 603 4863 
L 1178 4863 
L 1178 4134 
L 603 4134 
L 603 4863 
z
" transform="scale(0.015625)"/>
       <path id="DejaVuSans-74" d="M 1172 4494 
L 1172 3500 
L 2356 3500 
L 2356 3053 
L 1172 3053 
L 1172 1153 
Q 1172 725 1289 603 
Q 1406 481 1766 481 
L 2356 481 
L 2356 0 
L 1766 0 
Q 1100 0 847 248 
Q 594 497 594 1153 
L 594 3053 
L 172 3053 
L 172 3500 
L 594 3500 
L 594 4494 
L 1172 4494 
z
" transform="scale(0.015625)"/>
       <path id="DejaVuSans-6e" d="M 3513 2113 
L 3513 0 
L 2938 0 
L 2938 2094 
Q 2938 2591 2744 2837 
Q 2550 3084 2163 3084 
Q 1697 3084 1428 2787 
Q 1159 2491 1159 1978 
L 1159 0 
L 581 0 
L 581 3500 
L 1159 3500 
L 1159 2956 
Q 1366 3272 1645 3428 
Q 1925 3584 2291 3584 
Q 2894 3584 3203 3211 
Q 3513 2838 3513 2113 
z
" transform="scale(0.015625)"/>
       <path id="DejaVuSans-20" transform="scale(0.015625)"/>
       <path id="DejaVuSans-28" d="M 1984 4856 
Q 1566 4138 1362 3434 
Q 1159 2731 1159 2009 
Q 1159 1288 1364 580 
Q 1569 -128 1984 -844 
L 1484 -844 
Q 1016 -109 783 600 
Q 550 1309 550 2009 
Q 550 2706 781 3412 
Q 1013 4119 1484 4856 
L 1984 4856 
z
" transform="scale(0.015625)"/>
       <path id="DejaVuSans-62" d="M 3116 1747 
Q 3116 2381 2855 2742 
Q 2594 3103 2138 3103 
Q 1681 3103 1420 2742 
Q 1159 2381 1159 1747 
Q 1159 1113 1420 752 
Q 1681 391 2138 391 
Q 2594 391 2855 752 
Q 3116 1113 3116 1747 
z
M 1159 2969 
Q 1341 3281 1617 3432 
Q 1894 3584 2278 3584 
Q 2916 3584 3314 3078 
Q 3713 2572 3713 1747 
Q 3713 922 3314 415 
Q 2916 -91 2278 -91 
Q 1894 -91 1617 61 
Q 1341 213 1159 525 
L 1159 0 
L 581 0 
L 581 4863 
L 1159 4863 
L 1159 2969 
z
" transform="scale(0.015625)"/>
       <path id="DejaVuSans-70" d="M 1159 525 
L 1159 -1331 
L 581 -1331 
L 581 3500 
L 1159 3500 
L 1159 2969 
Q 1341 3281 1617 3432 
Q 1894 3584 2278 3584 
Q 2916 3584 3314 3078 
Q 3713 2572 3713 1747 
Q 3713 922 3314 415 
Q 2916 -91 2278 -91 
Q 1894 -91 1617 61 
Q 1341 213 1159 525 
z
M 3116 1747 
Q 3116 2381 2855 2742 
Q 2594 3103 2138 3103 
Q 1681 3103 1420 2742 
Q 1159 2381 1159 1747 
Q 1159 1113 1420 752 
Q 1681 391 2138 391 
Q 2594 391 2855 752 
Q 3116 1113 3116 1747 
z
" transform="scale(0.015625)"/>
       <path id="DejaVuSans-29" d="M 513 4856 
L 1013 4856 
Q 1481 4119 1714 3412 
Q 1947 2706 1947 2009 
Q 1947 1309 1714 600 
Q 1481 -109 1013 -844 
L 513 -844 
Q 928 -128 1133 580 
Q 1338 1288 1338 2009 
Q 1338 2731 1133 3434 
Q 928 4138 513 4856 
z
" transform="scale(0.015625)"/>
      </defs>
      <use xlink:href="#DejaVuSans-50"/>
      <use xlink:href="#DejaVuSans-6f" x="56.677734"/>
      <use xlink:href="#DejaVuSans-73" x="117.859375"/>
      <use xlink:href="#DejaVuSans-69" x="169.958984"/>
      <use xlink:href="#DejaVuSans-74" x="197.742188"/>
      <use xlink:href="#DejaVuSans-69" x="236.951172"/>
      <use xlink:href="#DejaVuSans-6f" x="264.734375"/>
      <use xlink:href="#DejaVuSans-6e" x="325.916016"/>
      <use xlink:href="#DejaVuSans-20" x="389.294922"/>
      <use xlink:href="#DejaVuSans-28" x="421.082031"/>
      <use xlink:href="#DejaVuSans-62" x="460.095703"/>
      <use xlink:href="#DejaVuSans-70" x="523.572266"/>
      <use xlink:href="#DejaVuSans-29" x="587.048828"/>
     </g>
    </g>
   </g>
   <g id="matplotlib.axis_2">
    <g id="ytick_1">
     <g id="line2d_1">
      <path d="M 38.058125 353.2239 
L 993.118125 353.2239 
" clip-path="url(#pff6616b565)" style="fill: none; stroke: #dedede; stroke-linecap: square"/>
     </g>
     <g id="text_8">
      <!-- 0 -->
      <g transform="translate(25.968125 356.263275) scale(0.08 -0.08)">
       <use xlink:href="#DejaVuSans-30"/>
      </g>
     </g>
    </g>
    <g id="ytick_2">
     <g id="line2d_2">
      <path d="M 38.058125 313.809118 
L 993.118125 313.809118 
" clip-path="url(#pff6616b565)" style="fill: none; stroke: #dedede; stroke-linecap: square"/>
     </g>
     <g id="text_9">
      <!-- 5 -->
      <g transform="translate(25.968125 316.848493) scale(0.08 -0.08)">
       <defs>
        <path id="DejaVuSans-35" d="M 691 4666 
L 3169 4666 
L 3169 4134 
L 1269 4134 
L 1269 2991 
Q 1406 3038 1543 3061 
Q 1681 3084 1819 3084 
Q 2600 3084 3056 2656 
Q 3513 2228 3513 1497 
Q 3513 744 3044 326 
Q 2575 -91 1722 -91 
Q 1428 -91 1123 -41 
Q 819 9 494 109 
L 494 744 
Q 775 591 1075 516 
Q 1375 441 1709 441 
Q 2250 441 2565 725 
Q 2881 1009 2881 1497 
Q 2881 1984 2565 2268 
Q 2250 2553 1709 2553 
Q 1456 2553 1204 2497 
Q 953 2441 691 2322 
L 691 4666 
z
" transform="scale(0.015625)"/>
       </defs>
       <use xlink:href="#DejaVuSans-35"/>
      </g>
     </g>
    </g>
    <g id="ytick_3">
     <g id="line2d_3">
      <path d="M 38.058125 274.394336 
L 993.118125 274.394336 
" clip-path="url(#pff6616b565)" style="fill: none; stroke: #dedede; stroke-linecap: square"/>
     </g>
     <g id="text_10">
      <!-- 10 -->
      <g transform="translate(20.878125 277.433711) scale(0.08 -0.08)">
       <use xlink:href="#DejaVuSans-31"/>
       <use xlink:href="#DejaVuSans-30" x="63.623047"/>
      </g>
     </g>
    </g>
    <g id="ytick_4">
     <g id="line2d_4">
      <path d="M 38.058125 234.979554 
L 993.118125 234.979554 
" clip-path="url(#pff6616b565)" style="fill: none; stroke: #dedede; stroke-linecap: square"/>
     </g>
     <g id="text_11">
      <!-- 15 -->
      <g transform="translate(20.878125 238.018929) scale(0.08 -0.08)">
       <use xlink:href="#DejaVuSans-31"/>
       <use xlink:href="#DejaVuSans-35" x="63.623047"/>
      </g>
     </g>
    </g>
    <g id="ytick_5">
     <g id="line2d_5">
      <path d="M 38.058125 195.564772 
L 993.118125 195.564772 
" clip-path="url(#pff6616b565)" style="fill: none; stroke: #dedede; stroke-linecap: square"/>
     </g>
     <g id="text_12">
      <!-- 20 -->
      <g transform="translate(20.878125 198.604147) scale(0.08 -0.08)">
       <use xlink:href="#DejaVuSans-32"/>
       <use xlink:href="#DejaVuSans-30" x="63.623047"/>
      </g>
     </g>
    </g>
    <g id="ytick_6">
     <g id="line2d_6">
      <path d="M 38.058125 156.14999 
L 993.118125 156.14999 
" clip-path="url(#pff6616b565)" style="fill: none; stroke: #dedede; stroke-linecap: square"/>
     </g>
     <g id="text_13">
      <!-- 25 -->
      <g transform="translate(20.878125 159.189365) scale(0.08 -0.08)">
       <use xlink:href="#DejaVuSans-32"/>
       <use xlink:href="#DejaVuSans-35" x="63.623047"/>
      </g>
     </g>
    </g>
    <g id="ytick_7">
     <g id="line2d_7">
      <path d="M 38.058125 116.735208 
L 993.118125 116.735208 
" clip-path="url(#pff6616b565)" style="fill: none; stroke: #dedede; stroke-linecap: square"/>
     </g>
     <g id="text_14">
      <!-- 30 -->
      <g transform="translate(20.878125 119.774583) scale(0.08 -0.08)">
       <defs>
        <path id="DejaVuSans-33" d="M 2597 2516 
Q 3050 2419 3304 2112 
Q 3559 1806 3559 1356 
Q 3559 666 3084 287 
Q 2609 -91 1734 -91 
Q 1441 -91 1130 -33 
Q 819 25 488 141 
L 488 750 
Q 750 597 1062 519 
Q 1375 441 1716 441 
Q 2309 441 2620 675 
Q 2931 909 2931 1356 
Q 2931 1769 2642 2001 
Q 2353 2234 1838 2234 
L 1294 2234 
L 1294 2753 
L 1863 2753 
Q 2328 2753 2575 2939 
Q 2822 3125 2822 3475 
Q 2822 3834 2567 4026 
Q 2313 4219 1838 4219 
Q 1578 4219 1281 4162 
Q 984 4106 628 3988 
L 628 4550 
Q 988 4650 1302 4700 
Q 1616 4750 1894 4750 
Q 2613 4750 3031 4423 
Q 3450 4097 3450 3541 
Q 3450 3153 3228 2886 
Q 3006 2619 2597 2516 
z
" transform="scale(0.015625)"/>
       </defs>
       <use xlink:href="#DejaVuSans-33"/>
       <use xlink:href="#DejaVuSans-30" x="63.623047"/>
      </g>
     </g>
    </g>
    <g id="ytick_8">
     <g id="line2d_8">
      <path d="M 38.058125 77.320426 
L 993.118125 77.320426 
" clip-path="url(#pff6616b565)" style="fill: none; stroke: #dedede; stroke-linecap: square"/>
     </g>
     <g id="text_15">
      <!-- 35 -->
      <g transform="translate(20.878125 80.359801) scale(0.08 -0.08)">
       <use xlink:href="#DejaVuSans-33"/>
       <use xlink:href="#DejaVuSans-35" x="63.623047"/>
      </g>
     </g>
    </g>
    <g id="ytick_9">
     <g id="line2d_9">
      <path d="M 38.058125 37.905644 
L 993.118125 37.905644 
" clip-path="url(#pff6616b565)" style="fill: none; stroke: #dedede; stroke-linecap: square"/>
     </g>
     <g id="text_16">
      <!-- 40 -->
      <g transform="translate(20.878125 40.945019) scale(0.08 -0.08)">
       <use xlink:href="#DejaVuSans-34"/>
       <use xlink:href="#DejaVuSans-30" x="63.623047"/>
      </g>
     </g>
    </g>
    <g id="text_17">
     <!-- Phred Score -->
     <g transform="translate(14.798438 224.20865) rotate(-90) scale(0.1 -0.1)">
      <defs>
       <path id="DejaVuSans-68" d="M 3513 2113 
L 3513 0 
L 2938 0 
L 2938 2094 
Q 2938 2591 2744 2837 
Q 2550 3084 2163 3084 
Q 1697 3084 1428 2787 
Q 1159 2491 1159 1978 
L 1159 0 
L 581 0 
L 581 4863 
L 1159 4863 
L 1159 2956 
Q 1366 3272 1645 3428 
Q 1925 3584 2291 3584 
Q 2894 3584 3203 3211 
Q 3513 2838 3513 2113 
z
" transform="scale(0.015625)"/>
       <path id="DejaVuSans-72" d="M 2631 2963 
Q 2534 3019 2420 3045 
Q 2306 3072 2169 3072 
Q 1681 3072 1420 2755 
Q 1159 2438 1159 1844 
L 1159 0 
L 581 0 
L 581 3500 
L 1159 3500 
L 1159 2956 
Q 1341 3275 1631 3429 
Q 1922 3584 2338 3584 
Q 2397 3584 2469 3576 
Q 2541 3569 2628 3553 
L 2631 2963 
z
" transform="scale(0.015625)"/>
       <path id="DejaVuSans-65" d="M 3597 1894 
L 3597 1613 
L 953 1613 
Q 991 1019 1311 708 
Q 1631 397 2203 397 
Q 2534 397 2845 478 
Q 3156 559 3463 722 
L 3463 178 
Q 3153 47 2828 -22 
Q 2503 -91 2169 -91 
Q 1331 -91 842 396 
Q 353 884 353 1716 
Q 353 2575 817 3079 
Q 1281 3584 2069 3584 
Q 2775 3584 3186 3129 
Q 3597 2675 3597 1894 
z
M 3022 2063 
Q 3016 2534 2758 2815 
Q 2500 3097 2075 3097 
Q 1594 3097 1305 2825 
Q 1016 2553 972 2059 
L 3022 2063 
z
" transform="scale(0.015625)"/>
       <path id="DejaVuSans-64" d="M 2906 2969 
L 2906 4863 
L 3481 4863 
L 3481 0 
L 2906 0 
L 2906 525 
Q 2725 213 2448 61 
Q 2172 -91 1784 -91 
Q 1150 -91 751 415 
Q 353 922 353 1747 
Q 353 2572 751 3078 
Q 1150 3584 1784 3584 
Q 2172 3584 2448 3432 
Q 2725 3281 2906 2969 
z
M 947 1747 
Q 947 1113 1208 752 
Q 1469 391 1925 391 
Q 2381 391 2643 752 
Q 2906 1113 2906 1747 
Q 2906 2381 2643 2742 
Q 2381 3103 1925 3103 
Q 1469 3103 1208 2742 
Q 947 2381 947 1747 
z
" transform="scale(0.015625)"/>
       <path id="DejaVuSans-53" d="M 3425 4513 
L 3425 3897 
Q 3066 4069 2747 4153 
Q 2428 4238 2131 4238 
Q 1616 4238 1336 4038 
Q 1056 3838 1056 3469 
Q 1056 3159 1242 3001 
Q 1428 2844 1947 2747 
L 2328 2669 
Q 3034 2534 3370 2195 
Q 3706 1856 3706 1288 
Q 3706 609 3251 259 
Q 2797 -91 1919 -91 
Q 1588 -91 1214 -16 
Q 841 59 441 206 
L 441 856 
Q 825 641 1194 531 
Q 1563 422 1919 422 
Q 2459 422 2753 634 
Q 3047 847 3047 1241 
Q 3047 1584 2836 1778 
Q 2625 1972 2144 2069 
L 1759 2144 
Q 1053 2284 737 2584 
Q 422 2884 422 3419 
Q 422 4038 858 4394 
Q 1294 4750 2059 4750 
Q 2388 4750 2728 4690 
Q 3069 4631 3425 4513 
z
" transform="scale(0.015625)"/>
       <path id="DejaVuSans-63" d="M 3122 3366 
L 3122 2828 
Q 2878 2963 2633 3030 
Q 2388 3097 2138 3097 
Q 1578 3097 1268 2742 
Q 959 2388 959 1747 
Q 959 1106 1268 751 
Q 1578 397 2138 397 
Q 2388 397 2633 464 
Q 2878 531 3122 666 
L 3122 134 
Q 2881 22 2623 -34 
Q 2366 -91 2075 -91 
Q 1284 -91 818 406 
Q 353 903 353 1747 
Q 353 2603 823 3093 
Q 1294 3584 2113 3584 
Q 2378 3584 2631 3529 
Q 2884 3475 3122 3366 
z
" transform="scale(0.015625)"/>
      </defs>
      <use xlink:href="#DejaVuSans-50"/>
      <use xlink:href="#DejaVuSans-68" x="60.302734"/>
      <use xlink:href="#DejaVuSans-72" x="123.681641"/>
      <use xlink:href="#DejaVuSans-65" x="162.544922"/>
      <use xlink:href="#DejaVuSans-64" x="224.068359"/>
      <use xlink:href="#DejaVuSans-20" x="287.544922"/>
      <use xlink:href="#DejaVuSans-53" x="319.332031"/>
      <use xlink:href="#DejaVuSans-63" x="382.808594"/>
      <use xlink:href="#DejaVuSans-6f" x="437.789062"/>
      <use xlink:href="#DejaVuSans-72" x="498.970703"/>
      <use xlink:href="#DejaVuSans-65" x="537.833984"/>
     </g>
    </g>
   </g>
   <g id="line2d_10">
    <path d="M 81.469943 179.852906 
L 90.240007 87.109585 
L 99.010072 83.161922 
L 107.780136 82.943644 
L 116.5502 81.242919 
L 125.320265 79.176436 
L 134.090329 78.790931 
L 142.860393 77.768299 
L 151.630457 77.691867 
L 160.400522 77.338479 
L 177.94065 76.601162 
L 195.480779 76.777674 
L 213.020907 73.819181 
L 230.561036 73.760686 
L 248.101164 73.747727 
L 265.641293 73.477456 
L 283.181422 73.421491 
L 300.72155 76.207978 
L 318.261679 75.874725 
L 335.801807 75.690876 
L 353.341936 75.726359 
L 370.882064 75.42032 
L 388.422193 43.114192 
L 405.962322 42.903532 
L 423.50245 42.864406 
L 441.042579 42.851191 
L 458.582707 42.773297 
L 476.122836 42.867613 
L 493.662964 42.810111 
L 511.203093 43.075691 
L 528.743221 43.063553 
L 546.28335 42.961204 
L 563.823479 43.472292 
L 581.363607 43.479279 
L 598.903736 43.337593 
L 616.443864 42.981419 
L 633.983993 43.216187 
L 651.524121 43.030968 
L 669.06425 43.005826 
L 686.604378 43.312155 
L 704.144507 43.131745 
L 721.684636 43.325773 
L 739.224764 42.781847 
L 756.764893 42.562807 
L 774.305021 42.552894 
L 791.84515 42.717389 
L 809.385278 42.590454 
L 826.925407 42.62913 
L 844.465535 42.947468 
L 862.005664 42.747627 
L 879.545793 43.269267 
L 897.085921 42.56074 
L 914.62605 42.527135 
L 932.166178 42.573906 
L 949.706307 42.612798 
" clip-path="url(#pff6616b565)" style="fill: none; stroke: #f0ad4e; stroke-linecap: square"/>
   </g>
   <g id="line2d_11">
    <path d="M 81.469943 172.578869 
L 90.240007 82.838054 
L 99.010072 78.071148 
L 107.780136 78.841859 
L 116.5502 75.405009 
L 125.320265 74.74782 
L 134.090329 74.054109 
L 142.860393 73.092824 
L 151.630457 72.680928 
L 160.400522 72.620363 
L 177.94065 71.715209 
L 195.480779 71.934725 
L 213.020907 68.891392 
L 230.561036 68.812228 
L 248.101164 68.795185 
L 265.641293 68.490111 
L 283.181422 68.462523 
L 300.72155 71.303949 
L 318.261679 71.030973 
L 335.801807 70.886725 
L 353.341936 70.890174 
L 370.882064 70.670118 
L 388.422193 43.540882 
L 405.962322 43.351057 
L 423.50245 43.210638 
L 441.042579 43.257445 
L 458.582707 43.168947 
L 476.122836 43.229674 
L 493.662964 43.177578 
L 511.203093 43.370552 
L 528.743221 43.264713 
L 546.28335 43.212154 
L 563.823479 43.778301 
L 581.363607 43.753805 
L 598.903736 43.698601 
L 616.443864 43.458067 
L 633.983993 43.692235 
L 651.524121 43.465971 
L 669.06425 43.47468 
L 686.604378 43.729188 
L 704.144507 43.582979 
L 721.684636 43.782099 
L 739.224764 43.233082 
L 756.764893 42.951122 
L 774.305021 42.928819 
L 791.84515 43.110367 
L 809.385278 43.010438 
L 826.925407 42.981769 
L 844.465535 43.317068 
L 862.005664 43.120747 
L 879.545793 43.661869 
L 897.085921 42.997923 
L 914.62605 42.935327 
L 932.166178 43.003646 
L 949.706307 43.069713 
" clip-path="url(#pff6616b565)" style="fill: none; stroke: #f0ad4e; stroke-linecap: square"/>
   </g>
   <g id="line2d_12">
    <path d="M 81.469943 157.564769 
L 90.240007 64.629262 
L 99.010072 60.54111 
L 107.780136 62.111241 
L 116.5502 58.929015 
L 125.320265 57.781169 
L 134.090329 57.339895 
L 142.860393 56.088503 
L 151.630457 55.729953 
L 160.400522 55.763403 
L 177.94065 54.755997 
L 195.480779 55.00829 
L 213.020907 51.7939 
L 230.561036 51.757149 
L 248.101164 51.699019 
L 265.641293 51.367176 
L 283.181422 51.329705 
L 300.72155 54.194962 
L 318.261679 53.915125 
L 335.801807 53.782152 
L 353.341936 53.773491 
L 370.882064 53.569912 
L 388.422193 43.60924 
L 405.962322 43.418147 
L 423.50245 43.308062 
L 441.042579 43.396695 
L 458.582707 43.30318 
L 476.122836 43.368109 
L 493.662964 43.26233 
L 511.203093 43.460354 
L 528.743221 43.465535 
L 546.28335 43.366885 
L 563.823479 43.931015 
L 581.363607 43.804181 
L 598.903736 43.721982 
L 616.443864 43.368416 
L 633.983993 43.646713 
L 651.524121 43.413291 
L 669.06425 43.430523 
L 686.604378 43.66147 
L 704.144507 43.51078 
L 721.684636 43.706038 
L 739.224764 43.21372 
L 756.764893 43.031862 
L 774.305021 43.038609 
L 791.84515 43.194925 
L 809.385278 43.102359 
L 826.925407 43.079563 
L 844.465535 43.422572 
L 862.005664 43.253332 
L 879.545793 43.78651 
L 897.085921 43.146348 
L 914.62605 43.098301 
L 932.166178 43.184131 
L 949.706307 43.201854 
" clip-path="url(#pff6616b565)" style="fill: none; stroke: #f0ad4e; stroke-linecap: square"/>
   </g>
   <g id="line2d_13">
    <path d="M 81.469943 158.438768 
L 90.240007 58.966074 
L 99.010072 54.634166 
L 107.780136 55.661384 
L 116.5502 52.745429 
L 125.320265 51.643139 
L 134.090329 51.272189 
L 142.860393 50.006079 
L 151.630457 49.660136 
L 160.400522 49.646789 
L 177.94065 48.599201 
L 195.480779 48.89083 
L 213.020907 45.520878 
L 230.561036 45.482997 
L 248.101164 45.412942 
L 265.641293 45.068435 
L 283.181422 45.021224 
L 300.72155 48.06548 
L 318.261679 47.759496 
L 335.801807 47.626716 
L 353.341936 47.59564 
L 370.882064 47.370751 
L 388.422193 43.607046 
L 405.962322 43.419509 
L 423.50245 43.290764 
L 441.042579 43.37077 
L 458.582707 43.267651 
L 476.122836 43.313461 
L 493.662964 43.173198 
L 511.203093 43.35343 
L 528.743221 43.323662 
L 546.28335 43.20318 
L 563.823479 43.7433 
L 581.363607 43.610288 
L 598.903736 43.513992 
L 616.443864 43.209776 
L 633.983993 43.4655 
L 651.524121 43.225323 
L 669.06425 43.241352 
L 686.604378 43.460425 
L 704.144507 43.303198 
L 721.684636 43.506896 
L 739.224764 43.05122 
L 756.764893 42.866211 
L 774.305021 42.866245 
L 791.84515 43.041996 
L 809.385278 42.940795 
L 826.925407 42.909703 
L 844.465535 43.25479 
L 862.005664 43.081614 
L 879.545793 43.629445 
L 897.085921 43.00893 
L 914.62605 42.96159 
L 932.166178 43.034983 
L 949.706307 42.989048 
" clip-path="url(#pff6616b565)" style="fill: none; stroke: #f0ad4e; stroke-linecap: square"/>
   </g>
   <g id="line2d_14">
    <path d="M 81.469943 160.943536 
L 90.240007 61.55413 
L 99.010072 56.890684 
L 107.780136 58.038985 
L 116.5502 54.65473 
L 125.320265 53.530125 
L 134.090329 53.054005 
L 142.860393 51.851661 
L 151.630457 51.479744 
L 160.400522 51.512948 
L 177.94065 50.514306 
L 195.480779 50.799361 
L 213.020907 47.599986 
L 230.561036 47.560222 
L 248.101164 47.506737 
L 265.641293 47.209113 
L 283.181422 47.164652 
L 300.72155 49.758987 
L 318.261679 49.471455 
L 335.801807 49.357425 
L 353.341936 49.282905 
L 370.882064 49.096846 
L 388.422193 42.730662 
L 405.962322 42.54391 
L 423.50245 42.428174 
L 441.042579 42.481675 
L 458.582707 42.423564 
L 476.122836 42.459731 
L 493.662964 42.323182 
L 511.203093 42.480792 
L 528.743221 42.450914 
L 546.28335 42.352499 
L 563.823479 42.880003 
L 581.363607 42.788313 
L 598.903736 42.69955 
L 616.443864 42.406979 
L 633.983993 42.658782 
L 651.524121 42.463568 
L 669.06425 42.449255 
L 686.604378 42.675386 
L 704.144507 42.533461 
L 721.684636 42.695489 
L 739.224764 42.320632 
L 756.764893 42.141472 
L 774.305021 42.151252 
L 791.84515 42.308185 
L 809.385278 42.204893 
L 826.925407 42.202944 
L 844.465535 42.547816 
L 862.005664 42.401959 
L 879.545793 43.001421 
L 897.085921 42.299325 
L 914.62605 42.264156 
L 932.166178 42.345193 
L 949.706307 42.289755 
" clip-path="url(#pff6616b565)" style="fill: none; stroke: #f0ad4e; stroke-linecap: square"/>
   </g>
   <g id="line2d_15">
    <path d="M 81.469943 156.113694 
L 90.240007 65.070333 
L 99.010072 61.12153 
L 107.780136 62.892765 
L 116.5502 59.830005 
L 125.320265 58.696412 
L 134.090329 58.307617 
L 142.860393 57.031214 
L 151.630457 56.659041 
L 160.400522 56.698873 
L 177.94065 55.66337 
L 195.480779 55.91627 
L 213.020907 52.5914 
L 230.561036 52.556712 
L 248.101164 52.476053 
L 265.641293 52.146205 
L 283.181422 52.10705 
L 300.72155 55.11725 
L 318.261679 54.841541 
L 335.801807 54.707311 
L 353.341936 54.698266 
L 370.882064 54.49579 
L 388.422193 44.005054 
L 405.962322 43.820456 
L 423.50245 43.677581 
L 441.042579 43.760556 
L 458.582707 43.662212 
L 476.122836 43.75779 
L 493.662964 43.655687 
L 511.203093 43.855489 
L 528.743221 43.866411 
L 546.28335 43.765325 
L 563.823479 44.377209 
L 581.363607 44.226172 
L 598.903736 44.172207 
L 616.443864 43.778704 
L 633.983993 44.078232 
L 651.524121 43.834423 
L 669.06425 43.854027 
L 686.604378 44.081384 
L 704.144507 43.951837 
L 721.684636 44.140692 
L 739.224764 43.619702 
L 756.764893 43.434262 
L 774.305021 43.44238 
L 791.84515 43.602335 
L 809.385278 43.497159 
L 826.925407 43.479747 
L 844.465535 43.83723 
L 862.005664 43.661238 
L 879.545793 44.166432 
L 897.085921 43.549952 
L 914.62605 43.501875 
L 932.166178 43.589663 
L 949.706307 43.640575 
" clip-path="url(#pff6616b565)" style="fill: none; stroke: #f0ad4e; stroke-linecap: square"/>
   </g>
   <g id="line2d_16">
    <path d="M 81.469943 157.825812 
L 90.240007 66.792199 
L 99.010072 62.194531 
L 107.780136 63.812522 
L 116.5502 60.65553 
L 125.320265 59.838155 
L 134.090329 59.370657 
L 142.860393 58.129842 
L 151.630457 57.780193 
L 160.400522 57.791067 
L 177.94065 56.773656 
L 195.480779 57.01826 
L 213.020907 53.786999 
L 230.561036 53.746563 
L 248.101164 53.674369 
L 265.641293 53.366228 
L 283.181422 53.32399 
L 300.72155 56.132916 
L 318.261679 55.863586 
L 335.801807 55.734504 
L 353.341936 55.732573 
L 370.882064 55.536521 
L 388.422193 43.673908 
L 405.962322 43.505427 
L 423.50245 43.399373 
L 441.042579 43.467476 
L 458.582707 43.370528 
L 476.122836 43.46252 
L 493.662964 43.394915 
L 511.203093 43.563968 
L 528.743221 43.58917 
L 546.28335 43.498717 
L 563.823479 44.122817 
L 581.363607 43.956209 
L 598.903736 43.933225 
L 616.443864 43.512061 
L 633.983993 43.816826 
L 651.524121 43.572887 
L 669.06425 43.601608 
L 686.604378 43.830349 
L 704.144507 43.699623 
L 721.684636 43.879431 
L 739.224764 43.354923 
L 756.764893 43.190014 
L 774.305021 43.190601 
L 791.84515 43.3526 
L 809.385278 43.253174 
L 826.925407 43.233753 
L 844.465535 43.574949 
L 862.005664 43.398834 
L 879.545793 43.882333 
L 897.085921 43.297611 
L 914.62605 43.245269 
L 932.166178 43.336125 
L 949.706307 43.430552 
" clip-path="url(#pff6616b565)" style="fill: none; stroke: #f0ad4e; stroke-linecap: square"/>
   </g>
   <g id="line2d_17">
    <path d="M 81.469943 156.858814 
L 90.240007 60.134195 
L 99.010072 55.782155 
L 107.780136 56.888921 
L 116.5502 54.100078 
L 125.320265 52.992429 
L 134.090329 52.670562 
L 142.860393 51.375578 
L 151.630457 51.027071 
L 160.400522 51.004846 
L 177.94065 49.948548 
L 195.480779 50.250034 
L 213.020907 46.892217 
L 230.561036 46.856262 
L 248.101164 46.781481 
L 265.641293 46.442763 
L 283.181422 46.397569 
L 300.72155 49.356706 
L 318.261679 49.066177 
L 335.801807 48.945823 
L 353.341936 48.91882 
L 370.882064 48.705065 
L 388.422193 43.667309 
L 405.962322 43.486193 
L 423.50245 43.359725 
L 441.042579 43.44361 
L 458.582707 43.352116 
L 476.122836 43.409883 
L 493.662964 43.28286 
L 511.203093 43.454881 
L 528.743221 43.440011 
L 546.28335 43.334119 
L 563.823479 43.898505 
L 581.363607 43.757165 
L 598.903736 43.692075 
L 616.443864 43.361345 
L 633.983993 43.636902 
L 651.524121 43.39701 
L 669.06425 43.409346 
L 686.604378 43.625593 
L 704.144507 43.491148 
L 721.684636 43.68234 
L 739.224764 43.212271 
L 756.764893 43.033336 
L 774.305021 43.048519 
L 791.84515 43.217513 
L 809.385278 43.115748 
L 826.925407 43.091691 
L 844.465535 43.44057 
L 862.005664 43.27255 
L 879.545793 43.834777 
L 897.085921 43.198216 
L 914.62605 43.158826 
L 932.166178 43.236529 
L 949.706307 43.193539 
" clip-path="url(#pff6616b565)" style="fill: none; stroke: #f0ad4e; stroke-linecap: square"/>
   </g>
   <g id="line2d_18">
    <path d="M 81.469943 173.162599 
L 90.240007 75.398791 
L 99.010072 71.005043 
L 107.780136 69.762944 
L 116.5502 67.680543 
L 125.320265 65.489671 
L 134.090329 64.725245 
L 142.860393 63.744892 
L 151.630457 63.559189 
L 160.400522 63.082896 
L 177.94065 62.464049 
L 195.480779 62.706617 
L 213.020907 59.214116 
L 230.561036 59.171772 
L 248.101164 59.086233 
L 265.641293 58.788164 
L 283.181422 58.755841 
L 300.72155 62.062174 
L 318.261679 61.663192 
L 335.801807 61.575572 
L 353.341936 61.477519 
L 370.882064 61.10845 
L 388.422193 43.369726 
L 405.962322 43.14082 
L 423.50245 43.033451 
L 441.042579 43.067741 
L 458.582707 42.923971 
L 476.122836 42.969143 
L 493.662964 42.779911 
L 511.203093 43.008406 
L 528.743221 42.955484 
L 546.28335 42.85736 
L 563.823479 43.372104 
L 581.363607 43.359397 
L 598.903736 43.244116 
L 616.443864 42.907435 
L 633.983993 43.121068 
L 651.524121 42.901302 
L 669.06425 42.876764 
L 686.604378 43.17045 
L 704.144507 42.991699 
L 721.684636 43.203092 
L 739.224764 42.738833 
L 756.764893 42.487513 
L 774.305021 42.458561 
L 791.84515 42.676452 
L 809.385278 42.541862 
L 826.925407 42.542415 
L 844.465535 42.866823 
L 862.005664 42.70029 
L 879.545793 43.282825 
L 897.085921 42.568705 
L 914.62605 42.550805 
L 932.166178 42.583717 
L 949.706307 42.532943 
" clip-path="url(#pff6616b565)" style="fill: none; stroke: #f0ad4e; stroke-linecap: square"/>
   </g>
   <g id="line2d_19">
    <path d="M 81.469943 164.038634 
L 90.240007 67.175663 
L 99.010072 62.368732 
L 107.780136 62.460761 
L 116.5502 59.673505 
L 125.320265 58.386274 
L 134.090329 57.905615 
L 142.860393 56.817254 
L 151.630457 56.503091 
L 160.400522 56.285454 
L 177.94065 55.329991 
L 195.480779 55.609879 
L 213.020907 52.210038 
L 230.561036 52.160129 
L 248.101164 52.094411 
L 265.641293 51.754966 
L 283.181422 51.711422 
L 300.72155 54.932018 
L 318.261679 54.571325 
L 335.801807 54.412294 
L 353.341936 54.401705 
L 370.882064 54.133211 
L 388.422193 43.776303 
L 405.962322 43.564104 
L 423.50245 43.428329 
L 441.042579 43.48883 
L 458.582707 43.371287 
L 476.122836 43.43071 
L 493.662964 43.295601 
L 511.203093 43.47389 
L 528.743221 43.423871 
L 546.28335 43.305559 
L 563.823479 43.867431 
L 581.363607 43.753738 
L 598.903736 43.672214 
L 616.443864 43.318964 
L 633.983993 43.570844 
L 651.524121 43.340932 
L 669.06425 43.346811 
L 686.604378 43.573471 
L 704.144507 43.434541 
L 721.684636 43.635546 
L 739.224764 43.143068 
L 756.764893 42.94112 
L 774.305021 42.943293 
L 791.84515 43.125823 
L 809.385278 43.000927 
L 826.925407 42.981513 
L 844.465535 43.327344 
L 862.005664 43.155243 
L 879.545793 43.694419 
L 897.085921 43.051031 
L 914.62605 43.012383 
L 932.166178 43.086762 
L 949.706307 43.070547 
" clip-path="url(#pff6616b565)" style="fill: none; stroke: #f0ad4e; stroke-linecap: square"/>
   </g>
   <g id="line2d_20">
    <path d="M 81.469943 158.886111 
L 90.240007 59.949417 
L 99.010072 55.219493 
L 107.780136 55.783421 
L 116.5502 52.804278 
L 125.320265 51.52309 
L 134.090329 51.025792 
L 142.860393 49.84055 
L 151.630457 49.56665 
L 160.400522 49.36575 
L 177.94065 48.397711 
L 195.480779 48.668759 
L 213.020907 45.38307 
L 230.561036 45.338699 
L 248.101164 45.284502 
L 265.641293 44.962194 
L 283.181422 44.903544 
L 300.72155 47.898698 
L 318.261679 47.562954 
L 335.801807 47.402976 
L 353.341936 47.376629 
L 370.882064 47.12752 
L 388.422193 43.220616 
L 405.962322 43.023469 
L 423.50245 42.902456 
L 441.042579 42.950942 
L 458.582707 42.853866 
L 476.122836 42.900816 
L 493.662964 42.720619 
L 511.203093 42.926032 
L 528.743221 42.864014 
L 546.28335 42.756677 
L 563.823479 43.280083 
L 581.363607 43.184604 
L 598.903736 43.069644 
L 616.443864 42.775357 
L 633.983993 42.991708 
L 651.524121 42.777431 
L 669.06425 42.792816 
L 686.604378 43.026612 
L 704.144507 42.839129 
L 721.684636 43.038548 
L 739.224764 42.628248 
L 756.764893 42.452837 
L 774.305021 42.451707 
L 791.84515 42.623975 
L 809.385278 42.514844 
L 826.925407 42.502772 
L 844.465535 42.846307 
L 862.005664 42.66748 
L 879.545793 43.18882 
L 897.085921 42.590548 
L 914.62605 42.555385 
L 932.166178 42.603698 
L 949.706307 42.540992 
" clip-path="url(#pff6616b565)" style="fill: none; stroke: #f0ad4e; stroke-linecap: square"/>
   </g>
   <g id="line2d_21">
    <path d="M 81.469943 160.818289 
L 90.240007 64.242156 
L 99.010072 60.091358 
L 107.780136 60.381289 
L 116.5502 57.084892 
L 125.320265 56.33651 
L 134.090329 55.765743 
L 142.860393 54.637709 
L 151.630457 54.21797 
L 160.400522 54.110449 
L 177.94065 53.091127 
L 195.480779 53.377183 
L 213.020907 50.076437 
L 230.561036 50.02311 
L 248.101164 49.978258 
L 265.641293 49.631883 
L 283.181422 49.572397 
L 300.72155 52.643473 
L 318.261679 52.31089 
L 335.801807 52.154583 
L 353.341936 52.118561 
L 370.882064 51.886578 
L 388.422193 43.468039 
L 405.962322 43.260828 
L 423.50245 43.139324 
L 441.042579 43.199006 
L 458.582707 43.082592 
L 476.122836 43.123706 
L 493.662964 42.983868 
L 511.203093 43.177093 
L 528.743221 43.124218 
L 546.28335 43.008788 
L 563.823479 43.5172 
L 581.363607 43.415644 
L 598.903736 43.307725 
L 616.443864 43.014933 
L 633.983993 43.264338 
L 651.524121 43.028306 
L 669.06425 43.031272 
L 686.604378 43.25271 
L 704.144507 43.112663 
L 721.684636 43.315644 
L 739.224764 42.839936 
L 756.764893 42.62953 
L 774.305021 42.625724 
L 791.84515 42.803359 
L 809.385278 42.704498 
L 826.925407 42.67679 
L 844.465535 43.013485 
L 862.005664 42.827437 
L 879.545793 43.362851 
L 897.085921 42.745106 
L 914.62605 42.702302 
L 932.166178 42.767701 
L 949.706307 42.782125 
" clip-path="url(#pff6616b565)" style="fill: none; stroke: #f0ad4e; stroke-linecap: square"/>
   </g>
   <g id="line2d_22">
    <path d="M 81.469943 162.017629 
L 90.240007 69.39785 
L 99.010072 64.990047 
L 107.780136 65.996254 
L 116.5502 62.888793 
L 125.320265 62.248789 
L 134.090329 61.812398 
L 142.860393 60.704339 
L 151.630457 60.295565 
L 160.400522 60.208738 
L 177.94065 59.241558 
L 195.480779 59.500389 
L 213.020907 56.378627 
L 230.561036 56.32731 
L 248.101164 56.274131 
L 265.641293 55.967295 
L 283.181422 55.935903 
L 300.72155 58.862611 
L 318.261679 58.593401 
L 335.801807 58.46562 
L 353.341936 58.462233 
L 370.882064 58.253091 
L 388.422193 43.68761 
L 405.962322 43.50442 
L 423.50245 43.375916 
L 441.042579 43.461538 
L 458.582707 43.358014 
L 476.122836 43.424492 
L 493.662964 43.357625 
L 511.203093 43.579483 
L 528.743221 43.612714 
L 546.28335 43.503969 
L 563.823479 44.05693 
L 581.363607 43.937039 
L 598.903736 43.847708 
L 616.443864 43.514263 
L 633.983993 43.774336 
L 651.524121 43.542618 
L 669.06425 43.557623 
L 686.604378 43.815284 
L 704.144507 43.66053 
L 721.684636 43.872817 
L 739.224764 43.351258 
L 756.764893 43.151828 
L 774.305021 43.163276 
L 791.84515 43.343473 
L 809.385278 43.247048 
L 826.925407 43.230896 
L 844.465535 43.57223 
L 862.005664 43.38785 
L 879.545793 43.933395 
L 897.085921 43.313369 
L 914.62605 43.259861 
L 932.166178 43.330143 
L 949.706307 43.356187 
" clip-path="url(#pff6616b565)" style="fill: none; stroke: #f0ad4e; stroke-linecap: square"/>
   </g>
   <g id="line2d_23">
    <path d="M 81.469943 161.998195 
L 90.240007 60.125695 
L 99.010072 55.018996 
L 107.780136 55.022248 
L 116.5502 51.827452 
L 125.320265 50.601456 
L 134.090329 50.073142 
L 142.860393 48.937965 
L 151.630457 48.516495 
L 160.400522 48.368155 
L 177.94065 47.345684 
L 195.480779 47.612753 
L 213.020907 44.251516 
L 230.561036 44.203639 
L 248.101164 44.160822 
L 265.641293 43.813749 
L 283.181422 43.759951 
L 300.72155 46.982683 
L 318.261679 46.629746 
L 335.801807 46.425925 
L 353.341936 46.393907 
L 370.882064 46.124064 
L 388.422193 43.350471 
L 405.962322 43.137268 
L 423.50245 42.996911 
L 441.042579 43.045434 
L 458.582707 42.943552 
L 476.122836 42.973923 
L 493.662964 42.767345 
L 511.203093 42.988239 
L 528.743221 42.902024 
L 546.28335 42.762032 
L 563.823479 43.242954 
L 581.363607 43.184469 
L 598.903736 43.012534 
L 616.443864 42.751772 
L 633.983993 42.960314 
L 651.524121 42.747106 
L 669.06425 42.764563 
L 686.604378 42.993421 
L 704.144507 42.818393 
L 721.684636 43.026153 
L 739.224764 42.592777 
L 756.764893 42.411928 
L 774.305021 42.416903 
L 791.84515 42.583001 
L 809.385278 42.468943 
L 826.925407 42.44391 
L 844.465535 42.821971 
L 862.005664 42.645617 
L 879.545793 43.203408 
L 897.085921 42.549017 
L 914.62605 42.514446 
L 932.166178 42.584287 
L 949.706307 42.475666 
" clip-path="url(#pff6616b565)" style="fill: none; stroke: #f0ad4e; stroke-linecap: square"/>
   </g>
   <g id="line2d_24">
    <path d="M 81.469943 159.857451 
L 90.240007 63.921885 
L 99.010072 59.090471 
L 107.780136 59.764725 
L 116.5502 56.673992 
L 125.320265 55.764869 
L 134.090329 55.208799 
L 142.860393 54.051072 
L 151.630457 53.725729 
L 160.400522 53.589313 
L 177.94065 52.640072 
L 195.480779 52.873447 
L 213.020907 49.623173 
L 230.561036 49.583017 
L 248.101164 49.508859 
L 265.641293 49.193475 
L 283.181422 49.153443 
L 300.72155 52.23083 
L 318.261679 51.923629 
L 335.801807 51.780555 
L 353.341936 51.768947 
L 370.882064 51.527874 
L 388.422193 43.593832 
L 405.962322 43.395609 
L 423.50245 43.29103 
L 441.042579 43.335099 
L 458.582707 43.250134 
L 476.122836 43.283076 
L 493.662964 43.167101 
L 511.203093 43.381187 
L 528.743221 43.356603 
L 546.28335 43.237766 
L 563.823479 43.749168 
L 581.363607 43.633777 
L 598.903736 43.544348 
L 616.443864 43.240508 
L 633.983993 43.487322 
L 651.524121 43.251872 
L 669.06425 43.274586 
L 686.604378 43.497823 
L 704.144507 43.354013 
L 721.684636 43.564257 
L 739.224764 43.080975 
L 756.764893 42.889213 
L 774.305021 42.894579 
L 791.84515 43.078149 
L 809.385278 42.976649 
L 826.925407 42.963482 
L 844.465535 43.297273 
L 862.005664 43.122127 
L 879.545793 43.645402 
L 897.085921 43.041003 
L 914.62605 43.002684 
L 932.166178 43.065664 
L 949.706307 43.040551 
" clip-path="url(#pff6616b565)" style="fill: none; stroke: #f0ad4e; stroke-linecap: square"/>
   </g>
   <g id="line2d_25">
    <path d="M 81.469943 154.820301 
L 90.240007 61.046311 
L 99.010072 56.908315 
L 107.780136 58.244478 
L 116.5502 55.146135 
L 125.320265 54.002652 
L 134.090329 53.575269 
L 142.860393 52.331168 
L 151.630457 51.948504 
L 160.400522 51.955633 
L 177.94065 50.926374 
L 195.480779 51.207006 
L 213.020907 47.94968 
L 230.561036 47.90703 
L 248.101164 47.841557 
L 265.641293 47.505893 
L 283.181422 47.470398 
L 300.72155 50.399406 
L 318.261679 50.108932 
L 335.801807 49.972287 
L 353.341936 49.965388 
L 370.882064 49.771778 
L 388.422193 43.515044 
L 405.962322 43.330082 
L 423.50245 43.216232 
L 441.042579 43.298994 
L 458.582707 43.210987 
L 476.122836 43.280795 
L 493.662964 43.153219 
L 511.203093 43.344177 
L 528.743221 43.317685 
L 546.28335 43.21716 
L 563.823479 43.739201 
L 581.363607 43.631853 
L 598.903736 43.557332 
L 616.443864 43.245063 
L 633.983993 43.501758 
L 651.524121 43.276033 
L 669.06425 43.286984 
L 686.604378 43.521087 
L 704.144507 43.376178 
L 721.684636 43.57463 
L 739.224764 43.112605 
L 756.764893 42.922318 
L 774.305021 42.926957 
L 791.84515 43.097682 
L 809.385278 43.009428 
L 826.925407 42.987786 
L 844.465535 43.340883 
L 862.005664 43.176943 
L 879.545793 43.720746 
L 897.085921 43.080513 
L 914.62605 43.045113 
L 932.166178 43.156805 
L 949.706307 43.167237 
" clip-path="url(#pff6616b565)" style="fill: none; stroke: #f0ad4e; stroke-linecap: square"/>
   </g>
   <g id="line2d_26">
    <path d="M 38.058125 353.2239 
L 993.118125 353.2239 
" clip-path="url(#pff6616b565)" style="fill: none; stroke: #dedede; stroke-width: 2; stroke-linecap: square"/>
   </g>
   <g id="text_18">
    <!-- FastQC: Mean Quality Scores -->
    <g transform="translate(400.349375 19.3575) scale(0.16 -0.16)">
     <defs>
      <path id="DejaVuSans-46" d="M 628 4666 
L 3309 4666 
L 3309 4134 
L 1259 4134 
L 1259 2759 
L 3109 2759 
L 3109 2228 
L 1259 2228 
L 1259 0 
L 628 0 
L 628 4666 
z
" transform="scale(0.015625)"/>
      <path id="DejaVuSans-61" d="M 2194 1759 
Q 1497 1759 1228 1600 
Q 959 1441 959 1056 
Q 959 750 1161 570 
Q 1363 391 1709 391 
Q 2188 391 2477 730 
Q 2766 1069 2766 1631 
L 2766 1759 
L 2194 1759 
z
M 3341 1997 
L 3341 0 
L 2766 0 
L 2766 531 
Q 2569 213 2275 61 
Q 1981 -91 1556 -91 
Q 1019 -91 701 211 
Q 384 513 384 1019 
Q 384 1609 779 1909 
Q 1175 2209 1959 2209 
L 2766 2209 
L 2766 2266 
Q 2766 2663 2505 2880 
Q 2244 3097 1772 3097 
Q 1472 3097 1187 3025 
Q 903 2953 641 2809 
L 641 3341 
Q 956 3463 1253 3523 
Q 1550 3584 1831 3584 
Q 2591 3584 2966 3190 
Q 3341 2797 3341 1997 
z
" transform="scale(0.015625)"/>
      <path id="DejaVuSans-51" d="M 2522 4238 
Q 1834 4238 1429 3725 
Q 1025 3213 1025 2328 
Q 1025 1447 1429 934 
Q 1834 422 2522 422 
Q 3209 422 3611 934 
Q 4013 1447 4013 2328 
Q 4013 3213 3611 3725 
Q 3209 4238 2522 4238 
z
M 3406 84 
L 4238 -825 
L 3475 -825 
L 2784 -78 
Q 2681 -84 2626 -87 
Q 2572 -91 2522 -91 
Q 1538 -91 948 567 
Q 359 1225 359 2328 
Q 359 3434 948 4092 
Q 1538 4750 2522 4750 
Q 3503 4750 4090 4092 
Q 4678 3434 4678 2328 
Q 4678 1516 4351 937 
Q 4025 359 3406 84 
z
" transform="scale(0.015625)"/>
      <path id="DejaVuSans-43" d="M 4122 4306 
L 4122 3641 
Q 3803 3938 3442 4084 
Q 3081 4231 2675 4231 
Q 1875 4231 1450 3742 
Q 1025 3253 1025 2328 
Q 1025 1406 1450 917 
Q 1875 428 2675 428 
Q 3081 428 3442 575 
Q 3803 722 4122 1019 
L 4122 359 
Q 3791 134 3420 21 
Q 3050 -91 2638 -91 
Q 1578 -91 968 557 
Q 359 1206 359 2328 
Q 359 3453 968 4101 
Q 1578 4750 2638 4750 
Q 3056 4750 3426 4639 
Q 3797 4528 4122 4306 
z
" transform="scale(0.015625)"/>
      <path id="DejaVuSans-3a" d="M 750 794 
L 1409 794 
L 1409 0 
L 750 0 
L 750 794 
z
M 750 3309 
L 1409 3309 
L 1409 2516 
L 750 2516 
L 750 3309 
z
" transform="scale(0.015625)"/>
      <path id="DejaVuSans-4d" d="M 628 4666 
L 1569 4666 
L 2759 1491 
L 3956 4666 
L 4897 4666 
L 4897 0 
L 4281 0 
L 4281 4097 
L 3078 897 
L 2444 897 
L 1241 4097 
L 1241 0 
L 628 0 
L 628 4666 
z
" transform="scale(0.015625)"/>
      <path id="DejaVuSans-75" d="M 544 1381 
L 544 3500 
L 1119 3500 
L 1119 1403 
Q 1119 906 1312 657 
Q 1506 409 1894 409 
Q 2359 409 2629 706 
Q 2900 1003 2900 1516 
L 2900 3500 
L 3475 3500 
L 3475 0 
L 2900 0 
L 2900 538 
Q 2691 219 2414 64 
Q 2138 -91 1772 -91 
Q 1169 -91 856 284 
Q 544 659 544 1381 
z
M 1991 3584 
L 1991 3584 
z
" transform="scale(0.015625)"/>
      <path id="DejaVuSans-6c" d="M 603 4863 
L 1178 4863 
L 1178 0 
L 603 0 
L 603 4863 
z
" transform="scale(0.015625)"/>
      <path id="DejaVuSans-79" d="M 2059 -325 
Q 1816 -950 1584 -1140 
Q 1353 -1331 966 -1331 
L 506 -1331 
L 506 -850 
L 844 -850 
Q 1081 -850 1212 -737 
Q 1344 -625 1503 -206 
L 1606 56 
L 191 3500 
L 800 3500 
L 1894 763 
L 2988 3500 
L 3597 3500 
L 2059 -325 
z
" transform="scale(0.015625)"/>
     </defs>
     <use xlink:href="#DejaVuSans-46"/>
     <use xlink:href="#DejaVuSans-61" x="48.394531"/>
     <use xlink:href="#DejaVuSans-73" x="109.673828"/>
     <use xlink:href="#DejaVuSans-74" x="161.773438"/>
     <use xlink:href="#DejaVuSans-51" x="200.982422"/>
     <use xlink:href="#DejaVuSans-43" x="279.693359"/>
     <use xlink:href="#DejaVuSans-3a" x="349.517578"/>
     <use xlink:href="#DejaVuSans-20" x="383.208984"/>
     <use xlink:href="#DejaVuSans-4d" x="414.996094"/>
     <use xlink:href="#DejaVuSans-65" x="501.275391"/>
     <use xlink:href="#DejaVuSans-61" x="562.798828"/>
     <use xlink:href="#DejaVuSans-6e" x="624.078125"/>
     <use xlink:href="#DejaVuSans-20" x="687.457031"/>
     <use xlink:href="#DejaVuSans-51" x="719.244141"/>
     <use xlink:href="#DejaVuSans-75" x="797.955078"/>
     <use xlink:href="#DejaVuSans-61" x="861.333984"/>
     <use xlink:href="#DejaVuSans-6c" x="922.613281"/>
     <use xlink:href="#DejaVuSans-69" x="950.396484"/>
     <use xlink:href="#DejaVuSans-74" x="978.179688"/>
     <use xlink:href="#DejaVuSans-79" x="1017.388672"/>
     <use xlink:href="#DejaVuSans-20" x="1076.568359"/>
     <use xlink:href="#DejaVuSans-53" x="1108.355469"/>
     <use xlink:href="#DejaVuSans-63" x="1171.832031"/>
     <use xlink:href="#DejaVuSans-6f" x="1226.8125"/>
     <use xlink:href="#DejaVuSans-72" x="1287.994141"/>
     <use xlink:href="#DejaVuSans-65" x="1326.857422"/>
     <use xlink:href="#DejaVuSans-73" x="1388.380859"/>
    </g>
   </g>
  </g>
 </g>
 <defs>
  <clipPath id="pff6616b565">
   <rect x="38.058125" y="35.2559" width="955.06" height="317.968"/>
  </clipPath>
 </defs>
</svg>
