<?xml version="1.0" encoding="utf-8" standalone="no"?>
<!DOCTYPE svg PUBLIC "-//W3C//DTD SVG 1.1//EN"
  "http://www.w3.org/Graphics/SVG/1.1/DTD/svg11.dtd">
<svg xmlns:xlink="http://www.w3.org/1999/xlink" width="1000.098125pt" height="388.844525pt" viewBox="0 0 1000.098125 388.844525" xmlns="http://www.w3.org/2000/svg" version="1.1">
 <metadata>
  <rdf:RDF xmlns:dc="http://purl.org/dc/elements/1.1/" xmlns:cc="http://creativecommons.org/ns#" xmlns:rdf="http://www.w3.org/1999/02/22-rdf-syntax-ns#">
   <cc:Work>
    <dc:type rdf:resource="http://purl.org/dc/dcmitype/StillImage"/>
    <dc:date>2024-09-05T13:39:07.553261</dc:date>
    <dc:format>image/svg+xml</dc:format>
    <dc:creator>
     <cc:Agent>
      <dc:title>Matplotlib v3.8.2, https://matplotlib.org/</dc:title>
     </cc:Agent>
    </dc:creator>
   </cc:Work>
  </rdf:RDF>
 </metadata>
 <defs>
  <style type="text/css">*{stroke-linejoin: round; stroke-linecap: butt}</style>
 </defs>
 <g id="figure_1">
  <g id="axes_1">
   <g id="patch_1">
    <path d="M 58.418125 353.2239 
L 985.263125 353.2239 
L 985.263125 35.2559 
L 58.418125 35.2559 
z
" style="fill: #ffffff"/>
   </g>
   <g id="matplotlib.axis_1">
    <g id="xtick_1">
     <g id="text_1">
      <!-- 0 -->
      <g transform="translate(55.873125 366.30265) scale(0.08 -0.08)">
       <defs>
        <path id="DejaVuSans-30" d="M 2034 4250 
Q 1547 4250 1301 3770 
Q 1056 3291 1056 2328 
Q 1056 1369 1301 889 
Q 1547 409 2034 409 
Q 2525 409 2770 889 
Q 3016 1369 3016 2328 
Q 3016 3291 2770 3770 
Q 2525 4250 2034 4250 
z
M 2034 4750 
Q 2819 4750 3233 4129 
Q 3647 3509 3647 2328 
Q 3647 1150 3233 529 
Q 2819 -91 2034 -91 
Q 1250 -91 836 529 
Q 422 1150 422 2328 
Q 422 3509 836 4129 
Q 1250 4750 2034 4750 
z
" transform="scale(0.015625)"/>
       </defs>
       <use xlink:href="#DejaVuSans-30"/>
      </g>
     </g>
    </g>
    <g id="xtick_2">
     <g id="text_2">
      <!-- 20 -->
      <g transform="translate(238.697125 366.30265) scale(0.08 -0.08)">
       <defs>
        <path id="DejaVuSans-32" d="M 1228 531 
L 3431 531 
L 3431 0 
L 469 0 
L 469 531 
Q 828 903 1448 1529 
Q 2069 2156 2228 2338 
Q 2531 2678 2651 2914 
Q 2772 3150 2772 3378 
Q 2772 3750 2511 3984 
Q 2250 4219 1831 4219 
Q 1534 4219 1204 4116 
Q 875 4013 500 3803 
L 500 4441 
Q 881 4594 1212 4672 
Q 1544 4750 1819 4750 
Q 2544 4750 2975 4387 
Q 3406 4025 3406 3419 
Q 3406 3131 3298 2873 
Q 3191 2616 2906 2266 
Q 2828 2175 2409 1742 
Q 1991 1309 1228 531 
z
" transform="scale(0.015625)"/>
       </defs>
       <use xlink:href="#DejaVuSans-32"/>
       <use xlink:href="#DejaVuSans-30" x="63.623047"/>
      </g>
     </g>
    </g>
    <g id="xtick_3">
     <g id="text_3">
      <!-- 40 -->
      <g transform="translate(424.066125 366.30265) scale(0.08 -0.08)">
       <defs>
        <path id="DejaVuSans-34" d="M 2419 4116 
L 825 1625 
L 2419 1625 
L 2419 4116 
z
M 2253 4666 
L 3047 4666 
L 3047 1625 
L 3713 1625 
L 3713 1100 
L 3047 1100 
L 3047 0 
L 2419 0 
L 2419 1100 
L 313 1100 
L 313 1709 
L 2253 4666 
z
" transform="scale(0.015625)"/>
       </defs>
       <use xlink:href="#DejaVuSans-34"/>
       <use xlink:href="#DejaVuSans-30" x="63.623047"/>
      </g>
     </g>
    </g>
    <g id="xtick_4">
     <g id="text_4">
      <!-- 60 -->
      <g transform="translate(609.435125 366.30265) scale(0.08 -0.08)">
       <defs>
        <path id="DejaVuSans-36" d="M 2113 2584 
Q 1688 2584 1439 2293 
Q 1191 2003 1191 1497 
Q 1191 994 1439 701 
Q 1688 409 2113 409 
Q 2538 409 2786 701 
Q 3034 994 3034 1497 
Q 3034 2003 2786 2293 
Q 2538 2584 2113 2584 
z
M 3366 4563 
L 3366 3988 
Q 3128 4100 2886 4159 
Q 2644 4219 2406 4219 
Q 1781 4219 1451 3797 
Q 1122 3375 1075 2522 
Q 1259 2794 1537 2939 
Q 1816 3084 2150 3084 
Q 2853 3084 3261 2657 
Q 3669 2231 3669 1497 
Q 3669 778 3244 343 
Q 2819 -91 2113 -91 
Q 1303 -91 875 529 
Q 447 1150 447 2328 
Q 447 3434 972 4092 
Q 1497 4750 2381 4750 
Q 2619 4750 2861 4703 
Q 3103 4656 3366 4563 
z
" transform="scale(0.015625)"/>
       </defs>
       <use xlink:href="#DejaVuSans-36"/>
       <use xlink:href="#DejaVuSans-30" x="63.623047"/>
      </g>
     </g>
    </g>
    <g id="xtick_5">
     <g id="text_5">
      <!-- 80 -->
      <g transform="translate(794.804125 366.30265) scale(0.08 -0.08)">
       <defs>
        <path id="DejaVuSans-38" d="M 2034 2216 
Q 1584 2216 1326 1975 
Q 1069 1734 1069 1313 
Q 1069 891 1326 650 
Q 1584 409 2034 409 
Q 2484 409 2743 651 
Q 3003 894 3003 1313 
Q 3003 1734 2745 1975 
Q 2488 2216 2034 2216 
z
M 1403 2484 
Q 997 2584 770 2862 
Q 544 3141 544 3541 
Q 544 4100 942 4425 
Q 1341 4750 2034 4750 
Q 2731 4750 3128 4425 
Q 3525 4100 3525 3541 
Q 3525 3141 3298 2862 
Q 3072 2584 2669 2484 
Q 3125 2378 3379 2068 
Q 3634 1759 3634 1313 
Q 3634 634 3220 271 
Q 2806 -91 2034 -91 
Q 1263 -91 848 271 
Q 434 634 434 1313 
Q 434 1759 690 2068 
Q 947 2378 1403 2484 
z
M 1172 3481 
Q 1172 3119 1398 2916 
Q 1625 2713 2034 2713 
Q 2441 2713 2670 2916 
Q 2900 3119 2900 3481 
Q 2900 3844 2670 4047 
Q 2441 4250 2034 4250 
Q 1625 4250 1398 4047 
Q 1172 3844 1172 3481 
z
" transform="scale(0.015625)"/>
       </defs>
       <use xlink:href="#DejaVuSans-38"/>
       <use xlink:href="#DejaVuSans-30" x="63.623047"/>
      </g>
     </g>
    </g>
    <g id="xtick_6">
     <g id="text_6">
      <!-- 100 -->
      <g transform="translate(977.628125 366.30265) scale(0.08 -0.08)">
       <defs>
        <path id="DejaVuSans-31" d="M 794 531 
L 1825 531 
L 1825 4091 
L 703 3866 
L 703 4441 
L 1819 4666 
L 2450 4666 
L 2450 531 
L 3481 531 
L 3481 0 
L 794 0 
L 794 531 
z
" transform="scale(0.015625)"/>
       </defs>
       <use xlink:href="#DejaVuSans-31"/>
       <use xlink:href="#DejaVuSans-30" x="63.623047"/>
       <use xlink:href="#DejaVuSans-30" x="127.246094"/>
      </g>
     </g>
    </g>
    <g id="text_7">
     <!-- Percent of reads -->
     <g transform="translate(481.172656 379.564837) scale(0.1 -0.1)">
      <defs>
       <path id="DejaVuSans-50" d="M 1259 4147 
L 1259 2394 
L 2053 2394 
Q 2494 2394 2734 2622 
Q 2975 2850 2975 3272 
Q 2975 3691 2734 3919 
Q 2494 4147 2053 4147 
L 1259 4147 
z
M 628 4666 
L 2053 4666 
Q 2838 4666 3239 4311 
Q 3641 3956 3641 3272 
Q 3641 2581 3239 2228 
Q 2838 1875 2053 1875 
L 1259 1875 
L 1259 0 
L 628 0 
L 628 4666 
z
" transform="scale(0.015625)"/>
       <path id="DejaVuSans-65" d="M 3597 1894 
L 3597 1613 
L 953 1613 
Q 991 1019 1311 708 
Q 1631 397 2203 397 
Q 2534 397 2845 478 
Q 3156 559 3463 722 
L 3463 178 
Q 3153 47 2828 -22 
Q 2503 -91 2169 -91 
Q 1331 -91 842 396 
Q 353 884 353 1716 
Q 353 2575 817 3079 
Q 1281 3584 2069 3584 
Q 2775 3584 3186 3129 
Q 3597 2675 3597 1894 
z
M 3022 2063 
Q 3016 2534 2758 2815 
Q 2500 3097 2075 3097 
Q 1594 3097 1305 2825 
Q 1016 2553 972 2059 
L 3022 2063 
z
" transform="scale(0.015625)"/>
       <path id="DejaVuSans-72" d="M 2631 2963 
Q 2534 3019 2420 3045 
Q 2306 3072 2169 3072 
Q 1681 3072 1420 2755 
Q 1159 2438 1159 1844 
L 1159 0 
L 581 0 
L 581 3500 
L 1159 3500 
L 1159 2956 
Q 1341 3275 1631 3429 
Q 1922 3584 2338 3584 
Q 2397 3584 2469 3576 
Q 2541 3569 2628 3553 
L 2631 2963 
z
" transform="scale(0.015625)"/>
       <path id="DejaVuSans-63" d="M 3122 3366 
L 3122 2828 
Q 2878 2963 2633 3030 
Q 2388 3097 2138 3097 
Q 1578 3097 1268 2742 
Q 959 2388 959 1747 
Q 959 1106 1268 751 
Q 1578 397 2138 397 
Q 2388 397 2633 464 
Q 2878 531 3122 666 
L 3122 134 
Q 2881 22 2623 -34 
Q 2366 -91 2075 -91 
Q 1284 -91 818 406 
Q 353 903 353 1747 
Q 353 2603 823 3093 
Q 1294 3584 2113 3584 
Q 2378 3584 2631 3529 
Q 2884 3475 3122 3366 
z
" transform="scale(0.015625)"/>
       <path id="DejaVuSans-6e" d="M 3513 2113 
L 3513 0 
L 2938 0 
L 2938 2094 
Q 2938 2591 2744 2837 
Q 2550 3084 2163 3084 
Q 1697 3084 1428 2787 
Q 1159 2491 1159 1978 
L 1159 0 
L 581 0 
L 581 3500 
L 1159 3500 
L 1159 2956 
Q 1366 3272 1645 3428 
Q 1925 3584 2291 3584 
Q 2894 3584 3203 3211 
Q 3513 2838 3513 2113 
z
" transform="scale(0.015625)"/>
       <path id="DejaVuSans-74" d="M 1172 4494 
L 1172 3500 
L 2356 3500 
L 2356 3053 
L 1172 3053 
L 1172 1153 
Q 1172 725 1289 603 
Q 1406 481 1766 481 
L 2356 481 
L 2356 0 
L 1766 0 
Q 1100 0 847 248 
Q 594 497 594 1153 
L 594 3053 
L 172 3053 
L 172 3500 
L 594 3500 
L 594 4494 
L 1172 4494 
z
" transform="scale(0.015625)"/>
       <path id="DejaVuSans-20" transform="scale(0.015625)"/>
       <path id="DejaVuSans-6f" d="M 1959 3097 
Q 1497 3097 1228 2736 
Q 959 2375 959 1747 
Q 959 1119 1226 758 
Q 1494 397 1959 397 
Q 2419 397 2687 759 
Q 2956 1122 2956 1747 
Q 2956 2369 2687 2733 
Q 2419 3097 1959 3097 
z
M 1959 3584 
Q 2709 3584 3137 3096 
Q 3566 2609 3566 1747 
Q 3566 888 3137 398 
Q 2709 -91 1959 -91 
Q 1206 -91 779 398 
Q 353 888 353 1747 
Q 353 2609 779 3096 
Q 1206 3584 1959 3584 
z
" transform="scale(0.015625)"/>
       <path id="DejaVuSans-66" d="M 2375 4863 
L 2375 4384 
L 1825 4384 
Q 1516 4384 1395 4259 
Q 1275 4134 1275 3809 
L 1275 3500 
L 2222 3500 
L 2222 3053 
L 1275 3053 
L 1275 0 
L 697 0 
L 697 3053 
L 147 3053 
L 147 3500 
L 697 3500 
L 697 3744 
Q 697 4328 969 4595 
Q 1241 4863 1831 4863 
L 2375 4863 
z
" transform="scale(0.015625)"/>
       <path id="DejaVuSans-61" d="M 2194 1759 
Q 1497 1759 1228 1600 
Q 959 1441 959 1056 
Q 959 750 1161 570 
Q 1363 391 1709 391 
Q 2188 391 2477 730 
Q 2766 1069 2766 1631 
L 2766 1759 
L 2194 1759 
z
M 3341 1997 
L 3341 0 
L 2766 0 
L 2766 531 
Q 2569 213 2275 61 
Q 1981 -91 1556 -91 
Q 1019 -91 701 211 
Q 384 513 384 1019 
Q 384 1609 779 1909 
Q 1175 2209 1959 2209 
L 2766 2209 
L 2766 2266 
Q 2766 2663 2505 2880 
Q 2244 3097 1772 3097 
Q 1472 3097 1187 3025 
Q 903 2953 641 2809 
L 641 3341 
Q 956 3463 1253 3523 
Q 1550 3584 1831 3584 
Q 2591 3584 2966 3190 
Q 3341 2797 3341 1997 
z
" transform="scale(0.015625)"/>
       <path id="DejaVuSans-64" d="M 2906 2969 
L 2906 4863 
L 3481 4863 
L 3481 0 
L 2906 0 
L 2906 525 
Q 2725 213 2448 61 
Q 2172 -91 1784 -91 
Q 1150 -91 751 415 
Q 353 922 353 1747 
Q 353 2572 751 3078 
Q 1150 3584 1784 3584 
Q 2172 3584 2448 3432 
Q 2725 3281 2906 2969 
z
M 947 1747 
Q 947 1113 1208 752 
Q 1469 391 1925 391 
Q 2381 391 2643 752 
Q 2906 1113 2906 1747 
Q 2906 2381 2643 2742 
Q 2381 3103 1925 3103 
Q 1469 3103 1208 2742 
Q 947 2381 947 1747 
z
" transform="scale(0.015625)"/>
       <path id="DejaVuSans-73" d="M 2834 3397 
L 2834 2853 
Q 2591 2978 2328 3040 
Q 2066 3103 1784 3103 
Q 1356 3103 1142 2972 
Q 928 2841 928 2578 
Q 928 2378 1081 2264 
Q 1234 2150 1697 2047 
L 1894 2003 
Q 2506 1872 2764 1633 
Q 3022 1394 3022 966 
Q 3022 478 2636 193 
Q 2250 -91 1575 -91 
Q 1294 -91 989 -36 
Q 684 19 347 128 
L 347 722 
Q 666 556 975 473 
Q 1284 391 1588 391 
Q 1994 391 2212 530 
Q 2431 669 2431 922 
Q 2431 1156 2273 1281 
Q 2116 1406 1581 1522 
L 1381 1569 
Q 847 1681 609 1914 
Q 372 2147 372 2553 
Q 372 3047 722 3315 
Q 1072 3584 1716 3584 
Q 2034 3584 2315 3537 
Q 2597 3491 2834 3397 
z
" transform="scale(0.015625)"/>
      </defs>
      <use xlink:href="#DejaVuSans-50"/>
      <use xlink:href="#DejaVuSans-65" x="56.677734"/>
      <use xlink:href="#DejaVuSans-72" x="118.201172"/>
      <use xlink:href="#DejaVuSans-63" x="157.064453"/>
      <use xlink:href="#DejaVuSans-65" x="212.044922"/>
      <use xlink:href="#DejaVuSans-6e" x="273.568359"/>
      <use xlink:href="#DejaVuSans-74" x="336.947266"/>
      <use xlink:href="#DejaVuSans-20" x="376.15625"/>
      <use xlink:href="#DejaVuSans-6f" x="407.943359"/>
      <use xlink:href="#DejaVuSans-66" x="469.125"/>
      <use xlink:href="#DejaVuSans-20" x="504.330078"/>
      <use xlink:href="#DejaVuSans-72" x="536.117188"/>
      <use xlink:href="#DejaVuSans-65" x="574.980469"/>
      <use xlink:href="#DejaVuSans-61" x="636.503906"/>
      <use xlink:href="#DejaVuSans-64" x="697.783203"/>
      <use xlink:href="#DejaVuSans-73" x="761.259766"/>
     </g>
    </g>
   </g>
   <g id="matplotlib.axis_2">
    <g id="ytick_1">
     <g id="line2d_1">
      <path d="M 58.418125 353.2239 
L 985.263125 353.2239 
" clip-path="url(#pda6d3b7258)" style="fill: none; stroke: #dedede; stroke-linecap: square"/>
     </g>
     <g id="text_8">
      <!-- 0 -->
      <g transform="translate(46.328125 356.263275) scale(0.08 -0.08)">
       <use xlink:href="#DejaVuSans-30"/>
      </g>
     </g>
    </g>
    <g id="ytick_2">
     <g id="line2d_2">
      <path d="M 58.418125 313.973994 
L 985.263125 313.973994 
" clip-path="url(#pda6d3b7258)" style="fill: none; stroke: #dedede; stroke-linecap: square"/>
     </g>
     <g id="text_9">
      <!-- 20000 -->
      <g transform="translate(25.968125 317.013369) scale(0.08 -0.08)">
       <use xlink:href="#DejaVuSans-32"/>
       <use xlink:href="#DejaVuSans-30" x="63.623047"/>
       <use xlink:href="#DejaVuSans-30" x="127.246094"/>
       <use xlink:href="#DejaVuSans-30" x="190.869141"/>
       <use xlink:href="#DejaVuSans-30" x="254.492188"/>
      </g>
     </g>
    </g>
    <g id="ytick_3">
     <g id="line2d_3">
      <path d="M 58.418125 274.724089 
L 985.263125 274.724089 
" clip-path="url(#pda6d3b7258)" style="fill: none; stroke: #dedede; stroke-linecap: square"/>
     </g>
     <g id="text_10">
      <!-- 40000 -->
      <g transform="translate(25.968125 277.763464) scale(0.08 -0.08)">
       <use xlink:href="#DejaVuSans-34"/>
       <use xlink:href="#DejaVuSans-30" x="63.623047"/>
       <use xlink:href="#DejaVuSans-30" x="127.246094"/>
       <use xlink:href="#DejaVuSans-30" x="190.869141"/>
       <use xlink:href="#DejaVuSans-30" x="254.492188"/>
      </g>
     </g>
    </g>
    <g id="ytick_4">
     <g id="line2d_4">
      <path d="M 58.418125 235.474183 
L 985.263125 235.474183 
" clip-path="url(#pda6d3b7258)" style="fill: none; stroke: #dedede; stroke-linecap: square"/>
     </g>
     <g id="text_11">
      <!-- 60000 -->
      <g transform="translate(25.968125 238.513558) scale(0.08 -0.08)">
       <use xlink:href="#DejaVuSans-36"/>
       <use xlink:href="#DejaVuSans-30" x="63.623047"/>
       <use xlink:href="#DejaVuSans-30" x="127.246094"/>
       <use xlink:href="#DejaVuSans-30" x="190.869141"/>
       <use xlink:href="#DejaVuSans-30" x="254.492188"/>
      </g>
     </g>
    </g>
    <g id="ytick_5">
     <g id="line2d_5">
      <path d="M 58.418125 196.224277 
L 985.263125 196.224277 
" clip-path="url(#pda6d3b7258)" style="fill: none; stroke: #dedede; stroke-linecap: square"/>
     </g>
     <g id="text_12">
      <!-- 80000 -->
      <g transform="translate(25.968125 199.263652) scale(0.08 -0.08)">
       <use xlink:href="#DejaVuSans-38"/>
       <use xlink:href="#DejaVuSans-30" x="63.623047"/>
       <use xlink:href="#DejaVuSans-30" x="127.246094"/>
       <use xlink:href="#DejaVuSans-30" x="190.869141"/>
       <use xlink:href="#DejaVuSans-30" x="254.492188"/>
      </g>
     </g>
    </g>
    <g id="ytick_6">
     <g id="line2d_6">
      <path d="M 58.418125 156.974371 
L 985.263125 156.974371 
" clip-path="url(#pda6d3b7258)" style="fill: none; stroke: #dedede; stroke-linecap: square"/>
     </g>
     <g id="text_13">
      <!-- 100000 -->
      <g transform="translate(20.878125 160.013746) scale(0.08 -0.08)">
       <use xlink:href="#DejaVuSans-31"/>
       <use xlink:href="#DejaVuSans-30" x="63.623047"/>
       <use xlink:href="#DejaVuSans-30" x="127.246094"/>
       <use xlink:href="#DejaVuSans-30" x="190.869141"/>
       <use xlink:href="#DejaVuSans-30" x="254.492188"/>
       <use xlink:href="#DejaVuSans-30" x="318.115234"/>
      </g>
     </g>
    </g>
    <g id="ytick_7">
     <g id="line2d_7">
      <path d="M 58.418125 117.724466 
L 985.263125 117.724466 
" clip-path="url(#pda6d3b7258)" style="fill: none; stroke: #dedede; stroke-linecap: square"/>
     </g>
     <g id="text_14">
      <!-- 120000 -->
      <g transform="translate(20.878125 120.763841) scale(0.08 -0.08)">
       <use xlink:href="#DejaVuSans-31"/>
       <use xlink:href="#DejaVuSans-32" x="63.623047"/>
       <use xlink:href="#DejaVuSans-30" x="127.246094"/>
       <use xlink:href="#DejaVuSans-30" x="190.869141"/>
       <use xlink:href="#DejaVuSans-30" x="254.492188"/>
       <use xlink:href="#DejaVuSans-30" x="318.115234"/>
      </g>
     </g>
    </g>
    <g id="ytick_8">
     <g id="line2d_8">
      <path d="M 58.418125 78.47456 
L 985.263125 78.47456 
" clip-path="url(#pda6d3b7258)" style="fill: none; stroke: #dedede; stroke-linecap: square"/>
     </g>
     <g id="text_15">
      <!-- 140000 -->
      <g transform="translate(20.878125 81.513935) scale(0.08 -0.08)">
       <use xlink:href="#DejaVuSans-31"/>
       <use xlink:href="#DejaVuSans-34" x="63.623047"/>
       <use xlink:href="#DejaVuSans-30" x="127.246094"/>
       <use xlink:href="#DejaVuSans-30" x="190.869141"/>
       <use xlink:href="#DejaVuSans-30" x="254.492188"/>
       <use xlink:href="#DejaVuSans-30" x="318.115234"/>
      </g>
     </g>
    </g>
    <g id="ytick_9">
     <g id="line2d_9">
      <path d="M 58.418125 39.224654 
L 985.263125 39.224654 
" clip-path="url(#pda6d3b7258)" style="fill: none; stroke: #dedede; stroke-linecap: square"/>
     </g>
     <g id="text_16">
      <!-- 160000 -->
      <g transform="translate(20.878125 42.264029) scale(0.08 -0.08)">
       <use xlink:href="#DejaVuSans-31"/>
       <use xlink:href="#DejaVuSans-36" x="63.623047"/>
       <use xlink:href="#DejaVuSans-30" x="127.246094"/>
       <use xlink:href="#DejaVuSans-30" x="190.869141"/>
       <use xlink:href="#DejaVuSans-30" x="254.492188"/>
       <use xlink:href="#DejaVuSans-30" x="318.115234"/>
      </g>
     </g>
    </g>
    <g id="text_17">
     <!-- Number of Junctions -->
     <g transform="translate(14.798438 245.067244) rotate(-90) scale(0.1 -0.1)">
      <defs>
       <path id="DejaVuSans-4e" d="M 628 4666 
L 1478 4666 
L 3547 763 
L 3547 4666 
L 4159 4666 
L 4159 0 
L 3309 0 
L 1241 3903 
L 1241 0 
L 628 0 
L 628 4666 
z
" transform="scale(0.015625)"/>
       <path id="DejaVuSans-75" d="M 544 1381 
L 544 3500 
L 1119 3500 
L 1119 1403 
Q 1119 906 1312 657 
Q 1506 409 1894 409 
Q 2359 409 2629 706 
Q 2900 1003 2900 1516 
L 2900 3500 
L 3475 3500 
L 3475 0 
L 2900 0 
L 2900 538 
Q 2691 219 2414 64 
Q 2138 -91 1772 -91 
Q 1169 -91 856 284 
Q 544 659 544 1381 
z
M 1991 3584 
L 1991 3584 
z
" transform="scale(0.015625)"/>
       <path id="DejaVuSans-6d" d="M 3328 2828 
Q 3544 3216 3844 3400 
Q 4144 3584 4550 3584 
Q 5097 3584 5394 3201 
Q 5691 2819 5691 2113 
L 5691 0 
L 5113 0 
L 5113 2094 
Q 5113 2597 4934 2840 
Q 4756 3084 4391 3084 
Q 3944 3084 3684 2787 
Q 3425 2491 3425 1978 
L 3425 0 
L 2847 0 
L 2847 2094 
Q 2847 2600 2669 2842 
Q 2491 3084 2119 3084 
Q 1678 3084 1418 2786 
Q 1159 2488 1159 1978 
L 1159 0 
L 581 0 
L 581 3500 
L 1159 3500 
L 1159 2956 
Q 1356 3278 1631 3431 
Q 1906 3584 2284 3584 
Q 2666 3584 2933 3390 
Q 3200 3197 3328 2828 
z
" transform="scale(0.015625)"/>
       <path id="DejaVuSans-62" d="M 3116 1747 
Q 3116 2381 2855 2742 
Q 2594 3103 2138 3103 
Q 1681 3103 1420 2742 
Q 1159 2381 1159 1747 
Q 1159 1113 1420 752 
Q 1681 391 2138 391 
Q 2594 391 2855 752 
Q 3116 1113 3116 1747 
z
M 1159 2969 
Q 1341 3281 1617 3432 
Q 1894 3584 2278 3584 
Q 2916 3584 3314 3078 
Q 3713 2572 3713 1747 
Q 3713 922 3314 415 
Q 2916 -91 2278 -91 
Q 1894 -91 1617 61 
Q 1341 213 1159 525 
L 1159 0 
L 581 0 
L 581 4863 
L 1159 4863 
L 1159 2969 
z
" transform="scale(0.015625)"/>
       <path id="DejaVuSans-4a" d="M 628 4666 
L 1259 4666 
L 1259 325 
Q 1259 -519 939 -900 
Q 619 -1281 -91 -1281 
L -331 -1281 
L -331 -750 
L -134 -750 
Q 284 -750 456 -515 
Q 628 -281 628 325 
L 628 4666 
z
" transform="scale(0.015625)"/>
       <path id="DejaVuSans-69" d="M 603 3500 
L 1178 3500 
L 1178 0 
L 603 0 
L 603 3500 
z
M 603 4863 
L 1178 4863 
L 1178 4134 
L 603 4134 
L 603 4863 
z
" transform="scale(0.015625)"/>
      </defs>
      <use xlink:href="#DejaVuSans-4e"/>
      <use xlink:href="#DejaVuSans-75" x="74.804688"/>
      <use xlink:href="#DejaVuSans-6d" x="138.183594"/>
      <use xlink:href="#DejaVuSans-62" x="235.595703"/>
      <use xlink:href="#DejaVuSans-65" x="299.072266"/>
      <use xlink:href="#DejaVuSans-72" x="360.595703"/>
      <use xlink:href="#DejaVuSans-20" x="401.708984"/>
      <use xlink:href="#DejaVuSans-6f" x="433.496094"/>
      <use xlink:href="#DejaVuSans-66" x="494.677734"/>
      <use xlink:href="#DejaVuSans-20" x="529.882812"/>
      <use xlink:href="#DejaVuSans-4a" x="561.669922"/>
      <use xlink:href="#DejaVuSans-75" x="591.162109"/>
      <use xlink:href="#DejaVuSans-6e" x="654.541016"/>
      <use xlink:href="#DejaVuSans-63" x="717.919922"/>
      <use xlink:href="#DejaVuSans-74" x="772.900391"/>
      <use xlink:href="#DejaVuSans-69" x="812.109375"/>
      <use xlink:href="#DejaVuSans-6f" x="839.892578"/>
      <use xlink:href="#DejaVuSans-6e" x="901.074219"/>
      <use xlink:href="#DejaVuSans-73" x="964.453125"/>
     </g>
    </g>
   </g>
   <g id="line2d_10">
    <path d="M 104.760375 199.193532 
L 151.102625 153.606729 
L 197.444875 131.556132 
L 243.787125 118.366202 
L 290.129375 108.936412 
L 336.471625 101.783116 
L 382.813875 96.050668 
L 429.156125 91.407404 
L 475.498375 87.348964 
L 521.840625 83.812547 
L 568.182875 80.678442 
L 614.525125 77.860299 
L 660.867375 75.505305 
L 707.209625 73.264135 
L 753.551875 71.156415 
L 799.894125 69.199807 
L 846.236375 67.455149 
L 892.578625 65.75759 
L 938.920875 64.154232 
L 985.263125 62.546948 
" clip-path="url(#pda6d3b7258)" style="fill: none; stroke: #7cb5ec; stroke-linecap: square"/>
   </g>
   <g id="line2d_11">
    <path d="M 104.760375 208.688085 
L 151.102625 162.084709 
L 197.444875 139.162764 
L 243.787125 124.858136 
L 290.129375 114.725773 
L 336.471625 107.313428 
L 382.813875 101.278755 
L 429.156125 96.464754 
L 475.498375 92.314077 
L 521.840625 88.595148 
L 568.182875 85.335443 
L 614.525125 82.448613 
L 660.867375 79.791394 
L 707.209625 77.41285 
L 753.551875 75.28943 
L 799.894125 73.39366 
L 846.236375 71.492002 
L 892.578625 69.737531 
L 938.920875 68.106697 
L 985.263125 66.577914 
" clip-path="url(#pda6d3b7258)" style="fill: none; stroke: #434348; stroke-linecap: square"/>
   </g>
   <g id="line2d_12">
    <path d="M 104.760375 184.235393 
L 151.102625 141.117409 
L 197.444875 120.833058 
L 243.787125 108.337851 
L 290.129375 99.22991 
L 336.471625 92.480889 
L 382.813875 87.089914 
L 429.156125 82.287688 
L 475.498375 78.276348 
L 521.840625 74.804694 
L 568.182875 71.751051 
L 614.525125 68.946645 
L 660.867375 66.466051 
L 707.209625 64.111057 
L 753.551875 62.075949 
L 799.894125 60.188029 
L 846.236375 58.404121 
L 892.578625 56.6889 
L 938.920875 55.079654 
L 985.263125 53.55872 
" clip-path="url(#pda6d3b7258)" style="fill: none; stroke: #90ed7d; stroke-linecap: square"/>
   </g>
   <g id="line2d_13">
    <path d="M 104.760375 171.261337 
L 151.102625 128.863589 
L 197.444875 110.037372 
L 243.787125 98.134838 
L 290.129375 89.959082 
L 336.471625 83.630035 
L 382.813875 78.551097 
L 429.156125 74.135483 
L 475.498375 70.341979 
L 521.840625 67.135262 
L 568.182875 64.266094 
L 614.525125 61.728588 
L 660.867375 59.438356 
L 707.209625 57.297273 
L 753.551875 55.328891 
L 799.894125 53.450783 
L 846.236375 51.631549 
L 892.578625 49.957541 
L 938.920875 48.440532 
L 985.263125 47.011836 
" clip-path="url(#pda6d3b7258)" style="fill: none; stroke: #f7a35c; stroke-linecap: square"/>
   </g>
   <g id="line2d_14">
    <path d="M 104.760375 201.878226 
L 151.102625 156.069661 
L 197.444875 133.846364 
L 243.787125 120.04021 
L 290.129375 110.65752 
L 336.471625 103.584687 
L 382.813875 97.842426 
L 429.156125 92.918525 
L 475.498375 88.771773 
L 521.840625 85.233394 
L 568.182875 82.073776 
L 614.525125 79.377308 
L 660.867375 76.822139 
L 707.209625 74.418082 
L 753.551875 72.263262 
L 799.894125 70.237967 
L 846.236375 68.310797 
L 892.578625 66.709401 
L 938.920875 65.007917 
L 985.263125 63.563521 
" clip-path="url(#pda6d3b7258)" style="fill: none; stroke: #8085e9; stroke-linecap: square"/>
   </g>
   <g id="line2d_15">
    <path d="M 104.760375 182.853797 
L 151.102625 138.70354 
L 197.444875 118.450589 
L 243.787125 105.929869 
L 290.129375 97.02014 
L 336.471625 90.322144 
L 382.813875 84.770245 
L 429.156125 80.274168 
L 475.498375 76.39039 
L 521.840625 72.995273 
L 568.182875 69.872943 
L 614.525125 67.331512 
L 660.867375 64.87643 
L 707.209625 62.692173 
L 753.551875 60.553053 
L 799.894125 58.547383 
L 846.236375 56.826274 
L 892.578625 55.105166 
L 938.920875 53.564607 
L 985.263125 52.114323 
" clip-path="url(#pda6d3b7258)" style="fill: none; stroke: #f15c80; stroke-linecap: square"/>
   </g>
   <g id="line2d_16">
    <path d="M 104.760375 188.788382 
L 151.102625 145.534986 
L 197.444875 124.881686 
L 243.787125 112.176491 
L 290.129375 103.058738 
L 336.471625 96.072255 
L 382.813875 90.161219 
L 429.156125 85.498331 
L 475.498375 81.498765 
L 521.840625 78.082061 
L 568.182875 74.920481 
L 614.525125 72.110188 
L 660.867375 69.570719 
L 707.209625 67.341324 
L 753.551875 65.157067 
L 799.894125 63.198497 
L 846.236375 61.298801 
L 892.578625 59.561993 
L 938.920875 57.923309 
L 985.263125 56.498538 
" clip-path="url(#pda6d3b7258)" style="fill: none; stroke: #e4d354; stroke-linecap: square"/>
   </g>
   <g id="line2d_17">
    <path d="M 104.760375 172.809746 
L 151.102625 129.079463 
L 197.444875 109.499648 
L 243.787125 97.347877 
L 290.129375 88.84046 
L 336.471625 82.374038 
L 382.813875 77.006613 
L 429.156125 72.443812 
L 475.498375 68.558071 
L 521.840625 65.180617 
L 568.182875 62.075949 
L 614.525125 59.330418 
L 660.867375 56.922437 
L 707.209625 54.51838 
L 753.551875 52.532335 
L 799.894125 50.628714 
L 846.236375 48.817331 
L 892.578625 47.139398 
L 938.920875 45.483052 
L 985.263125 43.930718 
" clip-path="url(#pda6d3b7258)" style="fill: none; stroke: #2b908f; stroke-linecap: square"/>
   </g>
   <g id="line2d_18">
    <path d="M 104.760375 217.427076 
L 151.102625 170.9022 
L 197.444875 147.744756 
L 243.787125 132.727742 
L 290.129375 122.469779 
L 336.471625 114.539336 
L 382.813875 108.243651 
L 429.156125 103.2962 
L 475.498375 99.106273 
L 521.840625 95.348094 
L 568.182875 92.08054 
L 614.525125 89.164272 
L 660.867375 86.532566 
L 707.209625 84.118696 
L 753.551875 81.840239 
L 799.894125 79.879707 
L 846.236375 78.040848 
L 892.578625 76.25694 
L 938.920875 74.500507 
L 985.263125 72.954061 
" clip-path="url(#pda6d3b7258)" style="fill: none; stroke: #f45b5b; stroke-linecap: square"/>
   </g>
   <g id="line2d_19">
    <path d="M 104.760375 183.440583 
L 151.102625 140.299049 
L 197.444875 119.979373 
L 243.787125 107.154466 
L 290.129375 98.195675 
L 336.471625 91.450579 
L 382.813875 85.951667 
L 429.156125 81.335878 
L 475.498375 77.387338 
L 521.840625 74.009883 
L 568.182875 70.950353 
L 614.525125 68.159685 
L 660.867375 65.706566 
L 707.209625 63.316246 
L 753.551875 61.283101 
L 799.894125 59.342193 
L 846.236375 57.595573 
L 892.578625 56.005951 
L 938.920875 54.490905 
L 985.263125 53.056321 
" clip-path="url(#pda6d3b7258)" style="fill: none; stroke: #91e8e1; stroke-linecap: square"/>
   </g>
   <g id="line2d_20">
    <path d="M 104.760375 186.046777 
L 151.102625 141.562896 
L 197.444875 120.939033 
L 243.787125 108.661662 
L 290.129375 99.938371 
L 336.471625 93.283549 
L 382.813875 87.741463 
L 429.156125 83.188474 
L 475.498375 79.065271 
L 521.840625 75.626979 
L 568.182875 72.696974 
L 614.525125 70.002468 
L 660.867375 67.510099 
L 707.209625 65.347429 
L 753.551875 63.200459 
L 799.894125 61.257589 
L 846.236375 59.357893 
L 892.578625 57.701547 
L 938.920875 56.221826 
L 985.263125 54.724442 
" clip-path="url(#pda6d3b7258)" style="fill: none; stroke: #7cb5ec; stroke-linecap: square"/>
   </g>
   <g id="line2d_21">
    <path d="M 104.760375 177.982883 
L 151.102625 133.942527 
L 197.444875 113.96825 
L 243.787125 101.912641 
L 290.129375 93.2129 
L 336.471625 86.852452 
L 382.813875 81.647915 
L 429.156125 77.24015 
L 475.498375 73.595797 
L 521.840625 70.23208 
L 568.182875 67.425711 
L 614.525125 64.79008 
L 660.867375 62.521436 
L 707.209625 60.388203 
L 753.551875 58.374683 
L 799.894125 56.57115 
L 846.236375 54.838267 
L 892.578625 53.162296 
L 938.920875 51.617812 
L 985.263125 50.20874 
" clip-path="url(#pda6d3b7258)" style="fill: none; stroke: #434348; stroke-linecap: square"/>
   </g>
   <g id="line2d_22">
    <path d="M 104.760375 180.282928 
L 151.102625 136.613483 
L 197.444875 116.423331 
L 243.787125 104.151848 
L 290.129375 95.465844 
L 336.471625 88.77766 
L 382.813875 83.457335 
L 429.156125 78.947521 
L 475.498375 75.130468 
L 521.840625 71.819738 
L 568.182875 68.862258 
L 614.525125 66.236439 
L 660.867375 63.883407 
L 707.209625 61.697188 
L 753.551875 59.605168 
L 799.894125 57.668185 
L 846.236375 55.923527 
L 892.578625 54.290731 
L 938.920875 52.779609 
L 985.263125 51.292038 
" clip-path="url(#pda6d3b7258)" style="fill: none; stroke: #90ed7d; stroke-linecap: square"/>
   </g>
   <g id="line2d_23">
    <path d="M 104.760375 177.333297 
L 151.102625 133.143791 
L 197.444875 113.138114 
L 243.787125 100.994193 
L 290.129375 92.500514 
L 336.471625 86.067454 
L 382.813875 80.766754 
L 429.156125 76.435527 
L 475.498375 72.675386 
L 521.840625 69.315594 
L 568.182875 66.285502 
L 614.525125 63.608658 
L 660.867375 61.302726 
L 707.209625 59.191081 
L 753.551875 57.155974 
L 799.894125 55.279828 
L 846.236375 53.468445 
L 892.578625 51.819949 
L 938.920875 50.218553 
L 985.263125 48.772194 
" clip-path="url(#pda6d3b7258)" style="fill: none; stroke: #f7a35c; stroke-linecap: square"/>
   </g>
   <g id="line2d_24">
    <path d="M 104.760375 191.677176 
L 151.102625 146.066823 
L 197.444875 124.502924 
L 243.787125 111.683905 
L 290.129375 102.697639 
L 336.471625 95.646394 
L 382.813875 90.121969 
L 429.156125 85.353106 
L 475.498375 81.457553 
L 521.840625 78.058511 
L 568.182875 74.985243 
L 614.525125 72.282887 
L 660.867375 69.713981 
L 707.209625 67.486549 
L 753.551875 65.243417 
L 799.894125 63.267184 
L 846.236375 61.520563 
L 892.578625 59.832817 
L 938.920875 58.253009 
L 985.263125 56.732075 
" clip-path="url(#pda6d3b7258)" style="fill: none; stroke: #8085e9; stroke-linecap: square"/>
   </g>
   <g id="line2d_25">
    <path d="M 104.760375 173.596706 
L 151.102625 131.308858 
L 197.444875 111.746705 
L 243.787125 100.185645 
L 290.129375 91.858778 
L 336.471625 85.288344 
L 382.813875 80.178006 
L 429.156125 75.937054 
L 475.498375 72.3084 
L 521.840625 68.98982 
L 568.182875 66.042152 
L 614.525125 63.471283 
L 660.867375 61.018164 
L 707.209625 58.896707 
L 753.551875 56.820387 
L 799.894125 55.050216 
L 846.236375 53.232946 
L 892.578625 51.590337 
L 938.920875 50.034078 
L 985.263125 48.652482 
" clip-path="url(#pda6d3b7258)" style="fill: none; stroke: #f15c80; stroke-linecap: square"/>
   </g>
   <g id="line2d_26">
    <path d="M 58.418125 353.2239 
L 985.263125 353.2239 
" clip-path="url(#pda6d3b7258)" style="fill: none; stroke: #dedede; stroke-width: 2; stroke-linecap: square"/>
   </g>
   <g id="text_18">
    <!-- RSeQC: Junction Saturation -->
    <g transform="translate(412.691875 19.3575) scale(0.16 -0.16)">
     <defs>
      <path id="DejaVuSans-52" d="M 2841 2188 
Q 3044 2119 3236 1894 
Q 3428 1669 3622 1275 
L 4263 0 
L 3584 0 
L 2988 1197 
Q 2756 1666 2539 1819 
Q 2322 1972 1947 1972 
L 1259 1972 
L 1259 0 
L 628 0 
L 628 4666 
L 2053 4666 
Q 2853 4666 3247 4331 
Q 3641 3997 3641 3322 
Q 3641 2881 3436 2590 
Q 3231 2300 2841 2188 
z
M 1259 4147 
L 1259 2491 
L 2053 2491 
Q 2509 2491 2742 2702 
Q 2975 2913 2975 3322 
Q 2975 3731 2742 3939 
Q 2509 4147 2053 4147 
L 1259 4147 
z
" transform="scale(0.015625)"/>
      <path id="DejaVuSans-53" d="M 3425 4513 
L 3425 3897 
Q 3066 4069 2747 4153 
Q 2428 4238 2131 4238 
Q 1616 4238 1336 4038 
Q 1056 3838 1056 3469 
Q 1056 3159 1242 3001 
Q 1428 2844 1947 2747 
L 2328 2669 
Q 3034 2534 3370 2195 
Q 3706 1856 3706 1288 
Q 3706 609 3251 259 
Q 2797 -91 1919 -91 
Q 1588 -91 1214 -16 
Q 841 59 441 206 
L 441 856 
Q 825 641 1194 531 
Q 1563 422 1919 422 
Q 2459 422 2753 634 
Q 3047 847 3047 1241 
Q 3047 1584 2836 1778 
Q 2625 1972 2144 2069 
L 1759 2144 
Q 1053 2284 737 2584 
Q 422 2884 422 3419 
Q 422 4038 858 4394 
Q 1294 4750 2059 4750 
Q 2388 4750 2728 4690 
Q 3069 4631 3425 4513 
z
" transform="scale(0.015625)"/>
      <path id="DejaVuSans-51" d="M 2522 4238 
Q 1834 4238 1429 3725 
Q 1025 3213 1025 2328 
Q 1025 1447 1429 934 
Q 1834 422 2522 422 
Q 3209 422 3611 934 
Q 4013 1447 4013 2328 
Q 4013 3213 3611 3725 
Q 3209 4238 2522 4238 
z
M 3406 84 
L 4238 -825 
L 3475 -825 
L 2784 -78 
Q 2681 -84 2626 -87 
Q 2572 -91 2522 -91 
Q 1538 -91 948 567 
Q 359 1225 359 2328 
Q 359 3434 948 4092 
Q 1538 4750 2522 4750 
Q 3503 4750 4090 4092 
Q 4678 3434 4678 2328 
Q 4678 1516 4351 937 
Q 4025 359 3406 84 
z
" transform="scale(0.015625)"/>
      <path id="DejaVuSans-43" d="M 4122 4306 
L 4122 3641 
Q 3803 3938 3442 4084 
Q 3081 4231 2675 4231 
Q 1875 4231 1450 3742 
Q 1025 3253 1025 2328 
Q 1025 1406 1450 917 
Q 1875 428 2675 428 
Q 3081 428 3442 575 
Q 3803 722 4122 1019 
L 4122 359 
Q 3791 134 3420 21 
Q 3050 -91 2638 -91 
Q 1578 -91 968 557 
Q 359 1206 359 2328 
Q 359 3453 968 4101 
Q 1578 4750 2638 4750 
Q 3056 4750 3426 4639 
Q 3797 4528 4122 4306 
z
" transform="scale(0.015625)"/>
      <path id="DejaVuSans-3a" d="M 750 794 
L 1409 794 
L 1409 0 
L 750 0 
L 750 794 
z
M 750 3309 
L 1409 3309 
L 1409 2516 
L 750 2516 
L 750 3309 
z
" transform="scale(0.015625)"/>
     </defs>
     <use xlink:href="#DejaVuSans-52"/>
     <use xlink:href="#DejaVuSans-53" x="69.482422"/>
     <use xlink:href="#DejaVuSans-65" x="132.958984"/>
     <use xlink:href="#DejaVuSans-51" x="194.482422"/>
     <use xlink:href="#DejaVuSans-43" x="273.193359"/>
     <use xlink:href="#DejaVuSans-3a" x="343.017578"/>
     <use xlink:href="#DejaVuSans-20" x="376.708984"/>
     <use xlink:href="#DejaVuSans-4a" x="408.496094"/>
     <use xlink:href="#DejaVuSans-75" x="437.988281"/>
     <use xlink:href="#DejaVuSans-6e" x="501.367188"/>
     <use xlink:href="#DejaVuSans-63" x="564.746094"/>
     <use xlink:href="#DejaVuSans-74" x="619.726562"/>
     <use xlink:href="#DejaVuSans-69" x="658.935547"/>
     <use xlink:href="#DejaVuSans-6f" x="686.71875"/>
     <use xlink:href="#DejaVuSans-6e" x="747.900391"/>
     <use xlink:href="#DejaVuSans-20" x="811.279297"/>
     <use xlink:href="#DejaVuSans-53" x="843.066406"/>
     <use xlink:href="#DejaVuSans-61" x="906.542969"/>
     <use xlink:href="#DejaVuSans-74" x="967.822266"/>
     <use xlink:href="#DejaVuSans-75" x="1007.03125"/>
     <use xlink:href="#DejaVuSans-72" x="1070.410156"/>
     <use xlink:href="#DejaVuSans-61" x="1111.523438"/>
     <use xlink:href="#DejaVuSans-74" x="1172.802734"/>
     <use xlink:href="#DejaVuSans-69" x="1212.011719"/>
     <use xlink:href="#DejaVuSans-6f" x="1239.794922"/>
     <use xlink:href="#DejaVuSans-6e" x="1300.976562"/>
    </g>
   </g>
  </g>
 </g>
 <defs>
  <clipPath id="pda6d3b7258">
   <rect x="58.418125" y="35.2559" width="926.845" height="317.968"/>
  </clipPath>
 </defs>
</svg>
